<svg id="Layer_1" data-name="Layer 1" xmlns="http://www.w3.org/2000/svg" viewBox="0 0 512 512"><path d="M299.33,446h60v60h-60Z" fill="#f44"/><path d="M372.67,372.67h60V506h-60Z" fill="orange"/><path d="M446,312.67h60V506H446Z" fill="#9c0"/><path d="M337.53,282.35a31.5,31.5,0,0,0-44.25,2.21L286.47,292A30.74,30.74,0,0,0,280,303l-.6,1.81-1.8-.7a131.64,131.64,0,0,1-69.77-63.54l-1-1.91L209,238a31.36,31.36,0,0,0,14.19-8.92l6.8-7.47a30.93,30.93,0,0,0-2.21-43.92l-11.51-10.32A31.5,31.5,0,0,0,172,169.59l-6.82,7.48a31.1,31.1,0,0,0-2.51,3.14l-.32.34c-6.43,5.46-11.9,18.74-8.73,35,14.64,75.68,78.89,133.35,156.24,140.23,10.15.92,19.7-1.17,26.94-5.58a31.43,31.43,0,0,0,7.65-6.11l6.82-7.48A31,31,0,0,0,349,292.71Z" fill="#2f2f39"/><path d="M132.17,400.11l-39.64,45A249,249,0,0,0,256,506h16.67V446H256A189.29,189.29,0,0,1,132.17,400.11Z" fill="#f44"/><path d="M108.82,376.18A189.31,189.31,0,0,1,66,256C66,151.06,151.07,66,256,66A189.25,189.25,0,0,1,356.51,94.72l40.05-45.51A249,249,0,0,0,256,6C117.93,6,6,117.93,6,256A249.13,249.13,0,0,0,68.77,421.68Z" fill="orange"/><path d="M446,279.33V256a189.49,189.49,0,0,0-62.8-141.15l39.65-45A249.46,249.46,0,0,1,506,256v23.33Z" fill="#9c0"/></svg>