<svg width="15" height="15" viewBox="0 0 15 15" fill="none" xmlns="http://www.w3.org/2000/svg">
<path d="M7.625 0.25C9.51467 0.25 11.3269 1.00067 12.6631 2.33686C13.9993 3.67306 14.75 5.48533 14.75 7.375C14.75 9.26467 13.9993 11.0769 12.6631 12.4131C11.3269 13.7493 9.51467 14.5 7.625 14.5C5.73533 14.5 3.92306 13.7493 2.58686 12.4131C1.25067 11.0769 0.5 9.26467 0.5 7.375C0.5 5.48533 1.25067 3.67306 2.58686 2.33686C3.92306 1.00067 5.73533 0.25 7.625 0.25ZM7.625 1C5.93425 1 4.31274 1.67165 3.11719 2.86719C1.92165 4.06274 1.25 5.68425 1.25 7.375C1.25 9.06575 1.92165 10.6873 3.11719 11.8828C4.31274 13.0784 5.93425 13.75 7.625 13.75C9.31575 13.75 10.9373 13.0784 12.1328 11.8828C13.3284 10.6873 14 9.06575 14 7.375C14 5.68425 13.3284 4.06274 12.1328 2.86719C10.9373 1.67165 9.31575 1 7.625 1ZM7.25 3.25H8V7.31725L11.522 9.3505L11.147 10L7.25 7.75V3.25Z" fill="#707174"/>
</svg>
