<svg width="15" height="8" viewBox="0 0 15 8" fill="none" xmlns="http://www.w3.org/2000/svg">
    <path d="M14.9998 6.83001C15.0003 6.68062 14.9673 6.53301 14.9033 6.39803C14.8393 6.26305 14.7458 6.14413 14.6298 6.05001L8.62979 1.22001C8.45085 1.07293 8.22641 0.992523 7.99479 0.992523C7.76316 0.992523 7.53872 1.07293 7.35979 1.22001L1.35979 6.22001C1.15557 6.38975 1.02715 6.63366 1.00277 6.89809C0.978387 7.16251 1.06005 7.42579 1.22979 7.63001C1.39953 7.83423 1.64344 7.96265 1.90786 7.98703C2.17229 8.01141 2.43557 7.92975 2.63979 7.76001L7.99979 3.29001L13.3598 7.61001C13.5066 7.73229 13.6853 7.80997 13.8749 7.83385C14.0644 7.85773 14.2568 7.82681 14.4294 7.74476C14.6019 7.6627 14.7473 7.53294 14.8484 7.37083C14.9495 7.20872 15.002 7.02104 14.9998 6.83001Z"
          fill="#707174"/>
</svg>
