<svg width="156" height="77.49532015439223" viewBox="0 0 350 173.86770547459795" class="looka-1j8o68f"><defs id="SvgjsDefs4505"></defs><g id="SvgjsG4506" featurekey="symbolFeature-0" transform="matrix(1.55501034861231,0,0,1.55501034861231,97.22494825693845,-13.256462628730569)" fill="#ffffff"><path xmlns="http://www.w3.org/2000/svg" d="M95,61.8c-0.4-4.1-1.7-6.7-4.1-8c1.6-1.7,3.7-5.5,3.2-10.4c-0.4-3.9-1.3-5.9-3.4-7.3c1.8-1.9,3.9-5.7,3.4-10.1  c-0.8-7-4.5-8.7-8.4-9.6L50.1,8.6c-0.7-0.1-1.4-0.1-2,0L8.3,17.8c-0.6,0.1-1.1,0.7-1.1,1.3c0,0.6,0.3,1.2,0.9,1.4l6.6,2.5  c0.5,0.7,2.5,4,0.7,6.1l-8.7,3.9c-0.2,0.1-0.4,0.2-0.5,0.4c-0.4,0.3-0.9,0.9-0.9,1.9c0,1.5,0.9,2.1,1.3,2.2l8.9,4.3  c0.3,0.5,1.7,2.6-0.1,4.7l-8.9,3.2c-0.1,0-0.1,0-0.2,0.1C6,49.9,5,50.5,5,52c0,1.6,1,2.1,1.4,2.2c0,0,0,0,0.1,0l0,0l10,5.1  c0.3,0.8,1.2,3.8-0.2,5.5L6.4,69c-0.5,0.2-0.9,0.7-0.9,1.3c0,0.6,0.3,1.1,0.8,1.3L44.6,91c0.6,0.3,1.2,0.4,1.9,0.4  c0.5,0,1.1-0.1,1.6-0.3l40.6-17.7c0.5-0.2,0.9-0.4,1.3-0.8C91.9,71.2,95.4,67,95,61.8z M8.4,19.2c0-0.1,0-0.2,0.2-0.2l39.8-9.2  c0.5-0.1,1-0.1,1.5,0l35.6,7.7c4,0.9,6.9,2.7,7.5,8.6c0.5,4.5-1.9,8.2-3.6,9.6c0,0-2.3,1.8-5.6,3.2c0,0,0,0,0,0l-9.4,3.9  c-0.1-0.5-0.3-1-0.4-1.5l-0.6,0.2l0.6-0.2c-0.1-0.3-0.2-0.7-0.2-1l0-0.1c-0.1-0.4-0.2-0.8-0.2-1.2c0,0,0-0.1,0-0.1l12.4-5  c0,0,4.7-1.7,4.7-7.5c0-1.9-0.5-3.3-1.6-4.3c-1.6-1.4-3.8-1.2-3.9-1.2c0,0-0.1,0-0.1,0L48.1,32.6c-0.6,0.2-1.2,0.3-1.8,0.3  c-0.1-0.1-0.3-0.1-0.5,0c-1,0-2-0.1-2.9-0.5l-34.4-13C8.4,19.4,8.4,19.3,8.4,19.2z M87.2,40c1.4,0.6,2.1,1.9,2.1,3.9  c0,1.2-0.2,2.3-0.6,3.3c-0.9,2.2-2.7,4-5,4.9l-2.8,1.2c0,0,0,0,0,0c-0.2-0.2-0.4-0.4-0.7-0.6c-1.6-1.5-3.8-4.2-5.5-8.8l9.5-4l0,0  c0,0,0,0,0,0C85.2,39.6,86.3,39.6,87.2,40z M65.1,48c0.6,1.6,1.1,3,1.4,4.3c0,0.1,0.9,3.1,3.3,5.7l-22.3,8.8  c-0.2,0.1-0.3,0.1-0.5,0.1c2.6-6.7,1.3-10.2,0.3-11.6c0.3-0.1,0.6-0.2,0.9-0.3L65.1,48z M71.6,58.3c-0.1-0.1-0.3-0.3-0.5-0.4  c0,0,0,0,0,0c0,0,0,0,0,0c-0.1-0.1-0.2-0.3-0.4-0.4l-0.1-0.1c-2.2-2.5-3.1-5.4-3.1-5.4c-0.4-1.4-0.9-3.1-1.6-5  c-0.5-1.2-1.1-2.6-1.7-4c-0.2-0.4-0.4-0.8-0.6-1.2c-1.2-2.4-2.2-4.4-2.7-5.2l8.9-2.9c0,0.1,0.1,0.1,0.1,0.2c2,2.1,2.1,5.2,2.1,5.3  c0,0,0,0.1,0,0.1c0.1,0.4,0.2,0.8,0.3,1.2l0,0.1c0.1,0.4,0.2,0.7,0.3,1c0,0,0,0.1,0,0.1c0.2,0.7,0.4,1.5,0.6,2.1  c1.7,5.1,4.2,8.2,6,9.8c0.3,0.3,0.6,0.5,0.8,0.7l-5.9-0.8c-0.2,0-0.3,0-0.5,0.1c-0.1,0.1-0.2,0.3-0.2,0.4v5.5  c-0.1-0.1-0.2-0.1-0.3-0.2l-0.1-0.1c-0.2-0.1-0.3-0.2-0.5-0.4c-0.1-0.1-0.3-0.2-0.4-0.3l-0.1-0.1C71.9,58.6,71.8,58.5,71.6,58.3  l-0.3,0.5L71.6,58.3z M71.1,33.3l4.4-1.5c0.3-0.1,0.5-0.4,0.4-0.7c-0.1-0.3-0.4-0.5-0.7-0.4l-18.1,6c-0.3,0.1-0.5,0.4-0.4,0.7  c0.1,0.2,0.3,0.4,0.6,0.4c0.1,0,0.1,0,0.2,0l2.5-0.8c0.3,0.5,1.3,2.4,2.5,4.7l-15.2,5.8c3.3-7.4,1.4-11.8,0.1-13.6  c0.4-0.1,0.8-0.2,1.1-0.3l36.7-11.5c0.3,0,1.8-0.1,3,0.9c0.8,0.7,1.2,1.9,1.2,3.4c0,4.9-3.7,6.3-3.9,6.4l-12.2,4.9  C72.9,36.5,72.4,34.8,71.1,33.3z M16.3,29.9c1.8-2,1-4.6,0.2-6.2l26,9.8c1.1,0.4,2.2,0.6,3.4,0.6c0.9,0.9,3.9,5.2-0.2,13.7  c-0.4,0-0.7-0.1-1.1-0.2L12.7,33.7C13.9,32.6,15.9,30.8,16.3,29.9z M7.1,36.5c-0.4-0.1-0.6-0.5-0.6-1.1c0-0.5,0.1-0.8,0.4-1  c0,0,0.1-0.1,0.1-0.1c0,0,0.1-0.1,0.1-0.1l6.4-2.9c-0.7,0.7-1.6,1.5-2.4,2.2C11.1,33.6,11,33.8,11,34c0,0.2,0.2,0.4,0.3,0.5  l32.7,14.3c1,0.4,2.2,0.5,3.2,0.1l15.5-6c0.1,0.2,0.2,0.5,0.3,0.7c0.5,1.2,1,2.3,1.5,3.4l-17,7.1c-1.4,0.6-3,0.5-4.3-0.1l-27.1-13  c0,0,0,0,0,0l-9-4.3C7.2,36.5,7.1,36.5,7.1,36.5z M16.3,47.3c1.4-1.6,1.4-3.3,1-4.7l25.6,12.3c0.9,0.4,1.8,0.6,2.8,0.6  c0.1,0,0.1,0,0.2,0c0.6,0.5,3,3.5-0.1,11.4c-0.2,0-0.4-0.1-0.5-0.2L12.7,51.1C13.9,50.1,15.9,48.2,16.3,47.3z M7,53.2  C6.9,53.2,6.9,53.2,7,53.2c-0.1-0.1-0.1-0.1-0.2-0.1c-0.2-0.1-0.6-0.3-0.6-1.1c0-0.8,0.4-1,0.6-1.1c0,0,0.1,0,0.1,0c0,0,0,0,0.1,0  l7-2.5c-0.8,0.8-1.8,1.7-2.8,2.5C11.1,51,11,51.2,11,51.4c0,0.2,0.1,0.4,0.3,0.5l33.3,16c1,0.4,2.2,0.5,3.2,0.1l22.7-9  c0.1,0.1,0.1,0.1,0.2,0.2l0.1,0.1c0.1,0.1,0.3,0.2,0.4,0.4l0.1,0.1c0.2,0.1,0.3,0.2,0.5,0.4c0,0,0.1,0,0.1,0  c0.2,0.1,0.4,0.3,0.6,0.4l0.1,0.1c0.1,0.1,0.3,0.2,0.5,0.3l0.1,0.1c0.2,0.1,0.4,0.2,0.6,0.3c0.1,0,0.2,0.1,0.2,0.1  c0.1,0,0.2,0,0.3-0.1c0.2-0.1,0.3-0.3,0.3-0.5v-5.8l7.9,1.1c0.3,0,0.5-0.2,0.6-0.4c0.1-0.3-0.1-0.6-0.4-0.7c-0.1-0.1-0.5-0.2-1-0.6  l2.2-0.9c2.6-1.1,4.7-3.1,5.6-5.6c0.5-1.2,0.7-2.5,0.7-3.8c0-3.1-1.5-4.4-2.8-5c-0.2-0.1-0.5-0.2-0.7-0.2c1.3-0.7,2.3-1.4,2.8-1.8  c1.8,1.1,2.8,2.5,3.2,6.6c0.6,5-2.1,8.9-3.3,9.9c0,0,0,0-0.1,0c0,0,0,0-0.1,0.1c0,0,0,0,0,0c0,0-2.5,2.8-4.8,3.7l-8.4,3.5L48.1,72.5  c-1.1,0.5-2.4,0.4-3.5-0.1L7,53.2C7,53.2,7,53.2,7,53.2z M88.1,58.3c1.4,0.6,2.1,1.9,2.1,3.9c0,4.9-3.7,6.3-3.9,6.4L47.8,84.5  c-0.2,0.1-0.5,0.1-0.7,0.2c3.2-5.4,1.4-9.1,0.2-10.8c0.4-0.1,0.9-0.2,1.3-0.4l28.1-11.7l8.4-3.5C86,57.9,87.1,57.9,88.1,58.3z   M17.2,65.6c1.4-1.7,1.1-4,0.7-5.5l26.1,13.3c0.5,0.3,1.1,0.4,1.7,0.5c0.7,0.6,4.1,4.3,0,10.7c-0.1,0-0.2-0.1-0.3-0.1l-31.9-15  C14.8,68.4,16.8,66.5,17.2,65.6z M89.2,71.8c-0.3,0.2-0.7,0.4-1.1,0.6L47.6,90.1c-0.8,0.3-1.7,0.3-2.5-0.1L6.8,70.5  c-0.1-0.1-0.1-0.2-0.1-0.2c0-0.1,0-0.2,0.2-0.2l7.8-3.2c-0.7,0.7-1.7,1.6-2.5,2.3c-0.2,0.1-0.2,0.3-0.2,0.5c0,0.2,0.2,0.4,0.3,0.5  L45,85.6c1,0.4,2.2,0.5,3.2,0.1l38.4-15.9c0,0,4.7-1.7,4.7-7.5c0-3.1-1.5-4.4-2.8-5c-0.4-0.2-0.7-0.3-1.1-0.3  c1.1-0.9,2.1-1.8,2.6-2.3c2.2,1,3.4,3.3,3.8,7.2C94.2,66.8,90.7,70.7,89.2,71.8z"></path></g><g id="SvgjsG4507" featurekey="nameFeature-0" transform="matrix(0.9979015771191944,0,0,0.9979015771191944,-2.2752143776901894,133.71214528805)" fill="#ffffff"><path d="M20.32 27.439999999999998 c1.76 1.24 2.8 3.08 2.8 5.24 c0 4.16 -3.84 7.32 -7.84 7.32 l-13 0 l0 -24.48 l12.2 0 c3.2 0 5.84 1.72 7.24 4.56 c0.4 0.92 0.6 1.84 0.6 2.8 c0 1.8 -0.72 3.28 -2 4.56 z M8.28 21.08 l0 3.92 l6.2 0 c1.04 0 1.84 -1 1.84 -2 c0 -1.04 -0.76 -1.92 -1.84 -1.92 l-6.2 0 z M8.28 30.560000000000002 l0 3.88 l7 0 c1.08 0 1.84 -0.88 1.84 -1.92 c0 -0.52 -0.2 -1 -0.56 -1.4 c-0.36 -0.36 -0.8 -0.56 -1.28 -0.56 l-7 0 z M44.656000000000006 34.64 c4.36 0 6.6 -2.8 6.6 -6.88 c0 -4.32 -2.4 -6.88 -6.6 -6.88 c-4.4 0 -6.6 2.8 -6.6 6.88 c0 4.24 2.44 6.88 6.6 6.88 z M44.656000000000006 40.2 c-7.52 0 -12.6 -5.12 -12.6 -12.44 c0 -7.56 5.32 -12.44 12.6 -12.44 c7.56 0 12.6 5.08 12.6 12.44 c0 7.6 -5.28 12.44 -12.6 12.44 z M79.112 34.64 c4.36 0 6.6 -2.8 6.6 -6.88 c0 -4.32 -2.4 -6.88 -6.6 -6.88 c-4.4 0 -6.6 2.8 -6.6 6.88 c0 4.24 2.44 6.88 6.6 6.88 z M79.112 40.2 c-7.52 0 -12.6 -5.12 -12.6 -12.44 c0 -7.56 5.32 -12.44 12.6 -12.44 c7.56 0 12.6 5.08 12.6 12.44 c0 7.6 -5.28 12.44 -12.6 12.44 z M101.808 15.52 l6 0 l0 11.48 l7.88 -11.48 l7.44 0 l-8.56 12.24 l8.88 12.24 l-7.36 0 l-8.28 -11.52 l0 11.52 l-6 0 l0 -24.48 z M131.46400000000003 15.52 l6 0 l0 24.48 l-6 0 l0 -24.48 z M147.16000000000003 39.4 l0 -5.64 c0.48 0.12 1.08 0.24 1.76 0.32 c0.68 0.12 1.4 0.2 2.16 0.24 s1.52 0.08 2.32 0.12 s1.56 0.08 2.24 0.08 c1.88 0 3.2 -0.12 4 -0.32 c0.76 -0.2 1.16 -0.56 1.16 -1.12 c0 -0.48 -0.36 -0.84 -0.72 -1.12 c-1.32 -0.88 -2.88 -1.24 -4.44 -1.6 c-4.4 -0.88 -8.44 -2.64 -8.44 -7.68 c0 -5.96 5.64 -7.36 10.48 -7.36 c2.68 0 5.4 0.28 8 0.92 l0 5.64 c-0.4 -0.12 -0.92 -0.2 -1.56 -0.32 c-0.68 -0.08 -1.36 -0.16 -2.12 -0.24 c-1.56 -0.16 -3.04 -0.24 -4.6 -0.24 c-0.88 0 -2.72 0 -3.56 0.32 c-0.56 0.2 -0.92 0.44 -0.92 1.08 c0 0.32 0.08 0.6 0.24 0.84 c0.16 0.28 0.44 0.48 0.8 0.68 c1.08 0.6 2.48 0.96 3.68 1.24 c1 0.24 2 0.52 3.04 0.8 c3.52 0.96 5.84 2.92 5.84 6.68 c0 6.2 -6.16 7.52 -11.12 7.52 c-2.72 0 -5.56 -0.2 -8.24 -0.84 z M191.01600000000002 15.52 l6 0 l0 24.48 l-6 0 l0 -9.44 l-8.8 0 l0 9.44 l-6 0 l0 -24.48 l6 0 l0 9.48 l8.8 0 l0 -9.48 z M225.992 27.439999999999998 c1.76 1.24 2.8 3.08 2.8 5.24 c0 4.16 -3.84 7.32 -7.84 7.32 l-13 0 l0 -24.48 l12.2 0 c3.2 0 5.84 1.72 7.24 4.56 c0.4 0.92 0.6 1.84 0.6 2.8 c0 1.8 -0.72 3.28 -2 4.56 z M213.952 21.08 l0 3.92 l6.2 0 c1.04 0 1.84 -1 1.84 -2 c0 -1.04 -0.76 -1.92 -1.84 -1.92 l-6.2 0 z M213.952 30.560000000000002 l0 3.88 l7 0 c1.08 0 1.84 -0.88 1.84 -1.92 c0 -0.52 -0.2 -1 -0.56 -1.4 c-0.36 -0.36 -0.8 -0.56 -1.28 -0.56 l-7 0 z M253.448 35.04 l-9 0 l-1.76 4.96 l-6.52 0 l9.8 -24.48 l6 0 l9.8 24.48 l-6.56 0 z M246.40800000000002 29.48 l5.08 0 l-2.52 -7.12 z M276.30400000000003 34.56 l13.16 0 l0 5.44 l-20.4 0 l0 -5.44 l12.32 -13.6 l-11.52 0 l0 -5.44 l18.8 0 l0 5.44 z M314.04 35.04 l-9 0 l-1.76 4.96 l-6.52 0 l9.8 -24.48 l6 0 l9.8 24.48 l-6.56 0 z M307 29.48 l5.08 0 l-2.52 -7.12 z M337.176 21.16 l0 5.84 l5.6 0 c1.84 0 2.92 -1.08 2.92 -2.92 s-1.08 -2.92 -2.92 -2.92 l-5.6 0 z M346.25600000000003 30.96 c1.12 1.52 2.24 3.04 3.4 4.52 c1.12 1.48 2.24 3 3.36 4.52 l-7.32 0 c-1.44 -1.92 -2.84 -3.84 -4.24 -5.76 c-1.4 -1.88 -2.84 -3.8 -4.28 -5.72 l0 11.48 l-6 0 l0 -24.48 l11.6 0 c4.56 0 8.44 3.48 8.44 8.08 c0 3.24 -2 6.08 -4.96 7.36 z"></path></g></svg>