<svg id="Layer_1" data-name="Layer 1" xmlns="http://www.w3.org/2000/svg" viewBox="0 0 512 512"><path d="M76.88,435.09H84.7q184.88,0,369.76.07a42.42,42.42,0,0,1,12.68,1.55c10.95,3.46,17.16,14.19,15.66,26-1.34,10.57-10.63,19.3-21.6,20.19-2,.17-4.11.09-6.16.09H57.27C37.89,483,29,474,29,454.52q0-199.69,0-399.39C29,39.7,38.74,29.05,52.78,29A23.3,23.3,0,0,1,76.29,48.82a57.62,57.62,0,0,1,.57,9.48q0,184.29,0,368.58Z" fill="#122230"/><path d="M459.24,208.2q0,77.26,0,154.53c0,9.79-4.22,17.31-13,21.87-8.32,4.35-16.62,3.73-24.38-1.47-7-4.71-10.29-11.63-10.51-20-.14-5.78,0-11.57,0-17.35q0-144.17.07-288.34A42,42,0,0,1,413,44.8c3.51-10.94,14.26-17.1,26-15.57,10.78,1.4,19.51,11,20.15,22.21.17,3.16.06,6.34.06,9.52Q459.26,134.58,459.24,208.2Z" fill="#2ba5dd"/><path d="M220.3,243.76c0-39.37-.06-78.74,0-118.11,0-15.78,11.33-26.16,26.51-24.8a23.59,23.59,0,0,1,20.83,20.23,39.25,39.25,0,0,1,.23,4.47q0,118.4,0,236.78c0,13.4-7.87,22.7-20.4,24.73-13.28,2.15-26.14-7.83-27-21.28-.43-6.88-.19-13.8-.19-20.7Q220.28,294.43,220.3,243.76Z" fill="#2ba5dd"/><path d="M315.83,267.58c0-31.73-.08-63.46,0-95.19,0-12.31,8.34-21.69,20.39-23.67a23.44,23.44,0,0,1,25.92,15.77,32.39,32.39,0,0,1,1.48,9.89q.12,93.51,0,187c0,14.43-8.56,24.36-21.9,25.89-11.55,1.32-22.87-7-25.42-19a38,38,0,0,1-.54-7.78Q315.8,314.06,315.83,267.58Z" fill="#f27366"/><path d="M172.4,303.93c0,19.22,0,38.44,0,57.67,0,14.9-9.93,25.65-23.67,25.83-13.56.19-24.14-10.7-24.18-25.39q-.17-58.23,0-116.46c0-14.76,10.4-25.59,24-25.55s23.79,10.84,23.83,25.67C172.44,265.11,172.4,284.52,172.4,303.93Z" fill="#f27366"/></svg>