<svg width="14" height="13" viewBox="0 0 14 13" fill="none" xmlns="http://www.w3.org/2000/svg">
<path d="M11.0835 7.75V0.75H13.4168V7.75H11.0835ZM8.75016 0.75C9.05958 0.75 9.35633 0.872916 9.57512 1.09171C9.79391 1.3105 9.91683 1.60725 9.91683 1.91667V7.75C9.91683 8.07083 9.7885 8.3625 9.57266 8.5725L5.73433 12.4167L5.116 11.7983C4.9585 11.6408 4.85933 11.425 4.85933 11.18L4.87683 10.9992L5.431 8.33333H1.75016C1.44074 8.33333 1.144 8.21042 0.925205 7.99162C0.706412 7.77283 0.583496 7.47609 0.583496 7.16667V6C0.583496 5.84833 0.612663 5.70833 0.665163 5.57417L2.42683 1.46167C2.60183 1.04167 3.016 0.75 3.50016 0.75H8.75016ZM8.75016 1.91667H3.48266L1.75016 6V7.16667H6.87183L6.21266 10.27L8.75016 7.7325V1.91667Z" fill="#FF4343"/>
</svg>
