<?xml version="1.0" encoding="utf-8"?>
<!-- Generator: Adobe Illustrator 25.0.0, SVG Export Plug-In . SVG Version: 6.00 Build 0)  -->
<svg version="1.1" id="Layer_1" xmlns="http://www.w3.org/2000/svg" xmlns:xlink="http://www.w3.org/1999/xlink" x="0px" y="0px"
	 viewBox="0 0 232.2 408.3" style="enable-background:new 0 0 232.2 408.3;" xml:space="preserve">
<style type="text/css">
	.st0{fill:#F27366;}
	.st1{fill:#162143;}
</style>
<g id="Layer_2_1_">
	<g id="Layer_1-2">
		<path class="st0" d="M20.6,217.3v-57.1h43.1c12,0,17-5.1,17-17.2c0.1-16.1-0.4-32.3,0.4-48.4c1.1-23,8.5-43.5,26.4-59.1
			c14.1-12.3,31-18,49.3-18.7c17.8-0.7,35.6-0.3,53.4-0.3c0.5,0.1,0.9,0.2,1.3,0.4v67.1c-2.2,0-4.3-0.1-6.2,0
			c-12.1,0.3-24.3-1.1-36.4,0.3c-17.2,2.1-17.9-2-19,15.4c-1.1,15.7-9.9,31.4-9.6,47.1c0.1,8.5,6.2,13.4,15.2,13.4
			c16.3,0.1,32.6,0,48.8,0h4.7v57.1h-52.5c-11.6,0-16.6,5-16.6,16.7v157H80.7V232c-0.4-9.3-5.7-14.5-14.9-14.6
			c-13.4-0.1-26.8,0-40.2,0L20.6,217.3z"/>
		<path class="st1" d="M162.4,139.5c14.6,0,28.9,0.1,43.1,0c7.3-0.1,13.9,1.9,17.7,8.4c2.2,3.8,3.4,8,3.6,12.4
			c0.4,19.7,0.2,39.4,0.1,59c0,12.3-8.1,20.5-20.5,20.6c-13.2,0.1-26.4,0-39.7,0h-4.8v5.2c0,45.2,0,90.4-0.1,135.6
			c0.1,3.7-0.5,7.5-1.8,11c-3.3,7.8-9.8,11.5-18.2,11.5c-20.7,0.1-41.5,0.1-62.2,0c-11.7,0-19.5-7.5-20.2-19.1
			c-0.1-1.5-0.1-3.1-0.1-4.7V239.9H55c-10.4,0-20.7,0.1-31.1,0C11,239.8,3,231.9,3,219c-0.1-19.7-0.1-39.3,0-59
			c0-12.5,7.8-20.3,20.4-20.5c10.5-0.1,21,0,31.5,0h4.7v-5.4c0.6-15.9-0.2-32,2.1-47.6c4.5-30.6,20-54.6,47.7-69.7
			c13.3-7.4,28.2-11.4,43.4-11.6c19.4-0.1,38.9,0.3,58.3-0.2c7.7-0.2,15.8,6.4,17.5,13.8c0.5,2.3,0.8,4.6,0.8,6.9
			c0.1,17.8,0.1,35.5,0,53.2c0,13.5-7.9,21.4-21.5,21.5c-11.5,0.1-23.1,0.1-34.6,0.2c-1.2,0-2.3,0.1-3.5,0.3c-5.8,1-7.1,2.2-7.2,8.2
			C162.2,119.2,162.4,129.1,162.4,139.5z M26.5,216.5h42.4c8.7,0,13.7,5,14,13.7v149.4h55.7V232.2c0-11,4.7-15.7,15.6-15.7h49.2
			v-53.6h-4.4c-15.3,0-30.6,0.1-45.8,0c-8.5,0-14.2-4.6-14.3-12.6c-0.3-14.8-0.5-29.6,0.6-44.3c1.1-16.3,10.2-25.7,26.3-27.6
			c11.3-1.3,22.7-0.9,34.1-1.2c1.9-0.1,3.8,0,5.9,0v-49c-0.4-0.2-0.8-0.3-1.2-0.4c-16.7,0-33.4-0.4-50.1,0.3
			c-17.2,0.7-33.1,6-46.3,17.5c-16.7,14.7-23.8,34-24.8,55.5c-0.7,15.1-0.3,30.3-0.4,45.5c0,11.3-4.8,16.1-16,16.2H26.5L26.5,216.5z
			"/>
	</g>
</g>
</svg>
