<svg width="28" height="28" viewBox="0 0 28 28" fill="none" xmlns="http://www.w3.org/2000/svg">
<rect width="28" height="28" rx="6" fill="url(#paint0_radial_0_1)"/>
<rect width="28" height="28" rx="6" fill="url(#paint1_radial_0_1)"/>
<rect width="28" height="28" rx="6" fill="url(#paint2_radial_0_1)"/>
<path d="M21 8.5C21 9.32843 20.3284 10 19.5 10C18.6716 10 18 9.32843 18 8.5C18 7.67157 18.6716 7 19.5 7C20.3284 7 21 7.67157 21 8.5Z" fill="white"/>
<path fill-rule="evenodd" clip-rule="evenodd" d="M14 19C16.7614 19 19 16.7614 19 14C19 11.2386 16.7614 9 14 9C11.2386 9 9 11.2386 9 14C9 16.7614 11.2386 19 14 19ZM14 17C15.6569 17 17 15.6569 17 14C17 12.3431 15.6569 11 14 11C12.3431 11 11 12.3431 11 14C11 15.6569 12.3431 17 14 17Z" fill="white"/>
<path fill-rule="evenodd" clip-rule="evenodd" d="M4 13.6C4 10.2397 4 8.55953 4.65396 7.27606C5.2292 6.14708 6.14708 5.2292 7.27606 4.65396C8.55953 4 10.2397 4 13.6 4H14.4C17.7603 4 19.4405 4 20.7239 4.65396C21.8529 5.2292 22.7708 6.14708 23.346 7.27606C24 8.55953 24 10.2397 24 13.6V14.4C24 17.7603 24 19.4405 23.346 20.7239C22.7708 21.8529 21.8529 22.7708 20.7239 23.346C19.4405 24 17.7603 24 14.4 24H13.6C10.2397 24 8.55953 24 7.27606 23.346C6.14708 22.7708 5.2292 21.8529 4.65396 20.7239C4 19.4405 4 17.7603 4 14.4V13.6ZM13.6 6H14.4C16.1132 6 17.2777 6.00156 18.1779 6.0751C19.0548 6.14674 19.5032 6.27659 19.816 6.43597C20.5686 6.81947 21.1805 7.43139 21.564 8.18404C21.7234 8.49684 21.8533 8.94524 21.9249 9.82208C21.9984 10.7223 22 11.8868 22 13.6V14.4C22 16.1132 21.9984 17.2777 21.9249 18.1779C21.8533 19.0548 21.7234 19.5032 21.564 19.816C21.1805 20.5686 20.5686 21.1805 19.816 21.564C19.5032 21.7234 19.0548 21.8533 18.1779 21.9249C17.2777 21.9984 16.1132 22 14.4 22H13.6C11.8868 22 10.7223 21.9984 9.82208 21.9249C8.94524 21.8533 8.49684 21.7234 8.18404 21.564C7.43139 21.1805 6.81947 20.5686 6.43597 19.816C6.27659 19.5032 6.14674 19.0548 6.0751 18.1779C6.00156 17.2777 6 16.1132 6 14.4V13.6C6 11.8868 6.00156 10.7223 6.0751 9.82208C6.14674 8.94524 6.27659 8.49684 6.43597 8.18404C6.81947 7.43139 7.43139 6.81947 8.18404 6.43597C8.49684 6.27659 8.94524 6.14674 9.82208 6.0751C10.7223 6.00156 11.8868 6 13.6 6Z" fill="white"/>
<defs>
<radialGradient id="paint0_radial_0_1" cx="0" cy="0" r="1" gradientUnits="userSpaceOnUse" gradientTransform="translate(10 21) rotate(-55.3758) scale(25.5196)">
<stop stop-color="#B13589"/>
<stop offset="0.79309" stop-color="#C62F94"/>
<stop offset="1" stop-color="#8A3AC8"/>
</radialGradient>
<radialGradient id="paint1_radial_0_1" cx="0" cy="0" r="1" gradientUnits="userSpaceOnUse" gradientTransform="translate(9 29) rotate(-65.1363) scale(22.5942)">
<stop stop-color="#E0E8B7"/>
<stop offset="0.444662" stop-color="#FB8A2E"/>
<stop offset="0.71474" stop-color="#E2425C"/>
<stop offset="1" stop-color="#E2425C" stop-opacity="0"/>
</radialGradient>
<radialGradient id="paint2_radial_0_1" cx="0" cy="0" r="1" gradientUnits="userSpaceOnUse" gradientTransform="translate(-1.5 1) rotate(-8.1301) scale(38.8909 8.31836)">
<stop offset="0.156701" stop-color="#406ADC"/>
<stop offset="0.467799" stop-color="#6A45BE"/>
<stop offset="1" stop-color="#6A45BE" stop-opacity="0"/>
</radialGradient>
</defs>
</svg>
