<svg id="Layer_1" data-name="Layer 1" xmlns="http://www.w3.org/2000/svg" viewBox="0 0 327.1 327.06"><g id="Layer_2" data-name="Layer 2"><g id="Layer_1-2" data-name="Layer 1-2"><path d="M163.13,83.63c43.87-.41,80.05,35.48,80.3,79.66.25,43.81-35.39,79.73-79.52,80.14-43.85.4-80.07-35.46-80.29-79.68C83.37,119.92,119,84,163.13,83.63Zm.15,133.14A53.11,53.11,0,0,0,216.77,164v-.19a53.18,53.18,0,1,0-53.49,52.92Z" fill="#f27366"/><path d="M247.78,96.69A19.92,19.92,0,0,1,250.11,57c10.94,0,20.17,9.3,20,20.12A20,20,0,0,1,247.78,96.69Z" fill="#f27366"/></g></g><path d="M239.59,323.52h-152a84.13,84.13,0,0,1-84-84V87.84a84.13,84.13,0,0,1,84-84h152a84.12,84.12,0,0,1,84,84V239.49A84.12,84.12,0,0,1,239.59,323.52ZM87.56,24.81a63.11,63.11,0,0,0-63,63V239.49a63.11,63.11,0,0,0,63,63h152a63.1,63.1,0,0,0,63-63V87.84a63.1,63.1,0,0,0-63-63Z" fill="#162143"/></svg>