<svg id="Layer_1" data-name="Layer 1" xmlns="http://www.w3.org/2000/svg" viewBox="0 0 512 512"><defs><style>.cls-1,.cls-2{fill:#007ebb;}.cls-1{fill-rule:evenodd;}</style></defs><path class="cls-1" d="M504.9,311.58V483.27H394.39V323.48c0-41.82-17.27-70.38-55.28-70.38-29.09,0-45.25,19.27-52.78,37.84-2.83,6.67-2.38,15.95-2.38,25.24V483.27H174.48s1.4-283,0-308.78H284V223c6.47-21.19,41.45-51.43,97.28-51.43C450.49,171.52,504.9,215.94,504.9,311.58Z"/><rect class="cls-2" x="17.51" y="174.49" width="97.46" height="308.78"/><path class="cls-1" d="M125.39,82.25c0,29.92-22.82,53.62-59.45,53.62h-.69C30,135.87,7.1,112.26,7.1,82.34c0-30.5,23.54-53.61,59.53-53.61S124.69,51.78,125.39,82.25Z"/></svg>