<svg id="Layer_1" data-name="Layer 1" xmlns="http://www.w3.org/2000/svg" viewBox="0 0 512 512"><path d="M20,261.61c.91-.28.85-1.16,1.16-1.82,3.49-7.59,9.22-11.75,17.74-11.27,10.09.57,20.19,1.16,30.26,2,8.49.76,15,8.15,15.4,16.79C85,278.55,79.92,287,70.75,288.21a296.49,296.49,0,0,1-33.42,2.54c-8.82.16-14-5.82-17.33-13.44Z" fill="#f27366"/><path d="M422.07,443.4c-32.87,2.76-65.78,5-98.75,6.33-35.75,1.48-71.52,1.55-107.3,1.37-35-.19-70-2.32-104.89-4.09a2.93,2.93,0,0,1-.87-.31c-8.08-.7-16.27-.81-24.22-2.23-23.91-4.25-36.88-28.24-27.7-50.74,11.16-27.4,23.55-54.25,36.8-80.7A1317.94,1317.94,0,0,1,226.7,102.64c9-11.75,21.05-16.36,35.64-14.44,9.22,1.79,17,6.06,22.79,13.55a1271.77,1271.77,0,0,1,83.05,121.83,1267.27,1267.27,0,0,1,85.2,168C463.35,415.6,447.93,441.22,422.07,443.4Z" fill="#f27366"/><path d="M491.85,269.87c0,14.79-7.91,21.89-22.68,20.59-8.86-.78-17.79-.93-26.61-2-10.3-1.26-15.73-9.13-15.28-21,.34-9.27,7.12-16.21,16.75-17,8.57-.68,17.19-.86,25.7-1.9C484.6,246.73,493.28,257.5,491.85,269.87Z" fill="#f27366"/><path d="M331.49,104.41a16.52,16.52,0,0,1,2.06-8.21c4-8.27,8-16.55,12.16-24.76,5.21-10.31,15.85-13.47,26-7.87,5.42,3,10.77,6,13,12.38A17,17,0,0,1,383,91.4c-5.43,8.35-10.91,16.69-16.65,24.83-4.88,6.9-12.73,9.37-20.26,6.89C337,120.13,331.45,113.09,331.49,104.41Z" fill="#f27366"/><path d="M464.26,163.09c-.2,6.81-2.93,12.37-9,15.57-9.08,4.8-18.29,9.41-27.66,13.61s-18.35.54-23.63-9c-5-9.07-3.16-18.67,5.12-24.49,8-5.65,16.18-11.16,24.47-16.44a17.47,17.47,0,0,1,24.58,5.55C461.1,152.55,464.42,157.13,464.26,163.09Z" fill="#f27366"/><path d="M180.36,104.63c-.05,8.33-5.32,15.15-14,18.31-7.14,2.61-15.2.8-19.85-5.52C140,108.53,133.9,99.3,128.08,89.93c-2.89-4.64-2.65-10-.43-15.07,3.66-8.38,16.53-15.32,25.52-13.66a16.41,16.41,0,0,1,12.21,8.86c4.58,9,9,18.14,13.37,27.24A14.65,14.65,0,0,1,180.36,104.63Z" fill="#f27366"/><path d="M110.5,174.06c-.12,11.78-12.54,25.31-27.93,17.55-8.22-4.14-16.57-8-24.77-12.22-9.7-5-12.9-15.39-7.86-25,1-1.9,2.06-3.78,3.2-5.6,5.91-9.49,16.54-12,25.87-5.93,7.85,5.1,15.59,10.38,23.32,15.66C107.78,162.19,110.76,167.3,110.5,174.06Z" fill="#f27366"/><path d="M162,366.29V259.09c.18-.83.37-1.66.54-2.49A33.75,33.75,0,0,1,196.23,229q49.92,0,99.84,0c7.4,0,14.81-.11,22.2.05A32.85,32.85,0,0,1,349,252.85c.31,1.1.63,2.2.94,3.3V367.76a3.07,3.07,0,0,0-.3.64c-3.45,16.89-16.94,28-34.14,28H276.82q-40.29,0-80.57,0A33.84,33.84,0,0,1,163,370.57C162.6,369.15,162.33,367.72,162,366.29Zm94.36,11.8h11.37q24.6,0,49.19,0a13.19,13.19,0,0,0,13.38-10.57,19.21,19.21,0,0,0,.5-4.54q0-49.73,0-99.47c0-9-6.29-15.3-15.21-15.3q-59.73,0-119.47,0c-8.87,0-15.12,6.26-15.12,15.14q0,49.83,0,99.66a16.66,16.66,0,0,0,.26,3.46A14.59,14.59,0,0,0,196,378.08Q226.18,378.11,256.38,378.09Z" fill="#fff"/><path d="M255.32,361.92q-22.22,0-44.41,0c-4.91,0-8.45-2.41-9.79-6.53a10.2,10.2,0,0,1,1.16-9q10.4-16.53,20.94-33a10.25,10.25,0,0,1,10-4.89,8,8,0,0,1,5.79,3.16c1.52,1.91,3,3.82,4.54,5.76a9.57,9.57,0,0,0,15.67-.27c4.08-5.8,8-11.72,12-17.57A10.31,10.31,0,0,1,283,295.41a9,9,0,0,1,6,5.31c6.69,15.6,13.41,31.19,20,46.83,2.53,6-.6,12.61-6.48,14.08a14.17,14.17,0,0,1-3.27.28Z" fill="#fff"/><path d="M300.36,261.6a14.76,14.76,0,0,1,14.3,14.15c.08,7.48-6.79,14.38-14.3,14.37a14.62,14.62,0,0,1-14.26-14.51A14.38,14.38,0,0,1,300.36,261.6Z" fill="#fff"/></svg>