<svg width="56" height="56" viewBox="0 0 56 56" fill="none" xmlns="http://www.w3.org/2000/svg">
<path d="M53.7031 0H2.29688C1.64062 0 1.09375 0.21875 0.65625 0.65625C0.21875 1.09375 0 1.64062 0 2.29688V30.2969C0 31.026 0.21875 31.6094 0.65625 32.0469C1.09375 32.4844 1.64062 32.7031 2.29688 32.7031H53.7031C54.3594 32.7031 54.9062 32.4844 55.3438 32.0469C55.7812 31.6094 56 31.026 56 30.2969V2.29688C56 1.64062 55.7812 1.09375 55.3438 0.65625C54.9062 0.21875 54.3594 0 53.7031 0ZM4.70312 4.70312H7C7 5.35938 6.78125 5.90625 6.34375 6.34375C5.90625 6.78125 5.35938 7 4.70312 7V4.70312ZM4.70312 28V25.7031C6.23438 25.7031 7 26.4688 7 28H4.70312ZM19.7969 28H11.7031C11.7031 26.0312 11.0286 24.3724 9.67969 23.0234C8.33073 21.6745 6.67188 21 4.70312 21V11.7031C6.67188 11.7031 8.33073 11.0286 9.67969 9.67969C11.0286 8.33073 11.7031 6.67188 11.7031 4.70312H19.7969C17.4635 7.98438 16.2969 11.849 16.2969 16.2969C16.2969 20.6719 17.4635 24.5729 19.7969 28ZM28 28C26.1042 28 24.4635 26.8333 23.0781 24.5C21.6927 22.1667 21 19.4323 21 16.2969C21 13.1615 21.6927 10.4453 23.0781 8.14844C24.4635 5.85156 26.1042 4.70312 28 4.70312C29.8958 4.70312 31.5365 5.85156 32.9219 8.14844C34.3073 10.4453 35 13.1615 35 16.2969C35 19.5052 34.3255 22.2578 32.9766 24.5547C31.6276 26.8516 29.9688 28 28 28ZM51.2969 28H49C49 26.4688 49.7656 25.7031 51.2969 25.7031V28ZM51.2969 21C49.3281 21 47.6693 21.6745 46.3203 23.0234C44.9714 24.3724 44.2969 26.0312 44.2969 28H36.4219C38.7552 24.5729 39.9219 20.6719 39.9219 16.2969C39.9219 11.849 38.7552 7.98438 36.4219 4.70312H44.2969C44.2969 6.67188 44.9714 8.33073 46.3203 9.67969C47.6693 11.0286 49.3281 11.7031 51.2969 11.7031V21ZM51.2969 7C50.6406 7 50.0938 6.78125 49.6562 6.34375C49.2188 5.90625 49 5.35938 49 4.70312H51.2969V7ZM51.2969 39.7031H38.2812C39.2292 38.3906 39.7031 36.8229 39.7031 35H35C35 35.1458 34.9818 35.3281 34.9453 35.5469C34.9089 35.7656 34.763 36.1484 34.5078 36.6953C34.2526 37.2422 33.9062 37.7161 33.4688 38.1172C33.0312 38.5182 32.3385 38.8828 31.3906 39.2109C30.4427 39.5391 29.3125 39.7031 28 39.7031C26.0312 39.7031 24.4635 39.3203 23.2969 38.5547C22.1302 37.7891 21.4557 37.1146 21.2734 36.5312C21.0911 35.9479 21 35.4375 21 35H16.2969C16.2969 36.3854 16.7708 37.9531 17.7188 39.7031H4.70312V35H0V39.7031C0 40.9427 0.455729 42.0182 1.36719 42.9297C2.27865 43.8411 3.39062 44.2969 4.70312 44.2969H51.2969C52.6094 44.2969 53.7214 43.8411 54.6328 42.9297C55.5443 42.0182 56 40.9427 56 39.7031V35H51.2969V39.7031ZM51.2969 51.2969H38.2812C39.2292 49.9844 39.7031 48.4531 39.7031 46.7031H35C35 47.1406 34.9271 47.6146 34.7812 48.125C34.6354 48.6354 33.9974 49.2917 32.8672 50.0938C31.737 50.8958 30.1146 51.2969 28 51.2969C26.0312 51.2969 24.4635 50.9323 23.2969 50.2031C22.1302 49.474 21.4557 48.8177 21.2734 48.2344C21.0911 47.651 21 47.1406 21 46.7031H16.2969C16.2969 48.0156 16.7708 49.5469 17.7188 51.2969H4.70312V46.7031H0V51.2969C0 52.6094 0.455729 53.7214 1.36719 54.6328C2.27865 55.5443 3.39062 56 4.70312 56H51.2969C52.6094 56 53.7214 55.5443 54.6328 54.6328C55.5443 53.7214 56 52.6094 56 51.2969V46.7031H51.2969V51.2969Z" fill="#3E4685" fill-opacity="0.15"/>
</svg>
