<svg width="60" height="46" viewBox="0 0 60 46" fill="none" xmlns="http://www.w3.org/2000/svg">
<path d="M47.725 7.293C47.698 7.563 47.682 7.871 47.675 8.205L43.841 10.036C43.304 9.948 40.641 10.103 36.669 8.143C35.662 7.646 34.678 7.382 33.733 7.382C32.8778 7.3832 32.0351 7.5871 31.274 7.977C30.271 7.76 28.826 7.204 27.981 7.206C26.069 7.216 21.722 8.773 20.518 8.906C19.34 9.035 18.127 9.359 16.906 9.875C14.687 9.229 11.905 8.174 10.415 7.591L0 0V24.41L7.654 28.052C7.765 27.922 7.892 27.722 8.03 27.474L8.267 27.584C8.383 27.884 8.511 28.183 8.651 28.48C7.811 29.894 7.711 31.487 8.382 32.872C8.957 34.057 10.028 34.889 11.221 35.122C11.286 35.86 11.534 36.574 11.952 37.193C12.702 38.3 13.894 38.961 15.143 38.961C15.256 38.961 15.369 38.956 15.481 38.943C15.659 39.424 15.92 39.872 16.259 40.26C17.013 41.127 18.069 41.624 19.155 41.624C19.235 41.624 19.313 41.622 19.392 41.616C19.53 42.14 19.765 42.636 20.093 43.078C20.848 44.098 22.013 44.705 23.211 44.705C23.955 44.705 24.666 44.477 25.293 44.05C26.505 44.828 27.559 45.375 28.494 45.711C28.963 45.902 29.451 46 29.949 46C31.127 46 32.27 45.45 33.086 44.488C33.389 44.13 33.635 43.73 33.815 43.302C34.1675 43.4087 34.5337 43.4632 34.902 43.464C36.154 43.464 37.341 42.851 38.162 41.779C38.552 41.271 38.8344 40.6888 38.992 40.068C39.078 40.074 39.163 40.077 39.248 40.077C40.695 40.077 42.08 39.228 42.859 37.861C43.2674 37.1499 43.4841 36.345 43.488 35.525C44.918 35.312 46.177 34.295 46.79 32.812C47.394 31.351 47.23 29.739 46.387 28.395L50.282 26.2C50.382 26.542 50.48 26.857 50.575 27.113L60 22.098V1.642L47.725 7.293ZM47.724 10.33C47.786 11.412 47.899 12.635 48.045 13.912C47.245 12.568 46.235 11.955 44.981 11.65L47.724 10.33ZM42.496 34.086C40.348 33.347 35.877 28.091 35.877 28.091H35.965C36.42 28.059 37.403 27.58 38.506 27.809C36.774 26.321 34.869 27.58 33.572 26.809C33.873 27.774 35.32 28.078 35.691 28.09L39.975 33.072C41.915 35.327 40.564 38.117 38.619 38.561C37.314 37.926 33.629 33.543 33.629 33.543C33.755 33.52 34.502 33.286 35.263 33.386C33.506 32.072 31.514 33.212 30.332 32.387C31.002 34.042 33.209 33.618 33.44 33.578L35.732 36.504C37.566 38.844 36.125 41.547 34.177 41.913C32.45 41.306 31.329 39.146 31.329 39.146C31.503 39.118 32.085 38.859 32.913 38.979C31.44 37.688 29.725 38.859 28.694 38.124C29.331 39.512 30.919 39.196 31.008 39.186C32.596 41.687 30.949 44.295 28.981 44.373H28.979L28.977 44.374C27.795 44.169 26.557 43.224 25.159 42.254C25.639 41.722 26.063 40.787 26.063 40.787C27.467 38.245 25.645 35.997 23.764 36.19C25.29 36.607 26.434 38.555 25.243 40.718L24.72 41.598C24.152 42.633 23.265 43.258 22.613 43.181C21.609 43.059 20.194 41.593 20.789 39.525C21.019 39.315 23.237 35.922 23.237 35.922C24.762 33.466 23.05 31.115 21.164 31.195C22.666 31.702 23.719 33.716 22.424 35.806L20.621 38.617C20.006 39.611 19.21 40.174 18.451 40.07C17.273 39.91 16.447 38.473 16.636 36.99C16.626 36.999 17.934 35.536 17.934 35.536C19.672 33.265 18.184 30.729 16.301 30.596C17.748 31.27 18.61 33.394 17.133 35.327L16.495 36.109C15.795 37.027 14.952 37.494 14.214 37.31C12.926 36.987 12.256 34.577 12.865 33.92C13.344 33.403 14.689 31.766 14.689 31.766C16.426 29.494 14.94 26.959 13.055 26.824C14.503 27.5 15.365 29.624 13.888 31.558L13.25 32.338C12.546 33.264 11.7 33.729 10.957 33.54C9.409 33.148 8.636 30.758 10.117 28.818C10.117 28.818 9.614 27.22 9.387 26.537L8.641 26.191C10.39 22.116 13.032 13.122 13.154 10.134C14.442 10.593 17.842 11.571 18.203 11.573L18.201 11.575C21.861 10.425 25.697 10.552 27.447 9.876C28.014 9.66 29.142 9.646 30.338 10.33C29.591 10.985 28.885 11.765 28.152 12.492C26.4 14.231 19.886 16.943 21.142 19.795C22.226 22.256 25.279 24.774 30.4 20.821L33.28 20.425L37.759 22.635L43.499 28.53C45.546 30.628 44.387 33.476 42.496 34.086ZM43.936 27.591C43.278 26.361 41.227 24.344 39.291 22.695L39.279 22.683C40.172 22.719 41.109 21.281 42.32 21.17C41.474 20.524 40.072 21.27 39.635 21.388C37.226 22.036 33.482 19.005 33.482 19.005L29.9 19.521C29.9 19.521 25.64 24.72 22.051 20.437C20.102 18.111 27.165 15.073 28.905 13.344C31.134 11.129 33.12 8.419 36.787 10.265C39.833 11.801 41.033 11.706 45.119 12.417C46.337 12.63 47.181 13.188 48.086 14.277C48.512 17.861 49.201 21.836 49.862 24.602C49.521 24.889 46.598 26.855 43.936 27.591Z" fill="#3E4685" fill-opacity="0.15"/>
</svg>
