<svg width="42" height="42" viewBox="0 0 42 42" fill="none" xmlns="http://www.w3.org/2000/svg">
<path d="M31.5 17.0625H28.875C28.874 16.0185 28.4588 15.0176 27.7206 14.2794C26.9824 13.5412 25.9815 13.126 24.9375 13.125V10.5C26.6773 10.5021 28.3453 11.1942 29.5756 12.4244C30.8058 13.6547 31.4979 15.3227 31.5 17.0625Z" fill="#1ABC9C" fill-opacity="0.15"/>
<path d="M36.75 17.0625H34.125C34.1222 14.6267 33.1534 12.2914 31.431 10.569C29.7086 8.84664 27.3733 7.87778 24.9375 7.875V5.25C28.0693 5.25347 31.0718 6.49912 33.2864 8.71364C35.5009 10.9282 36.7465 13.9307 36.75 17.0625Z" fill="#1ABC9C" fill-opacity="0.15"/>
<path d="M26.6658 24.1695L29.5951 21.2402C29.9873 20.848 30.4858 20.5795 31.0291 20.4679C31.5723 20.3563 32.1364 20.4066 32.6513 20.6125L36.2189 22.0406C36.7447 22.2509 37.1954 22.614 37.5129 23.083C37.8303 23.552 38 24.1054 38 24.6717V31.1594C38.0009 31.545 37.9231 31.9267 37.7714 32.2812C37.6197 32.6357 37.3972 32.9555 37.1176 33.221C36.838 33.4866 36.5071 33.6922 36.1453 33.8255C35.7834 33.9587 35.3982 34.0167 35.0131 33.9959C10.0065 32.4397 4.95601 11.2596 4.01836 3.14903C3.97295 2.75252 4.012 2.35089 4.13294 1.97055C4.25388 1.59022 4.45397 1.23979 4.72006 0.942334C4.98614 0.644874 5.31219 0.407117 5.67675 0.244702C6.04132 0.0822878 6.43613 -0.00110429 6.83524 1.10418e-05H13.2079C13.7742 -7.14363e-06 14.3276 0.169665 14.7965 0.487141C15.2655 0.804617 15.6286 1.25533 15.839 1.78114L17.2658 5.34864C17.4717 5.8636 17.5219 6.42764 17.4104 6.97089C17.2988 7.51414 17.0303 8.01271 16.6381 8.40482L13.7087 11.3341C13.7087 11.3341 15.3329 22.7533 26.6658 24.1695Z" fill="#1ABC9C" fill-opacity="0.15"/>
</svg>
