<svg width="15" height="17" viewBox="0 0 8 6" fill="none" xmlns="http://www.w3.org/2000/svg">
<path d="M1.00003 5.33334H7.00003C7.06078 5.33315 7.12032 5.31639 7.17225 5.28488C7.22419 5.25336 7.26654 5.20828 7.29476 5.15449C7.32298 5.10069 7.33599 5.04022 7.3324 4.97958C7.3288 4.91894 7.30874 4.86042 7.27436 4.81034L4.27436 0.477005C4.15003 0.297338 3.8507 0.297338 3.72603 0.477005L0.726028 4.81034C0.691303 4.86032 0.67094 4.91886 0.66715 4.9796C0.663361 5.04034 0.67629 5.10096 0.704533 5.15487C0.732776 5.20878 0.775254 5.25392 0.82735 5.28539C0.879446 5.31685 0.939168 5.33343 1.00003 5.33334Z" fill="#312B47"/>
</svg>
