<svg width="13" height="13" viewBox="0 0 13 13" fill="none" xmlns="http://www.w3.org/2000/svg">
<path d="M7.9399 6.00005L12.7999 1.14005C12.9091 1.01252 12.9662 0.848467 12.9597 0.680683C12.9532 0.512899 12.8837 0.35374 12.7649 0.23501C12.6462 0.11628 12.4871 0.0467252 12.3193 0.0402444C12.1515 0.0337637 11.9874 0.0908347 11.8599 0.200052L6.9999 5.06005L2.1399 0.193385C2.01237 0.0841679 1.84832 0.0270975 1.68053 0.0335782C1.51275 0.040059 1.35359 0.109614 1.23486 0.228343C1.11613 0.347073 1.04657 0.506232 1.04009 0.674016C1.03361 0.8418 1.09068 1.00585 1.1999 1.13339L6.0599 6.00005L1.19323 10.8601C1.12345 10.9198 1.06677 10.9934 1.02675 11.0761C0.986735 11.1588 0.964248 11.2489 0.960702 11.3407C0.957156 11.4325 0.972626 11.5241 1.00614 11.6096C1.03966 11.6952 1.0905 11.7729 1.15547 11.8378C1.22044 11.9028 1.29814 11.9536 1.38369 11.9871C1.46924 12.0207 1.56079 12.0361 1.6526 12.0326C1.74442 12.029 1.8345 12.0066 1.91721 11.9665C1.99992 11.9265 2.07347 11.8698 2.13323 11.8001L6.9999 6.94005L11.8599 11.8001C11.9874 11.9093 12.1515 11.9663 12.3193 11.9599C12.4871 11.9534 12.6462 11.8838 12.7649 11.7651C12.8837 11.6464 12.9532 11.4872 12.9597 11.3194C12.9662 11.1516 12.9091 10.9876 12.7999 10.8601L7.9399 6.00005Z" fill="#312B47"/>
</svg>
