<svg width="15" height="15" viewBox="0 0 15 15" fill="none" xmlns="http://www.w3.org/2000/svg">
<path d="M1.25 13.4395L3.9395 10.75H12.5C12.8978 10.75 13.2794 10.592 13.5607 10.3107C13.842 10.0294 14 9.64782 14 9.25V2.5C14 2.10218 13.842 1.72064 13.5607 1.43934C13.2794 1.15804 12.8978 1 12.5 1H2.75C2.35218 1 1.97064 1.15804 1.68934 1.43934C1.40804 1.72064 1.25 2.10218 1.25 2.5V13.4395ZM1.25 14.5H0.5V2.5C0.5 1.90326 0.737053 1.33097 1.15901 0.90901C1.58097 0.487053 2.15326 0.25 2.75 0.25H12.5C13.0967 0.25 13.669 0.487053 14.091 0.90901C14.5129 1.33097 14.75 1.90326 14.75 2.5V9.25C14.75 9.84674 14.5129 10.419 14.091 10.841C13.669 11.2629 13.0967 11.5 12.5 11.5H4.25L1.25 14.5ZM3.5 3.25H11.75V4H3.5V3.25ZM3.5 5.5H11.75V6.25H3.5V5.5ZM3.5 7.75H9.5V8.5H3.5V7.75Z" fill="#ADADAD"/>
</svg>
