<svg width="23" height="22" viewBox="0 0 23 22" fill="none" xmlns="http://www.w3.org/2000/svg">
<path d="M2.51935 0.574001L22.0843 9.93214C22.2818 10.0267 22.4486 10.1751 22.5653 10.3604C22.682 10.5457 22.7439 10.7601 22.7439 10.9791C22.7439 11.1981 22.682 11.4126 22.5653 11.5978C22.4486 11.7831 22.2818 11.9315 22.0843 12.0261L2.51935 21.3842C2.3187 21.4804 2.09463 21.5169 1.87383 21.4893C1.65303 21.4617 1.44482 21.3713 1.27397 21.2287C1.10313 21.0861 0.97687 20.8975 0.910223 20.6852C0.843576 20.4729 0.839354 20.2459 0.898061 20.0313L3.36806 10.9796L0.898061 1.926C0.839828 1.7115 0.844407 1.48478 0.911255 1.27281C0.978103 1.06083 1.10441 0.872503 1.27516 0.730211C1.44591 0.587919 1.65393 0.497645 1.87448 0.470118C2.09504 0.442591 2.31886 0.47897 2.51935 0.57493V0.574001ZM2.37542 2.05043L4.62535 10.3026H14.7858C14.9543 10.3027 15.1172 10.3639 15.244 10.4749C15.3709 10.5859 15.4532 10.7391 15.4757 10.9062L15.4822 10.9991C15.4824 11.1675 15.4216 11.3303 15.3109 11.4574C15.2003 11.5844 15.0474 11.667 14.8805 11.6899L14.7858 11.6964L4.6142 11.6955L2.37635 19.9087L21.0462 10.9786L2.37542 2.0495V2.05043Z" fill="#ADADAD"/>
</svg>
