<svg id="Layer_1" data-name="Layer 1" xmlns="http://www.w3.org/2000/svg" viewBox="0 0 512 512"><path d="M394.65,99.84H305.5V64a49.59,49.59,0,0,0-49.61-49.52h0a49.28,49.28,0,0,0-9.6.94A51.43,51.43,0,0,0,206.5,66.27V99.84H117.33A103.17,103.17,0,0,0,14.5,202.7v192A103.13,103.13,0,0,0,117.35,497.5H394.67A103.14,103.14,0,0,0,497.5,394.66v-192A103.17,103.17,0,0,0,394.65,99.84ZM462.5,394.69a67.91,67.91,0,0,1-67.83,67.83H117.33A67.91,67.91,0,0,1,49.5,394.69v-192a67.92,67.92,0,0,1,67.83-67.84h88.91l3.38,9.74a49.11,49.11,0,0,0,92.76,0l3.38-9.74h88.91a67.92,67.92,0,0,1,67.83,67.84Z" fill="#162143"/><path d="M213.33,277.35v85.33a42.67,42.67,0,0,1-42.66,42.67H149.33a42.67,42.67,0,0,1-42.66-42.67V277.35a42.67,42.67,0,0,1,42.66-42.67h21.34A42.67,42.67,0,0,1,213.33,277.35Z" fill="#162143"/><path d="M384,373.35a32,32,0,0,1-32,32H288a32,32,0,0,1,0-64h64A32,32,0,0,1,384,373.35Z" fill="#162143"/><path d="M405.33,266.68a32,32,0,0,1-32,32H288a32,32,0,0,1,0-64h85.33A32,32,0,0,1,405.33,266.68Z" fill="#162143"/><path d="M394.67,134.84H305.76l-3.38,9.74a49.12,49.12,0,0,1-92.76,0l-3.38-9.74H117.33A67.92,67.92,0,0,0,49.5,202.68v192a67.91,67.91,0,0,0,67.83,67.83H394.67a67.91,67.91,0,0,0,67.83-67.83v-192A67.92,67.92,0,0,0,394.67,134.84ZM373.33,298.68H288a32,32,0,0,1,0-64h85.33a32,32,0,0,1,0,64ZM106.67,277.35a42.67,42.67,0,0,1,42.66-42.67h21.34a42.67,42.67,0,0,1,42.66,42.67v85.33a42.67,42.67,0,0,1-42.66,42.67H149.33a42.67,42.67,0,0,1-42.66-42.67ZM352,405.35H288a32,32,0,0,1,0-64h64a32,32,0,0,1,0,64Z" fill="#fff"/><path d="M384,373.35a32,32,0,0,1-32,32H288a32,32,0,0,1,0-64h64A32,32,0,0,1,384,373.35Z" fill="#162143"/><path d="M405.33,266.68a32,32,0,0,1-32,32H288a32,32,0,0,1,0-64h85.33A32,32,0,0,1,405.33,266.68Z" fill="#2fa5e2"/><rect x="106.67" y="234.68" width="106.66" height="170.66" rx="42.66" fill="#f27366"/></svg>