<?xml version="1.0" encoding="utf-8"?>
<!-- Generator: Adobe Illustrator 25.0.0, SVG Export Plug-In . SVG Version: 6.00 Build 0)  -->
<svg version="1.1" id="Layer_1" xmlns="http://www.w3.org/2000/svg" xmlns:xlink="http://www.w3.org/1999/xlink" x="0px" y="0px"
	 viewBox="0 0 512 512" style="enable-background:new 0 0 512 512;" xml:space="preserve">
<style type="text/css">
	.st0{fill:#C0D0F0;}
	.st1{fill:#E6EBFD;}
	.st2{opacity:0.5;fill:#5DCECE;enable-background:new    ;}
	.st3{opacity:0.5;fill:#FFCB64;enable-background:new    ;}
	.st4{fill:#FFCB64;stroke:#363A5A;stroke-width:5;stroke-miterlimit:10;}
	.st5{fill:#FFFFFF;stroke:#363A5A;stroke-width:4;stroke-miterlimit:10;}
	.st6{fill:#3DC0CB;stroke:#363A5A;stroke-width:6;stroke-miterlimit:10;}
	.st7{fill:#363A5A;}
	.st8{opacity:0.2;fill:#FA5743;enable-background:new    ;}
	.st9{fill:#FA5743;stroke:#363A5A;stroke-width:3;stroke-miterlimit:10;}
	.st10{fill:#FA5743;}
	
		.st11{fill:none;stroke:#363A5A;stroke-width:6;stroke-linecap:round;stroke-linejoin:round;stroke-miterlimit:10;stroke-dasharray:8,11;}
</style>
<path class="st0" d="M506,245l-24.9,43.3l-9.3,16.1l-0.8,0.1l-162.6-64.7c2.3-0.2,4.5-0.5,6.7-1.1c12.7-3.2,23.2-11.9,28.7-23.7
	c5.2-11.4,2.5-22.4,2.6-34.1l63.5,25.5L506,245z"/>
<path class="st1" d="M257.2,237.7c-11.3,2-21.3,8-31.2,13.9l168.8,67l76.2-14.1l-162.6-64.7C291.6,241.3,274.1,234.8,257.2,237.7z"
	/>
<path class="st0" d="M202.9,263.3c-23.6,7.9-49.5,0.5-65.4-18.7l-19.4,35.5l242.3,98.8l34.4-60.2l-168.8-67
	C218.6,256.1,211.1,260.5,202.9,263.3z"/>
<path class="st1" d="M227.1,207.5l81.3,32.4c2.3-0.2,4.5-0.5,6.7-1.1c12.7-3.1,23.2-11.9,28.7-23.7c5.2-11.4,2.5-22.4,2.6-34.1
	l-84.6-34L227.1,207.5z"/>
<path class="st0" d="M227.1,207.5l-76.9,14l75.9,30.2c10-6,19.9-12,31.2-13.9c16.9-2.9,34.4,3.6,51.2,2.1L227.1,207.5L227.1,207.5z"
	/>
<path class="st1" d="M202.9,263.3c8.1-2.7,15.6-7.2,23.1-11.6l-75.9-30.1l-12.6,23.1C153.4,263.7,179.4,271.2,202.9,263.3z"/>
<ellipse class="st2" cx="213.9" cy="227.9" rx="22.6" ry="8.7"/>
<polygon class="st1" points="360.5,378.9 347.5,381.2 285.1,392.3 271.3,386.8 106.9,320.7 40.1,293.8 107.2,282 118.2,280.1 "/>
<polygon class="st0" points="285.1,392.3 249.8,450.7 126,401.9 6,354.7 6,354.6 27.3,316.7 40.1,293.8 106.9,320.7 271.3,386.8 "/>
<ellipse class="st3" cx="200.3" cy="404.7" rx="22.6" ry="8.7"/>
<path class="st4" d="M249.8,317.9c-1.7-27.4-25.2-48.2-52.6-46.5c-27.4,1.7-48.2,25.2-46.5,52.5c0.9,14.5,8.1,27.8,19.6,36.6
	c13.4,10.3,23.6,24.2,29.4,40.2c0.1,0.3,0.4,0.4,0.7,0.3c0.2,0,0.3-0.2,0.3-0.3c6.1-16.1,16.5-30.2,30.2-40.8
	C243.8,349.9,250.8,334.2,249.8,317.9z M200.3,340.4L200.3,340.4c-12,0-21.8-9.8-21.8-21.8s9.8-21.8,21.8-21.8
	c12,0,21.8,9.8,21.8,21.8C222.1,330.7,212.3,340.4,200.3,340.4z"/>
<path class="st5" d="M222.1,318.6c0,12-9.8,21.8-21.8,21.8h0c-12,0-21.8-9.8-21.8-21.8s9.8-21.8,21.8-21.8
	C212.3,296.8,222.1,306.6,222.1,318.6z"/>
<path class="st6" d="M288.7,100c-2.5-41.3-38-72.7-79.3-70.2s-72.7,38-70.2,79.3c1.3,21.9,12.2,42.1,29.7,55.3
	c20.3,15.4,35.4,36.7,44.3,60.6c0.2,0.4,0.6,0.7,1,0.5c0.2-0.1,0.4-0.3,0.5-0.5c9-24.4,25.1-45.4,45.5-61.5
	C279.7,148.3,290.3,124.5,288.7,100z M214,134c-18.2,0-32.9-14.7-32.9-32.9s14.7-32.9,32.9-32.9c18.2,0,32.9,14.7,32.9,32.9
	C246.9,119.3,232.2,134,214,134C214,134,214,134,214,134L214,134z"/>
<path class="st7" d="M385.8,135.2c-1.1-0.4-1.7-1.6-1.3-2.7c0,0,0,0,0,0l13.4-39.3c0.4-1.1,1.6-1.7,2.8-1.3c1.1,0.4,1.6,1.6,1.3,2.7
	l-13.4,39.3C388.1,135,386.9,135.6,385.8,135.2z M398.1,141.9c-0.7-0.9-0.5-2.3,0.4-3c0,0,0,0,0,0c9.4-7.1,19.5-13,30.3-17.8
	c1.1-0.5,2.3,0,2.8,1.1c0.5,1.1,0,2.3-1.1,2.8c-10.4,4.6-20.3,10.4-29.5,17.2C400.2,143,398.8,142.8,398.1,141.9
	C398.1,141.9,398.1,141.9,398.1,141.9z M369.9,130.9l-13.9-29.3c-0.6-1-0.2-2.3,0.8-2.9s2.3-0.2,2.9,0.8c0,0.1,0.1,0.2,0.1,0.3
	l13.9,29.3c0.6,1,0.2,2.3-0.8,2.9c-1,0.6-2.3,0.2-2.9-0.8C370,131,370,130.9,369.9,130.9L369.9,130.9z"/>
<ellipse class="st8" cx="367.9" cy="285.8" rx="22.6" ry="8.7"/>
<path class="st9" d="M370.3,148.8c-29.5-1.3-54.5,21.7-55.8,51.2c-0.9,21.1,10.7,40.7,29.5,50.2c11.2,5.6,19.4,17,21.7,30.7
	c0,1.2,0.9,2.3,2.2,2.3c1.2,0,2.3-0.9,2.3-2.2c0.1-0.3,1.9-20.1,23.3-31.7c17.1-9.3,27.9-27.1,28.1-46.6v-0.5
	C421.6,173.9,398.7,149.9,370.3,148.8z M368.1,223.2c-11.1,0-20-9-20-20.1c0-11.1,9-20,20.1-20c11,0,20,9,20,20
	C388.1,214.3,379.2,223.2,368.1,223.2C368.1,223.2,368.1,223.2,368.1,223.2z"/>
<g>
	<path class="st5" d="M408.1,202c0,22.1-17.8,40-39.9,40.1c-22.1,0-40-17.8-40.1-39.9c0-22.1,17.8-40,39.9-40.1c0,0,0.1,0,0.1,0
		C390.1,162.1,408,179.9,408.1,202z"/>
	<g id="SvgjsG1424">
		<path d="M390.1,197.4c0,1.8-1.4,3.2-3.2,3.2c-0.4,0-0.7-0.1-1.1-0.2l-8.1-2.8l1.1,8.3c0.4,3.1-1.1,6.2-3.8,7.8l6.7,14.1
			c1,2,0.1,4.3-1.9,5.3c-0.5,0.3-1.1,0.4-1.7,0.4c-1.5,0-2.9-0.9-3.6-2.2l-7.1-14.7l-4.8,4.4l-3.7,9.9c-0.6,1.6-2.1,2.6-3.7,2.6
			c-0.5,0-0.9-0.1-1.4-0.3c-2-0.8-3.1-3-2.3-5.1l4.1-10.8c0.2-0.6,0.6-1.1,1-1.5l6.7-6.1c-0.2-0.5-0.3-1.1-0.4-1.6l-0.9-6.7
			l-8.5,3.3c-0.4,0.1-0.7,0.2-1.1,0.2c-1.3,0-2.5-0.8-3-2.1v0c-0.6-1.7,0.2-3.5,1.9-4.1l10.5-4c0.1-0.5,0.3-1,0.5-1.5
			c1.9-4,6.6-5.7,10.6-3.9l15.1,5.3C389.2,194.9,390,196.1,390.1,197.4z"/>
		<path class="st10" d="M365.9,187.2c-4.4,1.9-9.6-0.1-11.5-4.5c-1.9-4.4,0.1-9.6,4.5-11.5v0c4.4-1.9,9.6,0.1,11.5,4.5
			C372.3,180.2,370.3,185.3,365.9,187.2z"/>
		<rect x="375.9" y="177.9" width="8.9" height="1.2"/>
		<rect x="380.5" y="185.8" width="8.9" height="1.2"/>
		<rect x="376.6" y="182" width="17.2" height="1.2"/>
	</g>
</g>
<path class="st11" d="M204.6,406.1c35.8-15.8,71.6-31.7,107.4-47.5c18-23.9,35.9-47.8,53.9-71.8c-49.8-17.8-99.6-35.6-149.4-53.4"/>
</svg>
