<?xml version="1.0" encoding="utf-8"?>
<!-- Generator: Adobe Illustrator 25.0.0, SVG Export Plug-In . SVG Version: 6.00 Build 0)  -->
<svg version="1.1" id="Layer_1" xmlns="http://www.w3.org/2000/svg" xmlns:xlink="http://www.w3.org/1999/xlink" x="0px" y="0px"
	 viewBox="0 0 299.4 288" style="enable-background:new 0 0 299.4 288;" xml:space="preserve">
<style type="text/css">
	.st0{fill:#FFFFFF;}
	.st1{fill:#2BA5DD;}
	.st2{fill:#F27366;}
</style>
<g id="Layer_2_1_">
	<g id="Layer_1-2">
		<path class="st0" d="M126.4,282.4H42.6c-22.1,0-36.8-14.7-36.8-36.8V88.5c0-22.1,14.6-36.8,36.8-36.8h100.3
			c9,0,14.8,7.8,11.7,15.7c-1.8,4.5-6,7.3-11.3,7.3H41.9c-8.6,0-13,4.5-13,13.2v158.2c0,8.6,4.5,13.2,13,13.2h169.4
			c8.8,0,13.2-4.5,13.2-13.4v-89.7c0-8.8,7.9-14.4,15.6-11.4c4.6,1.8,7.3,6,7.4,11.7v90.1c-0.1,20.9-14.9,35.8-35.9,35.8H126.4z"/>
		<path class="st0" d="M236.1,120.9c-31.8-0.1-57.6-26-57.5-57.8s26-57.6,57.8-57.5c31.3,0,57.2,26,57.2,57.5
			C293.7,94.9,267.9,120.8,236.1,120.9z M201.5,63.3c0,19.1,15.5,34.5,34.6,34.5s34.5-15.5,34.5-34.6c0-19.1-15.5-34.5-34.6-34.5
			C216.9,28.8,201.4,44.3,201.5,63.3C201.5,63.3,201.5,63.3,201.5,63.3z"/>
		<path class="st1" d="M115.2,144h50c8,0,13.3,4.5,13.3,11.4s-5.2,11.6-13.1,11.6H64.3c-9,0-14.8-7.9-11.5-15.8
			c1.8-4.6,5.9-7.2,11.3-7.2H115.2z"/>
		<path class="st2" d="M92.3,120.9H64.6c-7.5,0-12.8-4.9-12.7-11.7s5.2-11.4,12.7-11.4h55.4c7.3,0,12.5,4.8,12.5,11.5
			s-5.2,11.5-12.5,11.5L92.3,120.9z"/>
		<path class="st2" d="M201,63.3c0-19.3,15.7-35,35.1-34.9s35,15.7,34.9,35.1c0,19.3-15.7,34.9-35,34.9h-0.3
			C216.5,98.2,201,82.5,201,63.3z"/>
	</g>
</g>
</svg>
