<svg id="Layer_1" data-name="Layer 1" xmlns="http://www.w3.org/2000/svg" viewBox="0 0 328.15 327.35"><g id="Layer_2" data-name="Layer 2"><g id="Layer_1-2" data-name="Layer 1-2"><path d="M236.62,2.4h52c22,0,37.13,15.14,37.15,37.06,0,31.12-.06,62.25,0,93.36a37.81,37.81,0,0,1-11.43,27.82q-74.91,75.9-149.65,152c-16.3,16.54-37.27,16.51-53.72.06q-48.3-48.3-96.54-96.6c-15.91-15.91-16.17-36.47-.65-52.76Q84.63,89.1,155.39,14.83c8-8.42,17.52-12.59,29.21-12.48C201.94,2.52,219.24,2.4,236.62,2.4Zm0,23.66c-17.34,0-34.67.09-52-.06a15.64,15.64,0,0,0-12.36,5.28q-70.41,74.09-141,148.05c-6.63,6.95-6.58,13.12.14,19.83l97.44,97.2c6.6,6.57,12.93,6.55,19.46-.08q15.9-16.2,31.77-32.4,58.4-59.52,116.8-119A17.12,17.12,0,0,0,302.23,132c-.14-30.75-.07-61.5-.08-92.25,0-9.22-4.55-13.73-13.86-13.73q-25.8-.06-51.62,0Z" fill="#00cbb2"/><path d="M236.67,26h51.65c9.31,0,13.86,4.51,13.86,13.73,0,30.75-.06,61.5.08,92.25A17.1,17.1,0,0,1,297,144.8q-58.46,59.46-116.79,119l-31.78,32.4c-6.52,6.63-12.81,6.65-19.45.08L31.52,199.12c-6.72-6.71-6.77-12.88-.14-19.83l141-148A15.66,15.66,0,0,1,184.66,26C202,26.12,219.33,26,236.67,26ZM210.43,82a35.62,35.62,0,0,0,34.91,36c18.28.35,33.73-14.68,34.07-33.14.38-20.12-14.78-36-34.72-36.3-19.24-.32-33.95,14-34.26,33.42Z" fill="#fff"/><path d="M210.43,82c.31-19.38,15-33.74,34.26-33.41,19.94.33,35.1,16.18,34.72,36.3-.34,18.46-15.77,33.51-34.07,33.14A35.62,35.62,0,0,1,210.43,82Zm46,2a12.11,12.11,0,0,0-12-12.24h-.08c-6.15,0-10.57,4.57-10.52,10.84A12.09,12.09,0,0,0,246,94.4a10.21,10.21,0,0,0,10.48-10,4.51,4.51,0,0,0,0-.52Z" fill="#00cbb2"/><path d="M256.45,83.93a10.21,10.21,0,0,1-10,10.47H246a12.09,12.09,0,0,1-12.1-11.83c0-6.28,4.37-10.84,10.52-10.84a12.11,12.11,0,0,1,12.06,12.16Z" fill="#fff"/></g></g></svg>