<svg id="Layer_1" data-name="Layer 1" xmlns="http://www.w3.org/2000/svg" viewBox="0 0 400.86 426.69"><g id="Layer_1-2" data-name="Layer 1-2"><path d="M159.66,177.52a8.2,8.2,0,0,1-8.27,8.11c-2.85.12-5.8.09-8.66.06H126.38c-5.06-.15-8.54-3.58-8.62-8.52-.18-8.95-.17-17.17,0-25.14a8.22,8.22,0,0,1,8.14-8.3h.25q6.28-.12,12.57-.12c4.21,0,8.42,0,12.56.12a8.21,8.21,0,0,1,8.38,8.05,1.13,1.13,0,0,1,0,.26C159.87,161.07,159.87,169.41,159.66,177.52Z" fill="#f27366"/><path d="M222.14,177.34c-.09,5.23-3.52,8.65-8.78,8.78-7.9.14-16.12.14-24.39,0-5.38-.09-8.78-3.54-8.85-9-.11-8.28-.11-16.35,0-24,.08-5.4,3.51-8.83,9-8.95H213c5.5.12,9,3.52,9.05,8.86C222.28,161.24,222.27,169.48,222.14,177.34Z" fill="#162143"/><path d="M349,177.34c-.09,5.23-3.52,8.65-8.78,8.78-7.9.14-16.12.14-24.39,0-5.38-.09-8.78-3.54-8.85-9-.1-8.28-.1-16.35,0-24,.08-5.4,3.52-8.83,9-8.95h23.95c5.5.12,9,3.52,9.05,8.86C349.1,161.24,349.09,169.48,349,177.34Z" fill="#162143"/><path d="M284.47,176.93c-.16,5.07-3.58,8.55-8.52,8.64-8.89.17-17.1.17-25.13,0a8.22,8.22,0,0,1-8.31-8.15v-.24c-.17-8.33-.17-16.78,0-25.14a8.22,8.22,0,0,1,8.07-8.38h.24c4.39-.1,8.62-.15,12.76-.15,4.34,0,8.57.06,12.73.16a8.22,8.22,0,0,1,8.13,8.26c.11,2.86.09,5.85.06,8.67v7.92h0C284.53,171.27,284.55,174.15,284.47,176.93Z" fill="#2ba5dd"/><path d="M222.14,242.7c-.09,5.23-3.52,8.66-8.78,8.78-7.9.14-16.12.14-24.39,0-5.38-.09-8.78-3.54-8.85-9-.11-8.27-.11-16.35,0-24,.08-5.39,3.51-8.83,9-8.94H213c5.5.11,9,3.51,9.05,8.85C222.28,226.61,222.27,234.84,222.14,242.7Z" fill="#162143"/><path d="M284.47,242.29c-.16,5.08-3.58,8.55-8.52,8.65-8.89.16-17.1.16-25.13,0a8.23,8.23,0,0,1-8.31-8.16v-.23c-.17-8.33-.17-16.79,0-25.14a8.23,8.23,0,0,1,8.07-8.39h.24c4.39-.1,8.62-.15,12.76-.15,4.34,0,8.57.06,12.73.17a8.21,8.21,0,0,1,8.13,8.25c.11,2.86.09,5.85.06,8.67v7.92h0C284.53,236.63,284.55,239.51,284.47,242.29Z" fill="#f27366"/><path d="M159.72,303.19c-.08,5.23-3.52,8.65-8.78,8.78-7.9.13-16.11.13-24.39,0-5.38-.09-8.78-3.54-8.84-9-.11-8.27-.11-16.35,0-24,.07-5.4,3.51-8.78,9-8.95,1.54,0,3.1-.05,4.66-.05h19.29c5.5.12,9,3.51,9,8.86C159.86,287.09,159.85,295.32,159.72,303.19Z" fill="#162143"/><path d="M221.06,302.78c-.16,5.07-3.58,8.54-8.52,8.64-8.89.17-17.1.17-25.13,0a8.23,8.23,0,0,1-8.31-8.15V303c-.17-8.33-.17-16.79,0-25.14a8.23,8.23,0,0,1,8.07-8.39h.24c4.39-.1,8.62-.15,12.76-.15,4.34,0,8.57.06,12.73.17a8.21,8.21,0,0,1,8.13,8.25c.11,2.86.08,5.86.06,8.68v7.92h0C221.11,297.12,221.13,300,221.06,302.78Z" fill="#2ba5dd"/><path d="M96.29,368.55c-.08,5.23-3.52,8.65-8.78,8.78-7.9.14-16.11.14-24.39,0-5.38-.09-8.78-3.54-8.84-9-.11-8.27-.11-16.35,0-24,.07-5.4,3.51-8.78,9-8.95,1.54,0,3.1-.05,4.66-.05H87.19c5.5.12,9,3.51,9,8.86C96.43,352.45,96.42,360.69,96.29,368.55Z" fill="#162143"/><path d="M159.77,368.14c-.15,5.07-3.58,8.54-8.51,8.64-8.89.17-17.11.17-25.13,0a8.23,8.23,0,0,1-8.32-8.15v-.24c-.16-8.33-.16-16.79,0-25.14a8.25,8.25,0,0,1,8.08-8.39h.24c4.39-.09,8.62-.14,12.76-.14q6.51,0,12.68.16a8.21,8.21,0,0,1,8.12,8.26c.12,2.85.09,5.85.06,8.67v7.92h0C159.83,362.48,159.85,365.36,159.77,368.14Z" fill="#f27366"/><path d="M319.1,343.61a2.93,2.93,0,1,0,2.93,2.93A2.93,2.93,0,0,0,319.1,343.61Zm0,5.08a2.15,2.15,0,1,1,2.15-2.15,2.15,2.15,0,0,1-2.15,2.15Z" fill="#162143"/><path d="M319.1,296.79a47.8,47.8,0,1,0,47.8,47.8A47.8,47.8,0,0,0,319.1,296.79Zm0,82.92a35.12,35.12,0,1,1,35.12-35.12,35.12,35.12,0,0,1-35.12,35.12Z" fill="#162143"/><polygon points="349.83 345.08 349.83 347.03 318.61 347.03 318.61 316.79 320.56 316.79 320.56 345.08 349.83 345.08" fill="#162143"/><rect x="318.61" y="346.05" width="0.98" height="0.98" fill="#162143"/><rect x="318.61" y="346.05" width="0.98" height="0.98" fill="#162143"/></g><path d="M309.58,33.85H292.15V13.61a7.4,7.4,0,0,0-14.8,0V33.85H125.43V13.61a7.41,7.41,0,0,0-14.81,0V33.85H93.2A86.76,86.76,0,0,0,6.54,120.51V336.59A86.76,86.76,0,0,0,93.2,423.25H309.58a86.76,86.76,0,0,0,86.66-86.66V120.51A86.76,86.76,0,0,0,309.58,33.85ZM93.2,48.85h17.42v11.7a7.41,7.41,0,0,0,14.81,0V48.85H277.35v11.7a7.4,7.4,0,1,0,14.8,0V48.85h17.43a71.77,71.77,0,0,1,70.87,61H22.33A71.76,71.76,0,0,1,93.2,48.85Zm288,287.74a71.75,71.75,0,0,1-71.66,71.66H93.2a71.74,71.74,0,0,1-71.66-71.66V124.7h359.7Z" fill="#162143"/></svg>