<?xml version="1.0" encoding="utf-8"?>
<!-- Generator: Adobe Illustrator 25.0.0, SVG Export Plug-In . SVG Version: 6.00 Build 0)  -->
<svg version="1.1" id="Layer_1" xmlns="http://www.w3.org/2000/svg" xmlns:xlink="http://www.w3.org/1999/xlink" x="0px" y="0px"
	 viewBox="0 0 512 512" style="enable-background:new 0 0 512 512;" xml:space="preserve">
<style type="text/css">
	.st0{opacity:0.2;fill:#FA5743;enable-background:new    ;}
	.st1{fill:#FA5743;stroke:#363A5A;stroke-width:6;stroke-miterlimit:10;}
	.st2{opacity:0.2;fill:#5DCECE;enable-background:new    ;}
	.st3{opacity:0.2;fill:#FFCB64;enable-background:new    ;}
	
		.st4{fill:none;stroke:#363A5A;stroke-width:6;stroke-linecap:round;stroke-linejoin:round;stroke-miterlimit:10;stroke-dasharray:8,11;}
	.st5{fill:#5DCECE;stroke:#363A5A;stroke-width:6;stroke-miterlimit:10;}
	.st6{fill:#FFCB64;stroke:#363A5A;stroke-width:6;stroke-miterlimit:10;}
	.st7{fill:#363A5A;}
	.st8{opacity:0.5;fill:#5DCECE;enable-background:new    ;}
	.st9{opacity:0.5;fill:#FA5743;enable-background:new    ;}
	.st10{opacity:0.5;fill:#FFCB64;enable-background:new    ;}
</style>
<g>
	<ellipse class="st0" cx="67.9" cy="495" rx="29.3" ry="11.4"/>
	<path class="st1" d="M70.6,337.4c-34.2-1.5-63.1,25.1-64.5,59.2c-1,24.4,12.3,47.1,34.1,58c13.1,6.5,22.4,19.7,25.1,35.6
		c0.2,1.4,1.5,2.4,2.9,2.3c1.1-0.1,2-1,2.3-2.1c0.2-0.4,2.2-23.2,26.9-36.6c19.8-10.7,32.3-31.3,32.5-53.9v-0.6
		C129.9,366.4,103.4,338.7,70.6,337.4z M68,423.6c-12.8,0-23.2-10.4-23.2-23.2c0-12.8,10.4-23.2,23.2-23.2
		c12.8,0,23.1,10.4,23.2,23.2C91.2,413.2,80.8,423.6,68,423.6C68,423.6,68,423.6,68,423.6z"/>
	<ellipse class="st2" cx="423.4" cy="281.8" rx="37" ry="14.3"/>
	<ellipse class="st3" cx="323.6" cy="456.7" rx="29.4" ry="11.4"/>
	<path class="st4" d="M69.6,493.1c11.5-13,49-52.1,112.1-64.4c72.1-14.1,127.5,16.6,141.1,24.6c-1.5-10.3-9.1-72.1,33.9-122
		c23.9-27.7,52.5-39.1,67.1-43.8"/>
	<path class="st5" d="M426.8,74.6c-45.6-1.9-84.2,33.5-86.1,79.1c-1.4,32.5,16.5,62.8,45.6,77.4c17.5,8.7,29.9,26.3,33.5,47.5
		c0.5,4.1,6.2,4,6.9,0.2c0.2-0.5,2.9-31,36-48.9c26.5-14.3,43-41.8,43.3-71.9v-0.8C506,113.4,470.6,76.4,426.8,74.6z M423.4,189.6
		c-17.1,0-30.9-13.9-30.9-31s13.9-30.9,31-30.9c17,0,30.8,13.8,30.9,30.9C454.4,175.8,440.5,189.6,423.4,189.6z"/>
	<path class="st6" d="M324.3,353.5c-22-1-40.6,16-41.6,38c-0.7,15.7,7.9,30.4,22,37.5c8.4,4.2,14.4,12.7,16.2,22.9
		c0.1,0.9,0.9,1.6,1.9,1.5c0.7-0.1,1.3-0.6,1.4-1.4c0.1-0.2,1.4-15,17.3-23.6c12.8-6.9,20.8-20.2,20.9-34.6v-0.4
		C362.3,372.1,345.6,354.6,324.3,353.5z M322.6,409c-8.2,0-14.9-6.7-14.9-14.9c0-8.2,6.7-14.9,14.9-14.9c8.2,0,14.9,6.7,14.9,14.9
		C337.5,402.3,330.9,409,322.6,409L322.6,409z"/>
	<path class="st7" d="M354,86.9l-53.7-54.3c-1-1.1-1-2.9,0.2-3.9c1.1-1,2.7-1,3.8,0L358,83c1.1,1.1,1.1,2.8,0,3.9
		C356.9,88,355.1,88,354,86.9L354,86.9z M339.4,110.7c-20.7-4.1-41.8-5.7-62.8-4.9c-1.5,0.1-2.8-1.1-2.9-2.6c0,0,0,0,0-0.1
		c-0.1-1.5,1.1-2.8,2.7-2.9c21.5-0.8,43,0.9,64.1,5c1.5,0.3,2.5,1.7,2.2,3.2S340.9,110.9,339.4,110.7L339.4,110.7z M377.5,70.8
		c-1.5,0-2.7-1.2-2.8-2.8l-0.5-59.5c0-1.5,1.2-2.8,2.7-2.8c0,0,0,0,0,0l0,0c1.5,0,2.8,1.2,2.8,2.7l0.5,59.6
		C380.3,69.5,379,70.8,377.5,70.8L377.5,70.8z"/>
	<polygon class="st8" points="271,373.5 162.9,373.5 192.9,355.3 301,355.3 	"/>
	<polygon class="st9" points="469.9,356.9 389.4,356.9 411.8,343.3 492.3,343.3 	"/>
	<polygon class="st10" points="351.6,274.2 271.3,274.2 293.6,260.6 373.9,260.6 	"/>
	<polygon class="st9" points="190.7,302.9 110.4,302.9 132.7,289.3 213,289.3 	"/>
	<polygon class="st10" points="242,468.1 161.7,468.1 184,454.6 264.3,454.6 	"/>
</g>
</svg>
