<svg id="Layer_1" data-name="Layer 1" xmlns="http://www.w3.org/2000/svg" viewBox="0 0 512 512"><path d="M354,273.58a110,110,0,0,1-52.88-2,5.32,5.32,0,0,0-5.41,1c-7.86,6.32-15.8,12.55-23.71,18.81-.68.54-1.33,1.13-2,1.66-2.84,2.19-5.92,3.35-9.33,1.51s-4.6-5.12-4.19-8.86c1-9.41,1.93-18.84,3.31-28.2.67-4.53-.06-7.53-3.81-10.84-44.13-39-50.68-106.24-15.26-153.14,2.36-3.12,5-4.34,8.67-2.73,3.29,3.92,3.35,5.51.13,9.82-11.61,15.53-18.56,33-19.91,52.26-2.53,36.45,10.33,66.52,38.79,89.65a8.6,8.6,0,0,1,3.42,8.75c-1.24,9.07-2.13,18.19-3.15,27.25,1.4.34,1.91-.55,2.55-1.05,6.6-5.09,13.3-10.07,19.7-15.41,3.43-2.86,6.63-3.45,10.92-2a93.84,93.84,0,0,0,38.33,4.08,55,55,0,0,0,10-1.22c46.42-8,82.27-48.88,84.23-96a102.7,102.7,0,0,0-71-102.61c-12.66-4.16-25.65-6-39-4.55-20.26,1-38.21,8.2-54.38,20.22-4.42,3.29-5.83,3.3-9.84.11-1.8-3.82-.45-6.51,2.77-8.92a112.5,112.5,0,0,1,56.29-22.42c.58-.06,1.26.09,1.49-.72h21.7c5,1,10.09,1.88,15.1,3,47,10.41,83.38,52,87.56,99.84C450.23,209.92,412.09,261.46,354,273.58Z" fill="#122230"/><path d="M311.59,395.66a46.17,46.17,0,0,1-17.71,13.93A79.8,79.8,0,0,1,255,419.78c-26.62.19-50.62-8.32-72.13-23.72-24.65-17.65-43.85-40.41-60.17-65.72-2.22-3.44-4.67-5.33-8.78-4.64-3.23-2.93-4.88-6.8-6.43-10.74,2.83-2.92,2.74-5.9.87-9.46-13.89-26.4-23.74-54.18-28.2-83.79-3.4-22.59-2.31-44.68,6.4-66.09,9.53-23.42,25.38-40.51,49.29-49.61a45.53,45.53,0,0,1,17.71-4c8.66-.24,15.06,3.6,19,11.44,3.49,7,5.06,14.54,6.31,22.16,1.7,10.43,3.93,20.76,4.33,31.4.48,12.82-5.79,21.11-17,25.87-6.08,2.58-9.59,6.94-11.53,12.84-3.76,11.48-3.33,23.22-.67,34.7,7.69,33.16,23.31,61.8,49.86,83.77,6.27,5.18,13.26,9.28,21.3,11.25a20.5,20.5,0,0,0,14.81-1.67c11-5.62,21.84-5.49,31.94,2.26,13.89,10.67,26.13,23.06,37.45,36.37a27.48,27.48,0,0,1,4.18,7C316,385.24,315.39,390.68,311.59,395.66Z" fill="#2ba5dd"/><path d="M363.39,64.28c-12.66-4.16-25.65-6-39-4.55-20.26,1-38.21,8.2-54.38,20.22-4.42,3.29-5.83,3.3-9.84.11a69.61,69.61,0,0,1-10.79,10.71c3.29,3.92,3.35,5.51.13,9.82-11.61,15.53-18.56,33-19.91,52.26-2.53,36.45,10.33,66.52,38.79,89.65a8.6,8.6,0,0,1,3.42,8.75c-1.24,9.07-2.13,18.19-3.15,27.25,1.4.34,1.91-.55,2.55-1.05,6.6-5.09,13.3-10.07,19.7-15.41,3.43-2.86,6.63-3.45,10.92-2a93.84,93.84,0,0,0,38.33,4.08,55,55,0,0,0,10-1.22c46.42-8,82.27-48.88,84.23-96A102.7,102.7,0,0,0,363.39,64.28Zm2.8,97.93c7.73,7.43,15.36,15,22.77,22.73,11,11.5,6,30-9.08,34-7.69,2-14.53.07-20.22-5.61-7.49-7.5-15-14.94-22.45-22.52-1.69-1.74-2.61-1.81-4.35,0q-11.34,11.67-23,23a20.4,20.4,0,0,1-34.71-15.51,20.59,20.59,0,0,1,6.41-13.91c7.52-7.47,14.93-15,22.53-22.44,1.78-1.73,1.68-2.65,0-4.32-7.49-7.32-14.86-14.77-22.23-22.21-8.63-8.73-9-21.17-.83-29.41s20.91-8.16,29.71.56c7.35,7.28,14.73,14.54,21.89,22,2,2.13,3.05,1.85,4.92-.09,6.68-6.9,13.74-13.43,20.29-20.45,6.82-7.3,14.71-9.82,24.3-6.91,9.58,4.79,13.75,12.53,12.63,23.16-1.45,5.33-4.61,9.5-8.54,13.3-6.73,6.5-13.18,13.27-19.9,19.77C364.4,159.22,364.07,160.18,366.19,162.21Z" fill="#fdfdfd"/><path d="M325.25,393.33c-1.78,6.32-5.73,11.29-10.51,15.58-14.23,12.77-31.33,19.37-50,21.34-35.44,3.73-66.45-7.92-94.15-29.31-23.54-18.18-42.23-40.78-58.21-65.72-2.37-3.7-2-5.49,1.51-9.52,4.11-.69,6.56,1.2,8.78,4.64,16.32,25.31,35.52,48.07,60.17,65.72,21.51,15.4,45.51,23.91,72.13,23.72a79.8,79.8,0,0,0,38.9-10.19,46.17,46.17,0,0,0,17.71-13.93c3.8-5,4.37-10.42,1.89-16.2a27.48,27.48,0,0,0-4.18-7C298,359.1,285.74,346.71,271.85,336c-10.1-7.75-20.94-7.88-31.94-2.26a20.5,20.5,0,0,1-14.81,1.67c-8-2-15-6.07-21.3-11.25-26.55-22-42.17-50.61-49.86-83.77-2.66-11.48-3.09-23.22.67-34.7,1.94-5.9,5.45-10.26,11.53-12.84,11.22-4.76,17.49-13,17-25.87-.4-10.64-2.63-21-4.33-31.4-1.25-7.62-2.82-15.16-6.31-22.16-3.91-7.84-10.31-11.68-19-11.44a45.53,45.53,0,0,0-17.71,4c-23.91,9.1-39.76,26.19-49.29,49.61-8.71,21.41-9.8,43.5-6.4,66.09,4.46,29.61,14.31,57.39,28.2,83.79,1.87,3.56,2,6.54-.87,9.46-5.44,1.06-6.6.49-9.19-4.41a277.93,277.93,0,0,1-28.66-83.21C64.2,195.6,66.7,165,83.36,136.64c13.8-23.48,34-38.76,60.68-44.75,20.3-4.55,34.82,3.56,41.33,23.39,5.37,16.37,7.85,33.41,8.91,50.6,1.09,17.72-7.57,29.67-23.05,37a11,11,0,0,0-6.49,8,58.88,58.88,0,0,0,.42,28.51c7.3,29.45,21.12,55.18,44.52,75.12,5.23,4.45,11,8.11,17.78,9.95a9.72,9.72,0,0,0,7.16-.71c15.37-7.36,30.37-7.31,44.26,3.47a238.25,238.25,0,0,1,39.25,38.3C324.62,373.54,328.24,382.71,325.25,393.33Z" fill="#122230"/><path d="M366.19,162.21c-2.12-2-1.79-3,.1-4.82,6.72-6.5,13.17-13.27,19.9-19.77,3.93-3.8,7.09-8,8.54-13.3,1.12-10.63-3.05-18.37-12.63-23.16-9.59-2.91-17.48-.39-24.3,6.91-6.55,7-13.61,13.55-20.29,20.45-1.87,1.94-2.88,2.22-4.92.09-7.16-7.47-14.54-14.73-21.89-22-8.8-8.72-21.45-8.93-29.71-.56s-7.8,20.68.83,29.41c7.37,7.44,14.74,14.89,22.23,22.21,1.72,1.67,1.82,2.59,0,4.32-7.6,7.39-15,15-22.53,22.44A20.43,20.43,0,0,0,287,217.87a20.27,20.27,0,0,0,22.83-4q11.68-11.34,23-23c1.74-1.79,2.66-1.72,4.35,0,7.41,7.58,15,15,22.45,22.52,5.69,5.68,12.53,7.66,20.22,5.61,15.12-4,20.06-22.52,9.08-34C381.55,177.18,373.92,169.64,366.19,162.21Zm17.06,39.73c-2,6.69-10.16,8.74-15.33,3.67-9.87-9.68-19.55-19.56-29.31-29.36-3.33-1.85-6.06-1.07-8.69,1.59q-13.64,13.85-27.46,27.48c-5.61,5.51-14.13,3.28-15.85-4-.89-3.79.71-6.74,3.34-9.36q13.26-13.17,26.42-26.41c4.43-4.44,4.46-6.93.11-11.29-9.06-9.08-18.17-18.11-27.18-27.24-3.43-3.49-3.85-7.79-1.45-11.59a9.17,9.17,0,0,1,10.45-3.78c2.13.62,3.63,2.11,5.13,3.61q13.06,13.08,26.15,26.15c3.79,3.77,5.28,4,9.78,1.39,9.47-9.55,18.89-19.15,28.44-28.63,3.92-3.9,9.43-3.94,13.06-.4s3.8,9.26-.21,13.34c-8.65,8.81-17.42,17.49-26.14,26.22-5.68,5.69-5.67,7.36.13,13.16,8.46,8.47,16.9,17,25.39,25.38C382.9,194.69,384.45,197.91,383.25,201.94Z" fill="#122230"/><path d="M380,191.85c2.87,2.84,4.42,6.06,3.22,10.09-2,6.69-10.16,8.74-15.33,3.67-9.87-9.68-19.55-19.56-29.31-29.36-3.33-1.85-6.06-1.07-8.69,1.59q-13.64,13.85-27.46,27.48c-5.61,5.51-14.13,3.28-15.85-4-.89-3.79.71-6.74,3.34-9.36q13.26-13.17,26.42-26.41c4.43-4.44,4.46-6.93.11-11.29-9.06-9.08-18.17-18.11-27.18-27.24-3.43-3.49-3.85-7.79-1.45-11.59a9.17,9.17,0,0,1,10.45-3.78c2.13.62,3.63,2.11,5.13,3.61q13.06,13.08,26.15,26.15c3.79,3.77,5.28,4,9.78,1.39,9.47-9.55,18.89-19.15,28.44-28.63,3.92-3.9,9.43-3.94,13.06-.4s3.8,9.26-.21,13.34c-8.65,8.81-17.42,17.49-26.14,26.22-5.68,5.69-5.67,7.36.13,13.16C363.1,174.94,371.54,183.43,380,191.85Z" fill="#f27366"/></svg>