<svg id="Layer_1" data-name="Layer 1" xmlns="http://www.w3.org/2000/svg" viewBox="0 0 512 512"><path d="M302.55,341.05a46.67,46.67,0,1,1-19.52-38A46.7,46.7,0,0,1,302.55,341.05Z" fill="#2ba5dd"/><path d="M177,341.05a46.69,46.69,0,1,1-46.69-46.69h.16a46.72,46.72,0,0,1,46.32,42.22Q177,338.74,177,341.05Z" fill="#f27366"/><path d="M428.18,341.05a46.69,46.69,0,0,1-93.38,0c0-1.5.07-3,.22-4.52a46.71,46.71,0,0,1,46.35-42.17h.12A46.69,46.69,0,0,1,428.18,341.05Z" fill="#f27366"/><rect x="38.22" y="176.87" width="435.27" height="32.44" fill="#162143"/><path d="M38.45,209.31V426.46a49.09,49.09,0,0,0,49.09,49.09H424.22a49.23,49.23,0,0,0,49.23-49.23v-217Zm91.81,178.43a46.69,46.69,0,1,1,0-93.38h.16a46.72,46.72,0,0,1,46.32,42.22q.21,2.16.21,4.47A46.69,46.69,0,0,1,130.26,387.74Zm125.57,0a46.7,46.7,0,1,1,46.72-46.67A46.69,46.69,0,0,1,255.83,387.72Zm125.66,0a46.69,46.69,0,0,1-46.69-46.69c0-1.5.07-3,.22-4.52a46.71,46.71,0,0,1,46.35-42.17h.12a46.69,46.69,0,1,1,0,93.38Z" fill="#fff"/><path d="M433.42,49.62H386.68V21.23a16.23,16.23,0,0,0-32.45,0V49.62H272.17V21.23a16.22,16.22,0,0,0-32.44,0V49.62H157.67V21.23a16.23,16.23,0,0,0-32.45,0V49.62H79a73,73,0,0,0-73,73V430.33A76.66,76.66,0,0,0,82.66,507H429.21A76.8,76.8,0,0,0,506,430.19v-308A72.58,72.58,0,0,0,433.42,49.62Zm40,376.7a49.23,49.23,0,0,1-49.23,49.23H87.54a49.09,49.09,0,0,1-49.09-49.09v-300A45.39,45.39,0,0,1,83.84,81.06h41.38v32.23a16.23,16.23,0,0,0,32.45,0V81.06h82.06v32.23a16.22,16.22,0,0,0,32.44,0V81.06h82.06v32.23a16.23,16.23,0,0,0,32.45,0V81.06h41.75a45,45,0,0,1,45,45Z" fill="#162143"/><path d="M473.45,126.08v50.79h-435V126.45A45.39,45.39,0,0,1,83.84,81.06h41.38v32.23a16.23,16.23,0,0,0,32.45,0V81.06h82.06v32.23a16.22,16.22,0,0,0,32.44,0V81.06h82.06v32.23a16.23,16.23,0,0,0,32.45,0V81.06h41.75A45,45,0,0,1,473.45,126.08Z" fill="#fff"/></svg>