<svg id="Layer_1" data-name="Layer 1" xmlns="http://www.w3.org/2000/svg" viewBox="0 0 420.8 439.1"><path d="M393.4,88.2V134H27.4V88.2a29,29,0,0,1,29-29H90.3V73a11.9,11.9,0,1,0,23.8,0V59.1H306.5V73a11.9,11.9,0,0,0,23.8,0V59.1h33.9A29.09,29.09,0,0,1,393.4,88.2Z" fill="#e2e3e4"/><path d="M365.5,59.1h-1.1a29,29,0,0,1,29,29V87A27.91,27.91,0,0,0,365.5,59.1Zm-310.2,0A27.91,27.91,0,0,0,27.4,87v1.1a29,29,0,0,1,29-29Z" fill="#1a2445"/><path d="M56.4,59.1a29,29,0,0,0-29,29V87A27.91,27.91,0,0,1,55.3,59.1Z" fill="#1a2445"/><path d="M393.4,87.1v1.1a29,29,0,0,0-29-29h1.1A27.78,27.78,0,0,1,393.4,87.1Z" fill="#1a2445"/><path d="M368.4,44H330.5V24.8a11.54,11.54,0,0,0-3.5-8.4,12,12,0,0,0-20.4,8.4V44H114.2V24.8a11.54,11.54,0,0,0-3.5-8.4,11.71,11.71,0,0,0-8.4-3.5A11.86,11.86,0,0,0,90.4,24.8V44H52.5A40.84,40.84,0,0,0,11.7,84.8V385.5a40.84,40.84,0,0,0,40.8,40.8H368.4a40.84,40.84,0,0,0,40.8-40.8V84.8A40.91,40.91,0,0,0,368.4,44Zm25,339.2a27.91,27.91,0,0,1-27.9,27.9H55.3a27.91,27.91,0,0,1-27.9-27.9V153H393.5V383.2Zm0-249.2H27.4V87A27.91,27.91,0,0,1,55.3,59.1h35V73a11.9,11.9,0,1,0,23.8,0V59.1H306.5V73a11.9,11.9,0,0,0,23.8,0V59.1h35A27.91,27.91,0,0,1,393.2,87v47Z" fill="#1a2445"/><path d="M112.2,223.8H78.4a7,7,0,0,1-7-7V204.5a7,7,0,0,1,7-7h33.8a7,7,0,0,1,7,7v12.3A7,7,0,0,1,112.2,223.8Z" fill="#34a6dd"/><path d="M188.9,223.8H155.1a7,7,0,0,1-7-7V204.5a7,7,0,0,1,7-7h33.8a7,7,0,0,1,7,7v12.3A6.9,6.9,0,0,1,188.9,223.8Z" fill="#34a6dd"/><path d="M265.7,223.8H231.9a7,7,0,0,1-7-7V204.5a7,7,0,0,1,7-7h33.8a7,7,0,0,1,7,7v12.3A7,7,0,0,1,265.7,223.8Z" fill="#34a6dd"/><path d="M342.4,223.8H308.6a7,7,0,0,1-7-7V204.5a7,7,0,0,1,7-7h33.8a7,7,0,0,1,7,7v12.3A7,7,0,0,1,342.4,223.8Z" fill="#e5e5e6"/><path d="M112.2,296.6H78.4a7,7,0,0,1-7-7V277.3a7,7,0,0,1,7-7h33.8a7,7,0,0,1,7,7v12.3A7,7,0,0,1,112.2,296.6Z" fill="#34a6dd"/><path d="M188.9,296.6H155.1a7,7,0,0,1-7-7V277.3a7,7,0,0,1,7-7h33.8a7,7,0,0,1,7,7v12.3A6.9,6.9,0,0,1,188.9,296.6Z" fill="#f37669"/><path d="M265.7,296.6H231.9a7,7,0,0,1-7-7V277.3a7,7,0,0,1,7-7h33.8a7,7,0,0,1,7,7v12.3A7,7,0,0,1,265.7,296.6Z" fill="#34a6dd"/><path d="M342.4,296.6H308.6a7,7,0,0,1-7-7V277.3a7,7,0,0,1,7-7h33.8a7,7,0,0,1,7,7v12.3A7,7,0,0,1,342.4,296.6Z" fill="#34a6dd"/><path d="M112.2,369.4H78.4a7,7,0,0,1-7-7V350.1a7,7,0,0,1,7-7h33.8a7,7,0,0,1,7,7v12.3A7,7,0,0,1,112.2,369.4Z" fill="#34a6dd"/><path d="M188.9,369.4H155.1a7,7,0,0,1-7-7V350.1a7,7,0,0,1,7-7h33.8a7,7,0,0,1,7,7v12.3A6.9,6.9,0,0,1,188.9,369.4Z" fill="#34a6dd"/><path d="M265.7,369.4H231.9a7,7,0,0,1-7-7V350.1a7,7,0,0,1,7-7h33.8a7,7,0,0,1,7,7v12.3A7,7,0,0,1,265.7,369.4Z" fill="#34a6dd"/><path d="M342.4,369.4H308.6a7,7,0,0,1-7-7V350.1a7,7,0,0,1,7-7h33.8a7,7,0,0,1,7,7v12.3A7,7,0,0,1,342.4,369.4Z" fill="#34a6dd"/></svg>