<svg id="Outline" xmlns="http://www.w3.org/2000/svg" viewBox="0 0 512 512"><path d="M479.49,162.44c0-3.59,0-7.18-.16-10.78a86.44,86.44,0,0,0-1.84-14.54,89.09,89.09,0,0,0-12.36-29.91,90.92,90.92,0,0,0-33-30.7,88.25,88.25,0,0,0-23-8.7,83.74,83.74,0,0,0-18.33-2.19q-12,0-24,0c-1.09,0-1.33-.32-1.32-1.35,0-7,0-13.92,0-20.88a26.58,26.58,0,0,0-.19-3.21,14.5,14.5,0,0,0-16.61-12.48,14.34,14.34,0,0,0-8.46,4.59,15.2,15.2,0,0,0-3.79,10.79c.06,6.95,0,13.91,0,20.87,0,1.65,0,1.65-1.7,1.65H176.87c-1,0-1.45-.35-1.44-1.5,0-7.39,0-14.79,0-22.19a11.58,11.58,0,0,0,0-1.56,14.63,14.63,0,0,0-15.91-12.72c-7.11.65-13.07,7.34-12.91,14.22.16,7.31,0,14.64,0,22,0,1.8,0,1.78-1.75,1.8-9.71.14-19.43-.31-29.13.25a70.25,70.25,0,0,0-9.93,1.29,90.63,90.63,0,0,0-53.19,32.1,89.68,89.68,0,0,0-16.11,30.23,85.09,85.09,0,0,0-3.89,25.15q0,114.83,0,229.65a86.41,86.41,0,0,0,.73,11.92,88.93,88.93,0,0,0,3.5,15.46,91.1,91.1,0,0,0,12.29,24.52,88.85,88.85,0,0,0,17.12,18.26,91.63,91.63,0,0,0,21,12.63,89.07,89.07,0,0,0,35.53,7.43c44.4.08,88.79,0,142.3,0,36.43-.21,82,.31,127.52-.2a77.24,77.24,0,0,0,9.75-.82,84.56,84.56,0,0,0,15.75-3.83,91.67,91.67,0,0,0,14.74-6.58,94.1,94.1,0,0,0,18.48-13.54,91.78,91.78,0,0,0,6.48-6.89,89.78,89.78,0,0,0,20.59-44.84A93.81,93.81,0,0,0,479.48,384Q479.53,273.25,479.49,162.44ZM450.41,386.83A54.71,54.71,0,0,1,446,407.14,61,61,0,0,1,429.8,430a60.23,60.23,0,0,1-26.11,13.72,57.11,57.11,0,0,1-10.37,1.6c-2.27.13-4.54.16-6.81.16l-263,0a62,62,0,0,1-30.15-7.61,60.2,60.2,0,0,1-15.9-12.57A61,61,0,0,1,63.3,398.77a69,69,0,0,1-1.65-11.19c-.3-4-.17-8-.17-12q0-82.55,0-165.1c0-2.08,0-2.08,2.15-2.08h385c2,0,1.8-.23,1.8,1.78Q450.46,298.52,450.41,386.83Zm0-209c0,1.53,0,1.54-1.57,1.54H63.29c-2,0-1.82.23-1.82-1.76,0-6.64,0-13.28,0-19.92A64.27,64.27,0,0,1,65,135.53,62.23,62.23,0,0,1,75.74,116.7,61,61,0,0,1,97,100.3a59.65,59.65,0,0,1,17.69-5.19,63.05,63.05,0,0,1,8.46-.47q132.95,0,265.87,0a60.62,60.62,0,0,1,25.82,5.59,61.59,61.59,0,0,1,29.85,29.66A59.41,59.41,0,0,1,449.78,147a79.82,79.82,0,0,1,.69,11.56C450.44,165,450.46,171.41,450.46,177.85Z" fill="#162143"/><circle cx="161" cy="308" r="28.5" fill="#fefefe"/><circle cx="256" cy="308" r="28.5" fill="#fefefe"/><circle cx="351" cy="308" r="28.5" fill="#fefefe"/><path d="M450.46,177.85c0,1.53,0,1.54-1.57,1.54H63.29c-2,0-1.82.23-1.82-1.76,0-6.64,0-13.28,0-19.92A64.27,64.27,0,0,1,65,135.53,62.23,62.23,0,0,1,75.74,116.7,61,61,0,0,1,97,100.3a59.65,59.65,0,0,1,17.69-5.19,63.05,63.05,0,0,1,8.46-.47q132.95,0,265.87,0a60.62,60.62,0,0,1,25.82,5.59,61.59,61.59,0,0,1,29.85,29.66A59.41,59.41,0,0,1,449.78,147a79.82,79.82,0,0,1,.69,11.56C450.44,165,450.46,171.41,450.46,177.85Z" fill="#fff"/><path d="M448.66,208.43h-385c-2.15,0-2.15,0-2.15,2.08q0,82.56,0,165.1c0,4-.13,8,.17,12a69,69,0,0,0,1.65,11.19,61,61,0,0,0,14.14,26.56,60.2,60.2,0,0,0,15.9,12.57,62,62,0,0,0,30.15,7.61l263,0c2.27,0,4.54,0,6.81-.16a57.11,57.11,0,0,0,10.37-1.6A60.23,60.23,0,0,0,429.8,430,61,61,0,0,0,446,407.14a54.71,54.71,0,0,0,4.42-20.31q.12-88.32,0-176.62C450.46,208.2,450.69,208.43,448.66,208.43ZM132.5,308A28.5,28.5,0,1,1,161,336.5,28.5,28.5,0,0,1,132.5,308Zm95,0A28.5,28.5,0,1,1,256,336.5,28.5,28.5,0,0,1,227.5,308ZM351,336.5A28.5,28.5,0,1,1,379.5,308,28.5,28.5,0,0,1,351,336.5Z" fill="#fff"/><circle cx="256" cy="308" r="28.5" fill="#2ba5dd"/><circle cx="161" cy="308" r="28.5" fill="#f67567"/><circle cx="351" cy="308" r="28.5" fill="#f67567"/></svg>