<svg id="Layer_1" data-name="Layer 1" xmlns="http://www.w3.org/2000/svg" viewBox="0 0 416.8 414.8"><path d="M239.7,291.7a193.19,193.19,0,0,1,26.8-27.6c18.2-15.2,29.7-24.9,45-25.6,19.8-1,34.4,13.4,53.7,32.2,17.4,17.1,32.7,32.1,31.6,52.2-.8,13.7-8.8,23.2-17.4,33.4-22.6,26.8-52.6,34.2-58.8,35.6-26.1,5.9-46.8.4-67.8-5.5-8.3-2.3-47.1-13.6-94.3-48.6-52.6-38.9-80.8-81.3-96.8-105.7-29.4-45-35.5-72.1-37.2-80.6-3.6-17.8-8.4-41.8,1.3-68.7C35.1,56.6,61,20.1,94.9,20.4c23.5.2,40.4,17.9,58.3,36.7,14,14.7,26,27.3,25.9,44.9-.1,16.5-10.8,29-24.9,45.5a172.5,172.5,0,0,1-31,28.2,498.64,498.64,0,0,0,50.9,60.5A488.53,488.53,0,0,0,239.7,291.7Z" fill="#f27366"/><path d="M298.1,401.5c-17.7,0-33.2-4.3-47.3-8.3s-52.1-16.8-96.6-49.7C99.5,303,71,259.4,55.7,235.9c-14.2-21.7-32.3-53.7-38.2-83.1-3.7-18.4-8.8-43.7,1.6-72.5,8.3-23.3,35-67.4,75.9-67,26.5.2,45.3,19.9,63.4,38.9,14.4,15.1,28,29.4,27.8,49.8-.1,19.1-11.8,32.7-26.6,50a175,175,0,0,1-26.5,25.1,482.89,482.89,0,0,0,46,53.9,489.08,489.08,0,0,0,59.3,51,207.7,207.7,0,0,1,23.5-23.4c19-15.9,31.5-26.4,49.2-27.3,22.9-1.2,38.8,14.4,59,34.2,18,17.6,35,34.3,33.7,57.7-.9,16.1-10.2,27-19.1,37.5-22.4,26.5-51.3,35.3-62.7,37.9A98,98,0,0,1,298.1,401.5ZM94.5,27.5c-30.3,0-53.8,34.4-62.2,57.7-9,25.1-4.6,47.1-1,64.9,5.5,27.2,22.7,57.5,36.2,78.1,14.8,22.7,42.5,65,95.1,103.9,42.6,31.5,78.5,43.7,92,47.5,19.4,5.4,39.4,11,64.3,5.4,10-2.3,35.4-10.1,55-33.2,8.1-9.6,15.1-17.8,15.7-29.2,1-17-13.1-30.8-29.4-46.7-18.4-18-31.7-31-48.3-30.2-12.9.7-23.4,9.4-40.8,24a179.48,179.48,0,0,0-25.8,26.5,7.07,7.07,0,0,1-9.7,1.4,504.55,504.55,0,0,1-66.5-56.4,502.77,502.77,0,0,1-51.6-61.3,7.1,7.1,0,0,1,1.7-9.9,158.73,158.73,0,0,0,29.7-27c13.4-15.7,23.1-27,23.2-40.9.1-14.7-10.5-25.9-23.9-39.9C130.6,43.8,115.5,27.8,95,27.7A.65.65,0,0,0,94.5,27.5Z" fill="#1b2445"/></svg>