<svg id="_2" data-name=" 2" xmlns="http://www.w3.org/2000/svg" viewBox="0 0 512 512"><path d="M79.06,259.51c-.07-1-.11-2-.12-3s0-1.95.06-2.91v2.93C79,257.54,79,258.53,79.06,259.51Z" style="fill:#fff"/><path d="M445.07,75.38H66.93A60.93,60.93,0,0,0,6,136.31V375.7a60.93,60.93,0,0,0,60.93,60.93H445.07A60.93,60.93,0,0,0,506,375.7V136.31A60.93,60.93,0,0,0,445.07,75.38Zm-61.31,270.5a89.76,89.76,0,0,1-59.23-22.76c-29.76-26.41-38.31-68.86-21.31-105.82,1.33-2.64,2.78-5.23,4.94-9.59H204.77c1.5,3.58,2.67,6.57,4,9.51,17,36.94,8.49,79.41-21.21,105.87a89.8,89.8,0,1,1-60.31-156.73q128.76-.59,257.51,0a89.76,89.76,0,1,1-1,179.52Z" style="fill:#fff"/><path d="M79,256.55v-2.93q-.07,1.44-.06,2.91c0,1,0,2,.12,3C79,258.53,79,257.54,79,256.55Z" style="fill:#2ba5dd"/><path d="M384.76,166.36q-128.74-.59-257.51,0a89.8,89.8,0,1,0,60.31,156.73c29.7-26.46,38.21-68.93,21.21-105.87-1.33-2.94-2.5-5.93-4-9.51H308.16c-2.16,4.36-3.61,6.95-4.94,9.59-17,37-8.45,79.41,21.31,105.82a89.76,89.76,0,1,0,60.23-156.76ZM128,304.74a48.65,48.65,0,0,1-48.93-45.1v-.13c-.07-1-.11-2-.12-3s0-1.95.06-2.91c0,0,0-.06,0-.09a48.64,48.64,0,0,1,48.13-46.05H128a48.63,48.63,0,0,1,0,97.26Zm255.85.14a49,49,0,0,1-47.93-48.81c0-.19,0-.38,0-.57a48.65,48.65,0,0,1,48.65-48.09h.16a48.66,48.66,0,0,1,48.5,48.66A49.47,49.47,0,0,1,383.84,304.88Z" style="fill:#2ca9e1;isolation:isolate"/><path d="M176.2,255.69a48.64,48.64,0,0,1-97.14,3.95v-.13c0-1-.07-2-.06-3v-2.93s0-.06,0-.09a48.64,48.64,0,0,1,48.13-46.05H128A48.88,48.88,0,0,1,176.2,255.69Z" style="fill:#fff"/><path d="M79.06,259.51c-.07-1-.11-2-.12-3s0-1.95.06-2.91v2.93C79,257.54,79,258.53,79.06,259.51Z" style="fill:#fff"/><path d="M433.23,256.07a48.66,48.66,0,1,1-97.32,0c0-.19,0-.38,0-.57a48.65,48.65,0,0,1,48.65-48.09h.16A48.66,48.66,0,0,1,433.23,256.07Z" style="fill:#fff"/></svg>