<svg id="Layer_1" data-name="Layer 1" xmlns="http://www.w3.org/2000/svg" xmlns:xlink="http://www.w3.org/1999/xlink" viewBox="0 0 512 512"><defs><style>.cls-1{fill:none;}.cls-2{clip-path:url(#clip-path);}.cls-3{fill:#121d3f;}.cls-4{fill:#31a8e0;}.cls-5{fill:#fff;}</style><clipPath id="clip-path"><rect class="cls-1" x="6" y="5.99" width="500" height="500.02"/></clipPath></defs><g class="cls-2"><path class="cls-3" d="M487.09,355.37c-.64-.65-50.85-39.3-50.85-39.3a64.7,64.7,0,0,0-89.34.13l-30.57,24.31a266.76,266.76,0,0,1-144.63-145l24.16-30.39a64.68,64.68,0,0,0,.14-89.3s-38.69-50.19-39.33-50.88a64.29,64.29,0,0,0-90.33-.82L42.39,45C-118.7,216.45,297.17,632.18,468.08,468.61l19-21.89a64.68,64.68,0,0,0,0-91.35m-30.46,62.82-19,21.92C313.52,557.34-46.87,216.94,70.86,75.36l24-20.87a23,23,0,0,1,31.51-.81s38.42,50,39.06,50.6a22.94,22.94,0,0,1,0,32.32c-.55.55-34.09,42.66-34.09,42.66a20.9,20.9,0,0,0-3,20.87A313.13,313.13,0,0,0,312.38,384a20.83,20.83,0,0,0,20.42-3.15s42.09-33.53,42.66-34.12a23,23,0,0,1,32.32,0c.65.65,50.59,39.07,50.59,39.07a23.41,23.41,0,0,1-1.74,32.44"/><path class="cls-4" d="M506,214.74a20.87,20.87,0,1,1-41.73.94v-.94A167.13,167.13,0,0,0,297.32,47.81a20.87,20.87,0,0,1,0-41.73C412.51,6.21,505.87,99.52,506,214.74"/><path class="cls-4" d="M422.53,214.74a20.87,20.87,0,1,1-41.73.94v-.94a83.48,83.48,0,0,0-83.48-83.46,20.88,20.88,0,0,1,0-41.74,125.33,125.33,0,0,1,125.21,125.2"/><path class="cls-5" d="M456.63,418.19l-19,21.92C313.52,557.34-46.87,216.94,70.86,75.36l24-20.87a23,23,0,0,1,31.51-.81s38.42,50,39.06,50.6a22.94,22.94,0,0,1,0,32.32c-.55.55-34.09,42.66-34.09,42.66a20.9,20.9,0,0,0-3,20.87A313.13,313.13,0,0,0,312.38,384a20.83,20.83,0,0,0,20.42-3.15s42.09-33.53,42.66-34.12a23,23,0,0,1,32.32,0c.65.65,50.59,39.07,50.59,39.07a23.41,23.41,0,0,1-1.74,32.44"/></g></svg>