<svg id="Layer_1" data-name="Layer 1" xmlns="http://www.w3.org/2000/svg" viewBox="0 0 402.92 400.87"><g id="Layer_2" data-name="Layer 2"><g id="Layer_1-2" data-name="Layer 1-2"><path d="M219.93,305c5.14-7.94,9.74-15.17,14.57-22.28,2.54-3.75,6.41-5.21,10.91-5.2h85.2a13.64,13.64,0,0,1,11,5.16c36.26,42.66,11.33,104.36-40.44,115.08-11.84,2.45-23.74,1.48-35.58.48-37.32-3.1-73-12.64-106.15-30Q39.22,305.39,8.23,173.23a261.69,261.69,0,0,1-6.63-57C1.21,77.81,28.6,46.71,66.9,43c19.95-2,37.75,4.38,52.58,18a13.92,13.92,0,0,1,3.9,9.15c.3,28.77.18,57.44.17,86.16,0,4.07-1.38,7.71-4.76,10-7.3,5-14.78,9.72-22.73,14.88a200.34,200.34,0,0,0,43.65,71.31A202.43,202.43,0,0,0,219.93,305ZM99.69,113.43c0-11.76.06-23.52-.07-35.27,0-1.38-.69-3.35-1.72-4-9.2-6.08-19.44-8.93-30.38-7.34-25.29,3.76-42.65,24.07-42,49.6a263.92,263.92,0,0,0,3.64,39.48C44.34,239.42,89.41,302,163.43,343.6c31.95,18,66.59,27.78,103.09,30.9,10.59.91,21.24,2.07,31.83-.53,30.85-7.56,46.08-43,29.86-69.52-1.13-1.86-2.21-3.22-4.83-3.2-23.57.12-47.13,0-70.68.18-1.49,0-3.74,1.22-4.29,2.47-2.45,5.49-5.06,11-6.37,16.86-2.13,9.38-8.15,13.67-17.32,10.74Q107.06,294,69.5,176.61c-3-9.42,1.18-15.31,10.91-17.45,5.6-1.23,10.91-3.85,16.26-5.95,2.3-.91,3.13-2.62,3.09-5.25C99.6,136.45,99.69,124.93,99.69,113.43Z" fill="#162143"/><path d="M401.32,108.55c0,58.88-48,107-106.75,107A107.22,107.22,0,0,1,187,108.64v-.45c0-58.7,48.22-106.59,107.15-106.59A107.08,107.08,0,0,1,401.32,108.55Zm-190.47,0c-.1,45.27,37.2,83,82.14,83.16,47.29.14,84.39-36.62,84.52-83.74.08-44.86-37.44-82.43-82.7-82.56a83.33,83.33,0,0,0-84,82.68v.49Z" fill="#162143"/><path d="M99.69,113.43c0,11.5-.09,23,.08,34.53,0,2.63-.79,4.34-3.09,5.25-5.38,2.1-10.66,4.72-16.26,5.95-9.74,2.14-13.89,8-10.91,17.45Q107,294.08,224.73,331.44c9.17,2.93,15.19-1.36,17.32-10.73,1.31-5.81,3.92-11.36,6.37-16.87.55-1.25,2.8-2.46,4.29-2.47,23.55-.16,47.11-.06,70.68-.18,2.62,0,3.7,1.34,4.83,3.2,16.22,26.56,1,62-29.86,69.52-10.59,2.6-21.24,1.44-31.83.53-36.5-3.11-71.14-12.94-103.09-30.9-74-41.6-119-104.16-134.24-187.73a263.92,263.92,0,0,1-3.64-39.48c-.71-25.44,16.72-45.78,42-49.54,10.92-1.63,21.18,1.26,30.38,7.34a5.69,5.69,0,0,1,1.72,4C99.75,89.89,99.69,101.67,99.69,113.43Z" fill="#f27366"/><path d="M210.83,108.58a83.32,83.32,0,0,1,83.49-83.17h.49c45.26.17,82.81,37.7,82.68,82.63-.13,47.12-37.23,83.88-84.52,83.74C248,191.61,210.73,153.85,210.83,108.58Zm71.42-11.9H247.46c-7.55,0-12.89,5-12.82,11.9s5.36,11.77,12.65,11.79q23.06.07,46.12,0c7.65,0,12.61-5,12.63-12.53q.09-29,0-57.92c0-7.47-5.16-12.82-12.07-12.72s-11.7,5.36-11.72,12.69V96.68Z" fill="#e4e5e6"/><path d="M282.26,96.69V50c0-7.33,5-12.6,11.72-12.69S306,42.52,306.05,50q.06,29,0,57.92c0,7.61-5,12.51-12.63,12.53q-23.06.07-46.12,0c-7.29,0-12.6-5-12.65-11.79,0-6.94,5.27-11.9,12.82-11.9C258.87,96.66,270.27,96.69,282.26,96.69Z" fill="#162143"/></g></g></svg>