<svg id="Layer_1" data-name="Layer 1" xmlns="http://www.w3.org/2000/svg" viewBox="0 0 512 512"><path d="M255.94,463.93H77c-35.75,0-60.92-25.25-60.93-61.06q0-114.94,0-229.88c0-35.72,25.26-60.88,61.09-60.89,20.49,0,41-.09,61.47.09,3.39,0,5-.87,6-4.22,2.17-7.33,4.65-14.58,7.31-21.75a57.67,57.67,0,0,1,54.1-38q50-.25,99.95,0c24.43.13,45.5,15.12,54,38.12,2.55,6.85,4.92,13.79,7,20.81,1.09,3.77,2.71,5.16,6.89,5.1,20.65-.27,41.31-.14,62-.11,34.47,0,60,25.49,60,60q.06,115.93,0,231.88c0,34.44-25.55,59.94-60,60Q345.9,464,255.94,463.93Zm-.22-32H434.59c18.46,0,29.29-10.72,29.3-29q0-114.92,0-229.82c0-18.31-10.82-29-29.29-29q-37.71,0-75.44,0c-9.45,0-14.47-3.58-17.53-12.53-3.65-10.7-7.13-21.46-10.77-32.16-4.27-12.57-13.48-19.24-26.65-19.26q-48.21-.06-96.42,0c-13.19,0-22.4,6.68-26.66,19.24-3.58,10.55-7,21.15-10.57,31.7-3.22,9.5-8.14,13-18.21,13q-37.47,0-74.94,0c-18.69,0-29.31,10.69-29.31,29.49q0,114.41,0,228.82c0,19,10.61,29.54,29.76,29.54Z" fill="#162143"/><path d="M255.72,432H77.86c-19.15,0-29.76-10.53-29.76-29.54q0-114.42,0-228.82c0-18.8,10.62-29.48,29.31-29.49q37.47,0,74.94,0c10.07,0,15-3.51,18.21-13,3.57-10.55,7-21.15,10.57-31.7,4.26-12.56,13.47-19.23,26.66-19.24q48.21-.06,96.42,0c13.17,0,22.38,6.69,26.65,19.26,3.64,10.7,7.12,21.46,10.77,32.16,3.06,8.95,8.08,12.51,17.53,12.53q37.72,0,75.44,0c18.47,0,29.28,10.71,29.29,29q0,114.91,0,229.82c0,18.29-10.84,29-29.3,29ZM136.05,280.08A120,120,0,0,0,255.79,400c66.09.08,120-53.58,120.14-119.49A120.11,120.11,0,0,0,255.66,160.08C189.78,160.06,136,214,136.05,280.08Zm279.76-104a16,16,0,1,0,16.08,15.76A16,16,0,0,0,415.81,176.08Z" fill="#e4e5e6"/><path d="M136.05,280.08c0-66.08,53.73-120,119.61-120A120.11,120.11,0,0,1,375.93,280.47C375.84,346.38,321.88,400,255.79,400A120,120,0,0,1,136.05,280.08Zm207.89.06c-.08-48.49-39.4-88.08-87.45-88.06a88,88,0,0,0-88.44,88.55c.08,48.08,39.69,87.31,88.18,87.34C304.35,368,344,328.27,343.94,280.14Z" fill="#2ba5dd"/><path d="M415.81,176.08A16,16,0,1,1,399.94,192,16.11,16.11,0,0,1,415.81,176.08Z" fill="#162143"/><path d="M343.94,280.14C344,328.27,304.35,368,256.23,368c-48.49,0-88.1-39.26-88.18-87.34a88,88,0,0,1,88.44-88.55C304.54,192.06,343.86,231.65,343.94,280.14Z" fill="#f27366"/></svg>