<svg id="Layer_1" data-name="Layer 1" xmlns="http://www.w3.org/2000/svg" viewBox="0 0 512 512"><path d="M23,186C25.82,168.6,38.47,158.35,50.8,148c37.51-31.37,80.81-50.75,128.29-61.29A350.09,350.09,0,0,1,283,79.5c65.47,5.17,125.28,25.44,176.75,67.39,5.87,4.78,11.3,10.1,16.84,15.26C483.55,168.61,486.89,177,489,186v10.92c-2.27,12.93-10.13,22.24-19.29,31-12,11.52-23.7,23.47-35.39,35.36-2,2.06-3.57,2.34-6.21,1.08q-44.49-21.19-89.1-42.08a8,8,0,0,1-5.12-6.61c-2.36-13.11-5.25-26.13-7.71-39.22-.55-2.94-1.76-4.31-4.64-5.17-26.91-8.07-54.46-9.91-82.31-8.49-17.44.89-34.66,3.27-51.42,8.49-3.06,1-4.22,2.46-4.79,5.55-2.49,13.4-5.22,26.75-8.08,40.07a7,7,0,0,1-3.09,4.41c-30.26,14.94-60.6,29.72-91.19,44.66-1.2-1.14-2.42-2.26-3.58-3.42-11.58-11.57-23-23.36-34.8-34.67-9.15-8.73-17-18-19.28-31Zm233-80.49a318.56,318.56,0,0,0-85.84,11.35c-43.24,11.93-82,32-114.4,63.52-7.36,7.17-7.39,14.87-.12,22.18,9.2,9.25,18.51,18.39,27.61,27.74,2.07,2.12,3.69,2.29,6.25,1,18.86-9.35,37.74-18.67,56.75-27.72,3.19-1.52,4.39-3.58,5-6.75,2.64-13.68,5.35-27.36,8.26-41a6.52,6.52,0,0,1,3.29-4.16c7.88-3.07,15.78-6.28,23.94-8.48,30.79-8.32,62.21-9.79,93.84-7.19,22.44,1.85,44.42,6,65.19,15.23a6.24,6.24,0,0,1,4.2,5.17c2.51,13.56,5.33,27,8,40.57.51,2.56,1.1,4.62,4,5.95,20.21,9.33,40.32,18.87,60.41,28.47,2.59,1.24,4.21,1,6.26-1.07,9.21-9.45,18.63-18.69,27.91-28.07,7-7.08,7.22-15.27-.44-21.77-12.22-10.38-24.32-21.18-37.74-29.83C369.08,118.82,314.21,106,256,105.47Z" fill="#122230"/><path d="M255.88,433.61a95.61,95.61,0,1,1,.46-191.21c52.62.14,95.32,43.12,95.24,95.84A95.68,95.68,0,0,1,255.88,433.61ZM256,269.72A68.29,68.29,0,1,0,324.26,338,68.36,68.36,0,0,0,256,269.72Z" fill="#122230"/><path d="M256,105.47c58.17.48,113,13.35,162.37,45.18,13.42,8.65,25.52,19.45,37.74,29.83,7.66,6.5,7.43,14.69.44,21.77-9.28,9.38-18.7,18.62-27.91,28.07-2.05,2.11-3.67,2.31-6.26,1.07-20.09-9.6-40.2-19.14-60.41-28.47-2.88-1.33-3.47-3.39-4-5.95-2.69-13.52-5.51-27-8-40.57a6.24,6.24,0,0,0-4.2-5.17C325,142,303.06,137.85,280.62,136c-31.63-2.6-63.05-1.13-93.84,7.19-8.16,2.2-16.06,5.41-23.94,8.48a6.52,6.52,0,0,0-3.29,4.16c-2.91,13.62-5.62,27.3-8.26,41-.61,3.17-1.81,5.23-5,6.75-19,9.05-37.89,18.37-56.75,27.72-2.56,1.27-4.18,1.1-6.25-1-9.1-9.35-18.41-18.49-27.61-27.74-7.27-7.31-7.24-15,.12-22.18,32.39-31.52,71.16-51.59,114.4-63.52A318.56,318.56,0,0,1,256,105.47Z" fill="#fff"/><path d="M256,269.72A68.29,68.29,0,1,1,187.74,338,68.36,68.36,0,0,1,256,269.72Zm-37.23,51.9,18.57,16.64-17.82,16.61,20,20.11,17.25-17.82L273,374.11l19.61-19.7L274.7,337.63l18-16.71L273,301.14l-17.6,18.41-16.6-17.83Z" fill="#f27366"/><path d="M218.8,321.62l20-19.9,16.6,17.83L273,301.14l19.77,19.78-18,16.71,17.94,16.78L273,374.11l-16.18-16.95L239.6,375l-20-20.11,17.82-16.61Z" fill="#122230"/></svg>