<svg id="Layer_1" data-name="Layer 1" xmlns="http://www.w3.org/2000/svg" viewBox="0 0 280.1 280.7"><g id="Layer_2" data-name="Layer 2"><g id="Layer_1-2" data-name="Layer 1-2"><path d="M276.46,146.3a476.37,476.37,0,0,0,0-55c-1-17.34-1.81-26.13-4.53-35.14C263.44,28,244.22,11.67,215.81,6.07c-9.68-1.9-16.6-2.31-27.31-2.45-70.28-.91-75.86-1.08-92-.12C88.33,4,77.08,4.81,63.59,6.17c-7.5,1.23-24.17,5.11-38.21,19A70.88,70.88,0,0,0,8.36,53,102,102,0,0,0,3,85.75c-.16,23.72-.34,47.4.08,71.15a172.16,172.16,0,0,0,3,29.09c5.08,26.51,20.21,43.87,47.09,50,13,2.94,26.13,3.51,39.35,3.32a6.3,6.3,0,0,1,5.87,2.86c5.68,7.83,11.55,15.46,17.33,23.21,12.34,16.59,35.42,16.6,47.93,0,6-7.89,11.93-15.79,18.11-23.51a7.51,7.51,0,0,1,4.76-2.39c8.38-.77,16.86-.69,25.18-1.89,20.45-2.94,40.17-17.78,43.23-21,13.06-13.33,17.18-28.95,18.62-36.93C274.49,171.59,275.68,160.11,276.46,146.3Zm-23.59,5.46a129.77,129.77,0,0,1-2.57,24c-4.62,22.13-18.9,34.68-40.85,38.41a131.68,131.68,0,0,1-22.61,1.62c-10.48,0-18.62,3.64-24.7,12.35-5.44,7.83-11.34,15.31-17,22.94-3.17,4.22-7.76,4.19-10.94-.06-5.88-7.83-11.75-15.6-17.53-23.51s-13.51-11.37-23.25-11.66c-10.85-.3-21.82-.42-32.46-2.27C41.75,210.24,32.18,200.11,28.76,181a131.23,131.23,0,0,1-2.19-21.84q-.42-36.68,0-73.34A91,91,0,0,1,29,66.22c5.11-21.87,19.66-33.87,41.42-37.5a135.37,135.37,0,0,1,20.4-1.67c16.5-.22,33-.07,49.49-.07V27c17.73,0,35.45-.23,53.16.12a101.16,101.16,0,0,1,20.95,2.59c20.46,4.81,32.43,18.18,36.32,38.59a128.09,128.09,0,0,1,2.12,22.19C253.17,110.93,253.22,131.35,252.87,151.76Z" fill="#8b50ff"/><path d="M248.82,92.32a123.88,123.88,0,0,0-2-21.4c-3.75-19.67-15.29-32.56-35-37.2a98.57,98.57,0,0,0-20.25-2.49c-17.08-.34-34.16-.11-51.24-.11v-.05c-15.91,0-31.81-.15-47.71.07A130.24,130.24,0,0,0,73,32.74C52,36.25,38,47.85,33.07,68.93A89,89,0,0,0,30.7,87.82q-.4,35.34,0,70.69a127.18,127.18,0,0,0,2.12,21.05c3.3,18.43,12.52,28.2,31,31.41,10.26,1.78,20.83,1.89,31.29,2.19,9.39.27,16.84,3.6,22.41,11.24s11.27,15.11,16.9,22.66c3.06,4.1,7.49,4.13,10.54.06,5.5-7.36,11.19-14.58,16.43-22.12,5.86-8.39,13.7-11.93,23.81-11.9A127.11,127.11,0,0,0,207,211.53c21.17-3.59,34.94-15.69,39.38-37a123.44,123.44,0,0,0,2.43-23.16C249.14,131.67,249.09,112,248.82,92.32ZM91.21,143.18a14.46,14.46,0,1,1,.2,0Zm48.46,0a15,15,0,1,1,15.11-15,15,15,0,0,1-15.11,15h0Zm48.23,0a15,15,0,1,1,15.11-15,15,15,0,0,1-15.11,15Z" fill="#fff"/><path d="M139.68,143.19a15,15,0,1,1,15.11-15,15,15,0,0,1-15.11,15Z" fill="#8b50ff"/><path d="M187.91,113.19a15,15,0,1,1-15.11,15A15,15,0,0,1,187.91,113.19Z" fill="#8b50ff"/><path d="M76.46,127.92a15,15,0,1,1,14.76,15.26h0a14.89,14.89,0,0,1-14.76-15C76.45,128.08,76.46,128,76.46,127.92Z" fill="#8b50ff"/></g></g></svg>