<svg id="Layer_1" data-name="Layer 1" xmlns="http://www.w3.org/2000/svg" viewBox="0 0 512 447.5"><g id="Layer_2" data-name="Layer 2"><g id="Layer_1-2" data-name="Layer 1-2"><path d="M3.85,424.55a18,18,0,0,1,1.87-8c11.44-23.11,23.12-46.11,34.16-69.37,18.71-39.4,26.81-81.06,28.18-124.68,3-94.22,48-161.92,133.59-200.93C279.4-13.89,375.78,3.84,437.92,62.65q56,53,67.87,129l.15,1a204.29,204.29,0,0,1,2.21,30.36v.9a215.93,215.93,0,0,1-1.85,27.72v.13c-6.57,50.61-28,94-64.49,129.51C398.24,423.54,345.55,444,284.85,444c-85.48,0-171-.13-256.42.14-10.17,0-17.64-2.88-22.19-10.61a17.76,17.76,0,0,1-2.39-9Zm51.46-20h4.33c76.16,0,152.32.1,228.51-.13A183,183,0,0,0,319,401.67c104.14-18.14,170.47-121.06,144-223.26A180.24,180.24,0,0,0,303.05,43.94c-53.82-4.42-100.79,12.27-139.86,49.41-37.54,35.73-55.54,80.16-56.25,132a403.3,403.3,0,0,1-4.41,52.4c-5.2,35.7-18.17,68.94-34.22,101.09C64.18,387.2,59.92,395.47,55.31,404.57Z" fill="#a3a3a3"/><path d="M287.52,204.27c-25.75,0-51.49.09-77.24,0-15.46-.08-25.25-14.23-19.21-27.58,3.15-7,8.66-10.94,16.38-11.58,2-.17,3.94-.16,5.91-.16H362.43a40.73,40.73,0,0,1,9.29.68c9,2.16,14.93,10.62,14.48,20.25a19.2,19.2,0,0,1-16,18,43,43,0,0,1-6.9.47Q325.39,204.33,287.52,204.27Z" fill="#a3a3a3"/><path d="M248.45,243.83c13.6,0,27.21-.25,40.8.08,8.87.21,16.3,7.1,17.87,15.58,1.65,8.93-2.72,18-10.9,21.56a25.14,25.14,0,0,1-9.52,2q-38.34.21-76.7,0c-12,0-20.77-8.63-20.73-19.7s8.67-19.44,20.82-19.57c12.81-.15,25.61,0,38.36,0Z" fill="#a3a3a3"/></g></g></svg>