<svg id="Layer_1" data-name="Layer 1" xmlns="http://www.w3.org/2000/svg" viewBox="0 0 351.5 351.5"><g id="Layer_2" data-name="Layer 2"><g id="Layer_1-2" data-name="Layer 1-2"><path d="M9.5,175.6c.3-92,75-166.4,166.8-166.1,91.3.3,166.2,75.4,165.8,166.4-.4,92.7-75.2,166.6-168.2,166.1C83.5,341.6,9.2,266.3,9.5,175.6Zm166.2-21.3-25.1-25.1c-5.9-5.9-11.8-11.9-17.8-17.7a15,15,0,0,0-25.4,7.6c-1.2,5.7.8,10.4,4.8,14.4l39.3,39.3c.9.9,1.7,1.9,2.8,3-4.1,4.1-8,7.9-11.9,11.9-10.1,10.1-20.3,20.1-30.3,30.3-8.2,8.4-5.2,21.8,5.7,25.2,6.2,2,11.6.3,16.2-4.3q19.5-19.65,39.1-39.1c.9-.9,1.8-1.7,2.8-2.7l25.8,25.8c5.7,5.7,11.3,11.4,17,17a15,15,0,0,0,25.4-7.6c1.2-5.8-.9-10.6-5-14.7q-19.65-19.5-39.1-39c-.9-.9-1.7-1.8-2.7-2.9,1.1-1.1,1.9-2.1,2.8-3l39.1-39.1c4-4,6.1-8.7,5-14.4a14.32,14.32,0,0,0-10.3-11.5c-6-1.9-11.2-.3-15.6,4q-19.8,19.65-39.5,39.5c-.9,1.1-1.9,1.9-3.1,3.1Z" fill="#f27366"/><path d="M175.7,154.3c1.2-1.2,2.2-2,3.1-2.9q19.8-19.8,39.6-39.5c4.4-4.4,9.6-5.9,15.6-4a14.32,14.32,0,0,1,10.3,11.5c1.1,5.7-.9,10.4-5,14.4-13,13-26.1,26-39.1,39.1-.9.9-1.8,1.8-2.8,3a38.4,38.4,0,0,0,2.7,2.9q19.5,19.5,39.1,39c4.1,4.1,6.3,8.9,5,14.7a15,15,0,0,1-25.4,7.6c-5.8-5.6-11.4-11.4-17-17L176,197.3a36.93,36.93,0,0,0-2.8,2.7c-13,13-26.1,26-39.1,39.1-4.6,4.6-10,6.3-16.2,4.3-10.9-3.5-13.9-16.8-5.7-25.2,10-10.2,20.2-20.2,30.3-30.3L154.4,176c-1.1-1.2-1.9-2.1-2.8-3l-39.3-39.3c-4-4-6-8.8-4.8-14.4a15,15,0,0,1,25.4-7.6c6,5.8,11.9,11.8,17.8,17.7Z" fill="#fff"/></g></g></svg>