<svg id="Layer_1" data-name="Layer 1" xmlns="http://www.w3.org/2000/svg" viewBox="0 0 512 512"><path d="M416.23,87.74V213.49a31.18,31.18,0,0,0-8.42-1.58c-28.82-36.6-67.2-14.22-100.49,26.92,16.87,5.1,14.09,31.11,15,47.53l-.06,0c-7.09,3-5.76,17.87-4.66,23.07.92,4.36,2.85,8.19,6.36,10.18A10.33,10.33,0,0,0,329,321h.75c1.11,12.15,6,18.52,12.35,24.4,1.12,5.94-1.67,10.87-6.26,14.91-8.36,7.32-22.7,11.69-30.56,13.74-8.28,2.17-16,3.73-22.94,6.33H173c-20,14.35-40.3,30.22-60.33,44.57-3.55-15.31-7.1-38.95-10.65-54.25-24.51,6-38.3,1.71-49.41,0-16.14-2.49-28.49,4.39-33.07-.14A38.34,38.34,0,0,1,8,343.11V87.74C8,66.35,25.56,49,47.23,49H377C398.67,49,416.23,66.35,416.23,87.74Z" fill="#fff"/><path d="M504,432.14a3.72,3.72,0,0,1-3.72,3.72H255.41a3.72,3.72,0,0,1-3.72-3.72,12.49,12.49,0,0,1,.41-3.15c4.08-32.41,15.19-43,30.23-48.67,6.91-2.6,14.66-4.16,22.94-6.33,7.86-2.05,22.2-6.42,30.56-13.74,4.59-4,7.38-9,6.26-14.91-6.35-5.88-11.24-12.25-12.35-24.4H329a10.33,10.33,0,0,1-5.06-1.32c-3.51-2-5.44-5.82-6.36-10.18-1.1-5.2-2.43-20.1,4.66-23.07l.06,0c-.88-16.42,1.9-42.43-15-47.53,33.29-41.14,71.67-63.52,100.49-26.92a31.18,31.18,0,0,1,8.42,1.58c26,8.65,36.16,49.78,18.07,72.89h-.84c7.09,3,5.75,17.87,4.66,23.07-.93,4.36-2.85,8.19-6.36,10.18A10.33,10.33,0,0,1,426.7,321H426c-1.11,12.15-6,18.52-12.35,24.4-1.12,5.94,1.67,10.87,6.26,14.91,8.35,7.32,22.69,11.69,30.56,13.74,26.3,6.88,47.21,7.7,53.17,55A13,13,0,0,1,504,432.14Z" fill="#121d3f"/><path d="M261.69,250a14.79,14.79,0,0,1-14.8,14.79H109.54a14.79,14.79,0,1,1,0-29.57H246.89A14.79,14.79,0,0,1,261.69,250Z" fill="#2ba5dd"/><path d="M416.23,80.06v91.26a71.32,71.32,0,0,0-29.58-12.42V80.06a6.46,6.46,0,0,0-6.3-6.31H43.88a6.55,6.55,0,0,0-6.29,6.31V345.58A6.33,6.33,0,0,0,39.47,350a6.26,6.26,0,0,0,4.41,1.87H102.5a14.79,14.79,0,0,1,14.79,14.79v51.75l65-62.37a14.68,14.68,0,0,1,10.22-4.12l64.35,0c-11.61,5.72-21.4,14.31-28.64,29.56H198.44L113.5,462.94A14.8,14.8,0,0,1,87.71,453V381.47H43.88A36.06,36.06,0,0,1,8,345.58V80.06A36.2,36.2,0,0,1,43.88,44.17H380.35a36.07,36.07,0,0,1,35.88,35.89Z" fill="#121d3f"/><path d="M325.94,162.41a14.79,14.79,0,0,1-14.79,14.8H109.53a14.8,14.8,0,0,1,0-29.59H311.15A14.79,14.79,0,0,1,325.94,162.41Z" fill="#f27366"/></svg>