<svg id="Layer_1" data-name="Layer 1" xmlns="http://www.w3.org/2000/svg" viewBox="0 0 512 512"><path d="M494,244.5a133.5,133.5,0,0,1-2.3,24.4c-.4,2.4-.9,4.8-1.5,7.3A136.2,136.2,0,0,1,367.6,381c-5.1.4-10.3.6-15.5.6H162.9a24.7,24.7,0,0,0-9.3,2.1Q88.2,413.9,23.1,444.3l-4.8,2c-.1-2-.3-3.5-.3-5.1V204.1C18.1,137.9,61.8,83.2,126.5,69c10.3-2.3,21.2-3,31.8-3.1,72.7-.2,122.8.2,195.5-.2a140.3,140.3,0,0,1,69.8,17.5c45.6,25.3,61.9,72.4,63.8,78l.7,2.1a128.3,128.3,0,0,1,5.9,38.9ZM48.4,398.6l5.6-2.3q46.4-21.6,92.8-43a24.3,24.3,0,0,1,10-2.2h196a171.5,171.5,0,0,0,20.3-1.3c43.9-5.7,82.8-42.6,88.3-86.5,2.9-23,2.6-46.7,1.3-69.9-3-52.8-49.2-96.4-102.1-96.7-76.9-.5-131.3-.3-208.2-.1a98.3,98.3,0,0,0-58.2,19C64,137.2,48.7,166.9,48.5,204c-.2,63.3-.1,126.6-.1,189.8Z" fill="#162143"/><path d="M48.4,398.6v-4.8c0-63.2-.2-126.5.1-189.8.2-37.1,15.5-66.8,45.6-88.5,17.4-12.4,36.9-19,58.3-19,76.9-.2,131.2-.4,208.2.1,52.8.3,99.1,43.9,102.1,96.7,1.3,23.2,1.6,46.9-1.3,69.9-5.5,43.9-44.4,80.8-88.3,86.5a172.9,172.9,0,0,1-20.3,1.3h-196a25.3,25.3,0,0,0-10.2,2.3c-31,14.2-61.8,28.6-92.7,42.9Z" fill="#fff"/><path d="M153.7,258.3a28.9,28.9,0,1,1,28.9-29.2A29,29,0,0,1,153.7,258.3Z" fill="#f27366"/><path d="M358.2,258.3a28.9,28.9,0,1,1,.2-57.8,28.9,28.9,0,1,1-.2,57.8Z" fill="#f27366"/><path d="M256.1,258.3A28.9,28.9,0,1,1,285,229.1,29,29,0,0,1,256.1,258.3Z" fill="#2ba5dd"/></svg>