<svg id="Layer_1" data-name="Layer 1" xmlns="http://www.w3.org/2000/svg" viewBox="0 0 512 512"><path d="M367.89,295.06a125.91,125.91,0,0,1-60.55-2.32,6.1,6.1,0,0,0-6.19,1.15c-9,7.24-18.09,14.37-27.15,21.54-.78.62-1.52,1.29-2.31,1.9-3.26,2.51-6.78,3.83-10.69,1.73s-5.26-5.87-4.79-10.15c1.16-10.77,2.21-21.57,3.79-32.29.76-5.18-.07-8.62-4.37-12.41-50.53-44.63-58-121.65-17.47-175.35,2.7-3.57,5.7-5,9.93-3.13,3.76,4.49,3.83,6.31.15,11.25-13.3,17.78-21.26,37.75-22.8,59.84-2.9,41.73,11.83,76.17,44.41,102.65,3.39,2.76,4.5,5.71,3.92,10-1.42,10.38-2.44,20.83-3.61,31.2,1.61.39,2.19-.63,2.92-1.2,7.56-5.83,15.23-11.53,22.56-17.65,3.93-3.27,7.59-3.95,12.5-2.33A107.45,107.45,0,0,0,352,284.18a62,62,0,0,0,11.43-1.4c53.15-9.2,94.2-56,96.45-109.89,2.23-53.4-30.48-100.77-81.29-117.49-14.5-4.76-29.37-6.89-44.64-5.21-23.2,1.15-43.76,9.39-62.27,23.16-5.06,3.76-6.68,3.77-11.27.12-2.06-4.37-.51-7.45,3.17-10.21a128.75,128.75,0,0,1,64.46-25.67c.66-.07,1.44.1,1.7-.83h24.85c5.77,1.14,11.55,2.15,17.29,3.43,53.79,11.92,95.47,59.48,100.26,114.32C478.06,222.17,434.38,281.18,367.89,295.06Z" fill="#122230"/><path d="M319.31,434.84a52.86,52.86,0,0,1-20.28,16,91.33,91.33,0,0,1-44.54,11.67c-30.48.22-58-9.53-82.59-27.16C143.67,415.09,121.69,389,103,360.05c-2.54-3.94-5.35-6.1-10-5.31-3.7-3.36-5.59-7.79-7.37-12.3,3.25-3.34,3.14-6.76,1-10.83-15.9-30.23-27.18-62-32.29-96C50.4,209.8,51.65,184.5,61.62,160c10.91-26.82,29.06-46.39,56.44-56.8a51.87,51.87,0,0,1,20.28-4.57c9.91-.28,17.24,4.12,21.72,13.1,4,8,5.79,16.64,7.22,25.37,1.95,11.94,4.5,23.77,5,35.95.55,14.68-6.63,24.17-19.48,29.63-7,3-11,7.94-13.2,14.7-4.3,13.14-3.81,26.58-.77,39.73,8.81,38,26.69,70.76,57.1,95.92,7.17,5.93,15.18,10.62,24.38,12.88a23.48,23.48,0,0,0,17-1.91c12.6-6.44,25-6.29,36.57,2.59,15.91,12.21,29.92,26.4,42.89,41.64a31.62,31.62,0,0,1,4.78,8.07C324.31,422.91,323.66,429.14,319.31,434.84Z" fill="#2ba5dd"/><path d="M459.91,172.89c-2.25,53.92-43.3,100.69-96.45,109.89a62,62,0,0,1-11.43,1.4,107.45,107.45,0,0,1-43.89-4.67c-4.91-1.62-8.57-.94-12.5,2.33-7.33,6.12-15,11.82-22.56,17.65-.73.57-1.31,1.59-2.92,1.2,1.17-10.37,2.19-20.82,3.61-31.2.58-4.31-.53-7.26-3.92-10-32.58-26.48-47.31-60.92-44.41-102.65,1.54-22.09,9.5-42.06,22.8-59.84,3.68-4.94,3.61-6.76-.15-11.25a79.54,79.54,0,0,0,12.35-12.26c4.59,3.65,6.21,3.64,11.27-.12,18.51-13.77,39.07-22,62.27-23.16,15.27-1.68,30.14.45,44.64,5.21C429.43,72.12,462.14,119.49,459.91,172.89Z" fill="#fff"/><path d="M335,432.17c-2,7.24-6.56,12.93-12,17.84-16.29,14.63-35.87,22.18-57.24,24.44-40.57,4.27-76.08-9.07-107.8-33.56-27-20.82-48.35-46.7-66.65-75.25-2.72-4.24-2.33-6.29,1.73-10.9,4.7-.79,7.51,1.37,10,5.31,18.69,29,40.67,55,68.9,75.25,24.63,17.63,52.11,27.38,82.59,27.16A91.33,91.33,0,0,0,299,450.79a52.86,52.86,0,0,0,20.28-16c4.35-5.7,5-11.93,2.16-18.55a31.62,31.62,0,0,0-4.78-8.07c-13-15.24-27-29.43-42.89-41.64-11.56-8.88-24-9-36.57-2.59a23.48,23.48,0,0,1-17,1.91c-9.2-2.26-17.21-6.95-24.38-12.88-30.41-25.16-48.29-57.95-57.1-95.92-3-13.15-3.53-26.59.77-39.73,2.22-6.76,6.24-11.75,13.2-14.7,12.85-5.46,20-14.95,19.48-29.63-.46-12.18-3-24-5-35.95-1.43-8.73-3.23-17.36-7.22-25.37-4.48-9-11.81-13.38-21.72-13.1a51.87,51.87,0,0,0-20.28,4.57c-27.38,10.41-45.53,30-56.44,56.8-10,24.51-11.22,49.81-7.33,75.67,5.11,33.91,16.39,65.72,32.29,96,2.14,4.07,2.25,7.49-1,10.83-6.22,1.21-7.55.56-10.52-5.05a318,318,0,0,1-32.81-95.28C36,205.77,38.9,170.7,58,138.26,73.78,111.37,96.87,93.88,127.46,87c23.24-5.21,39.87,4.07,47.32,26.78,6.15,18.74,9,38.25,10.2,57.94,1.25,20.29-8.66,34-26.39,42.4a12.64,12.64,0,0,0-7.43,9.12,67.41,67.41,0,0,0,.48,32.65c8.36,33.72,24.18,63.18,51,86,6,5.1,12.63,9.29,20.36,11.4a11.18,11.18,0,0,0,8.2-.82c17.59-8.42,34.77-8.37,50.67,4a272.66,272.66,0,0,1,44.95,43.85C334.23,409.51,338.37,420,335,432.17Z" fill="#122230"/><path d="M414.79,114.76a19.35,19.35,0,0,0-13.74-5.68H401a19.41,19.41,0,0,0-13.78,5.77L323,179.68,293.5,150.16a19.53,19.53,0,0,0-27.62,27.63l43.36,43.37a19.54,19.54,0,0,0,27.63,0c16.92-16.92,34-34.26,50.54-51q13.74-13.94,27.46-27.81a19.49,19.49,0,0,0-.08-27.57ZM323.06,215a7.64,7.64,0,0,1-5.44-2.25l-43.38-43.37a7.7,7.7,0,0,1,10.89-10.89l37.93,37.94L340.34,179l55.28-55.82a7.63,7.63,0,0,1,5.41-2.27h0A7.67,7.67,0,0,1,406.47,134Q392.72,147.88,379,161.83c-12.66,12.83-25.65,26-38.64,39.07q-5.93,6-11.84,11.89A7.66,7.66,0,0,1,323.06,215Z" fill="#122230" fill-rule="evenodd"/><path d="M408.7,128.56a7.61,7.61,0,0,1-2.23,5.43Q392.72,147.88,379,161.83c-12.66,12.83-25.65,26-38.64,39.07q-5.93,6-11.84,11.89a7.7,7.7,0,0,1-10.88,0l-43.38-43.37a7.7,7.7,0,0,1,10.89-10.89l37.93,37.94L340.34,179l55.28-55.82a7.63,7.63,0,0,1,5.41-2.27h0a7.66,7.66,0,0,1,7.65,7.64Z" fill="#f27366" fill-rule="evenodd"/></svg>