<svg id="Layer_1" data-name="Layer 1" xmlns="http://www.w3.org/2000/svg" viewBox="0 0 161 171.37"><g id="Layer_2" data-name="Layer 2"><g id="Layer_1-2" data-name="Layer 1-2"><path d="M80.56,3.65h-.5a47.71,47.71,0,1,0,.5,0Zm31.88,48.16a31.95,31.95,0,1,1-31.6-32.29h0A31.66,31.66,0,0,1,112.44,51.3Z" fill="#162143"/><path d="M112.91,51.3v.52A32.42,32.42,0,1,1,80.84,19.05h0A32.13,32.13,0,0,1,112.91,51.3Z" fill="#f27366"/></g></g><path d="M151.63,165.72h0a5.34,5.34,0,0,1-4.81-3c-11.69-24.08-37-40.78-66.33-40.78s-54.62,16.7-66.31,40.78a5.34,5.34,0,0,1-4.81,3h0A5.38,5.38,0,0,1,4.55,158C18,130.35,47,111.19,80.49,111.19s62.52,19.16,76,46.79A5.38,5.38,0,0,1,151.63,165.72Z" fill="#162143" stroke="#162143" stroke-miterlimit="10" stroke-width="6"/></svg>