<svg xmlns="http://www.w3.org/2000/svg" width="16.468" height="19.797" viewBox="0 0 16.468 19.797">
  <g id="Group_484" data-name="Group 484" transform="translate(560.879 65.388)">
    <path id="Path_470" data-name="Path 470" d="M-540.41-45.591h-11.331a.386.386,0,0,0-.083-.038,2.427,2.427,0,0,1-1.663-1.148,4.654,4.654,0,0,1-.343-2.478h.234c.406,0,.812.006,1.218-.008a1.352,1.352,0,0,0,1.251-1.052,1.375,1.375,0,0,0-.656-1.484,1.474,1.474,0,0,0-.76-.181c-.423,0-.846,0-1.271,0v-2.156c.5,0,.981.013,1.462,0a1.36,1.36,0,0,0,1.259-1.346,1.364,1.364,0,0,0-1.266-1.36c-.418-.016-.838-.007-1.257-.008h-.2V-59h.218c.4,0,.8.006,1.2-.005a1.357,1.357,0,0,0,1.273-1.052,1.376,1.376,0,0,0-.67-1.5,1.5,1.5,0,0,0-.762-.172c-.417,0-.834,0-1.268,0,0-.453,0-.883,0-1.313a2.418,2.418,0,0,1,2.355-2.347q5.4-.01,10.808.007a2.3,2.3,0,0,1,.929.212,2.374,2.374,0,0,1,1.444,2.312q.007,6.534,0,13.068c0,.58.014,1.16,0,1.74a2.4,2.4,0,0,1-1.445,2.238A5,5,0,0,1-540.41-45.591Zm-1.545-5.8c0-.37,0-.723,0-1.076a2.6,2.6,0,0,0-2.554-2.555c-.734-.007-1.469-.012-2.2,0a2.542,2.542,0,0,0-1.849.83,3.46,3.46,0,0,0-.688,2.8Zm-3.656-4.43a2.331,2.331,0,0,0,2.346-2.336,2.346,2.346,0,0,0-2.337-2.353,2.357,2.357,0,0,0-2.35,2.344A2.341,2.341,0,0,0-545.611-55.825Z" transform="translate(-6.129)" fill="#fff"/>
    <path id="Path_471" data-name="Path 471" d="M-511.425,17.881h-7.294a3.46,3.46,0,0,1,.688-2.8,2.542,2.542,0,0,1,1.849-.83c.734-.014,1.469-.009,2.2,0a2.6,2.6,0,0,1,2.554,2.555C-511.421,17.158-511.425,17.511-511.425,17.881Z" transform="translate(-36.66 -69.276)" fill="#f27366"/>
    <path id="Path_472" data-name="Path 472" d="M-506.263-23.219a2.341,2.341,0,0,1-2.341-2.345,2.357,2.357,0,0,1,2.35-2.344,2.347,2.347,0,0,1,2.337,2.353A2.331,2.331,0,0,1-506.263-23.219Z" transform="translate(-45.477 -32.605)" fill="#f27366"/>
    <path id="Path_473" data-name="Path 473" d="M-559.338,6.339c-.245,0-.49,0-.734,0a.781.781,0,0,1-.806-.765.778.778,0,0,1,.8-.769q.724-.01,1.449,0a.76.76,0,0,1,.8.765.762.762,0,0,1-.794.769C-558.861,6.343-559.1,6.339-559.338,6.339Z" transform="translate(-0.001 -61.06)" fill="#2ca9e1"/>
    <path id="Path_474" data-name="Path 474" d="M-559.339-31.121c-.238,0-.477,0-.715,0a.785.785,0,0,1-.825-.766.781.781,0,0,1,.821-.769q.705-.006,1.41,0a.763.763,0,0,1,.817.765.765.765,0,0,1-.813.77C-558.875-31.118-559.107-31.121-559.339-31.121Z" transform="translate(0 -28.473)" fill="#2ca9e1"/>
    <path id="Path_475" data-name="Path 475" d="M-559.355,43.8c-.245,0-.49.005-.734,0a.779.779,0,0,1-.79-.761.774.774,0,0,1,.779-.771c.5-.012.992-.01,1.487,0a.757.757,0,0,1,.782.78.761.761,0,0,1-.79.753C-558.865,43.8-559.11,43.8-559.355,43.8Z" transform="translate(0 -93.645)" fill="#2ca9e1"/>
  </g>
</svg>
