<svg id="Layer_1" data-name="Layer 1" xmlns="http://www.w3.org/2000/svg" viewBox="0 0 501.6 587.85"><g id="Layer_2" data-name="Layer 2"><g id="Layer_1-2" data-name="Layer 1-2"><path d="M461.26,385.56h0c0,42.82-33.63,76.45-76.47,76.56-20.73.06-44.88.1-68.89-.07-9.8,0-17.29,4.19-22.23,12.56-6.52,11-13.24,22.2-19.74,33-6.74,11.22-13.66,22.81-20.49,34.31a27.14,27.14,0,0,1-2.65,3.91,30.51,30.51,0,0,1-2.65-3.91c-6.52-11-13.21-22.16-19.68-32.93-6.77-11.26-13.76-22.9-20.49-34.34-3.37-5.75-9.94-12.56-22.05-12.56h-.3c-21.75.13-43.25.12-68.85,0C73.92,462,40.33,428.36,40.3,385.54c-.08-82-.08-169.46,0-267.5,0-43.76,33-76.77,76.7-76.81,88.79-.09,178.78-.09,267.55,0,43.7,0,76.67,33.05,76.71,76.8C461.35,218.21,461.35,305.72,461.26,385.56Z" fill="#ffffff"/><path d="M495.42,118c0-30.15-11.42-58.14-32.06-78.81S414.72,7.11,384.59,7.09C295.8,7,205.77,7,117,7.09,54.89,7.14,6.19,55.87,6.16,118c0,98.05,0,185.58,0,267.53,0,61.9,48.6,110.51,110.53,110.68,23.8.05,44.08.07,64.39,0,6,10.18,12.18,20.4,18.13,30.31,6.45,10.73,13.1,21.8,19.56,32.72,4.06,6.83,10.15,15.35,21.3,20h0a37.5,37.5,0,0,0,21.61,0h0c11.85-5,18.22-15.09,21.2-19.92,9.41-15.3,13.78-23.14,20.34-34.06,5.7-9.48,11.57-19.25,17.35-29,22.5.12,44.87.08,64.33,0,61.92-.17,110.47-48.78,110.53-110.68C495.49,305.73,495.49,218.2,495.42,118ZM461.26,385.56h0c0,42.82-33.63,76.45-76.47,76.56-20.73.06-44.88.1-68.89-.07-9.8,0-17.29,4.19-22.23,12.56-6.52,11-13.24,22.2-19.74,33-6.74,11.22-13.66,22.81-20.49,34.31a27.14,27.14,0,0,1-2.65,3.91,30.51,30.51,0,0,1-2.65-3.91c-6.52-11-13.21-22.16-19.68-32.93-6.77-11.26-13.76-22.9-20.49-34.34-3.37-5.75-9.94-12.56-22.05-12.56h-.3c-21.75.13-43.25.12-68.85,0C73.92,462,40.33,428.36,40.3,385.54c-.08-82-.08-169.46,0-267.5,0-43.76,33-76.77,76.7-76.81,88.79-.09,178.78-.09,267.55,0,43.7,0,76.67,33.05,76.71,76.8C461.35,218.21,461.35,305.72,461.26,385.56Z" fill="#162143"/><path d="M250.13,358H172.44c-11.71,0-16.59-4.88-16.44-16.64.12-11-.37-22.19.91-33.11,3.67-31.36,31-56.58,62.54-57.56,20.41-.65,40.89-.67,61.3,0,33.7,1.11,62,29.65,63.34,63.35.39,9.76.19,19.6.15,29.4,0,9.13-5.52,14.54-14.74,14.56Q289.81,358,250.13,358Z" fill="#f27366"/><path d="M250.19,117.37a53.78,53.78,0,1,1-53.84,53.71v-.15A53.92,53.92,0,0,1,250.19,117.37Z" fill="#162143"/></g></g></svg>