<svg id="Layer_1" data-name="Layer 1" xmlns="http://www.w3.org/2000/svg" viewBox="0 0 512 512"><path d="M445.84,73.75H66.16A53.16,53.16,0,0,0,13,126.91V385.09a53.16,53.16,0,0,0,53.16,53.16H445.84A53.16,53.16,0,0,0,499,385.09V126.91A53.16,53.16,0,0,0,445.84,73.75Zm22.79,311.34a22.79,22.79,0,0,1-22.79,22.78H66.16a22.79,22.79,0,0,1-22.79-22.78V126.91a22.79,22.79,0,0,1,22.79-22.78H445.84a22.79,22.79,0,0,1,22.79,22.78Z" fill="#162143"/><path d="M445.84,104.13H66.16a22.79,22.79,0,0,0-22.79,22.78V385.09a22.79,22.79,0,0,0,22.79,22.78H445.84a22.79,22.79,0,0,0,22.79-22.78V126.91A22.79,22.79,0,0,0,445.84,104.13ZM149.68,164.87a45.57,45.57,0,1,1-45.55,45.56A45.57,45.57,0,0,1,149.68,164.87ZM183.14,362l-1.79.44a130.5,130.5,0,0,1-63.33,0l-1.79-.44A56.08,56.08,0,0,1,73.75,307.6a28.82,28.82,0,0,1,28.82-28.82h94.24a28.82,28.82,0,0,1,28.82,28.82A56.09,56.09,0,0,1,183.14,362Zm209.54-45.26H301.57a15.19,15.19,0,1,1,0-30.38h91.11a15.19,15.19,0,1,1,0,30.38Zm0-91.12H301.57a15.19,15.19,0,1,1,0-30.38h91.11a15.19,15.19,0,1,1,0,30.38Z" fill="#fff"/><path d="M407.87,210.43a15.2,15.2,0,0,1-15.19,15.2H301.57a15.19,15.19,0,1,1,0-30.38h91.11A15.19,15.19,0,0,1,407.87,210.43Z" fill="#162143"/><path d="M407.87,301.57a15.19,15.19,0,0,1-15.19,15.18H301.57a15.19,15.19,0,1,1,0-30.38h91.11A15.2,15.2,0,0,1,407.87,301.57Z" fill="#162143"/><path d="M225.63,307.6A56.09,56.09,0,0,1,183.14,362l-1.79.44a130.5,130.5,0,0,1-63.33,0l-1.79-.44A56.08,56.08,0,0,1,73.75,307.6a28.82,28.82,0,0,1,28.82-28.82h94.24A28.82,28.82,0,0,1,225.63,307.6Z" fill="#f27366"/><path d="M195.25,210.43a45.56,45.56,0,1,1-45.57-45.56A45.57,45.57,0,0,1,195.25,210.43Z" fill="#2ba5dd"/></svg>