<svg width="10" height="12" viewBox="0 0 10 12" fill="none" xmlns="http://www.w3.org/2000/svg">
<path d="M5 5.33333C5.66304 5.33333 6.29893 5.05238 6.76777 4.55228C7.23661 4.05219 7.5 3.37391 7.5 2.66667C7.5 1.95942 7.23661 1.28115 6.76777 0.781048C6.29893 0.280951 5.66304 0 5 0C4.33696 0 3.70107 0.280951 3.23223 0.781048C2.76339 1.28115 2.5 1.95942 2.5 2.66667C2.5 3.37391 2.76339 4.05219 3.23223 4.55228C3.70107 5.05238 4.33696 5.33333 5 5.33333ZM5 6.66667C4.02959 6.66589 3.07238 6.90651 2.20442 7.36943C1.33646 7.83234 0.581663 8.50478 0 9.33333C0.581663 10.1619 1.33646 10.8343 2.20442 11.2972C3.07238 11.7601 4.02959 12.0008 5 12C5.97041 12.0008 6.92762 11.7601 7.79558 11.2972C8.66354 10.8343 9.41834 10.1619 10 9.33333C9.41834 8.50478 8.66354 7.83234 7.79558 7.36943C6.92762 6.90651 5.97041 6.66589 5 6.66667Z" fill="#4E4E4E"/>
</svg>
