<svg id="Layer_1" data-name="Layer 1" xmlns="http://www.w3.org/2000/svg" viewBox="0 0 431.09 512"><rect x="45.47" y="125.12" width="262.49" height="340.35" rx="40.73" fill="#e4e5e6"/><path d="M269.28,86.26H84.35A77.71,77.71,0,0,0,6.64,164V426.48a77.72,77.72,0,0,0,77.71,77.71H269.28A77.71,77.71,0,0,0,347,426.48V164A77.71,77.71,0,0,0,269.28,86.26ZM308,424.75a40.73,40.73,0,0,1-40.72,40.73h-181a40.73,40.73,0,0,1-40.72-40.73V165.85a40.73,40.73,0,0,1,40.72-40.73h181A40.73,40.73,0,0,1,308,165.85Z" fill="#162143"/><path d="M346.4,8.92c7,0,14.05-.1,20.84,1.75h0c33.37,9,57.06,39.28,57.13,73.78q.24,146.36,0,292.61c0,11.82-8.27,20.42-19.39,20.43s-19.38-8.73-19.38-20.89V87.41c0-7.21-1.8-19.6-10.8-28.89-10.07-10.38-24.63-11.45-31.43-11.85-28.49-1.67-104.73-2.18-207-.06-1,0-1.92.08-2.87.14a19.7,19.7,0,0,1-8.38-1.31c-6-2.39-12.32-8.51-12.74-17.22C111.84,17.27,121,11,123.44,9.82h0a20.41,20.41,0,0,1,8.69-1.94Z" fill="#162143"/></svg>