<svg id="Layer_1" data-name="Layer 1" xmlns="http://www.w3.org/2000/svg" viewBox="0 0 512 512"><defs><style>.cls-1{fill:#0f1d3d;}.cls-2{fill:#30a5dd;}.cls-3{fill:#f27467;}</style></defs><path class="cls-1" d="M497.58,397.64c-1.17,55.93-46.73,99.93-103.72,100.18-31.86.14-64.27.1-95.6.07l-42.55,0-42.14,0c-31.3,0-63.66.06-95.48-.05-47.9-.17-88.33-31.11-100.61-77a105,105,0,0,1-3.43-27.11q0-34.44,0-68.86c0-67.83-.06-138,.05-207C14.17,66.16,51.24,23,102.24,15.22a98.85,98.85,0,0,1,14.57-1.07c44.65-.08,91.31-.09,138.69,0,9.77,0,18.3,7,19.85,16.13A19.74,19.74,0,0,1,262.21,52.6,24.83,24.83,0,0,1,254,53.77h0l-25,0c-36.25,0-73.74-.08-110.62,0-16.26.05-30.93,5.23-42.42,15S57,92.07,54.35,108a61.13,61.13,0,0,0-.62,10.25V157.6c0,77.35,0,157.32,0,236,0,16.14,5.11,30.72,14.75,42.15s23.09,18.9,39,21.68a67.82,67.82,0,0,0,11.87.76c89.55,0,182.14.07,273.21,0,33.69,0,59.13-21.16,64.8-53.86a71.44,71.44,0,0,0,.75-12.4v-.52q0-20.25,0-40.51c0-21.81,0-44.36.07-66.53,0-8.82,3.8-14.87,11.51-18.47,7.37-3.43,14.17-2.56,20.82,2.67,4.85,3.83,7.22,8.85,7.24,15.35q0,14.52.12,29.06C498,340.74,498.17,369.46,497.58,397.64Z"/><path class="cls-2" d="M502.88,122.55c-.15,21.24-6.41,37-19.59,50.12Q442,213.74,400.94,255.13c-2.87,2.89-4.18,2.63-6.81-.1Q380.6,241,366.54,227.44c-2.75-2.64-3-3.95-.08-6.81,26.61-26.33,52.81-53.08,79.63-79.2,7.61-7.41,9.6-15.38,6.53-24.75-8.37-25.59-25.38-42.8-51.23-50.76-8.95-2.76-16.67-1.23-23.86,6.14-26.24,26.94-53.1,53.28-79.57,80-2.87,2.9-4.23,2.66-6.88-.09q-13.71-14.25-28-28c-2.55-2.47-2.33-3.76.07-6.15,27.8-27.63,55.42-55.44,83.22-83.07,20.42-20.28,45.16-23.62,71.23-15.17,43.84,14.21,71.92,44.1,83.43,89A56,56,0,0,1,502.88,122.55Z"/><path class="cls-3" d="M362.42,293.11c-29.67,29.77-58.72,59.65-88.63,88.64-18.48,17.93-41.78,20.89-65.4,13.86-46-13.71-75.84-44.22-86.73-91.38-5.57-24.14.61-45.75,18.79-63.63,27.31-26.88,54.29-54.1,81.28-81.3,2.71-2.73,4.1-3.08,6.93-.1q13.28,14,27.21,27.23c3.1,2.95,3.32,4.46.11,7.64-26.75,26.45-53.11,53.3-80,79.58-6.71,6.56-8,13.63-6.32,22,5,24.46,31.3,49.66,56,53.7,7,1.16,12.92-.43,18.17-5.74,27-27.23,54.19-54.2,81.15-81.44,2.86-2.88,4.14-2.59,6.76.12C341.8,272.72,352.21,282.92,362.42,293.11Z"/><path class="cls-1" d="M275.41,266.58c-9.49-.54-17.15-5.2-21.34-14.53s-2.56-18.29,4.2-26c4.41-5,9.34-9.55,14.06-14.28,18.76-18.78,37.47-37.61,56.34-56.28,10.84-10.73,26.44-10.52,36,.19,8.93,10,8.35,24-1.7,34.11-18.19,18.35-36.52,36.57-54.79,54.84q-7.28,7.27-14.56,14.53C288.78,264,282.94,266.45,275.41,266.58Z"/></svg>