<svg id="Layer_1" data-name="Layer 1" xmlns="http://www.w3.org/2000/svg" viewBox="0 0 284.27 299.82"><g id="Layer_2" data-name="Layer 2"><g id="Layer_1-2" data-name="Layer 1-2"><path d="M243.71,81.21c-7-3.51-15-5-22.88-7.52-3.39-40.26-38.07-71.14-77.67-71.36C125.33,2.24,109.17,7.4,95,18.2,76.4,32.38,66.35,51.47,63.89,74.62a12.93,12.93,0,0,1-1.67.35c-31,3.78-54.71,26.85-59.31,57.93C-1.52,162.67,15.5,192.33,44,204.26c2.26,1,3.06,1.92,2.95,4.49-.47,10.83,3.71,19.69,12,26.58a15.16,15.16,0,0,0,2.22,1.33c-.91.86-1.16,1.11-1.44,1.35C47.8,248.07,43.77,262.28,48.78,275.8s17.29,21.65,32.82,21.65h43.21c26.83,0,53.67.12,80.51-.06a32.85,32.85,0,0,0,32.41-30.7c.73-12.28-4.17-22-13.85-29.61,10.48-9.63,14.17-17,13.78-28.06-.09-2.63.68-3.69,3.09-4.79,26.18-11.9,40.79-32.36,41.3-61.12C282.54,114.78,269,93.89,243.71,81.21ZM221.32,277.55c-4.37,5.61-10.34,8.08-17.41,8.08H82.12c-12.83,0-22.49-9.24-22.49-21.37s9.68-21.42,22.48-21.42H203.52c9.15,0,16.26,3.8,20.29,12.18C227.59,262.89,226.69,270.66,221.32,277.55Zm1.81-57.17A20.38,20.38,0,0,1,204.52,231H194.1q-20.78,0-41.58,0H121.33c-13.86,0-27.73,0-41.59-.05a21.44,21.44,0,0,1-13-4.44c-.24-.19-.48-.38-.71-.58a21,21,0,0,1-7.18-12.77,21.47,21.47,0,0,1,8.84-20.93c.48-.33,1-.64,1.46-.92a22.47,22.47,0,0,1,2.36-1.16,24.07,24.07,0,0,1,2.56-.87,28,28,0,0,1,7.29-.91l15.26,0q45.69-.06,91.37,0l15.19,0A23.76,23.76,0,0,1,219,194.1l.77.71.75.75a21,21,0,0,1,4,6A20.48,20.48,0,0,1,223.13,220.38Zm-47.58-43.8h-34c-20.27,0-40.59,0-60.88-.11-13.73-.08-23-10.14-21.95-23.51A21.09,21.09,0,0,1,77,134.19a46.93,46.93,0,0,1,5.16-.26H202.13c11.65,0,20.08,6.47,22.32,17a22.28,22.28,0,0,1,.48,4.06,21.07,21.07,0,0,1-20.61,21.54C194.74,176.77,185.14,176.58,175.55,176.58Zm59,17.25L224.13,182.1a34.1,34.1,0,0,0,13-20A33.05,33.05,0,0,0,208,122.2c-1.72-.14-3.44-.27-5.17-.27q-60.52-.08-121.09,0c-15.67,0-27.61,7.83-32.77,21.18a33.09,33.09,0,0,0,9.41,37.26l2.06,1.77L50,194c-14.14-5.61-24.87-15.37-31-29.73-15.65-36.32,9.4-76,49.07-78,6-.29,7.63-1.89,7.8-7.8a66.6,66.6,0,0,1,61.53-64.6c33.56-2.75,64.25,20.78,70.52,54.25a82.53,82.53,0,0,1,1,10.63c.29,5.46,2,7.27,7.37,7.51,27.47,1.28,48.86,20.13,53.6,47.25C274.21,158.71,257.48,187.16,234.54,193.83Z" fill="#122230"/><path d="M234.53,193.83l-10.36-11.72a34,34,0,0,0,13-20,33,33,0,0,0-29.06-39.85c-1.71-.15-3.43-.27-5.16-.28H81.83c-15.67,0-27.62,7.88-32.78,21.18a33.08,33.08,0,0,0,9.39,37.23l2.05,1.76L55.31,188,50,194a54.58,54.58,0,0,1-20.94-14,56.1,56.1,0,0,1-10.12-15.73c-15.65-36.31,9.4-76,49-78,6-.29,7.62-2,7.79-7.8a66.61,66.61,0,0,1,61.53-64.6c33.56-2.72,64.25,20.81,70.53,54.25a80.61,80.61,0,0,1,1,10.64c.3,5.45,2,7.26,7.36,7.5,27.48,1.24,48.87,20.09,53.61,47.25C274.2,158.71,257.46,187.15,234.53,193.83Z" fill="#e4e5e6"/><path d="M203.18,188.39H188l15.19,0A23.76,23.76,0,0,1,219,194.1,23.65,23.65,0,0,0,203.18,188.39ZM79.74,231a21.44,21.44,0,0,1-13-4.44,21.15,21.15,0,0,0,13,4.47q20.79.06,41.59,0C107.47,231,93.6,231,79.74,231Zm1.61-42.59a27.86,27.86,0,0,0-7.27.91,21.28,21.28,0,0,0-2.55.88,24.07,24.07,0,0,1,2.56-.87,28,28,0,0,1,7.29-.91l15.26,0Z" fill="#f27366"/><path d="M223.11,220.37C219,227.41,212.68,231,204.5,231H121.33c-13.86,0-27.73,0-41.59-.05a21.44,21.44,0,0,1-13-4.44c-.24-.19-.48-.38-.71-.58a21,21,0,0,1-7.18-12.77,21.47,21.47,0,0,1,8.84-20.93c.48-.33,1-.64,1.46-.92a22.47,22.47,0,0,1,2.36-1.16,24.07,24.07,0,0,1,2.56-.87,28,28,0,0,1,7.29-.91l15.26,0q45.69,0,91.37,0l15.19,0A23.76,23.76,0,0,1,219,194.1l.77.71.75.75a21,21,0,0,1,4,6A20.5,20.5,0,0,1,223.11,220.37Z" fill="#f27366"/><path d="M142.65,285.63H82.12c-12.79,0-22.48-9.19-22.49-21.37s9.69-21.41,22.48-21.42h121.4c9.16,0,16.28,3.8,20.3,12.18,3.78,7.88,2.89,15.6-2.5,22.53-4.36,5.6-10.33,8.09-17.4,8.08Q173.28,285.6,142.65,285.63Zm37.74-15.46h25.1c4.51,0,7-2.09,7.08-5.74s-2.52-6.05-7.17-6.05H154.83c-4.32,0-7.07,2.3-7.16,5.78-.1,3.66,2.67,6,7.25,6C163.36,270.19,171.85,270.17,180.39,270.17Zm-65.32,1.44a7.36,7.36,0,0,0,.12-14.71,7.4,7.4,0,0,0-7.55,7.23h0a7.37,7.37,0,0,0,7.24,7.48h.19ZM75.91,264.4a7.39,7.39,0,1,0,7.27-7.5,7.38,7.38,0,0,0-7.27,7.5Z" fill="#e4e5e6"/><path d="M141.59,176.58c-20.29,0-40.59.09-60.87,0-13.79-.08-23-10.14-22-23.52A21.1,21.1,0,0,1,77,134.13a49.53,49.53,0,0,1,5.16-.26H202.11c11.65,0,20.08,6.47,22.31,17a21,21,0,0,1-20.12,25.59c-9.59.26-19.19.06-28.77.07Zm38.8-27.3H154.92c-4.71,0-7.37,2.19-7.39,5.86s2.64,5.91,7.32,5.91q25.1.07,50.21,0c4.7,0,7.4-2.25,7.43-5.86s-2.74-5.91-7.36-5.91C196.83,149.24,188.59,149.28,180.39,149.28ZM83,162.46a7.28,7.28,0,0,0,7.59-6.94h0a7.39,7.39,0,0,0-14.77-.46,7.27,7.27,0,0,0,7.14,7.41Zm32.08,0a7.26,7.26,0,0,0,7.3-7.21v0a7.39,7.39,0,1,0-14.77.12,7.27,7.27,0,0,0,7.43,7.11Z" fill="#e4e5e6"/><path d="M179.89,215.58H154.78c-4.71,0-7.33-2.17-7.29-5.9,0-3.57,2.66-5.91,7-5.91q25.47-.08,50.94,0c4.27,0,7,2.51,6.95,6s-2.66,5.75-7.07,5.77C196.87,215.6,188.37,215.58,179.89,215.58Z" fill="#122230"/><path d="M114.9,217a7.27,7.27,0,0,1-7.27-7.2,7.39,7.39,0,1,1,14.77-.17,7.24,7.24,0,0,1-7.1,7.37Z" fill="#122230"/><path d="M83.08,217a7.27,7.27,0,0,1-7.23-7.24,7.39,7.39,0,0,1,14.77-.08A7.25,7.25,0,0,1,83.46,217Z" fill="#122230"/><path d="M180.39,270.17H154.92c-4.58,0-7.35-2.35-7.25-6,.09-3.48,2.84-5.78,7.16-5.78H205.4c4.65,0,7.26,2.26,7.17,6.05s-2.57,5.72-7.08,5.74C197.13,270.19,188.71,270.17,180.39,270.17Z" fill="#122230"/><path d="M115,271.61a7.37,7.37,0,0,1-7.38-7.35v-.13a7.39,7.39,0,1,1,14.77.32A7.32,7.32,0,0,1,115,271.61Z" fill="#122230"/><path d="M75.86,264.4a7.39,7.39,0,1,1,7.5,7.27A7.39,7.39,0,0,1,75.86,264.4Z" fill="#122230"/><path d="M180.39,149.28h24.72c4.62,0,7.38,2.33,7.36,5.91s-2.73,5.84-7.43,5.86q-25.09,0-50.21,0c-4.68,0-7.35-2.27-7.32-5.91s2.68-5.83,7.39-5.86C163.37,149.25,171.86,149.28,180.39,149.28Z" fill="#122230"/><path d="M83,162.46a7.28,7.28,0,0,1-7.13-7.41,7.39,7.39,0,0,1,14.77.46,7.28,7.28,0,0,1-7.58,7Z" fill="#122230"/><path d="M115.06,162.46a7.27,7.27,0,0,1-7.43-7.11h0a7.39,7.39,0,1,1,14.77-.12,7.26,7.26,0,0,1-7.28,7.23Z" fill="#122230"/></g></g></svg>