<svg id="Layer_1" data-name="Layer 1" xmlns="http://www.w3.org/2000/svg" viewBox="0 0 512 512"><g id="Layer_2" data-name="Layer 2"><g id="Layer_1-2" data-name="Layer 1-2"><rect x="275.83" y="9.92" width="226.23" height="287.7" rx="37.31" fill="#e4e5e6"/><rect x="10.11" y="214.21" width="226.23" height="287.7" rx="37.31" fill="#2ba5dd"/><rect x="9.61" y="9.34" width="226.23" height="164.7" rx="37.31" fill="#f27366"/><rect x="275.66" y="337.19" width="226.23" height="164.7" rx="37.31" fill="#f27366"/><path d="M471,153.71v104.7c0,6.67-1.42,8.1-8.19,8.1H315.4c-7,0-8.45-1.42-8.45-8.41V49.29c0-6.84,1.38-8.25,8-8.26H462.81c6.87,0,8.13,1.26,8.14,8.09Z" fill="#e4e5e6"/><path d="M40.84,358.35V254.67c0-7.82,1.13-9,8.74-9H196c7.61,0,8.87,1.28,8.87,9V462.51c0,7.43-1.25,8.65-8.57,8.65H49.39c-7.46,0-8.55-1.11-8.55-8.65Z" fill="#2ba5dd"/><path d="M122.64,143.38H49.22c-7.15,0-8.48-1.33-8.49-8.28V48.71c0-6.46,1.4-7.87,7.86-7.87H196.88c6.37,0,7.84,1.47,7.84,7.95v86.38c0,6.72-1.47,8.19-8.18,8.19Q159.6,143.4,122.64,143.38Z" fill="#f27366"/><path d="M389.11,471.16H315.68c-7.16,0-8.52-1.3-8.52-8.25V377c0-7,1.42-8.39,8.45-8.39H462.94c6.79,0,8.21,1.4,8.22,8.07v86.38c0,6.81-1.28,8.07-8.15,8.08Z" fill="#f27366"/></g></g></svg>