<svg id="Layer_1" data-name="Layer 1" xmlns="http://www.w3.org/2000/svg" viewBox="0 0 512 512"><path d="M368.88,321a5.25,5.25,0,0,0,1-.95A6.86,6.86,0,0,1,368.88,321Zm0,0a5.25,5.25,0,0,0,1-.95A6.86,6.86,0,0,1,368.88,321Zm0,0a5.25,5.25,0,0,0,1-.95A6.86,6.86,0,0,1,368.88,321Zm0,0a5.25,5.25,0,0,0,1-.95A6.86,6.86,0,0,1,368.88,321Zm0,0a5.25,5.25,0,0,0,1-.95A6.86,6.86,0,0,1,368.88,321Zm0,0a5.25,5.25,0,0,0,1-.95A6.86,6.86,0,0,1,368.88,321Zm0,0a5.25,5.25,0,0,0,1-.95A6.86,6.86,0,0,1,368.88,321Zm0,0a5.25,5.25,0,0,0,1-.95A6.86,6.86,0,0,1,368.88,321Zm0,0a5.25,5.25,0,0,0,1-.95A6.86,6.86,0,0,1,368.88,321Zm0,0a5.25,5.25,0,0,0,1-.95A6.86,6.86,0,0,1,368.88,321Zm0,0a5.25,5.25,0,0,0,1-.95A6.86,6.86,0,0,1,368.88,321Z"/><path d="M371.78,314.48c0,.3-.08.57-.12.84s-.06.4-.1.6a2.82,2.82,0,0,1-.11.52c0,.21-.09.41-.14.61a8.87,8.87,0,0,1-.43,1.26,4.43,4.43,0,0,1-.2.45.3.3,0,0,1,0,.08,2.2,2.2,0,0,1-.27.47,1.05,1.05,0,0,1-.17.28,2.79,2.79,0,0,1-.33.46,5.25,5.25,0,0,1-1,.95,5.87,5.87,0,0,1-.59.37,4.6,4.6,0,0,1-.63.31h0a5.13,5.13,0,0,1-.69.25,2.63,2.63,0,0,1-.5.14,3.29,3.29,0,0,1-.43.09,6.29,6.29,0,0,1-.65.11,2.58,2.58,0,0,1-.29,0l-.49,0-.32,0h-.2c-.53,0-1.1,0-1.69,0a25.33,25.33,0,0,1-12.71-4.24c-13.32-8.55-26.91-17.2-40-25.57l-12-7.62-.42-.26a18.11,18.11,0,0,0-2.5-1.44,6.68,6.68,0,0,0-8.73,2.54,6.85,6.85,0,0,0,.93,9,11.62,11.62,0,0,0,2.26,1.69l11.37,7.25c13.06,8.35,26.56,17,39.89,25.36a4.51,4.51,0,0,1,2.37,3.37,15.24,15.24,0,0,1-2.75,11.29,13.62,13.62,0,0,1-8.75,5.84c-2.44.38-4.88-.27-7.92-2.08q-19.46-11.62-39-23.2l-9.53-5.67-.55-.34A14.67,14.67,0,0,0,271.9,317a7.08,7.08,0,0,0-7.38,11.79,11.73,11.73,0,0,0,2.31,1.61l10.95,6.51c11.61,6.92,23.63,14.06,35.39,21.16a3.36,3.36,0,0,1,1.17,1.66,19.47,19.47,0,0,1,.87,6.16,9.06,9.06,0,0,1-3.22,6.45,11.34,11.34,0,0,1-8.58,2.39,21.13,21.13,0,0,1-6.53-1.86c-6.48-3.09-13-6.36-19.33-9.53l-7.35-3.67-1.63-.79c-5.42-2.56-9-.14-10.44,2.7-1.58,3.18-.94,7.5,4.09,10Q267,374,271.7,376.3l3.35,1.67c1.06.52,2.11,1.06,3.17,1.6,2.58,1.32,5.25,2.68,8,3.88a2.51,2.51,0,0,1,.44.22c0,.05,0,.11-.05.19a5.65,5.65,0,0,0-.27,1.55,1.28,1.28,0,0,1,0,.19c-1,7.45-3.55,9.75-10.83,9.75h-.22a61.83,61.83,0,0,1-8.05-.61c-2.86-.39-5.73-.89-8.74-1.41A25.43,25.43,0,0,0,242.59,357a26.15,26.15,0,0,0-2.5-22.4,25.71,25.71,0,0,0-18.75-11.68,3.59,3.59,0,0,0,0-.47,34,34,0,0,0-.28-8.35,25,25,0,0,0-16.05-19,25.34,25.34,0,0,0-24.82,4.21c-1.65,1.33-3.29,2.72-4.89,4.06-2.63-9.34-8.92-15.51-18.42-18-11.35-2.95-19.81,2.34-26.15,8.22L120.58,282l46.72-80.89,26.91,13.36c-1.14,1.56-2.35,3.23-3.56,4.91l-2.93,4c-2,2.71-4.07,5.51-6,8.34-2.92,4.19-3.62,9-2.13,14.59a29.13,29.13,0,0,0,17.93,19.38c8.77,3.39,18,2.59,25.35-2.18,4.91-3.18,9.16-7.26,13.29-11.21l1.55-1.49c2.47-2.36,4.81-4.87,7.08-7.3,2-2.14,4.06-4.34,6.16-6.4a48.35,48.35,0,0,1,7.36-5.63c1.2-.78,2.87-1.37,6.1.17,13.8,6.58,26.52,15.18,37.14,22.73Q320.26,267.75,339,281l26,18.4C370.27,303.16,372.49,308.1,371.78,314.48Z" fill="#fff"/><path d="M392.25,278.82c-3.84,6.53-9.49,11.27-14.94,15.49-18.94-13.42-37.59-26.68-56.3-39.88-8.28-5.85-16.48-11.84-25.05-17.22-9.07-5.68-18.47-10.81-27.85-16-4.45-2.44-9.14-2.19-13.81-.17-6.11,2.62-10.45,7.36-15,11.95-6.24,6.3-12.42,12.67-18.87,18.75-6.67,6.28-14.29,5.82-22,2.11-4.92-2.37-7.63-6.58-8.4-11.92a5.76,5.76,0,0,1,.86-3.83c9-12.39,17.83-24.87,27.13-37,5.65-7.37,14.19-9.48,22.91-10.95,15.58-2.63,31.23-2.73,47-2.15,17.93.67,35.87,1.07,53.81,1.49a3.43,3.43,0,0,1,3.46,1.9q23.69,41.18,47.54,82.27C393.9,275.72,393.19,277.24,392.25,278.82Z" fill="#fff"/><polygon points="448.39 259.61 410.14 281.7 349.59 176.83 387.84 154.74 448.39 259.61" fill="#2ba5dd"/><path d="M166.65,180,103,290.26,59.32,265c21.25-36.81,42.39-73.42,63.66-110.28Z" fill="#f27366"/><path d="M207.45,318.36c-.11,4.13-1.2,6.8-3.68,8.95l-2.85,2.48c-9.06,7.85-18.41,16-27.73,23.82a10.84,10.84,0,0,1-8.06,2.55,11.23,11.23,0,0,1-7.65-4.11,11,11,0,0,1,1.58-15.54l10.81-9.38c6.23-5.41,12.68-11,19-16.46a10.86,10.86,0,0,1,7.15-2.88,11.6,11.6,0,0,1,5.05,1.23A10.26,10.26,0,0,1,207.45,318.36Z" fill="#f27366"/><path d="M226.58,356c-9.81,8.76-18,15.82-25.84,22.23-4.33,3.55-11,2.79-14.94-1.69s-3.66-11.28.43-15c8.15-7.39,16.93-14.93,26.06-22.36a12.5,12.5,0,0,1,4.26-1.84l1-.32c6,.39,9.35,2.44,11.36,6.95A10.49,10.49,0,0,1,226.58,356Z" fill="#fff"/><path d="M244.38,388.73A160.45,160.45,0,0,1,229,402a13.54,13.54,0,0,1-4.17,1.7c-.64.19-1.31.39-2,.62-4.87-.71-8.65-3.57-10.21-7.74a10.77,10.77,0,0,1,3.12-12.22c5.31-4.64,9.4-8.16,13.25-11.4a10.86,10.86,0,0,1,7-2.56,11,11,0,0,1,8,3.41C248.1,378,248.25,384.88,244.38,388.73Z" fill="#fff"/><path d="M158,318.44c-.88.76-1.75,1.55-2.6,2.33a57.54,57.54,0,0,1-6,5,28.79,28.79,0,0,1-5.24,2.62c-.35.14-.67.27-1,.41-6-.56-9.33-2.63-11.28-7a10.69,10.69,0,0,1,2.32-12.1,129.65,129.65,0,0,1,9.93-8.56,10.89,10.89,0,0,1,6.71-2.28A11.07,11.07,0,0,1,158,318.44Z" fill="#2ba5dd"/><path d="M462.24,255.08,398.63,144.91c-3.9-6.77-8.48-8-15.3-4-4.19,2.42-8.38,4.86-12.55,7.28-9.81,5.7-19.93,11.59-30,17.18-4.06,2.25-6.36,4.84-7.05,7.89a9.2,9.2,0,0,0,.43,5.3l-9.11-.26c-9.3-.25-18.91-.51-28.35-1-16.3-.78-35.63-1.21-55.46,1.46-17,2.29-29.53,9.84-38.24,23.05a.75.75,0,0,1-.07.12l-.14.06a116.45,116.45,0,0,1-28.12-13.64c.6-1,1.19-2.06,1.77-3.09,3.64-6.39,2.34-11.11-4.09-14.83Q152.54,159,132.71,147.51l-4.4-2.54c-3.16-1.84-5.92-2.39-8.44-1.69s-4.61,2.57-6.45,5.76L72.86,219.31q-11.65,20.2-23.33,40.41c-4.7,8.16-.12,12.44,3,14.27,15.22,8.83,30.73,17.79,46.1,26.61,5,2.88,10.09,1.54,13.19-3.49.41-.65.81-1.31,1.21-2l7.65,8.69c-5.07,8.55-5.37,17.44-.8,25.85,4.34,8,11.37,12.46,21,13.22a24.75,24.75,0,0,0,7.7,20.43c5.41,5.25,12.25,7.57,20.33,6.92A24.91,24.91,0,0,0,178,388.77c5.51,4.63,12,6.49,19.71,5.67a25.32,25.32,0,0,0,25.38,23.64c.54,0,1.08,0,1.62-.05,6.77-.42,12.89-3.46,18.17-9,2.51-2.65,4.88-3.29,9-2.43l.18,0c8.82,1.82,17.95,3.7,27.43,2.77,9.68-.94,16.33-6.19,19.27-15.17.6-1.82,1-3.68,1.44-5.48,8.23.94,15-.83,20.65-5.36,6.13-4.93,9-11.57,8.6-19.75,17.41-2.13,24.58-9.29,27.6-27.53.77.14,1.54.25,2.31.36,12.44,1.82,21.47-3.64,25.43-15.38a27,27,0,0,0-.38-18.29c4.14-3.71,8.12-7.43,12.33-11.37l1.59-1.48,1,1.67c3.83,6.53,8.62,7.84,15.07,4.11l43.81-25.3C465,266.49,466.18,261.91,462.24,255.08ZM103,290.26,59.32,265c21.25-36.81,42.39-73.42,63.66-110.28L166.65,180Zm55,28.18c-.88.76-1.75,1.55-2.6,2.33a57.54,57.54,0,0,1-6,5,28.79,28.79,0,0,1-5.24,2.62c-.35.14-.67.27-1,.41-6-.56-9.33-2.63-11.28-7a10.69,10.69,0,0,1,2.32-12.1,129.65,129.65,0,0,1,9.93-8.56,10.89,10.89,0,0,1,6.71-2.28A11.07,11.07,0,0,1,158,318.44Zm15.2,35.17a10.84,10.84,0,0,1-8.06,2.55,11.23,11.23,0,0,1-7.65-4.11,11,11,0,0,1,1.58-15.54l10.81-9.38c6.23-5.41,12.68-11,19-16.46a10.86,10.86,0,0,1,7.15-2.88,11.6,11.6,0,0,1,5.05,1.23,10.26,10.26,0,0,1,6.33,9.34c-.11,4.13-1.2,6.8-3.68,8.95l-2.85,2.48C191.86,337.64,182.51,345.77,173.19,353.61Zm27.55,24.63c-4.33,3.55-11,2.79-14.94-1.69s-3.66-11.28.43-15c8.15-7.39,16.93-14.93,26.06-22.36a12.5,12.5,0,0,1,4.26-1.84l1-.32c6,.39,9.35,2.44,11.36,6.95a10.49,10.49,0,0,1-2.37,12C216.77,364.77,208.56,371.83,200.74,378.24Zm43.64,10.49A160.45,160.45,0,0,1,229,402a13.54,13.54,0,0,1-4.17,1.7c-.64.19-1.31.39-2,.62-4.87-.71-8.65-3.57-10.21-7.74a10.77,10.77,0,0,1,3.12-12.22c5.31-4.64,9.4-8.16,13.25-11.4a10.86,10.86,0,0,1,7-2.56,11,11,0,0,1,8,3.41C248.1,378,248.25,384.88,244.38,388.73Zm127.4-74.25c0,.3-.08.57-.12.84s-.06.4-.1.6a2.82,2.82,0,0,1-.11.52,5.45,5.45,0,0,1-.14.61,8.87,8.87,0,0,1-.43,1.26,4.43,4.43,0,0,1-.2.45.3.3,0,0,1,0,.08,2.2,2.2,0,0,1-.27.47,1.05,1.05,0,0,1-.17.28,2.79,2.79,0,0,1-.33.46,5.25,5.25,0,0,1-1,.95,5.87,5.87,0,0,1-.59.37,4.6,4.6,0,0,1-.63.31h0a5.13,5.13,0,0,1-.69.25,2.63,2.63,0,0,1-.5.14,3.29,3.29,0,0,1-.43.09,6.29,6.29,0,0,1-.65.11,2.58,2.58,0,0,1-.29,0,3.89,3.89,0,0,1-.49,0l-.32,0h-.2c-.53,0-1.1,0-1.69,0a25.33,25.33,0,0,1-12.71-4.24c-13.32-8.55-26.91-17.2-40-25.57l-12-7.62-.42-.26a18.11,18.11,0,0,0-2.5-1.44,6.68,6.68,0,0,0-8.73,2.54,6.85,6.85,0,0,0,.93,9,11.62,11.62,0,0,0,2.26,1.69l11.37,7.25c13.06,8.35,26.56,17,39.89,25.36a4.51,4.51,0,0,1,2.37,3.37,15.24,15.24,0,0,1-2.75,11.29,13.62,13.62,0,0,1-8.75,5.84c-2.44.38-4.88-.27-7.92-2.08q-19.46-11.62-39-23.2l-9.53-5.67-.55-.34A14.67,14.67,0,0,0,271.9,317a7.08,7.08,0,0,0-7.38,11.79,11.73,11.73,0,0,0,2.31,1.61l10.95,6.51c11.61,6.92,23.63,14.06,35.39,21.16a3.36,3.36,0,0,1,1.17,1.66,19.47,19.47,0,0,1,.87,6.16,9.06,9.06,0,0,1-3.22,6.45,11.34,11.34,0,0,1-8.58,2.39,21.13,21.13,0,0,1-6.53-1.86c-6.48-3.09-13-6.36-19.33-9.53l-7.35-3.67-1.63-.79c-5.42-2.56-9-.14-10.44,2.7-1.58,3.18-.94,7.5,4.09,10Q267,374,271.7,376.3l3.35,1.67c1.06.52,2.11,1.06,3.17,1.6,2.58,1.32,5.25,2.68,8,3.88a2.51,2.51,0,0,1,.44.22c0,.05,0,.11-.05.19a5.65,5.65,0,0,0-.27,1.55,1.28,1.28,0,0,1,0,.19c-1,7.45-3.55,9.75-10.83,9.75h-.22a61.83,61.83,0,0,1-8.05-.61c-2.86-.39-5.73-.89-8.74-1.41A25.43,25.43,0,0,0,242.59,357a26.15,26.15,0,0,0-2.5-22.4,25.71,25.71,0,0,0-18.75-11.68,3.59,3.59,0,0,0,0-.47,34,34,0,0,0-.28-8.35,25,25,0,0,0-16.05-19,25.34,25.34,0,0,0-24.82,4.21c-1.65,1.33-3.29,2.72-4.89,4.06-2.63-9.34-8.92-15.51-18.42-18-11.35-2.95-19.81,2.34-26.15,8.22L120.58,282l46.72-80.89,26.91,13.36c-1.14,1.56-2.35,3.23-3.56,4.91l-2.93,4c-2,2.71-4.07,5.51-6,8.34-2.92,4.19-3.62,9-2.13,14.59a29.13,29.13,0,0,0,17.93,19.38c8.77,3.39,18,2.59,25.35-2.18,4.91-3.18,9.16-7.26,13.29-11.21l1.55-1.49c2.47-2.36,4.81-4.87,7.08-7.3,2-2.14,4.06-4.34,6.16-6.4a48.35,48.35,0,0,1,7.36-5.63c1.2-.78,2.87-1.37,6.1.17,13.8,6.58,26.52,15.18,37.14,22.73Q320.26,267.75,339,281l26,18.4C370.27,303.16,372.49,308.1,371.78,314.48Zm20.47-35.66c-3.84,6.53-9.49,11.27-14.94,15.49-18.94-13.42-37.59-26.68-56.3-39.88-8.28-5.85-16.48-11.84-25.05-17.22-9.07-5.68-18.47-10.81-27.85-16-4.45-2.44-9.14-2.19-13.81-.17-6.11,2.62-10.45,7.36-15,11.95-6.24,6.3-12.42,12.67-18.87,18.75-6.67,6.28-14.29,5.82-22,2.11-4.92-2.37-7.63-6.58-8.4-11.92a5.76,5.76,0,0,1,.86-3.83c9-12.39,17.83-24.87,27.13-37,5.65-7.37,14.19-9.48,22.91-10.95,15.58-2.63,31.23-2.73,47-2.15,17.93.67,35.87,1.07,53.81,1.49a3.43,3.43,0,0,1,3.46,1.9q23.69,41.18,47.54,82.27C393.9,275.72,393.19,277.24,392.25,278.82Zm17.89,2.88L349.59,176.83l38.25-22.09,60.55,104.87Z" fill="#121d3f"/></svg>