<svg id="Layer_1" data-name="Layer 1" xmlns="http://www.w3.org/2000/svg" viewBox="0 0 512 351"><path d="M391.9,226.34a6.17,6.17,0,0,0,1.2-1.14A8.1,8.1,0,0,1,391.9,226.34Zm0,0a6.17,6.17,0,0,0,1.2-1.14A8.1,8.1,0,0,1,391.9,226.34Zm0,0a6.17,6.17,0,0,0,1.2-1.14A8.1,8.1,0,0,1,391.9,226.34Zm0,0a6.17,6.17,0,0,0,1.2-1.14A8.1,8.1,0,0,1,391.9,226.34Zm0,0a6.17,6.17,0,0,0,1.2-1.14A8.1,8.1,0,0,1,391.9,226.34Zm0,0a6.17,6.17,0,0,0,1.2-1.14A8.1,8.1,0,0,1,391.9,226.34Zm0,0a6.17,6.17,0,0,0,1.2-1.14A8.1,8.1,0,0,1,391.9,226.34Zm0,0a6.17,6.17,0,0,0,1.2-1.14A8.1,8.1,0,0,1,391.9,226.34Zm0,0a6.17,6.17,0,0,0,1.2-1.14A8.1,8.1,0,0,1,391.9,226.34Zm0,0a6.17,6.17,0,0,0,1.2-1.14A8.1,8.1,0,0,1,391.9,226.34Zm0,0a6.17,6.17,0,0,0,1.2-1.14A8.1,8.1,0,0,1,391.9,226.34Z"/><path d="M395.39,218.49a5.62,5.62,0,0,1-.15,1q0,.36-.12.72a2.61,2.61,0,0,1-.13.63,3,3,0,0,1-.17.73,10.05,10.05,0,0,1-.51,1.52,3.32,3.32,0,0,1-.25.54.17.17,0,0,1,0,.1,2.39,2.39,0,0,1-.32.56,1.08,1.08,0,0,1-.21.34,3.12,3.12,0,0,1-.39.56,6.23,6.23,0,0,1-1.21,1.14,4.68,4.68,0,0,1-.71.44,4.15,4.15,0,0,1-.76.38h0a4.83,4.83,0,0,1-.83.3,3,3,0,0,1-.6.17,3,3,0,0,1-.52.11c-.25.05-.52.1-.78.13h-3.6a30.49,30.49,0,0,1-15.3-5.11c-16-10.29-32.4-20.7-48.16-30.78l-14.44-9.17-.51-.32a22.89,22.89,0,0,0-3-1.73,8,8,0,0,0-10.51,3.06,8.25,8.25,0,0,0,1.12,10.83,14.33,14.33,0,0,0,2.72,2l13.69,8.73c15.72,10,32,20.46,48,30.53a5.42,5.42,0,0,1,2.86,4,18.42,18.42,0,0,1-3.31,13.6,16.41,16.41,0,0,1-10.54,7c-2.94.45-5.87-.33-9.53-2.51q-23.43-14-47-27.93l-11.47-6.82-.66-.41a18.38,18.38,0,0,0-3-1.44,8.53,8.53,0,0,0-8.88,14.2,14,14,0,0,0,2.78,1.94l13.18,7.83c14,8.33,28.45,16.93,42.61,25.48a4.11,4.11,0,0,1,1.41,2,23.55,23.55,0,0,1,1,7.41,10.89,10.89,0,0,1-3.87,7.77A13.61,13.61,0,0,1,313.08,291a25.38,25.38,0,0,1-7.86-2.24c-7.81-3.72-15.66-7.66-23.28-11.48l-8.85-4.42-2-.95c-6.52-3.08-10.83-.16-12.57,3.25-1.9,3.83-1.13,9,4.93,12q5.74,2.93,11.41,5.69l4,2c1.28.62,2.54,1.27,3.82,1.92,3.11,1.59,6.32,3.23,9.63,4.67a2.4,2.4,0,0,1,.53.27.32.32,0,0,1-.06.23,6.91,6.91,0,0,0-.32,1.86V304c-1.21,9-4.28,11.74-13,11.74h-.27a73.11,73.11,0,0,1-9.69-.73c-3.44-.47-6.9-1.08-10.52-1.7a30.58,30.58,0,0,0-12.9-41.29,31.17,31.17,0,0,0-6.26-2.45,31.43,31.43,0,0,0-3-27,30.94,30.94,0,0,0-22.57-14.06,5.42,5.42,0,0,0,0-.57,40.76,40.76,0,0,0-.34-10.05,30.08,30.08,0,0,0-19.32-22.87,30.5,30.5,0,0,0-29.88,5.07c-2,1.6-4,3.27-5.89,4.88-3.16-11.24-10.74-18.67-22.17-21.67-13.67-3.55-23.85,2.82-31.49,9.9L93,179.39,149.21,82l32.4,16.09c-1.37,1.87-2.83,3.88-4.29,5.91l-3.52,4.81c-2.41,3.27-4.9,6.64-7.23,10-3.51,5-4.36,10.84-2.56,17.57a35,35,0,0,0,21.58,23.33c10.56,4.08,21.67,3.12,30.52-2.62,5.91-3.83,11-8.74,16-13.5L234,141.8c3-2.84,5.79-5.87,8.52-8.79,2.41-2.58,4.89-5.23,7.42-7.71a59.56,59.56,0,0,1,8.86-6.78c1.45-.93,3.46-1.64,7.34.21,16.62,7.92,31.93,18.27,44.72,27.36q22.52,16.11,45.08,32l31.31,22.15C393.57,204.86,396.24,210.81,395.39,218.49Z" fill="#fff"/><path d="M420,175.56c-4.62,7.86-11.42,13.57-18,18.65-22.81-16.16-45.26-32.12-67.78-48-10-7-19.84-14.25-30.16-20.73-10.92-6.84-22.24-13-33.53-19.26-5.36-2.94-11-2.64-16.63-.2-7.35,3.15-12.58,8.86-18.06,14.38-7.51,7.59-15,15.26-22.71,22.58-8,7.56-17.21,7-26.49,2.54-5.92-2.86-9.19-7.93-10.11-14.35a7,7,0,0,1,1-4.62C188.37,111.64,199,96.61,210.19,82c6.81-8.87,17.09-11.41,27.59-13.18,18.75-3.17,37.59-3.29,56.58-2.59C316,67,337.54,67.53,359.14,68a4.13,4.13,0,0,1,4.17,2.29q28.51,49.58,57.23,99C422,171.83,421.16,173.66,420,175.56Z" fill="#fff"/><polygon points="487.62 152.43 441.57 179.02 368.67 52.77 414.72 26.18 487.62 152.43" fill="#2ba5dd"/><path d="M148.43,56.59,71.8,189.33,19.21,158.92c25.59-44.32,51-88.39,76.64-132.77Z" fill="#f27366"/><path d="M197.55,223.16c-.13,5-1.45,8.19-4.43,10.78l-3.43,3c-10.91,9.45-22.17,19.26-33.39,28.68a13,13,0,0,1-9.7,3.07,13.52,13.52,0,0,1-9.21-4.95,13.24,13.24,0,0,1,1.82-18.63h0l.08-.07,13-11.29c7.5-6.51,15.26-13.24,22.87-19.82a13,13,0,0,1,8.61-3.46,14,14,0,0,1,6.08,1.48A12.36,12.36,0,0,1,197.55,223.16Z" fill="#f27366"/><path d="M220.58,268.48c-11.81,10.54-21.67,19-31.11,26.76-5.21,4.27-13.24,3.36-18-2s-4.4-13.58.52-18.05c9.81-8.9,20.38-18,31.38-26.92A15.06,15.06,0,0,1,208.5,246l1.21-.38c7.22.47,11.26,2.93,13.68,8.36A12.63,12.63,0,0,1,220.58,268.48Z" fill="#fff"/><path d="M242,307.88a191.75,191.75,0,0,1-18.52,16,16.08,16.08,0,0,1-5,2c-.77.23-1.57.47-2.4.75-5.87-.86-10.42-4.3-12.3-9.32a13,13,0,0,1,3.76-14.71c6.39-5.59,11.32-9.82,16-13.73a13.23,13.23,0,0,1,18.06,1C246.49,295,246.67,303.25,242,307.88Z" fill="#fff"/><path d="M138,223.26c-1.06.91-2.11,1.86-3.13,2.8a69.09,69.09,0,0,1-7.23,6,33.84,33.84,0,0,1-6.31,3.16c-.42.16-.8.32-1.2.49-7.22-.67-11.23-3.17-13.58-8.43a12.88,12.88,0,0,1,2.79-14.56,154.87,154.87,0,0,1,12-10.31,13.13,13.13,0,0,1,8.08-2.75,13.33,13.33,0,0,1,8.58,23.6Z" fill="#2ba5dd"/><path d="M504.3,147,427.71,14.34C423,6.19,417.5,4.71,409.29,9.53c-5,2.91-10.08,5.85-15.11,8.76-11.81,6.86-24,14-36.11,20.68-4.89,2.71-7.66,5.83-8.49,9.5a11,11,0,0,0,.52,6.38l-11-.31c-11.2-.3-22.77-.61-34.13-1.2-19.63-.94-42.9-1.46-66.77,1.75-20.47,2.76-35.55,11.85-46,27.75a.53.53,0,0,1-.08.15l-.17.07a140.42,140.42,0,0,1-33.86-16.42c.73-1.2,1.44-2.48,2.14-3.72,4.38-7.69,2.81-13.38-4.93-17.85q-23.85-13.77-47.72-27.6l-5.3-3.06c-3.8-2.21-7.13-2.87-10.16-2s-5.55,3.09-7.77,6.93l-48.83,84.6q-14,24.33-28.08,48.65c-5.66,9.83-.15,15,3.61,17.18,18.32,10.63,37,21.42,55.5,32,6,3.47,12.15,1.85,15.88-4.2.49-.78,1-1.58,1.46-2.41l9.21,10.46c-6.11,10.3-6.47,21-1,31.12,5.23,9.63,13.69,15,25.28,15.92a29.83,29.83,0,0,0,9.27,24.59c6.52,6.33,14.75,9.12,24.48,8.34a30,30,0,0,0,10.94,22.33c6.64,5.57,14.45,7.81,23.73,6.82a30.49,30.49,0,0,0,30.56,28.47c.65,0,1.3,0,2-.06,8.15-.51,15.52-4.17,21.87-10.84,3-3.19,5.88-4,10.84-2.93h.22c10.61,2.2,21.61,4.46,33,3.34,11.65-1.13,19.66-7.45,23.2-18.26.72-2.2,1.2-4.43,1.73-6.6,9.91,1.13,18.06-1,24.86-6.45,7.38-5.94,10.84-13.93,10.36-23.78,21-2.57,29.59-11.19,33.23-33.15.92.17,1.85.31,2.78.44,15,2.19,25.84-4.38,30.61-18.52a32.48,32.48,0,0,0-.46-22c5-4.46,9.78-8.94,14.85-13.69l1.91-1.78,1.21,2c4.61,7.86,10.37,9.44,18.14,4.95l52.74-30.46C507.62,160.71,509,155.2,504.3,147ZM71.8,189.33,19.21,158.92c25.59-44.32,51-88.39,76.64-132.77l52.58,30.44ZM138,223.26c-1.06.91-2.11,1.86-3.13,2.8a69.09,69.09,0,0,1-7.23,6,33.84,33.84,0,0,1-6.31,3.16c-.42.16-.8.32-1.2.49-7.22-.67-11.23-3.17-13.58-8.43a12.88,12.88,0,0,1,2.79-14.56,154.87,154.87,0,0,1,12-10.31,13.13,13.13,0,0,1,8.08-2.75,13.33,13.33,0,0,1,8.58,23.6Zm18.29,42.34a13,13,0,0,1-9.7,3.07,13.52,13.52,0,0,1-9.21-4.95,13.26,13.26,0,0,1,1.82-18.64l.08-.07,13-11.29c7.5-6.51,15.26-13.24,22.87-19.82a13,13,0,0,1,8.61-3.46,14,14,0,0,1,6.08,1.48,12.35,12.35,0,0,1,7.62,11.24c-.13,5-1.44,8.19-4.43,10.78l-3.43,3c-10.86,9.45-22.12,19.24-33.34,28.68Zm33.17,29.65c-5.21,4.28-13.24,3.36-18-2s-4.41-13.58.51-18.06c9.82-8.9,20.39-18,31.38-26.92a15.32,15.32,0,0,1,5.13-2.22l1.2-.38c7.22.47,11.26,2.94,13.68,8.37a12.63,12.63,0,0,1-2.86,14.44c-11.77,10.58-21.65,19.08-31.07,26.8ZM242,307.88a191.86,191.86,0,0,1-18.53,16,16.08,16.08,0,0,1-5,2c-.77.23-1.57.47-2.4.75-5.87-.86-10.42-4.3-12.3-9.32a13,13,0,0,1,3.76-14.71c6.39-5.59,11.32-9.82,15.95-13.73a13.23,13.23,0,0,1,18.06,1c5,5,5.13,13.33.47,18Zm153.4-89.39a6.69,6.69,0,0,1-.14,1c-.05.33-.08.48-.12.72a2.62,2.62,0,0,1-.14.63,3.68,3.68,0,0,1-.17.73,10.05,10.05,0,0,1-.51,1.52,4.41,4.41,0,0,1-.24.54v.1a2.84,2.84,0,0,1-.33.56,1.05,1.05,0,0,1-.2.34,3.78,3.78,0,0,1-.4.56,6.17,6.17,0,0,1-1.2,1.14,6.46,6.46,0,0,1-.71.44,5.39,5.39,0,0,1-.76.38h0a6.34,6.34,0,0,1-.83.3,4.24,4.24,0,0,1-.61.17,3.1,3.1,0,0,1-.51.11c-.26.05-.52.1-.79.13h-3.6a30.49,30.49,0,0,1-15.3-5.11c-16-10.29-32.4-20.7-48.15-30.78l-14.45-9.17-.51-.32a22.89,22.89,0,0,0-3-1.73,8,8,0,0,0-10.51,3.06,8.25,8.25,0,0,0,1.12,10.83,14.33,14.33,0,0,0,2.72,2l13.69,8.73c15.73,10,32,20.46,48,30.53a5.41,5.41,0,0,1,2.85,4,18.42,18.42,0,0,1-3.31,13.6,16.38,16.38,0,0,1-10.54,7c-2.93.45-5.87-.33-9.53-2.51q-23.43-14-47-27.93l-11.48-6.82-.66-.41a18,18,0,0,0-3-1.44,8.53,8.53,0,0,0-8.88,14.2,14,14,0,0,0,2.78,1.94l13.18,7.83c14,8.33,28.45,16.93,42.61,25.48a4.11,4.11,0,0,1,1.41,2,23.55,23.55,0,0,1,1,7.41,10.89,10.89,0,0,1-3.87,7.77A13.63,13.63,0,0,1,313.08,291a25.38,25.38,0,0,1-7.86-2.24c-7.81-3.72-15.66-7.66-23.28-11.48l-8.85-4.42-2-.95c-6.52-3.08-10.83-.16-12.57,3.25-1.9,3.83-1.13,9,4.93,12q5.74,2.93,11.41,5.69l4,2c1.28.62,2.54,1.27,3.82,1.92,3.11,1.59,6.32,3.23,9.63,4.67a2.4,2.4,0,0,1,.53.27.32.32,0,0,1-.06.23,6.91,6.91,0,0,0-.32,1.86V304c-1.21,9-4.28,11.74-13,11.74h-.27a73.11,73.11,0,0,1-9.69-.73c-3.44-.47-6.9-1.08-10.52-1.7a30.58,30.58,0,0,0-12.9-41.29,31.17,31.17,0,0,0-6.26-2.45,31.43,31.43,0,0,0-3-27,30.94,30.94,0,0,0-22.57-14.06,5.42,5.42,0,0,0,0-.57,40.76,40.76,0,0,0-.34-10.05,30.08,30.08,0,0,0-19.32-22.87,30.5,30.5,0,0,0-29.88,5.07c-2,1.6-4,3.27-5.89,4.88-3.16-11.24-10.74-18.67-22.17-21.67-13.67-3.55-23.85,2.82-31.49,9.9L93,179.39,149.21,82l32.4,16.09c-1.37,1.87-2.83,3.88-4.29,5.91l-3.52,4.81c-2.41,3.27-4.9,6.64-7.23,10-3.51,5-4.36,10.84-2.56,17.57a35,35,0,0,0,21.58,23.33c10.56,4.08,21.67,3.12,30.52-2.62,5.91-3.83,11-8.74,16-13.5L234,141.8c3-2.84,5.79-5.87,8.52-8.79,2.41-2.58,4.89-5.23,7.42-7.71a59.56,59.56,0,0,1,8.86-6.78c1.45-.93,3.46-1.64,7.34.21,16.62,7.92,31.93,18.27,44.72,27.36q22.52,16.11,45.08,32l31.31,22.15c6.34,4.53,9,10.48,8.16,18.16ZM420,175.56c-4.62,7.86-11.42,13.57-18,18.65-22.8-16.16-45.26-32.12-67.78-48-10-7-19.84-14.25-30.16-20.73-10.92-6.84-22.24-13-33.53-19.26-5.36-2.94-11-2.64-16.63-.2-7.35,3.15-12.58,8.86-18.05,14.38-7.52,7.59-15,15.26-22.72,22.58-8,7.56-17.21,7-26.49,2.54-5.92-2.86-9.18-7.93-10.11-14.35a7,7,0,0,1,1-4.62C188.37,111.64,199,96.61,210.2,82c6.8-8.87,17.08-11.41,27.58-13.18,18.76-3.17,37.6-3.29,56.58-2.59C316,67,337.55,67.53,359.15,68a4.13,4.13,0,0,1,4.16,2.29q28.51,49.58,57.23,99c1.39,2.48.53,4.31-.6,6.21ZM441.58,179,368.67,52.77l46.05-26.59,72.9,126.25Z" fill="#121d3f"/></svg>