<svg id="Layer_1" data-name="Layer 1" xmlns="http://www.w3.org/2000/svg" viewBox="0 0 512 512"><path d="M474.94,54.28c0-10.31-4.88-15.18-15.16-15.18-43.62,0-87.25,0-130.85-.07a18.47,18.47,0,0,0-14,5.85Q180.12,179.78,45.25,314.64c-3,3.05-5.5,6.72-8.25,10.1v6.85c2.75,3.35,5.23,7,8.28,10.05q63.45,63.6,127.08,127.07c3.07,3,6.7,5.52,10,8.26h6.85c2.47-1.82,5.23-3.35,7.38-5.5Q333.1,335.18,469.45,198.83A17.58,17.58,0,0,0,475,185.54Q474.85,119.9,474.94,54.28ZM422.88,178,212.65,388.22a58.85,58.85,0,0,1-83.27,0l-4.65-4.63a58.89,58.89,0,0,1,0-83.27L335,90.09a58.85,58.85,0,0,1,83.27,0l4.65,4.65A58.86,58.86,0,0,1,422.88,178Z" fill="#4bc6f6"/><path d="M420,106.87a13.15,13.15,0,0,1-12.91,12.76,12.58,12.58,0,0,1-12.68-12.76,12.72,12.72,0,0,1,12.72-12.82C414,94.06,420.08,100.08,420,106.87Z" fill="#fff"/><path d="M422.88,94.74l-4.65-4.65a58.85,58.85,0,0,0-83.27,0L124.73,300.32a58.89,58.89,0,0,0,0,83.27l4.65,4.63a58.85,58.85,0,0,0,83.27,0L422.88,178A58.86,58.86,0,0,0,422.88,94.74Zm-15.72-.69c6.86,0,12.92,6,12.87,12.82a13.15,13.15,0,0,1-12.91,12.76,12.58,12.58,0,0,1-12.68-12.76A12.72,12.72,0,0,1,407.16,94.05Z" fill="#fff"/><path d="M420,106.87a13.15,13.15,0,0,1-12.91,12.76,12.58,12.58,0,0,1-12.68-12.76,12.72,12.72,0,0,1,12.72-12.82C414,94.06,420.08,100.08,420,106.87Z" fill="#4bc6f6"/><circle cx="182.11" cy="330.85" r="23.42" fill="#122230"/><circle cx="267.52" cy="245.45" r="23.42" fill="#122230"/><circle cx="352.92" cy="160.04" r="23.42" fill="#122230"/></svg>