<svg id="Layer_1" data-name="Layer 1" xmlns="http://www.w3.org/2000/svg" viewBox="0 0 246.27 334.78"><g id="Layer_2" data-name="Layer 2"><g id="Layer_1-2" data-name="Layer 1-2"><path d="M122.06,104.82h85.78c11.61,0,17.6,6.57,16.82,18.11q-3.41,50.19-6.63,100.38-2.84,43-5.79,85.89c-.64,9.31-4.33,14.45-11.55,16.21a22.73,22.73,0,0,1-5.27.47H49c-10.53,0-16.1-5.4-16.8-15.86q-3.71-55.14-7.51-110.28c-1.71-25.21-3.47-50.42-5-75.65a25.06,25.06,0,0,1,1.32-10.69c2.53-6.24,8-8.61,14.57-8.61Q78.86,104.87,122.06,104.82Z" fill="#f27366"/><path d="M60.17,35.61V8.87H185.39V35.58h54.35V76.75H6.53V35.61Z" fill="#f27366"/></g></g></svg>