<svg id="Layer_1" data-name="Layer 1" xmlns="http://www.w3.org/2000/svg" viewBox="0 0 512 512"><path d="M448,85.33H381.87A106.86,106.86,0,0,0,277.33,0H234.67A106.86,106.86,0,0,0,130.13,85.33H64A21.34,21.34,0,0,0,64,128H85.33V405.33A106.8,106.8,0,0,0,192,512H320A106.8,106.8,0,0,0,426.67,405.33V128H448a21.34,21.34,0,0,0,0-42.67ZM234.67,42.67h42.66a64.13,64.13,0,0,1,60.36,42.66H174.31A64.13,64.13,0,0,1,234.67,42.67ZM384,405.33a64,64,0,0,1-64,64H192a64,64,0,0,1-64-64V128H384Z" fill="#162143"/><path d="M213.33,384a21.33,21.33,0,0,0,21.34-21.33v-128a21.34,21.34,0,1,0-42.67,0v128A21.33,21.33,0,0,0,213.33,384Z" fill="#f27366"/><path d="M298.67,384A21.33,21.33,0,0,0,320,362.67v-128a21.34,21.34,0,1,0-42.67,0v128A21.33,21.33,0,0,0,298.67,384Z" fill="#f27366"/></svg>