<svg id="Layer_1" data-name="Layer 1" xmlns="http://www.w3.org/2000/svg" viewBox="0 0 512 512"><path d="M475,243.05v26.53c-.66,5.35-1.22,10.7-2,16-6.24,43.61-23.51,82.25-52.8,115.22-34,38.3-76.38,62.06-127,70.85-8.11,1.4-16.33,2.23-24.5,3.32H243c-2.81-.33-5.62-.68-8.43-1-46.54-5-88.15-22-123-53.36C53.82,368.53,29.7,303.09,39,225.94c5.19-43.11,22.56-81.57,51.72-113.81C146.35,50.6,215.74,26.78,297.37,41c47.71,8.3,87.84,31.64,120.5,67.41a213.41,213.41,0,0,1,53.74,110.2C473,226.7,473.85,234.9,475,243.05Zm-29.19,13.06A189.9,189.9,0,0,0,255.66,66C151.07,66,66,151.06,66,255.67a189.88,189.88,0,0,0,190.1,190.14C360.68,445.8,445.75,360.72,445.76,256.11Z" fill="#549e6d"/><path d="M175,351c-5.76-.15-10.15-2.71-12.72-7.88s-2-10.23,1.36-14.91a31.42,31.42,0,0,1,3.18-3.46q78.93-79,157.85-157.92c3.32-3.33,6.83-6,11.81-6,5.81,0,10.19,2.56,12.84,7.69,2.73,5.29,2.16,10.47-1.39,15.26a33.41,33.41,0,0,1-3.19,3.44Q266,266,187.21,344.81C183.78,348.24,180.21,351.12,175,351Z" fill="#549e6d"/><path d="M251,170.15a42.75,42.75,0,0,1-42.48,42.93c-23.42.27-43.07-19.18-43.19-42.76a42.84,42.84,0,0,1,85.67-.17Zm-56.94,0a14.22,14.22,0,0,0,14.31,14.38A14.3,14.3,0,1,0,194,170.14Z" fill="#549e6d"/><path d="M312.87,374.94a42.83,42.83,0,0,1,.4-85.65,42.83,42.83,0,1,1-.4,85.65Zm14.36-42.17a14.16,14.16,0,0,0-13.78-14.86,14.37,14.37,0,0,0-14.67,13.64,14.53,14.53,0,0,0,13.87,14.91A14.32,14.32,0,0,0,327.23,332.77Z" fill="#549e6d"/></svg>