<svg id="Layer_1" data-name="Layer 1" xmlns="http://www.w3.org/2000/svg" viewBox="0 0 115.14 222.28"><g id="Layer_2" data-name="Layer 2"><g id="Layer_1-2" data-name="Layer 1-2"><path d="M56.35,218.19c-2.5,0-5,.08-7.5,0-4-.17-6.07-2.15-6.22-6.16-.17-4.19,0-8.4-.18-12.61-.16-4.81-1-5.42-5.57-6.6-8.6-2.18-17.15-4.59-25.69-7a20.92,20.92,0,0,1-3.66-1.36,20,20,0,0,1-2.06-1.19c-2.57-1.44-3.93-3.63-3.16-6.52,1.92-7.23,3.85-14.46,6.16-21.56,1.06-3.26,2.77-3.33,6.64-1.87,7.31,2.76,14.57,5.78,22.06,7.82,8.5,2.32,17.22,3,25.83-.18,5.89-2.17,10.46-5.68,11.62-12.18,1.23-6.74-1.53-12.32-7.16-15.75-6.06-3.69-12.68-6.48-19.07-9.64-8.32-4.12-17-7.57-24.9-12.45C-7.67,91.56-.75,47.38,29.72,34.08c3.43-1.49,6.92-2.89,10.42-4.2a5.64,5.64,0,0,0,4.13-5.6c0-4.65.1-9.31.29-14s1.44-6,5.88-6.18C55.32,4,60.22,4,65.09,4.19c4.07.18,5.52,1.6,5.89,5.61.33,3.72.19,7.49.33,11.24.16,4.81,1.21,5.71,5.84,6.86,7.79,1.92,15.62,3.85,23.24,6.33,5.66,1.84,6.53,4.23,4.88,10q-2.16,7.52-4.48,15c-2,6.5-3.42,7.13-9.52,4.31a66.25,66.25,0,0,0-32.44-6.22,28.14,28.14,0,0,0-9.23,2c-9.82,4.24-11.35,15.5-2.76,21.85,4.82,3.54,10.3,6.14,15.7,8.73,7.71,3.69,15.73,6.55,23.22,10.54,17.56,9.36,27.48,23.92,27.28,44.17S99.36,182.2,79.43,188.78c-1.18.39-2.4.7-3.57,1.11-4.07,1.44-5.46,3.25-5.57,7.54-.13,4.82,0,9.54-.21,14.31-.17,4.57-2,6.3-6.57,6.43-2.38.06-4.77,0-7.16,0Z" fill="#5cb9ff"/></g></g></svg>