<svg xmlns="http://www.w3.org/2000/svg" width="22.815" height="20.032" viewBox="0 0 22.815 20.032">
  <g id="Group_469" data-name="Group 469" transform="translate(4733.281 -4728.056)">
    <path id="Path_398" data-name="Path 398" d="M-4710.465,4735.167v5.792a.168.168,0,0,0-.02.04,2.018,2.018,0,0,1-2.2,1.735c-.261-.017-.343.12-.445.3a10,10,0,0,1-11,4.782,9.91,9.91,0,0,1-6.428-4.7.662.662,0,0,0-.666-.387,1.981,1.981,0,0,1-2.053-2.029c-.012-1.759-.008-3.519,0-5.278a1.972,1.972,0,0,1,.823-1.647,2.074,2.074,0,0,1,1.407-.386.375.375,0,0,0,.4-.231,7.592,7.592,0,0,1,.608-.956,9.922,9.922,0,0,1,9.841-4.009,9.6,9.6,0,0,1,7.052,4.882.533.533,0,0,0,.55.315,1.885,1.885,0,0,1,1.727.825A5.173,5.173,0,0,1-4710.465,4735.167Zm-21.438,1.788-.036.006v3.575c0,.644.225.869.87.869h18.4c.082,0,.164,0,.245,0a.646.646,0,0,0,.616-.621c.01-1.269,0-2.538,0-3.808,0,0-.009-.007-.027-.018l-.056.112c-.421.842-.844,1.684-1.262,2.527a.71.71,0,0,1-.645.469.7.7,0,0,1-.663-.476c-.1-.2-.2-.4-.3-.6l-.382-.752c-.056.1-.093.163-.125.227-.211.417-.412.839-.634,1.25a.639.639,0,0,1-.692.343.652.652,0,0,1-.584-.5,1.276,1.276,0,0,0-.091-.227q-.475-.957-.954-1.91c-.085-.168-.18-.331-.278-.51-.461.922-.91,1.817-1.355,2.713a.685.685,0,0,1-.637.442.685.685,0,0,1-.637-.443c-.2-.406-.4-.81-.607-1.212a1.88,1.88,0,0,0-.1-.159c-.236.472-.447.921-.687,1.354a1.019,1.019,0,0,1-.367.394.652.652,0,0,1-.9-.361c-.483-.9-.96-1.8-1.459-2.733-.257.506-.5.986-.747,1.469a12.509,12.509,0,0,0-.545,1.141.74.74,0,0,1-.628.547.685.685,0,0,1-.724-.441c-.206-.4-.406-.809-.61-1.212-.024-.048-.06-.091-.1-.158-.243.486-.472.943-.7,1.4a.668.668,0,0,1-.631.416.667.667,0,0,1-.612-.411c-.077-.152-.153-.305-.229-.458Q-4731.345,4738.075-4731.9,4736.955Zm18.1.949c.246-.49.471-.93.686-1.374a.707.707,0,0,1,.623-.467.664.664,0,0,1,.652.417c0,.007.023.006.045.011v-.913c0-.626-.231-.855-.86-.855h-18.415c-.083,0-.164,0-.245,0a.638.638,0,0,0-.6.56c-.027.4-.006.8-.006,1.272a.7.7,0,0,1,.684-.5.728.728,0,0,1,.644.5c.174.369.362.73.545,1.1.034.067.073.132.115.208a.389.389,0,0,0,.05-.057c.21-.417.425-.832.627-1.252a.725.725,0,0,1,.672-.5.717.717,0,0,1,.656.487c.19.394.388.783.585,1.173a1.724,1.724,0,0,0,.1.152c.051-.1.089-.172.125-.246.192-.383.379-.771.579-1.152a.693.693,0,0,1,1.065-.271,1.42,1.42,0,0,1,.22.265,2.287,2.287,0,0,1,.454-.36.637.637,0,0,1,.844.37c.259.475.511.954.78,1.458.248-.493.486-.96.718-1.43a.687.687,0,0,1,.635-.446.68.68,0,0,1,.639.438c.155.32.318.637.478.955.068.134.139.268.228.44.24-.48.453-.918.679-1.35a1.078,1.078,0,0,1,.246-.336c.35-.292.785-.157,1.059.315a.9.9,0,0,0,.049-.075.683.683,0,0,1,1.21-.051c.122.194.213.407.317.612.142.282.283.563.44.878.056-.1.095-.159.126-.221.189-.378.38-.755.564-1.135a.706.706,0,0,1,.645-.469.708.708,0,0,1,.663.474C-4714.274,4736.976-4714.053,4737.412-4713.808,4737.9Zm-8.692-8.415c-1.476.339-2.834,2.3-3.3,3.878h3.3Zm-3.313,13.261a.412.412,0,0,0,.009.065c.076.192.146.388.23.576a6.665,6.665,0,0,0,2.025,2.737,3.055,3.055,0,0,0,1.041.521v-3.9Zm4.661-9.373h3.243c-.078-.2-.145-.4-.226-.588a6.669,6.669,0,0,0-1.958-2.762,2.731,2.731,0,0,0-1.058-.544Zm0,9.373v3.925c1.813-.729,2.586-2.263,3.25-3.925Zm6.638-9.366a8.567,8.567,0,0,0-3.442-3.065c.139.253.319.48.439.736.331.709.635,1.432.956,2.146.031.07.1.175.152.176C-4715.787,4733.388-4715.167,4733.384-4714.51,4733.384Zm0,9.357c-.618,0-1.195.008-1.77,0a.255.255,0,0,0-.294.215,10.389,10.389,0,0,1-1.348,2.763c-.018.026-.03.057-.068.131A8.828,8.828,0,0,0-4714.509,4742.741Zm-14.723-9.356c.624,0,1.207-.006,1.79,0,.156,0,.208-.059.267-.191.319-.732.644-1.463.987-2.184a6.118,6.118,0,0,1,.436-.676A8.376,8.376,0,0,0-4729.231,4733.385Zm3.471,12.44c-.288-.5-.587-.958-.826-1.448s-.418-1.028-.635-1.54a.247.247,0,0,0-.189-.093c-.437-.007-.876,0-1.313,0h-.508A8.777,8.777,0,0,0-4725.76,4745.825Z" fill="#162143"/>
    <path id="Path_399" data-name="Path 399" d="M-4709.213,4886.627q.56,1.118,1.12,2.238c.077.152.152.306.229.458a.672.672,0,0,0,.613.411.669.669,0,0,0,.631-.417c.23-.457.458-.914.7-1.4.043.067.078.11.1.158.2.4.4.809.609,1.211a.687.687,0,0,0,.725.442.74.74,0,0,0,.627-.547,12.214,12.214,0,0,1,.546-1.142c.241-.483.488-.963.746-1.47.5.935.977,1.835,1.46,2.733a.65.65,0,0,0,.9.361,1.015,1.015,0,0,0,.368-.393c.24-.434.451-.883.688-1.355.044.068.079.111.1.159.2.4.41.807.608,1.213a.686.686,0,0,0,.636.444.687.687,0,0,0,.638-.443c.444-.9.894-1.79,1.355-2.713.1.179.192.342.277.51.321.635.637,1.272.955,1.91a1.2,1.2,0,0,1,.09.226.651.651,0,0,0,.584.5.638.638,0,0,0,.691-.342c.222-.411.423-.833.634-1.25.033-.064.069-.125.126-.227.138.271.26.511.381.753.1.2.2.4.3.6a.706.706,0,0,0,.664.475.708.708,0,0,0,.644-.469c.418-.844.841-1.685,1.262-2.527l.055-.111c.019.01.029.014.029.017,0,1.27.008,2.54,0,3.809a.645.645,0,0,1-.617.62c-.081.006-.164,0-.245,0h-18.4c-.645,0-.869-.224-.869-.869v-3.574Z" transform="translate(-22.692 -149.671)" fill="#f27366"/>
    <path id="Path_400" data-name="Path 400" d="M-4691.088,4850.691c-.246-.492-.466-.928-.682-1.367a.708.708,0,0,0-.662-.474.705.705,0,0,0-.645.47c-.185.38-.375.757-.564,1.134-.031.064-.07.124-.126.222-.158-.314-.3-.6-.44-.877-.1-.205-.2-.417-.316-.612a.683.683,0,0,0-1.21.05c-.015.026-.033.05-.05.076-.273-.472-.709-.607-1.059-.315a1.117,1.117,0,0,0-.246.336c-.225.432-.438.87-.679,1.351-.089-.172-.159-.306-.227-.44-.161-.318-.322-.634-.478-.955a.683.683,0,0,0-.64-.438.685.685,0,0,0-.635.446c-.231.469-.47.936-.718,1.429-.271-.505-.521-.984-.78-1.458a.636.636,0,0,0-.844-.37,2.253,2.253,0,0,0-.454.359,1.439,1.439,0,0,0-.22-.264.694.694,0,0,0-1.065.271c-.2.38-.387.768-.579,1.152-.036.073-.074.144-.125.245a1.6,1.6,0,0,1-.1-.151c-.2-.39-.4-.78-.586-1.174a.714.714,0,0,0-.655-.486.726.726,0,0,0-.673.5c-.2.42-.417.836-.626,1.252-.006.013-.02.022-.051.056-.042-.075-.082-.14-.116-.208-.182-.364-.37-.726-.544-1.094a.73.73,0,0,0-.645-.5.7.7,0,0,0-.685.5c0-.467-.02-.871.007-1.273a.637.637,0,0,1,.6-.559c.081-.007.163,0,.244,0h18.415c.63,0,.86.229.86.855v.913c-.021,0-.041,0-.044-.011a.666.666,0,0,0-.653-.417.705.705,0,0,0-.622.466C-4690.617,4849.76-4690.842,4850.2-4691.088,4850.691Z" transform="translate(-22.72 -112.787)" fill="#f27366"/>
    <path id="Path_401" data-name="Path 401" d="M-4595.935,4753.734v3.879h-3.3C-4598.768,4756.035-4597.41,4754.074-4595.935,4753.734Z" transform="translate(-126.566 -24.245)" fill="#e4e5e6"/>
    <path id="Path_402" data-name="Path 402" d="M-4599.459,4991.412h3.306v3.9a3.042,3.042,0,0,1-1.04-.521,6.666,6.666,0,0,1-2.026-2.737c-.084-.188-.154-.384-.23-.577A.473.473,0,0,1-4599.459,4991.412Z" transform="translate(-126.355 -248.662)" fill="#e4e5e6"/>
    <path id="Path_403" data-name="Path 403" d="M-4515.915,4757.536v-3.894a2.743,2.743,0,0,1,1.058.545,6.676,6.676,0,0,1,1.958,2.762c.082.188.149.383.226.587Z" transform="translate(-205.237 -24.158)" fill="#e4e5e6"/>
    <path id="Path_404" data-name="Path 404" d="M-4515.835,4991.411h3.249c-.663,1.662-1.436,3.2-3.249,3.924Z" transform="translate(-205.313 -248.661)" fill="#e4e5e6"/>
    <path id="Path_405" data-name="Path 405" d="M-4455.128,4771.687c-.658,0-1.277,0-1.9-.007-.053,0-.121-.106-.152-.176-.321-.714-.625-1.436-.957-2.145-.12-.256-.3-.484-.438-.737A8.56,8.56,0,0,1-4455.128,4771.687Z" transform="translate(-259.382 -38.303)" fill="#e4e5e6"/>
    <path id="Path_406" data-name="Path 406" d="M-4455.73,4991.153a8.834,8.834,0,0,1-3.479,3.1c.038-.074.05-.105.068-.132a10.33,10.33,0,0,0,1.348-2.763.255.255,0,0,1,.293-.215C-4456.925,4991.16-4456.35,4991.153-4455.73,4991.153Z" transform="translate(-258.778 -248.413)" fill="#e4e5e6"/>
    <path id="Path_407" data-name="Path 407" d="M-4660.7,4772.01a8.365,8.365,0,0,1,3.478-3.046,5.86,5.86,0,0,0-.435.676c-.343.721-.667,1.451-.987,2.184-.059.133-.111.194-.267.191C-4659.493,4772-4660.077,4772.01-4660.7,4772.01Z" transform="translate(-68.532 -38.626)" fill="#e4e5e6"/>
    <path id="Path_408" data-name="Path 408" d="M-4657.241,4994.307a8.781,8.781,0,0,1-3.471-3.085h.508c.438,0,.876,0,1.314,0a.247.247,0,0,1,.189.093c.217.511.394,1.041.635,1.54S-4657.529,4993.808-4657.241,4994.307Z" transform="translate(-68.52 -248.481)" fill="#e4e5e6"/>
  </g>
</svg>
