<svg id="Layer_1" data-name="Layer 1" xmlns="http://www.w3.org/2000/svg" viewBox="0 0 379.35 350.08"><g id="Layer_2" data-name="Layer 2"><g id="Layer_1-2" data-name="Layer 1-2"><path d="M374.37,322.29a26.42,26.42,0,0,1-2.86,12.33,15.92,15.92,0,0,1-1,1.74,20,20,0,0,1-16.81,9.05h-2.92q-161,0-322.07.06c-9.53,0-17-3.19-21.32-11.82a23.68,23.68,0,0,1-2.24-10q-.29-35-.07-70C5.12,240.94,13.94,232,26.61,232q50.33-.19,100.63,0a6.81,6.81,0,0,1,4.27,1.94c8.56,8.44,17,17,25.47,25.54,20,20.12,45.23,20.21,65.24.22,8.5-8.5,16.93-17.08,25.58-25.43a8.88,8.88,0,0,1,5.56-2.27c31.49-.14,63-.1,94.46-.1,8,0,13.17.76,17.05,3.35a17.89,17.89,0,0,1,4.35,4.3,26.52,26.52,0,0,1,5.12,16.4S374.65,290.89,374.37,322.29Zm-42.63-33.53A14.36,14.36,0,0,0,317.55,303a14.21,14.21,0,1,0,14.19-14.22Zm-56.85,0a14.18,14.18,0,1,0,14.18,15.7A14.19,14.19,0,0,0,274.89,288.76Z" fill="#03c4f7"/><path d="M147.14,118.12V20.92c0-10.71,5.49-16.33,16.11-16.33h53c10.43,0,16,5.63,16,16V118.1h55.26c8.81,0,13.68,3.9,15.58,12a11.42,11.42,0,0,1-2.27,10.15,45.7,45.7,0,0,1-3.6,4q-47.92,48-95.89,95.9c-8,8-15.29,8-23.37-.08q-48.19-48.18-96.4-96.4c-7.5-7.5-7.79-16.68,0-22.4,2.83-2.08,7.1-3,10.71-3.07,16.83-.31,33.66-.14,50.49-.14Z" fill="#03c4f7"/><path d="M331.74,288.76A14.21,14.21,0,1,1,317.53,303a14.32,14.32,0,0,1,14.21-14.2Z" fill="#fff"/><path d="M274.89,288.76a14.38,14.38,0,0,1,14.26,14.16,14.18,14.18,0,0,1-28.36.1h0A14.19,14.19,0,0,1,274.89,288.76Z" fill="#fff"/></g></g></svg>