<svg id="Layer_1" data-name="Layer 1" xmlns="http://www.w3.org/2000/svg" viewBox="0 0 512 512"><path d="M6,255.77C6.41,117.51,118.77,5.6,256.74,6,394.1,6.49,506.64,119.48,506,256.3,505.34,395.69,392.79,506.77,253.06,506,117.22,505.16,5.6,392.13,6,255.77ZM256.13,51.56c-112.78,0-204.58,91.49-204.62,203.89,0,113.17,91.39,205.05,204,205,113.21,0,204.89-91.62,204.94-204.75C460.54,143.32,368.69,51.55,256.13,51.56Z" fill="#101d3e"/><path d="M233.42,187.79c0-23.06-.17-46.12.08-69.17a22,22,0,0,1,19.34-21.33c11.67-1.31,21.89,5.18,24.86,16.18a38.86,38.86,0,0,1,.89,10q.09,58.8,0,117.6a11.78,11.78,0,0,0,3.86,9.28q28.58,28.25,56.86,56.78c6.37,6.39,8.89,14,6.39,22.84-2.44,8.61-8.22,14-16.84,16a21.06,21.06,0,0,1-20.6-5.74q-34.38-34.1-68.5-68.47c-4.78-4.79-6.42-10.76-6.39-17.47.11-22.17,0-44.34,0-66.51Z" fill="#f37366"/></svg>