<svg id="Layer_1" data-name="Layer 1" xmlns="http://www.w3.org/2000/svg" viewBox="0 0 318.88 327.25"><g id="Layer_2" data-name="Layer 2"><g id="Layer_1-2" data-name="Layer 1-2"><g id="Layer_2-2" data-name="Layer 2-2"><g id="Layer_1-2-2" data-name="Layer 1-2-2"><path d="M182.66,70.15l65.78,66.68c-1,1-1.85,2-2.76,2.94Q182.4,203.08,119.06,266.38a25.87,25.87,0,0,1-6.27,5c-29.29,14.63-58.57,29.24-88,43.57a15,15,0,0,1-20.11-6.81A14.82,14.82,0,0,1,3.34,304a17.75,17.75,0,0,1,1.33-10.24c14.2-29.23,28.68-58.31,43.15-87.38a21.62,21.62,0,0,1,4.1-5.58q64.44-64.54,129-129C181.37,71.28,181.91,70.84,182.66,70.15Z" fill="#f27366"/><path d="M271,113.58,205.1,47.71c.6-.68,1.27-1.5,2-2.25,9.16-9.33,18.22-18.78,27.54-27.95,13.25-13,29.11-17.41,46.92-12.2s28.79,17.48,32.82,35.53c3.32,14.9,0,28.77-10.26,40C293.69,92.26,282.11,102.67,271,113.58Z" fill="#162143"/><path d="M233.45,207.37h60.74a21.57,21.57,0,0,1,21.58,21.57h0a21.58,21.58,0,0,1-21.58,21.57H233.45a21.57,21.57,0,0,1-21.57-21.57h0A21.57,21.57,0,0,1,233.45,207.37Z" fill="#2ba5dd"/><rect x="133.41" y="280.89" width="182.37" height="43.19" rx="21.59" fill="#162143"/></g></g></g></g></svg>