<svg id="Layer_1" data-name="Layer 1" xmlns="http://www.w3.org/2000/svg" viewBox="0 0 490.8 490.5"><g id="Layer_2" data-name="Layer 2"><g id="Layer_1-2" data-name="Layer 1-2"><path d="M303.6,89.2l97.7,97.7a3.42,3.42,0,0,1,.1,4.7,11.41,11.41,0,0,1-1.1,1.1Q271.75,321.25,143,449.6a24,24,0,0,1-10.3,5.8Q76.75,469.65,20.6,483.5c-10,2.4-16.2-3.8-13.7-13.9Q21,412.9,35.2,356.1a16.23,16.23,0,0,1,4.3-7.5Q169.25,218.85,298.9,89.1h0A3.32,3.32,0,0,1,303.6,89.2Z" fill="#2ba5dd"/></g></g><path d="M426.2,160.2,330.1,64.1a4.23,4.23,0,0,1,0-5.9l38.4-38.4a50.82,50.82,0,0,1,71.8,0L470.6,50a50.82,50.82,0,0,1,0,71.8l-38.4,38.4A4.35,4.35,0,0,1,426.2,160.2Z" fill="#162143"/></svg>