<?xml version="1.0" encoding="utf-8"?>
<!-- Generator: Adobe Illustrator 26.0.2, SVG Export Plug-In . SVG Version: 6.00 Build 0)  -->
<svg version="1.1" id="Layer_1" xmlns="http://www.w3.org/2000/svg" xmlns:xlink="http://www.w3.org/1999/xlink" x="0px" y="0px"
	 viewBox="0 0 512 512" style="enable-background:new 0 0 512 512;" xml:space="preserve">
<style type="text/css">
	.st0{fill-rule:evenodd;clip-rule:evenodd;fill:#122230;}
	.st1{fill-rule:evenodd;clip-rule:evenodd;fill:#F27366;}
	.st2{fill-rule:evenodd;clip-rule:evenodd;fill:#FFFFFF;}
</style>
<g id="Folder">
	<path class="st0" d="M500.9,100.2h-256V89.1c0-24.6-19.9-44.5-44.5-44.5l0,0H89.1c-24.6,0-44.5,19.9-44.5,44.5l0,0v55.6H11.1
		c-6.1,0-11.1,5-11.1,11.1c0,0,0,0,0,0v256c0,30.7,24.9,55.6,55.7,55.6h400.7c30.7,0,55.7-24.9,55.7-55.7l0,0V111.3
		C512,105.2,507,100.2,500.9,100.2C500.9,100.2,500.9,100.2,500.9,100.2z M55.7,445.2c-18.4,0-33.4-14.9-33.4-33.4l0,0V167h378.4
		v244.8c0,12.1,4,23.8,11.4,33.4L55.7,445.2z M489.7,411.8c0,18.4-15,33.4-33.4,33.4c-18.4,0-33.4-14.9-33.4-33.4v-256
		c0-6.1-5-11.1-11.1-11.1h-345V89.1c0-12.3,9.9-22.2,22.2-22.3h111.3c12.3,0,22.3,10,22.3,22.3v33.4h267.1L489.7,411.8z"/>
	<path class="st1" d="M489.7,122.4v289.4c0,18.4-15,33.4-33.4,33.4c-18.4,0-33.4-14.9-33.4-33.4v-256c0-6.1-5-11.1-11.1-11.1h-345
		V89.1c0-12.3,9.9-22.2,22.2-22.3h111.3c12.3,0,22.3,10,22.3,22.3v33.4H489.7z"/>
	<path class="st2" d="M412.1,445.2H55.7c-18.4,0-33.4-14.9-33.4-33.4V167h378.4v244.8C400.7,423.9,404.7,435.6,412.1,445.2z"/>
</g>
</svg>
