<svg id="Layer_1" data-name="Layer 1" xmlns="http://www.w3.org/2000/svg" viewBox="0 0 512 512"><path d="M198.63,248.31c13.88-6.94,27.34-13.52,40.6-20.48a11.55,11.55,0,0,0,4.65-5.94c9.53-25.79,18.69-51.72,28.36-77.45A103.45,103.45,0,0,1,282.5,123.9c12.28-18.64,33.29-26.41,55.25-21.16,19.62,4.69,34.38,21.11,37.1,42.46,1.2,9.52,1.1,19.25,1.17,28.89.16,15.55,0,31.11,0,47.44H426.8c39.08.18,69.06,30.29,69.14,69.52q.12,59.31,0,118.62c-.12,48.72-37.67,86.49-86.19,86.61-50.76.13-101.43.43-152.13-.27-11.17-.16-22.37-3.88-33.38-6.63-9.32-2.33-18.41-5.63-27.59-8.6-3.5-1.11-6.1-.76-9.06,2.05-9.75,9.26-21.67,13.48-35.08,13.5H86.63c-27,.05-48.4-17.67-52.42-44.69-2.92-19.79-4.41-39.79-6.41-59.72C24,354.2,21.18,316.36,16.38,278.78A50.06,50.06,0,0,1,59.05,222.3a52,52,0,0,1,6-.47c30.35-.78,60.69-.61,91.07,0,16.47.32,29.63,8.29,39.27,21.79C196.42,245.07,197.37,246.55,198.63,248.31ZM334.35,462.06c24.82,0,49.66.07,74.46,0,30.84-.09,52.9-22.21,53-53.21q.12-58.23,0-116.48c0-21.93-14.35-36.41-36.16-36.41h-64.3c-12.79,0-19.51-6.73-19.52-19.51q0-38.07-.06-76.21a55.84,55.84,0,0,0-1-10.64c-1.64-8.4-5.52-12.59-12.31-13.67-8.4-1.35-14.16,1.21-18.41,8.68a80.12,80.12,0,0,0-5.74,12.14q-15.64,42.47-31,85.06a23.33,23.33,0,0,1-12.38,13.93c-17.47,8.55-34.78,17.4-52.21,26-2.59,1.28-4.11,2.54-4.1,5.92.13,52.07.06,104.14.22,156.2a5.72,5.72,0,0,0,3.11,4.26c9.41,3.31,19,6.13,28.46,9.3a89.58,89.58,0,0,0,30.45,4.81c22.41-.45,44.92-.17,67.42-.18Zm-164-102.72V275.62c0-13.16-6.62-19.64-19.86-19.66h-31.6c-17,0-33.92-.1-50.89,0-12.14.1-18.76,7.88-17.35,19.7.84,7.09,1.43,14.22,2.15,21.34q5.73,57.13,11.48,114.24c1.1,10.85,2,21.73,3.31,32.55,1.51,12.51,8.21,18.3,20.66,18.3h62.67c12.77,0,19.39-6.69,19.4-19.56Q170.34,401,170.31,359.34Z" fill="#121d3f"/><path d="M230.18,53.53c0-9.3,4.86-15.73,12.24-18s14.67.18,18.76,6.62a183.69,183.69,0,0,1,9.93,17.13c4.42,8.7,1.35,17.88-6.94,22.5S247,84.31,241.7,76.29c-3.5-5.36-6.62-11-9.63-16.65A26.07,26.07,0,0,1,230.18,53.53Z" fill="#2ca9e1"/><path d="M341.69,41.49c0,3,.12,6.08,0,9.11a16.55,16.55,0,0,1-16.8,16.3h-.24c-9.47,0-16.79-6.72-17.15-16.17-.23-6.23-.23-12.5,0-18.76a17.11,17.11,0,1,1,34.21-.13C341.83,35.06,341.69,38.28,341.69,41.49Z" fill="#121d3f"/><path d="M419.48,51.9c-.86,2.68-1.39,5.52-2.67,8q-4.17,8.09-9,15.83c-5.29,8.51-14.62,10.77-23.17,5.85-8.33-4.77-11-13.81-6.48-22.61q4.45-8.53,9.68-16.67a16.38,16.38,0,0,1,18.76-6.85A18.35,18.35,0,0,1,419.48,51.9Z" fill="#f67567"/><path d="M334.27,462.1c-22.5,0-45-.28-67.49.11a90.09,90.09,0,0,1-30.46-4.81c-9.47-3.17-19-6-28.46-9.31a5.68,5.68,0,0,1-3.11-4.26c-.15-52.06-.09-104.13-.22-156.2,0-3.38,1.51-4.63,4.1-5.91,17.43-8.64,34.74-17.49,52.21-26.05a23.31,23.31,0,0,0,12.38-13.92q15.24-42.62,31-85.07a82.46,82.46,0,0,1,5.74-12.13c4.25-7.47,10-10,18.42-8.69,6.74,1.11,10.67,5.28,12.3,13.67a56.75,56.75,0,0,1,1,10.64c.08,25.38,0,50.81.05,76.22,0,12.77,6.73,19.49,19.52,19.5h64.3c21.78,0,36.14,14.48,36.16,36.42q.06,58.23,0,116.48c0,31-22.07,53.12-53,53.21C383.92,462.15,359.09,462.09,334.27,462.1Z" fill="#fff"/><path d="M170.31,359.34v83.19c0,12.87-6.62,19.54-19.4,19.56H88.25c-12.46,0-19.16-5.79-20.67-18.3-1.31-10.82-2.21-21.7-3.31-32.55Q58.5,354.14,52.77,297c-.72-7.12-1.31-14.24-2.15-21.34C49.22,263.87,55.88,256.09,68,256c17-.13,33.93,0,50.89,0h31.6c13.24,0,19.86,6.5,19.86,19.66Q170.34,317.49,170.31,359.34Zm-51.44-52a17.13,17.13,0,0,0-34.21,0,17.37,17.37,0,0,0,17.46,17.28h0a17.2,17.2,0,0,0,16.75-17.28Z" fill="#2ca9e1"/><path d="M118.87,307.33a17.26,17.26,0,1,1-17.92-17h.8A17.19,17.19,0,0,1,118.87,307.33Z" fill="#fefefe"/></svg>