<svg id="Layer_1" data-name="Layer 1" xmlns="http://www.w3.org/2000/svg" viewBox="0 0 512 512"><path d="M324.51,419c0-10.59-.11-21.17.06-31.75.07-4.41-1.51-7.26-5.57-9.13-42.71-19.67-85.09-20.74-127.27,1.71-5.22,2.77-7.56,6-7.43,12.18.38,18.31-.11,36.63.28,54.93.12,5.45-2.1,7.92-6.71,9.56-11.75,4.16-23.9,6.65-36.13,8.77a337.24,337.24,0,0,1-57.07,5.3,85.14,85.14,0,0,1-23.44-2.73c-8.66-2.46-10.66-5.09-10.67-13.89,0-17.48.22-34.95-.09-52.42-.15-8.4,2.6-15.38,7.72-21.76,12.73-15.86,29-27.43,46.28-37.61a301.4,301.4,0,0,1,121.84-40.42c50-5.43,98,3,144.11,22.62,24.22,10.29,47.08,22.93,67.38,39.85,7.23,6,14,12.53,19.26,20.48a25.92,25.92,0,0,1,4.42,14.71c-.06,18.65-.16,37.3.06,55.94.06,5.94-2.49,9.43-7.76,11.55a57.8,57.8,0,0,1-19.16,3.84,334.64,334.64,0,0,1-97.79-10.2c-12.36-3.15-12.31-3.33-12.31-15.83Q324.52,431.81,324.51,419Z" fill="#2ba5dd"/><path d="M257,265.37A112,112,0,0,1,145,152.55C145.21,90.73,195.78,40.7,257.77,41c61.75.3,112.05,50.69,111.88,112.07A112.27,112.27,0,0,1,257,265.37Zm.22-34.33a77.86,77.86,0,1,0-77.9-78.28A77.95,77.95,0,0,0,257.22,231Z" fill="#f27366"/><path d="M257.22,231a77.86,77.86,0,1,1,78.11-78.2A77.69,77.69,0,0,1,257.22,231Zm49.54-106.81c-.08-9.76-3.39-15.17-9.94-18.11s-13.26-2.15-18.7,3c-6.23,5.89-12.25,12-18.2,18.17-1.95,2-3.2,2.14-5.22,0-6.3-6.54-12.75-12.92-19.23-19.28-7.63-7.5-18.23-7.78-25.17-.76s-6.54,17.43,1.07,25.13c6.15,6.21,12.25,12.48,18.59,18.49,2.48,2.34,2.86,3.74.14,6.25-5.68,5.24-11,10.84-16.46,16.34-7.64,7.73-8,18.05-1,25.11s17.43,6.71,25.18-.82c5.66-5.5,11.3-11.05,16.73-16.78,2.14-2.27,3.42-2.2,5.54,0,6.16,6.44,12.52,12.68,18.85,18.94,7.62,7.52,18.2,7.93,25.18,1s6.78-17.39-.83-25.17c-6-6.12-11.92-12.34-18.24-18.12-3.25-3-2.85-4.65.16-7.4,5.58-5.1,10.77-10.62,16.1-16C304.75,130.86,306.82,126.77,306.76,124.23Z" fill="#fefcfc"/><path d="M306.76,124.23c.06,2.54-2,6.63-5.46,10.11-5.33,5.37-10.52,10.89-16.1,16-3,2.75-3.41,4.44-.16,7.4,6.32,5.78,12.24,12,18.24,18.12,7.61,7.78,7.91,18.19.83,25.17s-17.56,6.48-25.18-1c-6.33-6.26-12.69-12.5-18.85-18.94-2.12-2.22-3.4-2.29-5.54,0-5.43,5.73-11.07,11.28-16.73,16.78-7.75,7.53-18.21,7.82-25.18.82s-6.63-17.38,1-25.11c5.44-5.5,10.78-11.1,16.46-16.34,2.72-2.51,2.34-3.91-.14-6.25-6.34-6-12.44-12.28-18.59-18.49-7.61-7.7-8-18.1-1.07-25.13s17.54-6.74,25.17.76c6.48,6.36,12.93,12.74,19.23,19.28,2,2.09,3.27,2,5.22,0,5.95-6.17,12-12.28,18.2-18.17,5.44-5.15,12-6,18.7-3S306.68,114.47,306.76,124.23Z" fill="#f27366"/></svg>