<svg id="Layer_1" data-name="Layer 1" xmlns="http://www.w3.org/2000/svg" viewBox="0 0 332.35 408.95"><g id="Layer_2" data-name="Layer 2"><g id="Layer_1-2" data-name="Layer 1-2"><path d="M290.56,401.22l-247.78-.08a26.76,26.76,0,0,1-6.18-.71c-6.82-1.64-15-4.95-21.1-12-8.07-9.27-9.18-20.66-9.18-25.34q0-158.58.17-317.17a41.57,41.57,0,0,1,3.76-17C17.15,14.23,29.62,7.85,45.59,7.85q95.82,0,191.6-.07a17.82,17.82,0,0,1,13.59,5.77q34.64,34.89,69.53,69.5A17.91,17.91,0,0,1,326,96.66q-.17,83.7-.07,167.39v98.29c0,13-4.68,23.66-15.13,31.6-4.61,3.52-9.89,5.34-15.39,6.7A20.22,20.22,0,0,1,290.56,401.22Zm-63-368.79H45.76c-10.39,0-14.86,4.53-14.86,15v314.1c0,10.5,4.47,15,14.88,15H286.61c10.2,0,14.76-4.56,14.77-14.74V106.18c-16.36,0-32.11,0-47.84,0-15.4-.08-25.78-10.4-25.91-25.77-.08-7.55,0-15.1,0-22.65Z" fill="#162143"/><path d="M227.57,32.43V57.74c0,7.55-.06,15.1,0,22.66.14,15.39,10.49,25.68,25.91,25.76,15.74.07,31.48,0,47.84,0V361.85c0,10.18-4.57,14.74-14.77,14.74H45.76c-10.41,0-14.88-4.52-14.88-15V47.47c0-10.51,4.47-15,14.86-15ZM55.68,204.24H276.47V180.12H55.68Zm0,61.47h220.8V241.54H55.69Zm0,61.43H227.43V303H55.67Zm196.7.08h24.18V303.1H252.37Z" fill="#ffffff"/><path d="M55.68,204.24V180.12H276.47v24.12Z" fill="#f27366"/><path d="M55.69,265.71V241.54H276.48v24.13Z" fill="#2ba5dd"/><path d="M55.67,327.15V303H227.43v24.11Z" fill="#f27366"/><path d="M252.37,327.22V303.1h24.18v24.11Z" fill="#f27366"/></g></g></svg>