<svg id="Outline" xmlns="http://www.w3.org/2000/svg" viewBox="0 0 512 512"><path d="M445,40.82A72.82,72.82,0,0,0,396.87,22.5H115.21A72.8,72.8,0,0,0,60.84,143.71L201.07,301.49V414.7a15.37,15.37,0,0,0,6.19,12.19l79.31,59.52a15.26,15.26,0,0,0,9.17,3.09h0a15.31,15.31,0,0,0,15.3-15.3V301.49L451.31,143.72A73,73,0,0,0,445,40.82ZM428.44,123.3,284.34,285.49a15,15,0,0,0-3.87,10.17V443.49l-48.7-36.43V295.7a15.37,15.37,0,0,0-3.86-10.21L83.71,123.29A42.2,42.2,0,0,1,115.26,53.2H397a42.11,42.11,0,0,1,31.43,70.1Z" fill="#162143"/><path d="M439.09,95.18a42.09,42.09,0,0,1-10.65,28.12L284.34,285.49a15,15,0,0,0-3.87,10.17V443.49l-48.7-36.43V295.7a15.37,15.37,0,0,0-3.86-10.21L83.71,123.29A42.2,42.2,0,0,1,115.26,53.2H397a42.1,42.1,0,0,1,42.08,42Z" fill="#fff"/><rect x="143.94" y="100.39" width="224.43" height="33.7" rx="16.85" fill="#f67567"/><rect x="183" y="164.39" width="146.3" height="33.7" rx="16.85" fill="#2ba5dd"/></svg>