<svg id="Capa_1" data-name="Capa 1" xmlns="http://www.w3.org/2000/svg" viewBox="0 0 512 512"><defs><style>.cls-1{fill:#fff;}.cls-2{fill:#2ba5dd;}.cls-3{fill:#f67567;}</style></defs><path class="cls-1" d="M255.77,380.59a82.14,82.14,0,0,1,.55-164.27c45,.1,81.75,37,81.81,82.16a82.06,82.06,0,0,1-82,82.11Z"/><path class="cls-1" d="M255.6,502.52c-21.93,0-43.87.05-65.8,0-27.31-.08-48.27-20.54-48.21-46.93.06-26.1,20.89-46.64,47.87-46.73q66.73-.21,133.46,0c26.89.11,47.66,20.86,47.59,47s-20.94,46.55-47.87,46.65C300.3,502.58,278,502.52,255.6,502.52Z"/><path class="cls-2" d="M419.41,410a63.52,63.52,0,1,1,62.19-62.61A63.49,63.49,0,0,1,419.41,410Z"/><path class="cls-3" d="M93.17,410a63.53,63.53,0,0,1-.56-127,63.51,63.51,0,0,1,.56,127Z"/><path class="cls-3" d="M130.55,433.81c-8.2,25.93-2.74,48.57,16.94,68.33-1.54.19-2.25.36-3,.36-34.85,0-69.69.12-104.53-.05C23,502.37,9.16,490,6.41,473c-2.6-16.1,7.34-32.44,23.17-37.62A35.91,35.91,0,0,1,40.4,433.5c29.1-.16,58.21-.1,87.31-.09A24.87,24.87,0,0,1,130.55,433.81Z"/><path class="cls-2" d="M364.36,502.44c19.69-20,25.39-42.35,17.18-68.51a21,21,0,0,1,2.94-.48c29.1,0,58.2-.15,87.29.06a34.17,34.17,0,0,1,32.69,24.38c4.37,14.7-.7,30.22-13.53,38.36-4.84,3.08-10.9,5.84-16.45,5.92C438.24,502.69,402,502.44,364.36,502.44Z"/><path class="cls-1" d="M392.56,177.8,344,186.49a44.8,44.8,0,0,0-5.73,1.18,6.86,6.86,0,0,0-2.84,11.41,19.21,19.21,0,0,0,2.95,2.36l70.76,49.19c5.91,4.11,9.11,3.53,13.2-2.36l49.18-70.75a16.84,16.84,0,0,1,1-1.41c2-2.67,2.31-5.46.57-8.35s-4.57-3.63-7.77-3.06l-33.25,6a23.25,23.25,0,0,0-3.79,1.39c-1.4-8.68-2.22-16.45-3.93-24C412.72,96.7,384,57.73,338.16,32,271.22-5.65,188.85,4.51,133.44,57.67c-48.78,46.8-67,103.94-53.83,170.6,2,9.94,10.43,15.92,19.8,14.48,10.21-1.58,16.58-10.74,14.42-21.3a150.69,150.69,0,0,1-3.2-40.41c2.13-32.36,14-60.82,34.83-85.53,19.13-22.63,42.87-38.34,71.56-46,35.39-9.41,69.59-5.67,101.79,11.81,40.52,22,64.59,56.14,72.58,101.55.75,4.28.85,8.68,1.23,13A15.56,15.56,0,0,1,392.56,177.8Z"/></svg>