<svg id="Layer_1" data-name="Layer 1" xmlns="http://www.w3.org/2000/svg" viewBox="0 0 512 512"><rect x="17" y="17" width="478" height="478" rx="112.62" fill="#162143"/><path d="M49.14,255.53q0-62.94,0-125.86c.08-39.62,26.57-71.73,65.47-79.22a91,91,0,0,1,17.15-1.34q125.15-.06,250.3.09c45.24,0,80.5,34.92,80.78,80.15.2,33.87,0,67.75,0,101.62,0,50.34.37,100.68-.13,151-.34,34.23-16.51,59.09-47.51,73.94a73.6,73.6,0,0,1-32.08,6.84q-127.26.06-254.5,0a79.64,79.64,0,0,1-79.53-79.51c0-.31,0-.62,0-.93ZM79.6,367.07c.9,7.94,5.39,14.07,12.58,16.05,6.9,1.89,12.4-.55,17.06-5.7q31.47-34.68,63-69.27c2-2.19,3.93-4.41,6-6.51,14.79-15.12,37.33-15.15,51.72.41,23,24.86,45.6,50.05,68.44,75,6.7,7.34,15.78,8,22.74,1.83s7.43-15.9.78-23.23c-23.05-25.42-46-51-69.41-76.05a66.47,66.47,0,0,0-97.51.23c-23.55,25.38-46.73,51.11-69.88,76.87C82.59,359.56,81.41,363.6,79.6,367.07ZM383.24,176.54c.24-26-20.82-47.32-47.14-47.73A47.77,47.77,0,0,0,287.83,176c-.21,26.31,21.11,48.12,47.21,48.28A47.72,47.72,0,0,0,383.24,176.54ZM332.75,285c-1.45.12-3.62.24-5.77.5-8.56,1-13.91,7.71-13.29,16.53.56,8.11,7.42,14.88,15.39,14.38,13.15-.83,23.34,4.27,31.95,13.93,13.72,15.41,27.78,30.52,41.67,45.79,4.76,5.25,10.85,7.61,17.53,6.07,11.79-2.74,15.71-16.91,7.34-26.26-15.22-17-30.5-33.94-46.17-50.51C368.51,291.81,352.12,285.57,332.75,285Z" fill="#e4e5e6"/><path d="M79.6,367.07c1.81-3.47,3-7.51,5.52-10.33C108.27,331,131.45,305.25,155,279.87a66.47,66.47,0,0,1,97.51-.23c23.44,25.07,46.36,50.63,69.41,76.05,6.65,7.33,6.17,17.11-.78,23.23s-16,5.51-22.74-1.83c-22.84-25-45.46-50.18-68.44-75-14.39-15.56-36.93-15.53-51.72-.41-2.06,2.1-4,4.32-6,6.51q-31.51,34.62-63,69.27c-4.66,5.15-10.16,7.59-17.06,5.7C85,381.14,80.5,375,79.6,367.07Z" fill="#162143"/><path d="M383.24,176.54A47.72,47.72,0,0,1,335,224.23c-26.1-.16-47.42-22-47.21-48.28a47.77,47.77,0,0,1,48.27-47.14C362.42,129.22,383.48,150.54,383.24,176.54Zm-31.81-.35a15.66,15.66,0,0,0-15.81-15.56,15.9,15.9,0,0,0-16,15.93,16.22,16.22,0,0,0,16.15,15.91A15.93,15.93,0,0,0,351.43,176.19Z" fill="#f27366"/><path d="M332.75,285c19.37.56,35.76,6.8,48.65,20.43C397.07,322,412.35,339,427.57,356c8.37,9.35,4.45,23.52-7.34,26.26-6.68,1.54-12.77-.82-17.53-6.07-13.89-15.27-27.95-30.38-41.67-45.79-8.61-9.66-18.8-14.76-31.95-13.93-8,.5-14.83-6.27-15.39-14.38-.62-8.82,4.73-15.5,13.29-16.53C329.13,285.25,331.3,285.13,332.75,285Z" fill="#162143"/><path d="M351.43,176.19a15.93,15.93,0,0,1-15.68,16.28,16.22,16.22,0,0,1-16.15-15.91,15.9,15.9,0,0,1,16-15.93A15.66,15.66,0,0,1,351.43,176.19Z" fill="#e4e5e6"/></svg>