<svg id="Layer_1" data-name="Layer 1" xmlns="http://www.w3.org/2000/svg" viewBox="0 0 512 512"><circle cx="256" cy="256" r="240" fill="#fff"/><path d="M395.12,204.32,328.88,254V362h46.37a19.87,19.87,0,0,0,19.87-19.88Z" fill="#4caf50"/><path d="M116.87,204.32,183.12,254V362H136.75a19.88,19.88,0,0,1-19.88-19.88Z" fill="#1e88e5"/><path d="M328.88,171.2,256,225.86,183.12,171.2V254L256,308.67,328.88,254Z" fill="#e53935"/><path d="M116.87,178.47v25.86L183.12,254V171.2l-20.69-15.51A28.44,28.44,0,0,0,145.35,150h0A28.48,28.48,0,0,0,116.87,178.47Z" fill="#c62828"/><path d="M395.12,178.47v25.86L328.88,254V171.2l20.69-15.51A28.44,28.44,0,0,1,366.65,150h0A28.47,28.47,0,0,1,395.12,178.47Z" fill="#fbc02d"/></svg>