<svg id="Layer_1" data-name="Layer 1" xmlns="http://www.w3.org/2000/svg" viewBox="0 0 40 40"><g id="google"><path d="M33.4,34.91c4.65-4.33,6.73-11.57,5.48-18.49H20.39v7.65H30.93A8.75,8.75,0,0,1,27,30Z" fill="#4285f4"/><path d="M2.82,28.82a19.84,19.84,0,0,0,30.58,6.1L27,30a11.84,11.84,0,0,1-17.67-6.2Z" fill="#34a853"/><path d="M9.33,23.76a11.76,11.76,0,0,1,0-7.55L2.82,11.15a20,20,0,0,0,0,17.67Z" fill="#fbbc02"/><path d="M9.33,16.21C11.6,9.08,21.32,5,27.82,11.05l5.69-5.58A19.51,19.51,0,0,0,2.82,11.15Z" fill="#ea4335"/></g></svg>