<svg id="Layer_1" data-name="Layer 1" xmlns="http://www.w3.org/2000/svg" viewBox="0 0 512 512"><defs><style>.cls-1{fill:#121d3f;}.cls-2{fill:#fff;}.cls-3{fill:#f27366;}.cls-4{fill:#2ca9e1;}</style></defs><path class="cls-1" d="M447.67,167.72C431.7,75,350.44,6.16,256,6c-6.58.41-13.17.77-19.75,1.27q-5,.38-9.83,1.19c-47,7.88-87,29.14-117.53,65.82C67,124.65,51.38,182,68.92,246.31c9.62,35.2,27.15,66.87,46.93,97.27,37.46,57.57,82,109.32,130.64,157.61,6.63,6.58,12.8,6.4,19.76-.48a1038.15,1038.15,0,0,0,85.33-95.09c30.86-39.08,59.24-79.77,79.51-125.57C447,244.14,454.46,207.23,447.67,167.72ZM256.34,339.35c-76.39.14-138.82-62-139-138.44-.2-76.63,62.17-139.15,138.79-139.15,76.42,0,138.69,62.24,138.76,138.68S332.75,339.22,256.34,339.35Z"/><path class="cls-2" d="M394.88,200.44c.08,76.42-62.13,138.78-138.54,138.91s-138.82-62-139-138.44c-.2-76.63,62.17-139.15,138.79-139.15C332.54,61.77,394.81,124,394.88,200.44Z"/><path class="cls-3" d="M136.17,169.12c1.32-7.72,6.32-12.94,11.85-17.94,25.82-23.35,56-37.43,90.57-40.9,50.21-5,93.76,10.21,130.16,45.29,11.61,11.19,9,29.14-5.15,36.49a22.18,22.18,0,0,1-25.71-4.25,118.06,118.06,0,0,0-31.74-22.52,114.07,114.07,0,0,0-64.48-10.39c-26.17,3.25-48.42,14.52-67.28,32.86-12.24,11.9-31.61,7.2-37.06-8.81-.42-1.24-.78-2.5-1.16-3.74Z"/><path class="cls-4" d="M257.92,178.14c23,.44,44.48,9,62.33,26.37,7,6.84,9,16.36,5.22,24.92a22.58,22.58,0,0,1-21.79,13.68c-6-.29-10.88-2.93-15.12-7.07a44.18,44.18,0,0,0-23-12.18c-15.79-3-29.73.89-41.49,11.88-4.7,4.39-9.88,7.44-16.42,7.37-9.69-.1-16.74-4.8-20.71-13.49s-2.5-16.8,3.83-23.69c8.84-9.63,19.67-16.52,31.8-21.34C233.31,180.31,244.52,178.23,257.92,178.14Z"/><path class="cls-1" d="M278.41,269.3A22.35,22.35,0,1,1,256,247.06,22.4,22.4,0,0,1,278.41,269.3Z"/></svg>