<?xml version="1.0" encoding="utf-8"?>
<!-- Generator: Adobe Illustrator 25.0.0, SVG Export Plug-In . SVG Version: 6.00 Build 0)  -->
<svg version="1.1" id="Layer_1" xmlns="http://www.w3.org/2000/svg" xmlns:xlink="http://www.w3.org/1999/xlink" x="0px" y="0px"
	 viewBox="0 0 512 512" style="enable-background:new 0 0 512 512;" xml:space="preserve">
<style type="text/css">
	.st0{fill:#F27366;}
	.st1{fill:#162143;}
</style>
<polygon class="st0" points="193,261 143,293.3 136,419 366,430 382,430 389.3,431.4 386.3,328.8 353,289 313,256 284,289 
	252.2,293.3 223,289 "/>
<path class="st0" d="M191.5,279.8c-11.2,6.6-21.6,13.5-30.2,22.9c-4.9,5.4-8.1,12.2-9.2,19.4c-4.3,29.6-4.7,59.4-5,89.3
	c0,0.3,0.2,0.5,0.6,1.3h221.8c12.3,0,19.6,5.9,19.8,15.7s-7.4,16.2-19.8,16.2c-78.1,0-156.3-0.2-234.4,0.1c-11.4,0-20.7-5.3-20-20.4
	c1.4-29,1.6-58.1,3.3-87.1c0.9-16.5,2.9-33.1,12.9-47.4c8-11.6,18.4-20.8,30-28.5c8.2-5.3,16.7-10.2,25.5-14.7
	c14.5-7.2,21.3-4.7,28.2,9.8c4.6,9.7,11.2,17.7,20.9,22.7c17.9,9,38.2,3,49.7-14.8c2.6-4.1,4.6-8.5,6.8-12.8
	c4.1-7.4,12.1-10.9,19.7-7.6c20.7,8.8,39.4,20.6,54.8,37.2c11.1,11.9,16.5,26.3,18.7,42.2c3,21.2,3,42.5,1.9,63.7
	c-0.5,7.7-6.8,13.3-14.4,13.9c-7.4,0.6-14.2-4.2-16.2-11.3c-0.5-2.5-0.7-5-0.7-7.6c-0.6-17.2-0.9-34.5-1.8-51.7
	c-0.7-15.1-7.6-27.1-19.7-36.1c-6.7-4.9-13.6-9.7-20.8-14.8c-15,21.9-34.5,35.6-61.3,35.5S206.3,301.4,191.5,279.8z"/>
<path class="st1" d="M329.8,150.7c-0.9,31.1-10.4,56.7-32.2,77c-7.5,6.9-17,7.1-23.4,0.6s-6.1-16.1,1.4-23.6
	c21.1-20.9,26.7-45.9,18.8-74.1c-7.3-26.2-34.8-39.1-59.6-27.9c-12.3,5.5-18.9,16.1-22.8,28.5c-7.2,23.4-2,45,9.9,65.4
	c8.8,15,21.2,26.7,35.1,36.9c3.4,2.4,7,4.7,10.2,7.4c6.4,5,7.8,14.1,3.2,20.8c-4.6,6.8-13.6,9.7-20.4,5.1
	c-11.3-7.8-22.5-15.9-32.4-25.2c-22.4-20.9-36.5-46.8-39.8-77.5c-3.1-28.6,3.4-55,23.9-76.3c15.1-15.7,34.3-21.6,55.9-20.3
	c15.9,0.9,30.2,5.9,42.5,16.2c16.2,13.5,24.6,31.1,28.1,51.4C329.2,140.8,329.4,146.7,329.8,150.7z"/>
<path class="st1" d="M333.9,200c-0.8-35,22.6-65.1,55.8-71.4c24.9-4.8,45.4,4.3,61.8,22.9c29.8,34,28,89.6-3.8,121.7
	c-12.5,12.6-27.6,19.4-45.3,20.1c-9,0.4-16.4-5.9-17-14.4s5.4-16.6,14.1-17.1c21-1.1,32.3-13.9,38.3-32.1s4-36-6.5-52.4
	c-8.9-14-22.8-20.5-36.8-17.5s-26.1,16.3-28.5,32c-1.4,9.3,0.1,18.2,3.3,27c1.4,4,2.9,8.4,2.8,12.5c-0.2,7.2-5.9,12.8-12.6,13.9
	c-7.4,1.4-14.8-2.7-17.6-9.7C336.9,223.8,333.6,211.8,333.9,200z"/>
<path class="st1" d="M30.5,214.5c1.4-33.3,11-58,35.1-75.1c31-22.1,73.6-12.7,93.2,20.4c14.9,25.1,13.9,50.9,2.2,76.8
	c-3.5,7.8-12.2,10.8-20,7.7s-11.5-11.5-9-19.9s4.8-14.8,5.9-22.3c2.7-19.5-11.2-38.9-30.1-42.5c-14.3-2.7-25.1,4-33.6,14.7
	c-17,21.7-15,56.7,4.2,76.6c6,6.5,14.3,10.3,23.1,10.7c10.8,0.6,17.3,7.3,16.7,17.1S109.7,294,99,293.1
	c-29.2-2.5-53.8-22.6-62.9-52.4C33,230.8,31.7,220.4,30.5,214.5z"/>
<path class="st0" d="M468,402.7c-1.9-18.3-3.2-35.9-5.6-53.2c-1.8-12.9-8.6-23.5-18.8-31.8c-5.2-4.1-7.8-9.4-6.5-16.1
	c2.5-12.1,16.3-16.6,26.2-8.7c18.5,14.8,28.8,34.3,31.3,57.5s3.6,44.4,5,66.6c0.6,10.6-6.2,17.3-16.9,17.4
	c-20.1,0.1-40.2,0.1-60.5,0c-9.9-0.1-16.7-6.4-16.9-15.5s6.5-15.8,16.4-16.1c13.2-0.3,26.5-0.1,39.7-0.1L468,402.7z"/>
<path class="st0" d="M44,402.7c1.9-18.3,3.2-35.9,5.6-53.2c1.8-12.9,8.6-23.5,18.8-31.8c5.2-4.1,7.8-9.4,6.5-16.1
	c-2.5-12.1-16.3-16.6-26.2-8.7c-18.5,14.8-28.8,34.3-31.3,57.5s-3.6,44.4-5,66.6c-0.6,10.6,6.2,17.3,16.9,17.4
	c20.1,0.1,40.3,0.1,60.5,0c9.9-0.1,16.7-6.4,16.9-15.5s-6.5-15.8-16.4-16.1c-13.2-0.3-26.5-0.1-39.7-0.1L44,402.7z"/>
</svg>
