<svg id="Outline" xmlns="http://www.w3.org/2000/svg" viewBox="0 0 512 512"><path d="M499.7,265.64c-6.19,127.91-107.28,229-235.18,235.18A244.71,244.71,0,0,1,12.24,290.08a22.18,22.18,0,0,1-.12-2.58A20.78,20.78,0,0,1,33.21,267,21.3,21.3,0,0,1,54.1,285.49l0,.19a202.73,202.73,0,0,0,195,173.3q2.94.09,5.88.09c109.27,0,199.69-87.28,202.84-197.2a202.66,202.66,0,0,0-48.57-137.7C336.6,39.06,208.21,29,123.11,101.68l-9,7.73L146.68,142a10.24,10.24,0,0,1,3,7.31,10.34,10.34,0,0,1-10.33,10.33H41.55a10.35,10.35,0,0,1-10.34-10.33V51.5a10.33,10.33,0,0,1,17.64-7.3L84.62,80l7.76-6.89A245.53,245.53,0,0,1,254.9,11c3,0,6.09.07,9.11.18A245.28,245.28,0,0,1,499.7,265.64Z" fill="#162143"/><path d="M300.3,332.91a21,21,0,0,1-29.63.58l-38.18-38.18a31.5,31.5,0,0,1-9.28-22.39V181.34a21,21,0,1,1,42,0v87.31l35.15,35.14A20.93,20.93,0,0,1,300.3,332.91Z" fill="#f27366"/></svg>