<svg id="Layer_1" data-name="Layer 1" xmlns="http://www.w3.org/2000/svg" viewBox="0 0 509.84 467.42"><g id="Layer_2" data-name="Layer 2"><g id="Layer_1-2" data-name="Layer 1-2"><path d="M507.11,291.91a47.16,47.16,0,0,1-2.29,14.53h0a47.12,47.12,0,0,1-43.09,32.65c-2.13.08-4.27.1-6.4.1-105.75,0-211.49-.21-317.23.17-23.11.08-42.63-10.22-48.85-30.07-2-6.28-2.62-13.72-2.63-20.67q-.25-117.48-.08-235a84.87,84.87,0,0,1,.61-9.82c2.61-22.19,21.91-40,44.29-40.91,2.29-.1,4.6-.08,6.92-.08H455.07a48.94,48.94,0,0,1,33.58,9.68,46.43,46.43,0,0,1,11.24,12.39,49,49,0,0,1,7.24,26ZM264.21,221.3l25.31-30.38q25.73-30.84,51.38-61.71c10.4-12.56,23.56-17.34,39.47-13.85,9.54,2.07,15.83,8.91,21.84,16q34.82,40.8,69.87,81.52c.89,1,1.89,2,3.5,3.69v-164c0-12-6.15-18.15-18.2-18.15H136.12c-11.78,0-18.05,6.13-18.06,17.81V259.63a28.94,28.94,0,0,0,.39,3.48l1.33.76a29.23,29.23,0,0,1,2.87-4q31-31.05,62-62c17.23-17.21,38.84-17.25,56.12-.06C248.47,205.44,256.08,213.13,264.21,221.3Zm-141,81.91c4.77,4.5,9.54,4.45,14.34,4.45H459.82c9.32-.36,15.59-6.69,15.75-16.07.11-6.56-.28-13.16.13-19.7.29-4.65-1.34-8-4.29-11.4q-47.12-54.66-94-109.55c-5.93-6.87-7.79-6.84-13.68.24Q321.35,202.11,278.94,253c-8.07,9.69-17.56,10.05-26.57,1q-16.92-16.87-33.8-33.79c-5.29-5.29-6.3-5.3-11.54-.06q-36.78,36.73-73.54,73.49C130.22,296.87,126.78,299.89,123.2,303.21Z" fill="#122230"/><path d="M391.74,461.6a51.69,51.69,0,0,1-30.4,1.6c-6.2-1.51-13.58-3.31-20.92-5.27Q190.3,417.76,40.2,377.48C11.91,369.89-2.74,345.34,4.58,317Q21.8,250.13,39.43,183.29c2.11-8.11,7.4-12.75,14.57-13.16s13.58,3.32,15.61,10.24a21.81,21.81,0,0,1,.13,11q-16.9,66-34.23,131.86c-3.5,13.42.54,20.46,14.08,24.09q158.9,42.54,317.81,85.14c13.23,3.54,20.15-.72,23.46-14.1q4.86-19.78,9.83-39.58c2.39-9.48,10.46-14.84,19-12.86,9,2.15,13.91,10.45,11.6,20.1-3.51,14.67-7,29.35-10.88,43.92A45.58,45.58,0,0,1,391.74,461.6Z" fill="#122230"/><path d="M118.06,259.66V52.23c0-11.71,6.28-17.81,18.06-17.81H457.37c12.05,0,18.2,6.14,18.2,18.15v164c-1.61-1.7-2.61-2.66-3.5-3.69q-35-40.77-69.87-81.57c-6.05-7.08-12.3-13.91-21.84-16-15.91-3.44-29.07,1.34-39.47,13.86q-25.63,30.91-51.38,61.7l-25.3,30.42c-8.13-8.17-15.74-15.83-23.43-23.49-8.8-8.77-17.5-12.74-28.06-12.87-14.13-.17-24.44,9.25-28.06,12.93l-63,64.05q-1.92,1.95-3.64,4.07h0m73.8-116.09a42,42,0,0,0,0-84c-23.23,0-42.43,19.18-42.2,42.28A42.08,42.08,0,0,0,191.86,149.9Z" fill="#e4e5e6"/><path d="M476.59,271.89c-.4,6.54.13,13.14,0,19.69-.16,9.39-7.48,15.73-16.8,16.07-1.32.05-2.63,0-4,0H137.51c-4.77,0-9.53.05-14.31-4.44,3.58-3.32,6-6.33,9.21-9.58,24.53-24.47,50.09-50,74.58-74.53,5.25-5.24,6.26-5.23,11.55.05Q235.45,236,252.34,253c9,9,18.5,8.65,26.58-1q42.4-50.9,84.79-101.83c5.94-7.07,8.85-7.11,14.73-.23,31.31,36.53,62.63,74.1,94,110.59C475.4,263.91,476.89,267.24,476.59,271.89Z" fill="#f27366"/><path d="M191.86,149.9a42.08,42.08,0,0,1-42.23-41.69c-.23-23.1,19-42.32,42.2-42.28a42,42,0,0,1,0,84Zm-.39-31.57a10.44,10.44,0,0,0,10.74-10.12c0-.09,0-.17,0-.26a10.51,10.51,0,0,0-21,0h0A10.47,10.47,0,0,0,191.47,118.33Z" fill="#122230"/><path d="M191.47,118.33A10.44,10.44,0,1,1,202.22,108h0a10.44,10.44,0,0,1-10.5,10.39Z" fill="#2ba5dd"/></g></g></svg>