<svg id="Layer_1" data-name="Layer 1" xmlns="http://www.w3.org/2000/svg" viewBox="0 0 512 512"><path d="M256.45,365.34q-86.3,0-172.59,0c-27.5,0-48-20.53-48.06-48q-.12-93.15,0-186.3c0-27.52,20.49-48.12,47.92-48.14q140.48-.11,280.94,0c27.18,0,47.72,20.6,47.78,47.79.09,39.7,0,79.41-.07,119.12-10.27-3.62-20.52-7.31-31.32-9.07V135.48c-2,1.79-3.24,2.86-4.45,4Q316.8,193.22,257,247c-20.28,18.15-45.75,18-65.89-.12Q130.93,192.79,70.78,138.68c-1-.89-1.69-2.38-3.61-2.29v4.43q0,87.3,0,174.59C67.17,328,73.11,334,85.75,334l170.68,0A132,132,0,0,0,256.45,365.34ZM357.36,114.58H91.55A14.19,14.19,0,0,0,92.7,116Q153,170.31,213.25,224.55c6.91,6.2,15,6,22.07-.29C275.81,187.94,316.24,151.55,357.36,114.58Z" fill="#162143"/><path d="M256.45,365.34a132,132,0,0,1,0-31.35c.29-1.27.61-2.54.87-3.81,8.79-42.39,33.81-70.7,74.47-85.06,15.94-5.63,32.54-6.37,49.27-4.38,10.8,1.76,21,5.45,31.32,9.07,8.57,5.31,17.54,10,25,17,33.38,31,45.82,68.93,33.36,112.76-12.19,42.92-41.68,69.57-85.68,77.95C324.83,469,267.62,428.63,257.28,368.67,257.09,367.55,256.73,366.45,256.45,365.34ZM443.85,350c-.16-43.82-34.63-78.28-77.75-78.71a78.28,78.28,0,0,0-79.19,78.77c0,42.88,35.26,78,78.48,78.08C408.29,428.26,443.83,392.86,443.85,350Z" fill="#339d66"/><path d="M381,240.74c-16.73-2-33.33-1.25-49.27,4.38-40.66,14.36-65.68,42.67-74.47,85.06-.26,1.27-.58,2.54-.87,3.81L85.75,334c-12.64,0-18.58-5.93-18.58-18.56q0-87.3,0-174.59v-4.43c1.92-.09,2.62,1.4,3.61,2.29Q131,192.74,191.11,246.86C211.25,265,236.72,265.13,257,247q59.91-53.64,119.59-107.55c1.21-1.09,2.44-2.16,4.45-4Z" fill="#fefefe"/><path d="M381.07,342.81c0-8.64,0-16.14,0-23.65-.07-9.59-6.61-16.61-15.48-16.72-9.07-.12-15.82,7-15.89,16.8-.05,7.5,0,15,0,22.89-2.22-.71-3.22-2.45-4.58-3.68-6.66-6-16-5.92-22.07.21a15.42,15.42,0,0,0,0,22q15.57,15.94,31.52,31.51a15,15,0,0,0,21.61,0q16-15.51,31.52-31.5a15.47,15.47,0,0,0,0-22c-6.07-6.08-15.49-6.13-22.06-.11C384.33,339.7,383.08,340.92,381.07,342.81Z" fill="#339d66"/></svg>