<svg id="Layer_1" data-name="Layer 1" xmlns="http://www.w3.org/2000/svg" viewBox="0 0 305.1 303.3"><g id="Layer_2" data-name="Layer 2"><g id="Layer_1-2" data-name="Layer 1-2"><path d="M14.1,25.5a9.8,9.8,0,0,1,5-2.7,45.4,45.4,0,0,1,7.4-1c16-.1,32.1,0,48.1,0,8.9,0,12.7,3.3,14.1,11.9q5.8,37.1,11.8,74.1a16.2,16.2,0,0,1-2.7,12.4c-5.9,8.9-11.6,18.2-17.4,27.2-3.4,5.4-3.3,10.7-.1,16.1a175.2,175.2,0,0,0,60,59.8c5,3,10.2,3.1,15.2,0l27.9-17.8a16.4,16.4,0,0,1,12.4-2.6l73.7,11.8c9,1.4,12,5.1,12,14.2,0,16.6.1,33.3.1,49.9,0,7.8-2.6,11.4-10,13.7-33.5,10.1-66.9,8.5-100.1-1.5C128.6,278.2,92.8,254,63,220.8,36.8,191.7,18.2,158.4,9.2,120.2,2.2,90.7,1.9,61.3,10.9,32c.3-1.1.7-2.1,1.1-3.2A8.9,8.9,0,0,1,14.1,25.5Z" fill="#fff"/><path d="M204.9,74.6l3.7-3.5q29.6-28.3,56.5-59.4a20.5,20.5,0,0,1,25.7-4.8,20.3,20.3,0,0,1,5.7,4.8,30.1,30.1,0,0,1,2.9,4.9,21.5,21.5,0,0,1-4.8,23.3l-60.8,61.8,34.6,34.6-.5,1L157.4,149.6q6.2-55.3,12.3-110.2Z" fill="#fff"/></g></g></svg>