<svg id="Layer_1" data-name="Layer 1" xmlns="http://www.w3.org/2000/svg" viewBox="0 0 305.13 303.33"><g id="Layer_2" data-name="Layer 2"><g id="Layer_1-2" data-name="Layer 1-2"><path d="M14.1,25.45a9.48,9.48,0,0,1,5-2.65,43.09,43.09,0,0,1,7.44-1c16-.14,32.06,0,48.08,0,8.84,0,12.65,3.29,14.05,11.91,3.89,24.68,7.78,49.38,11.83,74.05a16.4,16.4,0,0,1-2.66,12.39c-5.94,9-11.59,18.2-17.41,27.25-3.45,5.39-3.37,10.71-.1,16.09a174.59,174.59,0,0,0,60,59.8c5,3,10.12,3.13,15.13,0,9.33-5.89,18.68-11.74,27.9-17.79a16.53,16.53,0,0,1,12.41-2.63c24.55,4,49.13,7.86,73.69,11.81,9,1.43,12.06,5.16,12.08,14.25q0,24.93.08,49.89c0,7.79-2.62,11.36-10,13.63-33.5,10.19-66.9,8.54-100.07-1.41-42.94-12.88-78.73-37-108.58-70.21C36.77,191.67,18.22,158.4,9.19,120.16c-7-29.5-7.25-58.91,1.68-88.14.33-1.08.72-2.15,1.11-3.21a9.54,9.54,0,0,1,2.12-3.36Z" fill="#162143"/><path d="M204.9,74.63c1.22-1.15,2.45-2.32,3.66-3.49q29.63-28.39,56.5-59.47C271.48,4.25,282.32,2,290.82,6.9a20.22,20.22,0,0,1,5.64,4.81,21.18,21.18,0,0,1,2.91,4.91,21.41,21.41,0,0,1-4.74,23.25l-60.85,61.79,34.65,34.6-.5,1L157.45,149.55q6.13-55.34,12.21-110.18Z" fill="#b5b5b5"/></g></g></svg>