<svg id="Layer_1" data-name="Layer 1" xmlns="http://www.w3.org/2000/svg" viewBox="0 0 512 512"><circle cx="256" cy="256" r="243" fill="#162143"/><path d="M50,255.1C50.4,141.4,142.7,49.5,256.1,50S461.4,142.6,461,255.9,368.3,461.5,254.9,461,49.7,368.4,50,255.1Zm224.6,41c0-19.9.2-39.9-.2-59.8a26.3,26.3,0,0,0-3.7-12.5c-4.3-7-13.1-9.5-20.9-7s-13.3,9.8-13.3,18.8V356.8a18.3,18.3,0,0,0,.5,4.7,19,19,0,0,0,37.5-4C274.6,337,274.5,316.6,274.6,296.1ZM255.5,141.3a25.7,25.7,0,0,0,.1,51.3,25.8,25.8,0,0,0,25.6-25.8A25.5,25.5,0,0,0,255.5,141.3Z" fill="#fff"/><path d="M274.5,296.1c0,20.5.1,40.9,0,61.4a19,19,0,0,1-37.5,4,18.3,18.3,0,0,1-.5-4.7V235.6c0-9,5.3-16.4,13.3-18.8s16.6,0,20.9,7a26.3,26.3,0,0,1,3.7,12.5C274.8,256.2,274.6,276.2,274.5,296.1Z" fill="#f27366"/><path d="M255.5,141.3a25.5,25.5,0,0,1,25.7,25.5,25.7,25.7,0,1,1-51.3.2A25.5,25.5,0,0,1,255.5,141.3Z" fill="#f27366"/></svg>