<svg id="instagram" xmlns="http://www.w3.org/2000/svg" xmlns:xlink="http://www.w3.org/1999/xlink" viewBox="0 0 512 512"><defs><radialGradient id="radial-gradient" cx="38.36" cy="18.96" r="634.81" gradientTransform="matrix(1, 0, 0, -1, 0, 514)" gradientUnits="userSpaceOnUse"><stop offset="0.09" stop-color="#fa8f21"/><stop offset="0.78" stop-color="#d82d7e"/></radialGradient><radialGradient id="radial-gradient-2" cx="352.33" cy="35.01" r="558.64" gradientTransform="matrix(1, 0, 0, -1, 0, 514)" gradientUnits="userSpaceOnUse"><stop offset="0.64" stop-color="#8c3aaa" stop-opacity="0"/><stop offset="1" stop-color="#8c3aaa"/></radialGradient></defs><path d="M132.79,504.23a168.47,168.47,0,0,1-56.63-10.49,94.61,94.61,0,0,1-35.07-22.81,94.12,94.12,0,0,1-22.84-35.06A168.74,168.74,0,0,1,7.78,379.24C6.3,347.09,6,337.45,6,256s.33-91.07,1.77-123.24a169.33,169.33,0,0,1,10.48-56.6A95,95,0,0,1,41.07,41.07,94.19,94.19,0,0,1,76.14,18.25,168.5,168.5,0,0,1,132.77,7.77C164.93,6.3,174.59,6,256,6s91.06.33,123.23,1.77a169.39,169.39,0,0,1,56.62,10.48,94.41,94.41,0,0,1,35.07,22.81,94.43,94.43,0,0,1,22.82,35.08,168.52,168.52,0,0,1,10.49,56.63C505.7,164.94,506,174.58,506,256s-.3,91.06-1.77,123.23a169,169,0,0,1-10.49,56.63,101,101,0,0,1-57.89,57.87,168.47,168.47,0,0,1-56.63,10.49C347.08,505.7,337.42,506,256,506s-91.07-.28-123.21-1.77" fill="url(#radial-gradient)"/><path d="M132.79,504.23a168.47,168.47,0,0,1-56.63-10.49,94.61,94.61,0,0,1-35.07-22.81,94.12,94.12,0,0,1-22.84-35.06A168.74,168.74,0,0,1,7.78,379.24C6.3,347.09,6,337.45,6,256s.33-91.07,1.77-123.24a169.33,169.33,0,0,1,10.48-56.6A95,95,0,0,1,41.07,41.07,94.19,94.19,0,0,1,76.14,18.25,168.5,168.5,0,0,1,132.77,7.77C164.93,6.3,174.59,6,256,6s91.06.33,123.23,1.77a169.39,169.39,0,0,1,56.62,10.48,94.41,94.41,0,0,1,35.07,22.81,94.43,94.43,0,0,1,22.82,35.08,168.52,168.52,0,0,1,10.49,56.63C505.7,164.94,506,174.58,506,256s-.3,91.06-1.77,123.23a169,169,0,0,1-10.49,56.63,101,101,0,0,1-57.89,57.87,168.47,168.47,0,0,1-56.63,10.49C347.08,505.7,337.42,506,256,506s-91.07-.28-123.21-1.77" fill="url(#radial-gradient-2)"/><path d="M194.61,257.06A61.92,61.92,0,1,1,256.52,319h0a61.91,61.91,0,0,1-61.91-61.92m-33.47,0a95.38,95.38,0,1,0,95.38-95.38h0a95.37,95.37,0,0,0-95.38,95.37h0M333.38,157.9a22.29,22.29,0,1,0,22.3-22.28h0a22.31,22.31,0,0,0-22.29,22.28M181.48,408.26A102.59,102.59,0,0,1,147,401.89a61.52,61.52,0,0,1-35.26-35.25,102.29,102.29,0,0,1-6.37-34.49c-.91-19.58-1.08-25.46-1.08-75.06s.19-55.47,1.08-75.07a103.14,103.14,0,0,1,6.37-34.5A61.48,61.48,0,0,1,147,112.26a102.59,102.59,0,0,1,34.49-6.37c19.58-.9,25.46-1.08,75-1.08s55.47.19,75.06,1.09a103.14,103.14,0,0,1,34.5,6.37,61.46,61.46,0,0,1,35.26,35.26A102.59,102.59,0,0,1,407.72,182c.9,19.61,1.08,25.46,1.08,75.07s-.18,55.47-1.08,75.07a103.08,103.08,0,0,1-6.37,34.49,61.52,61.52,0,0,1-35.26,35.25,102.64,102.64,0,0,1-34.5,6.37c-19.57.9-25.46,1.08-75.06,1.08s-55.47-.18-75-1.08M179.94,72.45a136.24,136.24,0,0,0-45.09,8.62A95,95,0,0,0,80.52,135.4a136.36,136.36,0,0,0-8.63,45.1c-.92,19.8-1.12,26.14-1.12,76.58s.21,56.77,1.12,76.58a136.31,136.31,0,0,0,8.63,45.1,95,95,0,0,0,54.33,54.33,136.5,136.5,0,0,0,45.09,8.63c19.82.9,26.14,1.12,76.59,1.12s56.77-.21,76.58-1.12a136.61,136.61,0,0,0,45.1-8.63,95,95,0,0,0,54.33-54.33,135.74,135.74,0,0,0,8.62-45.1c.9-19.82,1.11-26.13,1.11-76.58s-.21-56.77-1.11-76.58a136.35,136.35,0,0,0-8.62-45.1,95,95,0,0,0-54.32-54.33,135.74,135.74,0,0,0-45.1-8.62c-19.8-.91-26.13-1.13-76.57-1.13s-56.78.21-76.6,1.13" fill="#fff"/></svg>