<svg id="Layer_1" data-name="Layer 1" xmlns="http://www.w3.org/2000/svg" viewBox="0 0 307.32 306.77"><g id="Layer_2" data-name="Layer 2"><g id="Layer_1-2" data-name="Layer 1-2"><path d="M263.46,84.49a40.65,40.65,0,1,1,.34,0Z" fill="#162143"/><path d="M43.77,84.49a40.69,40.69,0,1,1,.25,0Z" fill="#162143"/><path d="M153.73,194.08a40.65,40.65,0,1,1,40.64-40.66v0a40.61,40.61,0,0,1-40.57,40.63Z" fill="#f27366"/><path d="M194.38,43.66A40.72,40.72,0,1,1,153.51,3.09h.16a40.64,40.64,0,0,1,40.71,40.57Z" fill="#162143"/><path d="M43.93,194.08a40.65,40.65,0,1,1,40.66-40.9A40.65,40.65,0,0,1,43.93,194.08Z" fill="#162143"/><path d="M194.37,262.92a40.72,40.72,0,1,1-41-40.54A40.73,40.73,0,0,1,194.37,262.92Z" fill="#162143"/><path d="M263.6,194.09a40.65,40.65,0,1,1,40.67-41C304.53,175.48,286.21,194,263.6,194.09Z" fill="#162143"/></g></g></svg>