<svg id="linkedin" xmlns="http://www.w3.org/2000/svg" viewBox="0 0 512 512"><path d="M506,483.27H395.49V323.48c0-41.82-17.27-70.38-55.3-70.38-29.07,0-45.24,19.27-52.76,37.84-2.83,6.66-2.38,15.95-2.38,25.23v167.1H175.57s1.41-283,0-308.78H285.05V223c6.47-21.19,41.45-51.43,97.27-51.43,69.26,0,123.68,44.41,123.68,140.06ZM64.86,135.86h-.71C28.88,135.86,6,112.26,6,82.34c0-30.5,23.55-53.61,59.53-53.61S123.6,51.78,124.3,82.25C124.3,112.17,101.49,135.86,64.86,135.86ZM18.61,174.49h97.46V483.27H18.61Z" fill="#007ebb" fill-rule="evenodd"/></svg>