<svg id="Layer_1" data-name="Layer 1" xmlns="http://www.w3.org/2000/svg" viewBox="0 0 512 512"><defs><style>.cls-1{fill:#489ee5;}.cls-2{fill:#fff;}</style></defs><path class="cls-1" d="M447.67,167.72C431.7,75,350.44,6.16,256,6c-6.58.41-13.17.77-19.75,1.27q-5,.38-9.83,1.19c-47,7.88-87,29.14-117.53,65.82C67,124.65,51.38,182,68.92,246.31c9.62,35.2,27.15,66.87,46.93,97.27,37.46,57.57,82,109.32,130.64,157.61,6.63,6.58,12.8,6.4,19.76-.48a1038.15,1038.15,0,0,0,85.33-95.09c30.86-39.08,59.24-79.77,79.51-125.57C447,244.14,454.46,207.23,447.67,167.72ZM256.34,339.35c-76.39.14-138.82-62-139-138.44-.2-76.63,62.17-139.15,138.79-139.15,76.42,0,138.69,62.24,138.76,138.68S332.75,339.22,256.34,339.35Z"/><path class="cls-2" d="M394.88,200.44c.08,76.42-62.13,138.78-138.54,138.91s-138.82-62-139-138.44c-.2-76.63,62.17-139.15,138.79-139.15C332.54,61.77,394.81,124,394.88,200.44Z"/></svg>