<?xml version="1.0" encoding="utf-8"?>
<!-- Generator: Adobe Illustrator 25.0.0, SVG Export Plug-In . SVG Version: 6.00 Build 0)  -->
<svg version="1.1" id="Layer_1" xmlns="http://www.w3.org/2000/svg" xmlns:xlink="http://www.w3.org/1999/xlink" x="0px" y="0px"
	 viewBox="0 0 512 512" style="enable-background:new 0 0 512 512;" xml:space="preserve">
<style type="text/css">
	.st0{fill:#EAF4F7;}
	.st1{fill:none;stroke:#363A5A;stroke-width:4;stroke-linecap:round;stroke-linejoin:round;}
	.st2{fill:none;stroke:#363A5A;stroke-width:6;stroke-linecap:round;stroke-linejoin:round;stroke-dasharray:10.176,15.264;}
	.st3{opacity:0.22;fill:#3DC0CB;enable-background:new    ;}
	.st4{fill:#3DC0CB;}
	.st5{fill:none;stroke:#363A5A;stroke-width:6;stroke-miterlimit:10;}
	.st6{fill:#87D5F7;stroke:#259AD6;stroke-width:6;stroke-linecap:round;stroke-linejoin:round;}
	.st7{fill:#FDDCBF;stroke:#ECB072;stroke-width:6;stroke-linecap:round;stroke-linejoin:round;}
	.st8{fill:#EE4637;}
	.st9{fill:#FFFFFF;}
	.st10{fill:none;stroke:#363A5A;stroke-width:6;stroke-linecap:round;stroke-linejoin:round;}
</style>
<path class="st0" d="M241.2,412.1l-18.5-52.2l-87.4,29.9L108,310.7l-71.2,14.2l49.9,174.9c0.4,1.6,1.9,2.7,3.5,2.6
	c0.7,0,1.3-0.2,1.9-0.6l101.6-64.2C193.4,437.1,241.2,412.1,241.2,412.1z"/>
<path class="st1" d="M149.5,379.7c0,0,1.5-0.4,4.1-1.1"/>
<path class="st0" d="M389.1,215.2c-31.4,0-56.9-9.1-56.9-20.4s25.5-20.4,56.9-20.4s56.9,9.1,56.9,20.4S420.5,215.2,389.1,215.2
	L389.1,215.2z"/>
<path class="st2" d="M165.9,374.6c16.5-4.5,39.3-13.4,44.6-31.3c11.2-37.3-64.1-78.9-51.5-108.1c7-16.2,37.4-20.2,57.3-16.7
	c24.5,4.4,39.5,21.6,45.2,28.3c28.8,34,20.9,73.2,45.8,87.3c2.9,1.7,11,6.2,21.2,4.8c1.7-0.2,11-1.7,17.4-8.6
	c12.5-13.9-2.2-32.4,8.2-47.1c9-12.5,24.7-5.7,35-17c6.8-7.5,10.7-22.5-0.6-55"/>
<path class="st1" d="M389.6,206c-0.4-1.4-0.8-2.7-1.2-4.1"/>
<circle class="st3" cx="144.1" cy="381.9" r="40.8"/>
<circle class="st4" cx="144.1" cy="381.9" r="23.6"/>
<circle class="st5" cx="144.1" cy="381.9" r="23.6"/>
<path class="st6" d="M154.8,171l67.8,12.8l-15.6-27.4L151,136.9c-6.6-2.3-13.7-1.9-20,1.1L7.7,213c-1.3,0.9-2,2.5-1.6,4L26,286.7
	l54.2-13.4l-9.9-39.9L154.8,171z"/>
<path class="st7" d="M262.2,343.6l38.7,9.7l18.7,42.9l-41.6-6.8L262.2,343.6L262.2,343.6z"/>
<path class="st7" d="M407,330.5l71-30.9l28,85.4l-114.9,65.3L370,390.9l45-25.3L407,330.5z"/>
<path class="st8" d="M472.9,95.6c0-48.9-39.7-88.2-87.7-85.9c-43,2.1-79.7,38.7-79.7,83c0,64,83.7,113.4,83.7,113.4
	S472.9,156.7,472.9,95.6z"/>
<path class="st9" d="M389.1,128.6c-19,0-34.5-15.4-34.5-34.5s15.4-34.5,34.5-34.5c19,0,34.5,15.4,34.5,34.5c0,0,0,0,0,0l0,0
	C423.6,113.1,408.2,128.5,389.1,128.6C389.1,128.6,389.1,128.6,389.1,128.6z"/>
<path class="st5" d="M389.1,128.6c-19,0-34.5-15.4-34.5-34.5s15.4-34.5,34.5-34.5c19,0,34.5,15.4,34.5,34.5c0,0,0,0,0,0l0,0
	C423.6,113.1,408.2,128.5,389.1,128.6C389.1,128.6,389.1,128.6,389.1,128.6z"/>
<path class="st10" d="M472.9,95.6c0-48.9-39.7-88.2-87.7-85.9c-43,2.1-79.7,38.7-79.7,83c0,64,83.7,113.4,83.7,113.4
	S472.9,156.7,472.9,95.6z"/>
</svg>
