<svg id="Layer_1" data-name="Layer 1" xmlns="http://www.w3.org/2000/svg" viewBox="0 0 512 512"><defs><style>.cls-1{fill:#FFFFFF;}.cls-2{fill:#f27366;}.cls-3{fill:#2ca9e1;}.cls-4{fill:#fff;}</style></defs><path class="cls-1" d="M265.56,478.14c-39.92,0-79.84,0-119.76-.08-3.08,0-4.47.9-5.74,3.74a40.85,40.85,0,0,1-46.69,23.14c-18.93-4.31-32.18-21.76-31.54-41.52A40.91,40.91,0,0,1,140,448c1.23,2.73,2.48,3.84,5.67,3.84q118.79-.17,237.56-.1c22.5,0,41-16.42,43.12-38.14a42.74,42.74,0,0,0-34.12-46.38,52.26,52.26,0,0,0-10.53-.9c-27.09-.07-54.19.14-81.28-.08C266,366,238.55,343,232.14,309.52c-7.85-41,24.4-80.61,66.21-81,23.56-.23,47.12-.09,70.68,0,2.72,0,4-.73,5.17-3.35A40.89,40.89,0,0,1,422.85,202c19.6,5.43,31.87,24.17,29.56,45.15-2.12,19.2-19.44,34.77-39.49,35.49A41,41,0,0,1,374.25,258c-1.09-2.48-2.28-3.48-5.11-3.46-22.78.13-45.55,0-68.33.09-24.41,0-43.43,18.78-43.45,42.74s18.92,42.69,43.39,42.76q41,.12,82.07,0c35.31-.11,65.59,26,69.44,60.1,4.06,35.93-18,67.8-53,76a81.4,81.4,0,0,1-17.5,1.86c-19.37.22-38.74.09-58.11.09Z"/><path class="cls-2" d="M412.38,181.8c-7.14-9-14-17.54-20.81-26.13q-15.76-19.8-31.49-39.62c-31.6-39.94-11.19-97.45,38.5-108.52,37.56-8.37,75.85,18.62,80.62,56.74Q482.8,93,465,115.71c-16.68,21.15-33.5,42.19-50.27,63.28C414.05,179.8,413.38,180.59,412.38,181.8Zm.12-133.3a25.09,25.09,0,1,0,25,25.33A25.05,25.05,0,0,0,412.5,48.5Z"/><path class="cls-3" d="M99.73,404.83,67.86,364.77c-7.08-8.9-14.21-17.77-21.24-26.72a67.45,67.45,0,1,1,119.62-52.46c2.82,17.54-.24,34.3-10.88,48.48C137.48,357.89,118.58,381,99.73,404.83Zm-.25-83.36a25.09,25.09,0,1,0-24.92-25.42A25.08,25.08,0,0,0,99.48,321.47Z"/><path class="cls-4" d="M412.5,48.5a25.09,25.09,0,1,1-.19,50.18,25.09,25.09,0,1,1,.19-50.18Z"/><path class="cls-4" d="M99.48,321.47a25.09,25.09,0,1,1,.36-50.18,25.09,25.09,0,1,1-.36,50.18Z"/></svg>
