<svg id="Layer_1" data-name="Layer 1" xmlns="http://www.w3.org/2000/svg" xmlns:xlink="http://www.w3.org/1999/xlink" viewBox="0 0 512 512"><defs><style>.cls-1{fill:#ebebeb;}.cls-1,.cls-2,.cls-3,.cls-4,.cls-5{stroke:#1f2733;}.cls-1,.cls-10,.cls-12,.cls-13,.cls-14,.cls-15,.cls-17,.cls-18,.cls-2,.cls-3,.cls-4,.cls-5,.cls-6{stroke-miterlimit:10;}.cls-1,.cls-18,.cls-2,.cls-3,.cls-4,.cls-5{stroke-width:0.25px;}.cls-2{fill:#f5f5f5;}.cls-3{fill:#e0e0e0;}.cls-4{fill:#fafafa;}.cls-12,.cls-5{fill:#fff;}.cls-6{fill:#e54d4e;}.cls-12,.cls-17,.cls-6{stroke:#2e353a;}.cls-7{fill:#f4b4b5;}.cls-8{fill:#eb7b7b;}.cls-9{fill:#fefdfd;}.cls-10{fill:#bcbcbc;}.cls-10,.cls-15,.cls-18{stroke:#142230;}.cls-10,.cls-13,.cls-14{stroke-width:0.5px;}.cls-11{fill:url(#linear-gradient);}.cls-13{fill:#2fa7df;}.cls-13,.cls-14{stroke:#000;}.cls-14{fill:#111d3e;}.cls-15{fill:#eef9fe;}.cls-16{fill:#263238;}.cls-17{fill:url(#linear-gradient-2);}.cls-18{fill:#ededed;}.cls-19{fill:#273339;}</style><linearGradient id="linear-gradient" x1="256" y1="250.26" x2="256" y2="111.28" gradientTransform="matrix(1, 0, 0, -1, 0, 512)" gradientUnits="userSpaceOnUse"><stop offset="0" stop-color="#e5e5e5"/><stop offset="0.48" stop-color="#f4f4f4"/><stop offset="1" stop-color="#fff"/></linearGradient><linearGradient id="linear-gradient-2" x1="291.43" y1="307.51" x2="305.77" y2="281.13" gradientTransform="matrix(1, 0, 0, -1, 0, 512)" gradientUnits="userSpaceOnUse"><stop offset="0" stop-color="#f6dbdb"/><stop offset="1" stop-color="#eb9a99"/></linearGradient></defs><rect class="cls-1" x="169.38" y="197.61" width="35.72" height="113.21"/><rect class="cls-1" x="187.24" y="197.61" width="17.86" height="112.9"/><rect class="cls-1" x="173.46" y="186.5" width="12.61" height="11.11"/><rect class="cls-1" x="183.07" y="186.5" width="3.01" height="11.11"/><polyline class="cls-1" points="166.41 197.61 166.41 196.96 206.15 196.96 206.15 197.61"/><rect class="cls-1" x="176.43" y="202.46" width="3.02" height="6.38"/><path class="cls-1" d="M187.24,211.33c0,.07-4,.13-8.93.13s-8.93-.06-8.93-.13,4-.11,8.93-.11S187.24,211.27,187.24,211.33Z"/><rect class="cls-1" x="194.45" y="202.46" width="3.02" height="6.38"/><path class="cls-1" d="M205.26,211.33c0,.07-4,.13-8.93.13s-8.93-.06-8.93-.13,4-.11,8.93-.11S205.26,211.27,205.26,211.33Z"/><rect class="cls-1" x="194.45" y="215.12" width="3.02" height="6.38"/><path class="cls-1" d="M205.26,224c0,.07-4,.13-8.93.13s-8.93-.06-8.93-.13,4-.12,8.93-.12S205.26,223.92,205.26,224Z"/><rect class="cls-1" x="194.45" y="228.16" width="3.02" height="6.38"/><path class="cls-1" d="M205.26,237c0,.07-4,.12-8.93.12s-8.93-.05-8.93-.12,4-.12,8.93-.12S205.26,237,205.26,237Z"/><rect class="cls-1" x="194.45" y="241.2" width="3.02" height="6.38"/><path class="cls-1" d="M205.26,250.08c0,.06-4,.11-8.93.11s-8.93-.05-8.93-.11,4-.13,8.93-.13S205.26,250,205.26,250.08Z"/><rect class="cls-1" x="194.45" y="253.87" width="3.02" height="6.38"/><path class="cls-1" d="M205.26,262.75c0,.06-4,.12-8.93.12s-8.93-.06-8.93-.12,4-.12,8.93-.12S205.26,262.67,205.26,262.75Z"/><rect class="cls-1" x="194.45" y="266.58" width="3.02" height="6.38"/><rect class="cls-1" x="194.45" y="279.47" width="3.02" height="6.38"/><path class="cls-1" d="M205.26,275.46c0,.06-4,.12-8.93.12s-8.93-.06-8.93-.12,4-.12,8.93-.12S205.26,275.39,205.26,275.46Z"/><rect class="cls-1" x="176.43" y="215.31" width="3.02" height="6.38"/><path class="cls-1" d="M187.24,224.18c0,.07-4,.13-8.93.13s-8.94-.06-8.94-.13,4-.12,8.92-.12S187.24,224.12,187.24,224.18Z"/><rect class="cls-1" x="176.43" y="228.16" width="3.02" height="6.38"/><path class="cls-1" d="M187.24,237c0,.07-4,.12-8.93.12s-8.94,0-8.94-.12,4-.13,8.92-.13S187.24,237,187.24,237Z"/><rect class="cls-1" x="176.43" y="241.02" width="3.02" height="6.38"/><path class="cls-1" d="M187.24,249.89c0,.07-4,.12-8.93.12s-8.94,0-8.94-.12,4-.13,8.92-.13S187.24,249.82,187.24,249.89Z"/><rect class="cls-1" x="176.43" y="253.87" width="3.02" height="6.38"/><path class="cls-1" d="M187.24,262.75c0,.06-4,.12-8.93.12s-8.94-.06-8.94-.12,4-.12,8.92-.12S187.24,262.67,187.24,262.75Z"/><rect class="cls-1" x="176.43" y="266.72" width="3.02" height="6.38"/><path class="cls-1" d="M187.24,275.59c0,.07-4,.13-8.93.13s-8.93-.06-8.93-.13,4-.12,8.93-.12S187.24,275.52,187.24,275.59Z"/><rect class="cls-1" x="176.43" y="279.57" width="3.02" height="6.38"/><rect class="cls-2" x="347.03" y="210.19" width="35.72" height="113.21"/><rect class="cls-1" x="364.9" y="210.19" width="17.86" height="112.9"/><rect class="cls-2" x="351.12" y="199.08" width="12.61" height="11.11"/><rect class="cls-1" x="360.72" y="199.08" width="3.01" height="11.11"/><polyline class="cls-3" points="344.06 210.19 344.06 209.55 383.8 209.55 383.8 210.19"/><rect class="cls-4" x="354.09" y="215.04" width="3.02" height="6.38"/><path class="cls-3" d="M364.9,223.92c0,.07-4,.12-8.94.12s-8.93,0-8.93-.12,4-.12,8.93-.12S364.9,223.86,364.9,223.92Z"/><rect class="cls-3" x="372.1" y="215.04" width="3.02" height="6.38"/><path class="cls-3" d="M382.91,223.92c0,.07-4,.12-8.93.12s-8.93,0-8.93-.12,4-.12,8.93-.12S382.91,223.86,382.91,223.92Z"/><rect class="cls-3" x="372.1" y="227.71" width="3.02" height="6.38"/><path class="cls-3" d="M382.91,236.55c0,.07-4,.12-8.93.12s-8.93,0-8.93-.12,4-.12,8.93-.12S382.91,236.55,382.91,236.55Z"/><rect class="cls-3" x="372.1" y="240.74" width="3.02" height="6.38"/><path class="cls-3" d="M382.91,249.62c0,.07-4,.12-8.93.12s-8.93-.05-8.93-.12,4-.12,8.93-.12S382.91,249.56,382.91,249.62Z"/><rect class="cls-3" x="372.1" y="253.78" width="3.02" height="6.38"/><path class="cls-3" d="M382.91,262.66c0,.07-4,.12-8.93.12s-8.93,0-8.93-.12,4-.12,8.93-.12S382.91,262.59,382.91,262.66Z"/><rect class="cls-3" x="372.1" y="266.45" width="3.02" height="6.38"/><path class="cls-3" d="M382.91,275.33c0,.07-4,.12-8.93.12s-8.93-.05-8.93-.12,4-.13,8.93-.13S382.91,275.26,382.91,275.33Z"/><rect class="cls-3" x="372.1" y="279.17" width="3.02" height="6.38"/><rect class="cls-3" x="372.1" y="292.06" width="3.02" height="6.38"/><path class="cls-3" d="M382.91,288.05c0,.06-4,.12-8.93.12s-8.93-.06-8.93-.12,4-.12,8.93-.12S382.91,288,382.91,288.05Z"/><rect class="cls-4" x="354.09" y="227.9" width="3.02" height="6.38"/><path class="cls-3" d="M364.9,236.77c0,.07-4,.12-8.94.12s-8.93,0-8.93-.12,4-.12,8.93-.12S364.9,236.71,364.9,236.77Z"/><rect class="cls-4" x="354.09" y="240.75" width="3.02" height="6.38"/><path class="cls-3" d="M364.9,249.62c0,.07-4,.13-8.94.13s-8.93-.06-8.93-.13,4-.12,8.93-.12S364.9,249.56,364.9,249.62Z"/><rect class="cls-4" x="354.09" y="253.6" width="3.02" height="6.38"/><path class="cls-3" d="M364.9,262.47c0,.08-4,.13-8.94.13s-8.93-.05-8.93-.13,4-.12,8.93-.12S364.9,262.41,364.9,262.47Z"/><rect class="cls-4" x="354.09" y="266.45" width="3.02" height="6.38"/><path class="cls-3" d="M364.9,275.33c0,.07-4,.12-8.94.12s-8.93-.05-8.93-.12,4-.13,8.93-.13S364.9,275.26,364.9,275.33Z"/><rect class="cls-4" x="354.09" y="279.31" width="3.02" height="6.38"/><path class="cls-3" d="M364.9,288.18c0,.07-4,.12-8.94.12s-8.93-.05-8.93-.12,4-.12,8.93-.12S364.9,288.11,364.9,288.18Z"/><rect class="cls-4" x="354.09" y="292.16" width="3.02" height="6.38"/><rect class="cls-1" x="420.53" y="275.91" width="57.84" height="76.29"/><rect class="cls-3" x="451.24" y="275.91" width="27.12" height="76.29"/><rect class="cls-2" x="432.65" y="286.24" width="5.2" height="12.64"/><rect class="cls-2" x="432.65" y="335.69" width="5.2" height="12.64"/><path class="cls-2" d="M451.24,303.83c0,.14-6.87.25-15.35.25s-15.36-.11-15.36-.25,6.87-.26,15.36-.26S451.24,303.68,451.24,303.83Z"/><rect class="cls-2" x="432.65" y="311.15" width="5.2" height="12.64"/><path class="cls-2" d="M451.24,328.74c0,.14-6.87.26-15.35.26s-15.36-.12-15.36-.26,6.87-.26,15.36-.26S451.24,328.6,451.24,328.74Z"/><rect class="cls-2" x="457.01" y="286.24" width="5.2" height="12.64"/><rect class="cls-2" x="468.29" y="286.24" width="5.2" height="12.64"/><rect class="cls-2" x="457.01" y="310.21" width="5.2" height="12.64"/><rect class="cls-2" x="468.29" y="310.21" width="5.2" height="12.64"/><rect class="cls-2" x="457.01" y="334.19" width="5.2" height="12.64"/><rect class="cls-2" x="468.29" y="334.19" width="5.2" height="12.64"/><rect class="cls-3" x="416.17" y="273.26" width="66.54" height="2.75"/><path class="cls-1" d="M478.77,276.26c0,.14-12.93.25-28.87.25S421,276.4,421,276.26,434,276,449.9,276,478.77,276.11,478.77,276.26Z"/><polygon class="cls-1" points="172.31 319.77 119.75 319.77 119.52 236.69 172.09 236.69 172.31 319.77"/><rect class="cls-3" x="145.8" y="236.69" width="26.28" height="83.08"/><rect class="cls-1" x="125.52" y="220.33" width="18.56" height="16.35"/><rect class="cls-3" x="139.65" y="220.33" width="4.43" height="16.35"/><rect class="cls-3" x="115.14" y="235.74" width="58.49" height="0.95"/><rect class="cls-5" x="129.89" y="243.82" width="4.45" height="9.38"/><path class="cls-3" d="M145.8,256.89c0,.1-5.91.18-13.14.18s-13.13-.09-13.13-.18,5.91-.18,13.14-.18S145.8,256.78,145.8,256.89Z"/><rect class="cls-2" x="156.4" y="243.82" width="4.45" height="9.38"/><path class="cls-1" d="M172.31,256.89c0,.1-5.91.18-13.14.18S146,257,146,256.89s5.91-.18,13.14-.18S172.31,256.78,172.31,256.89Z"/><rect class="cls-2" x="156.4" y="262.45" width="4.45" height="9.38"/><path class="cls-1" d="M172.31,275.51c0,.1-5.91.18-13.14.18s-13.14-.08-13.14-.18,5.91-.18,13.14-.18S172.31,275.41,172.31,275.51Z"/><rect class="cls-2" x="156.4" y="281.64" width="4.45" height="9.38"/><path class="cls-1" d="M172.31,294.7c0,.1-5.91.18-13.14.18S146,294.8,146,294.7s5.91-.18,13.14-.18S172.31,294.58,172.31,294.7Z"/><rect class="cls-2" x="156.4" y="300.83" width="4.45" height="9.38"/><path class="cls-1" d="M172.31,313.89c0,.1-5.91.18-13.14.18S146,314,146,313.89s5.91-.18,13.14-.18S172.31,313.79,172.31,313.89Z"/><rect class="cls-5" x="129.89" y="262.73" width="4.45" height="9.38"/><path class="cls-3" d="M145.8,275.79c0,.11-5.91.18-13.14.18s-13.13-.07-13.13-.18,5.91-.17,13.14-.17S145.8,275.7,145.8,275.79Z"/><rect class="cls-5" x="129.89" y="281.65" width="4.45" height="9.38"/><path class="cls-3" d="M145.8,294.7c0,.11-5.91.19-13.14.19s-13.13-.08-13.13-.19,5.91-.17,13.14-.17S145.8,294.58,145.8,294.7Z"/><rect class="cls-5" x="129.89" y="300.55" width="4.45" height="9.38"/><path class="cls-3" d="M145.8,313.62c0,.09-5.91.18-13.14.18s-13.13-.09-13.13-.18,5.91-.18,13.14-.18S145.8,313.52,145.8,313.62Z"/><path class="cls-6" d="M309.12,166.89h2.2c.16.13.37.09.56.11a11.43,11.43,0,0,1,9.51,8.93,12.33,12.33,0,0,0,.25,1.35v.33a3,3,0,0,0,0,1.34v.4c-.08,0-.06.1-.07.16-.08.44-.13.88-.23,1.31a20.79,20.79,0,0,1-3,6.72,47.58,47.58,0,0,1-8.07,9.33h-.07c-1.13-1-2.24-2.11-3.29-3.24a37,37,0,0,1-6.39-8.91,15.43,15.43,0,0,1-1.65-5.64v-1.6l.06-.6a11.38,11.38,0,0,1,9-9.75A8.89,8.89,0,0,0,309.12,166.89Zm-4.37,11.44a5.46,5.46,0,1,0,5.47-5.46A5.47,5.47,0,0,0,304.75,178.33Z"/><path class="cls-7" d="M298.79,177.48h.06v1.6h-.06Z"/><path class="cls-8" d="M321.64,179a3,3,0,0,1,0-1.34Z"/><path class="cls-9" d="M304.75,178.33a5.46,5.46,0,1,1,5.42,5.47A5.48,5.48,0,0,1,304.75,178.33Z"/><path class="cls-10" d="M408.67,321.35a23.19,23.19,0,0,0-6.16-1.69c0-2.9-.09-5.8-.11-8.71,0-1,0-1.73-1.36-2-6.82-1.45-9.74-6.37-10.92-12.7a35.83,35.83,0,0,1-.05-13.1c.36-2,1.28-3.61,3.66-3.4a3.12,3.12,0,0,1,3,3.9,33.5,33.5,0,0,0,.58,13.34,8.18,8.18,0,0,0,.51,1.59c.75,1.54,1.78,3.54,3.42,3.25,1.43-.26.6-2.45.58-3.74-.13-10.58-.35-21.15-.58-31.72,0-2.56,1.27-4,3.55-4.73s3.94.31,5.38,2c.83,1,.7,2.09.69,3.2,0,5.25-.05,10.49,0,15.74,0,.75-.46,1.87.7,2.13.93.22,1.57-.59,2-1.26a13.74,13.74,0,0,0,2.32-7.67c.11-3.09,0-6.19,0-9.28,0-1.94.49-3.53,2.89-3.68s3.55,1.2,3.79,3.27c.65,5.78.69,11.58-1.24,17.15-1.47,4.26-4.13,7.58-8.9,8.46-1.77.33-2.12,1.33-2.12,3,0,8.9-.08,17.8-.14,26.7Z"/><path class="cls-10" d="M97.45,308.72c-1,3.47-.34,7-.49,10.53s-1.25,4.47-5.07,4.1V320c0-.79-.12-1.38-1.1-1.64-4.48-1.18-6.08-4.72-6.68-8.78a34.92,34.92,0,0,1,0-7c.07-1.29.4-2.79,2.18-2.72s2.27,1.3,2.24,2.92c0,2.34,0,4.68.11,7a6.57,6.57,0,0,0,1,2.59c.35.62.9,1.45,1.69,1.25,1-.24.57-1.26.56-1.94-.15-6.45-.37-12.89-.51-19.34-.06-2.79,1.23-4.53,3.2-4.3,2.47.28,3.06,2,3,4.25-.09,2.91-.07,5.81,0,8.72,0,.66-.43,1.72.6,1.88.83.12,1.15-.85,1.48-1.5,1.25-2.5,1.27-5.2,1.35-7.93,0-1.55-1.22-3.95,1.58-4.35,3.11-.44,2.39,2.41,2.67,3.93,1.15,6.4-1.59,11.73-7.23,14.76C97.67,307.93,97.6,308.4,97.45,308.72Z"/><ellipse class="cls-11" cx="256" cy="390.36" rx="250" ry="88.5"/><path class="cls-12" d="M283.07,363s-.15,8.67,0,9.54-3.4,5.95-4.84,5.73-4.35-.71-4.77-1.19-.23-1.62-.08-2.66,1.23-10.49,1.23-11S281.46,361.68,283.07,363Z"/><path class="cls-13" d="M277.46,372c-1.81,1-2.83,4-3.09,4s-.73,0-.73-.34.07-1.28-.26-1.28-.7,1.62-.77,4-.91,8,0,8.68c.57.45,5.81,3.2,6,3.57s-.11,2.95.33,3.35,1.47,1.4,2.28,1.44,5.48.51,7.69,0,5-1.59,5.08-1.88-.56-6.55-1.26-7.32-5.73-7.69-6.14-8.32a7.17,7.17,0,0,1-.7-3,3.9,3.9,0,0,0-2.28-3.28A10.47,10.47,0,0,0,277.46,372Z"/><path class="cls-12" d="M230.21,368s0,5.06-.15,5.92,3.4,6,4.85,5.73,4.34-.71,4.76-1.19.23-1.62.08-2.66-1.08-6.86-1.08-7.35S231.82,366.7,230.21,368Z"/><path class="cls-14" d="M234.87,256.56c-2.05,7.45-5.92,33-5.92,45.38s-1.24,44-1.24,48.85-.52,16.73.72,17.35,4.14,2.49,8.07,1.87,5-3.11,5.08-5.39,1-18.63,2-24.95,4.25-18.49,6.42-26.32,7.25-23.59,8.59-23.53,9.73,34.57,10.43,36.53,2,29.74,2.12,32.07,0,4.58,1.47,5.53,6,3.28,8.29,3.46,3.88-3.55,4.32-4.67,1.19-38.29.92-48.49.53-29.21.06-35.41-2-19.48-3-22.28S234.87,256.56,234.87,256.56Z"/><path class="cls-12" d="M220.4,170c1.95-2.17,11.08-12.46,12.89-12.82s6.22-1.16,7.21-2.18,5.14-14.06,3.49-16.44-8-1.7-9.92,2.34-1.83,6.16-5,9-17,14.1-18.3,15.25,1.26,6.69,3.29,7.65S220.4,170,220.4,170Z"/><path class="cls-15" d="M245.62,173.08c-4.66,1-12.41,1.81-15,2.64s-12.63,4.36-12.56,2.85,4.67-8.12,3.84-8.8-5.79-1.5-6.62-2.55-2-3.54-3.09-3.24-14.2,12.49-13.31,17.15c2.11,11,33,19,33.73,23.81s-2.39,50.79-.7,52.48,19.61,8.18,28.64,8.74,24.86-2.58,25.73-5-4.41-48.08-3.8-48.08.79,14.39,7.66,18.11c4.54,2.45,10.79-.08,12-1.43s-4.26-20.48-6.74-26.93-4.83-19.77-10.42-24.5-13.48-3.93-16.19-5-11.83-.31-14.13-.55A84.09,84.09,0,0,0,245.62,173.08Z"/><path class="cls-12" d="M303.87,221.17s-8,2.43-8.67,3.26-1.74,4.18,0,5.58,3.66,2.43,5.72.83,4-3.78,5.15-4.05,4.77.24,6.27-.35,4.34-12,3.2-12.65S303.87,221.17,303.87,221.17Z"/><path class="cls-16" d="M245.66,171.55c-2.6-.54-7.61-5.44-8.07-10.42s-4-18.48,8.41-23.59c11.64-4.8,23.63.14,25.35,6.05,1.61,5.53-12.06,5.78-17.07,9.37s-5.36,6-6.61,5.42S245.66,171.55,245.66,171.55Z"/><path class="cls-12" d="M245.45,161.84c-.17,2.22-.73,13,.21,14.54s2.37,5.68,8.32,5.49,9.82-6.14,10.14-6.84-.37-9.3-.37-10.74-8-4.84-11.21-4.74S245.6,159.75,245.45,161.84Z"/><path class="cls-12" d="M246,161.87c.67,0-.13,4.07,1.09,5.41s6.51,8.32,12.11,7.64c4.85-.59,4.15-4.77,4.85-8.21.64-3.12,2.65-3.38,3.36-11.53.27-3.16,1.76-8.09-1-9s-13-3.34-15.57,0-2.8,11.38-4.13,10.35-4.14-6.09-5.78-3.35S242.41,162,246,161.87Z"/><path class="cls-17" d="M289.24,203.54l-16.3,20.61a1.62,1.62,0,0,0,.26,2.28,1.69,1.69,0,0,0,1,.35l30.13-.52a1.57,1.57,0,0,0,1.27-.65L321,205a1.47,1.47,0,0,0-.29-2.06,1.5,1.5,0,0,0-.89-.29l-29.36.24A1.64,1.64,0,0,0,289.24,203.54Z"/><path class="cls-12" d="M315,211.84c-1.58.16-3.89,1-3.89,1.88s1.85,1.06,2.36,1.14,1.18.23,1,.49-.57,1.53-1.59,1.31a60.56,60.56,0,0,0-6.35-.29c-.86,0-1.88.61-2,1.24s-.25.77-.76.8-1.44.51-1.44,1.34,2.05,1.58,2.05,1.87,4,2.75,4.81,3.2,2.26,1.62,3.09,1.62a2.51,2.51,0,0,0,2.32-1.93c.1-1.14,1.74-2,1.76-2.53s-.52-1-.45-1.32,1.49-.85,1.49-1.74a10.14,10.14,0,0,0-.64-2.47c-.09-.37-.42-1.18-.09-1.29S318.22,214,318,213,315.76,211.77,315,211.84Z"/><path class="cls-13" d="M235.67,373.44c1.81,1,2.83,3.95,3.09,4s.73,0,.73-.33-.07-1.29.26-1.29.7,1.62.77,4,.92,8,0,8.69c-.57.44-5.81,3.2-6,3.57s.11,2.94-.33,3.34-1.47,1.4-2.28,1.44-5.48.51-7.69,0-5-1.58-5.07-1.88.55-6.55,1.25-7.32,5.74-7.69,6.14-8.31a7.1,7.1,0,0,0,.7-3,3.91,3.91,0,0,1,2.29-3.28A10.37,10.37,0,0,1,235.67,373.44Z"/><path class="cls-18" d="M409.15,101.4h-46a24.5,24.5,0,0,1-12.85-3.14A20.27,20.27,0,0,1,340.12,83c-1.35-10.15,2.89-17.43,11.64-22.29a16,16,0,0,1,7.82-2.07c6.8,0,13.61-.05,20.41,0,1.77,0,2.53-.49,3.05-2.33a32.66,32.66,0,0,1,54.33-13.62,29.14,29.14,0,0,1,7.94,13.81c.42,1.67,1.14,2.28,2.88,2.14,5-.41,9.89.24,14.34,2.92a21.34,21.34,0,0,1,5.33,32.15,19.06,19.06,0,0,1-13.42,7.18C438.3,102.14,422.12,101,409.15,101.4Z"/><path class="cls-18" d="M88.3,126.78c-10.61,0-21.22.09-31.83,0-5.16-.07-9.85-1.45-13.5-5.58a15.74,15.74,0,0,1,6.49-25.23,19.82,19.82,0,0,1,7.81-1,1.87,1.87,0,0,0,2.26-1.57C63.1,82.51,70.85,76.79,81.68,76.15a23.18,23.18,0,0,1,23.57,16.43c.49,1.64,1.19,2.47,3.1,2.4,4.39-.15,8.78,0,13.18,0,7.48,0,13.8,4.48,15.58,11.75,2.24,9.16-2.85,18.09-12.82,19.6-7.24,1.09-14.54.32-21.82.48C97.75,126.87,93,126.78,88.3,126.78Z"/><path class="cls-19" d="M6,488.46c160.2-.7,339.8-.7,500,0"/></svg>