<svg width="25" height="20" viewBox="0 0 25 20" fill="none" xmlns="http://www.w3.org/2000/svg">
<path d="M19.7915 0H5.2085C2.333 0 0 2.036 0 4.5455V15.4545C0 17.964 2.333 20 5.2085 20H19.7915C22.667 20 25 17.964 25 15.4545V4.5455C25 2.036 22.667 0 19.7915 0ZM5.2085 1.8185H19.7915C21.0675 1.8185 22.214 2.4995 22.688 3.5335L14.7105 10.4965C13.488 11.5585 11.5105 11.5585 10.2895 10.4965L2.313 3.5335C2.786 2.4995 3.9325 1.8205 5.2085 1.8185ZM22.9165 15.4545C22.9165 16.9605 21.5165 18.1815 19.7915 18.1815H5.2085C3.4825 18.1815 2.0835 16.9605 2.0835 15.4545V5.9095L8.817 11.7835C10.852 13.557 14.148 13.557 16.183 11.7835L22.9165 5.9095V15.4545Z" fill="#121D3F"/>
<path d="M22.9165 5.9095V15.4545C22.9165 16.9605 21.5165 18.1815 19.7915 18.1815H5.2085C3.4825 18.1815 2.0835 16.9605 2.0835 15.4545V5.9095L8.817 11.7835C10.852 13.557 14.148 13.557 16.183 11.7835L22.9165 5.9095Z" fill="white"/>
<path d="M22.688 3.5335L14.7105 10.4965C13.488 11.5585 11.5105 11.5585 10.2895 10.4965L2.31299 3.5335C2.78599 2.4995 3.93249 1.8205 5.20849 1.8185H19.7915C21.0675 1.8185 22.214 2.4995 22.688 3.5335Z" fill="#2FA7DF"/>
</svg>
