<svg width="21" height="25" viewBox="0 0 21 25" fill="none" xmlns="http://www.w3.org/2000/svg">
<rect x="1.66016" y="10.1562" width="17.4805" height="13.0859" rx="6.54297" fill="white"/>
<path d="M4.88281 7.27539C4.88281 4.25508 7.33126 1.80664 10.3516 1.80664C13.3719 1.80664 15.8203 4.25508 15.8203 7.27539V8.88672H4.88281V7.27539Z" fill="#2FA7DF"/>
<path d="M17.7083 8.775V7.29167C17.7083 5.3578 16.9401 3.50313 15.5727 2.13568C14.2052 0.768227 12.3505 0 10.4167 0C8.4828 0 6.62813 0.768227 5.26068 2.13568C3.89323 3.50313 3.125 5.3578 3.125 7.29167V8.775C2.19725 9.1799 1.4076 9.84638 0.852603 10.6929C0.29761 11.5395 0.00133164 12.5294 0 13.5417V19.7917C0.00165402 21.1725 0.550919 22.4963 1.52731 23.4727C2.50371 24.4491 3.82751 24.9983 5.20833 25H15.625C17.0058 24.9983 18.3296 24.4491 19.306 23.4727C20.2824 22.4963 20.8317 21.1725 20.8333 19.7917V13.5417C20.832 12.5294 20.5357 11.5395 19.9807 10.6929C19.4257 9.84638 18.6361 9.1799 17.7083 8.775ZM5.20833 7.29167C5.20833 5.91033 5.75707 4.58557 6.73382 3.60882C7.71057 2.63207 9.03533 2.08333 10.4167 2.08333C11.798 2.08333 13.1228 2.63207 14.0995 3.60882C15.0763 4.58557 15.625 5.91033 15.625 7.29167V8.33333H5.20833V7.29167ZM18.75 19.7917C18.75 20.6205 18.4208 21.4153 17.8347 22.0014C17.2487 22.5874 16.4538 22.9167 15.625 22.9167H5.20833C4.37953 22.9167 3.58468 22.5874 2.99863 22.0014C2.41257 21.4153 2.08333 20.6205 2.08333 19.7917V13.5417C2.08333 12.7129 2.41257 11.918 2.99863 11.332C3.58468 10.7459 4.37953 10.4167 5.20833 10.4167H15.625C16.4538 10.4167 17.2487 10.7459 17.8347 11.332C18.4208 11.918 18.75 12.7129 18.75 13.5417V19.7917Z" fill="#121D3F"/>
<path d="M10.4004 14.5833C10.1241 14.5833 9.85918 14.6931 9.66383 14.8884C9.46848 15.0838 9.35873 15.3487 9.35873 15.625V17.7083C9.35873 17.9846 9.46848 18.2495 9.66383 18.4449C9.85918 18.6402 10.1241 18.75 10.4004 18.75C10.6767 18.75 10.9416 18.6402 11.137 18.4449C11.3323 18.2495 11.4421 17.9846 11.4421 17.7083V15.625C11.4421 15.3487 11.3323 15.0838 11.137 14.8884C10.9416 14.6931 10.6767 14.5833 10.4004 14.5833Z" fill="#2FA7DF"/>
</svg>
