<svg id="Layer_1" data-name="Layer 1" xmlns="http://www.w3.org/2000/svg" viewBox="0 0 512 512"><circle cx="256" cy="256" r="240" fill="#fff"/><path d="M256.42,208.09a48.91,48.91,0,0,0-48.89,48.73,48.37,48.37,0,0,0,48.89,48.72,48.73,48.73,0,1,0,0-97.45ZM180.2,256c0-41.29,34-75.14,75.39-75.14S331,214.7,331,256c0,2.48,0,5.79-.83,8.26-.83,7.43,5,13.2,12.43,13.2,12.43,0,14.08-15.67,14.08-21.46,0-55.33-45.57-100.75-101.07-100.75S154.52,200.66,154.52,256s45.56,100.75,101.07,100.75c29.83,0,56.34-12.39,74.56-33l20.71,17.34C328.49,367.48,293.7,384,256.41,384A127.8,127.8,0,0,1,128,256c0-70.18,57.16-128,128.42-128C326.83,128,384,185.81,384,256c0,28.07-13.26,51.21-40.59,51.21-11.61,0-19.05-5.79-23.2-11.57a76.3,76.3,0,0,1-118,13.58,74.74,74.74,0,0,1-22-53.21Zm76.21-22.3A22.32,22.32,0,1,1,234,256a22.24,22.24,0,0,1,22.37-22.3Z" fill="#c02428"/></svg>