<svg id="Layer_1" data-name="Layer 1" xmlns="http://www.w3.org/2000/svg" viewBox="0 0 309.78 229.82"><path d="M300.71,59a56.18,56.18,0,0,0-56.5-56.3c-29.8.4-59.6.1-89.3.1h-89a54.57,54.57,0,0,0-7,.2c-29,3.7-49.7,27.2-49.8,56.4,0,37.1-.1,74.3,0,111.4A55.89,55.89,0,0,0,65.41,227q89.55.15,179,0a55.83,55.83,0,0,0,56.2-56.3C300.71,133.53,300.61,96.33,300.71,59ZM46.41,31a18.63,18.63,0,0,1,5.6-2.9,27.27,27.27,0,0,1,12.8-2.9h180.3a32.57,32.57,0,0,1,21.2,7.9c1.4,1.2,2,2,0,3.3-26.5,17.9-52.9,36-79.3,54-.4.3-.8.4-1.2.69h0c-5.3,4.1-10.7,8.4-16.9,11.1-11.6,5.2-22.9,4.1-33.5-3.1q-44.55-30.28-89-60.7C40.91,34.73,40.91,34.73,46.41,31Zm231.8,138.59c0,6.5-1.1,12.7-4.8,18.31-6,10.5-15.2,15.69-27,16.69-1.4.11-2.8.11-4.2.11H67.41c-21.7,0-35.9-14.2-35.9-36V69a7,7,0,0,1,11-5.7c2.2,1.6,4.4,3.1,6.6,4.6,15.4,10.5,30.9,20.9,46.3,31.4,9.1,6.2,18.1,12.4,27.2,18.5,20.3,13.7,43.6,13.9,63.9.3,27-18.2,53.8-36.6,80.7-54.9h0a7,7,0,0,1,11,5.8Z" fill="#667093"/><path d="M267.41,63a7,7,0,0,1,10.9,5.7v100.8c0,6.5-1.1,12.7-4.8,18.3-6,10.5-15.2,15.7-27,16.7-1.4.1-2.8.1-4.2.1H67.51c-21.7,0-35.9-14.2-35.9-36V68.93a6.94,6.94,0,0,1,10.9-5.7c2.3,1.6,4.5,3.1,6.7,4.7,15.4,10.5,30.9,20.9,46.3,31.4,9.1,6.19,18.1,12.4,27.2,18.5,20.3,13.7,43.6,13.9,63.9.3,27-18.2,53.8-36.6,80.7-54.9C267.31,63.13,267.31,63.13,267.41,63Z" fill="#fff"/><path d="M269.21,35.83c-1.4.8-10.6,7-24.1,16.3l-58.7,41.2a2.62,2.62,0,0,1-.5.3c-2.4,1.7-9.3,6.7-16.7,9.7-3.2,1.19-9.5,3.8-17.1,3.19a35.91,35.91,0,0,1-17.3-6.4q-45.75-31.2-91.4-62.3c-5.6-3.8-5.6-3.8,0-7.6a20.45,20.45,0,0,1,5.7-2.9,27.5,27.5,0,0,1,13.2-3h185.2c8.2,0,15.4,2.9,23.2,10.11C271.11,34.73,269.51,35.63,269.21,35.83Z" fill="#667093" opacity="0.3" style="isolation:isolate"/></svg>