<svg id="Layer_1" data-name="Layer 1" xmlns="http://www.w3.org/2000/svg" viewBox="0 0 309.8 229.8"><path d="M300.7,59.8A56.18,56.18,0,0,0,244.6,3.5h-.4c-29.8.4-59.6.1-89.3.1h-89a54.57,54.57,0,0,0-7,.2C29.9,7.5,9.2,31,9.1,60.2c0,37.1-.1,74.3,0,111.4a55.87,55.87,0,0,0,55.6,56.2h.7q89.55.15,179,0a55.84,55.84,0,0,0,56.2-55.5v-.8C300.7,134.3,300.6,97.1,300.7,59.8ZM46.4,31.8A17.59,17.59,0,0,1,52,28.9,27.27,27.27,0,0,1,64.8,26H245.1a32.37,32.37,0,0,1,21.2,7.9c1.4,1.2,2,2,0,3.3-26.5,17.9-52.9,36-79.3,54-.4.3-.8.4-1.2.7h0c-5.3,4.1-10.7,8.4-16.9,11.1-11.6,5.2-22.9,4.1-33.5-3.1q-44.55-30.3-89-60.7C40.9,35.5,40.9,35.5,46.4,31.8ZM278.2,170.4c0,6.5-1.1,12.7-4.8,18.3-6,10.5-15.2,15.7-27,16.7-1.4.1-2.8.1-4.2.1H67.4c-21.7,0-35.9-14.2-35.9-36V69.8a7,7,0,0,1,7-7,6.6,6.6,0,0,1,4,1.3c2.2,1.6,4.4,3.1,6.6,4.6C64.5,79.2,80,89.6,95.4,100.1c9.1,6.2,18.1,12.4,27.2,18.5,20.3,13.7,43.6,13.9,63.9.3,27-18.2,53.8-36.6,80.7-54.9h0a7,7,0,0,1,9.7,1.7,7.39,7.39,0,0,1,1.3,4.1Z" fill="#162143"/><path d="M269.2,36.6c-1.4.8-10.6,7-24.1,16.3L186.4,94.1c-.2.1-.3.2-.5.3-2.4,1.7-9.3,6.7-16.7,9.7-3.2,1.2-9.5,3.8-17.1,3.2a36.09,36.09,0,0,1-17.3-6.4Q89,69.7,43.4,38.6c-5.6-3.8-5.6-3.8,0-7.6a20.45,20.45,0,0,1,5.7-2.9,27.5,27.5,0,0,1,13.2-3H247.5c8.2,0,15.4,2.9,23.2,10.1C271.1,35.5,269.5,36.4,269.2,36.6Z" fill="#f27366"/></svg>