<svg id="Layer_1" data-name="Layer 1" xmlns="http://www.w3.org/2000/svg" viewBox="0 0 512 512"><path d="M414.4,167c-6.4-40.9-25.6-74.6-57-100.1-29.6-24.2-63-36.4-99.4-36.4a181,181,0,0,0-24.1,1.7c-46.9,6.6-84.2,29.9-110.7,69.4S89,187.5,102.6,236.3c8.1,28.9,21.2,58.7,41.5,93.9,27.2,47.3,61.5,94.8,104.8,145.2a43.5,43.5,0,0,0,6.2,5.3l1,.7.9-.7a34.6,34.6,0,0,0,6.2-5.3,1023.4,1023.4,0,0,0,77.4-101.1c29.3-43.9,48.3-79.5,61.6-115.6C415,224.3,418.9,195.2,414.4,167Zm-72.3,24.8c-.8,47.6-39.9,86-86.6,85.2s-86.2-39.7-85.5-87.1,39.8-86.2,86.8-85.4S343,144.4,342.1,191.8Z" fill="#f27366"/><path d="M325.6,123A97.6,97.6,0,0,0,257,93.5a95.2,95.2,0,0,0-68.1,27.1A97.7,97.7,0,0,0,159,189.7a95.5,95.5,0,0,0,27.6,68.9A98.4,98.4,0,0,0,255.3,288H257a94.8,94.8,0,0,0,66.7-27.6A98,98,0,0,0,353.1,192,95.5,95.5,0,0,0,325.6,123ZM255.7,266c-41.8-.7-75.3-34.8-74.7-76a75.6,75.6,0,0,1,23.2-53.6,73.2,73.2,0,0,1,51.2-20.9h1.2a76.1,76.1,0,0,1,53.3,22.9,73.8,73.8,0,0,1,21.2,53.2c-.7,41.3-33.9,74.4-74.1,74.4Zm69.9-143A97.6,97.6,0,0,0,257,93.5a95.2,95.2,0,0,0-68.1,27.1A97.7,97.7,0,0,0,159,189.7a95.5,95.5,0,0,0,27.6,68.9A98.4,98.4,0,0,0,255.3,288H257a94.8,94.8,0,0,0,66.7-27.6A98,98,0,0,0,353.1,192,95.5,95.5,0,0,0,325.6,123ZM255.7,266c-41.8-.7-75.3-34.8-74.7-76a75.6,75.6,0,0,1,23.2-53.6,73.2,73.2,0,0,1,51.2-20.9h1.2a76.1,76.1,0,0,1,53.3,22.9,73.8,73.8,0,0,1,21.2,53.2c-.7,41.3-33.9,74.4-74.1,74.4Zm69.9-143A97.6,97.6,0,0,0,257,93.5a95.2,95.2,0,0,0-68.1,27.1A97.7,97.7,0,0,0,159,189.7a95.5,95.5,0,0,0,27.6,68.9A98.4,98.4,0,0,0,255.3,288H257a94.8,94.8,0,0,0,66.7-27.6A98,98,0,0,0,353.1,192,95.5,95.5,0,0,0,325.6,123ZM255.7,266c-41.8-.7-75.3-34.8-74.7-76a75.6,75.6,0,0,1,23.2-53.6,73.2,73.2,0,0,1,51.2-20.9h1.2a76.1,76.1,0,0,1,53.3,22.9,73.8,73.8,0,0,1,21.2,53.2c-.7,41.3-33.9,74.4-74.1,74.4Z" fill="#162143"/><path d="M436.2,163.6c-7.4-46.4-29.2-84.7-64.9-113.8-41-33.4-88.2-46.6-140.4-39.3s-95.8,33.9-126,78.8S66,186.9,81.4,242.3c8.6,30.6,22.4,62,43.6,98.9,27.9,48.5,63,97.1,107.2,148.6a67.1,67.1,0,0,0,9.7,8.5l3.5,2.7,3,2.5h15.3l3.1-2.5c1-.9,2.2-1.8,3.4-2.7,3.1-2.4,6.7-5,9.7-8.5a1029.1,1029.1,0,0,0,79-103.4c29.8-44.7,50.2-82.8,64-120S441.3,195.6,436.2,163.6ZM257,480.7l-.9.7-1-.7a43.5,43.5,0,0,1-6.2-5.3c-43.3-50.4-77.6-97.9-104.8-145.2-20.3-35.2-33.4-65-41.5-93.9-13.6-48.8-6.7-94.2,20.6-134.7S187,38.8,233.9,32.2A181,181,0,0,1,258,30.5c36.4,0,69.8,12.2,99.4,36.4,31.4,25.5,50.6,59.2,57,100.1,4.5,28.2.6,57.3-12.2,91.7-13.3,36.1-32.3,71.7-61.6,115.6a1023.4,1023.4,0,0,1-77.4,101.1A34.6,34.6,0,0,1,257,480.7Z" fill="#162143"/></svg>