<?xml version="1.0" encoding="utf-8"?>
<!-- Generator: Adobe Illustrator 25.0.0, SVG Export Plug-In . SVG Version: 6.00 Build 0)  -->
<svg version="1.1" id="Layer_1" xmlns="http://www.w3.org/2000/svg" xmlns:xlink="http://www.w3.org/1999/xlink" x="0px" y="0px"
	 viewBox="0 0 512 512" style="enable-background:new 0 0 512 512;" xml:space="preserve">
<style type="text/css">
	.st0{fill:#162143;}
	.st1{fill:#F27366;}
	.st2{fill:#2BA5DD;}
	.st3{fill:#FFFFFF;}
</style>
<path class="st0" d="M393.1,469c40.8-2.2,73.4-34.8,75.4-75.6C466.4,434.1,433.9,466.7,393.1,469z M393.1,469
	c40.8-2.2,73.4-34.8,75.4-75.6C466.4,434.1,433.9,466.7,393.1,469z M473.4,309.4c-23.7-24.6-51.5-37.2-81.8-37.2
	c-13.2,0.1-26.2,2.3-38.7,6.4c-20.5,6.8-37.4,17.2-50.2,31.1c-7.4,8-24.9,30-29,61.7c-6.7,51.3,25.2,106.8,72.6,126.4
	c13.4,5.5,27.7,8.2,42.2,8.2c6.7,0,13.3-0.6,19.9-1.7c34-5.6,55.9-24.8,61.7-30.5c20.9-20.2,27.7-42.6,30.3-51
	C513.4,380.5,504,341.3,473.4,309.4L473.4,309.4z M446.8,447.4c-15.4,15.4-36.2,24.1-58,24.1c-45.3-0.1-82.1-37-82.1-82.1
	c-0.1-45.4,36.6-82.2,81.9-82.4c45.4-0.1,82.2,36.6,82.4,81.9C471.1,410.9,462.4,431.9,446.8,447.4L446.8,447.4z M393.1,469
	c40.8-2.2,73.4-34.8,75.4-75.6C466.4,434.1,433.9,466.7,393.1,469z M393.1,469c40.8-2.2,73.4-34.8,75.4-75.6
	C466.4,434.1,433.9,466.7,393.1,469z M393.1,469c40.8-2.2,73.4-34.8,75.4-75.6C466.4,434.1,433.9,466.7,393.1,469z"/>
<path d="M393.1,469c40.8-2.2,73.4-34.8,75.4-75.6C466.4,434.1,433.9,466.7,393.1,469z M371,467.1c1.3,0.3,2.6,0.6,3.9,0.8
	C373.6,467.6,372.3,467.4,371,467.1z M393.1,469c40.8-2.2,73.4-34.8,75.4-75.6C466.4,434.1,433.9,466.7,393.1,469z M371,467.1
	c1.3,0.3,2.6,0.6,3.9,0.8C373.6,467.6,372.3,467.4,371,467.1z M371,467.1c1.3,0.3,2.6,0.6,3.9,0.8
	C373.6,467.6,372.3,467.4,371,467.1z M393.1,469c40.8-2.2,73.4-34.8,75.4-75.6C466.4,434.1,433.9,466.7,393.1,469z M371,467.1
	c1.3,0.3,2.6,0.6,3.9,0.8C373.6,467.6,372.3,467.4,371,467.1z M393.1,469c40.8-2.2,73.4-34.8,75.4-75.6
	C466.4,434.1,433.9,466.7,393.1,469z M393.1,469c40.8-2.2,73.4-34.8,75.4-75.6C466.4,434.1,433.9,466.7,393.1,469z M371,467.1
	c1.3,0.3,2.6,0.6,3.9,0.8C373.6,467.6,372.3,467.4,371,467.1z M393.1,469c40.8-2.2,73.4-34.8,75.4-75.6
	C466.4,434.1,433.9,466.7,393.1,469z M371,467.1c1.3,0.3,2.6,0.6,3.9,0.8C373.6,467.6,372.3,467.4,371,467.1z M393.1,469
	c40.8-2.2,73.4-34.8,75.4-75.6C466.4,434.1,433.9,466.7,393.1,469z M371,467.1c1.3,0.3,2.6,0.6,3.9,0.8
	C373.6,467.6,372.3,467.4,371,467.1z"/>
<path class="st1" d="M146.5,211.2c0,10.9-8.9,19.6-19.7,19.6s-19.6-8.9-19.6-19.7c0-10.8,8.8-19.6,19.6-19.6
	c10.8-0.1,19.7,8.6,19.7,19.5C146.5,211,146.5,211.1,146.5,211.2z"/>
<path class="st1" d="M212.6,230.8c-10.8,0.1-19.7-8.7-19.7-19.5c-0.1-10.8,8.7-19.7,19.5-19.7c10.8-0.1,19.6,8.6,19.7,19.4
	c0.1,10.8-8.5,19.7-19.3,19.8C212.8,230.8,212.7,230.8,212.6,230.8z"/>
<path class="st1" d="M317.9,211.2c0,10.9-8.9,19.6-19.7,19.6s-19.6-8.9-19.6-19.7c0-10.9,8.9-19.6,19.7-19.6
	C309.1,191.5,317.9,200.3,317.9,211.2C317.9,211.2,317.9,211.2,317.9,211.2z"/>
<path class="st1" d="M384,230.8c-10.9,0-19.7-8.7-19.7-19.6c0-10.9,8.7-19.7,19.6-19.7c10.8,0,19.7,8.7,19.7,19.6
	C403.6,221.9,394.9,230.7,384,230.8z"/>
<path class="st2" d="M126.7,277.2c10.9-0.1,19.7,8.6,19.8,19.5c0.1,10.9-8.6,19.7-19.5,19.8c-10.8,0.1-19.7-8.5-19.8-19.3
	c-0.2-10.9,8.5-19.8,19.3-20C126.6,277.2,126.6,277.2,126.7,277.2z"/>
<path class="st1" d="M212.6,316.4c-10.9,0-19.7-8.7-19.7-19.6c0-10.9,8.7-19.7,19.6-19.7c10.8,0,19.5,8.6,19.7,19.3
	c0.2,10.9-8.5,19.8-19.3,20C212.8,316.4,212.7,316.4,212.6,316.4z"/>
<path class="st2" d="M146.5,382.9c-0.2,10.9-9.2,19.5-20.1,19.2s-19.5-9.2-19.2-20.1c0.2-10.8,9.1-19.4,20-19.2
	C138,363,146.7,372,146.5,382.9z"/>
<path class="st2" d="M212.5,402.1c-10.9,0-19.7-8.8-19.7-19.6c0-10.9,8.8-19.7,19.6-19.7c10.8,0,19.6,8.7,19.7,19.5
	c0.1,10.9-8.6,19.8-19.5,19.8C212.6,402.1,212.6,402.1,212.5,402.1z"/>
<path class="st3" d="M388.8,307.1c-45.3,0.1-82.1,36.9-82.1,82.2c0,45.1,36.8,82,82.1,82.1c45.4,0,82.2-36.8,82.2-82.1
	S434.2,307.1,388.8,307.1L388.8,307.1z M379.2,422.1c-10-0.4-18-8.5-18.2-18.5c-0.4-14.1-0.4-28.2,0-42.3
	c0.4-10.8,9.5-19.2,20.3-18.8c10.2,0.4,18.4,8.5,18.8,18.7c0.4,7,0.1,14.1,0.1,21.7c3.9,0,7-0.2,10.1,0c10.8,0.7,19,10,18.3,20.8
	c-0.6,9.9-8.5,17.8-18.4,18.3C399.9,422.5,389.5,422.5,379.2,422.1L379.2,422.1z"/>
<path class="st3" d="M379.2,422.1c-10-0.4-17.9-8.5-18.2-18.4c-0.4-14.1-0.4-28.2,0-42.3c0.4-10.8,9.5-19.2,20.3-18.8
	c10.2,0.4,18.4,8.5,18.8,18.7c0.4,7,0.1,14.1,0.1,21.7c3.9,0,7-0.2,10.1,0c10.8,0.7,19,10,18.3,20.8c-0.6,9.9-8.5,17.8-18.4,18.3
	C399.9,422.5,389.5,422.5,379.2,422.1z"/>
<path class="st1" d="M428.7,402.9c-0.1,10.3-8.2,18.8-18.5,19.3c-10.3,0.3-20.7,0.3-31,0c-10-0.4-18-8.5-18.2-18.4
	c-0.4-14.1-0.4-28.2,0-42.3c0.4-10.8,9.5-19.2,20.3-18.8c10.2,0.4,18.4,8.5,18.8,18.7c0.4,7,0.1,14.1,0.1,21.7c3.9,0,7-0.2,10.1,0
	C420.8,383.6,428.9,392.4,428.7,402.9z"/>
<path class="st0" d="M433.4,49.6h-46.7V21.2c0-4.5-1.8-8.5-4.8-11.5c-3-3-7.1-4.8-11.6-4.7c-9,0.1-16.1,7.7-16.1,16.6v28h-82.1V21.2
	c0-4.5-1.8-8.5-4.8-11.5c-3-3-7.1-4.8-11.6-4.7c-9,0.1-16.1,7.7-16.1,16.6l0,28h-82.1V21.2c0-4.5-1.8-8.5-4.8-11.5
	c-3-3-7.1-4.8-11.6-4.7c-9,0.1-16.1,7.7-16.1,16.6l0,28H79c-40.3,0-73,32.7-73,73v307.8C6,472.7,40.3,507,82.7,507h114.1
	c8.7,0,15.7-7,15.7-15.7v0c0-8.7-7-15.7-15.7-15.7H87.5c-27.1,0-49.1-22-49.1-49.1v-300c0-25.1,20.3-45.4,45.4-45.4h41.4v32.2
	c0,4.5,1.8,8.5,4.8,11.5c2.9,2.9,7,4.8,11.5,4.8c9,0,16.2-7.3,16.2-16.2V81.1h82.1v32.2c0,4.5,1.8,8.5,4.8,11.5
	c3,3,7.1,4.8,11.6,4.7c9-0.1,16.1-7.7,16.1-16.6V81.1h82.1v32.2c0,4.5,1.8,8.5,4.8,11.5c3,3,7.1,4.8,11.6,4.7
	c9-0.1,16.1-7.7,16.1-16.6V81.1h41.8c24.9,0,45,20.2,45,45v68.8c0,9,7.3,16.3,16.3,16.3h0c9,0,16.3-7.3,16.3-16.3v-72.7
	C506,82.1,473.5,49.6,433.4,49.6z"/>
</svg>
