<svg xmlns="http://www.w3.org/2000/svg" width="12.32" height="14.203" viewBox="0 0 12.32 14.203">
  <g id="Group_964" data-name="Group 964" transform="translate(-1180.257 2608.441)">
    <g id="Group_963" data-name="Group 963" transform="translate(1180.257 -2608.441)">
      <g id="Group_957" data-name="Group 957" transform="translate(0.113 0.113)">
        <g id="Group_953" data-name="Group 953" transform="translate(0)">
          <path id="Path_770" data-name="Path 770" d="M1195.686-2602.076q0,.209,0,.417,0,1.16,0,2.32c0,1.943,0,3.952,0,5.929a2.233,2.233,0,0,1-1.7,2.208l-.2.046-.075.017h-7.723l-.143-.035c-.118-.028-.228-.055-.334-.091a2.223,2.223,0,0,1-1.5-2.049c0-.113,0-.224,0-.342,0-.056,0-.112,0-.168v-.154l-.152-.031-.042-.008-.084-.017a.29.29,0,0,1-.249-.313.293.293,0,0,1,.311-.27h1.6l.037-.142c0-.019.009-.036.013-.053s.014-.058.021-.081a.3.3,0,0,1,.278-.206l.032,0a.273.273,0,0,1,.258.255c.011.4.012.765,0,1.119a.279.279,0,0,1-.279.265h-.011a.293.293,0,0,1-.287-.246c0-.026-.008-.055-.011-.09s0-.04-.006-.061l-.019-.167h-.791l-.021.165a1.717,1.717,0,0,0,1.1,2.039,1.713,1.713,0,0,0,.56.09c1.33,0,2.711,0,4.219,0l2.929,0a1.628,1.628,0,0,0,1.683-1.718c0-1.774,0-3.577,0-5.322v-2.08q0-.322,0-.643c0-.484,0-.985,0-1.477a1.626,1.626,0,0,0-1.258-1.629,1.9,1.9,0,0,0-.435-.048l-4.3,0h-2.815a1.621,1.621,0,0,0-1.622,1.176.32.32,0,0,1-.291.248.311.311,0,0,1-.1-.016.3.3,0,0,1-.174-.409,2.228,2.228,0,0,1,.783-1.134,2.154,2.154,0,0,1,1.293-.448c1.381,0,2.638,0,3.842,0,1.22,0,2.356,0,3.472.005a2.156,2.156,0,0,1,1.538.648,2.258,2.258,0,0,1,.651,1.564C1195.688-2602.7,1195.687-2602.383,1195.686-2602.076Z" transform="translate(-1183.48 2605.229)" fill="#e4e5e6"/>
        </g>
        <path id="Path_771" data-name="Path 771" d="M1326.654-2485.195h-.009a1.626,1.626,0,0,0-1.152.479,1.6,1.6,0,0,0-.47,1.147,1.625,1.625,0,0,0,1.625,1.611,1.6,1.6,0,0,0,1.139-.477,1.608,1.608,0,0,0,.474-1.146A1.617,1.617,0,0,0,1326.654-2485.195Zm-.013,2.643h-.009a1,1,0,0,1-1-1.023,1,1,0,0,1,1.015-1h.009a1,1,0,0,1,1,1.023A1,1,0,0,1,1326.641-2482.552Z" transform="translate(-1320.032 2489.426)" fill="#e4e5e6"/>
        <path id="Path_772" data-name="Path 772" d="M1344.253-2466.667a1,1,0,0,1-1.015,1h-.009a1,1,0,0,1-1-1.023,1,1,0,0,1,1.015-1h.009A1,1,0,0,1,1344.253-2466.667Z" transform="translate(-1336.63 2472.539)" fill="#e4e5e6"/>
        <g id="Group_954" data-name="Group 954" transform="translate(0 2.32)">
          <path id="Path_773" data-name="Path 773" d="M1186.018-2538a.27.27,0,0,1-.267.218h-.015a.3.3,0,0,1-.278-.206c-.008-.024-.014-.051-.021-.08l-.011-.046-.036-.142h-.807v.856q0,.628,0,1.256a.379.379,0,0,1-.085.255.269.269,0,0,1-.206.086.274.274,0,0,1-.208-.088.371.371,0,0,1-.087-.252v-2.063l-.147-.033-.031-.008c-.025-.005-.049-.011-.077-.016a.294.294,0,0,1-.271-.308.3.3,0,0,1,.313-.279h1.619l.024-.161c0-.026.007-.05.01-.074.006-.043.011-.081.018-.114a.289.289,0,0,1,.283-.225h.011a.268.268,0,0,1,.27.226C1186.035-2538.8,1186.035-2538.4,1186.018-2538Z" transform="translate(-1183.469 2539.42)" fill="#e4e5e6"/>
        </g>
        <g id="Group_955" data-name="Group 955" transform="translate(0.092 6.183)">
          <path id="Path_774" data-name="Path 774" d="M1188.527-2428.34a.27.27,0,0,1-.269.244h-.017a.284.284,0,0,1-.285-.238c-.005-.028-.009-.06-.014-.1,0-.022,0-.046-.008-.071l-.021-.165h-.827v.87q0,.626,0,1.251a.37.37,0,0,1-.083.254.268.268,0,0,1-.209.083.3.3,0,0,1-.294-.339q0-.631,0-1.262v-1.056l-.228.187a.663.663,0,0,1-.165-.146.261.261,0,0,1-.01-.27.292.292,0,0,1,.258-.156l.49,0h1.069l.02-.167c0-.025.005-.047.008-.069,0-.038.007-.071.012-.1a.282.282,0,0,1,.29-.238h.014a.265.265,0,0,1,.268.242C1188.541-2429.177,1188.541-2428.759,1188.527-2428.34Z" transform="translate(-1186.065 2429.825)" fill="#e4e5e6"/>
        </g>
        <g id="Group_956" data-name="Group 956" transform="translate(4.324 8.282)">
          <path id="Path_775" data-name="Path 775" d="M1310.594-2368.995a.276.276,0,0,1-.233.154.232.232,0,0,1-.06-.008.58.58,0,0,1-.231-.148,2.338,2.338,0,0,0-1.663-.7,2.306,2.306,0,0,0-1.341.431,2.649,2.649,0,0,0-.394.354.358.358,0,0,1-.258.124.269.269,0,0,1-.189-.078.275.275,0,0,1-.091-.2.361.361,0,0,1,.109-.253,2.941,2.941,0,0,1,1.734-.928c.1-.016.206-.024.3-.031l.094-.008a2.944,2.944,0,0,1,2.168.932A.284.284,0,0,1,1310.594-2368.995Z" transform="translate(-1306.134 2370.279)" fill="#e4e5e6"/>
        </g>
      </g>
      <g id="Group_962" data-name="Group 962" transform="translate(0)">
        <g id="Group_958" data-name="Group 958" transform="translate(0)">
          <path id="Path_776" data-name="Path 776" d="M1192.474-2605.288q0,.208,0,.417,0,1.16,0,2.32c0,1.943,0,3.952,0,5.929a2.233,2.233,0,0,1-1.7,2.207c-.066.016-.134.032-.2.046l-.075.017h-7.723l-.143-.035c-.117-.028-.228-.055-.334-.091a2.223,2.223,0,0,1-1.5-2.049c0-.112,0-.224,0-.342q0-.083,0-.168v-.155l-.152-.031-.042-.008-.084-.017a.289.289,0,0,1-.249-.313.293.293,0,0,1,.311-.27h1.6l.037-.142c0-.019.009-.036.013-.053s.014-.057.022-.081a.294.294,0,0,1,.278-.206l.032,0a.273.273,0,0,1,.258.255c.011.4.012.765,0,1.119a.279.279,0,0,1-.279.265h-.011a.293.293,0,0,1-.287-.246c-.005-.026-.008-.055-.011-.09s0-.04-.006-.061l-.019-.167h-.791l-.021.165a1.717,1.717,0,0,0,1.1,2.039,1.712,1.712,0,0,0,.56.09c1.33,0,2.71,0,4.219,0l2.928,0a1.628,1.628,0,0,0,1.682-1.718c0-1.774,0-3.577,0-5.321v-2.08q0-.322,0-.643c0-.484,0-.984,0-1.477a1.627,1.627,0,0,0-1.258-1.629,1.882,1.882,0,0,0-.435-.048l-4.3,0h-2.815a1.622,1.622,0,0,0-1.622,1.176.32.32,0,0,1-.291.248.311.311,0,0,1-.1-.016.3.3,0,0,1-.174-.409,2.226,2.226,0,0,1,.783-1.134,2.153,2.153,0,0,1,1.293-.448c1.381,0,2.638-.005,3.842-.005,1.22,0,2.356,0,3.473.006a2.155,2.155,0,0,1,1.537.647,2.259,2.259,0,0,1,.651,1.564C1192.476-2605.913,1192.475-2605.595,1192.474-2605.288Z" transform="translate(-1180.268 2608.441)" fill="#162143"/>
        </g>
        <path id="Path_777" data-name="Path 777" d="M1323.442-2488.407h-.009a1.627,1.627,0,0,0-1.152.479,1.6,1.6,0,0,0-.47,1.147,1.626,1.626,0,0,0,1.626,1.611,1.6,1.6,0,0,0,1.139-.477,1.607,1.607,0,0,0,.474-1.146A1.617,1.617,0,0,0,1323.442-2488.407Zm-.013,2.643h-.009a1,1,0,0,1-1-1.023,1,1,0,0,1,1.015-1h.009a1,1,0,0,1,1,1.023A1,1,0,0,1,1323.429-2485.764Z" transform="translate(-1316.82 2492.638)" fill="#162143"/>
        <path id="Path_778" data-name="Path 778" d="M1341.041-2469.88a1,1,0,0,1-1.015,1h-.009a1,1,0,0,1-1-1.023,1,1,0,0,1,1.015-1h.009A1,1,0,0,1,1341.041-2469.88Z" transform="translate(-1333.418 2475.751)" fill="#f27366"/>
        <g id="Group_959" data-name="Group 959" transform="translate(0 2.32)">
          <path id="Path_779" data-name="Path 779" d="M1182.806-2541.209a.27.27,0,0,1-.267.218h-.015a.3.3,0,0,1-.278-.207c-.008-.024-.014-.051-.021-.08l-.011-.046-.036-.142h-.807v.856q0,.628,0,1.256a.38.38,0,0,1-.085.255.269.269,0,0,1-.206.086.273.273,0,0,1-.208-.088.369.369,0,0,1-.087-.252v-2.063l-.147-.033-.031-.007c-.025-.006-.05-.012-.077-.017a.293.293,0,0,1-.271-.308.3.3,0,0,1,.313-.279h1.619l.024-.161c0-.026.007-.05.01-.073.006-.043.011-.081.018-.115a.289.289,0,0,1,.284-.225h.011a.268.268,0,0,1,.27.226C1182.823-2542.014,1182.823-2541.612,1182.806-2541.209Z" transform="translate(-1180.257 2542.632)" fill="#162143"/>
        </g>
        <g id="Group_960" data-name="Group 960" transform="translate(0.092 6.183)">
          <path id="Path_780" data-name="Path 780" d="M1185.316-2431.552a.269.269,0,0,1-.269.244h-.017a.283.283,0,0,1-.285-.238c-.006-.028-.009-.06-.014-.1,0-.022,0-.046-.008-.071l-.021-.166h-.827v.87q0,.626,0,1.251a.37.37,0,0,1-.083.254.268.268,0,0,1-.209.083.3.3,0,0,1-.294-.339q0-.631,0-1.262v-1.056l-.228.187a.67.67,0,0,1-.165-.146.261.261,0,0,1-.01-.27.292.292,0,0,1,.258-.156c.145,0,.3,0,.491,0h1.069l.02-.166c0-.025.005-.047.008-.069,0-.038.007-.071.012-.1a.282.282,0,0,1,.289-.238h.014a.265.265,0,0,1,.268.242C1185.329-2432.388,1185.33-2431.97,1185.316-2431.552Z" transform="translate(-1182.853 2433.037)" fill="#162143"/>
        </g>
        <g id="Group_961" data-name="Group 961" transform="translate(4.324 8.282)">
          <path id="Path_781" data-name="Path 781" d="M1307.383-2372.206a.277.277,0,0,1-.233.154.254.254,0,0,1-.06-.008.582.582,0,0,1-.231-.148,2.34,2.34,0,0,0-1.663-.7,2.306,2.306,0,0,0-1.341.431,2.649,2.649,0,0,0-.394.354.359.359,0,0,1-.258.124.27.27,0,0,1-.189-.078.274.274,0,0,1-.091-.2.361.361,0,0,1,.109-.253,2.94,2.94,0,0,1,1.734-.928c.1-.016.206-.023.3-.031l.094-.008a2.944,2.944,0,0,1,2.168.932A.285.285,0,0,1,1307.383-2372.206Z" transform="translate(-1302.923 2373.491)" fill="#2ba5dd"/>
        </g>
      </g>
    </g>
  </g>
</svg>
