<?xml version="1.0" encoding="utf-8"?>
<!-- Generator: Adobe Illustrator 25.0.0, SVG Export Plug-In . SVG Version: 6.00 Build 0)  -->
<svg version="1.1" id="Layer_1" xmlns="http://www.w3.org/2000/svg" xmlns:xlink="http://www.w3.org/1999/xlink" x="0px" y="0px"
	 viewBox="0 0 512 512" style="enable-background:new 0 0 512 512;" xml:space="preserve">
<style type="text/css">
	.st0{fill:#162143;}
	.st1{fill:#FFFFFF;}
	.st2{fill:#F27366;}
	.st3{fill:#2BA5DD;}
</style>
<g id="Group_1383" transform="translate(1906.436 2490.957)">
	<path id="Path_1216" class="st0" d="M-1413.1-2014.1c-5.6-0.3-11.3,0-17.4,0v-245.1c0-0.3,0.1-0.5,0.1-0.8c1.2-9-5-17.3-14-18.5
		c-52.2-17.5-104.5-34.9-156.8-52.2l-0.2,0c-3.5-0.6-5.8-4-5.2-7.4c0.2-13.8,0-27.7,0-41.5c1.2-8-4-15.6-11.8-17.5
		c-76.5-28.7-153-57.4-229.6-86.1c-13.4-5-22.4,1.5-22.4,16v453.1h-13.5c-7.6-0.8-14.7,4.1-16.4,11.6c-1.5,7.3,2.7,14.6,9.8,17
		c0.3,0.1,0.4,0.4,0.6,0.7h478.7l10.7-10.7v-7.8C-1402.4-2009.1-1407.3-2013.2-1413.1-2014.1z M-1753.3-2014.6h-28.8v-58h28.8
		V-2014.6z M-1723.5-2014.5v-58h28.7v58H-1723.5z M-1636-2014.6h-29.1v-70.3c0.2-1.6,0.2-3.2,0-4.7c-1.3-8.3-9.1-13.9-17.4-12.6
		h-111.9c-1.6-0.2-3.2-0.2-4.7,0c-8.3,1.4-13.9,9.1-12.5,17.4v70.2h-29v-434.7l204.7,76.8V-2014.6z M-1547.6-2014.6v-58h28.7v58
		H-1547.6z M-1460-2014.5l-29.3,0.1v-70.9c0.2-1.4,0.2-2.7,0-4.1c-1.2-8.2-8.8-13.9-17-12.7h-54.2c-1.3-0.2-2.7-0.2-4,0
		c-8.2,1.1-13.9,8.7-12.8,16.9v70.7h-29v-286.9l17.4,5.7c41.4,13.9,82.9,27.6,124.4,41.4c2.9,1,4.4,2.1,4.4,5.7V-2014.5z"/>
	<path class="st1" d="M-1464.4-2254.4c-41.6-13.7-83-27.5-124.4-41.4l-17.4-5.7v286.9h29v-70.7c-1.1-8.2,4.6-15.7,12.8-16.9
		c1.3-0.2,2.7-0.2,4,0h54.2c8.2-1.2,15.8,4.5,17,12.7c0.2,1.4,0.2,2.8,0,4.1v70.9l29.3-0.1v-234.3
		C-1460-2252.3-1461.5-2253.4-1464.4-2254.4z M-1504.1-2131.5c-0.2,0-0.5,0-0.7,0h-56.2c-8.1,0.8-15.3-5.2-16.1-13.3
		c0-0.4-0.1-0.8-0.1-1.2c0-8.1,6.5-14.8,14.7-14.8c0.4,0,0.9,0,1.3,0.1h56.2c8.1-0.6,15.1,5.6,15.7,13.7c0,0.3,0,0.6,0,0.8
		C-1489.3-2138.1-1495.9-2131.5-1504.1-2131.5z M-1504.1-2190.1c-0.4,0-0.8,0-1.2-0.1c-9.4,0.1-18.9,0-28.3,0h-27.3
		c-8.1,0.8-15.3-5.2-16.1-13.3c0-0.4-0.1-0.8-0.1-1.2c0-8.2,6.7-14.8,14.8-14.8c0.4,0,0.8,0,1.2,0.1h55.7
		c8.1-0.7,15.3,5.3,16.1,13.4c0,0.4,0.1,0.8,0.1,1.2C-1489.3-2196.7-1496-2190.1-1504.1-2190.1z"/>
	<path class="st1" d="M-1840.7-2449.3v434.7h29v-70.2c-1.3-8.3,4.3-16.1,12.5-17.4c1.6-0.2,3.2-0.3,4.7,0h111.9
		c8.3-1.3,16,4.3,17.4,12.6c0.2,1.6,0.2,3.2,0,4.7v70.3h29.1v-357.9L-1840.7-2449.3z M-1811.7-2205c0-8,6.6-14.5,14.7-14.5h0.1
		c9.8-0.2,19.5-0.2,29.3,0c8,0,14.5,6.5,14.5,14.5v0.2c-0.1,8.1-6.6,14.5-14.7,14.5h0c-4.8,0.3-9.7,0-14.6,0h-14.2
		c-8.1,0.2-14.8-6.2-15-14.2V-2205z M-1811.5-2263.4v-0.2c0.1-8.1,6.7-14.5,14.8-14.5c4.8-0.1,9.7,0,14.5,0c4.9,0,9.8-0.1,14.7,0
		c8.1,0.1,14.5,6.7,14.5,14.7c0,7.9-6.3,14.3-14.2,14.4c-9.9,0.3-19.8,0.3-29.8,0C-1805.1-2248.9-1811.6-2255.4-1811.5-2263.4z
		 M-1753.1-2146.2c0.1,8.1-6.4,14.6-14.5,14.7h-0.1c-5,0.2-10.1,0-15.1,0h-14.2c-8.1,0-14.7-6.5-14.7-14.5v-0.1
		c0-8,6.4-14.5,14.4-14.5h0.1c9.7-0.2,19.5-0.2,29.3,0c8-0.1,14.6,6.3,14.7,14.4V-2146.2z M-1767.8-2307.4L-1767.8-2307.4
		c-4.8,0.1-9.5,0-14.2,0h-14.7c-8.1,0.2-14.8-6.3-14.9-14.3v-0.5c0.1-8.1,6.7-14.5,14.8-14.4h0.1c9.6-0.2,19.2-0.2,28.8,0
		c8.1-0.2,14.7,6.2,14.9,14.3c0,0.2,0,0.3,0,0.5C-1753.2-2313.8-1759.8-2307.3-1767.8-2307.4z M-1680-2131.5c-0.1,0-0.3,0-0.4,0
		c-4.8,0.1-9.4,0-14.1,0h-14.2c-8.1,0.2-14.8-6.2-15-14.2v-0.5c0-8.1,6.6-14.5,14.7-14.5h0.1c9.6-0.2,19.2-0.2,28.8,0
		c8.1-0.2,14.8,6.2,15,14.2c0,0.2,0,0.3,0,0.5C-1665.3-2137.9-1671.9-2131.4-1680-2131.5z M-1679.5-2190.2h-0.2
		c-9.8,0.2-19.5,0.2-29.3,0c-8,0.1-14.6-6.4-14.7-14.4v-0.1c0-8.1,6.5-14.6,14.6-14.7c1.7-0.1,3.4-0.1,5.1-0.1
		c3.4,0,6.7,0.1,10.1,0.1h14.2c8.1,0,14.6,6.5,14.7,14.6C-1665.1-2196.8-1671.5-2190.3-1679.5-2190.2z M-1680-2248.7h-0.4
		c-4.8,0-9.4,0-14.1,0h-14.2c-8.1,0.2-14.8-6.2-15-14.2v-0.5c0.1-8.1,6.6-14.5,14.7-14.5h0c9.6-0.2,19.2-0.2,28.8,0
		c8.1-0.2,14.8,6.2,15,14.2c0,0.2,0,0.3,0,0.5C-1665.3-2255.1-1671.9-2248.6-1680-2248.7z M-1665.1-2322.2
		c0.1,8.1-6.3,14.7-14.4,14.8c-0.2,0-0.3,0-0.5,0c-4.9,0.1-9.8,0-14.7,0h-14.2c-8.1,0.1-14.7-6.3-14.8-14.4
		c-0.1-8.1,6.3-14.7,14.4-14.8h0.5c9.6-0.2,19.2-0.2,28.8,0C-1671.9-2336.7-1665.3-2330.3-1665.1-2322.2L-1665.1-2322.2z"/>
	<path id="Path_1217" class="st2" d="M-1753.2-2072.6v58h-28.8v-58H-1753.2z"/>
	<path id="Path_1218" class="st2" d="M-1694.8-2014.5h-28.7v-58h28.7V-2014.5z"/>
	<path id="Path_1219" class="st2" d="M-1547.6-2072.7h28.7v58h-28.7V-2072.7z"/>
	<path class="st3" d="M-1753.1-2321.8c-0.1,8.1-6.7,14.5-14.8,14.4h0c-4.7,0.1-9.5,0-14.2,0h-14.7c-8.1,0.2-14.8-6.3-14.9-14.3v-0.5
		c0.1-8.1,6.7-14.5,14.8-14.4h0.1c9.6-0.2,19.2-0.2,28.8,0c8.1-0.2,14.7,6.2,14.9,14.3C-1753.1-2322.2-1753.1-2322-1753.1-2321.8z"
		/>
	<path class="st3" d="M-1665.1-2322.2L-1665.1-2322.2c0.1,8.1-6.3,14.7-14.4,14.9c-0.2,0-0.3,0-0.5,0c-4.9,0.1-9.8,0-14.7,0h-14.2
		c-8.1,0.1-14.7-6.3-14.8-14.4c-0.1-8.1,6.3-14.7,14.4-14.8h0.5c9.6-0.2,19.2-0.2,28.8,0
		C-1671.9-2336.7-1665.3-2330.3-1665.1-2322.2z"/>
	<path class="st3" d="M-1753.1-2263.3c0,7.9-6.3,14.3-14.2,14.4c-9.9,0.3-19.8,0.3-29.8,0c-8,0-14.5-6.5-14.5-14.5v-0.2
		c0.1-8.1,6.7-14.5,14.8-14.5c4.8-0.1,9.7,0,14.5,0c4.9,0,9.8-0.1,14.7,0C-1759.5-2278-1753-2271.4-1753.1-2263.3z"/>
	<path class="st3" d="M-1665.2-2263.2c-0.1,8.1-6.8,14.6-14.9,14.5h-0.4c-4.8,0-9.4,0-14.1,0h-14.2c-8.1,0.2-14.8-6.2-15-14.2v-0.5
		c0.1-8.1,6.6-14.5,14.7-14.5h0c9.6-0.2,19.2-0.2,28.8,0c8.1-0.2,14.8,6.2,15,14.2C-1665.2-2263.5-1665.2-2263.4-1665.2-2263.2z"/>
	<path class="st3" d="M-1753.1-2204.9v0.2c-0.1,8.1-6.6,14.5-14.7,14.5h0c-4.8,0.3-9.7,0-14.6,0h-14.2c-8.1,0.2-14.8-6.2-15-14.2
		v-0.5c0-8,6.6-14.5,14.7-14.5h0.1c9.8-0.2,19.5-0.2,29.3,0C-1759.6-2219.5-1753.1-2213-1753.1-2204.9z"/>
	<path class="st3" d="M-1665.2-2204.8c0.1,8-6.4,14.6-14.4,14.6h-0.2c-9.8,0.2-19.5,0.2-29.3,0c-8,0.1-14.6-6.4-14.7-14.4v-0.1
		c0-8.1,6.5-14.6,14.6-14.7c1.7-0.1,3.4-0.1,5.1-0.1c3.4,0,6.7,0.1,10.1,0.1h14.2C-1671.8-2219.4-1665.2-2212.9-1665.2-2204.8z"/>
	<path class="st3" d="M-1753.1-2146.4v0.1c0.1,8.1-6.4,14.6-14.5,14.7h-0.1c-5,0.2-10.1,0-15.1,0h-14.2c-8.1,0-14.7-6.5-14.7-14.5
		v-0.1c0-8,6.4-14.5,14.4-14.5h0.1c9.7-0.2,19.5-0.2,29.3,0C-1759.8-2160.8-1753.2-2154.4-1753.1-2146.4z"/>
	<path class="st3" d="M-1665.2-2146c-0.1,8.1-6.7,14.6-14.8,14.5c-0.1,0-0.3,0-0.4,0c-4.8,0.1-9.4,0-14.1,0h-14.2
		c-8.1,0.2-14.8-6.2-15-14.2v-0.5c0-8.1,6.6-14.5,14.7-14.5h0.1c9.6-0.2,19.2-0.2,28.8,0c8.1-0.2,14.8,6.2,15,14.2
		C-1665.2-2146.3-1665.2-2146.2-1665.2-2146z"/>
	<path class="st3" d="M-1489.3-2204.8c0,8.2-6.6,14.8-14.8,14.7c-0.4,0-0.8,0-1.2-0.1c-9.4,0.1-18.9,0-28.3,0h-27.3
		c-8.1,0.8-15.3-5.2-16.1-13.3c0-0.4-0.1-0.8-0.1-1.2c0-8.2,6.7-14.8,14.8-14.8c0.4,0,0.8,0,1.2,0.1h55.7
		c8.1-0.7,15.3,5.3,16.1,13.4C-1489.3-2205.6-1489.3-2205.2-1489.3-2204.8z"/>
	<path class="st3" d="M-1489.3-2146.2c0,8.2-6.6,14.8-14.8,14.8c-0.2,0-0.5,0-0.7,0h-56.2c-8.1,0.8-15.3-5.2-16.1-13.3
		c0-0.4-0.1-0.8-0.1-1.2c0-8.1,6.5-14.8,14.7-14.8c0.4,0,0.9,0,1.3,0.1h56.2c8.1-0.6,15.1,5.6,15.7,13.7
		C-1489.3-2146.8-1489.3-2146.5-1489.3-2146.2z"/>
</g>
</svg>
