<svg id="Layer_1" data-name="Layer 1" xmlns="http://www.w3.org/2000/svg" viewBox="0 0 512 512"><path d="M54.67,254.56A57.43,57.43,0,0,0,55,261v2.28H45.14A41.75,41.75,0,0,1,3.37,221.55v-76.5a41.73,41.73,0,0,1,41.74-41.73h10.2a60.36,60.36,0,0,0-.64,8.71Z" fill="#2ba5dd"/><path d="M404.22,179.86h0a16.49,16.49,0,0,1,16.49-16.49h71.43a16.49,16.49,0,0,1,16.49,16.49h0a16.48,16.48,0,0,1-16.49,16.48H420.71A16.48,16.48,0,0,1,404.22,179.86Z" fill="#162143"/><path d="M387.07,230.87h0a16.48,16.48,0,0,1,23.31,0l50.52,50.51a16.48,16.48,0,0,1,0,23.3h0a16.51,16.51,0,0,1-23.32,0l-50.51-50.52a16.47,16.47,0,0,1,0-23.3Z" fill="#162143"/><path d="M388.25,130l-2.35-2.33a14.84,14.84,0,0,1,0-21h0L437.58,55a16.49,16.49,0,0,1,23.32,0h0a16.5,16.5,0,0,1,0,23.31h0L409.22,130a14.83,14.83,0,0,1-21,0Z" fill="#162143"/><path d="M103.19,487.2A50.15,50.15,0,0,1,53,437.05V261L83,259.43q.09.85.21,1.68a44.16,44.16,0,0,0,43.9,37.82h70L217.77,444.4a36.63,36.63,0,0,1-29.43,42.2h0a36.71,36.71,0,0,1-6.62.6h-78.5Zm0-30h78.48a7.47,7.47,0,0,0,1.26-.11,6.59,6.59,0,0,0,5.26-7.64l-.1-.58-17-119.94h-44a74.51,74.51,0,0,1-44-14.45V437A20.16,20.16,0,0,0,103.2,457.2Z" fill="#162143"/><path d="M308.76,24.8h-189A67.59,67.59,0,0,0,53,82.4h.28a67.69,67.69,0,0,0-.6,9V291.64c.09.86.2,1.73.32,2.58a67.59,67.59,0,0,0,66.77,57.61h189a67.58,67.58,0,0,0,67.51-67.5v-192A67.59,67.59,0,0,0,308.76,24.8ZM82.17,77.25c.18-.47.37-.92.58-1.36v-.11c.19-.45.39-.88.62-1.31h0c.22-.46.46-.91.7-1.36h0c.47-.89,1-1.75,1.53-2.6A39.45,39.45,0,0,1,89,66c.22-.27.46-.54.69-.8l.76-.8c.19-.21.4-.42.6-.63.77-.76,1.57-1.5,2.39-2.24.36-.33.74-.65,1.12-.95.87-.68,1.75-1.32,2.68-1.93l1-.63,1.27-.77c.37-.21.74-.42,1.13-.61.93-.51,1.87-1,2.85-1.4l.63-.26c.7-.3,1.42-.58,2.15-.83.47-.17.94-.33,1.41-.47l1.22-.36.75-.2,1-.25,1.2-.26h.25c.47-.09.94-.18,1.41-.25h0c.48-.07,1-.14,1.47-.19s.88-.1,1.33-.12.93-.08,1.41-.09H308.76a40.45,40.45,0,0,1,31.77,15.46c.5.64,1,1.29,1.45,2h0c.58.82,1.12,1.67,1.63,2.54h0a38.75,38.75,0,0,1,2.69,5.49h0L242.9,180.76a40.61,40.61,0,0,1-57.33,0L82.17,77.36h0Zm267.1,207.08a40.45,40.45,0,0,1-40.46,40.46H119.74a40.45,40.45,0,0,1-40.46-40.46V112.56l81.93,81.87,5.35,5.35a67.62,67.62,0,0,0,95.48,0l87.23-87.22h0Z" fill="#162143"/><path d="M349.27,112.59V284.33a40.45,40.45,0,0,1-40.46,40.46H119.74a40.45,40.45,0,0,1-40.46-40.46V112.56l81.93,81.87,5.35,5.35a67.62,67.62,0,0,0,95.48,0Z" fill="#fff"/><path d="M346.29,77.26l-103.4,103.4a40.63,40.63,0,0,1-57.33,0L82.16,77.26c.18-.46.37-.93.57-1.37v-.11c.2-.43.4-.87.62-1.31h0c.22-.46.46-.91.69-1.36h0c.49-.89,1-1.75,1.53-2.6A40.65,40.65,0,0,1,88.94,66l.7-.8.75-.8.61-.63c.77-.76,1.56-1.5,2.38-2.24.37-.33.75-.65,1.13-.95.86-.68,1.75-1.32,2.67-1.93l1-.63,1.27-.77c.37-.21.74-.42,1.12-.61.94-.51,1.88-1,2.86-1.4l.63-.26c.7-.3,1.41-.58,2.15-.83.47-.17.94-.33,1.41-.47l1.22-.36.75-.2,1-.25,1.21-.26H112c.47-.09.95-.18,1.42-.25h0l1.47-.19c.44,0,.88-.1,1.33-.12s.93-.08,1.4-.09h191.1a40.57,40.57,0,0,1,31.77,15.42c.49.64,1,1.29,1.45,2h0c.56.82,1.12,1.66,1.63,2.54h0A39,39,0,0,1,346.29,77.26Z" fill="#f67567"/></svg>