<svg id="Layer_1" data-name="Layer 1" xmlns="http://www.w3.org/2000/svg" viewBox="0 0 449.2 511.4"><path d="M447,392.06c0-.54,0-1.08,0-1.63-.11-94.9-.11-191.08,0-285.88a22.14,22.14,0,0,0-8.64-18.69C410,62,381.31,37.54,353.61,13.88c-1.79-1.56-3.61-3-5.37-4.48l-2.32-1.89-1.49-1.24H148.82a34.43,34.43,0,0,0-11,1.84l-.94.29a36.48,36.48,0,0,0-24.57,33.83c-.14,7.18-.1,14.24,0,21.72q0,3.45,0,7c-5.59,1.21-11.15,2.39-16.58,3.54L90.3,75.6c-16.93,3.55-37,7.75-57.27,11.9C11.23,92-1.39,110.83,3,132.23c11.27,55.28,22.54,109.45,33.48,161,4.37,21,8.91,42.26,13.29,62.87,8.2,38.51,16.67,78.32,24.48,117.52,2.32,11.72,7.6,20.37,15.7,25.73a39.25,39.25,0,0,0,27.16,5.16L131,501.43c8.17-1.79,16.63-3.66,25-5.4q53.77-11.19,107.5-22.42t107.44-22.4c12.94-2.57,22.11-9,28-19.77a3.81,3.81,0,0,1,.59-.21c2.17-.19,4.39-.23,6.74-.26a71.94,71.94,0,0,0,11.08-.76A36.31,36.31,0,0,0,447,395.89C447.07,394.54,447,393.28,447,392.06ZM348.87,42.12l56.43,48h-.12l-1.68.21-.43.05a16.45,16.45,0,0,1-2.11.16H367.71c-.69,0-1.37,0-2-.08s-1.52-.16-2.25-.29c-.28,0-.55-.09-.82-.15a19.37,19.37,0,0,1-2.09-.55,7.61,7.61,0,0,1-.72-.25l-.09,0a6,6,0,0,1-.59-.23,9.45,9.45,0,0,1-1.08-.49c-.23-.1-.44-.21-.66-.33a15.27,15.27,0,0,1-4.8-4.07l-.38-.52c-.18-.26-.35-.51-.51-.77s-.3-.49-.43-.75-.28-.52-.41-.79-.26-.54-.37-.82-.24-.6-.35-.91-.19-.55-.28-.84-.18-.6-.26-.92-.14-.6-.2-.91-.16-.75-.22-1.15c-.1-.61-.17-1.26-.22-1.92s-.07-1.37-.07-2.07Zm-235,431.81h0c-6.58,1.29-9.14-.41-10.55-6.93-2.43-11.75-9.2-44.17-17.75-85.06C67.92,297.37,43.73,181.55,33.14,130.11c-.78-3.6-.76-7.13,0-9.15a8.75,8.75,0,0,1,4.62-3.48c21.76-4.87,59.67-12.52,74.41-15.37V392.39c0,23.25,15.59,38.88,38.78,38.88H316.43C245.64,446.3,123.3,472.11,113.89,473.93ZM417,118.12c0,5.35,0,13.11,0,22.71,0,19.18,0,45.72,0,75.13,0,58.83,0,129.15,0,175.13,0,8.09-2.12,10.18-10.29,10.18H152.5c-8.17,0-10.28-2.09-10.28-10.18V46.56c0-8.19,2-10.18,10.07-10.18H324c.05,4.58.09,11.42.13,17.37,0,6.65.08,13.31.12,17.77.25,26.14,18,43.71,44.08,43.71H417Z" fill="#162143"/><path d="M368.43,115.23c-26.13,0-43.84-17.57-44.09-43.71,0-4.46-.08-11.12-.11-17.77-.05-6-.09-12.79-.13-17.37H152.35c-8.09,0-10.07,2-10.07,10.18V391.09c0,8.09,2.11,10.18,10.29,10.18H406.66c8.18,0,10.29-2.09,10.29-10.18,0-46,0-116.3,0-175.13,0-29.41,0-56,0-75.13,0-9.6,0-17.36,0-22.71v-2.89ZM370,366.78a14.88,14.88,0,0,1-10.77,10.09l-.39.07a33.89,33.89,0,0,1-7.13.5c-25.21.11-50.93.11-75.81.11H200.88c-.43,0-.85,0-1.28,0a33.73,33.73,0,0,1-6.56-.67,14.07,14.07,0,0,1-11.45-13.6,14.52,14.52,0,0,1,10.07-15l.18-.06a28.77,28.77,0,0,1,7.52-.95H353.05a29.86,29.86,0,0,1,6.87.79l.34.1a14.6,14.6,0,0,1,8.75,7.29A14.86,14.86,0,0,1,370,366.78Zm-8.8-45.36-.42.15a27.93,27.93,0,0,1-7.61,1.09l-1,0h-152a28.53,28.53,0,0,1-8-.92l-.21-.06c-6.82-2-10.95-8.25-10.26-15.55a14.48,14.48,0,0,1,13-13.33,46.75,46.75,0,0,1,5.81-.25l75.82.11h75.45a37.33,37.33,0,0,1,6.41.25,14.54,14.54,0,0,1,12.57,13.31C371.19,313.44,367.74,319,361.23,321.42ZM376,216.29c-7.79,37.39-39.61,63.65-77.41,63.89h-1.09a78.7,78.7,0,0,1-74.8-53.85c-.09-.27-.16-.49-.23-.65h-.42c-5.33.11-11.3.23-16.92-1a29.64,29.64,0,0,1-23.44-29c-.21-26.88-.21-54.13,0-81,.13-16.72,13.65-30,30.78-30.28,10.13-.17,20.33-.14,30.19-.12h48.1c9.54.06,18,3.52,24,9.73A30.94,30.94,0,0,1,322.94,117c-.25,6.67.56,8.72,7.16,11.46a76.32,76.32,0,0,1,38.66,35.73A79.16,79.16,0,0,1,376,216.29Z" fill="#fff"/><path d="M316.49,431.27c-70.79,15-193.12,40.84-202.53,42.66h0c-6.59,1.29-9.15-.41-10.55-6.93-2.44-11.75-9.21-44.17-17.76-85.06C68,297.37,43.79,181.55,33.2,130.11c-.78-3.6-.76-7.13,0-9.15a8.79,8.79,0,0,1,4.62-3.48c21.77-4.87,59.68-12.52,74.42-15.37V392.39c0,23.25,15.58,38.88,38.77,38.88Z" fill="#fff"/><path d="M405.36,90.1c-2.06.22-3.14.43-4.33.43H367.78c-11.92-.11-18.85-7-18.85-19V42.12Z" fill="#162143"/><path d="M348.93,42.23l56.43,48c-2.06.21-3.14.43-4.33.43H367.78c-11.92,0-18.85-7-18.85-19Z" fill="#fff"/><path d="M368.76,164.15a76.32,76.32,0,0,0-38.66-35.73c-6.6-2.74-7.41-4.79-7.16-11.46a30.94,30.94,0,0,0-8.21-22.87c-5.93-6.21-14.42-9.67-24-9.73h-48.1c-9.86,0-20.06,0-30.19.12-17.13.26-30.65,13.56-30.78,30.28-.21,26.87-.21,54.12,0,81a29.64,29.64,0,0,0,23.44,29c5.62,1.21,11.59,1.09,16.92,1h.42c.07.16.14.38.23.65a78.7,78.7,0,0,0,74.8,53.85h1.09c37.8-.24,69.62-26.5,77.41-63.89A79.16,79.16,0,0,0,368.76,164.15Zm-126.9-11.72,0,0c-.76.9-1.51,1.81-2.24,2.73l-1.09,1.43A75.44,75.44,0,0,0,223.62,201h-.11c-3.65,0-7.29.11-11-.11s-6.06-2.71-6.06-6.61c-.11-26.1-.11-52.31,0-78.41,0-4.47,2.38-6.65,7.22-6.91.29,0,.6,0,.9,0h61c4.84,0,9.78-.1,14.62,0l1.07,0c5.15.34,7.28,2.78,7.38,8.4v8.88c-19.8.43-36.59,7.55-49.25,18.63-.87.75-1.71,1.53-2.53,2.32-.44.42-.87.85-1.3,1.29C244.22,149.78,243,151.09,241.86,152.43Zm3.39,48.67-1.43-.26-.27-.05c-2.06-28.48,25.34-56.64,55-54.37l-.11,24c0,7.59.11,15.28,0,22.86q0,7.31-6.56,7.76c-.26,0-.53,0-.81,0-15.27.1-30.43,0-45.7,0A.3.3,0,0,1,245.25,201.1Zm103.39,20.69c-.32.74-.64,1.47-1,2.19h0c-.34.72-.7,1.43-1.07,2.13h0A55.16,55.16,0,0,1,306,255c-.82.13-1.66.22-2.49.31a52.53,52.53,0,0,1-11.35-.15l-2.09-.29c-.72-.11-1.43-.24-2.13-.38-18.89-3.78-35.88-17.16-40.64-33.95,1.51-.11,3-.21,4.55-.21,13.1,0,26.32.1,39.42,0s22.79-7.87,25.61-19.56v0c.21-.86.37-1.74.5-2.65a27.64,27.64,0,0,0,.27-2.77c0-.48.05-.95.05-1.43.11-14.51,0-29.14,0-43.76.6.14,1.2.31,1.8.48s1,.31,1.53.51a36.73,36.73,0,0,1,9.51,5.07c.52.38,1,.78,1.55,1.18,0,0,0,0,0,0,12.84,10.27,21.64,28.84,20.68,46.57A55.35,55.35,0,0,1,348.64,221.79Z" fill="#162143"/><path d="M298.57,117.39v8.88c-45.17,1-74.74,36.83-74.95,74.74-3.68,0-7.37.11-11.16-.11s-6.06-2.71-6.06-6.61c-.11-26.1-.11-52.31,0-78.41,0-4.77,2.7-6.94,8.23-6.94H275.5c4.87,0,9.85-.1,14.73,0C296.08,109.05,298.46,111.44,298.57,117.39Z" fill="#162143"/><path d="M298.46,170.46c0,7.59.11,15.28,0,22.86q0,7.8-7.47,7.8c-15.28.1-30.55,0-45.71,0l-1.73-.33c-2.06-28.48,25.34-56.64,55-54.37Z" fill="#162143"/><path d="M352.83,203.93a55.16,55.16,0,0,1-49.28,51.34c-24.37,2.38-50.15-13.43-56.21-34.77,1.62-.11,3-.21,4.55-.21,13.1,0,26.32.1,39.42,0,15.38,0,26.32-11,26.43-26.43.11-14.51,0-29.14,0-43.76C337.78,154.76,354.13,180.1,352.83,203.93Z" fill="#162143"/><path d="M370,366.78a14.88,14.88,0,0,1-10.77,10.09l-.39.07a33.89,33.89,0,0,1-7.13.5c-25.21.11-50.93.11-75.81.11H200.88c-.43,0-.85,0-1.28,0a33.73,33.73,0,0,1-6.56-.67,14.07,14.07,0,0,1-11.45-13.6,14.52,14.52,0,0,1,10.07-15l.18-.06a28.77,28.77,0,0,1,7.52-.95H353.05a29.86,29.86,0,0,1,6.87.79l.34.1a14.6,14.6,0,0,1,8.75,7.29A14.86,14.86,0,0,1,370,366.78Z" fill="#162143"/><path d="M361.23,321.42l-.42.15a27.93,27.93,0,0,1-7.61,1.09l-1,0h-152a28.53,28.53,0,0,1-8-.92l-.21-.06c-6.82-2-10.95-8.25-10.26-15.55a14.48,14.48,0,0,1,13-13.33,46.75,46.75,0,0,1,5.81-.25l75.82.11h75.45a37.33,37.33,0,0,1,6.41.25,14.54,14.54,0,0,1,12.57,13.31C371.19,313.44,367.74,319,361.23,321.42Z" fill="#162143"/><path d="M317.74,150.1c20,4.66,36.5,30,35.09,53.83a55.07,55.07,0,0,1-49.28,51.34c-24.37,2.38-50.26-13.32-56.21-34.77,1.51-.11,3-.21,4.55-.21h39.42c15.27-.11,26.32-11,26.43-26.43Z" fill="#2ba5dd"/><path d="M298.57,126.27c-45.17,1-74.74,36.83-75.06,74.85-3.68,0-7.47.21-11.16-.11a6.27,6.27,0,0,1-6.06-6.39V115.88c0-4.77,2.71-6.94,8.23-6.94h75.6c6,.11,8.23,2.5,8.34,8.45C298.57,120.32,298.57,123.13,298.57,126.27Z" fill="#f27366"/><path d="M298.57,146.42v24c0,7.59.11,15.28,0,22.86-.11,5.2-2.49,7.8-7.48,7.8-15.27.1-30.43,0-45.7,0a4.41,4.41,0,0,1-1.73-.33C241.49,172.31,268.89,144.25,298.57,146.42Z" fill="#2ba5dd"/></svg>