<svg id="Layer_1" data-name="Layer 1" xmlns="http://www.w3.org/2000/svg" viewBox="0 0 512 512"><g id="Group_1158" data-name="Group 1158"><g id="Group_1157" data-name="Group 1157"><g id="Group_1152" data-name="Group 1152"><g id="Path_928" data-name="Path 928"><path d="M509.44,87.43V83.28A79.06,79.06,0,0,0,428.5,6.33h-91a17.52,17.52,0,0,0-3.07-.1H246.9c-26.57-.11-54-.22-81.35.21A77.19,77.19,0,0,0,93.4,55.06a81.7,81.7,0,0,0-6.29,32.18c-1.43,0-3,0-4.7.08a87.17,87.17,0,0,0-50.86,15.93l-.09.07A74.07,74.07,0,0,0,5.67,138.46c-.75,2.15-1.28,4.3-1.79,6.37l-.19.76a59.11,59.11,0,0,0-1.3,12.85L3.8,354.89A36.23,36.23,0,0,0,5,364.49a79.27,79.27,0,0,0,80.09,58.65h147a248.6,248.6,0,0,1-15.69,42.36,29.4,29.4,0,0,0-3.87,16.92l0,.21a26.23,26.23,0,0,0,15,20.77,26.61,26.61,0,0,0,11.07,2.47A29.73,29.73,0,0,0,254.25,501a375.21,375.21,0,0,0,86.94-75l.17-.22a7.45,7.45,0,0,1,6.08-3h.25A78.92,78.92,0,0,0,421.43,366a88.09,88.09,0,0,0,3.3-24c1.32,0,2.77,0,4.32-.09a91.25,91.25,0,0,0,57.05-23l.19-.19a81.18,81.18,0,0,0,23.25-57.72C509.66,196.21,509.63,139.41,509.44,87.43Zm-117.79,81V273.1a17.76,17.76,0,0,0-.32,4.88v21.61c0,4.87,0,9.8,0,14.76,0,9.91,0,20.14,0,30.14A45.51,45.51,0,0,1,347.5,389.4h-.27a40.62,40.62,0,0,0-31.67,15.31,319.46,319.46,0,0,1-61.29,56.15c4.2-11,8-22.39,11.25-34.07a28.92,28.92,0,0,0-4.16-25.94l-.08-.11A30.12,30.12,0,0,0,237,389.4c-37.55.21-75.72.21-112.65.21H83.92l-.31,0a30.71,30.71,0,0,1-4.07,0l-.12,0a46.12,46.12,0,0,1-43.94-48.14V168.33a26,26,0,0,1,0-4v-.13A45.94,45.94,0,0,1,83.3,120.41H344a26.89,26.89,0,0,1,3.91,0A46,46,0,0,1,391.65,168.43Zm89.05,95.46a47.89,47.89,0,0,1-27.54,43.54A67,67,0,0,1,420.28,313V298.92a12.35,12.35,0,0,0,.11-2.92V163.85a67.45,67.45,0,0,0-2.5-16.87,74.4,74.4,0,0,0-73.81-55.52H116.25v-3.7c-.06-.76-.09-1.53-.09-2.29s0-1.52.09-2.28a50.35,50.35,0,0,1,52.68-48.12h146.2c.88.08,1.76.11,2.61.11h1c3.81-.09,9.76-.1,15.73-.1a4.07,4.07,0,0,0,1.14.1,11.73,11.73,0,0,0,1.69-.09c8.85,0,16.93.09,16.93.09,35.48.22,55.08,0,77.5,0a50.23,50.23,0,0,1,49,49C481,142,481.24,203.36,480.7,263.89Z" fill="#162143"/><path d="M480.7,263.89a47.89,47.89,0,0,1-27.54,43.54A67,67,0,0,1,420.28,313V298.92a12.35,12.35,0,0,0,.11-2.92V163.85a67.45,67.45,0,0,0-2.5-16.87,74.4,74.4,0,0,0-73.81-55.52H116.25v-3.7c-.06-.76-.09-1.53-.09-2.29s0-1.52.09-2.28a50.35,50.35,0,0,1,52.68-48.12h146.2c.88.08,1.76.11,2.61.11h1c3.81-.09,9.76-.1,15.73-.1a4.07,4.07,0,0,0,1.14.1,11.73,11.73,0,0,0,1.69-.09c8.85,0,16.93.09,16.93.09,35.48.22,55.08,0,77.5,0a50.23,50.23,0,0,1,49,49C481,142,481.24,203.36,480.7,263.89Z" fill="#fff"/><path d="M347.9,120.41a26.89,26.89,0,0,0-3.91,0H83.3a45.94,45.94,0,0,0-47.82,43.84v.13a26,26,0,0,0,0,4V341.47a46.12,46.12,0,0,0,43.94,48.14l.12,0a30.71,30.71,0,0,0,4.07,0l.31,0H124.3c36.93,0,75.1,0,112.65-.21a30.12,30.12,0,0,1,24.33,11.34l.08.11a28.92,28.92,0,0,1,4.16,25.94c-3.27,11.68-7,23.09-11.25,34.07a319.46,319.46,0,0,0,61.29-56.15,40.62,40.62,0,0,1,31.67-15.31h.27a45.51,45.51,0,0,0,43.83-44.91c.07-10,0-20.23,0-30.14,0-5,0-9.89,0-14.76V278a17.76,17.76,0,0,1,.32-4.88V168.43A46,46,0,0,0,347.9,120.41ZM202,166.57a23.31,23.31,0,0,1,22.08-24.37H226c9.6-.11,19.39-.11,29,0a23.43,23.43,0,0,1,23.75,22.6v.91c.08,3.36.05,6.78,0,10.38,0,1.93,0,3.94,0,6.13a82.69,82.69,0,0,1-2.2,25.35l-.09.32a49.64,49.64,0,0,1-19.13,25.52,13.91,13.91,0,0,1-8.78,3.12,13.72,13.72,0,0,1-6.61-1.69,14.31,14.31,0,0,1-7.28-13.08,38,38,0,0,1,.33-4,18.33,18.33,0,0,0,.19-4.31c-.74-.31-3.12,0-4.44.15a33.81,33.81,0,0,1-4.1.35A23.51,23.51,0,0,1,202,192.14V166.57Zm-79.47-1.47a23,23,0,0,1,23.23-22.91c10-.11,20.39-.22,30.74,0a23,23,0,0,1,22.88,22.52c.3,3.87.24,7.55.18,11.81,0,1.9-.07,3.92-.07,6.13a81.42,81.42,0,0,1-2.08,24.67l-.08.32A49.19,49.19,0,0,1,178.74,233a13.9,13.9,0,0,1-9.34,3.6h-.48A14,14,0,0,1,155.43,221c-.1-2.39-.1-4.81,0-7.2v0h-.19a67.49,67.49,0,0,1-9.54,0h-.06a23.16,23.16,0,0,1-23.1-22.92C122.34,182.32,122.34,173.62,122.56,165.1ZM290.67,339A16.27,16.27,0,0,1,280,351.3l-.36.1a29.94,29.94,0,0,1-8.18.88H155.33l-1.23,0a31.16,31.16,0,0,1-6.15-.66l-.43-.1a16.62,16.62,0,0,1-11.06-20.68A16.83,16.83,0,0,1,150,319.24l.34,0a30,30,0,0,1,4.45,0H272.46a30.51,30.51,0,0,1,4.91.28l.17,0A16.62,16.62,0,0,1,290.67,339ZM353,284.57A16.23,16.23,0,0,1,338.4,299a27.19,27.19,0,0,1-4.51,0H92.71a18.64,18.64,0,0,1-2.22.14,16.74,16.74,0,0,1-13.9-25.86,16.18,16.18,0,0,1,11.1-7.1A26.62,26.62,0,0,1,93.2,266H333.78a19.65,19.65,0,0,1,8.67,1.26A16,16,0,0,1,353,284.57Z" fill="#fff"/></g></g><g id="Group_1154" data-name="Group 1154"><g id="Path_930" data-name="Path 930"><path d="M353,284.57A16.23,16.23,0,0,1,338.4,299a27.19,27.19,0,0,1-4.51,0H92.71a18.64,18.64,0,0,1-2.22.14,16.74,16.74,0,0,1-13.9-25.86,16.18,16.18,0,0,1,11.1-7.1A26.62,26.62,0,0,1,93.2,266H333.78a19.65,19.65,0,0,1,8.67,1.26A16,16,0,0,1,353,284.57Z" fill="#f27366"/></g></g><g id="Path_932" data-name="Path 932"><path d="M224.68,156.67h1.74A9.19,9.19,0,0,0,224.68,156.67Z" fill="#162143"/><path d="M224.68,156.67h1.74A9.19,9.19,0,0,0,224.68,156.67Zm0,0h1.74A9.19,9.19,0,0,0,224.68,156.67Zm0,0h1.74A9.19,9.19,0,0,0,224.68,156.67Z"/><path d="M278.77,182.21c0-2.19,0-4.2,0-6.13,0-3.6.06-7,0-10.38v-.91A23.43,23.43,0,0,0,255,142.19c-9.65-.11-19.44-.11-29,0h-1.87A23.31,23.31,0,0,0,202,166.57v25.57a23.51,23.51,0,0,0,24.62,21.78,33.81,33.81,0,0,0,4.1-.35c1.32-.16,3.7-.46,4.44-.15a18.33,18.33,0,0,1-.19,4.31,38,38,0,0,0-.33,4A14.31,14.31,0,0,0,242,234.83a13.72,13.72,0,0,0,6.61,1.69,13.91,13.91,0,0,0,8.78-3.12,49.64,49.64,0,0,0,19.13-25.52l.09-.32A82.69,82.69,0,0,0,278.77,182.21ZM264.5,167c-.1,4.71-.1,9.52-.1,14.18s0,9.74-.11,14.63V196a30.24,30.24,0,0,1-2.19,9.73c-.11.28-.21.56-.34.83-.4.92-.83,1.82-1.31,2.69-.38.7-.8,1.38-1.23,2a.5.5,0,0,0-.08.12c-.47.69-1,1.39-1.49,2.05-.26.34-.53.68-.82,1l-7.09,8.31-.56-10.93c-.08-1.69-.22-3.15-.4-4.41-.08-.5-.15-1-.25-1.4a6,6,0,0,0-.15-.64c-.08-.32-.17-.61-.26-.88a7.64,7.64,0,0,0-.59-1.38c-.1-.18-.21-.35-.32-.52-1.64-2.38-4.54-2.74-9.69-2.74h-11a12.05,12.05,0,0,1-4.35-.75l-.28-.11c-3.58-1.35-5.6-4.53-5.6-9.05v-23.5a9.06,9.06,0,0,1,8.24-9.8h.15a9.19,9.19,0,0,1,1.74,0H254.3a6.8,6.8,0,0,1,2.58.09,9.31,9.31,0,0,1,5.9,3.67A9.18,9.18,0,0,1,264.5,167Z" fill="#162143"/></g><g id="Path_933" data-name="Path 933"><path d="M137.28,164.77a9.6,9.6,0,0,0,0,1.42v24.06Zm8.11,35a10.73,10.73,0,0,0,1.39,0h-1.39Zm14.66,0c3,.11,5.19.48,6.72,1.53C165.28,200.23,163.13,199.87,160.05,199.79Zm7,1.71c2,1.61,2.69,4.63,2.89,10.21C169.82,206.11,169.08,203.1,167,201.5Zm2.89,10.36.2,10.93.19-.2Zm9.94-.29a24.32,24.32,0,0,0,2-3.39A32,32,0,0,1,179.85,211.57Z" fill="#162143"/><path d="M160.05,199.79c3,.11,5.19.48,6.72,1.53C165.28,200.23,163.13,199.87,160.05,199.79Zm9.86,12.07.2,10.93.19-.2Zm9.94-.29a24.32,24.32,0,0,0,2-3.39A32,32,0,0,1,179.85,211.57Zm-19.8-11.78c3,.11,5.19.48,6.72,1.53C165.28,200.23,163.13,199.87,160.05,199.79Zm9.86,12.07.2,10.93.19-.2Zm9.94-.29a24.32,24.32,0,0,0,2-3.39A32,32,0,0,1,179.85,211.57Zm-19.8-11.78c3,.11,5.19.48,6.72,1.53C165.28,200.23,163.13,199.87,160.05,199.79Zm9.86,12.07.2,10.93.19-.2Zm9.94-.29a24.32,24.32,0,0,0,2-3.39A32,32,0,0,1,179.85,211.57Z"/><path d="M199.52,182.65c0-2.21,0-4.23.07-6.13.06-4.26.12-7.94-.18-11.81a23,23,0,0,0-22.88-22.52c-10.35-.22-20.7-.11-30.74,0a23,23,0,0,0-23.23,22.91c-.22,8.52-.22,17.22,0,25.79a23.16,23.16,0,0,0,23.1,22.92h.06a67.49,67.49,0,0,0,9.54,0h.19v0c-.11,2.39-.11,4.81,0,7.2a14,14,0,0,0,13.49,15.56h.48a13.9,13.9,0,0,0,9.34-3.6,49.19,49.19,0,0,0,18.62-25.36l.08-.32A81.42,81.42,0,0,0,199.52,182.65Zm-14-16.3c0,9.87,0,20.07-.22,30.14l0,.41a33.86,33.86,0,0,1-1.85,7.81,6.05,6.05,0,0,1-.24.64c-.22.56-.45,1.1-.69,1.64s-.38.8-.57,1.19a24.32,24.32,0,0,1-2,3.39,28.31,28.31,0,0,1-2.34,3l-7.21,8.05-.19.2-.2-10.93v-.15c-.2-5.58-.93-8.6-2.89-10.21a2.27,2.27,0,0,0-.25-.18c-1.53-1-3.68-1.42-6.72-1.53H146.78a10.73,10.73,0,0,1-1.39,0c-.27,0-.53-.07-.8-.11a3.61,3.61,0,0,1-.55-.12l-.24-.05a5.62,5.62,0,0,1-.58-.19l-.2-.06a3.3,3.3,0,0,1-.43-.19,1.54,1.54,0,0,1-.35-.15,2.94,2.94,0,0,1-.55-.3l0,0a3.78,3.78,0,0,1-.51-.3c-.18-.12-.37-.26-.54-.4a2.23,2.23,0,0,1-.24-.19l-.35-.32-.1-.09a4.86,4.86,0,0,1-.53-.58.08.08,0,0,1,0-.05,3.21,3.21,0,0,1-.43-.56.18.18,0,0,1-.06-.09,6.49,6.49,0,0,1-.39-.62s0,0,0,0a3.74,3.74,0,0,1-.29-.56,2.67,2.67,0,0,1-.15-.34c-.08-.15-.13-.29-.19-.43a.76.76,0,0,1-.06-.2c-.08-.2-.13-.39-.19-.58a.71.71,0,0,1,0-.21,3.06,3.06,0,0,1-.13-.6,5.23,5.23,0,0,1-.11-.78v-.36a8.85,8.85,0,0,1,0-1V166.19a9.6,9.6,0,0,1,0-1.42v0a8.85,8.85,0,0,1,.58-2.45,5.51,5.51,0,0,1,.33-.75q.13-.27.3-.54a9,9,0,0,1,6.71-4.42l.55,0h29.81a9.21,9.21,0,0,1,9.89,8.06l0,.54Z" fill="#162143"/></g><g id="Group_1156" data-name="Group 1156"><g id="Path_934" data-name="Path 934"><path d="M290.67,339A16.27,16.27,0,0,1,280,351.3l-.36.1a29.94,29.94,0,0,1-8.18.88H155.33l-1.23,0a31.16,31.16,0,0,1-6.15-.66l-.43-.1a16.62,16.62,0,0,1-11.06-20.68A16.83,16.83,0,0,1,150,319.24l.34,0a30,30,0,0,1,4.45,0H272.46a30.51,30.51,0,0,1,4.91.28l.17,0A16.62,16.62,0,0,1,290.67,339Z" fill="#2ba5dd"/></g></g><g id="Path_935" data-name="Path 935"><path d="M264.5,167c-.1,4.71-.1,9.52-.1,14.18s0,9.74-.11,14.63V196a30.24,30.24,0,0,1-2.19,9.73c-.11.28-.21.56-.34.83-.4.92-.83,1.82-1.31,2.69-.38.7-.8,1.38-1.23,2a.5.5,0,0,0-.08.12c-.47.69-1,1.39-1.49,2.05-.26.34-.53.68-.82,1l-7.09,8.31-.56-10.93c-.08-1.69-.22-3.15-.4-4.41-.07-.5-.15-1-.25-1.4a6,6,0,0,0-.15-.64c-.08-.32-.17-.61-.26-.88a7.64,7.64,0,0,0-.59-1.38c-.1-.18-.21-.35-.32-.52-1.64-2.38-4.54-2.74-9.69-2.74h-11a12.05,12.05,0,0,1-4.35-.75l-.28-.11c-3.58-1.35-5.6-4.53-5.6-9.05v-23.5a9.06,9.06,0,0,1,8.24-9.8H254.3a6.8,6.8,0,0,1,2.58.09,9.31,9.31,0,0,1,5.9,3.67A9.18,9.18,0,0,1,264.5,167Z" fill="#2ba5dd"/></g><g id="Path_936" data-name="Path 936"><path d="M137.28,164.77a9.6,9.6,0,0,0,0,1.42v24.06Zm8.11,35a10.73,10.73,0,0,0,1.39,0h-1.39ZM167,201.5c2,1.61,2.69,4.63,2.89,10.21C169.82,206.11,169.08,203.1,167,201.5Z"/><path d="M185.48,165.15v1.2c0,9.87,0,20.07-.22,30.14l0,.41a33.86,33.86,0,0,1-1.85,7.81c-.08.22-.15.43-.24.64-.22.56-.45,1.1-.69,1.64s-.38.8-.57,1.19a32,32,0,0,1-2,3.39,28.31,28.31,0,0,1-2.34,3l-7.21,8.05-.39-10.73v-.15c-.09-5.6-.83-8.61-2.89-10.21a2.27,2.27,0,0,0-.25-.18c-1.49-1.09-3.64-1.45-6.72-1.53H145.39c-.27,0-.53-.07-.8-.11a3.61,3.61,0,0,1-.55-.12l-.24-.05a5.62,5.62,0,0,1-.58-.19l-.2-.06a3.3,3.3,0,0,1-.43-.19,1.54,1.54,0,0,1-.35-.15c-.18-.09-.37-.19-.55-.3l0,0a3.78,3.78,0,0,1-.51-.3c-.18-.12-.37-.26-.54-.4a2.23,2.23,0,0,1-.24-.19l-.35-.32-.1-.09a7.29,7.29,0,0,1-.53-.58.08.08,0,0,1,0-.05,4.63,4.63,0,0,1-.43-.56.18.18,0,0,1-.06-.09,6.49,6.49,0,0,1-.39-.62s0,0,0,0c-.11-.19-.2-.37-.29-.56a2.67,2.67,0,0,1-.15-.34c-.08-.15-.13-.29-.19-.43a.76.76,0,0,1-.06-.2c-.08-.2-.13-.39-.19-.58a.71.71,0,0,1,0-.21,3.75,3.75,0,0,1-.13-.6,5.23,5.23,0,0,1-.11-.78v-1.39l0-25.48v0a8.85,8.85,0,0,1,.58-2.45c.11-.26.21-.51.33-.75s.19-.36.3-.54a9,9,0,0,1,6.71-4.42l.55,0h29.81a9.21,9.21,0,0,1,9.89,8.06Z" fill="#f27366"/></g></g></g></svg>