<svg id="Layer_1" data-name="Layer 1" xmlns="http://www.w3.org/2000/svg" viewBox="0 0 512 512"><path d="M401.73,233.57c3.37-1.62,6-2.92,8.59-4.12,11-5,21.64,1.59,21.7,13.75.1,22.49,0,45,0,67.48q0,67,0,134c0,15.11-10.28,21.56-23.78,14.87q-51.86-25.67-103.67-51.4c-1.87-.93-3.75-1.82-6.19-3-2.11,11.66-4.14,22.8-6.13,33.95-2.34,13.14-4.6,26.3-7,39.43-1.53,8.45-7,13.13-15.61,13.17q-28.37.1-56.72,0c-10.69,0-17-7.93-15.25-18.49q5.64-33.23,11.16-66.48c.19-1.1.19-2.24.3-3.68-1.41-.51-2.76-1-4.09-1.48a34.28,34.28,0,0,1-22.42-32c-.1-8.3,0-16.59,0-25.6H52.58c-28.3,0-46.95-18.56-46.95-46.74q0-115.17,0-230.34c0-28,18.63-46.69,46.5-46.69q151.58,0,303.16,0c27.64,0,46.41,18.7,46.43,46.27q.06,80.19,0,160.4Zm-219,81.11c7.08-20.95,17.49-28.37,39.32-28.37,23.14,0,46.28.06,69.41-.08a18.84,18.84,0,0,0,7.87-1.87c22.94-11.23,45.77-22.69,68.73-33.89,3.23-1.58,4.39-3.35,4.38-7q-.19-88.26-.09-176.5c0-11.8-5.58-17.4-17.3-17.4q-151.29,0-302.59,0C40.45,49.59,35,55.1,35,67.24Q35,182.13,35,297c0,12.13,5.49,17.65,17.53,17.66H182.77ZM402.33,423.82V266.65a5.29,5.29,0,0,0-1.32.18q-42.43,21-84.79,42.14c-1.27.64-2.4,2.95-2.41,4.49-.15,21,0,42-.18,63.06,0,2.8,1.09,4,3.38,5.07,10.69,5.18,21.28,10.54,31.93,15.81C366.56,406.13,384.19,414.84,402.33,423.82ZM284.16,315.66c-22.51,0-44.47,0-66.44,0-4.45,0-5.77,2.68-5.76,6.72.07,15,0,29.95,0,44.93,0,5.65,1.47,7,7.38,7q30.52,0,61,0c1.24,0,2.47-.21,3.74-.33Zm-45.08,88.2c-3.24,19.41-6.46,38.72-9.76,58.52,9.24,0,17.85.12,26.45-.14,1.09,0,2.79-1.87,3.06-3.12,1.43-6.51,2.49-13.1,3.65-19.66,2.09-11.79,4.14-23.57,6.25-35.6Z" fill="#162143"/><path d="M182.77,314.68H52.5c-12,0-17.53-5.53-17.53-17.66q0-114.88,0-229.78C35,55.1,40.45,49.59,52.5,49.59q151.29,0,302.59,0c11.72,0,17.29,5.6,17.3,17.4q0,88.25.09,176.5c0,3.63-1.15,5.4-4.38,7-23,11.2-45.79,22.66-68.73,33.89a18.84,18.84,0,0,1-7.87,1.87c-23.13.14-46.27.08-69.41.08C200.26,286.31,189.85,293.73,182.77,314.68ZM130.32,182.23c0,18.74-.06,37.47,0,56.21.06,14.36,10.58,20.81,23.48,14.37q56.58-28.2,113.11-56.49c6-3,10-7.24,10-14.3s-4.13-11.17-10.16-14.17c-37.44-18.62-75-37-112.12-56.26-11.37-5.89-25.09-.82-24.46,15.42C130.87,145.39,130.32,163.82,130.32,182.23Z" fill="#fff"/><path d="M402.33,423.82c-18.14-9-35.77-17.69-53.39-26.42-10.65-5.27-21.24-10.63-31.93-15.81-2.29-1.11-3.4-2.27-3.38-5.07.14-21,0-42,.18-63.06,0-1.54,1.14-3.85,2.41-4.49q42.3-21.24,84.79-42.14a5.29,5.29,0,0,1,1.32-.18Z" fill="#fff"/><path d="M284.16,315.66V374c-1.27.12-2.5.33-3.74.33q-30.53,0-61,0c-5.91,0-7.36-1.37-7.38-7,0-15,0-30,0-44.93,0-4,1.31-6.71,5.76-6.72C239.69,315.65,261.65,315.66,284.16,315.66Z" fill="#2ba5dd"/><path d="M239.08,403.86h29.65c-2.11,12-4.16,23.81-6.25,35.6-1.16,6.56-2.22,13.15-3.65,19.66-.27,1.25-2,3.09-3.06,3.12-8.6.26-17.21.14-26.45.14C232.62,442.58,235.84,423.27,239.08,403.86Z" fill="#fff"/><path d="M130.32,182.23c0-18.41.55-36.84-.17-55.22-.63-16.24,13.09-21.31,24.46-15.42,37.12,19.25,74.68,37.64,112.12,56.26,6,3,10.12,7.11,10.16,14.17s-3.93,11.29-10,14.3q-56.6,28.17-113.11,56.49c-12.9,6.44-23.42,0-23.48-14.37C130.26,219.7,130.32,201,130.32,182.23Zm99.25-.1L160,147.35v69.57Z" fill="#162143"/><path d="M229.57,182.13,160,216.92V147.35Z" fill="#f67567"/><rect x="461.38" y="321.65" width="45.55" height="30.47" rx="15.24" fill="#162143"/><rect x="458.32" y="383.82" width="45.55" height="30.47" rx="15.24" transform="translate(423.09 -223.3) rotate(45)" fill="#162143"/><rect x="457.57" y="259.48" width="45.55" height="30.47" rx="15.24" transform="translate(-53.57 420.12) rotate(-45)" fill="#162143"/></svg>