<svg id="Layer_1" data-name="Layer 1" xmlns="http://www.w3.org/2000/svg" viewBox="0 0 512 512"><path d="M402.27,197.06h0a16.32,16.32,0,0,1,16.31-16.32h70.76a16.32,16.32,0,0,1,16.32,16.32h0a16.33,16.33,0,0,1-16.32,16.32H418.58a16.32,16.32,0,0,1-16.31-16.32Z" fill="#162143"/><path d="M385.28,247.56h0a16.33,16.33,0,0,1,23.08,0l50,50a16.33,16.33,0,0,1,0,23.08h0a16.36,16.36,0,0,1-23.09,0l-50-50a16.33,16.33,0,0,1,0-23.08Z" fill="#162143"/><path d="M385.28,146.56h0a16.32,16.32,0,0,1,0-23.09h0l50-50a16.32,16.32,0,0,1,23.09,0h0a16.33,16.33,0,0,1,0,23.08l-50,50A16.33,16.33,0,0,1,385.28,146.56Z" fill="#162143"/><path d="M55.49,279.65H47.67A41.35,41.35,0,0,1,6.34,238.32V162.6a41.37,41.37,0,0,1,28.41-39.26,172.84,172.84,0,0,0-8.56,34.22c-.61,4.27-1.08,8.58-1.38,12.93a172.28,172.28,0,0,0,0,24.47c.3,4.23.74,8.43,1.36,12.55a162.17,162.17,0,0,0,13.4,45c.74,1.64,1.54,3.27,2.38,4.87A165.09,165.09,0,0,0,54.53,278.3Z" fill="#2ba5dd"/><path d="M210.6,8.9A174.24,174.24,0,0,0,40.78,108.69c-.41.87-.82,1.77-1.19,2.65q-2.64,5.93-4.84,12a172.84,172.84,0,0,0-8.56,34.22c-.61,4.27-1.08,8.58-1.38,12.93a172.28,172.28,0,0,0,0,24.47c.3,4.23.74,8.43,1.36,12.55a162.17,162.17,0,0,0,13.4,45c.74,1.64,1.54,3.27,2.38,4.87A165.09,165.09,0,0,0,54.53,278.3l1,1.35h-1v174a49.95,49.95,0,0,0,49.92,49.91h78.07a36.6,36.6,0,0,0,6.52-.59l.12,0c.85-.16,1.69-.35,2.41-.54a36.46,36.46,0,0,0,27.38-35v-1.12L203.39,356.38q5.38.27,10.79.26H300a72.6,72.6,0,0,0,72.53-72.53V187.5C372.46,93.53,301.33,15.12,210.6,8.9ZM184,473.35l-.34.08a8.09,8.09,0,0,1-1.24.1h-78A19.94,19.94,0,0,1,84.53,453.6V311a192.82,192.82,0,0,0,78.85,39.63c3.05.74,6.11,1.42,9.18,2L188.9,467.94A6.49,6.49,0,0,1,184,473.35ZM342.09,294.94c-.06.23-.12.46-.19.7s-.2.68-.3,1A43.59,43.59,0,0,1,300,327.59h-89.9c-1.36,0-2.71-.06-4.05-.12-1,0-2-.08-2.92-.14l-2.39-.14-1.57-.12-1.6-.13a16.71,16.71,0,0,1-2.12-.2l-.64-.06-1.74-.17c-1.95-.21-3.88-.46-5.8-.72-.75-.09-1.51-.21-2.27-.33-1.71-.25-3.41-.54-5.1-.85l-1.95-.36-3.12-.62-3.29-.72-.83-.21c-1.11-.26-2.22-.52-3.33-.81-.69-.18-1.39-.35-2.07-.56-.34-.07-.67-.15-1-.25l-1.32-.37c-.68-.18-1.34-.38-2-.58s-1.1-.31-1.64-.49-1.1-.33-1.65-.51c-.91-.29-1.82-.57-2.74-.9-.45-.14-.9-.29-1.36-.46l-1.39-.51c-1.94-.69-3.86-1.4-5.76-2.15l-6.22-2.62c-.63-.26-1.19-.55-1.86-.85s-1.11-.49-1.65-.76l-.17-.08c-.86-.38-1.69-.79-2.52-1.19-.63-.3-1.19-.6-1.86-.93s-1-.49-1.44-.76-1.11-.56-1.64-.87c-1.06-.56-2.11-1.19-3.15-1.72l-1.08-.64c-.84-.46-1.66-1-2.48-1.46a.24.24,0,0,1-.11-.06h-.08l-3.84-2.38-1.55-1c-.62-.4-1.25-.82-1.86-1.25s-1.44-1-2.15-1.5-1.45-1-2.16-1.56q-2.22-1.63-4.39-3.36l-.73-.59c-.5-.38-1-.8-1.48-1.19s-1.19-.93-1.69-1.41L101,287.78l-.9-.8c-.65-.58-1.33-1.19-2-1.78s-1-.93-1.51-1.42l-.53-.5-1.19-1.11-.24-.24c-.59-.55-1.19-1.12-1.71-1.69s-1.19-1.19-1.75-1.83l-1-1.05c-.5-.53-1-1.08-1.49-1.63l-.8-.88q-2-2.18-3.79-4.47l-.89-1.11-.75-.95c-.62-.79-1.19-1.57-1.82-2.39l-.22-.28c-.75-1-1.48-2-2.19-3l-.94-1.36c-1-1.52-2-3.06-3-4.61-.45-.72-.9-1.42-1.31-2.15-.22-.33-.42-.66-.61-1s-.36-.61-.55-.93l-.7-1.19c-.23-.38-.62-1.1-.93-1.67s-.75-1.38-1.11-2.07l-.88-1.72c-.69-1.32-1.34-2.67-2-4-.28-.59-.56-1.19-.82-1.8s-.6-1.35-.89-2l-.31-.71c-.71-1.68-1.4-3.38-2-5.09l-.57-1.81c-.61-1.67-1.19-3.38-1.72-5.08-.25-.8-.49-1.59-.71-2.39a6,6,0,0,1-.22-.72c-.13-.48-.28-1-.42-1.48-.22-.8-.45-1.6-.65-2.38l-.22-.89c-.47-1.86-.91-3.75-1.28-5.65-.12-.52-.23-1-.34-1.58V210q-.27-1.36-.51-2.76s0-.08,0-.12c-.09-.58-.21-1.26-.31-1.95-.07-.4-.13-.8-.18-1.18-.16-1.09-.34-2.24-.47-3.37a11.91,11.91,0,0,0-.14-1.2c-.08-.64-.15-1.31-.21-2L54.07,196c-.09-1-.18-2-.25-3-.25-3.57-.38-7-.38-10.5v-2.76a3.69,3.69,0,0,1,0-.47v-.78a19.5,19.5,0,0,1,.08-2.17v-1.4c0-1.12.14-2.23.22-3.35,0-.77.12-1.55.2-2.38l.11-1.19c.32-3.36.77-6.69,1.33-10,.17-1,.36-2,.55-3,.46-2.32,1-4.63,1.52-6.92.2-.89.44-1.78.68-2.67.29-1.2.61-2.27.94-3.39.13-.48.27-.93.41-1.39s.25-.81.39-1.2.27-.95.44-1.43.41-1.27.64-1.92.31-.95.49-1.44.32-.91.49-1.36c.08-.23.17-.46.25-.7l.38-1c.21-.57.43-1.14.65-1.7l.42-1.08c.42-1,.85-2.08,1.29-3.1l.24-.55.24-.55.5-1.09.07-.15c.07-.19.15-.38.23-.56l.26-.56a.91.91,0,0,0,.07-.14c.11-.25.23-.51.35-.76l.57-1.22a.91.91,0,0,0,.07-.14c.21-.43.43-.89.65-1.32.46-1,.94-1.9,1.42-2.83.24-.46.48-.92.73-1.38s.49-.94.74-1.4.63-1.15,1-1.72a1.09,1.09,0,0,1,.08-.15c.09-.17.18-.34.29-.51s.29-.52.44-.77c.68-1.2,1.4-2.39,2.14-3.58.28-.5.59-1,.9-1.48,1-1.56,2-3.08,3.07-4.6.33-.51.69-1,1-1.51,1-1.5,2.13-3,3.25-4.44l1.06-1.37L85,92c.35-.46.72-.91,1.1-1.36a.47.47,0,0,1,.13-.15c.3-.42.62-.8,1-1.19l.92-1.09c1.9-2.25,3.9-4.44,6-6.58l.73-.75c1.33-1.37,2.7-2.7,4.09-4,.43-.4.84-.8,1.28-1.2l.16-.13c.52-.5,1.07-1,1.62-1.47,1.32-1.2,2.67-2.35,4-3.47.39-.34.79-.67,1.19-1,1.46-1.18,2.94-2.33,4.42-3.45.68-.5,1.35-1,2-1.47l1.53-1.11q2.56-1.8,5.17-3.46c.58-.37,1.17-.75,1.78-1.12l.27-.17c.7-.43,1.41-.85,2.13-1.27l1.84-1.1,2.24-1.19c.44-.19.82-.41,1.19-.61q2.39-1.27,4.77-2.47l.94-.45,2.62-1.19L141,49.28c1-.46,2.22-1,3.12-1.31s1.77-.72,2.66-1l1.36-.49c.64-.26,1.29-.49,1.94-.72l1.46-.5.89-.3c.68-.23,1.35-.45,2-.66,4.11-1.31,8.32-2.45,12.58-3.38l1-.21,2.53-.52c1.15-.23,2.27-.43,3.46-.62.92-.16,1.82-.31,2.74-.45l1-.15h.43c.93-.13,1.79-.23,2.81-.36s2.05-.24,3.09-.34l.8-.08c1.06-.1,2.14-.19,3.23-.27q5.25-.37,10.52-.37,4.95,0,9.94.33c1.19.09,2.44.18,3.58.29s2.32.24,3.51.38l1.74.2c1.16.16,2.27.34,3.46.52l1.73.28c1.15.19,2.3.4,3.43.62s2.21.47,3.4.73,2.24.5,3.36.79l2.87.74.72.2,2.65.77c.33.09.65.18.95.29.92.27,1.83.57,2.72.87,1.09.34,2.17.73,3.25,1.11,2.14.76,4.28,1.58,6.37,2.45s4.16,1.78,6.22,2.73c1,.5,2.07,1,3.07,1.5s2,1,3,1.57c2,1.06,4,2.16,5.9,3.31,1,.57,1.93,1.11,2.9,1.76s1.91,1.22,2.85,1.85c.68.45,1.36.89,2,1.37l.62.42.54.38a1.51,1.51,0,0,1,.26.18c.71.5,1.42,1,2.11,1.51.91.65,1.79,1.31,2.66,2l.14.11c.86.66,1.67,1.27,2.58,2s1.75,1.59,2.61,2.3,1.71,1.46,2.56,2.21a.6.6,0,0,1,.08.08,5.08,5.08,0,0,1,.43.38c.67.59,1.34,1.19,2,1.8l.09.08c.71.65,1.4,1.31,2.09,2a3.45,3.45,0,0,1,.28.26q2.38,2.31,4.77,4.76c.47.51.95,1,1.41,1.53s.84.91,1.25,1.37l.08.09.17.18c.11.12.21.24.33.36s0,0,0,0,.19.21.29.31l.12.14.19.2c.35.38.45.51.62.72h0l.08.08.65.77s0,0,0,0a.33.33,0,0,1,.12.14c.37.39.69.8,1,1.19l.35.42,1,1.22c.24.29.48.58.71.88s.53.64.78,1c.63.81,1.27,1.66,1.9,2.49s1.36,1.83,2,2.76c1.32,1.83,2.6,3.72,3.84,5.62.39.59.75,1.18,1.11,1.77l.25.4.47.73c.64,1,1,1.72,1.54,2.57.32.54.63,1.06.93,1.6q1.26,2.22,2.47,4.47l.72,1.42c.73,1.39,1.44,2.81,2.11,4.24.23.44.44.91.66,1.37.13.28.26.55.37.82.34.73.68,1.46,1,2.21q2.61,6,4.77,12.14c.16.46.31.92.45,1.4.54,1.56,1,3.13,1.48,4.77.14.44.27.89.39,1.33.2.69.38,1.36.56,2s.33,1.19.49,1.81c.45,1.79.88,3.58,1.27,5.4.11.48.22,1,.31,1.46a2.7,2.7,0,0,1,.08.39c.14.61.26,1.19.38,1.84a4.37,4.37,0,0,0,.09.5c0,.16.09.42.12.64.16.77.29,1.55.42,2.38.07.41.13.83.19,1.2.14.81.26,1.63.38,2.45l.22,1.54c.07.52.14,1.05.2,1.57.13,1,.25,2.09.34,3.14s.19,1.78.25,2.68c0,.46.1.9.12,1.37a0,0,0,0,1,0,.07c0,.64.1,1.29.13,1.92a.08.08,0,0,1,0,.05.14.14,0,0,1,0,.06c0,.57.09,1.19.1,1.7a.38.38,0,0,1,0,.21,8,8,0,0,0,.06,1.2c0,.76.07,1.53.08,2.32a9.2,9.2,0,0,1,0,1.05v3.24l0,42.76.06,53.39A43.62,43.62,0,0,1,342.09,294.94Z" fill="#162143"/><path d="M343.51,230.34l0-42.76v-3.24a9.2,9.2,0,0,0,0-1.05c0-.79-.08-1.56-.08-2.32a8,8,0,0,1-.06-1.2.37.37,0,0,0,0-.21c0-.51-.1-1.13-.1-1.7a.14.14,0,0,0,0-.06.08.08,0,0,0,0-.05c0-.63-.13-1.28-.13-1.92a0,0,0,0,0,0-.07c0-.47-.12-.91-.12-1.37-.06-.9-.15-1.64-.25-2.68s-.21-2.1-.34-3.14c-.06-.52-.13-1-.2-1.57l-.22-1.54c-.12-.82-.24-1.64-.38-2.45-.06-.37-.12-.79-.19-1.2-.13-.83-.26-1.61-.42-2.38,0-.22-.09-.48-.12-.64a4.37,4.37,0,0,1-.09-.5c-.12-.65-.24-1.23-.38-1.84a2.7,2.7,0,0,0-.08-.39c-.09-.49-.2-1-.31-1.46-.39-1.82-.82-3.61-1.27-5.4-.16-.62-.31-1.12-.49-1.81s-.36-1.36-.56-2c-.12-.44-.25-.89-.39-1.33-.46-1.64-.94-3.21-1.48-4.77-.14-.48-.29-.94-.45-1.4q-2.16-6.18-4.77-12.14c-.32-.75-.66-1.48-1-2.21-.11-.27-.24-.54-.37-.82-.22-.46-.43-.93-.66-1.37-.67-1.43-1.38-2.85-2.11-4.24l-.72-1.42q-1.21-2.25-2.47-4.47c-.3-.54-.61-1.06-.93-1.6-.5-.85-.9-1.59-1.54-2.57l-.47-.73-.25-.4c-.36-.59-.72-1.18-1.11-1.77-1.24-1.9-2.52-3.79-3.84-5.62-.66-.93-1.38-1.92-2-2.76s-1.27-1.68-1.9-2.49c-.25-.33-.51-.65-.78-1s-.47-.59-.71-.88l-1-1.22-.35-.42c-.32-.39-.64-.8-1-1.19a.33.33,0,0,0-.12-.14s0,0,0,0l-.65-.77-.08-.08h0c-.17-.21-.27-.34-.62-.72l-.19-.2-.12-.14c-.1-.1-.2-.2-.29-.31s0,0,0,0-.22-.24-.33-.36l-.17-.18-.08-.09c-.41-.46-.83-.92-1.25-1.37s-.94-1-1.41-1.53q-2.38-2.44-4.77-4.76a3.45,3.45,0,0,0-.28-.26c-.69-.68-1.38-1.34-2.09-2l-.09-.08c-.66-.61-1.33-1.21-2-1.8a5.08,5.08,0,0,0-.43-.38.6.6,0,0,0-.08-.08c-.85-.75-1.7-1.49-2.56-2.21s-1.71-1.55-2.61-2.3-1.72-1.36-2.58-2l-.14-.11c-.87-.66-1.75-1.32-2.66-2-.69-.52-1.4-1-2.11-1.51a1.51,1.51,0,0,0-.26-.18l-.54-.38-.62-.42c-.66-.48-1.34-.92-2-1.37-.94-.63-1.89-1.19-2.85-1.85s-1.93-1.19-2.9-1.76c-1.94-1.15-3.9-2.25-5.9-3.31-1-.54-2-1-3-1.57s-2-1-3.07-1.5c-2.06-.95-4.12-1.86-6.22-2.73s-4.23-1.69-6.37-2.45c-1.08-.38-2.16-.77-3.25-1.11-.89-.3-1.8-.6-2.72-.87-.3-.11-.62-.2-.95-.29l-2.65-.77-.72-.2-2.87-.74c-1.12-.29-2.24-.55-3.36-.79s-2.27-.5-3.4-.73-2.28-.43-3.43-.62l-1.73-.28c-1.19-.18-2.3-.36-3.46-.52l-1.74-.2c-1.19-.14-2.38-.27-3.51-.38s-2.39-.2-3.58-.29q-5-.33-9.94-.33-5.27,0-10.52.37c-1.09.08-2.17.17-3.23.27l-.8.08c-1,.1-2.06.21-3.09.34s-1.88.23-2.81.36h-.43l-1,.15c-.92.14-1.82.29-2.74.45-1.19.19-2.31.39-3.46.62l-2.53.52-1,.21c-4.26.93-8.47,2.07-12.58,3.38-.7.21-1.37.43-2,.66l-.89.3-1.46.5c-.65.23-1.3.46-1.94.72l-1.36.49c-.89.33-1.77.69-2.66,1s-2.09.85-3.12,1.31l-2.88,1.26-2.62,1.19-.94.45q-2.38,1.2-4.77,2.47c-.37.2-.75.42-1.19.61l-2.24,1.19-1.84,1.1c-.72.42-1.43.84-2.13,1.27l-.27.17c-.61.37-1.2.75-1.78,1.12q-2.61,1.66-5.17,3.46l-1.53,1.11c-.69.47-1.36,1-2,1.47-1.48,1.12-3,2.27-4.42,3.45-.4.32-.8.65-1.19,1-1.37,1.12-2.72,2.27-4,3.47-.55.47-1.1,1-1.62,1.47l-.16.13c-.44.4-.85.8-1.28,1.2-1.39,1.31-2.76,2.64-4.09,4l-.73.75C92,83.76,90,86,88.11,88.2l-.92,1.09c-.33.39-.65.77-1,1.19a.47.47,0,0,0-.13.15c-.38.45-.75.9-1.1,1.36l-.7.87-1.06,1.37C82.13,95.7,81,97.17,80,98.67c-.36.5-.72,1-1,1.51-1.06,1.52-2.09,3-3.07,4.6-.31.49-.62,1-.9,1.48-.74,1.19-1.46,2.38-2.14,3.58-.15.25-.3.51-.44.77s-.2.34-.29.51a1.09,1.09,0,0,0-.08.15c-.34.57-.66,1.15-1,1.72s-.5.93-.74,1.4-.49.92-.73,1.38c-.48.93-1,1.87-1.42,2.83-.22.43-.44.89-.65,1.32a.91.91,0,0,1-.07.14l-.57,1.22c-.12.25-.24.51-.35.76a.91.91,0,0,1-.07.14l-.26.56c-.08.18-.16.37-.23.56l-.07.15-.5,1.09-.24.55-.24.55c-.44,1-.87,2.06-1.29,3.1l-.42,1.08c-.22.56-.44,1.13-.65,1.7l-.38,1c-.08.24-.17.47-.25.7-.17.45-.33.9-.49,1.36s-.26.8-.49,1.44-.48,1.45-.64,1.92-.31,1-.44,1.43-.24.73-.39,1.2-.28.91-.41,1.39c-.33,1.12-.65,2.19-.94,3.39-.24.89-.48,1.78-.68,2.67-.56,2.29-1.06,4.6-1.52,6.92-.19,1-.38,2-.55,3-.56,3.29-1,6.62-1.33,10l-.11,1.19c-.08.83-.2,1.61-.2,2.38-.08,1.12-.22,2.23-.22,3.35v1.4a19.5,19.5,0,0,0-.08,2.17v.78a3.69,3.69,0,0,0,0,.47v2.76c0,3.47.13,6.93.38,10.5.07,1,.16,2,.25,3l.15,1.53c.06.65.13,1.32.21,2a11.91,11.91,0,0,1,.14,1.2c.13,1.13.31,2.28.47,3.37.05.38.11.78.18,1.18.1.69.22,1.37.31,1.95,0,0,0,.08,0,.12q.24,1.4.51,2.76v.2c.11.54.22,1.06.34,1.58.37,1.9.81,3.79,1.28,5.65l.22.89c.2.78.43,1.58.65,2.38.14.5.29,1,.42,1.48a6,6,0,0,0,.22.72c.22.8.46,1.59.71,2.39.53,1.7,1.11,3.41,1.72,5.08l.57,1.81c.63,1.71,1.32,3.41,2,5.09l.31.71c.29.7.63,1.44.89,2s.54,1.21.82,1.8c.63,1.36,1.28,2.71,2,4l.88,1.72c.36.69.8,1.5,1.11,2.07s.7,1.29.93,1.67l.7,1.19c.19.32.36.58.55.93s.39.68.61,1c.41.73.86,1.43,1.31,2.15,1,1.55,2,3.09,3,4.61l.94,1.36c.71,1,1.44,2,2.19,3l.22.28c.63.82,1.2,1.6,1.82,2.39l.75.95.89,1.11q1.85,2.3,3.79,4.47l.8.88c.48.55,1,1.1,1.49,1.63l1,1.05c.56.64,1.24,1.26,1.75,1.83s1.12,1.14,1.71,1.69l.24.24,1.19,1.11.53.5c.51.49.86.82,1.51,1.42s1.32,1.2,2,1.78l.9.8,1.32,1.13c.5.48,1.21,1,1.69,1.41s1,.81,1.48,1.19l.73.59q2.17,1.72,4.39,3.36c.71.53,1.46,1.05,2.16,1.56s1.54,1.07,2.15,1.5,1.24.85,1.86,1.25l1.55,1,3.84,2.38h.08a.24.24,0,0,0,.11.06c.82.5,1.64,1,2.48,1.46l1.08.64c1,.53,2.09,1.16,3.15,1.72.53.31,1.17.61,1.64.87s.78.42,1.44.76,1.23.63,1.86.93c.83.4,1.66.81,2.52,1.19l.17.08c.54.27,1,.47,1.65.76s1.23.59,1.86.85l6.22,2.62c1.9.75,3.82,1.46,5.76,2.15l1.39.51c.46.17.91.32,1.36.46.92.33,1.83.61,2.74.9.55.18,1.11.33,1.65.51s1,.29,1.64.49,1.33.4,2,.58l1.32.37c.32.1.65.18,1,.25.68.21,1.38.38,2.07.56,1.11.29,2.22.55,3.33.81l.83.21,3.29.72,3.12.62,1.95.36c1.69.31,3.39.6,5.1.85.76.12,1.52.24,2.27.33,1.92.26,3.85.51,5.8.72l1.74.17.64.06a16.71,16.71,0,0,0,2.12.2l1.6.13,1.57.12,2.39.14c1,.06,1.93.14,2.92.14,1.34.06,2.69.12,4.05.12H300a43.59,43.59,0,0,0,41.61-30.93c.1-.34.21-.68.3-1s.13-.47.19-.7a43.62,43.62,0,0,0,1.48-11.21Zm-95,4.69a15.15,15.15,0,0,1-1.51,6.63,14.71,14.71,0,0,1-.7,1.3,16.36,16.36,0,0,1-1.76,2.35l-.51.53-.25.25c-.27.25-.54.5-.83.73l-.58.46a15,15,0,0,1-1.86,1.19,15.2,15.2,0,0,1-7.29,1.85H134.68A15.28,15.28,0,0,1,119.39,235v-3.41a15.12,15.12,0,0,1,.69-4.54q.23-.72.51-1.41c.1-.23.2-.46.31-.69.22-.44.45-.87.7-1.29l.4-.62c.28-.4.57-.8.88-1.17l.48-.56.51-.53a15.16,15.16,0,0,1,10.81-4.48h98.58a15.21,15.21,0,0,1,6.63,1.51c.36.17.71.36,1.06.57a15.36,15.36,0,0,1,2.92,2.21,14.42,14.42,0,0,1,1.19,1.28,14,14,0,0,1,.87,1.16h0c.27.41.53.83.75,1.25a14.9,14.9,0,0,1,1.54,4.2,15.09,15.09,0,0,1,.32,3.1Zm55.76-89.65a15.29,15.29,0,0,1-10.17,14.41,15.13,15.13,0,0,1-5.14.89H134.68a15.12,15.12,0,0,1-6-1.22,15.3,15.3,0,0,1-9.3-14.07V142a15.28,15.28,0,0,1,9.2-14,15.41,15.41,0,0,1,6.09-1.26H289A15.3,15.3,0,0,1,304.31,142Z" fill="#fff"/><path d="M304.31,142v3.4a15.29,15.29,0,0,1-10.17,14.41,15.13,15.13,0,0,1-5.14.89H134.68a15.12,15.12,0,0,1-6-1.22,15.3,15.3,0,0,1-9.3-14.07V142a15.28,15.28,0,0,1,9.2-14,15.41,15.41,0,0,1,6.09-1.26H289A15.3,15.3,0,0,1,304.31,142Z" fill="#2ba5dd"/><path d="M248.55,231.62V235a15.15,15.15,0,0,1-1.51,6.63,14.71,14.71,0,0,1-.7,1.3,16.36,16.36,0,0,1-1.76,2.35l-.51.53-.25.25c-.27.25-.54.5-.83.73l-.58.46a15,15,0,0,1-1.86,1.19,15.2,15.2,0,0,1-7.29,1.85H134.68A15.28,15.28,0,0,1,119.39,235v-3.41a15.12,15.12,0,0,1,.69-4.54q.23-.72.51-1.41c.1-.23.2-.46.31-.69.22-.44.45-.87.7-1.29l.4-.62c.28-.4.57-.8.88-1.17l.48-.56.51-.53a15.16,15.16,0,0,1,10.81-4.48h98.58a15.21,15.21,0,0,1,6.63,1.51c.36.17.71.36,1.06.57a15.36,15.36,0,0,1,2.92,2.21,14.42,14.42,0,0,1,1.19,1.28,14,14,0,0,1,.87,1.16h0c.27.41.53.83.75,1.25a14.9,14.9,0,0,1,1.54,4.2A15.09,15.09,0,0,1,248.55,231.62Z" fill="#f67567"/></svg>