<svg id="Layer_1" data-name="Layer 1" xmlns="http://www.w3.org/2000/svg" viewBox="0 0 512 512"><path d="M508,228.86a44.3,44.3,0,0,0-36-43.13c-4.6-11.48-9.36-22.9-14.47-34.7a44.1,44.1,0,0,0-4.46-54.56c-12.35-13.09-25.73-26.4-39.74-39.53C398.53,43,375.75,41.63,358.9,53.14c-12.8-5.5-24.89-10.37-34.67-14.23a38.88,38.88,0,0,0-13.52-23.27l-.16-.14a67.66,67.66,0,0,0-13.73-8.26l-.25-.11a52.8,52.8,0,0,0-7.38-2.37A45.21,45.21,0,0,0,277.75,3.3h-43a45.78,45.78,0,0,0-9.72,0,42.15,42.15,0,0,0-9.46,2.21,50.89,50.89,0,0,0-11.33,5.26,42.54,42.54,0,0,0-19.12,27.93,208.75,208.75,0,0,0-35.21,14.73,44.48,44.48,0,0,0-55.36,5.81c-11.4,11.3-23.79,23.67-37,37.46a44.55,44.55,0,0,0-4.8,55.69c-4.6,10.79-9.33,22.31-14.39,35a43.49,43.49,0,0,0-19.7,9.44A44.86,44.86,0,0,0,5.31,216.24,24.16,24.16,0,0,0,4,223.42l-.32,64.2a27.15,27.15,0,0,0,1.23,8.11,43.82,43.82,0,0,0,34,30.48C44.45,339.82,49,350.78,53.4,360.89a44.05,44.05,0,0,0,5.23,55.67c12.52,13,25.43,25.59,37.53,37.31a44.27,44.27,0,0,0,55.78,4.88c12.06,5.09,23.56,9.83,35,14.42,4.21,20.77,22.09,35.54,43.89,35.66,5.83,0,11.87,0,17.83.11h.11c10.09,0,20.25-.1,31-.2H281c22.22-.24,40-14.83,44.52-36,11.31-4.55,23.26-9.43,35.26-14.69,18.09,11.85,40.18,9.74,56-5.72,13.13-12.8,25.09-24.88,36.52-36.84a44.29,44.29,0,0,0,5.06-55.83c5.59-13.11,10.46-25.22,14.3-34.95a44.12,44.12,0,0,0,35.53-42.81C508.43,266.09,508.4,248.73,508,228.86ZM395.67,368.45a15.81,15.81,0,0,1-10.73,6.44c-.39,0-.8.05-1.19.05a12.58,12.58,0,0,1-8.31-3.18c-4.73-4.11-7.43-11.54-.86-20,18.19-22.92,29-48.12,32.08-75,6.73-56.56-11.79-103.38-55.06-139.19C296.32,91.78,217.83,91.13,160.72,136l-.23.17c-.3.21-.58.45-.88.68s-.9.69-1.34,1l-.14.1c-6.69,4.52-14.08,3.65-18.81-2.22a13.1,13.1,0,0,1-3-9.83,14.07,14.07,0,0,1,5.6-9.4c5.68-4.34,11.77-8.89,18.05-13a179.54,179.54,0,0,1,271.72,118c10.33,53.41-1.79,102.84-36,146.92ZM255.86,435.81a181,181,0,0,1-139.11-65.4A178.78,178.78,0,0,1,79,290.54a209.16,209.16,0,0,1-3-22.62c-.22-2.42-.41-4.51-.61-6.12l-.06-.43v-.43c.65-46.5,13.15-83.66,39.35-117l.42-.47a2,2,0,0,1,.17-.23c.19-.27.39-.54.6-.82l.25-.29c5.35-5.9,13.32-6.78,19-2.1s6.55,12.25,2.15,18.76c-1.84,2.77-3.79,5.51-5.68,8.16a149,149,0,0,0-16.31,150.45A151.25,151.25,0,0,0,217.47,404C264,415.87,307.89,407,348,377.6c1.07-.78,2.09-1.58,3.06-2.36l.08-.07c8.72-6.74,16.13-3.91,20.16,1a12.78,12.78,0,0,1,3.08,9.87c-.33,2.7-1.74,6.69-6.62,10.31h0l-1.86,1.38c-5.11,3.8-10.41,7.74-16,11.17A178.26,178.26,0,0,1,266,435.52C262.61,435.71,259.23,435.81,255.86,435.81ZM150.25,149.69a147.53,147.53,0,0,1,104.66-43.28h.81C338.28,106.85,405.25,174,405,256.09c-.33,82.43-67.36,149.42-149.46,149.42h-.2A149,149,0,0,1,149,360.93a147.22,147.22,0,0,1-43.2-105.44A150.23,150.23,0,0,1,150.25,149.69Z" fill="#162143"/><path d="M478.38,230.63c-.11-9.5-5.59-15.41-15-16s-14.35-5.7-17.52-14.35c-5.06-13.83-10.76-27.55-17.09-40.85-5-10.45-5.28-13.72,2.32-22.48,5.7-6.65,5.7-15-.42-21.32-11.93-12-24.07-24.06-36.2-35.88-6.23-6-14.36-6-20.9-.42-8,6.75-13.4,6.86-22.9,2.53-13.3-6-26.81-11.61-40.53-16.67-9.71-3.59-13.93-7.92-14.88-18.26-.74-8.13-6.65-14.14-14.88-14.25-17-.11-34-.11-50.87.11-9.18.21-14.88,6.12-15.51,15.19s-4.65,14.36-13.2,16.89a216.1,216.1,0,0,0-42.95,17.94c-8,4.43-14,3.38-21.32-2.43C133.69,78,130,76.76,126.2,74.75c-4,2.11-8.13,3.17-10.77,5.8-12.24,11.83-24.17,23.86-36,36.1C73.32,123,73.32,131.21,79,138c6.33,7.39,6.54,13.4,2.64,22.16-6.12,13.72-11.93,27.65-17.2,41.79-3.27,8.87-8,13.2-17.42,14-9,.85-14.77,6.76-14.77,15.73-.11,16.57,0,33,.21,49.6.1,9.29,6,15.3,15.2,16,9.39.74,13.72,4.75,17.09,13.62,5.39,14,11.19,28,17.42,41.68,4,8.87,3.9,14.57-2.22,22.17s-5.7,15.3,1,22.16c11.5,11.61,23.11,23.11,34.83,34.62,6.86,6.75,15,6.86,22.27.52,6.75-5.8,13.08-6.75,20.89-2.53A215.53,215.53,0,0,0,202,447.3c8.55,2.53,12.77,7.81,13.62,16.68.95,9.81,6.44,15.19,16.25,15.19,16.15.11,32.4,0,48.65-.1,9.29-.11,15.62-5.7,16.26-15,.74-9.71,5.91-14.56,14.77-17.73,13.72-5.06,27.23-10.76,40.42-16.88,9.5-4.33,14.67-4.33,22.91,2.53,6.75,5.49,14.56,5.49,20.89-.63q18.21-17.89,35.89-36.1a14.36,14.36,0,0,0,3.06-16.67c-1.16-2.64-3.27-4.75-5.07-7.08-5.06-6.43-5.49-10.34-1.37-17.3a188.69,188.69,0,0,0,18.15-43.38c2.75-9.82,7.6-13.83,17.73-14.78,8.87-.84,14.46-6.64,14.57-15.51C478.7,263.77,478.59,247.31,478.38,230.63ZM374.37,386c-.33,2.7-1.74,6.69-6.62,10.31h0l-1.86,1.38c-5.11,3.8-10.41,7.74-16,11.17A178.26,178.26,0,0,1,266,435.52c-3.35.19-6.73.29-10.1.29a181,181,0,0,1-139.11-65.4A178.78,178.78,0,0,1,79,290.54a209.16,209.16,0,0,1-3-22.62c-.22-2.42-.41-4.51-.61-6.12l-.06-.43v-.43c.65-46.5,13.15-83.66,39.35-117l.42-.47a2,2,0,0,1,.17-.23c.19-.27.39-.54.6-.82l.25-.29c5.35-5.9,13.32-6.78,19-2.1s6.55,12.25,2.15,18.76c-1.84,2.77-3.79,5.51-5.68,8.16a149,149,0,0,0-16.31,150.45A151.25,151.25,0,0,0,217.47,404C264,415.87,307.89,407,348,377.6c1.07-.78,2.09-1.58,3.06-2.36l.08-.07c8.72-6.74,16.13-3.91,20.16,1A12.78,12.78,0,0,1,374.37,386ZM150.25,149.69a147.53,147.53,0,0,1,104.66-43.28h.81C338.28,106.85,405.25,174,405,256.09c-.33,82.43-67.36,149.42-149.46,149.42h-.2A149,149,0,0,1,149,360.93a147.22,147.22,0,0,1-43.2-105.44A150.23,150.23,0,0,1,150.25,149.69ZM395.68,368.44h0a15.81,15.81,0,0,1-10.73,6.44c-.39,0-.8.05-1.19.05a12.58,12.58,0,0,1-8.31-3.18c-4.73-4.11-7.43-11.54-.86-20,18.19-22.92,29-48.12,32.08-75,6.73-56.56-11.79-103.38-55.06-139.19C296.32,91.78,217.83,91.13,160.72,136l-.23.17c-.3.21-.58.45-.88.68s-.9.69-1.34,1l-.14.1c-6.69,4.52-14.08,3.65-18.81-2.22a13.1,13.1,0,0,1-3-9.83,14.07,14.07,0,0,1,5.6-9.4c5.68-4.34,11.77-8.89,18.05-13a179.54,179.54,0,0,1,271.72,118C442.05,274.93,429.93,324.36,395.68,368.44Z" fill="#fff"/><path d="M255.72,106.41h-.81a147.53,147.53,0,0,0-104.66,43.28,150.23,150.23,0,0,0-44.42,105.8A147.22,147.22,0,0,0,149,360.93a149,149,0,0,0,106.34,44.58h.2c82.1,0,149.13-67,149.46-149.42C405.25,174,338.28,106.85,255.72,106.41ZM255.06,385C183.5,384.61,126,326.78,126.41,255.64c.31-71.66,58.47-129.28,129.71-128.75,71.45.52,129,58.57,128.33,129.6C383.92,328,326.09,385.46,255.06,385Z" fill="#162143"/><path d="M344.21,203.8c0,.37,0,.73-.08,1.1a26.68,26.68,0,0,1-6.33,14.86q-45.27,54.47-90.87,108.81c-9.92,11.82-26.28,12.67-37.15,1.69q-22.47-22.63-44.53-45.8l-.21-.22A24.54,24.54,0,0,1,163,252.39c.25-.32.51-.66.78-1s.55-.65.83-1,.52-.56.78-.82l.11-.11c0-.1.1-.1.21-.21.27-.26.54-.53.82-.77,9.91-9,24.48-8.45,34.53,1.19,8.53,8.32,17.38,16.32,26.33,24.65,14.34-17.2,29.62-35.43,44.91-53.67,9.08-11,18.16-21.85,27.34-32.72.37-.44.75-.86,1.15-1.27s.73-.75,1.1-1.11.67-.62,1-.93c.17-.15.35-.3.52-.43l.74-.62c.33-.24.65-.48,1-.7l.62-.44c.27-.19.55-.36.82-.53s.74-.45,1.12-.66.61-.33.93-.48l.46-.24a24,24,0,0,1,26.11,3.19A24.84,24.84,0,0,1,343.93,199c.07.41.12.83.16,1.24s.09.82.11,1.23C344.24,202.27,344.24,203,344.21,203.8Z" fill="#162143"/><path d="M395.68,368.44h0a15.81,15.81,0,0,1-10.73,6.44c-.39,0-.8.05-1.19.05a12.58,12.58,0,0,1-8.31-3.18c-4.73-4.11-7.43-11.54-.86-20,18.19-22.92,29-48.12,32.08-75,6.73-56.56-11.79-103.38-55.06-139.19C296.32,91.78,217.83,91.13,160.72,136l-.23.17c-.3.21-.58.45-.88.68s-.9.69-1.34,1l-.14.1c-6.69,4.52-14.08,3.65-18.81-2.22a13.1,13.1,0,0,1-3-9.83,14.07,14.07,0,0,1,5.6-9.4c5.68-4.34,11.77-8.89,18.05-13a179.54,179.54,0,0,1,271.72,118C442.05,274.93,429.93,324.36,395.68,368.44Z" fill="#f27366"/><path d="M374.37,386c-.33,2.7-1.74,6.69-6.62,10.31h0l-1.86,1.38c-5.11,3.8-10.41,7.74-16,11.17A178.26,178.26,0,0,1,266,435.52c-3.35.19-6.73.29-10.1.29a181,181,0,0,1-139.11-65.4A178.78,178.78,0,0,1,79,290.54a209.16,209.16,0,0,1-3-22.62c-.22-2.42-.41-4.51-.61-6.12l-.06-.43v-.43c.65-46.5,13.15-83.66,39.35-117l.42-.47a2,2,0,0,1,.17-.23c.19-.27.39-.54.6-.82l.25-.29c5.35-5.9,13.32-6.78,19-2.1s6.55,12.25,2.15,18.76c-1.84,2.77-3.79,5.51-5.68,8.16a149,149,0,0,0-16.31,150.45A151.25,151.25,0,0,0,217.47,404C264,415.87,307.89,407,348,377.6c1.07-.78,2.09-1.58,3.06-2.36l.08-.07c8.72-6.74,16.13-3.91,20.16,1A12.78,12.78,0,0,1,374.37,386Z" fill="#2ba5dd"/><path d="M335.16,183.77a24,24,0,0,0-26.11-3.19,24,24,0,0,1,26,3.3A24.7,24.7,0,0,1,343.93,199,24.84,24.84,0,0,0,335.16,183.77ZM166.49,248.54c9.91-8.91,24.3-8.32,34.43,1.3,8.55,8.23,17.31,16.15,26.38,24.59l0-.05c-8.95-8.33-17.8-16.33-26.33-24.65C191,240.09,176.4,239.52,166.49,248.54Zm-1,1,.1-.1.11-.11C165.56,249.42,165.46,249.42,165.46,249.52Z" fill="#fff"/><path d="M256.12,126.89c-71.24-.53-129.4,57.09-129.71,128.75C126,326.78,183.5,384.61,255.06,385c71,.43,128.86-57,129.39-128.54C385.08,185.46,327.57,127.41,256.12,126.89Zm88.09,76.91c0,.37,0,.73-.08,1.1a26.68,26.68,0,0,1-6.33,14.86q-45.27,54.47-90.87,108.81c-9.92,11.82-26.28,12.67-37.15,1.69q-22.47-22.63-44.53-45.8l-.21-.22A24.54,24.54,0,0,1,163,252.39c.24-.32.5-.66.78-1s.55-.64.83-1,.51-.56.78-.82l.11-.11c0-.1.1-.1.21-.21.27-.26.54-.53.82-.77,9.91-9,24.48-8.45,34.53,1.19,8.53,8.32,17.38,16.32,26.33,24.65,14.34-17.2,29.62-35.43,44.91-53.67,9.08-11,18.16-21.85,27.34-32.72.37-.44.75-.86,1.15-1.27s.72-.76,1.1-1.11.67-.64,1-.93c.17-.15.35-.3.52-.43a8.38,8.38,0,0,1,.74-.62c.33-.24.65-.48,1-.7s.41-.3.62-.44.55-.36.82-.53.74-.45,1.12-.66.61-.34.93-.48l.46-.24a24,24,0,0,1,26.11,3.19A24.84,24.84,0,0,1,343.93,199a10.52,10.52,0,0,1,.16,1.24c.06.41.09.82.11,1.23C344.24,202.27,344.24,203,344.21,203.8Z" fill="#fff"/><path d="M344.21,203.8c0,.37,0,.73-.08,1.1a26.65,26.65,0,0,1-6.33,14.75q-45.27,54.63-90.87,108.82c-9.92,11.82-26.38,12.55-37.15,1.68q-22.47-22.63-44.53-45.8a24.54,24.54,0,0,1-2.29-32c.25-.32.51-.66.78-1s.55-.65.83-1,.52-.56.78-.82l.11-.11c0-.1.1-.1.21-.21.27-.26.54-.53.82-.77,9.91-9,24.48-8.45,34.53,1.19,8.53,8.32,17.38,16.32,26.33,24.65l.06.05c14.46-17.31,29.76-35.57,45-53.83,9.07-10.87,18.15-21.84,27.33-32.71.34-.4.7-.79,1.05-1.17s.73-.75,1.1-1.11.67-.62,1-.93c.17-.15.35-.3.52-.43l.74-.62c.33-.24.65-.48,1-.7l.62-.44c.27-.19.55-.36.82-.53s.74-.45,1.12-.66.61-.33.93-.48l.46-.24a24,24,0,0,1,26.11,3.19A24.84,24.84,0,0,1,343.93,199c.07.41.12.83.16,1.24s.09.82.11,1.23C344.24,202.27,344.24,203,344.21,203.8Z" fill="#f27366"/></svg>