<svg xmlns="http://www.w3.org/2000/svg" width="14.783" height="19.43" viewBox="0 0 14.783 19.43">
  <g id="Group_1378" data-name="Group 1378" transform="translate(1809.037 1381)">
    <path id="Path_1204" data-name="Path 1204" d="M-1802.561-1381c.421.076.851.12,1.262.233a5.972,5.972,0,0,1,3.508,2.575,5.928,5.928,0,0,1,.976,3.276c0,.395-.054.79-.086,1.218l-1.285-.251a4.85,4.85,0,0,0-2.912-5.39,4.827,4.827,0,0,0-5.546,1.39,4.859,4.859,0,0,0-.051,6.08l-1,.8a6.122,6.122,0,0,1-1.276-2.972,5.975,5.975,0,0,1,.374-3.1,6.043,6.043,0,0,1,2.843-3.156,5.808,5.808,0,0,1,2.367-.678.687.687,0,0,0,.11-.026Z" fill="#2ba5dd"/>
    <path id="Path_1205" data-name="Path 1205" d="M-1765.823-1298.3a1.8,1.8,0,0,1,1.872.6c.1.123.169.28.263.413.031.044.11.1.149.086a1.8,1.8,0,0,1,2.2,1.157c0,.01.016.018-.011-.012.317,0,.6-.023.878,0a1.736,1.736,0,0,1,1.484,1.523c.034.478.033.959.032,1.439,0,1,.022,2-.029,3a4.378,4.378,0,0,1-3.261,3.933,5.548,5.548,0,0,1-1.236.156c-1.239.02-2.478.01-3.717.007a4.407,4.407,0,0,1-4.28-3.075,4.957,4.957,0,0,1-.217-1.4c-.031-1.093-.017-2.187-.008-3.281a1.79,1.79,0,0,1,1.935-1.842c.111.007.221.03.349.048v-.217q0-1.717,0-3.433a1.84,1.84,0,0,1,.453-1.291,1.718,1.718,0,0,1,1.712-.569,1.681,1.681,0,0,1,1.311,1.162,2.852,2.852,0,0,1,.111.725C-1765.809-1298.884-1765.823-1298.6-1765.823-1298.3Zm-3.592,7.1v-.219q0-1.185,0-2.371a.494.494,0,0,0-.317-.474.442.442,0,0,0-.494.085.532.532,0,0,0-.182.438c0,1.094,0,2.188,0,3.281a3.258,3.258,0,0,0,.067.658,3.139,3.139,0,0,0,3.119,2.51c1.258.007,2.516,0,3.774,0a3.362,3.362,0,0,0,.584-.052,3.148,3.148,0,0,0,2.609-3.189c0-1.214,0-2.428,0-3.642a1.146,1.146,0,0,0-.012-.189.51.51,0,0,0-.41-.418.42.42,0,0,0-.485.245c-.077.284-.263.244-.46.242-.253,0-.506,0-.759,0-.054,0-.107-.01-.17-.016,0-.093,0-.168,0-.244,0-.316,0-.632,0-.948a.47.47,0,0,0-.315-.434.4.4,0,0,0-.488.092.766.766,0,0,0-.177.416c-.024.37-.008.742-.008,1.123h-1.294v-.215c0-.657,0-1.315,0-1.973a.519.519,0,0,0-.507-.567.512.512,0,0,0-.485.566c0,.658,0,1.315,0,1.973v.216h-1.3v-.234q0-2.3,0-4.59a1.554,1.554,0,0,0-.015-.265.485.485,0,0,0-.747-.319.584.584,0,0,0-.236.545q0,3.86,0,7.719v.25Z" transform="translate(-35.306 -75.577)" fill="#162143"/>
    <path id="Path_1206" data-name="Path 1206" d="M-1761.23-1337.232h-1.277a2.648,2.648,0,0,0-1.465-2.353,2.6,2.6,0,0,0-2.022-.164,2.685,2.685,0,0,0-1.5,3.848l-1.093.622a3.879,3.879,0,0,1,.187-4.213,3.94,3.94,0,0,1,4.444-1.493A3.945,3.945,0,0,1-1761.23-1337.232Z" transform="translate(-37.751 -37.663)" fill="#f27366"/>
  </g>
</svg>
