<svg id="Layer_1" data-name="Layer 1" xmlns="http://www.w3.org/2000/svg" viewBox="0 0 236.31 236.38"><g id="Layer_2" data-name="Layer 2"><g id="Layer_1-2" data-name="Layer 1-2"><circle cx="128.7" cy="118.01" r="102.05" fill="#f07366" opacity="0.3" style="isolation:isolate"/><path d="M118,233.43A115.42,115.42,0,1,1,233.43,118,115.55,115.55,0,0,1,118,233.43Zm0-217.58A102.17,102.17,0,1,0,220.18,118,102.28,102.28,0,0,0,118,15.85Z" fill="#f07366"/><path d="M164.84,170.41,174.4,163C147.49,127.24,90.81,125.08,62,163l9.58,7.44c12.22-14.58,27.56-22.7,46.65-22.62S152.59,155.76,164.84,170.41Z" fill="#f07366"/><path d="M92.23,92.58a12.92,12.92,0,1,1,0-.73c0,.23,0,.46,0,.7Z" fill="#f07366"/><path d="M169.11,92.59a12.41,12.41,0,1,1-12.37-12.48A12.42,12.42,0,0,1,169.11,92.59Z" fill="#f07366"/></g></g></svg>