<svg id="Layer_1" data-name="Layer 1" xmlns="http://www.w3.org/2000/svg" viewBox="0 0 512 512"><path d="M270.91,64.2c7.74,1.22,15.53,2.19,23.21,3.7C370.24,83,431.21,145.31,444.67,221.73,462.5,323,400,419.17,300.08,442.59,192.72,467.75,91.52,399,68.8,297.65c-1.74-7.76-2.56-15.73-3.83-23.6-.17-1.08-.45-2.14-.67-3.21V240.15c1.23-7.74,2.23-15.52,3.74-23.21,14.59-74.15,74.87-134.43,149-149,7.67-1.51,15.45-2.51,23.18-3.74ZM435.6,255.81c0-98.9-80.58-179.53-179.44-179.63-99.05-.11-179.84,80.53-179.88,179.55s80.6,179.81,179.62,179.83S435.63,354.84,435.6,255.81Z" fill="#122230"/><path d="M435.6,255.81c0,99-80.69,179.77-179.7,179.75S76.23,354.8,76.28,255.73,157.11,76.07,256.16,76.18C355,76.28,435.57,156.91,435.6,255.81Zm-27.55-9.55c-.13-23.7-9.95-53.74-29.54-80.56-4.05-5.55-7.22-5.76-12.15-.83q-100.8,100.82-201.6,201.65c-4.71,4.71-4.48,7.94,1,11.87,34.9,25.21,73.71,34.71,116.06,27.27C355.49,392.72,407.9,330.09,408.05,246.26ZM256.54,103.68l-.16-.94c-11.45,1.6-23.07,2.42-34.31,4.93C115.7,131.4,68.57,258.26,133.35,346c4.09,5.54,7.23,5.78,12.15.87Q246.18,246.21,346.85,145.51c5.07-5.07,4.82-8.17-1-12.39A150.17,150.17,0,0,0,256.54,103.68Z" fill="#f27366"/><path d="M408.05,246.26c-.15,83.83-52.56,146.46-126.27,159.4-42.35,7.44-81.16-2.06-116.06-27.27-5.44-3.93-5.67-7.16-1-11.87q100.78-100.83,201.6-201.65c4.93-4.93,8.1-4.72,12.15.83C398.1,192.52,407.92,222.56,408.05,246.26ZM265,283.58c7,3.43,13.4,6.8,20,9.72,1.18.52,3.65-.39,4.73-1.44a120,120,0,0,0,8.11-9.3c3.76-4.52,8.54-6,14.07-4.42a43.15,43.15,0,0,1,9.3,3.76,83.38,83.38,0,0,1,25.22,22,105.28,105.28,0,0,1,12.05,19.61c3.32,7.08,1.08,12.35-5.31,16.72-7.3,5-14.46,10.24-22,14.91a28.7,28.7,0,0,1-11,4.21c-10,1.35-19.19-2.3-28-6.51-19.95-9.56-37.42-22.81-54.25-37-1-.85-2-1.68-2.68-2.22l-58,58c46,33.62,123.17,36.33,176.26-15.33,52.92-51.49,53.47-129.69,17.58-179.79Zm72,53.27-37.55-37.66c-4.52,6.69-11.16,8.06-18.8,5.43A65.44,65.44,0,0,1,270,299.93c-4.54-2.52-8.84-5.46-12.8-7.94L244,305.28c.3.23.87.7,1.47,1.14,12.61,9.33,24.83,19.27,38,27.77,8.25,5.33,17.79,8.78,27,12.49,4.24,1.71,9.06,2,13.31-.83C328.26,342.79,332.77,339.68,336.92,336.85Zm-27-47,37.22,37.21C345.47,316.59,318.68,290,309.91,289.89Z" fill="#122230"/><path d="M256.54,103.68a150.17,150.17,0,0,1,89.34,29.44c5.79,4.22,6,7.32,1,12.39Q246.19,246.21,145.5,346.89c-4.92,4.91-8.06,4.67-12.15-.87C68.57,258.26,115.7,131.4,222.07,107.67c11.24-2.51,22.86-3.33,34.31-4.93ZM334.44,140c-49.89-35.68-129.63-34.83-181.24,20.68-49.3,53-46,128.68-13.11,173.63l57.43-57.41c-8.64-11.7-17.75-23.4-26.14-35.61-8.13-11.83-15.24-24.31-18.34-38.59-1.6-7.4-1.54-14.64,2.94-21.22q8.22-12.06,16.48-24.08c3-4.4,7.27-6.24,12.32-5a43.46,43.46,0,0,1,11.37,4.48,96.29,96.29,0,0,1,32.21,31.23,48.41,48.41,0,0,1,5.38,12.22c1.55,5.18,0,9.84-4.25,13.44-3.13,2.66-6.17,5.46-9.4,8-2,1.56-2.67,3.36-1.61,5.53,3.13,6.42,6.4,12.77,9.59,19.08C264,210.38,299.25,175.15,334.44,140ZM212.61,212.27l-37.49-37.6c-1.93,2.82-3.75,6.14-6.19,8.92-5.52,6.28-5.7,13.09-3.2,20.59,5.15,15.46,14,28.85,23.43,41.84,5.55,7.62,11.59,14.87,17.11,21.89l13.13-13.07c-3.77-7-8.15-14-11.39-21.5C204.32,224.78,204.82,218.54,212.61,212.27Zm9.25-10c-2.2-11.48-26.68-35.95-37.62-37.58Z" fill="#122230"/><path d="M265,283.58l106.23-107.1c35.89,50.1,35.34,128.3-17.58,179.79-53.09,51.66-130.22,49-176.26,15.33l58-58c.66.54,1.68,1.37,2.68,2.22,16.83,14.17,34.3,27.42,54.25,37,8.8,4.21,18,7.86,28,6.51a28.7,28.7,0,0,0,11-4.21c7.51-4.67,14.67-9.9,22-14.91,6.39-4.37,8.63-9.64,5.31-16.72a105.28,105.28,0,0,0-12.05-19.61,83.38,83.38,0,0,0-25.22-22,43.15,43.15,0,0,0-9.3-3.76c-5.53-1.58-10.31-.1-14.07,4.42a120,120,0,0,1-8.11,9.3c-1.08,1.05-3.55,2-4.73,1.44C278.36,290.38,271.91,287,265,283.58Z" fill="#fff"/><path d="M336.92,336.85c-4.15,2.83-8.66,5.94-13.21,9-4.25,2.87-9.07,2.54-13.31.83-9.19-3.71-18.73-7.16-27-12.49-13.15-8.5-25.37-18.44-38-27.77-.6-.44-1.17-.91-1.47-1.14L257.22,292c4,2.48,8.26,5.42,12.8,7.94a65.44,65.44,0,0,0,10.55,4.69c7.64,2.63,14.28,1.26,18.8-5.43Z" fill="#2ba5dd"/><path d="M309.91,289.89c8.77.07,35.56,26.7,37.22,37.21Z" fill="#fff"/><path d="M334.44,140c-35.19,35.2-70.43,70.43-106.37,106.39-3.19-6.31-6.46-12.66-9.59-19.08-1.06-2.17-.38-4,1.61-5.53,3.23-2.53,6.27-5.33,9.4-8,4.24-3.6,5.8-8.26,4.25-13.44a48.41,48.41,0,0,0-5.38-12.22,96.29,96.29,0,0,0-32.21-31.23,43.46,43.46,0,0,0-11.37-4.48c-5.05-1.26-9.31.58-12.32,5q-8.24,12-16.48,24.08c-4.48,6.58-4.54,13.82-2.94,21.22,3.1,14.28,10.21,26.76,18.34,38.59,8.39,12.21,17.5,23.91,26.14,35.61l-57.43,57.41c-32.93-44.95-36.19-120.62,13.11-173.63C204.81,105.12,284.55,104.27,334.44,140Z" fill="#fff"/><path d="M212.61,212.27c-7.79,6.27-8.29,12.51-4.6,21.07,3.24,7.49,7.62,14.48,11.39,21.5l-13.13,13.07c-5.52-7-11.56-14.27-17.11-21.89-9.46-13-18.28-26.38-23.43-41.84-2.5-7.5-2.32-14.31,3.2-20.59,2.44-2.78,4.26-6.1,6.19-8.92Z" fill="#2ba5dd"/><path d="M221.86,202.26l-37.62-37.58C195.18,166.31,219.66,190.78,221.86,202.26Z" fill="#fff"/></svg>