<svg id="Layer_1" data-name="Layer 1" xmlns="http://www.w3.org/2000/svg" viewBox="0 0 35.93 41.92"><g id="Layer_2" data-name="Layer 2"><g id="Layer_1-2" data-name="Layer 1-2"><path d="M35.59,21V37a4.33,4.33,0,0,1-3.27,4.35,5.31,5.31,0,0,1-1.26.16H4.9A4.42,4.42,0,0,1,.34,37.28V5A4.42,4.42,0,0,1,4.61.39H31.05A4.38,4.38,0,0,1,35.59,4.6a1.93,1.93,0,0,1,0,.34C35.6,10.29,35.59,15.65,35.59,21Zm-2.94,0V5.07A1.51,1.51,0,0,0,31.4,3.34a1.29,1.29,0,0,0-.48,0H5A1.5,1.5,0,0,0,3.28,4.6a1.77,1.77,0,0,0,0,.46v31.8a1.52,1.52,0,0,0,1.26,1.73,1.77,1.77,0,0,0,.46,0H30.93c1.19,0,1.73-.55,1.73-1.75Z" fill="#162143"/><path d="M32.66,21V36.84c0,1.2-.54,1.75-1.73,1.75H5a1.5,1.5,0,0,1-1.72-1.27,1.77,1.77,0,0,1,0-.46V5.06A1.5,1.5,0,0,1,4.53,3.34a1.77,1.77,0,0,1,.46,0H30.92a1.51,1.51,0,0,1,1.74,1.24,2,2,0,0,1,0,.49ZM18,10.7H13a1.47,1.47,0,1,0,0,2.94H23a1.47,1.47,0,1,0,0-2.94Z" fill="#FFFFFF"/><path d="M18,10.68h5a1.47,1.47,0,1,1,0,2.94H13a1.47,1.47,0,1,1,0-2.94Z" fill="#f27366"/><path d="M18,19.13h5a1.47,1.47,0,1,1,0,2.94H13a1.47,1.47,0,1,1,0-2.94Z" fill="#2ca9e1"/><path d="M18,27.58h5a1.48,1.48,0,1,1,0,3H13a1.48,1.48,0,1,1,0-3Z" fill="#f27366"/></g></g></svg>