<svg id="Layer_1" data-name="Layer 1" xmlns="http://www.w3.org/2000/svg" viewBox="0 0 512 512"><path d="M248,496.1a70.8,70.8,0,0,1-25.6-8.9A73.8,73.8,0,0,1,205,474.5c-8.6-8.8-14.4-19.8-17.8-32.5-.1-.6-.1-1.2-.2-2.1H325a61.5,61.5,0,0,1-9.5,23.4,82.6,82.6,0,0,1-22.3,22.2C286.4,489.8,269.3,498.9,248,496.1Z" fill="#2ba5dd"/><path d="M463.8,378a45.4,45.4,0,0,0-7.1-20.9,69.9,69.9,0,0,0-12.1-13.8c-23.5-21.2-35.8-46.1-37.7-76.2-.8-12.8-.7-25.8-.7-38.4,0-6.8,0-14.5-.1-21.9v-.5a169.9,169.9,0,0,0-1.5-24.2c-9.3-59.7-51.2-106.7-109.3-122.6l-4.8-1.3v-5c0-1.6-.1-3.1-.1-4.6A34.3,34.3,0,0,0,256,15.4h-.3a34.3,34.3,0,0,0-33.9,33.2l-.2,9.5-4.8,1.3a148.2,148.2,0,0,0-74.3,46.8c-22.8,26.4-35.8,59.7-36.4,93.7-.2,12.7-.2,25.4-.2,37.7,0,6.3.1,12.5,0,18.7,0,21.9-5.1,41.3-15.6,59.3a116.9,116.9,0,0,1-24.2,29.1c-15.1,13-20.9,29.7-16.9,48.5,5.1,23.7,24.2,38.4,49.9,38.4H414c14.8-.1,28.1-5.7,37.4-15.9S465,392.3,463.8,378Zm-34.6,17.3c-3.6,4-8.9,6.2-15.3,6.2H99.1c-15,0-19.2-9.2-20.4-14.6-1.7-7.9.4-13.7,7.1-19.4a145.9,145.9,0,0,0,30.5-36.7c13-22.3,19.7-47.4,19.8-74.5,0-6.2,0-12.4-.1-18.6v-.2a157.1,157.1,0,0,1,.2-37c1.8-14.3,6.2-49.6,34.1-79.3,10-10.8,40.5-39.2,86.8-39s77.8,30.2,87.7,41.3c6.8,7.6,24.8,30.1,30,63.3,1,6.2,1.1,13.1,1.2,19.7v.8c.1,7,.1,14.2.1,21.2-.1,12.5-.1,26.6.7,40.5,2.4,37.8,18.4,70.4,47.7,96.7,6.2,5.6,8.9,9.9,9.3,14.8S432.7,391.6,429.2,395.3Z" fill="#162143"/><path d="M429.2,395.3c-3.6,4-8.9,6.2-15.3,6.2H99.1c-15,0-19.2-9.2-20.4-14.6-1.7-7.9.4-13.7,7.1-19.4a145.9,145.9,0,0,0,30.5-36.7c13-22.3,19.7-47.4,19.8-74.5,0-6.2,0-12.4-.1-18.6v-.2a157.1,157.1,0,0,1,.2-37c1.8-14.3,6.2-49.6,34.1-79.3,10-10.8,40.5-39.2,86.8-39s77.8,30.2,87.7,41.3c6.8,7.6,24.8,30.1,30,63.3,1,6.2,1.1,13.1,1.2,19.7v.8c.1,7,.1,14.2.1,21.2-.1,12.5-.1,26.6.7,40.5,2.4,37.8,18.4,70.4,47.7,96.7,6.2,5.6,8.9,9.9,9.3,14.8S432.7,391.6,429.2,395.3Z" fill="#fff"/><path d="M256,29h0a20,20,0,0,1,20,20v3.5a6.5,6.5,0,0,1-6.5,6.5h-27a6.5,6.5,0,0,1-6.5-6.5V49a20,20,0,0,1,20-20Z" fill="#f27366"/></svg>