<svg id="Layer_1" data-name="Layer 1" xmlns="http://www.w3.org/2000/svg" viewBox="0 0 512 512"><path d="M256.8,350.2c-57.5,0-115,.1-172.5,0-27.5,0-48.1-20.5-48.1-48q-.2-93.1,0-186.3c0-27.5,20.5-48.1,47.9-48.1H365c27.2,0,47.8,20.6,47.8,47.7.1,39.7,0,79.5,0,119.2-10.3-3.7-20.6-7.3-31.4-9.1V120.3l-4.4,4c-39.9,35.8-79.7,71.8-119.6,107.5-20.3,18.2-45.8,18-65.9-.1L71.2,123.5c-1-.9-1.7-2.3-3.6-2.3V300.3c0,12.6,5.9,18.5,18.5,18.5H256.8A137.4,137.4,0,0,0,256.8,350.2Zm101-250.8H91.9l1.2,1.5L213.6,209.4c7,6.2,15,6.1,22.1-.3Z" fill="#162143"/><path d="M256.8,350.2a137.4,137.4,0,0,1,0-31.4l.9-3.8c8.8-42.4,33.8-70.7,74.5-85,15.9-5.7,32.5-6.4,49.2-4.4,10.8,1.8,21.1,5.4,31.4,9.1,8.5,5.3,17.5,10,25,16.9,33.3,31.1,45.8,69,33.3,112.8s-41.7,69.6-85.7,78c-60.2,11.4-117.4-28.9-127.7-88.9C257.5,352.4,257.1,351.3,256.8,350.2Zm187.4-15.4c-.1-43.8-34.6-78.2-77.7-78.7a78.3,78.3,0,0,0-79.2,78.8c0,42.9,35.3,78,78.5,78.1S444.2,377.7,444.2,334.8Z" fill="#f27366"/><path d="M381.4,225.6c-16.7-2-33.3-1.3-49.2,4.4-40.7,14.3-65.7,42.6-74.5,85l-.9,3.8H86.1c-12.6,0-18.5-5.9-18.5-18.5V121.2c1.9,0,2.6,1.4,3.6,2.3L191.5,231.7c20.1,18.1,45.6,18.3,65.9.1,39.9-35.7,79.7-71.7,119.6-107.5l4.4-4Z" fill="#fefefe"/><path d="M381.5,341.2v23.7c-.1,9.6-6.7,16.6-15.5,16.7s-15.9-7-15.9-16.8c-.1-7.5,0-15,0-22.9-2.2.7-3.2,2.5-4.6,3.7-6.7,6-16,5.9-22.1-.2a15.4,15.4,0,0,1,.1-22q15.5-16,31.5-31.5c6.2-6.1,15.3-6.1,21.6,0q15.9,15.5,31.5,31.5a15.5,15.5,0,0,1,0,22c-6.1,6.1-15.5,6.1-22.1.1Z" fill="#f27366"/></svg>