<svg id="Layer_1" data-name="Layer 1" xmlns="http://www.w3.org/2000/svg" viewBox="0 0 305.1 303.3"><g id="Layer_2" data-name="Layer 2"><g id="Layer_1-2" data-name="Layer 1-2"><path d="M14.2,25.5a9.3,9.3,0,0,1,5-2.6,36.6,36.6,0,0,1,7.4-1H74.7c8.8,0,12.6,3.3,14,11.9,3.9,24.7,7.7,49.3,11.8,74a16.5,16.5,0,0,1-2.7,12.4c-5.9,9-11.6,18.2-17.4,27.2-3.4,5.4-3.3,10.7-.1,16.1a174,174,0,0,0,60,59.7c5,3,10.2,3.2,15.2,0q14-8.7,27.9-17.7a16.5,16.5,0,0,1,12.4-2.7l73.6,11.8c8.9,1.5,12.1,5.2,12.1,14.3v49.8c0,7.8-2.6,11.4-10,13.7-33.4,10.1-66.8,8.5-100-1.5-42.9-12.8-78.6-37-108.5-70.1C36.8,191.6,18.3,158.4,9.3,120.2,2.3,90.7,2,61.3,11,32.1c.3-1.1.7-2.1,1.1-3.2a10.8,10.8,0,0,1,2.1-3.4Z" fill="#fff"/><path d="M253.6,79l-3.7,3.5q-29.6,28.4-56.4,59.3c-8.8,10.2-25,9.7-32.5-1.4l-.7-1a20.9,20.9,0,0,1-2.2-16.2,18.8,18.8,0,0,1,5.1-8.7L224.7,52,190,17.4l.5-1L301,4.1q-6.2,55.4-12.2,110.1Z" fill="#fff"/></g></g></svg>