<svg id="Layer_1" data-name="Layer 1" xmlns="http://www.w3.org/2000/svg" viewBox="0 0 305.13 303.33"><g id="Layer_2" data-name="Layer 2"><g id="Layer_1-2" data-name="Layer 1-2"><path d="M14.19,25.54a9.48,9.48,0,0,1,5-2.65,43,43,0,0,1,7.43-1c16-.14,32-.05,48.05,0,8.83,0,12.65,3.29,14,11.9,3.89,24.67,7.78,49.35,11.83,74a16.4,16.4,0,0,1-2.67,12.37c-5.93,9-11.58,18.19-17.39,27.24-3.46,5.38-3.37,10.7-.1,16.08a174.41,174.41,0,0,0,60,59.76c5,3,10.12,3.12,15.13,0,9.32-5.89,18.67-11.73,27.88-17.78a16.51,16.51,0,0,1,12.4-2.63c24.54,4,49.1,7.86,73.64,11.8,8.95,1.43,12.06,5.15,12.07,14.24q0,24.93.08,49.87c0,7.78-2.61,11.34-10,13.61-33.48,10.18-66.86,8.54-100-1.41-42.91-12.87-78.68-37-108.52-70.16C36.85,191.65,18.31,158.4,9.28,120.18,2.32,90.71,2,61.31,11,32.11c.33-1.09.72-2.15,1.11-3.22a9.5,9.5,0,0,1,2.12-3.35Z" fill="#162143"/><path d="M253.56,79c-1.23,1.16-2.45,2.33-3.66,3.49q-29.57,28.35-56.4,59.35c-8.78,10.14-25,9.69-32.52-1.42-.23-.34-.45-.69-.67-1a21.13,21.13,0,0,1-2.25-16.23,19.55,19.55,0,0,1,5.11-8.67L224.66,52,190,17.42l.5-1L301,4.13q-6.14,55.3-12.21,110.1Z" fill="#73af4f"/></g></g></svg>