<svg id="Layer_1" data-name="Layer 1" xmlns="http://www.w3.org/2000/svg" viewBox="0 0 512 512"><circle cx="256" cy="256" r="240" fill="#fff"/><path id="path3" d="M288.21,181.46v50.63l17.69,11.14a4.38,4.38,0,0,0,1.94,0L384,191.89c0-6.07-5.67-10.43-8.86-10.43Z" fill="#0072c6"/><path id="path5" d="M288.21,251l16.14,11.09c2.28,1.67,5,0,5,0-2.73,1.67,74.63-49.71,74.63-49.71v93.05c0,10.13-6.48,14.38-13.77,14.38h-82V251Z" fill="#0072c6"/><g id="g23"><path id="path25" d="M204.6,227.64q-8.25,0-13.12,7.75t-4.86,20.5q0,12.94,4.86,20.47t12.73,7.53q8.13,0,12.88-7.32t4.77-20.32q0-13.55-4.62-21.09T204.6,227.64Z" fill="#0072c6"/><path id="path27" d="M128,155.75V353.82l150.68,31.6V126.58ZM228.83,288.27q-9.56,12.57-24.92,12.58-15,0-24.4-12.18t-9.43-31.75q0-20.67,9.58-33.42T205,210.73q14.92,0,24.13,12.21t9.22,32.21Q238.38,275.7,228.83,288.27Z" fill="#0072c6"/></g></svg>