<svg id="Layer_1" data-name="Layer 1" xmlns="http://www.w3.org/2000/svg" viewBox="0 0 512 512"><path d="M460.29,211.37c0,96.3-50.77,182.25-132.51,224.31C288.28,456,267,460.29,256,460.29s-32.28-4.28-71.78-24.61c-81.74-42.06-132.51-128-132.51-224.31A1107.07,1107.07,0,0,1,58.88,86c.64-5.43,3.52-18.39,16.7-21.3,26.87-5.94,80-13,180.42-13s153.55,7.09,180.42,13c13.18,2.91,16.06,15.87,16.7,21.3A1106.92,1106.92,0,0,1,460.29,211.37Z" fill="#fff"/><path d="M490.58,81.71c-3.2-27.62-20.83-48.22-46-53.8C415.86,21.56,359.84,14,256,14S96.14,21.56,67.43,27.91A56.89,56.89,0,0,0,36.19,46.54c-8,9.3-13.17,21.36-14.77,35.17A1143.53,1143.53,0,0,0,14,211.37,298.5,298.5,0,0,0,54.35,361.9,277.71,277.71,0,0,0,167,469.21C204.58,488.58,233.71,498,256,498s51.42-9.42,89.05-28.79A277.71,277.71,0,0,0,457.65,361.9,298.5,298.5,0,0,0,498,211.37,1143.22,1143.22,0,0,0,490.58,81.71ZM256,460.29c-10.95,0-32.28-4.28-71.78-24.61-81.74-42.06-132.51-128-132.51-224.31A1107.07,1107.07,0,0,1,58.88,86c.64-5.43,3.52-18.39,16.7-21.3,26.87-5.94,80-13,180.42-13s153.55,7.09,180.42,13c13.18,2.91,16.06,15.87,16.7,21.3a1106.92,1106.92,0,0,1,7.17,125.33c0,96.3-50.77,182.25-132.51,224.31C288.28,456,267,460.29,256,460.29Z" fill="#162143"/><path d="M247.33,317.82q20.8,0,30.07-7.28Q287,303.25,287,292.7a18.59,18.59,0,0,0-7.33-15.29q-7.32-5.82-22-10.19l-21.2-6.55A264.73,264.73,0,0,1,208,250.48a83,83,0,0,1-21.59-13.1,54.71,54.71,0,0,1-13.88-18.2q-5-10.56-5-25.12,0-24.75,16.2-41.12T230,131.1V117.8c0-9.06,6.23-17.14,15.27-17.78,2.12-.15,4.24-.22,6.33-.22q14.26,0,20.43,4.73,6.56,4.73,6.56,17.1v8q24.68,2.55,40.09,11.28,15.44,8.39,15.43,22.21a24.57,24.57,0,0,1-3.8,13c-4.78,7.74-15.44,7.24-24,4.09q-4.77-1.76-10.4-3.25a111.74,111.74,0,0,0-32-4.37q-19.27,0-28.91,6.19-9.26,5.82-9.26,15.28a14.89,14.89,0,0,0,6.17,12.38q6.56,4.73,19.67,8.74l21.59,6.18q34.69,10.2,53.2,26.94,18.9,16.74,18.9,45.13,0,25.11-17,42.58-17,17.12-49.73,22.93v12.94c0,9.06-6.23,17.13-15.27,17.77-2.12.15-4.24.23-6.33.23q-14.26,0-20.82-4.73Q230,380.43,230,368v-7.28q-28.14-2.91-45.88-12.74-17.34-10.18-17.35-25.47a24.53,24.53,0,0,1,6.9-16.79c6-6.54,16-5,23.75-.67a134.75,134.75,0,0,0,13.69,6.54Q226.89,317.81,247.33,317.82Z" fill="#f27366"/></svg>