<svg id="Layer_1" data-name="Layer 1" xmlns="http://www.w3.org/2000/svg" viewBox="0 0 512 512"><path d="M306.77,6,263.38,49.4c-15.71,15.7-16.52,39.95-4,57.45l-78.8,78.81a13.83,13.83,0,0,0-2.39,3.58c-38.31-15.91-85.57-8.91-115.79,21.28L36.89,236.05,145.82,345,10.4,480.41a15,15,0,1,0,21.16,21.16L167,366.15l108.94,108.9,25.53-25.53a104.32,104.32,0,0,0,21.9-115.75,16.59,16.59,0,0,0,2.13-1.44l79.69-79.7c7.79,5.54,16.55,9.13,25.68,9.13a44.83,44.83,0,0,0,31.76-13.14L506,205.22ZM280.28,428.36l-4.36,4.37L79.21,236.05l4.37-4.37c28.28-28.31,77.56-28.31,105.82,0l90.88,90.89a74.8,74.8,0,0,1,0,105.79Zm26.88-120c-1.94-2.28-3.56-4.79-5.71-6.92l-90.89-90.89a33.91,33.91,0,0,0-4.06-3.37l-.53-.4c-.79-.59-1.57-1.18-2.32-1.82L279.54,129,383,232.49Zm134.29-80.87a15,15,0,0,1-21.16,0l-5.42-5.41c-.06-.06-.06-.12-.12-.18s-.12,0-.15-.09L290.28,97.46c-.06-.06-.09-.15-.14-.21a1.2,1.2,0,0,0-.21-.12l-5.39-5.39a15,15,0,0,1,0-21.19l22.23-22.2L463.68,205.22Z" fill="#162143" fill-rule="evenodd"/><path d="M463.68,205.22l-22.23,22.24a15,15,0,0,1-21.16,0l-5.42-5.41c-.06-.06-.06-.12-.12-.18s-.12,0-.15-.09L290.28,97.46c-.06-.06-.09-.15-.14-.21a1.2,1.2,0,0,0-.21-.12l-5.39-5.39a15,15,0,0,1,0-21.19l22.23-22.2Z" fill="#f27366" fill-rule="evenodd"/><path d="M383,232.49l-75.84,75.84c-1.94-2.28-3.56-4.79-5.71-6.92l-90.89-90.89a33.91,33.91,0,0,0-4.06-3.37l-.53-.4c-.79-.59-1.57-1.18-2.32-1.82L279.54,129Z" fill="#fff" fill-rule="evenodd"/><path d="M302.19,375.45a74.26,74.26,0,0,1-21.91,52.91l-4.36,4.37L79.21,236.05l4.37-4.37c28.28-28.31,77.56-28.31,105.82,0l90.88,90.89A74.27,74.27,0,0,1,302.19,375.45Z" fill="#f27366" fill-rule="evenodd"/></svg>