<svg id="Layer_1" data-name="Layer 1" xmlns="http://www.w3.org/2000/svg" viewBox="0 0 287.11 194.93"><g id="Layer_2" data-name="Layer 2"><g id="Layer_1-2" data-name="Layer 1-2"><path d="M152.8,191.49a127.5,127.5,0,0,1-25.24-.58C74.23,184.08,33.28,156.64,6.5,106.37,3.08,99.94,3.09,94.43,6.48,88,31.6,40.17,70.59,11.27,124.1,4,190.3-4.9,253.45,30.81,281.82,91.57a12.19,12.19,0,0,1,0,11.15q-36,73.56-116.71,87.43C161.11,190.83,157.05,191.18,152.8,191.49Zm-7.68-166c-5.58.38-9.35.49-13.08.9-45.25,5-79.13,27.47-102,66.79-1.65,2.83-1.57,5,0,7.92,25.15,45.93,78,74.29,131.43,65.93,42.8-6.7,74.64-29.46,95.79-67.25a4.79,4.79,0,0,0,0-5.33C232.09,50.33,193.76,28,145.12,25.51Z" fill="#162143"/><path d="M143.43,49.13A48,48,0,1,1,95.29,97v-.17A48.16,48.16,0,0,1,143.43,49.13Zm-.19,23.34c-13.25,0-24.59,11.38-24.64,24.63S130,122,143.42,121.91,168,110.52,168.05,97.27a25.14,25.14,0,0,0-24.81-24.83Z" fill="#f27366"/><path d="M143.24,72.44a24.72,24.72,0,0,1,.18,49.44c-13.39,0-24.86-11.42-24.82-24.81S130,72.49,143.24,72.44Z" fill="#fff"/></g></g></svg>