<svg id="Layer_1" data-name="Layer 1" xmlns="http://www.w3.org/2000/svg" viewBox="0 0 512 512"><path d="M458.66,247.69c-41.63-89-134.15-141.38-231.18-128.28a239.49,239.49,0,0,0-57.37,14.84l26.8,26.8a217.18,217.18,0,0,1,42.22-8.85c5.46-.61,11-.76,19.16-1.31,71.29,3.64,127.47,36.3,164.33,101.07a7,7,0,0,1,0,7.82q-23.7,42.35-59.67,67.33l24.4,24.4q44.25-32.25,71.3-87.48A17.91,17.91,0,0,0,458.66,247.69ZM350.89,334.75l-.18.1,24.75,24.75.17-.11ZM156.43,140.29l-.19.09,26,26,.2-.08Z" fill="#162143"/><path d="M255.81,185.5a69.8,69.8,0,0,0-28.46,6l28.18,28.18C275.18,219.6,292,236.38,291.9,256v0l28.19,28.19a69.2,69.2,0,0,0,6-27.92A70.59,70.59,0,0,0,255.81,185.5ZM288,271.86a1.62,1.62,0,0,1-.1.18l24.89,24.89.12-.16Zm-25.69,19.61-.55.1-.87.15c-.66.1-1.33.19-2,.25L258,292l-.92,0c-.42,0-.85,0-1.28,0-19.63.07-36.43-16.73-36.37-36.36q0-.64,0-1.29c0-.3,0-.61,0-.91s0-.58.07-.87,0-.51.08-.77c.05-.42.1-.84.17-1.26s.09-.59.15-.88.06-.36.1-.54q.21-1.06.48-2.1l-26.05-26c-.26.45-.52.91-.76,1.37a66.49,66.49,0,0,0-3.34,7c-.2.48-.4,1-.58,1.45-.06.17-.13.34-.18.51-.19.47-.36.94-.52,1.41-.1.27-.19.54-.28.82-.16.47-.31.94-.46,1.41l-.12.4c-.17.54-.33,1.09-.48,1.64-.07.24-.13.48-.19.72-.12.42-.23.84-.33,1.27-.07.27-.13.54-.2.82-.12.51-.23,1-.34,1.56,0,.21-.09.42-.12.62-.08.37-.16.75-.22,1.13s-.15.79-.21,1.19-.11.7-.16,1.05-.1.67-.15,1c-.08.64-.16,1.28-.23,1.92,0,.05,0,.09,0,.14-.06.6-.12,1.2-.16,1.8-.07.92-.13,1.85-.16,2.78,0,.77-.05,1.55-.05,2.33a70.61,70.61,0,0,0,70.25,70.82h.12c.79,0,1.57,0,2.35,0s1.82-.08,2.72-.15c.62,0,1.24-.09,1.85-.15l.61-.07c.47-.05.94-.1,1.41-.17s.95-.12,1.42-.2c.21,0,.41-.05.62-.09.51-.07,1-.16,1.51-.26.29,0,.58-.1.87-.16s.57-.1.85-.17c.54-.11,1.08-.22,1.61-.36l.54-.12c.56-.13,1.11-.27,1.66-.42l.4-.11c.5-.13,1-.27,1.48-.42s.67-.19,1-.3c.63-.19,1.25-.4,1.87-.62s1.11-.38,1.66-.59l.36-.13c.68-.26,1.35-.53,2-.81s1.42-.59,2.11-.91,1.32-.61,2-.93c1.29-.63,2.56-1.3,3.8-2l.13-.07-26-26Q263.38,291.26,262.31,291.47ZM239.7,223.56l-24.89-24.89-.16.12,24.87,24.87Z" fill="#f27366"/><path d="M220.56,247.14,264.41,291q-1,.27-2.1.48l-.55.1-.87.15c-.66.1-1.33.19-2,.25L258,292l-.92,0c-.43,0-.85,0-1.28,0-19.63.07-36.43-16.73-36.37-36.36q0-.64,0-1.29c0-.3,0-.61,0-.91s0-.58.07-.87,0-.51.08-.77c.05-.42.1-.84.17-1.26s.09-.59.15-.88.06-.36.1-.54Q220.29,248.18,220.56,247.14Z" fill="#fff"/><path d="M288,271.86a1.62,1.62,0,0,1-.1.18l-48.38-48.38.18-.1Z" fill="#fff"/><path d="M291.9,256v0l-36.37-36.37C275.18,219.6,292,236.38,291.9,256Z" fill="#fff"/><path d="M375.46,359.6,182.26,166.4l-26-26L103.11,87.25a15,15,0,0,0-21.22,0h0a15,15,0,0,0,0,21.22L129.41,156c-30.39,20.9-55.12,49.9-74.32,86.43-5,9.47-5,17.56,0,27C98,349.8,165.48,390.33,254.32,395.29c12.07-1.08,22.81-1.29,33.27-3.1a254.11,254.11,0,0,0,60.16-17.86l50.42,50.42a15,15,0,0,0,21.22,0h0a15,15,0,0,0,0-21.22Zm-93.21-1.26C204,370.58,126.51,329,89.66,261.71c-2.31-4.22-2.42-7.47,0-11.63q25.86-44.49,64.65-69.19l40.2,40.2,26.05,26L264.41,291l57.32,57.32A210.12,210.12,0,0,1,282.25,358.34Z" fill="#162143"/></svg>