<svg id="Layer_1" data-name="Layer 1" xmlns="http://www.w3.org/2000/svg" viewBox="0 0 512 512"><path d="M256.25,5.59q89.37,0,178.75,0c32.75,0,59.26,19.29,68.09,49.19,13.1,44.39-19.59,88.77-65.83,88.83q-181.29.21-362.57,0c-35.42,0-65.33-27.77-68.33-61.82C3,43.73,29.05,11.68,64.9,6.27a93.32,93.32,0,0,1,13.6-.66Q167.38,5.55,256.25,5.59Zm4.26,34.8q-44.92,0-89.87,0c-5.88,0-9.21,2.92-9.55,8.14-.27,4.11,3.17,8.06,8.08,8.85a43.56,43.56,0,0,0,7.05.21H347.38c8.29,0,11.68-2.67,11.65-9.11,0-6-2.93-8.1-11.17-8.1ZM221.19,92H170.72c-2,0-4-.14-5.65,1.48-2.64,2.57-5.07,5.28-3.59,9.24q2.45,6.54,9.72,6.52,50-.1,99.93,0c6.42,0,11-3.59,11-8.59s-4.52-8.6-11-8.61Q246.18,92,221.19,92ZM109.53,48.83c-.18-3.88-2-6.9-5.63-8.16-4.25-1.45-8-.24-10.55,3.64Q82.3,60.89,71.25,77.46c-2,2.91-3.74,7.71-6.15,8.09-3.18.49-5.27-4.38-8-6.7-.26-.21-.48-.47-.73-.7-4.52-4.23-9.76-4.52-13.34-.73-3.42,3.63-3.06,8.77,1.07,13q7.39,7.59,15,15c5.7,5.61,11,5.17,15.44-1.46Q90.92,79.5,107.19,54.88C108.41,53.06,109.54,51.18,109.53,48.83Z" fill="#cc2f46" opacity="0.5"/><path d="M234.61,187c53.19,0,106.38-.11,159.57,0a68,68,0,0,1,67,54.29c9.19,43.48-22.81,83.45-67.31,83.54-79.61.17-159.23.05-238.85.05-26.6,0-53.19.09-79.79,0-34.31-.15-61.48-22.91-68-56.77-7.9-40.85,23.79-80.64,65.3-81,54-.44,108.07-.11,162.1-.11Zm26,34.53q-44.43,0-88.85,0c-6.11,0-10.49,3.52-10.63,8.39-.14,5,4.38,8.75,10.75,8.81H347a30.06,30.06,0,0,0,4-.07c5.83-.75,9.17-5.2,7.83-10.7-1.18-4.85-4.67-6.49-9.46-6.48Q305,221.63,260.59,221.56Zm-39.32,68.85c17,0,34,0,50.94,0,6.85,0,10.5-4.44,9-10.8-1.27-5.27-5.4-6.39-10.09-6.39q-49.68,0-99.36,0c-6.1,0-10.47,3.53-10.61,8.42s4.38,8.77,10.73,8.78Q196.56,290.44,221.27,290.41ZM48.42,256.06a7.92,7.92,0,0,0-6.84,4.84,8.57,8.57,0,0,0,1.82,10.21c5.3,5.4,10.62,10.79,16,16.07,5.25,5.11,10.67,4.61,14.81-1.53q16.62-24.7,33-49.56c3.53-5.37,2.77-10.4-1.7-13.29-4.31-2.8-9.32-1.34-12.83,3.89Q81.91,242.83,71.19,259c-6.14,9.27-6.14,9.29-13.87,1.57C55,258.3,52.78,256,48.42,256.06Z" fill="#478ac9" opacity="0.5"/><path d="M213.08,506.33c-45.77,0-91.54.12-137.31,0C42.67,506.17,16,485.39,8.12,454-2.72,411,29.61,368.5,73.9,368.39q139.07-.34,278.15,0c36.82.07,67.14,30.58,67.6,67.25.48,38.31-28.17,69.24-65.73,70.53-13.95.49-27.93.16-41.89.17ZM260.55,420h80.27c3.53,0,7.07.12,10.6-.05a7.42,7.42,0,0,0,7.44-6.36c.78-4.07,0-7.66-4.41-9.66a15.86,15.86,0,0,0-6.87-1.15H172.41c-6.76,0-11.43,3.65-11.31,8.77s4.61,8.43,11.11,8.43ZM221.72,471.6c16.81,0,33.63-.28,50.43.15a9.36,9.36,0,0,0,9.71-8.16c.34-4.73-4-9.12-9.46-9.14q-50.68-.15-101.37,0c-5.73,0-10,4-9.94,8.64,0,5.45,3.67,8.5,10.2,8.51Q196.51,471.62,221.72,471.6Zm-155.44.12c3.94.19,6.25-2.09,8.21-5q16.2-24.39,32.43-48.77a21,21,0,0,0,1.72-3.07c1.79-3.93.72-7.3-2.4-10s-6.71-2.78-10.23-.47c-1.74,1.14-2.77,2.91-3.89,4.59-8.3,12.47-16.68,24.89-24.84,37.45-1.8,2.75-3,3.05-5.08.48a70.82,70.82,0,0,0-6.4-6.45c-4.19-3.9-8.95-4-12.56-.44s-3.48,8.55.41,12.58c5.26,5.45,10.69,10.74,16,16.12C61.53,470.6,63.64,471.84,66.28,471.72Z" fill="#34b880" opacity="0.5"/><path d="M260.51,40.39h87.35c8.24,0,11.14,2.11,11.17,8.1,0,6.44-3.36,9.11-11.65,9.11H176.22a43.56,43.56,0,0,1-7.05-.21c-4.91-.79-8.35-4.74-8.08-8.85.34-5.22,3.67-8.14,9.55-8.14Q215.58,40.37,260.51,40.39Z" fill="#a1203e"/><path d="M221.19,92q25,0,50,0c6.43,0,11,3.59,11,8.61s-4.55,8.59-11,8.59q-50,0-99.93,0-7.27,0-9.72-6.52c-1.48-4,1-6.67,3.59-9.24,1.66-1.62,3.64-1.48,5.65-1.48Z" fill="#a1203e"/><path d="M109.53,48.83c0,2.35-1.12,4.23-2.34,6.05Q90.85,79.45,74.46,104c-4.46,6.63-9.74,7.07-15.44,1.46q-7.56-7.44-15-15c-4.13-4.24-4.49-9.38-1.07-13,3.58-3.79,8.82-3.5,13.34.73.25.23.47.49.73.7,2.78,2.32,4.87,7.19,8,6.7,2.41-.38,4.2-5.18,6.15-8.09q11.09-16.54,22.1-33.15c2.59-3.88,6.3-5.09,10.55-3.64C107.58,41.93,109.35,45,109.53,48.83Z" fill="#fdf8f8"/><path d="M260.59,221.56q44.42,0,88.85,0c4.79,0,8.28,1.63,9.46,6.48,1.34,5.5-2,9.95-7.83,10.7a30.06,30.06,0,0,1-4,.07H171.86c-6.37-.06-10.89-3.76-10.75-8.81.14-4.87,4.52-8.39,10.63-8.39Q216.15,221.54,260.59,221.56Z" fill="#1f5d9c"/><path d="M221.27,290.41q-24.72,0-49.43,0c-6.35,0-10.87-3.75-10.73-8.78s4.51-8.42,10.61-8.42q49.68,0,99.36,0c4.69,0,8.82,1.12,10.09,6.39,1.54,6.36-2.11,10.77-9,10.8C255.23,290.46,238.25,290.41,221.27,290.41Z" fill="#1f5d9c"/><path d="M48.42,256.06c4.36,0,6.61,2.24,8.9,4.53,7.73,7.72,7.73,7.7,13.87-1.57q10.74-16.19,21.53-32.33c3.51-5.23,8.52-6.69,12.83-3.89,4.47,2.89,5.23,7.92,1.7,13.29q-16.4,24.84-33,49.56c-4.14,6.14-9.56,6.64-14.81,1.53-5.42-5.28-10.74-10.67-16-16.07a8.57,8.57,0,0,1-1.82-10.21A7.92,7.92,0,0,1,48.42,256.06Z" fill="#fafcfe"/><path d="M260.55,420H172.21c-6.5,0-11-3.44-11.11-8.43s4.55-8.77,11.31-8.77H347.58a15.86,15.86,0,0,1,6.87,1.15c4.38,2,5.19,5.59,4.41,9.66a7.42,7.42,0,0,1-7.44,6.36c-3.53.17-7.07.05-10.6.05Z" fill="#218f60"/><path d="M221.72,471.6q-25.22,0-50.43,0c-6.53,0-10.15-3.06-10.2-8.51,0-4.64,4.21-8.62,9.94-8.64q50.68-.13,101.37,0c5.45,0,9.8,4.41,9.46,9.14a9.36,9.36,0,0,1-9.71,8.16C255.35,471.32,238.53,471.6,221.72,471.6Z" fill="#218f60"/><path d="M66.28,471.72c-2.64.12-4.75-1.12-6.6-3-5.34-5.38-10.77-10.67-16-16.12-3.89-4-3.95-9.07-.41-12.58s8.37-3.46,12.56.44a70.82,70.82,0,0,1,6.4,6.45c2.13,2.57,3.28,2.27,5.08-.48,8.16-12.56,16.54-25,24.84-37.45,1.12-1.68,2.15-3.45,3.89-4.59,3.52-2.31,7-2.25,10.23.47s4.19,6,2.4,10a21,21,0,0,1-1.72,3.07Q90.71,442.3,74.49,466.68C72.53,469.63,70.22,471.91,66.28,471.72Z" fill="#fbfdfc"/></svg>