<svg id="Layer_1" data-name="Layer 1" xmlns="http://www.w3.org/2000/svg" viewBox="0 0 333.18 328.07"><g id="Layer_2" data-name="Layer 2"><g id="Layer_1-2" data-name="Layer 1-2"><path d="M238.42,4.35h51.51c21.75,0,36.77,15,36.79,36.69,0,30.81-.06,61.63,0,92.44A37.46,37.46,0,0,1,315.4,161Q241.24,236.18,167.23,311.5c-16.14,16.37-36.9,16.34-53.19.05Q66.22,263.72,18.45,215.9c-15.75-15.76-16-36.11-.64-52.24Q87.88,90.15,158,16.62c8-8.3,17.39-12.43,29-12.32C204.08,4.46,221.21,4.35,238.42,4.35Zm.05,23.42c-17.17,0-34.33.1-51.5-.06a15.54,15.54,0,0,0-12.24,5.16Q105.07,106.26,35.2,179.49c-6.56,6.88-6.51,13,.15,19.65l96.47,96.26c6.54,6.51,12.8,6.49,19.26-.07q15.76-16,31.47-32.08,57.81-59,115.64-117.86a16.93,16.93,0,0,0,5.22-12.69c-.14-30.44-.07-60.89-.08-91.34,0-9.12-4.51-13.58-13.72-13.59Z" fill="#fcac12"/><path d="M238.47,27.73h51.14c9.21,0,13.72,4.47,13.72,13.6,0,30.44-.06,60.89.08,91.33a16.93,16.93,0,0,1-5.22,12.69Q240.31,204.23,182.55,263.2l-31.47,32.08c-6.46,6.56-12.68,6.58-19.26.07L35.35,199.13c-6.66-6.65-6.71-12.77-.15-19.65L174.76,32.89A15.54,15.54,0,0,1,187,27.66C204.14,27.83,221.3,27.73,238.47,27.73Zm-26,55.44a35.27,35.27,0,0,0,34.56,35.67c18.1.35,33.4-14.53,33.74-32.82.38-19.92-14.64-35.61-34.38-35.94C227.36,49.76,212.79,64,212.49,83.17Z" fill="#fff"/><path d="M212.49,83.17c.3-19.19,14.87-33.41,33.91-33.09,19.75.33,34.77,16,34.39,35.94-.34,18.29-15.62,33.19-33.74,32.82A35.27,35.27,0,0,1,212.49,83.17Zm45.57,1.91A12,12,0,0,0,246.22,73h-.11c-6.09,0-10.46,4.5-10.41,10.73a12,12,0,0,0,12,11.71,10.12,10.12,0,0,0,10.39-9.85Z" fill="#fcac12"/><path d="M258.06,85.08a10.12,10.12,0,0,1-9.87,10.36,4.51,4.51,0,0,1-.52,0,12,12,0,0,1-12-11.71C235.7,77.5,240,73,246.11,73a12,12,0,0,1,11.95,12Z" fill="#fff"/><line x1="41.02" y1="16.28" x2="318.98" y2="294.24" fill="none" stroke="#fcac12" stroke-linecap="round" stroke-linejoin="round" stroke-width="26" opacity="0.5" style="isolation:isolate"/></g></g></svg>