<svg id="Layer_1" data-name="Layer 1" xmlns="http://www.w3.org/2000/svg" viewBox="0 0 512 512"><path d="M41.05,239.25c2.16,2.84,4,6.09,6.55,8.44q65.28,59,130.73,117.78c4.23,3.8,8.76,5.95,14.51,4.12a13.25,13.25,0,0,0,6.21-21.37,53.29,53.29,0,0,0-5.14-4.94L78.11,239.06c-1-.92-2-1.89-4-3.71a26.81,26.81,0,0,0,3.6-2.35Q135.7,180.94,193.6,128.8a70.56,70.56,0,0,0,5.18-4.9A13.35,13.35,0,0,0,181.27,104a34.39,34.39,0,0,0-3.55,2.94Q112.79,165.35,47.91,223.85c-2.7,2.45-4.59,5.79-6.86,8.72Z" fill="#f27366"/><path d="M283,289.73a130.12,130.12,0,0,1,42.56,5.51c33.34,10.29,60,30.52,83.31,55.84,14.31,15.55,25.28,33.44,36.22,51.33,3.24,5.28,7.49,8.81,14,7.95,7.87-1,12.85-7.39,11.81-15.54-2.94-23-5.12-46.2-9.48-69-6.51-33.93-22.67-63.24-47.34-87.59-31.86-31.45-70.81-48.12-114.69-54.22-5.12-.71-10.3-1-15.44-1.51-.25,0-.47-.29-1-.63v-4.38c0-20.15-.06-40.31,0-60.46,0-6.45-2.07-11.64-8.16-14.36s-11.1-.67-15.74,3.5q-65.67,59.15-131.37,118.26c-8.17,7.37-8.12,15.52.12,22.94q65.5,59,131.06,118c4.75,4.29,10,6.39,16.07,3.62s8.05-8,8-14.44C282.9,333.15,283,311.74,283,289.73Z" fill="#122230"/></svg>