<svg id="Layer_1" data-name="Layer 1" xmlns="http://www.w3.org/2000/svg" viewBox="0 0 512 512"><path d="M255.42,506H59.65C27,506,6,485.06,6,452.34V59.7C6,27,27,6.05,59.69,6.05q163,0,325.93-.09c7.29,0,12.89,2.19,18,7.38q47.29,47.69,95,95A23,23,0,0,1,506,125.87q-.18,163.51-.09,327c0,32-21.14,53.13-53.16,53.14ZM89.32,472.68v-6.2q0-53.64,0-107.27c0-32,21.14-53.16,53.13-53.16h227c32,0,53.14,21.12,53.15,53.13q0,53.9,0,107.79v5.74c11.32,0,21.89.07,32.46,0s17.5-7,17.51-17.76q0-160.9-.08-321.8a9.12,9.12,0,0,0-2.3-5.86q-42.56-42.85-85.36-85.46c-1-1-2.5-2.27-3.79-2.3-8.26-.21-16.52-.11-25.1-.11v6.31q0,45.55,0,91.13c0,21.91-13.88,35.85-35.69,35.86q-64.31,0-128.6,0c-21.8,0-35.65-14-35.66-35.9q0-45.83,0-91.64V39.38H60c-14.93,0-20.71,5.81-20.71,20.82V451.78c0,1.56,0,3.13,0,4.68.4,8.86,7.11,15.94,15.91,16.16C66.36,472.89,77.46,472.68,89.32,472.68Zm33.33-.33H389.27v-4.47q0-54.94,0-109.88c0-11.95-6.73-18.61-18.75-18.62H141.42c-12.12,0-18.74,6.56-18.76,18.58q0,31.25,0,62.49Zm67-432.74V139H322.33V39.61Z" fill="#162143"/><path d="M89.32,472.68c-11.86,0-23,.21-34-.06-8.8-.22-15.51-7.3-15.91-16.16-.08-1.55,0-3.12,0-4.68V60.2c0-15,5.78-20.82,20.71-20.82H156v5.78q0,45.81,0,91.64c0,21.94,13.86,35.89,35.66,35.9q64.31,0,128.6,0c21.81,0,35.68-13.95,35.69-35.86q0-45.57,0-91.13V39.4c8.58,0,16.84-.1,25.1.11,1.29,0,2.76,1.26,3.79,2.3q42.76,42.64,85.36,85.46a9.12,9.12,0,0,1,2.3,5.86q.17,160.91.08,321.8c0,10.76-6.88,17.66-17.51,17.76s-21.14,0-32.46,0V467q0-53.89,0-107.79c0-32-21.14-53.13-53.15-53.13h-227c-32,0-53.11,21.15-53.13,53.16q0,53.64,0,107.27Z" fill="#fff"/><path d="M122.65,472.35v-51.9q0-31.24,0-62.49c0-12,6.64-18.57,18.76-18.58H370.51c12,0,18.74,6.67,18.75,18.62q0,54.94,0,109.88v4.47Z" fill="#2ba5dd"/><path d="M189.68,39.61H322.33V139H189.68Z" fill="#f27366"/></svg>