<svg id="Outline" xmlns="http://www.w3.org/2000/svg" viewBox="0 0 512 512"><g id="Layer_2" data-name="Layer 2"><g id="Layer_1-2" data-name="Layer 1-2"><path d="M475.24,456.61q-47.33-47.4-94.73-94.81c-1.56-1.54-3-3.18-4.45-4.72,72.06-83.74,61.71-205-15.24-275.36A197.15,197.15,0,0,0,91,84.23C16,155.23,8.82,272.05,74.22,352.3c68.4,84,196.46,99.1,283.08,23.86,1.54,1.51,3.18,3,4.81,4.77l94.32,94.31c8.41,8.33,16.59,9.43,22.4,3.38S483.37,464.74,475.24,456.61Zm-248-58.2H227a171.19,171.19,0,1,1,171.37-171h0v.29A171,171,0,0,1,227.21,398.41Z" fill="#162143"/></g></g></svg>