<svg id="Layer_1" data-name="Layer 1" xmlns="http://www.w3.org/2000/svg" viewBox="0 0 512 512"><defs><style>.cls-1{fill:#fff;}</style></defs><path d="M443.52,73.83c0,113.42,0,275.76-.09,389.18,0,24.9-17.95,42.87-42.83,42.91q-144.51.18-289-.14a46.56,46.56,0,0,1-19.27-4.22c-16.3-7.7-23.75-21.5-23.8-39.32-.09-29.13,0-58.25,0-87.38q0-162.06,0-324.15c0-11.44,2.88-21.75,10.58-30.57A39.84,39.84,0,0,1,92.87,10a47,47,0,0,1,19.46-4H374.55a17.55,17.55,0,0,1,11.56,4.15c.23.19.45.4.66.61,33.67,33.53,18.33,18.22,52,51.78A15.17,15.17,0,0,1,443.52,73.83Z"/><path class="cls-1" d="M315.18,399H258.49V180.48l-67.67,21v-46.1L309.1,113h6.08Z"/></svg>