<svg id="Layer_1" data-name="Layer 1" xmlns="http://www.w3.org/2000/svg" viewBox="0 0 512 512"><defs><style>.cls-1{fill:#fff;}</style></defs><path d="M443.52,73.83c0,113.42,0,275.76-.09,389.18,0,24.9-17.95,42.87-42.83,42.91q-144.51.18-289-.14a46.56,46.56,0,0,1-19.27-4.22c-16.3-7.7-23.75-21.5-23.8-39.32-.09-29.13,0-58.25,0-87.38q0-162.06,0-324.15c0-11.44,2.88-21.75,10.58-30.57A39.84,39.84,0,0,1,92.87,10a47,47,0,0,1,19.46-4H374.55a17.55,17.55,0,0,1,11.56,4.15c.23.19.45.4.66.61,33.67,33.53,18.33,18.22,52,51.78A15.17,15.17,0,0,1,443.52,73.83Z"/><path class="cls-1" d="M341.45,399H175.2V360.25l76.34-97.08q8.15-11.24,13.57-20.44a149.21,149.21,0,0,0,8.72-17,77,77,0,0,0,4.65-14.34,63.58,63.58,0,0,0,1.35-12.78q0-18.79-6.49-29.46t-18.7-10.65a22.61,22.61,0,0,0-12.78,3.58,29.3,29.3,0,0,0-9.11,9.88,48.51,48.51,0,0,0-5.43,15,96,96,0,0,0-1.74,18.79h-55a108.2,108.2,0,0,1,5.91-36,89.6,89.6,0,0,1,16.86-29.45,79.39,79.39,0,0,1,26.74-20Q235.84,113,255.61,113q19.38,0,34.2,5.52a67.35,67.35,0,0,1,24.9,15.79,66.06,66.06,0,0,1,15.21,25.19,108.06,108.06,0,0,1,1.45,60.94,134.61,134.61,0,0,1-10.56,26.45,206.56,206.56,0,0,1-16.76,26.65q-9.87,13.47-22.28,28.19l-36.23,51.74h95.91Z"/></svg>