<?xml version="1.0" encoding="utf-8"?>
<!-- Generator: Adobe Illustrator 25.0.0, SVG Export Plug-In . SVG Version: 6.00 Build 0)  -->
<svg version="1.1" id="Layer_1" xmlns="http://www.w3.org/2000/svg" xmlns:xlink="http://www.w3.org/1999/xlink" x="0px" y="0px"
	 viewBox="0 0 343.1 343.7" style="enable-background:new 0 0 343.1 343.7;" xml:space="preserve">
<style type="text/css">
	.st0{fill:#F27366;enable-background:new    ;}
	.st1{fill:#162143;}
	.st2{fill:#FFFFFF;}
</style>
<g id="Layer_2_1_">
	<g id="Layer_1-2">
		<path class="st0" d="M258.5,214.6c-0.1,8.4-1,16.7-2.7,24.8c-4.8,22.9-19.6,35.9-42.3,39.8c-7.7,1.2-15.6,1.8-23.4,1.7
			c-10.9,0-19.3,3.8-25.6,12.8c-5.6,8.1-11.8,15.9-17.7,23.7c-3.3,4.4-8,4.3-11.4-0.1c-6.1-8.1-12.2-16.2-18.2-24.3
			c-6-8.2-14-11.8-24.1-12.1c-11.2-0.3-22.6-0.4-33.6-2.4c-19.9-3.4-29.8-13.9-33.3-33.7c-1.4-7.5-2.1-15-2.3-22.6
			c-0.3-25.3-0.3-50.6,0-75.9c0.1-6.8,1-13.6,2.6-20.3c5.4-22.6,20.5-35,43-38.8c7-1.1,14.1-1.7,21.1-1.7
			c17.1-0.2,34.2-0.1,51.2-0.1l-0.1,0.1c18.3,0,36.7-0.2,55,0.1c7.3,0.1,14.6,1,21.7,2.7c21.2,5,33.6,18.8,37.5,40
			c1.4,7.6,2.1,15.3,2.2,23C258.7,172.4,258.8,193.6,258.5,214.6z"/>
		<path class="st1" d="M203,3.2c20.7,0,41.4-0.5,62.1,0.2c16.3,0.5,31.6,5.2,45.1,14.9c17,12.4,25.1,30,28.3,50.1
			c1,6.7,1.5,13.4,1.5,20.1c0.2,22.8,0.2,45.6,0,68.4c0.1,12.7-2.3,25.2-6.9,37c-9.7,24-28.1,37.3-52.9,42.5
			c-3.8,0.8-5.1,2.3-5.8,5.9c-6.2,32-28.9,53.3-62,58c-8.3,1.2-16.9,1.1-25.2,1.9c-1.8,0.2-3.5,1-4.8,2.4
			c-6.2,7.8-12.2,15.7-18.2,23.6c-12.5,16.6-35.7,16.6-48.1,0c-5.8-7.8-11.7-15.5-17.4-23.3c-1.3-2-3.5-3.1-5.9-2.9
			c-13.3,0.2-26.4-0.4-39.4-3.3c-27-6.2-42.2-23.6-47.2-50.2c-1.8-9.6-2.8-19.4-3-29.2c-0.4-23.8-0.2-47.6-0.1-71.4
			c0-11.2,1.8-22.3,5.4-32.9c9.1-26.6,28.4-41.4,55.4-47c3.2-0.7,4.1-2,4.6-4.8c4.1-20.3,13.8-37.1,31.8-48.2
			c12.2-7.5,26.2-11.6,40.5-11.9C161.6,2.8,182.3,3.2,203,3.2z M140.8,89.2L140.8,89.2c-16.6,0-33.1-0.2-49.6,0.1
			c-6.8,0-13.7,0.6-20.4,1.7c-21.8,3.6-36.3,15.6-41.5,37.6c-1.5,6.4-2.4,13-2.5,19.7c-0.3,24.5-0.3,49,0,73.6
			c0.1,7.3,0.9,14.7,2.2,21.9c3.4,19.2,13,29.3,32.3,32.7c10.7,1.9,21.7,2,32.5,2.3c9.8,0.3,17.5,3.7,23.3,11.7s11.7,15.7,17.6,23.6
			c3.2,4.3,7.8,4.3,11,0.1c5.7-7.7,11.6-15.2,17.1-23c6.1-8.7,14.2-12.4,24.8-12.4c7.6,0.1,15.2-0.5,22.7-1.6
			c22-3.7,36.3-16.3,41-38.5c1.6-7.9,2.5-16,2.5-24.1c0.4-20.5,0.3-40.9,0-61.4c-0.1-7.5-0.8-14.9-2.1-22.3
			c-3.9-20.5-15.9-33.9-36.4-38.7c-6.9-1.6-14-2.5-21.2-2.6C176.4,88.9,158.6,89.2,140.8,89.2L140.8,89.2z M92.2,65.6h4.7
			c30.8,0,61.5-0.2,92.4,0.1c9.2,0,18.4,0.8,27.4,2.4c28.5,5.6,47.8,22,56.3,50.2c3.5,11.5,4.5,23.3,4.5,35.3v59.5
			c12.9-3.3,23.3-9.5,30.1-20.7c6.6-10.9,8.8-23.1,9-35.6c0.2-22.9,0.2-45.8,0-68.8c0-6-0.5-12-1.5-17.9
			c-3.6-22.7-16.5-36.6-39-41.5c-7.3-1.5-14.8-2.3-22.2-2.3c-33.5-0.2-66.9-0.1-100.4-0.1c-11,0-21.8,1-32.1,5
			C105.4,37.3,96.2,48.9,92.2,65.6L92.2,65.6z"/>
		<path class="st2" d="M92.2,65.6c4-16.6,13.3-28.3,29-34.3c10.3-3.9,21.2-5,32.1-5c33.5-0.1,66.9-0.2,100.4,0.1
			c7.5,0,15,0.8,22.3,2.3c22.4,4.8,35.4,18.8,39,41.5c0.9,5.9,1.4,11.9,1.5,17.9c0.2,22.9,0.2,45.9,0,68.8
			c-0.1,12.5-2.3,24.7-9,35.6c-6.8,11.2-17.1,17.4-30.1,20.7v-59.5c0-11.9-1.1-23.8-4.5-35.3c-8.5-28.2-27.8-44.6-56.3-50.2
			c-9-1.6-18.2-2.5-27.4-2.4c-30.8-0.3-61.6-0.1-92.4-0.1L92.2,65.6z"/>
	</g>
</g>
<g>
	<circle class="st1" cx="190.1" cy="190.9" r="16.1"/>
	<circle class="st1" cx="141.3" cy="190.9" r="16.1"/>
	<circle class="st1" cx="92.5" cy="190.9" r="16.1"/>
</g>
</svg>
