<svg id="Layer_1" data-name="Layer 1" xmlns="http://www.w3.org/2000/svg" viewBox="0 0 372.52 381.78"><path d="M370,190.13c0,.5,0,1,0,1.52a4.19,4.19,0,0,1,0,.5c0,.22,0,.43-.06.64a.13.13,0,0,1,0,.09,6.17,6.17,0,0,1-.14.86,11.38,11.38,0,0,1-1.18,3.27,8,8,0,0,1-.85,1.29,16.12,16.12,0,0,1-4.67,3.9l-.54.3q-22.35,11.38-44.64,22.86L308.69,230l-17.57,9L19.8,377.45a12.45,12.45,0,0,1-2.32.92.13.13,0,0,1-.1,0,27,27,0,0,1-4.37.51h0a11.83,11.83,0,0,1-4.95-1.38,10,10,0,0,1-3.16-2.59,10.5,10.5,0,0,1-2.09-4.7s0,0,0,0q0-.48,0-1a85.16,85.16,0,0,1,1.43-12v0q14.7-65.88,29.47-131.71a7.26,7.26,0,0,1,.29-1,4.46,4.46,0,0,1,.41-.88A3.79,3.79,0,0,1,37.19,222c3.28-.55,6.56-1.12,9.83-1.69,16.18-2.77,32.33-5.63,48.5-8.44q33-5.72,65.94-11.4l49.26-8.56c.57-.1,1.12-.33,2.55-.76l-.53-.27.53-.27c-1.43-.43-2-.66-2.55-.76l-49.26-8.56q-33-5.7-65.94-11.4c-16.17-2.81-32.32-5.67-48.5-8.44-3.27-.57-6.55-1.14-9.83-1.69a3.79,3.79,0,0,1-2.79-1.57,4.74,4.74,0,0,1-.41-.88,8.63,8.63,0,0,1-.29-1v0Q19,90.42,4.23,24.56a85.56,85.56,0,0,1-1.44-12c0-.32,0-.64,0-1v0a10.73,10.73,0,0,1,2.1-4.73A9.88,9.88,0,0,1,8.05,4.26,11.83,11.83,0,0,1,13,2.88h0a27,27,0,0,1,4.37.51l.1,0a12.45,12.45,0,0,1,2.32.92L291.12,142.76l17.57,9,9.14,4.69q22.28,11.43,44.59,22.84l.05,0a15.58,15.58,0,0,1,5.67,4.85,6.08,6.08,0,0,1,.39.64,11.38,11.38,0,0,1,1.18,3.27,6.17,6.17,0,0,1,.14.86.31.31,0,0,1,0,.08c0,.22.05.43.06.65A4.19,4.19,0,0,1,370,190.13Z" fill="#ADADAD"/></svg>