<svg id="Layer_1" data-name="Layer 1" xmlns="http://www.w3.org/2000/svg" viewBox="0 0 512 512"><defs><style>.cls-1{fill:#595959;}</style></defs><path class="cls-1" d="M142.44,344.68c2.3-3,3.52-5,5.14-6.63Q261,224.59,374.36,111.16c6.68-6.7,14.19-10.12,23.5-7.91,15.78,3.75,22.33,22.74,12.43,35.59a56.9,56.9,0,0,1-5.07,5.46Q283.31,266.21,161.4,388.08c-13.11,13.11-25.16,13.15-38.15.16Q68.8,333.8,14.31,279.39c-6-6-9.4-12.79-8-21.47a22.45,22.45,0,0,1,36.17-14,60.75,60.75,0,0,1,5,4.76l90.06,90.05C138.94,340.09,140,341.73,142.44,344.68Z"/></svg>