<svg id="Layer_1" data-name="Layer 1" xmlns="http://www.w3.org/2000/svg" viewBox="0 0 512 512"><rect x="22" y="40" width="407" height="374" fill="#fff"/><path d="M318.2,487.2H213.4a94.4,94.4,0,0,1-22.5-2.2,70.8,70.8,0,0,1-32.6-17.9,69.6,69.6,0,0,1-21.8-42.8,169.9,169.9,0,0,1-1.4-17.4c-.2-19.3-.2-38.6-.2-57.9V314.2c0-7.1,0-14.2.3-21.3.3-10.5,1.4-21,4.9-31a66.8,66.8,0,0,1,15.4-25,69.1,69.1,0,0,1,38.4-20.6,122.4,122.4,0,0,1,19.2-1.8l19.9-.2H389c10.1-.1,20.2-.2,30.2,0s19.4.5,28.9,2.3a26.4,26.4,0,0,1,4.8,1.4c9.6,3.8,18.6,8.7,26.2,15.9,11.9,11.3,19.6,24.8,22.4,40.9a106.9,106.9,0,0,1,1.3,18.7c.1,9.7.1,19.4.2,29v82.3c0,9.3-.5,18.5-2.8,27.5-5.4,21.2-18.1,36.6-37.2,46.9a66.4,66.4,0,0,1-26,7.4c-4.9.3-9.8.7-14.7.7ZM163.5,257.7a45.1,45.1,0,0,1-2.1,4.9,55.3,55.3,0,0,0-5.5,19.8c-.5,6.2-.7,12.4-.7,18.6-.1,16.1.1,32.2.1,48.4v59.4a87.9,87.9,0,0,0,1.4,16.2,50.8,50.8,0,0,0,38.6,40.3,95.4,95.4,0,0,0,21.3,1.9H424.7a72.1,72.1,0,0,0,17.3-1.7q30-7.3,38.6-36.9c2.1-7.4,2.3-15,2.3-22.6q0-56.1-.1-112.4v-3.4a89.1,89.1,0,0,0-1.5-16.3,15.5,15.5,0,0,0-3.5-8.1,6.6,6.6,0,0,0-6.2-2.3,10.4,10.4,0,0,0-6.3,3.6c-3.7,3.9-7.3,8.1-11.1,12-11.7,11.8-23.5,23.5-36,34.5a313.3,313.3,0,0,1-36.6,28.3c-22.1,14.3-46.1,20.8-72.4,18.6a111.4,111.4,0,0,1-29-6.3c-12.1-4.3-22.9-10.9-33.2-18.5-12.4-9.2-23.9-19.5-35.4-29.9-13.9-12.7-27.2-25.9-40.1-39.5ZM461,244.1l-9.2-4.6a40.9,40.9,0,0,0-15.3-4.4c-6.2-.4-12.4-.7-18.7-.7H216.6c-3.8,0-7.6.2-11.5.4a52.7,52.7,0,0,0-23.2,6.7,32,32,0,0,1-3.7,1.9l.6.8c5.6,5.9,11,11.8,16.6,17.6,11.3,11.7,23,23.1,35,34a405.9,405.9,0,0,0,35,29.1c11.5,8.4,23.9,14.2,38.3,15.3,9.6.8,19.2,1.3,28.8.4a75.6,75.6,0,0,0,21.5-5c9.1-3.6,17.1-8.9,24.8-14.9A573,573,0,0,0,426.9,278c10.8-10.5,21.5-21.2,32.2-31.9Z" fill="#162143"/><path d="M461,244.1l-1.9,2c-10.7,10.7-21.4,21.4-32.2,31.9a573,573,0,0,1-48.1,42.7c-7.7,6-15.7,11.3-24.8,14.9a75.6,75.6,0,0,1-21.5,5c-9.6.9-19.2.4-28.8-.4-14.4-1.1-26.8-6.9-38.3-15.3a405.9,405.9,0,0,1-35-29.1c-12-10.9-23.7-22.3-35-34-5.6-5.8-11-11.7-16.6-17.6l-.6-.8a32,32,0,0,0,3.7-1.9,52.7,52.7,0,0,1,23.2-6.7c3.9-.2,7.7-.4,11.5-.4H417.8c6.3,0,12.5.3,18.7.7a40.9,40.9,0,0,1,15.3,4.4Z" fill="#f27366"/><path d="M9,404.1V44.6A19.8,19.8,0,0,1,28.8,24.8H420.1a19.8,19.8,0,0,1,19.8,19.8c-.1,35-.2,105-.2,114.5a10,10,0,0,1-9.3,10,9.9,9.9,0,0,1-10.3-7.9c-.4-2.4-.9-93.9-1-104.9,0-5.9-3.4-10.2-8.7-11.3H40.3C28.6,44.9,29,44.5,29,57.1c0,59.3-.1,283.2-.1,335.8a11.4,11.4,0,0,0,2.5,7.8,10,10,0,0,0,7.9,3.3c8.5.1,36-.1,41.2-.1a10,10,0,0,1,10.3,9,9.8,9.8,0,0,1-8.2,11c-.4.1-32.2.1-53.9,0A19.8,19.8,0,0,1,9,404.1Z" fill="#162143"/><path d="M255.5,171.3H149a33.8,33.8,0,0,1-6.3-.7,9.7,9.7,0,0,1,.8-19,30.8,30.8,0,0,1,6.1-.5H361.9a23.4,23.4,0,0,1,8.6,1.6c4.2,1.6,6.1,4.3,6.1,8.3a9.4,9.4,0,0,1-6.6,9.1,29.4,29.4,0,0,1-7.8,1.1Z" fill="#2ba5dd"/><path d="M152.4,87.9h66.9c4.9,0,9.7-.2,14.6-.1a56.7,56.7,0,0,1,8.2.7,8.5,8.5,0,0,1,7.2,6c1.2,3.8.8,7.3-1.8,10.3s-3.7,2.4-5.9,2.7a51.9,51.9,0,0,1-6.8.5H131.1c-14.4.1-28.8.2-43.3.1a39.1,39.1,0,0,1-8.3-.9A9.5,9.5,0,0,1,72,98.3a9.7,9.7,0,0,1,8.4-9.9l4.9-.5h67.1Z" fill="#f27366"/></svg>