<svg id="Layer_1" data-name="Layer 1" xmlns="http://www.w3.org/2000/svg" viewBox="0 0 292 383.3"><g id="Layer_2" data-name="Layer 2"><g id="Layer_1-2" data-name="Layer 1-2"><path d="M46.2,380.5a55.4,55.4,0,0,1-18.5-3.2,26.7,26.7,0,0,1-4.6-2c-14-7.9-21-20.3-21-36.4,0-36.9.1-73.8.1-110.6q0-80.2.2-160.5c0-17.8,7.4-31.4,23.8-39,5.3-2.3,11.6-3.1,17.5-3.7S55.2,25,61.1,25c.1-2,.1-3.5.3-5.1,1-10,8.6-17.1,18.8-17.1H211.8c11.1,0,18.8,7.6,19,18.7v3.4H239c6.7.4,13.6,0,20.1,1.5,17.8,4,30.2,19.9,30.6,38.2.1,8.7,0,17.4,0,26.1l-.3,246.7c0,18.4-8,31.9-24.7,39.7a19.9,19.9,0,0,1-3.4,1.3,43.5,43.5,0,0,1-13.4,2ZM60.7,47.1H45.5c-13.6,0-21,7.3-21,20.9q-.2,135.1-.2,270.3c0,12.4,7.5,20,19.9,20H247.4a29.2,29.2,0,0,0,5.1-.4c9.5-2,14.9-9.3,14.9-20.3l.3-262.3c0-3.5.1-7.1,0-10.6-.3-7.7-5.4-15.3-12.9-16.6s-15.8-1-23.6-1.4a18.8,18.8,0,0,0-.3,2c-.5,14-7.3,20.5-21.3,20.5H80.5c-8.7,0-15.6-4.7-18.1-12.5C61.5,53.8,61.3,50.7,60.7,47.1Zm22.8-.2h125V25.2H83.5Z" fill="#fff"/><path d="M60.7,47.1c.6,3.6.8,6.7,1.7,9.6,2.5,7.8,9.4,12.5,18.1,12.5H209.6c14,0,20.8-6.5,21.3-20.5a18.8,18.8,0,0,1,.3-2c7.8.4,15.9.1,23.6,1.4s12.6,8.9,12.8,16.6c.1,3.5,0,7.1,0,10.7l-.2,262.2c0,11-5.4,18.3-15,20.3a29.2,29.2,0,0,1-5.1.4H44.1c-12.4,0-19.9-7.6-19.9-20q0-135.2.2-270.3c0-13.6,7.4-20.9,21-20.9ZM189.5,275.8H151.2c-7.4,0-12.5,4.5-12.6,11s5.1,11.1,12.5,11.1h76.2c7.5,0,12.4-4.6,12.3-11.2s-5-10.9-12.2-10.9ZM189,150.4h38c7.4,0,12.5-4.7,12.5-11.2s-5.2-11-12.3-11H150.9c-7.1,0-12.2,4.6-12.3,11s5.1,11.1,12.5,11.1H189Zm-.1,73.7h38.7c5.6,0,9.8-3,11.3-7.8,2.3-7.5-3.1-14.3-11.6-14.3H151.4c-7.7,0-12.8,4.6-12.7,11.2s5.1,10.9,12.6,10.9ZM76.6,214.7c-2.2-2.6-4-5.2-6.2-7.2a10.9,10.9,0,0,0-14.8.4,10.7,10.7,0,0,0-.7,15c4.8,5.3,9.8,10.3,15.1,15.1a10.2,10.2,0,0,0,14.4-.1h0q17.4-17,34.4-34.4c3.6-3.7,3.6-9.1.8-13.3a10.8,10.8,0,0,0-12.3-4.3,17.3,17.3,0,0,0-5.7,3.8c-8.2,8-16.2,16.1-25,25Zm.8,74c-2.7-2.9-4.5-5.1-6.5-7a11,11,0,0,0-15.4.1,10.8,10.8,0,0,0-.3,15.3c4.6,4.9,9.4,9.7,14.3,14.3s10.8,4.4,15.3,0q17-16.6,33.6-33.7a10.7,10.7,0,0,0,0-15.2h0a11,11,0,0,0-15.4-.3h-.1c-6.8,6.6-13.5,13.3-20.1,20-1.8,1.9-3.4,4-5.4,6.4Zm-.3-152.9c-2.5-3-4.2-5.3-6.2-7.3a11,11,0,0,0-15.6,15.6h0q6.9,7.2,14.1,14.1c4.6,4.3,10.8,4.4,15.3,0q17.1-16.8,33.8-33.9a10.7,10.7,0,0,0-.2-15.2h-.1a11.2,11.2,0,0,0-15.4,0c-6.6,6.4-13.1,13-19.5,19.5-2,2-3.7,4.2-6.2,7.2Z" fill="#f2f2f2"/><path d="M83.5,46.8V25.2h125V46.9Z" fill="#f27366"/><path d="M189.5,275.8h37.9c7.3,0,12.2,4.4,12.2,10.9s-4.9,11.2-12.3,11.2H151.1c-7.4,0-12.5-4.6-12.5-11.1s5.2-11,12.6-11C164,275.7,176.7,275.7,189.5,275.8Z" fill="#162143"/><path d="M189,150.3H151.1c-7.4,0-12.5-4.6-12.5-11.1s5.2-11,12.3-11h76.3c7.1,0,12.1,4.6,12.2,11s-5.1,11.1-12.5,11.2Z" fill="#162143"/><path d="M188.9,224.1H151.3c-7.5,0-12.6-4.4-12.7-10.9s5.1-11.2,12.8-11.2h75.9c8.4,0,13.9,6.8,11.5,14.3-1.5,4.8-5.7,7.8-11.2,7.8Z" fill="#f27366"/><path d="M76.6,214.7c8.9-8.9,16.8-17,25-25a17.3,17.3,0,0,1,5.7-3.8,10.6,10.6,0,0,1,12.3,4.3c2.8,4.2,2.8,9.6-.8,13.3q-17,17.4-34.4,34.4A10.2,10.2,0,0,1,70,238h0c-5.3-4.8-10.3-9.9-15.1-15.1a10.8,10.8,0,0,1,.7-15,11,11,0,0,1,14.8-.4C72.6,209.5,74.4,212.1,76.6,214.7Z" fill="#f27366"/><path d="M77.4,288.6c2-2.4,3.5-4.5,5.3-6.3,6.6-6.8,13.3-13.5,20.1-20a10.8,10.8,0,0,1,15.4.1h.2a10.7,10.7,0,0,1,0,15.2h0q-16.7,17.1-33.6,33.6c-4.5,4.4-10.6,4.4-15.3,0S59.8,302,55.2,297a11,11,0,0,1,15.7-15.4C72.9,283.5,74.7,285.7,77.4,288.6Z" fill="#2ba5dd"/><path d="M77.1,135.8c2.5-3,4.2-5.3,6.2-7.3,6.5-6.5,12.9-13.1,19.6-19.5a11.1,11.1,0,0,1,15.3,0,10.8,10.8,0,0,1,.5,15.2h-.1q-16.8,17.1-33.9,33.9c-4.5,4.4-10.7,4.2-15.3-.1s-9.5-9.2-14.1-14a10.9,10.9,0,0,1,0-15.5,11,11,0,0,1,15.6-.1h0C73.1,130.8,75.1,133.3,77.1,135.8Z" fill="#2ba5dd"/></g></g></svg>