<svg id="Layer_1" data-name="Layer 1" xmlns="http://www.w3.org/2000/svg" viewBox="0 0 291.96 383.26"><g id="Layer_2" data-name="Layer 2"><g id="Layer_1-2" data-name="Layer 1-2"><path d="M46.15,380.46a53.7,53.7,0,0,1-18.42-3.12,31.16,31.16,0,0,1-4.6-2.06c-14-7.88-21-20.3-21-36.39q0-55.31.07-110.63.06-80.2.17-160.43c0-17.87,7.46-31.46,23.87-39,5.28-2.38,11.54-3.12,17.43-3.76,5.69-.61,11.49-.12,17.42-.12.09-1.92.09-3.49.26-5.05,1-10,8.66-17.1,18.83-17.1H211.84c11.08,0,18.72,7.6,19,18.65v3.47c2.87,0,5.53-.12,8.16,0,6.73.37,13.64,0,20.13,1.46,17.73,4,30.19,19.9,30.54,38.17.17,8.72,0,17.45,0,26.18l-.24,246.71c0,18.36-8,31.85-24.74,39.68a28.55,28.55,0,0,1-3.37,1.29,43.89,43.89,0,0,1-13.42,2ZM60.72,47.06H45.49c-13.62,0-21,7.3-21,20.9q-.13,135.17-.24,270.33c0,12.43,7.57,20,19.94,20H247.4a24.4,24.4,0,0,0,5.12-.39c9.53-2,14.92-9.34,14.93-20.33q.14-131.06.24-262.22c0-3.56.09-7.12,0-10.69-.33-7.7-5.41-15.27-12.9-16.57-7.73-1.34-15.77-1-23.55-1.4-.2,1.27-.3,1.62-.31,2-.57,14-7.36,20.49-21.33,20.49H80.52c-8.67,0-15.62-4.71-18.09-12.46C61.51,53.84,61.34,50.72,60.72,47.06Zm22.78-.21h125V25.22H83.5Z" fill="#162143"/><path d="M60.72,47.06c.62,3.66.79,6.78,1.71,9.66,2.47,7.75,9.42,12.44,18.09,12.46H209.6c14,0,20.76-6.52,21.33-20.49,0-.36.11-.71.31-2,7.8.4,15.82.06,23.55,1.4,7.46,1.3,12.57,8.87,12.81,16.57.13,3.57,0,7.13,0,10.69l-.24,262.22c0,11-5.4,18.34-14.93,20.33a24.4,24.4,0,0,1-5.12.39H44.11c-12.37,0-19.95-7.6-19.94-20q.1-135.18.24-270.33c0-13.6,7.37-20.9,21-20.9Zm128.79,228.7H151.2c-7.43,0-12.53,4.5-12.56,11s5.07,11.12,12.46,11.12h76.24c7.42,0,12.38-4.55,12.31-11.2,0-6.49-5-10.91-12.22-10.91ZM189,150.36H227c7.36,0,12.53-4.66,12.47-11.13s-5.14-11-12.25-11H150.9c-7.14,0-12.19,4.57-12.26,10.95s5.05,11.15,12.41,11.16l37.95,0Zm-.12,73.76h38.69c5.58,0,9.79-3,11.28-7.77,2.33-7.51-3.1-14.32-11.57-14.33H151.4c-7.67,0-12.81,4.58-12.74,11.2s5.18,10.91,12.67,10.92l37.55,0Zm-112.3-9.46c-2.2-2.57-4-5.16-6.21-7.16a10.91,10.91,0,0,0-14.78.41,10.76,10.76,0,0,0-.73,15C59.65,228.17,64.71,233.2,70,238a10.19,10.19,0,0,0,14.4-.1h0q17.43-16.95,34.4-34.39c3.59-3.67,3.59-9.12.8-13.3a10.68,10.68,0,0,0-12.3-4.3,16.45,16.45,0,0,0-5.72,3.81C93.42,197.68,85.41,205.79,76.58,214.66Zm.84,74c-2.69-2.88-4.48-5.09-6.56-7a11,11,0,0,0-15.32.1,10.84,10.84,0,0,0-.38,15.3c4.6,4.93,9.39,9.73,14.33,14.33,4.64,4.32,10.77,4.38,15.28,0q17-16.65,33.64-33.65a10.79,10.79,0,0,0,0-15.25l0-.05A10.93,10.93,0,0,0,103,262.1a1.59,1.59,0,0,0-.13.13c-6.81,6.56-13.45,13.29-20.08,20-1.8,1.83-3.35,3.94-5.34,6.35ZM77.1,135.78c-2.54-3-4.18-5.32-6.22-7.24a11,11,0,0,0-15.54,15.57h0q6.9,7.21,14.07,14.07c4.58,4.33,10.77,4.45,15.26,0q17.13-16.74,33.87-33.88a10.75,10.75,0,0,0-.28-15.19.94.94,0,0,0-.1-.1,11,11,0,0,0-15.32,0c-6.63,6.39-13.11,13-19.56,19.51-2,2-3.66,4.22-6.18,7.2Z" fill="#ffffff"/><path d="M83.5,46.85V25.22h125V46.9Z" fill="#f27366"/><path d="M189.51,275.76h37.92c7.24,0,12.16,4.44,12.22,10.91.07,6.65-4.92,11.2-12.31,11.2H151.1c-7.39,0-12.49-4.6-12.46-11.12s5.13-11,12.56-11Q170.36,275.7,189.51,275.76Z" fill="#162143"/><path d="M189,150.33H151.05c-7.36,0-12.48-4.65-12.41-11.16s5.12-10.94,12.26-10.95h76.27c7.11,0,12.18,4.6,12.25,11s-5.11,11.12-12.47,11.13Q208,150.36,189,150.33Z" fill="#162143"/><path d="M188.88,224.09H151.31c-7.49,0-12.57-4.41-12.67-10.92S143.71,202,151.38,202h75.88c8.47,0,13.9,6.82,11.57,14.33-1.49,4.78-5.7,7.75-11.28,7.77C214.68,224.12,201.78,224.09,188.88,224.09Z" fill="#f27366"/><path d="M76.58,214.66c8.87-8.87,16.84-17,25-24.95a16.45,16.45,0,0,1,5.72-3.81,10.68,10.68,0,0,1,12.3,4.3c2.79,4.18,2.79,9.63-.8,13.3q-17,17.42-34.4,34.39A10.18,10.18,0,0,1,70,238h0c-5.26-4.79-10.32-9.85-15.11-15.08a10.76,10.76,0,0,1,.73-15,10.91,10.91,0,0,1,14.78-.41C72.63,209.49,74.38,212.08,76.58,214.66Z" fill="#f27366"/><path d="M77.42,288.62c2-2.41,3.49-4.52,5.29-6.34,6.63-6.75,13.27-13.48,20.08-20a10.92,10.92,0,0,1,15.44.07l.13.13a10.79,10.79,0,0,1,.09,15.25l0,0q-16.65,17-33.63,33.6c-4.51,4.41-10.64,4.35-15.28,0-4.93-4.6-9.73-9.38-14.33-14.33a10.84,10.84,0,0,1,.38-15.3,11,11,0,0,1,15.32-.1C72.94,283.52,74.73,285.73,77.42,288.62Z" fill="#2ba5dd"/><path d="M77.1,135.77c2.52-3,4.23-5.25,6.2-7.25C89.75,122,96.23,115.4,102.86,109a11,11,0,0,1,15.32,0,10.75,10.75,0,0,1,.47,15.19l-.09.1q-16.75,17.14-33.87,33.88c-4.49,4.4-10.68,4.28-15.26-.05q-7.19-6.78-14.09-14a11,11,0,1,1,15.54-15.58h0A94.79,94.79,0,0,1,77.1,135.77Z" fill="#2ba5dd"/></g></g></svg>