<svg xmlns="http://www.w3.org/2000/svg" width="24.949" height="20.709" viewBox="0 0 24.949 20.709">
  <g id="Group_463" data-name="Group 463" transform="translate(4663 -3401.072)">
    <path id="Path_345" data-name="Path 345" d="M-4663,3554.813a7.77,7.77,0,0,1,.351-1.133,3.475,3.475,0,0,1,3.093-2.109,24.21,24.21,0,0,1,3.064.034.783.783,0,0,0,.855-.391,3.375,3.375,0,0,1,2.846-1.524c1.542-.022,3.085-.037,4.625.01a3.4,3.4,0,0,1,2.884,1.721c.132.212.251.274.479.2a1.335,1.335,0,0,1,.409-.052c1.054,0,2.115-.058,3.161.035a3.562,3.562,0,0,1,3.154,3.4c.039,1.381.034,2.765.005,4.147a2.166,2.166,0,0,1-2.158,2.163c-.064,0-.13,0-.194,0q-10.105,0-20.21,0a2.275,2.275,0,0,1-1.929-.894,2.631,2.631,0,0,1-.435-1.07Zm16.8,5.024c0-.084.009-.14.009-.2,0-2.072.006-4.145,0-6.217a2.177,2.177,0,0,0-2.284-2.28q-2.057-.011-4.113,0a2.488,2.488,0,0,0-.673.081,2.164,2.164,0,0,0-1.614,2.219q-.007,3.084,0,6.168c0,.071.008.141.014.222Zm-10.139,0v-6.252c0-.554,0-.562-.571-.569q-1.192-.013-2.385,0a2.269,2.269,0,0,0-.576.074,2.179,2.179,0,0,0-1.668,2.206c-.005,1.227,0,2.454,0,3.68,0,.6.269.872.878.872q2.032,0,4.063,0C-4656.518,3559.848-4656.44,3559.841-4656.337,3559.835Zm11.621.007c1.53,0,3.03.007,4.53,0a.691.691,0,0,0,.658-.739c0-1.292.016-2.584,0-3.876a2.107,2.107,0,0,0-1.975-2.17c-.952-.073-1.912-.023-2.868-.021a1.806,1.806,0,0,0-.343.064Z" transform="translate(0 -139.533)" fill="#162143"/>
    <path id="Path_346" data-name="Path 346" d="M-4525.318,3401.072a4.341,4.341,0,0,1,4.329,4.344,4.357,4.357,0,0,1-4.339,4.342,4.358,4.358,0,0,1-4.33-4.352A4.343,4.343,0,0,1-4525.318,3401.072Zm0,1.464a2.873,2.873,0,0,0-2.873,2.882,2.889,2.889,0,0,0,2.861,2.877,2.89,2.89,0,0,0,2.885-2.878A2.875,2.875,0,0,0-4525.323,3402.536Z" transform="translate(-125.209 0)" fill="#162143"/>
    <path id="Path_347" data-name="Path 347" d="M-4636.337,3470.477a3.253,3.253,0,0,1,3.294-3.211,3.258,3.258,0,0,1,3.2,3.284,3.265,3.265,0,0,1-3.3,3.216A3.264,3.264,0,0,1-4636.337,3470.477Zm1.472.118a1.8,1.8,0,0,0,1.856,1.7,1.774,1.774,0,0,0,1.693-1.842,1.755,1.755,0,0,0-1.978-1.709A1.778,1.778,0,0,0-4634.865,3470.595Z" transform="translate(-25.036 -62.155)" fill="#162143"/>
    <path id="Path_348" data-name="Path 348" d="M-4380.858,3470.477a3.264,3.264,0,0,1-3.2,3.289,3.265,3.265,0,0,1-3.3-3.217,3.258,3.258,0,0,1,3.2-3.283A3.254,3.254,0,0,1-4380.858,3470.477Zm-1.475.143a1.782,1.782,0,0,0-1.518-1.87,1.754,1.754,0,0,0-2.025,1.681,1.752,1.752,0,0,0,1.689,1.862A1.765,1.765,0,0,0-4382.333,3470.62Z" transform="translate(-258.834 -62.155)" fill="#162143"/>
    <path id="Path_349" data-name="Path 349" d="M-4521.15,3582.472h-8.663c-.006-.081-.014-.152-.014-.222q0-3.084,0-6.168a2.164,2.164,0,0,1,1.614-2.219,2.5,2.5,0,0,1,.673-.081q2.056-.011,4.112,0a2.178,2.178,0,0,1,2.285,2.28c.008,2.073,0,4.145,0,6.217C-4521.141,3582.332-4521.146,3582.388-4521.15,3582.472Z" transform="translate(-125.048 -162.168)" fill="#2ca9e1"/>
    <path id="Path_350" data-name="Path 350" d="M-4633.872,3611.252c-.1.005-.181.013-.259.013h-4.063c-.609,0-.877-.267-.877-.872,0-1.227,0-2.454,0-3.681a2.179,2.179,0,0,1,1.668-2.205,2.273,2.273,0,0,1,.576-.074q1.193-.012,2.385,0c.571.006.571.015.571.569q0,2.974,0,5.948Z" transform="translate(-22.466 -190.95)" fill="#f27366"/>
    <path id="Path_351" data-name="Path 351" d="M-4363.247,3611.327v-6.747a1.853,1.853,0,0,1,.344-.064c.957,0,1.917-.051,2.868.021a2.108,2.108,0,0,1,1.975,2.171c.018,1.292.007,2.584,0,3.875a.691.691,0,0,1-.659.739C-4360.217,3611.334-4361.716,3611.327-4363.247,3611.327Z" transform="translate(-281.469 -191.017)" fill="#f27366"/>
    <path id="Path_352" data-name="Path 352" d="M-4502.832,3425.072a2.873,2.873,0,0,1,2.874,2.881,2.889,2.889,0,0,1-2.885,2.878,2.89,2.89,0,0,1-2.862-2.877A2.874,2.874,0,0,1-4502.832,3425.072Z" transform="translate(-147.701 -22.536)" fill="#e4e5e6"/>
    <path id="Path_353" data-name="Path 353" d="M-4612.275,3493.3a1.778,1.778,0,0,1,1.572-1.848,1.755,1.755,0,0,1,1.978,1.709,1.775,1.775,0,0,1-1.692,1.842A1.8,1.8,0,0,1-4612.275,3493.3Z" transform="translate(-47.627 -84.862)" fill="#e4e5e6"/>
    <path id="Path_354" data-name="Path 354" d="M-4359.672,3493.31a1.765,1.765,0,0,1-1.854,1.672,1.753,1.753,0,0,1-1.689-1.861,1.755,1.755,0,0,1,2.025-1.681A1.782,1.782,0,0,1-4359.672,3493.31Z" transform="translate(-281.494 -84.844)" fill="#e4e5e6"/>
  </g>
</svg>
