<svg id="Layer_1" data-name="Layer 1" xmlns="http://www.w3.org/2000/svg" viewBox="0 0 512 512"><path d="M255.94,6A74.77,74.77,0,1,0,308.7,27.9,74.66,74.66,0,0,0,255.94,6Z" fill="#f27366"/><path d="M382.3,286.78v-4.95A112.74,112.74,0,0,0,269.67,169.21H242.21A112.74,112.74,0,0,0,129.58,281.83v4.95a13.74,13.74,0,0,0,13.74,13.73H368.56a13.73,13.73,0,0,0,13.73-13.73Z" fill="#152043"/><path d="M242.21,340.18v67a50.36,50.36,0,1,0,27.47,0v-67Z" fill="#2da3dc"/><path d="M416.3,364.85l-47.36-47.36-19.61,19.45,47.36,47.36a50.35,50.35,0,1,0,19.44-19.45Z" fill="#152043"/><path d="M71.08,459.23a50.27,50.27,0,0,0,44-74.88l47.52-47.41-19.61-19.45L95.58,364.85a50.32,50.32,0,1,0-24.5,94.38Z" fill="#152043"/></svg>