<svg id="Layer_1" data-name="Layer 1" xmlns="http://www.w3.org/2000/svg" viewBox="0 0 512 512"><defs><style>.cls-1{fill:#595959;}</style></defs><path class="cls-1" d="M142.44,344.68c2.3-3,3.52-5,5.14-6.63Q261,224.59,374.36,111.16c6.68-6.7,14.19-10.12,23.5-7.91,15.78,3.75,22.33,22.74,12.43,35.59a58.11,58.11,0,0,1-5.07,5.46Q283.31,266.21,161.4,388.08c-13.11,13.11-25.16,13.15-38.15.16Q68.8,333.8,14.31,279.39c-6-6-9.4-12.79-8-21.47a22.45,22.45,0,0,1,36.17-14,60.91,60.91,0,0,1,5,4.76q45,45,90.06,90.05C138.94,340.09,140,341.73,142.44,344.68Z"/><path class="cls-1" d="M313.07,355.4c2-2.42,3.27-4.17,4.77-5.68Q391.69,275.85,465.55,202c6.46-6.48,13.72-10,23-7.78a22.45,22.45,0,0,1,11.93,36.64c-1.15,1.35-2.44,2.58-3.7,3.84L331.69,399.72c-12.95,12.95-24.8,12.93-37.78-.05-10.43-10.42-21-20.76-31.23-31.33-6.35-6.52-8.28-14.44-5.28-23.11,2.83-8.2,8.79-13.24,17.32-14.87,7.93-1.53,14.74,1,20.38,6.66S306.51,348.68,313.07,355.4Z"/></svg>