<svg id="Layer_1" data-name="Layer 1" xmlns="http://www.w3.org/2000/svg" viewBox="0 0 287.59 351.5"><g id="Layer_2" data-name="Layer 2"><g id="Layer_1-2" data-name="Layer 1-2"><path d="M190.75,316.48H67.82c-11.75,0-17.85-6.12-17.86-17.81v-121c0-11.51,6.1-17.56,17.67-17.56H190.75V145.57c.06-10.25,6.5-16.74,16.7-16.76q30.26-.06,60.48,0c10.2,0,16.65,6.53,16.65,16.78v60.48c0,10-6.56,16.54-16.52,16.56q-30.43.06-60.85,0c-10,0-16.41-6.61-16.47-16.65V191.51H81.55v93.34h109.2V271.14c0-10.77,6.24-17.11,17-17.13q29.88-.06,59.74,0c10.82,0,17.08,6.29,17.09,17.06v59.74c0,10.48-6.4,17-16.86,17q-30.08.09-60.12,0c-10.43,0-16.84-6.59-16.88-17C190.74,326.16,190.75,321.53,190.75,316.48Zm31.51-.2H253V285.45H222.26ZM253.1,160.37H222.41v30.68H253.1Z" fill="#f27366"/><path d="M50,81.85c-10.89,0-21.26.11-31.62,0A15.49,15.49,0,0,1,3.31,69.18a15.27,15.27,0,0,1,8.61-16.94,23,23,0,0,1,8.51-1.61c9.64-.2,19.29-.07,29.53-.07V20.19c0-9.47,6.63-16.45,15.49-16.57s15.61,6.86,15.89,16.24c.1,5,0,10,0,15V50.34c1.44.06,2.72.17,4,.17,8.91,0,17.84-.08,26.75,0,7.57.11,13.53,4.56,15.48,11.21s-.46,13.82-6.33,17.27a20.45,20.45,0,0,1-9.27,2.7c-8.9.37-17.82.13-26.74.13H81.34v30c0,4.83-1.28,9.21-4.9,12.55-4.9,4.42-10.49,5.68-16.65,3.16s-9.63-7.37-9.79-14.16c-.19-9,0-18.06-.06-27.1Z" fill="#f27366"/><path d="M222.26,316.28V285.45H253v30.83Z" fill="#f67567" opacity="0.3" style="isolation:isolate"/><path d="M253.1,160.37v30.68H222.41V160.37Z" fill="#f67567" opacity="0.3" style="isolation:isolate"/></g></g></svg>