<svg id="Layer_1" data-name="Layer 1" xmlns="http://www.w3.org/2000/svg" viewBox="0 0 512 512"><path d="M394.65,99.84H305.5V64a49.6,49.6,0,0,0-59.21-48.58A51.44,51.44,0,0,0,206.5,66.27V99.84H117.33A103.17,103.17,0,0,0,14.5,202.7v192A103.13,103.13,0,0,0,117.35,497.5H394.67A103.14,103.14,0,0,0,497.5,394.66v-192A103.17,103.17,0,0,0,394.65,99.84ZM462.5,394.68A68,68,0,0,1,435.24,449a64.12,64.12,0,0,1-5.41,3.66l-1.41.83c-.95.55-1.91,1.07-2.88,1.57s-2,1-3,1.43-2,.89-3,1.29l-1.55.59h0c-1,.39-2.08.74-3.14,1.07h0q-1.8.56-3.63,1c-1.22.31-2.45.58-3.7.82l-1.56.28q-2.35.4-4.77.63-3.21.32-6.5.32H117.33q-3.28,0-6.5-.32-2.42-.22-4.77-.63l-1.56-.28c-1.25-.24-2.48-.51-3.7-.82s-2.43-.65-3.63-1h0c-1.06-.33-2.11-.68-3.14-1.07h0l-1.55-.59c-1-.4-2-.83-3-1.29s-2-.93-3-1.43-1.93-1-2.88-1.57l-1.41-.83A64.12,64.12,0,0,1,76.76,449,68,68,0,0,1,49.5,394.68v-192a67.65,67.65,0,0,1,19.89-47.93l1.16-1.14q2.36-2.24,4.92-4.26l1.29-1q2.44-1.83,5.06-3.44c.87-.54,1.76-1.06,2.65-1.56,2-1.09,4-2.08,6-3,1.24-.53,2.5-1,3.78-1.5,1.47-.53,3-1,4.46-1.44a69.21,69.21,0,0,1,9.94-2c1.13-.14,2.27-.26,3.41-.35s2.31-.15,3.47-.18l1.75,0h88.91l3.38,9.73c0,.14.1.29.16.43.15.43.31.86.47,1.28.05.11.09.23.14.34.15.39.31.78.48,1.16s.19.46.3.69c.18.42.38.84.58,1.26s.4.82.61,1.22a.08.08,0,0,1,0,0c.21.4.42.8.64,1.2s.43.76.66,1.14.45.75.68,1.12.49.78.75,1.16.45.68.69,1,.66.93,1,1.38c.18.25.37.49.56.73.35.45.7.89,1.07,1.32s.64.75,1,1.12l.14.15q.73.81,1.5,1.59c.5.52,1,1,1.57,1.52l.71.65c.31.28.62.56.94.81s.56.48.84.69.56.46.85.68c.9.7,1.82,1.36,2.76,2,.39.28.78.53,1.18.77a1,1,0,0,0,.23.14c.42.27.85.52,1.28.77.67.4,1.34.77,2,1.11l.4.2,1.39.68h0l1.3.59.31.13c.41.18.83.35,1.25.51s1,.38,1.47.55a1.25,1.25,0,0,0,.25.09l.16.05c.85.29,1.71.56,2.58.82.18,0,.37.11.56.15.5.14,1,.27,1.51.39l1.4.31c.51.11,1,.21,1.54.3h0c.63.11,1.27.21,1.9.3l.89.11,1.25.14,1.34.1,1,.05.56,0h.59c.6,0,1.21,0,1.82,0l1.43-.05,1,0,.69-.06,1.17-.11.34,0,1-.12.52-.08,1.06-.16.45-.07c.28,0,.56-.1.84-.15.54-.11,1.09-.22,1.63-.35l.1,0c1.11-.26,2.22-.56,3.32-.9.56-.17,1.12-.36,1.68-.55.79-.27,1.57-.56,2.33-.88l.81-.34q.46-.19.93-.42l.85-.4c.41-.18.82-.39,1.22-.6l.32-.16.88-.48.56-.3,1.07-.62c.6-.36,1.19-.73,1.78-1.11s1.14-.76,1.7-1.16q.58-.4,1.14-.84.72-.54,1.41-1.11c.49-.39,1-.79,1.43-1.22.94-.82,1.85-1.69,2.72-2.6q.66-.68,1.29-1.38l.94-1.08.57-.69c.31-.38.62-.76.91-1.15s.77-1,1.13-1.54.65-.94,1-1.42c.09-.13.17-.25.24-.37.31-.48.61-1,.9-1.45l.05-.08c.36-.61.71-1.24,1-1.87s.52-1,.76-1.48.51-1,.74-1.58c0-.1.09-.21.14-.31.25-.57.48-1.14.71-1.72s.48-1.24.7-1.87h0l3.38-9.73h88.91l1.75,0c1.16,0,2.32.09,3.47.18s2.28.21,3.41.35a69.21,69.21,0,0,1,9.94,2c1.51.43,3,.91,4.46,1.44,1.28.46,2.54,1,3.78,1.5,2.08.9,4.09,1.89,6,3,.89.5,1.78,1,2.65,1.56q2.61,1.61,5.06,3.44l1.29,1q2.57,2,4.92,4.26l1.16,1.14a67.65,67.65,0,0,1,19.89,47.93Z" fill="#162143"/><path d="M117.33,134.84c-.59,0-1.17,0-1.75,0l1.75,0h0Zm-8.63.56c1.13-.14,2.27-.26,3.41-.35C111,135.14,109.83,135.25,108.7,135.4ZM70.55,153.61q2.36-2.24,4.92-4.26Q72.91,151.36,70.55,153.61ZM240,174.83c.48.17,1,.33,1.43.48l1.15.34C241.69,175.39,240.83,175.12,240,174.83Zm24.15,2,.45-.07c.28,0,.56-.1.84-.15.54-.11,1.09-.22,1.63-.35l.1,0c1.11-.26,2.22-.56,3.32-.9.56-.17,1.12-.36,1.68-.55.79-.27,1.57-.56,2.33-.88l.81-.34q.46-.19.93-.42l.85-.4A49.38,49.38,0,0,1,264.13,176.86Zm14.16-4.68.32-.16.88-.48Zm158.24-22.83q2.57,2,4.92,4.26Q439.1,151.36,436.53,149.35Zm-36.64-14.3c1.14.09,2.28.21,3.41.35C402.17,135.25,401,135.14,399.89,135.05Zm-5.22-.21h0l1.75,0C395.84,134.85,395.26,134.84,394.67,134.84Z" fill="#fff"/><path d="M462.5,202.68v192A68,68,0,0,1,435.24,449c-1.74,1.3-3.55,2.52-5.41,3.66l-1.41.83c-.95.55-1.91,1.07-2.88,1.57s-2,1-3,1.43-2,.88-3,1.29l-1.55.59h0c-1,.38-2.08.73-3.14,1.07h0q-1.8.56-3.63,1c-1.22.3-2.45.58-3.7.82l-1.56.28q-2.35.39-4.77.63-3.21.3-6.5.31H117.33q-3.28,0-6.5-.31-2.42-.24-4.77-.63l-1.56-.28c-1.25-.24-2.48-.52-3.7-.82s-2.43-.65-3.63-1h0c-1.06-.34-2.11-.69-3.14-1.07h0l-1.55-.59c-1-.41-2-.84-3-1.29s-2-.93-3-1.43-1.93-1-2.88-1.57l-1.41-.83c-1.86-1.14-3.67-2.36-5.41-3.66A68,68,0,0,1,49.5,394.68v-192a67.65,67.65,0,0,1,19.89-47.93l1.16-1.14q2.36-2.24,4.92-4.26l1.29-1q2.44-1.83,5.06-3.44c.87-.54,1.76-1.06,2.65-1.56,2-1.09,4-2.08,6-3,1.24-.53,2.5-1,3.78-1.5,1.47-.53,3-1,4.46-1.44a69.21,69.21,0,0,1,9.94-2c1.13-.14,2.27-.26,3.41-.35s2.31-.15,3.47-.18l1.75,0h88.91l3.38,9.73c0,.14.1.29.16.43.14.43.3.86.47,1.28.05.11.09.23.14.34.15.39.31.78.48,1.16s.19.46.3.69c.18.42.38.84.58,1.26s.39.82.61,1.22a.08.08,0,0,1,0,0c.2.41.41.81.64,1.2s.43.76.66,1.14.44.75.68,1.12.49.78.75,1.16.45.68.69,1,.66.93,1,1.38c.18.25.37.49.56.73.35.45.7.89,1.07,1.32s.63.75,1,1.12l.14.15q.72.81,1.5,1.59c.5.52,1,1,1.57,1.52l.71.65c.31.28.62.56.94.81s.56.48.84.69.56.46.85.68c.9.7,1.82,1.36,2.76,2,.39.28.78.53,1.18.77a1,1,0,0,0,.23.14c.42.28.85.53,1.28.77.67.4,1.34.77,2,1.11l.4.2c.46.25.92.47,1.39.68h0c.43.21.86.41,1.3.59l.31.13c.41.18.83.35,1.25.51s1,.38,1.47.55a1.25,1.25,0,0,0,.25.09l.16.05c.48.18,1,.34,1.43.48l1.15.34c.18,0,.37.11.56.15.5.14,1,.27,1.51.39l1.4.31c.51.12,1,.21,1.54.3h0c.63.12,1.26.22,1.9.3.3.05.59.09.89.11s.83.1,1.25.14l1.34.1,1,.05.56,0h.59c.6,0,1.21,0,1.82,0s.95,0,1.43-.05l1,0a41.24,41.24,0,0,0,4.78-.57l.45-.07c.28,0,.56-.1.84-.15.54-.1,1.09-.22,1.63-.35l.1,0c1.11-.26,2.22-.56,3.32-.9.56-.17,1.12-.36,1.68-.55.79-.27,1.57-.56,2.33-.88l.81-.34q.46-.19.93-.42a8.13,8.13,0,0,0,.85-.4c.41-.18.82-.39,1.22-.6l.32-.16c.49-.24,1-.51,1.44-.78l1.07-.62c.6-.34,1.2-.71,1.78-1.11s1.14-.75,1.7-1.16q.58-.4,1.14-.84.72-.54,1.41-1.11c.49-.39,1-.79,1.43-1.22.94-.82,1.85-1.69,2.72-2.6q.68-.68,1.29-1.38l.94-1.08.57-.69c.31-.38.62-.76.91-1.15s.77-1,1.13-1.54.66-.94,1-1.42c.09-.13.17-.25.24-.37.31-.48.61-1,.9-1.45l.05-.08c.36-.61.71-1.24,1-1.87s.52-1,.76-1.48.51-1,.74-1.58c0-.1.09-.21.14-.31.25-.57.49-1.14.71-1.72s.48-1.24.7-1.87h0l3.38-9.73h88.91l1.75,0c1.16,0,2.32.09,3.47.18s2.28.21,3.41.35a69.21,69.21,0,0,1,9.94,2c1.51.43,3,.91,4.46,1.44,1.28.46,2.54,1,3.78,1.5,2.08.9,4.09,1.89,6,3,.89.5,1.78,1,2.65,1.56q2.61,1.61,5.06,3.44l1.29,1q2.57,2,4.92,4.26l1.16,1.14A67.65,67.65,0,0,1,462.5,202.68Z" fill="#fff"/><path d="M330,260.55h0a11.34,11.34,0,0,1-8.18-6.27,88.78,88.78,0,0,0-96.3-48.93A87.6,87.6,0,0,0,155.14,277a89.7,89.7,0,0,0,.37,31.86c.66,3.41-.81,7.19-3.82,9.93a60.63,60.63,0,0,0,40.78,105.5H313.74A82.68,82.68,0,0,0,330,260.55ZM298.55,343.9,268.7,373.75a22,22,0,0,1-15.48,6.43l-.11,0-.1,0a22,22,0,0,1-15.48-6.43L207.68,343.9a11,11,0,0,1,15.59-15.58l18.82,18.81V292a11,11,0,0,1,22,0v55.12L283,328.32a11,11,0,0,1,15.59,15.58Z" fill="#2da3dc" stroke="#000" stroke-miterlimit="10"/><path d="M298.55,343.9,268.7,373.75a22,22,0,0,1-15.48,6.43l-.11,0-.1,0a22,22,0,0,1-15.48-6.43L207.68,343.9a11,11,0,0,1,15.59-15.58l18.82,18.81V292a11,11,0,0,1,22,0v55.12L283,328.32a11,11,0,0,1,15.59,15.58Z" fill="#fff"/></svg>