<svg id="Layer_1" data-name="Layer 1" xmlns="http://www.w3.org/2000/svg" viewBox="0 0 512 512"><path d="M41.35,263.61c1.3-6.48,2.19-13.07,4-19.41a94.19,94.19,0,0,1,33.42-49.76c2.48-1.94,2.73-4,2.38-6.71-4.51-34.71,14.08-65.28,46.8-76.88a65.91,65.91,0,0,1,32.85-3c2.68.43,3.84-.52,5.14-2.55C191.28,65.78,227.62,45.26,274.46,44c50.9-1.42,101,32,119.48,79.4,3.13,8,5,16.52,7.67,24.72a6.3,6.3,0,0,0,3.32,3.66c42.38,14.26,68.31,43.54,77.53,86.91,7.12,33.49-.94,64.19-21.72,91.29-17.1,22.27-39.64,36.19-67.32,41.46A68.84,68.84,0,0,1,381,372.83c-22.23.14-44.46.11-66.69,0-7.59,0-12.79-4.76-13.08-11.57-.33-7.46,5-12.84,13.06-12.87,19.49-.07,39,0,58.47,0,32.56,0,57.22-14.75,74-41.87C474.2,262.31,458.32,205.3,412.3,181c-6.42-3.38-13.64-5.44-20.69-7.34-9.1-2.46-12.11-5.31-13.25-14.58a103.05,103.05,0,0,0-84.84-89.19c-44.36-7.81-89.34,14.33-110,54.14-5.51,10.59-9.35,12.3-20.81,9.21A45.52,45.52,0,0,0,105,175.81c-.16,4.94,1,10,2.14,14.89,2.15,9.28,1,13.2-6.91,18.39C81.66,221.23,70.24,238.15,66.9,260c-6.44,42.23,24.94,84.84,67.07,88.36,3.45.29,6.93.1,10.39.1,22.67,0,45.33,0,68,.05,6.61,0,11.55,4.29,12.52,10.35a12,12,0,0,1-8,13.33,24.31,24.31,0,0,1-7.25.77c-24.25.05-48.51.14-72.76-.05a82.58,82.58,0,0,1-16.29-1.78c-29-6.11-50-23.34-65-48.32a98.53,98.53,0,0,1-13.48-40.29,12.75,12.75,0,0,0-.76-2.44Z" fill="#122230"/><path d="M275.41,238.48v5.79q0,97.41,0,194.82c0,8.63-3.51,13.47-10.43,14.53a12.07,12.07,0,0,1-14-10.87c-.16-1.72-.09-3.47-.09-5.2q0-96.75,0-193.52v-5.58c-1.81,1.68-2.94,2.68-4,3.74q-19.6,19.59-39.17,39.21c-3.47,3.5-7.4,5.57-12.4,4.39A12.29,12.29,0,0,1,188.58,266a33.17,33.17,0,0,1,2.36-2.53q31.08-31.06,62.15-62.14c6.76-6.74,13.27-6.83,19.92-.2q31.58,31.48,63.05,63.07c7.64,7.68,5.06,19-4.8,21.54-5.2,1.36-9.21-.8-12.8-4.41q-19.68-19.8-39.47-39.51C278.1,240.88,277.14,240.06,275.41,238.48Z" fill="#f27366"/></svg>