<svg id="Layer_1" data-name="Layer 1" xmlns="http://www.w3.org/2000/svg" viewBox="0 0 384 381.8"><g id="Layer_2" data-name="Layer 2"><g id="Layer_1-2" data-name="Layer 1-2"><path d="M381,104.5v10.22a51.74,51.74,0,0,1-.63,6.89h0a104,104,0,0,1-29.42,62.81c-21.08,21.7-42.36,43.08-63.44,64.68a73.79,73.79,0,0,1-23.78,16.49,11.93,11.93,0,0,0-3.76,3.13c-5,6.15-9.49,12.93-14.92,18.67-19.09,19.82-38.29,39.54-57.8,58.95-24.31,24.41-53.73,35-87.95,31.82-42.67-3.86-80.13-34.64-91.71-75.85C6,296.57,4.93,290.63,3.89,284.78a44.3,44.3,0,0,1-.84-8.24v-8.87a61.17,61.17,0,0,1,.63-7.61h0c2.61-23.27,11.68-43.82,27.86-60.73C52.92,177,74.83,155.1,96.43,133a75.74,75.74,0,0,1,23.16-16.07,13.79,13.79,0,0,0,4.59-4c4.28-5.32,8-11.27,12.73-16.17,19.62-20.35,39.34-40.49,59.37-60.62C222.47,9.76,254.29-1.4,291,4.75c43.3,7.31,71.57,33,85.35,74.5,2,6,2.81,12.62,4.06,19A40.15,40.15,0,0,1,381,104.5Zm-179.46,123c-3.44-.93-6.05-1.66-8.55-2.5-37.25-13-49.35-62.39-22.12-91.29,21.39-22.64,43.19-45.07,65.63-66.77,17.21-16.7,38.18-20.35,60.4-11.79,37.77,14.6,48,62.81,19.93,92.33-13.35,14.09-27,27.86-40.69,41.73a6.35,6.35,0,0,0-1.77,5.22c.52,10,.62,20,.83,30a40.09,40.09,0,0,1-.62,5.11l1,.63a28.46,28.46,0,0,1,2.09-2.92Q305.2,199.13,333,171c19.72-20,28-43.93,25-71.78-4.38-40.49-40.37-73.25-81.27-74.08-25.56-.52-47.37,8.35-65.21,26.71q-28,28.64-56,57.07A86,86,0,0,0,130.24,162c-3.55,34.85,16.27,70.12,48.09,84.83,2.82,1.25,4.49,1,6.58-1.26,3-3.54,6.57-6.67,9.7-10C197.11,233,199.09,230.43,201.49,227.5Zm-93-75.11a8.31,8.31,0,0,0-1.46,1.25c-19.4,19.72-38.91,39.23-58,59.26-18.67,19.4-26.18,42.77-23.16,69.48,4.49,41.22,40.48,73.87,82,74.39q37.71.48,64.16-26.39l56.34-57.28a85.32,85.32,0,0,0,25.15-53.84A84.41,84.41,0,0,0,206,135.69c-3.13-1.46-5.11-1.56-7.51,1.25C195,141,191,144.77,187.31,148.63a52.51,52.51,0,0,0-3.87,4.8c1.67.62,2.93,1.15,4.18,1.56,41.11,15,53.73,63.54,24.1,94.84C190.85,272,169.46,293.76,147.66,315c-14.92,14.71-33.49,19.3-53.84,14.08-42-10.74-57-62.49-27.23-94.1q17.68-18.78,36.1-36.94c4.8-4.69,8.66-9.18,5.84-16.38V152.39ZM266.6,167.62c12-12.42,24-24.21,35.37-36.62,12.62-13.77,11.68-34.85-1.57-48a34.44,34.44,0,0,0-48-.83c-11.58,11-22.43,22.64-33.6,34a3.57,3.57,0,0,0-.21.84C240,128.49,256,145.29,266.6,167.62Zm-99.85,98c-22.74-12.32-38.6-29.11-49.24-51.44-12.11,12.52-24.21,24.41-35.69,36.93-12.2,13.36-11.26,34.22,1.36,47.16s33.6,14.4,47.16,2.4C142.75,289.69,154.23,277.69,166.75,265.59Zm12.1-90c-.52,13.14,13.36,28.58,26.09,29.63.31-12.63-13.67-26.61-26.09-29.63Z" fill="#162143"/><path d="M274.21,224.48c-.2-10-.31-20-.83-30a6.15,6.15,0,0,1,1.77-5.22c13.57-13.87,27.34-27.64,40.69-41.73,28.07-29.52,17.74-77.73-19.92-92.33-22.33-8.66-42.26-3.86-59.37,12.73-22.43,21.7-44.13,44.13-65.63,66.77-27.23,28.9-15.12,77.1,22.12,90.25,2.61.94,5.22,1.56,8.56,2.6-2.4,2.93-4.38,5.53-6.68,7.93-3.13,3.45-6.68,7.62-9.7,11.06-2,2.3-3.76,2.61-6.57,1.26-31.83-14.72-52.8-50-49.15-84.83a92.5,92.5,0,0,1,26.3-55.19q28.17-28.49,56-57.07C229.66,32.3,251.47,24.47,277,25c40.9.84,76.89,33.6,81.28,74.08,3,27.86-5.32,51.85-25,71.78-18.47,18.78-36.73,37.56-55.09,56.34-.73,1-3.49,4.08-4.11,5.13" fill="#f27366"/><path d="M110.11,150.54l.93,26.24c.42,1.88-.63,8.26-1.57,11.6a21.56,21.56,0,0,1-5.84,9.49c-8.35,7.1-29.94,30.36-36.1,36.94-29.73,31.61-15.86,83.36,26.19,94.11,20.34,5.21,38.81.62,53.83-14.09,21.71-21.28,42-43.09,63-65.21,29.53-31.3,17-79.81-24.1-94.84-1.25-.41-2.5-.93-4.17-1.56,1.46-1.77,3.54-3.34,4.9-4.8,3.65-4,7.72-7.62,11.16-11.68,2.4-2.82,4.39-2.72,7.52-1.26,31.71,15.24,51.75,48.52,48.62,83.57-1.67,20.35-9.6,39.44-24.11,53.84-18.88,19-38.6,38.19-57.38,57.28-17.63,17.94-39,27.85-64.16,27.44-41.53-.52-78.57-33.08-83-74.39-1.57-14.3-.21-28.59,4.38-40.9,5-13.67,12.52-22.43,18.88-29.63C61.69,198.5,82.88,175.68,110.11,150.54Z" fill="#f27366"/></g></g></svg>