<?xml version="1.0" encoding="utf-8"?>
<!-- Generator: Adobe Illustrator 25.0.0, SVG Export Plug-In . SVG Version: 6.00 Build 0)  -->
<svg version="1.1" id="Layer_1" xmlns="http://www.w3.org/2000/svg" xmlns:xlink="http://www.w3.org/1999/xlink" x="0px" y="0px"
	 viewBox="0 0 512 512" style="enable-background:new 0 0 512 512;" xml:space="preserve">
<style type="text/css">
	.st0{fill:#FFFFFF;}
	.st1{fill:#121D3F;}
	.st2{fill:#F27366;}
	.st3{fill:#162143;}
</style>
<g>
	<path class="st0" d="M361.5,78.1v366.1c0,2.5-2.1,4.6-4.6,4.6H65.9c-2.5,0-4.5-2.1-4.5-4.6V78.1c0-2.5,2.1-4.5,4.5-4.5h291.1
		C359.4,73.5,361.5,75.6,361.5,78.1z"/>
	<path class="st1" d="M356.9,53.5H65.9c-13.5,0-24.5,11-24.5,24.5v366.1c0,13.5,11,24.6,24.5,24.6h291.1c13.5,0,24.6-11,24.6-24.6
		V78.1C381.5,64.5,370.5,53.5,356.9,53.5z M361.5,444.2c0,2.5-2.1,4.6-4.6,4.6H65.9c-2.5,0-4.5-2.1-4.5-4.6V78.1
		c0-2.5,2.1-4.5,4.5-4.5h291.1c2.5,0,4.6,2.1,4.6,4.5V444.2z"/>
</g>
<path class="st1" d="M461.5,468.6h-16c-6.6,0-12-5.4-12-12V65.8c0-6.6,5.4-12,12-12h16c6.6,0,12,5.4,12,12v390.8
	C473.5,463.2,468.1,468.6,461.5,468.6z"/>
<g id="Layer_2_1_">
	<g id="Layer_1-2">
		<path class="st2" d="M144,387.4c-0.8-0.1-1.4-0.2-1.9-0.3c-2.3-0.4-4.6-0.9-6.8-1.6c-4.4-1.4-15.5-5.4-22.7-14.9
			c-4.8-6.4-7.6-14.4-8-23.4c-0.8-19.8,1.4-39.3,8.9-57.8c4.9-12,12-22.4,23.8-28.6c7.2-3.9,15.2-5.8,23.4-5.6
			c2.6,0.1,5.3,1.4,7.7,2.7c3.8,2.1,7.3,4.6,11,6.9c21.5,13.3,42.9,13.2,64.4-0.1c3-1.8,6-3.6,8.8-5.7c5.1-3.8,10.8-4.3,16.9-3.4
			c16.7,2.5,28.4,11.6,36.4,26c7.1,13,10.3,27.1,11.7,41.6c0.7,7.5,1,15,1,22.5c-0.1,5.9-2.1,17.8-9.7,27
			c-8.3,10.1-21.2,12.8-28.2,14.4c-2.3,0.5-4.6,0.9-7,1.2c-28,3.6-67.4,3.1-67.4,3.1C170.6,390.9,151.7,388.5,144,387.4z"/>
		<path class="st3" d="M209.8,254.5c-34.5-0.2-62-27.9-61.7-62c0.2-34.1,28-61.6,62.1-61.5c33.6,0,61.8,27.8,61.7,61.9
			C271.6,227.3,243.3,254.9,209.8,254.5z"/>
	</g>
</g>
</svg>
