<svg id="Layer_1" data-name="Layer 1" xmlns="http://www.w3.org/2000/svg" viewBox="0 0 359.43 239.56"><g id="Layer_2" data-name="Layer 2"><g id="Layer_1-2" data-name="Layer 1-2"><path d="M237.8,167.66c0,11.81.12,22.91,0,34a34.57,34.57,0,0,1-26,33.22,40.48,40.48,0,0,1-10,1.18q-80.15.12-160.25,0C20.31,236.1,5.16,221,5.16,200V39.7c0-21.1,15.11-36.22,36.19-36.22q80.15-.06,160.25,0c21.11,0,36.14,15.07,36.21,36.19V71.72c1.27-.75,2.19-1.23,3.05-1.8C260.28,56.91,279.7,44,299,30.85c11.16-7.6,22.86-9.41,35-3.15,12.62,6.52,19.82,17.48,20,31.56.43,40.34.33,80.68.07,121-.12,17.76-13.9,32.77-31.35,35.08-8.17,1.07-15.54-1.23-22.34-5.78Q271,189.83,241.57,170.11ZM121.52,26.79H42.29c-9.41,0-13.82,4.36-13.82,13.67V199.28c0,9.12,4.48,13.6,13.6,13.6H200.88c9.19,0,13.67-4.42,13.67-13.53V40.17c0-8.86-4.56-13.39-13.44-13.39ZM330.87,120V94.91c0-11.39.09-22.77-.05-34.15a13.59,13.59,0,0,0-7.5-12.41c-4.39-2.35-8.05-.35-11.73,2.12q-35.52,24-71.15,47.71a5.15,5.15,0,0,0-2.69,4.95q.21,16.52,0,33a5.48,5.48,0,0,0,2.74,5.3q36.25,24.23,72.37,48.5c5.71,3.83,11.35,3,15-2.81a19.89,19.89,0,0,0,2.91-9.81c.24-19.1.11-38.23.11-57.37Z" fill="#162143"/><path d="M121.52,26.79h79.59c8.88,0,13.44,4.53,13.44,13.39V199.36c0,9.11-4.48,13.53-13.67,13.53H42.07c-9.14,0-13.6-4.46-13.6-13.6V40.46c0-9.31,4.41-13.67,13.82-13.67Z" fill="#e4e5e6"/><path d="M330.87,120c0,19.14.13,38.27-.13,57.39a19.89,19.89,0,0,1-2.91,9.81c-3.64,5.83-9.28,6.64-15,2.81q-36.16-24.28-72.36-48.49a5.48,5.48,0,0,1-2.74-5.3q.18-16.5,0-33a5.14,5.14,0,0,1,2.69-5q35.64-23.83,71.16-47.74c3.68-2.47,7.34-4.47,11.73-2.12a13.59,13.59,0,0,1,7.5,12.43c.14,11.38.05,22.76.05,34.15Z" fill="#f27366"/><path d="M93.41,119.71c0-11.4-.08-22.81.08-34.21a12,12,0,0,1,1.71-5.83c2.18-3.48,5.54-4,9-1.67,14.38,9.63,28.74,19.32,43.15,28.91a3.26,3.26,0,0,1,1.63,3.16q-.1,9.86,0,19.71a3.09,3.09,0,0,1-1.6,2.92q-21.26,14.16-42.43,28.44c-2.2,1.49-4.38,2.68-7,1.28a8.08,8.08,0,0,1-4.46-7.4c-.08-6.8,0-13.6,0-20.4Z" fill="#2ba5dd"/></g></g></svg>