<svg id="Layer_1" data-name="Layer 1" xmlns="http://www.w3.org/2000/svg" viewBox="0 0 512 512"><path d="M64.77,204.57V91.09H447.13V204.57Z" fill="#f27366"/><path d="M256,256H43.74c-20.61,0-31.06-10.51-31.06-31.21q0-77.27,0-154.54c0-19.73,10.78-30.59,30.51-30.59q212.84,0,425.69,0c19.69,0,30.43,10.88,30.44,30.66q0,77.59,0,155.18c0,19.75-10.76,30.5-30.52,30.5ZM67.14,201.41H444.75V94.26H67.14Z" fill="#162143"/><path d="M123.89,421.49H63.61V360.71h60.28Z" fill="#e4e5e6"/><path d="M94.26,310.16c17.1,0,34.2-.07,51.31,0,18.55.09,29.3,11,29.31,29.69q0,51.28,0,102.59c0,18.81-11,29.84-30,29.87q-51.3.1-102.61,0c-18.52-.05-29.61-11.19-29.63-29.57q0-51.62,0-103.23c0-18.28,10.83-29.25,29-29.34C59.21,310.08,76.74,310.16,94.26,310.16Zm26,107.67V364.37h-53v53.46Z" fill="#162143"/><path d="M364.23,418.18c35.89,0,71.79-.07,107.68,0,12.84,0,23,7.83,26.31,19.75,3.22,11.41-1,23.79-11.31,29.65a34.45,34.45,0,0,1-16.12,4.53q-106.73.44-213.45.14c-16.79,0-28.46-11.81-28.22-27.64.24-15.4,12.13-26.43,28.7-26.45Q311,418.12,364.23,418.18Z" fill="#2ba5dd"/><path d="M364.34,310.16c35.89,0,71.78-.16,107.67.08,19.07.13,31.68,17.65,25.93,35.27a26.46,26.46,0,0,1-25.38,18.4c-17.52.23-35,.09-52.57.09q-81.06,0-162.12,0c-17.09,0-28.77-11.13-28.75-26.94,0-14.86,11.17-26.52,26.3-26.77,19-.3,38-.1,57-.1Q338.38,310.15,364.34,310.16Z" fill="#f27366"/></svg>