<svg id="Layer_1" data-name="Layer 1" xmlns="http://www.w3.org/2000/svg" viewBox="0 0 573.94 576.25"><g id="Layer_2" data-name="Layer 2"><g id="Layer_1-2" data-name="Layer 1-2"><path d="M557,203.36C505.64,36.05,316-44.09,159.94,35.58,18.77,107.66-34.83,282.69,41.61,421.85a14.66,14.66,0,0,1,1,9.84c-8.32,31.37-17,62.64-25.53,93.93-4.08,15-8.19,30.16-12.53,46.07,2.7-.58,4.57-.91,6.4-1.39,45.87-12,91.71-24.06,137.62-35.87a14.52,14.52,0,0,1,9.34,1c68.6,34.51,139.83,41.56,213.25,19.06C519,509.16,602.41,351,557,203.36Zm-220.28,326C273.58,542,214,531,158.62,497.9c-4.29-2.58-8-3.24-12.87-2-28.66,7.75-57.4,15.17-87.39,23,6.35-23.23,11.46-45.68,18.76-67.38,5.43-16.13,3.65-28.71-5.06-44-84.16-147.9,3-334.45,170.33-366.22C376.23,15.92,507.21,105.14,532.3,238.71,557.53,373.16,470.72,502.75,336.76,529.39Z" fill="#162143"/><path d="M194,146.65c5.83.55,9.62,4.68,12.58,7.65,0,0,21.82,21.88,29.75,65.54,1,5.59.36,9.53-1.34,12.66l0,.08c-3.82,7-8.31,11.94-17.83,23.5-4.21,5.12-4.59,9.69-1.21,15.38,24.4,41,58.45,70.62,102.86,88.32,6.1,2.43,10.93,1.32,15-3.8,7.32-9.15,14.82-18.17,22.06-27.38a20.88,20.88,0,0,1,7.85-6.52c12.86-6.68,28.6,1.29,41.9,8,12.41,6.29,25.61,13,29.87,27a33.21,33.21,0,0,1,1.3,10c-.26,21.14-17.69,46.46-41.08,57.17-13.48,6.18-30.23,8.74-59.1.67C264.51,404.82,211.42,359.53,169,299.81c-13.19-18.54-25.09-37.66-30.15-60.15-2.22-9.87-5.12-26.33.82-46.07A84.39,84.39,0,0,1,153.23,167c4.84-6.39,13.22-16.15,27.34-19.46A41.34,41.34,0,0,1,194,146.65Z" fill="#29a71a"/></g></g></svg>