<svg id="Layer_1" data-name="Layer 1" xmlns="http://www.w3.org/2000/svg" viewBox="0 0 512 512"><defs><style>.cls-1{fill:#ed0a26;}</style></defs><path class="cls-1" d="M255.79,347.42c-11.11,0-22.23-.22-33.35.09-7.05.19-10-2.78-10.49-9.73q-6-85.42-12.4-170.81c-2.22-30-4.75-59.93-7-89.9C190,43.64,209.83,15.76,241.52,8c30-7.35,60.72,8.34,73.19,37.52a66,66,0,0,1,4.79,31.11q-6.86,92.22-13.67,184.44c-1.92,25.69-4,51.42-5.81,77.09-.46,6.57-3.37,9.48-10.08,9.32C278.57,347.24,267.18,347.42,255.79,347.42Z"/><path class="cls-1" d="M256.09,401.4a52.15,52.15,0,0,1,52.27,51.87c0,29-23.63,52.81-52.37,52.94S203,482,203.18,453.59A52.57,52.57,0,0,1,256.09,401.4Z"/></svg>