<svg width="156" height="77.49532015439223" viewBox="0 0 350 173.86770547459795" class="looka-1j8o68f">
  <defs id="SvgjsDefs4505" />
  
  <g id="SvgjsG4507" featurekey="nameFeature-0" transform="matrix(0.9979015771191944,0,0,0.9979015771191944,-2.2752143776901894,133.71214528805)" fill="#ffffff">
    <path xmlns="http://www.w3.org/2000/svg" d="M20.32 27.439999999999998 c1.76 1.24 2.8 3.08 2.8 5.24 c0 4.16 -3.84 7.32 -7.84 7.32 l-13 0 l0 -24.48 l12.2 0 c3.2 0 5.84 1.72 7.24 4.56 c0.4 0.92 0.6 1.84 0.6 2.8 c0 1.8 -0.72 3.28 -2 4.56 z M8.28 21.08 l0 3.92 l6.2 0 c1.04 0 1.84 -1 1.84 -2 c0 -1.04 -0.76 -1.92 -1.84 -1.92 l-6.2 0 z M8.28 30.560000000000002 l0 3.88 l7 0 c1.08 0 1.84 -0.88 1.84 -1.92 c0 -0.52 -0.2 -1 -0.56 -1.4 c-0.36 -0.36 -0.8 -0.56 -1.28 -0.56 l-7 0 z M44.656000000000006 34.64 c4.36 0 6.6 -2.8 6.6 -6.88 c0 -4.32 -2.4 -6.88 -6.6 -6.88 c-4.4 0 -6.6 2.8 -6.6 6.88 c0 4.24 2.44 6.88 6.6 6.88 z M44.656000000000006 40.2 c-7.52 0 -12.6 -5.12 -12.6 -12.44 c0 -7.56 5.32 -12.44 12.6 -12.44 c7.56 0 12.6 5.08 12.6 12.44 c0 7.6 -5.28 12.44 -12.6 12.44 z M79.112 34.64 c4.36 0 6.6 -2.8 6.6 -6.88 c0 -4.32 -2.4 -6.88 -6.6 -6.88 c-4.4 0 -6.6 2.8 -6.6 6.88 c0 4.24 2.44 6.88 6.6 6.88 z M79.112 40.2 c-7.52 0 -12.6 -5.12 -12.6 -12.44 c0 -7.56 5.32 -12.44 12.6 -12.44 c7.56 0 12.6 5.08 12.6 12.44 c0 7.6 -5.28 12.44 -12.6 12.44 z M101.808 15.52 l6 0 l0 11.48 l7.88 -11.48 l7.44 0 l-8.56 12.24 l8.88 12.24 l-7.36 0 l-8.28 -11.52 l0 11.52 l-6 0 l0 -24.48 z M131.46400000000003 15.52 l6 0 l0 24.48 l-6 0 l0 -24.48 z M147.16000000000003 39.4 l0 -5.64 c0.48 0.12 1.08 0.24 1.76 0.32 c0.68 0.12 1.4 0.2 2.16 0.24 s1.52 0.08 2.32 0.12 s1.56 0.08 2.24 0.08 c1.88 0 3.2 -0.12 4 -0.32 c0.76 -0.2 1.16 -0.56 1.16 -1.12 c0 -0.48 -0.36 -0.84 -0.72 -1.12 c-1.32 -0.88 -2.88 -1.24 -4.44 -1.6 c-4.4 -0.88 -8.44 -2.64 -8.44 -7.68 c0 -5.96 5.64 -7.36 10.48 -7.36 c2.68 0 5.4 0.28 8 0.92 l0 5.64 c-0.4 -0.12 -0.92 -0.2 -1.56 -0.32 c-0.68 -0.08 -1.36 -0.16 -2.12 -0.24 c-1.56 -0.16 -3.04 -0.24 -4.6 -0.24 c-0.88 0 -2.72 0 -3.56 0.32 c-0.56 0.2 -0.92 0.44 -0.92 1.08 c0 0.32 0.08 0.6 0.24 0.84 c0.16 0.28 0.44 0.48 0.8 0.68 c1.08 0.6 2.48 0.96 3.68 1.24 c1 0.24 2 0.52 3.04 0.8 c3.52 0.96 5.84 2.92 5.84 6.68 c0 6.2 -6.16 7.52 -11.12 7.52 c-2.72 0 -5.56 -0.2 -8.24 -0.84 z M191.01600000000002 15.52 l6 0 l0 24.48 l-6 0 l0 -9.44 l-8.8 0 l0 9.44 l-6 0 l0 -24.48 l6 0 l0 9.48 l8.8 0 l0 -9.48 z M225.992 27.439999999999998 c1.76 1.24 2.8 3.08 2.8 5.24 c0 4.16 -3.84 7.32 -7.84 7.32 l-13 0 l0 -24.48 l12.2 0 c3.2 0 5.84 1.72 7.24 4.56 c0.4 0.92 0.6 1.84 0.6 2.8 c0 1.8 -0.72 3.28 -2 4.56 z M213.952 21.08 l0 3.92 l6.2 0 c1.04 0 1.84 -1 1.84 -2 c0 -1.04 -0.76 -1.92 -1.84 -1.92 l-6.2 0 z M213.952 30.560000000000002 l0 3.88 l7 0 c1.08 0 1.84 -0.88 1.84 -1.92 c0 -0.52 -0.2 -1 -0.56 -1.4 c-0.36 -0.36 -0.8 -0.56 -1.28 -0.56 l-7 0 z M253.448 35.04 l-9 0 l-1.76 4.96 l-6.52 0 l9.8 -24.48 l6 0 l9.8 24.48 l-6.56 0 z M246.40800000000002 29.48 l5.08 0 l-2.52 -7.12 z M276.30400000000003 34.56 l13.16 0 l0 5.44 l-20.4 0 l0 -5.44 l12.32 -13.6 l-11.52 0 l0 -5.44 l18.8 0 l0 5.44 z M314.04 35.04 l-9 0 l-1.76 4.96 l-6.52 0 l9.8 -24.48 l6 0 l9.8 24.48 l-6.56 0 z M307 29.48 l5.08 0 l-2.52 -7.12 z M337.176 21.16 l0 5.84 l5.6 0 c1.84 0 2.92 -1.08 2.92 -2.92 s-1.08 -2.92 -2.92 -2.92 l-5.6 0 z M346.25600000000003 30.96 c1.12 1.52 2.24 3.04 3.4 4.52 c1.12 1.48 2.24 3 3.36 4.52 l-7.32 0 c-1.44 -1.92 -2.84 -3.84 -4.24 -5.76 c-1.4 -1.88 -2.84 -3.8 -4.28 -5.72 l0 11.48 l-6 0 l0 -24.48 l11.6 0 c4.56 0 8.44 3.48 8.44 8.08 c0 3.24 -2 6.08 -4.96 7.36 z" />
  </g>
</svg>