<svg width="12" height="7" viewBox="0 0 12 7" fill="none" xmlns="http://www.w3.org/2000/svg">
<path d="M11.8332 1.47503C11.8337 1.59952 11.8062 1.72253 11.7528 1.83501C11.6995 1.9475 11.6216 2.04659 11.5249 2.12503L6.5249 6.15003C6.37579 6.27259 6.18876 6.3396 5.99574 6.3396C5.80272 6.3396 5.61568 6.27259 5.46657 6.15003L0.466571 1.98336C0.29639 1.84191 0.18937 1.63865 0.169054 1.4183C0.148737 1.19794 0.216789 0.97854 0.358238 0.808359C0.499686 0.638179 0.702946 0.531159 0.923301 0.510842C1.14366 0.490526 1.36306 0.558577 1.53324 0.700026L5.9999 4.42503L10.4666 0.825026C10.5889 0.723124 10.7378 0.658393 10.8958 0.638493C11.0538 0.618594 11.2141 0.644358 11.3579 0.712737C11.5017 0.781117 11.6228 0.889251 11.7071 1.02434C11.7913 1.15943 11.8351 1.31583 11.8332 1.47503Z" fill="#707174"/>
</svg>
