<svg width="12" height="14" viewBox="0 0 12 14" fill="none" xmlns="http://www.w3.org/2000/svg">
<path d="M10.6667 13.6667H1.33333C0.979711 13.6667 0.640573 13.5262 0.390524 13.2761C0.140476 13.0261 0 12.687 0 12.3333V2.99999C0 2.64637 0.140476 2.30723 0.390524 2.05719C0.640573 1.80714 0.979711 1.66666 1.33333 1.66666H2.66667V0.333328H4V1.66666H8V0.333328H9.33333V1.66666H10.6667C11.0203 1.66666 11.3594 1.80714 11.6095 2.05719C11.8595 2.30723 12 2.64637 12 2.99999V12.3333C12 12.687 11.8595 13.0261 11.6095 13.2761C11.3594 13.5262 11.0203 13.6667 10.6667 13.6667ZM1.33333 5.66666V12.3333H10.6667V5.66666H1.33333ZM1.33333 2.99999V4.33333H10.6667V2.99999H1.33333ZM6.66667 11H2.66667V7H6.66667V11Z" fill="#707174"/>
</svg>
