<svg id="Layer_1" data-name="Layer 1" xmlns="http://www.w3.org/2000/svg" viewBox="0 0 186.34 105.47"><g id="Layer_2" data-name="Layer 2"><g id="Layer_1-2" data-name="Layer 1-2"><g id="Layer_2-2" data-name="Layer 2-2"><g id="Layer_1-2-2" data-name="Layer 1-2-2"><path d="M93,37.3c-24.36,0-48.73.09-73.08,0C5.26,37.23-4,23.84,1.7,11.21A17.57,17.57,0,0,1,17.2.18C19.07,0,20.93,0,22.79,0h141a38.13,38.13,0,0,1,8.79.63c8.57,2,14.13,10.06,13.7,19.16a18.17,18.17,0,0,1-15.19,17,39,39,0,0,1-6.48.45Z" fill="#f27366"/></g></g><g id="Layer_2-3" data-name="Layer 2-3"><g id="Layer_1-2-3" data-name="Layer 1-2-3"><path d="M19.89,105.47C5.26,105.4-4,92,1.7,79.38a17.55,17.55,0,0,1,15.5-11c1.87-.16,3.73-.14,5.59-.14h66a38.13,38.13,0,0,1,8.79.63c8.57,2,14.13,10.06,13.7,19.16a18.17,18.17,0,0,1-15.19,17,39,39,0,0,1-6.48.45" fill="#2ba5dd"/></g></g></g></g></svg>