<svg id="Layer_1" data-name="Layer 1" xmlns="http://www.w3.org/2000/svg" viewBox="0 0 449.38 380.57"><path d="M113,94.29c-.79,45.76-68.85,45.75-69.63,0C44.17,48.53,112.23,48.54,113,94.29Z" fill="#f1efef"/><path d="M80.71,171c63-39.84,147.27,27.87,115.54,98.15-18.09,41.17-63.79,46-68,46.37C44.5,325.28,7.38,217.12,80.71,171Z" fill="#f1efef"/><path d="M183.88,43.86C314.74-65.23,502.25,123,363.57,257.94c-10.86,12.83-45.78,35.55-69.17,18.94-20.61-16.17,2.87-56.69-20.09-87.72-19.28-29.34-53.48-15.42-83.47-39.41C161.67,121.81,157.05,81.8,183.88,43.86Z" fill="#f1efef"/><g id="freepik--Floor--inject-26"><path d="M16.54,340.36c135.05-.61,286.55-.61,421.61,0C303.09,341,151.59,341,16.54,340.36Z" fill="#273339"/></g><g id="freepik--Graphics--inject-147"><g id="freepik--background-details--inject-147"><path d="M407.85,154.58H256.18a.5.5,0,0,1-.5-.5V49.53a.5.5,0,0,1,.5-.5H407.85a.5.5,0,0,1,.5.5V154.08A.51.51,0,0,1,407.85,154.58Zm-151.17-1H407.35V50H256.68Z" fill="#273339"/><path d="M393.07,64.6A3.88,3.88,0,1,1,397,60.72a3.88,3.88,0,0,1-3.88,3.88Zm0-6.76A2.88,2.88,0,1,0,396,60.72a2.88,2.88,0,0,0-2.88-2.88Z" fill="#273339"/><path d="M384.33,60.72A3.38,3.38,0,1,1,381,57.34a3.38,3.38,0,0,1,3.38,3.38Z" fill="#273339"/><path d="M372.21,60.72a3.38,3.38,0,1,1-3.38-3.38,3.38,3.38,0,0,1,3.38,3.38Z" fill="#273339"/><rect x="266.81" y="72.59" width="131.18" height="72.9" fill="#142230"/></g></g><g id="freepik--Character--inject-147"><g id="freepik--character--inject-147-2" data-name="freepik--character--inject-147"><path d="M288.49,338.83c-1.08-19.23-1.82-32.55-1.82-32.55-68.74,16.65-105.94-10.08-105.94-10.08s-3,18.93-6.82,42.63Z" fill="#273339"/><path d="M288.49,339.33H173.91a.49.49,0,0,1-.38-.18.46.46,0,0,1-.11-.4c3.81-23.7,6.82-42.63,6.82-42.63a.51.51,0,0,1,.3-.38.49.49,0,0,1,.48.05c.38.27,37.83,26.4,105.53,10a.47.47,0,0,1,.41.08.51.51,0,0,1,.2.38s.74,13.31,1.83,32.54a.51.51,0,0,1-.49.53h0Zm-114-1H288c-.93-16.58-1.61-28.66-1.76-31.42-62.89,15-99.78-6.46-105.1-9.86-.62,3.73-3.31,20.64-6.63,41.28Z" fill="#273339"/><g opacity="0.6"><path d="M288.49,338.83c-1.08-19.23-1.82-32.55-1.82-32.55-68.74,16.65-105.94-10.08-105.94-10.08s-3,18.93-6.82,42.63Z" fill="#fff"/><path d="M288.49,339.33H173.91a.49.49,0,0,1-.38-.18.46.46,0,0,1-.11-.4c3.81-23.7,6.82-42.63,6.82-42.63a.51.51,0,0,1,.3-.38.49.49,0,0,1,.48.05c.38.27,37.83,26.4,105.53,10a.47.47,0,0,1,.41.08.51.51,0,0,1,.2.38s.74,13.31,1.83,32.54a.51.51,0,0,1-.49.53h0Zm-114-1H288c-.93-16.58-1.61-28.66-1.76-31.42-62.89,15-99.78-6.46-105.1-9.86-.62,3.73-3.31,20.64-6.63,41.28Z" fill="#273339"/></g><path d="M91.6,150.74c-.1,3.11-2.11,5.91-2.18,9-.06,2.9,1.58,5.54,2.14,8.38.6,3.06,0,6.2.39,9.27a21.79,21.79,0,0,0,1.61,5.75,8.71,8.71,0,0,0,2.76,3.67c2,1.48,4.85,1.42,7.26,1.42a11.06,11.06,0,0,0,7-2,15.76,15.76,0,0,0,3.64-4.92,10.76,10.76,0,0,0,1.71-4.81,7.63,7.63,0,0,0-.6-2.83c-2-4.91-7-8.41-7.84-13.63-.36-2.23.1-4.5.3-6.74s.07-4.69-1.29-6.5c-2.25-3-7.52-3.63-11-3.62C90.42,143.19,91.73,147,91.6,150.74Z" fill="#fff"/><path d="M103,188.74c-2.34,0-4.93-.07-6.91-1.51a9.2,9.2,0,0,1-2.93-3.88,22,22,0,0,1-1.64-5.88,27.26,27.26,0,0,1-.14-4.33,24.43,24.43,0,0,0-.25-4.91,23.73,23.73,0,0,0-1-3.2,11.4,11.4,0,0,1-.06-10,14.56,14.56,0,0,0,1.06-4.31h0v-2c-.07-1.92-.14-3.73,1-4.89a4.59,4.59,0,0,1,3.44-1.13c3.22,0,8.91.47,11.42,3.82,1.22,1.62,1.66,3.79,1.39,6.84-.05.56-.11,1.12-.18,1.67a17.84,17.84,0,0,0-.13,4.95c.46,2.85,2.22,5.16,4.09,7.6a26,26,0,0,1,3.72,5.92,8.15,8.15,0,0,1,.64,3,11.22,11.22,0,0,1-1.77,5,16.54,16.54,0,0,1-3.77,5.08,11.46,11.46,0,0,1-7.31,2.12H103Zm-10.84-38A15.62,15.62,0,0,1,91,155.35a10.4,10.4,0,0,0,.06,9.32,18.21,18.21,0,0,1,1.27,8.47,25.4,25.4,0,0,0,.13,4.18,21.11,21.11,0,0,0,1.57,5.61,8,8,0,0,0,2.6,3.47c1.82,1.32,4.4,1.32,6.67,1.32h.29a10.51,10.51,0,0,0,6.69-1.91,15.33,15.33,0,0,0,3.51-4.78,10.42,10.42,0,0,0,1.65-4.57,7,7,0,0,0-.57-2.64,24.55,24.55,0,0,0-3.59-5.68c-1.85-2.44-3.77-5-4.28-8a18.63,18.63,0,0,1,.13-5.22c.06-.55.13-1.1.17-1.65.25-2.79-.13-4.74-1.19-6.15-2.33-3.11-8.21-3.39-10.62-3.42a3.71,3.71,0,0,0-2.72.82c-.81.85-.76,2.38-.69,4.16,0,.69.06,1.4,0,2.11Z" fill="#273339"/><path d="M98.09,187.68l3.34,26.51s18.88-4.64,24.45-12.09l-10.71-23.56" fill="#fff"/><path d="M101.43,214.69a.48.48,0,0,1-.29-.09.47.47,0,0,1-.21-.35l-3.34-26.51a.49.49,0,0,1,.43-.56.48.48,0,0,1,.55.41v0l3.27,25.94c3.09-.82,18.38-5.14,23.45-11.53l-10.59-23.28a.51.51,0,0,1,.25-.67.51.51,0,0,1,.66.25l10.72,23.56a.55.55,0,0,1-.06.51c-5.61,7.5-24,12.08-24.74,12.27Z" fill="#273339"/><path d="M132.52,203.93l6,13.4L200.26,181,212,165.38,220.07,185l-16.5,38.64a312,312,0,0,1-40.51,24,216.2,216.2,0,0,1-20.65,9.18c-6.73,2.52-13.74,4.24-20.68,6.09a2.15,2.15,0,0,1-1.46,0c-.31-.16-.44-.54-.72-.77-5.08-4.09-17.82-40.55-19.13-52.16Z" fill="#eef9fe" stroke="#273339" stroke-linecap="round" stroke-linejoin="round"/><path d="M298.6,150.86l28.56,40.61a31.6,31.6,0,0,1,1.63,33.76c-11,19.4-28.59,49-37.76,57.56,0,0,4.28,8.76,3.63,12s-6.69,3.9-6.69,3.9l9.29,15.94S246.87,359.18,176,301.31l14.75-51.7L182.93,244l31.33-104.65,32.2-3.46,9.79,25.92,10.57-12.5,10.61,12.5Z" fill="#eef9fe" stroke="#273339" stroke-linecap="round" stroke-linejoin="round"/><path d="M296.46,211.22a.49.49,0,0,1-.47-.34.51.51,0,0,1,.31-.64c8.68-3,16.75-4.31,27.85-4.67a.52.52,0,0,1,.52.49.52.52,0,0,1-.49.51h0c-11,.36-19,1.7-27.56,4.62A.45.45,0,0,1,296.46,211.22Z" fill="#142230"/><path d="M270.19,307.71a.51.51,0,0,1-.5-.52.48.48,0,0,1,.1-.29,47.87,47.87,0,0,1,19.23-15,.5.5,0,0,1,.64.29.51.51,0,0,1-.25.63,46.74,46.74,0,0,0-18.82,14.65A.52.52,0,0,1,270.19,307.71Z" fill="#142230"/><path d="M133.64,238h-.2a.52.52,0,0,1-.27-.66,65.72,65.72,0,0,0,4.66-17.86.5.5,0,1,1,1,.11,67,67,0,0,1-4.73,18.14A.52.52,0,0,1,133.64,238Z" fill="#142230"/><path d="M144.64,232.25h-.06a.5.5,0,0,1-.44-.55A17.49,17.49,0,0,0,141.22,220a.5.5,0,1,1,.81-.58h0a18.5,18.5,0,0,1,3.1,12.39A.52.52,0,0,1,144.64,232.25Z" fill="#142230"/><path d="M203.13,206.57a.48.48,0,0,1-.17,0,.5.5,0,0,1-.31-.62h0c1.32-3.79,10-24.74,13.15-32.23a.5.5,0,0,1,.93.35v0c-3.11,7.28-11.84,28.48-13.13,32.17A.52.52,0,0,1,203.13,206.57Z" fill="#142230"/><path d="M266.82,262.2a.5.5,0,0,1-.49-.37L263,249.33l-52.39-31a.5.5,0,0,1-.17-.69.51.51,0,0,1,.68-.17l52.56,31.09a.5.5,0,0,1,.23.3l2.42,9V247.17a.52.52,0,0,1,.11-.32l22.39-27.61a.51.51,0,0,1,.71-.07.5.5,0,0,1,.08.69h0l-22.28,27.47V261.7a.52.52,0,0,1-.44.5Z" fill="#142230"/><path d="M269.28,296.7a.51.51,0,0,1-.25-.06l-60.76-34a.49.49,0,0,1-.2-.68h0a.51.51,0,0,1,.69-.19l60.49,33.81,14.31-10.18a.5.5,0,1,1,.58.81h0l-14.57,10.37A.56.56,0,0,1,269.28,296.7Z" fill="#142230"/><path d="M202.2,214.7s-10.55,21.91-18.49,24.3l-11.88-15.17-10-12.78-2.55-3.15h0l-.06-.1-10.69-19.29-1.2-2.17-.36-1.58-.85-3.72-.06-.27.15-.45,2-5.57,3.57-4.1v-.15l1.29-6.58.14-.71,3.4-2.1v-.05c-.24-.64-2.75-7.79-.79-11.95a4.65,4.65,0,0,1,2-2.2,5.08,5.08,0,0,1,1.25-.52,1.81,1.81,0,0,1,.32-.46c.31-.35.85-.62,1.48.27h0a5.7,5.7,0,0,1,.68,1.43c.11.27.22.59.33.94a1.92,1.92,0,0,0,.14.49l.17.55c.12.4.25.8.38,1.2,1.84,5.72,5.28,15.44,5.54,16.14h0l8.31,2.74,1,.32.49,1.34,2.9,7.94.19.52.09.64,1.84,15.22.07.07,15.69,15.49Z" fill="#fff"/><path d="M203.13,215.92a.48.48,0,0,1-.34-.14c-14.06-13.14-20.19-19.69-20.25-19.75a.46.46,0,0,1-.13-.29l-.94-9.63a55.87,55.87,0,0,0-2.16-10.4,11.93,11.93,0,0,0-3-5.41c-1.63-1.53-3.69-1.91-5.88-2.32-.81-.15-1.65-.3-2.47-.52a.5.5,0,0,1-.36-.6h0a.49.49,0,0,1,.6-.36h0c.78.21,1.6.36,2.4.51,2.23.41,4.53.84,6.38,2.58a12.87,12.87,0,0,1,3.25,5.84A57.33,57.33,0,0,1,182.46,186l.93,9.46c.9.95,7.1,7.44,20.08,19.58a.5.5,0,0,1-.34.87Z" fill="#273339"/><path d="M171.39,175.84a.51.51,0,0,1-.46-.31c-1.06-2.59-2.14-5.33-3.29-8.38h0c-.41-1.05-.81-2.12-1.2-3.18-1.63-4.39-3-8.82-4.35-13-.13-.39-.26-.8-.38-1.2v-.14a3.52,3.52,0,0,1-.13-.43l-.52-1.6a1,1,0,0,0-.07-.23,2.38,2.38,0,0,0-.43-.8l-.05-.06a.8.8,0,0,0-.92-.11,2.39,2.39,0,0,0-.58.28,4.72,4.72,0,0,0-.81.6,6,6,0,0,0-1.53,2.11l-.1.22c-1.09,2.66-.49,5.9,0,8.27.19,1,.39,2,.61,3.08h0a0,0,0,0,0,0,0c1,4.63,2.27,9.11,3.39,12.88a.5.5,0,0,1-.95.29c-1.13-3.79-2.42-8.29-3.42-13h0c-.23-1-.44-2.07-.63-3.11-.46-2.49-1.1-5.9.1-8.83l.11-.25a7.42,7.42,0,0,1,1.78-2.45,5.84,5.84,0,0,1,1-.71,3.42,3.42,0,0,1,.8-.37,2.08,2.08,0,0,1,.71-.13,1.76,1.76,0,0,1,1.27.53l.06.08a3.76,3.76,0,0,1,.62,1.15l.59,1.84a1.39,1.39,0,0,0,.12.41v.14c.12.4.25.8.38,1.19,1.31,4.16,2.71,8.58,4.34,12.94.39,1.07.79,2.13,1.19,3.18h0c1.16,3,2.23,5.77,3.29,8.35a.51.51,0,0,1-.28.65h0A.47.47,0,0,1,171.39,175.84Z" fill="#273339"/><path d="M153,177.66a.5.5,0,0,1-.48-.36,29.7,29.7,0,0,1-1.22-6.8,12.54,12.54,0,0,1,1.29-6.73l.08-.15a5.69,5.69,0,0,1,3.44-2.34.51.51,0,0,1,.63.36.52.52,0,0,1-.36.64,4.64,4.64,0,0,0-2.86,1.92l-.07.12a11.45,11.45,0,0,0-1.15,6.17,28.79,28.79,0,0,0,1.19,6.57.52.52,0,0,1-.35.62Z" fill="#273339"/><path d="M182.93,237.71a.52.52,0,0,1-.39-.18l-23.65-29.32-.06-.09a190.44,190.44,0,0,1-10.76-19.42c-.66-1.43-1.18-2.67-1.58-3.79a22.62,22.62,0,0,1-.93-3,.33.33,0,0,1,0-.14,3.82,3.82,0,0,1,.06-.82,4.26,4.26,0,0,1,.1-.74,16.66,16.66,0,0,1,2-5.73,12.48,12.48,0,0,1,3.74-4.27.5.5,0,0,1,.69.15.49.49,0,0,1-.14.68h0a11.72,11.72,0,0,0-3.41,3.93,15.57,15.57,0,0,0-1.91,5.4,4.08,4.08,0,0,0-.09.69,3.82,3.82,0,0,0-.06.68,21.41,21.41,0,0,0,.88,2.82c.39,1.09.9,2.31,1.55,3.71a190.55,190.55,0,0,0,10.65,19.23l.07.11L183.3,236.9a.5.5,0,0,1-.07.7A.48.48,0,0,1,182.93,237.71Z" fill="#273339"/><path d="M207,212.52a48.61,48.61,0,0,1-5.1,10.26c-7.56,11.93-18.77,24.6-18.77,24.6-7.15-6.53-17.06-21.66-17.06-21.66,4.91-3,12.77-11.73,17.19-17.32,4.24-5.37,7.31-9.94,7.31-9.94Z" fill="#fff"/><path d="M183.1,247.88a.51.51,0,0,1-.34-.13c-7.11-6.5-17-21.6-17.14-21.76a.43.43,0,0,1-.07-.38.49.49,0,0,1,.22-.32c5-3.06,12.93-12,17.07-17.2s7.25-9.86,7.28-9.9a.49.49,0,0,1,.35-.22.5.5,0,0,1,.39.11l16.44,14.06a.54.54,0,0,1,.15.55A50.18,50.18,0,0,1,202.29,223c-7.49,11.83-18.71,24.54-18.82,24.66a.53.53,0,0,1-.35.17Zm-16.37-22c1.63,2.44,10,14.84,16.33,20.79,1.93-2.21,11.67-13.54,18.39-24.15a48.92,48.92,0,0,0,4.94-9.83l-15.75-13.47c-.9,1.3-3.58,5.16-7,9.5-4.08,5.13-11.81,13.79-16.91,17.15Z" fill="#273339"/><path d="M207,212.52c-1.18,3.46-5.32,9.38-7.44,12.71L182.07,210c4.25-5.37,8.47-11.52,8.47-11.52Z" fill="#95c8ec"/><path d="M91.54,147.49c-.11-1.5-.14-3.28.36-3.89a5.65,5.65,0,0,1,1.91-1.36c6.85-3.57,13.71-7.14,20.79-10.26.62-.27,1.4-.53,2-.12a1.73,1.73,0,0,1,.44,1.61,9.42,9.42,0,0,1-2.51,4.8,23,23,0,0,1-6.16,4.91,19.3,19.3,0,0,0-2.3,1.32,20.33,20.33,0,0,0-2.6,2.48,24.31,24.31,0,0,1-2,1.79" fill="#fff"/><path d="M101.43,149.27a.5.5,0,0,1-.33-.88h0a21.43,21.43,0,0,0,1.94-1.75q.31-.31.6-.63a15,15,0,0,1,2.07-1.91,13.31,13.31,0,0,1,1.79-1.05l.56-.3a22.16,22.16,0,0,0,6-4.81,8.75,8.75,0,0,0,2.4-4.52c0-.26.07-.9-.26-1.15s-1,0-1.44.18c-7.06,3.11-14,6.74-20.76,10.25a5,5,0,0,0-1.75,1.22c-.17.21-.43,1-.25,3.55a.5.5,0,0,1-1,.07c-.16-2.33,0-3.64.47-4.25a6.23,6.23,0,0,1,2.07-1.48c6.75-3.52,13.72-7.15,20.81-10.27a2.41,2.41,0,0,1,2.46-.07,2.16,2.16,0,0,1,.64,2.07,9.65,9.65,0,0,1-2.64,5.07,23.26,23.26,0,0,1-6.29,5l-.57.3a10.51,10.51,0,0,0-3.6,2.77c-.2.22-.41.43-.61.64a23.07,23.07,0,0,1-2,1.83A.51.51,0,0,1,101.43,149.27Z" fill="#273339"/><path d="M97.49,147.56A9.1,9.1,0,0,1,99,147c5-1.51,10.45-1.15,15.5-2.57,2.55-.72,5-1.9,7.7-1.88.8,0,1.89.33,1.8,1.33s-.78,1.4-1.31,2a22.23,22.23,0,0,1-1.88,2,16.82,16.82,0,0,1-4.71,2.9,41.16,41.16,0,0,1-7.8,1.85c-2.56.49-5,1.28-7.51,2-.62.18-1.25.34-1.89.47" fill="#fff"/><path d="M98.91,155.57a.51.51,0,0,1-.49-.4.49.49,0,0,1,.39-.59h0c.56-.11,1.15-.26,1.85-.46l1.52-.44a58.76,58.76,0,0,1,6-1.57l1.71-.31a28.22,28.22,0,0,0,6-1.51,16.42,16.42,0,0,0,4.57-2.81,15,15,0,0,0,1.34-1.42l.5-.57c.1-.12.22-.24.33-.35a2.58,2.58,0,0,0,.85-1.36.59.59,0,0,0-.12-.41,1.71,1.71,0,0,0-1.19-.37,16.71,16.71,0,0,0-5.41,1.18c-.71.24-1.43.48-2.15.68a46.11,46.11,0,0,1-7.64,1.25,41.57,41.57,0,0,0-7.84,1.32,8.28,8.28,0,0,0-1.45.58.5.5,0,0,1-.67-.22.51.51,0,0,1,.22-.68,10.19,10.19,0,0,1,1.61-.64,43.3,43.3,0,0,1,8-1.36,45.2,45.2,0,0,0,7.48-1.21c.71-.2,1.4-.43,2.1-.67a17.92,17.92,0,0,1,5.74-1.23,2.69,2.69,0,0,1,1.92.7,1.51,1.51,0,0,1,.37,1.17,3.28,3.28,0,0,1-1.12,2l-.31.32-.48.56a20.55,20.55,0,0,1-1.43,1.52,17.3,17.3,0,0,1-4.86,3,30.22,30.22,0,0,1-6.21,1.56l-1.69.31c-2,.39-4,1-5.94,1.55l-1.52.44c-.72.21-1.35.36-1.93.48Z" fill="#273339"/><path d="M96.53,154.59a8.67,8.67,0,0,1,3.48-1.71,26,26,0,0,1,7.27,0,72.06,72.06,0,0,0,12.72-.11,5.49,5.49,0,0,1,2.06,0c3.93,1.11-1.37,4.93-2.85,5.57-5.83,2.53-12.73,2.65-19,2.5" fill="#fff"/><path d="M103.34,161.46h-3.12a.5.5,0,0,1-.49-.51h0a.5.5,0,0,1,.51-.49c6.43.16,13.16,0,18.77-2.46,1.19-.51,4-2.67,4-3.83,0-.34-.37-.61-1.05-.8a5.17,5.17,0,0,0-1.84,0,72.57,72.57,0,0,1-12.85.12l-1-.08a22.06,22.06,0,0,0-6.18,0A8.35,8.35,0,0,0,96.82,155a.5.5,0,0,1-.62-.79,9.29,9.29,0,0,1,3.69-1.8,22.62,22.62,0,0,1,6.47-.06l.94.08a72,72,0,0,0,12.63-.11,5.88,5.88,0,0,1,2.25.07c1.41.4,1.75,1.14,1.78,1.69.14,2-3.74,4.46-4.58,4.82C114.53,161,108.91,161.46,103.34,161.46Z" fill="#273339"/><path d="M103.84,161.24s8.32,11,2.26,21.49" fill="#fff"/><path d="M106.1,183.23a.5.5,0,0,1-.44-.75c5.83-10.11-2.14-20.83-2.22-20.93a.51.51,0,0,1,.09-.71.52.52,0,0,1,.71.1h0c.08.11,8.45,11.34,2.29,22A.51.51,0,0,1,106.1,183.23Z" fill="#273339"/><path d="M135.21,207.88s-3.29,5.35-13.72,9.51a70.17,70.17,0,0,1-20.06,4.4l-3.06-21.5s6.7,1.21,16.45-2.93a51.62,51.62,0,0,0,10.32-5.93Z" fill="#fff"/><path d="M101.43,222.29a.49.49,0,0,1-.49-.43l-3.06-21.5a.46.46,0,0,1,.14-.43.51.51,0,0,1,.44-.13c.06,0,6.68,1.12,16.17-2.9A51.8,51.8,0,0,0,124.84,191a.51.51,0,0,1,.4-.09.55.55,0,0,1,.33.23l10.06,16.45a.51.51,0,0,1,0,.53c-.14.22-3.49,5.53-13.95,9.7a71.23,71.23,0,0,1-20.21,4.44ZM99,200.87l2.9,20.38a69.91,69.91,0,0,0,19.45-4.32c8.86-3.54,12.51-8,13.3-9.06L125,192.16a52.18,52.18,0,0,1-10,5.66C106.89,201.27,100.91,201,99,200.87Z" fill="#273339"/><path d="M135.21,207.88s-3.29,5.35-13.72,9.51l-6.67-20a51.62,51.62,0,0,0,10.32-5.93Z" fill="#95c8ec"/><path d="M288.57,95.87S291,97.09,293.44,93s4.55-15.48-.8-16.45C285.41,73,283,78.09,283,78.09l-4.39-15.83s-1.21-14.62-10.47-13.4-14.62,11.45-14.62,11.45l-25.09,1-.73,14.13s-4.14-2.92-5.36.73-1.22,15.84,9,19.73c0,0,4,18.15,16.26,28.08l6,.35-1.33,14.21A24,24,0,0,0,266.37,151c10.24,3.17,19.7-16.76,19.7-16.76S286.31,109.5,288.57,95.87Z" fill="#fff"/><path d="M235.8,63.53a42.68,42.68,0,0,0,14.52,5.88c5.19.88,10.8,0,15-3.11a38.71,38.71,0,0,0,1,10.34c.92,3.25,2.89,6.35,5.9,7.87.32,4,.7,8,1,12.08.27,3.39.42,7.78-.92,10.91a21.85,21.85,0,0,1-7.15,9.38c-3.3,2.45-6,3.35-10.84,6.53-.35.23-.18,1.06.11.76a24,24,0,0,0,12.74-5.06s8.27,16.09,8.49,28.38l10.45-13.32s-.62-28.41,2.95-38.48c0,0,5.14.19,6.48-9.41s-4.47-10.5-4.47-10.5-19.88-29.27-24.79-26.59S235.8,63.53,235.8,63.53Z" fill="#95c8ec"/><path d="M235.8,63.53a42.68,42.68,0,0,0,14.52,5.88c5.19.88,10.8,0,15-3.11a38.71,38.71,0,0,0,1,10.34c.92,3.25,2.89,6.35,5.9,7.87.32,4,.7,8,1,12.08.27,3.39.42,7.78-.92,10.91a21.85,21.85,0,0,1-7.15,9.38c-3.3,2.45-6,3.35-10.84,6.53-.35.23-.18,1.06.11.76a24,24,0,0,0,12.74-5.06s8.27,16.09,8.49,28.38l10.45-13.32s-.62-28.41,2.95-38.48c0,0,5.14.19,6.48-9.41s-4.47-10.5-4.47-10.5-19.88-29.27-24.79-26.59S235.8,63.53,235.8,63.53Z" fill="#f1efef"/><path d="M230.53,95.32h-.12c-4.67-1.09-7.89-4.61-9-9.93-1.06-4.87-.11-10.18,1.37-11.33a2.19,2.19,0,0,1,1.81-.44c2.23.38,4.42,3.73,4.51,3.87a.5.5,0,0,1-.15.69.49.49,0,0,1-.69-.14h0c-.56-.87-2.35-3.18-3.84-3.44a1.27,1.27,0,0,0-1,.25c-1,.76-2.06,5.53-1,10.33.76,3.48,2.81,7.89,8.3,9.17a.5.5,0,0,1,.37.6A.5.5,0,0,1,230.53,95.32Z" fill="#273339"/><path d="M298.21,153.62v.09a67.38,67.38,0,0,1-7.25,8.13h0c-.4.39-.82.77-1.23,1.14a86,86,0,0,1-18.31,12.9l-.15.09-4.43-26.64h0a61.84,61.84,0,0,0,16.67-14.06l.32-.34c.69-.76,1.87-1.84,2.23-2.4,1.22-1.89,1-1.08,1-1.08l-.8-3.79-.42-1.93.45.21C298.24,134.61,298.48,152.08,298.21,153.62Z" fill="#fff"/><path d="M271.25,176.49a.4.4,0,0,1-.22-.06.46.46,0,0,1-.27-.36l-4.44-26.64a.52.52,0,0,1,.14-.43.64.64,0,0,1,.25-.15,103,103,0,0,0,15.84-13.26l1.12-1.2a52.55,52.55,0,0,0,4.16-4.78.5.5,0,0,1,.7-.12.51.51,0,0,1,.12.7,54.8,54.8,0,0,1-4.25,4.88l-1.12,1.2a105.14,105.14,0,0,1-15.91,13.34l4.25,25.57a160.87,160.87,0,0,0,17.77-12.56c.42-.34.83-.7,1.23-1.05,3.59-3.14,6-5.85,7.12-8.08.41-1.64-1.18-18.27-11.34-27a.5.5,0,1,1,.65-.76c10.68,9.14,12.1,26.19,11.65,28v.13c-1.23,2.41-3.7,5.23-7.38,8.45-.4.36-.83.72-1.25,1.07a162.85,162.85,0,0,1-18.37,12.94l-.18.1A.52.52,0,0,1,271.25,176.49Z" fill="#273339"/><path d="M266.82,149.35,255.05,176s-12.4-16.6-12.76-30.41c1.8-7.45,3.74-11.6,11.43-16.11l-.87,5.37S254.27,147.57,266.82,149.35Z" fill="#fff"/><path d="M255.05,176.49a.48.48,0,0,1-.41-.22c-.11-.16-11.47-16.89-12.84-30.64a.33.33,0,0,1,0-.14c2.54-13.72,11.07-16,11.43-16.08a.51.51,0,0,1,.61.37.5.5,0,0,1-.35.6h0c-.09,0-8.25,2.24-10.68,15.22,1.21,11.84,10,26,12.17,29.35l11.23-25.42a59.61,59.61,0,0,1-14.62-16.07.49.49,0,0,1,.16-.69h0a.51.51,0,0,1,.69.16,57.7,57.7,0,0,0,14.67,16,.52.52,0,0,1,.18.62l-11.77,26.63a.51.51,0,0,1-.41.3Z" fill="#273339"/><path d="M298.21,153.5v.1c-1.29,2.52-4,5.4-7.23,8.22v-.08h0c-1.52-13.17-8-25.8-8-25.8l3.88-4.5-.51-5.61C296.77,135.45,298.48,152,298.21,153.5Z" fill="#010101" opacity="0.12" style="isolation:isolate"/><path d="M253,135.11h-.14a.5.5,0,0,1-.35-.61,28.73,28.73,0,0,0,.61-10.12.49.49,0,0,1,.43-.56.5.5,0,0,1,.56.43,29.52,29.52,0,0,1-.63,10.51A.5.5,0,0,1,253,135.11Z" fill="#273339"/><path d="M286.53,132.52a.5.5,0,0,1-.5-.47c-1.11-23.07,2.5-36.37,2.54-36.5a.52.52,0,0,1,.62-.35.51.51,0,0,1,.34.62c0,.13-3.6,13.29-2.51,36.18a.5.5,0,0,1-.46.52h0Z" fill="#273339"/><path d="M248.82,98.65A8.22,8.22,0,0,1,247,98.4c-1.65-.39-3.63-1.06-4.31-2.84a4.54,4.54,0,0,1,.89-4.19c.35-.49.74-.94,1.12-1.38a12.85,12.85,0,0,0,1.33-1.69c1.59-2.58,1.14-5.86.49-9.27a.5.5,0,1,1,1-.19c.66,3.47,1.16,7.1-.62,10a14,14,0,0,1-1.42,1.83,14.77,14.77,0,0,0-1.07,1.3,3.75,3.75,0,0,0-.76,3.25c.51,1.34,2.19,1.89,3.6,2.22a3.76,3.76,0,0,0,2.74-.06.49.49,0,0,1,.69.16.51.51,0,0,1-.16.69h0A3.31,3.31,0,0,1,248.82,98.65Z" fill="#273339"/><path d="M242.34,80.78c.09,1.87-.66,3.42-1.67,3.46s-1.89-1.43-2-3.3.66-3.42,1.67-3.47S242.26,78.91,242.34,80.78Z" fill="#273339"/><path d="M262.9,80.29c.09,1.87-.66,3.42-1.67,3.46s-1.89-1.43-2-3.3S259.89,77,260.9,77,262.82,78.42,262.9,80.29Z" fill="#273339"/><path d="M253.52,106a12.36,12.36,0,0,1-5.36-1.1.51.51,0,0,1-.14-.7h0a.49.49,0,0,1,.68-.14h0a12.73,12.73,0,0,0,7.25.69,10.5,10.5,0,0,0,6.81-4.8.5.5,0,1,1,.84.55,11.43,11.43,0,0,1-7.48,5.23A12.86,12.86,0,0,1,253.52,106Z" fill="#273339"/><path d="M253.88,70.29a.51.51,0,0,1-.4-.2.5.5,0,0,1,.1-.7c4.37-3.21,7.36-3.33,11.86-.49a.51.51,0,0,1,.16.69.5.5,0,0,1-.69.15c-4.17-2.63-6.68-2.52-10.73.45A.57.57,0,0,1,253.88,70.29Z" fill="#273339"/><path d="M235.48,72.08a.5.5,0,0,1-.33-.12.49.49,0,0,1-.07-.69h0A7.13,7.13,0,0,1,244.31,70a.52.52,0,0,1,.12.7.51.51,0,0,1-.69.12,6.1,6.1,0,0,0-7.88,1A.5.5,0,0,1,235.48,72.08Z" fill="#273339"/><path d="M250.57,124.62a22.25,22.25,0,0,1-3.06-.18.43.43,0,0,1-.23-.09c-.27-.22-6.75-5.28-11.93-15.79-8.82-17.87-7.13-43.7-7.11-44a.5.5,0,1,1,1,.07c0,.26-1.69,25.82,7,43.45a47.91,47.91,0,0,0,11.55,15.35,31.05,31.05,0,0,0,10.43-.78c6.47-1.57,12.6-6.64,16.62-10.61a.49.49,0,0,1,.69,0h0a.49.49,0,0,1,0,.68l0,0c-4.1,4.06-10.39,9.24-17.08,10.88A33.91,33.91,0,0,1,250.57,124.62Z" fill="#273339"/><path d="M275.19,112.94a.51.51,0,0,1-.25-.06.51.51,0,0,1-.19-.68c4.95-8.87,6-14.54,6.05-14.59a.5.5,0,0,1,.59-.41.51.51,0,0,1,.41.59c-.05.23-1.13,5.87-6.17,14.89A.51.51,0,0,1,275.19,112.94Z" fill="#273339"/><path d="M288.49,96.21c-2.84,0-3.81-1.71-3.86-1.8a.49.49,0,0,1,.2-.68.51.51,0,0,1,.68.2c0,.08,1.17,1.95,4.91,1,2.32-.58,5.05-6.93,5.13-11.93,0-1.92-.33-5.27-3-6-6.2-1.75-9.46,7.37-9.49,7.46a.51.51,0,0,1-.64.31.5.5,0,0,1-.3-.64c0-.1,3.6-10.09,10.7-8.1,2.48.7,3.82,3.19,3.77,7-.08,5.15-2.81,12.11-5.89,12.88A9.19,9.19,0,0,1,288.49,96.21Z" fill="#273339"/><path d="M284,82.26c-.76,1.61-3.72.19-4.81-1.22a4.17,4.17,0,0,1,0-5c-2.31-.67-4.91-1.71-5.91-3.9a7.28,7.28,0,0,1-.43-3.49c.21-3.21,1-6.41.67-9.61S271.2,52.49,268,51.9c0,0-11,19.69-31.75,11.74,0,0-9.25,4.42-13.46-3.15s1.47-15.57,13.25-20.62c0,0-7.36-.21-7.15-4S247,31,259.62,33.8c0,0-1.49-6.63,14.08-4.74s20.61,6.28,22.52,17.15c11.41,6.22-1.41,31.86-1.41,31.86S288.78,72,284,82.26Z" fill="#142230"/><path d="M227.16,60.85A16.18,16.18,0,0,0,226,74.43l3.21,5-.5-17Z" fill="#273339"/><path d="M295.23,48.23a.38.38,0,0,1-.15,0,.49.49,0,0,1-.32-.63c4.24-13-4.81-19-5.2-19.29a.5.5,0,0,1,.55-.84c.1.06,10.08,6.74,5.6,20.44A.51.51,0,0,1,295.23,48.23Z" fill="#273339"/><path d="M232.74,58.31a13.36,13.36,0,0,1-8.34-2.64.5.5,0,1,1,.5-.87l.11.09c3.1,2.42,7.77,3.07,12.51,1.74,4.1-1.16,7.82-3.53,11.41-5.82l.48-.31c4-2.55,8-4.92,12.36-5.87a20.62,20.62,0,0,1,15.66,3c2.23,1.48,3.41,3.14,3.49,4.92a.51.51,0,0,1-.48.52h0a.47.47,0,0,1-.52-.42v0c-.07-1.45-1.09-2.84-3-4.14A19.87,19.87,0,0,0,262,45.65c-4.24.91-8,3.14-12,5.73l-.48.31c-3.66,2.33-7.44,4.74-11.68,5.94A18.86,18.86,0,0,1,232.74,58.31Z" fill="#fff" opacity="0.2"/><path d="M284.56,46.79a.48.48,0,0,1-.48-.37,12.46,12.46,0,0,0-7.93-7.89c-3.45-1.23-7.61-1.39-12.72-.49-2,.35-4,.83-5.92,1.29-2.25.53-4.58,1.09-6.92,1.45-3.48.55-8.16.53-10.61-2.65a.5.5,0,1,1,.75-.66l0,.05c2.15,2.79,6.45,2.78,9.67,2.27,2.29-.36,4.61-.91,6.84-1.44,2-.46,4-.94,6-1.29,5.29-.94,9.61-.76,13.22.53a13.44,13.44,0,0,1,8.56,8.56.51.51,0,0,1-.35.62h0Z" fill="#fff" opacity="0.2"/></g></g><g id="freepik--progess-bar--inject-147"><g id="freepik--progress-bar--inject-147"><path d="M398.59,344.6H60.25a3.44,3.44,0,0,1-3.43-3.43h0a3.42,3.42,0,0,1,3.43-3.43H398.59a3.43,3.43,0,0,1,3.43,3.43h0A3.45,3.45,0,0,1,398.59,344.6Z" fill="#273339"/><path d="M396.71,341.67h-336a.5.5,0,0,1-.5-.5.5.5,0,0,1,.5-.5h336a.5.5,0,0,1,.5.5A.51.51,0,0,1,396.71,341.67Z" fill="#fff"/><circle cx="80.42" cy="339.7" r="12.98" transform="matrix(0.68, -0.73, 0.73, 0.68, -223.68, 168.28)" fill="#fff"/><path d="M80.43,353.18A13.48,13.48,0,1,1,93.91,339.7,13.48,13.48,0,0,1,80.43,353.18Zm0-26a12.48,12.48,0,1,0,12.48,12.48,12.48,12.48,0,0,0-12.48-12.48Z" fill="#273339"/><path d="M87.29,339.7a6.86,6.86,0,1,1-6.86-6.86h0A6.86,6.86,0,0,1,87.29,339.7Z" fill="#95c8ec"/><path d="M80.43,347a7.36,7.36,0,1,1,7.36-7.36h0A7.38,7.38,0,0,1,80.43,347Zm0-13.72a6.36,6.36,0,1,0,6.36,6.36h0a6.37,6.37,0,0,0-6.36-6.33Z" fill="#273339"/></g></g><rect x="112.34" y="75.23" width="78.08" height="97.66" transform="translate(25.17 273.65) rotate(-89.18)" fill="#ebebeb"/><path d="M200.75,85.77h-1.84l-5.3,0-20-.22-70.52-.89.24-.23c-.33,23.23-.7,49.87-1.09,78.06h0l-.26-.27,97.65,1.44-.22.22c.38-23.52.7-43,.92-56.63.12-6.82.22-12.16.29-15.82,0-1.82.06-3.22.08-4.17s0-1.45,0-1.45v5.53c0,3.65-.09,9-.17,15.78-.16,13.66-.4,33.19-.69,56.76v.22h-.21L102,162.7h-.26v-.26h0c.41-28.19.8-54.82,1.14-78.06v-.23h.24l70.66,1.13,19.94.34,5.26.11h1.34Z" fill="#273339"/><rect x="116.7" y="78.66" width="68.25" height="90.8" transform="translate(24.62 273.09) rotate(-89.18)" fill="#95c8ec"/><rect x="116.7" y="78.66" width="68.25" height="90.8" transform="translate(24.62 273.09) rotate(-89.18)" fill="#fff" opacity="0.3" style="isolation:isolate"/><polygon points="105.43 157.53 137.74 115.56 157.01 142.38 170.53 128.38 196.22 158.82 105.43 157.53" fill="#95c8ec"/><circle cx="158.64" cy="110.69" r="7.15" transform="translate(-13.51 22.46) rotate(-7.77)" fill="#95c8ec"/><rect x="316.62" y="80.78" width="45.12" height="56.44" transform="translate(225.34 446.59) rotate(-89.18)" fill="#ebebeb"/><path d="M367.72,86.89h-4.15L352,86.79l-40.73-.47.24-.22c-.18,13.43-.39,28.82-.62,45.11.06.06-.48-.5-.24-.26h3.94l3.86.06,7.61.11,14.64.22,26.43.41-.22.21c.24-13.56.44-24.81.58-32.69.08-3.93.14-7,.18-9.16,0-1,.05-1.85.06-2.42s0-.84,0-.84V90c0,2.12,0,5.19-.07,9.1-.09,7.92-.21,19.22-.36,32.84v.21h-.22l-26.45-.29L326,131.68l-7.6-.1-3.87-.06h-3.94l-.27-.27c.25-16.29.47-31.68.67-45.11V85.9h.23l40.87.7,11.51.23,3,.07h1.12Z" fill="#273339"/><rect x="319.43" y="82.77" width="39.44" height="52.47" transform="translate(225.3 446.56) rotate(-89.18)" fill="#95c8ec"/><polygon points="312.63 128.35 331.3 104.09 342.44 119.59 350.25 111.5 365.1 129.1 312.63 128.35" fill="#95c8ec"/><path d="M347.52,101.32a4.13,4.13,0,1,1-4.07-4.19,4.14,4.14,0,0,1,4.07,4.19Z" fill="#95c8ec"/><polygon points="312.63 128.35 331.3 104.09 342.44 119.59 350.25 111.5 365.1 129.1 312.63 128.35" fill="#010101" opacity="0.1" style="isolation:isolate"/><g opacity="0.1"><path d="M347.52,101.32a4.13,4.13,0,1,1-4.07-4.19,4.14,4.14,0,0,1,4.07,4.19Z" fill="#010101"/></g><rect x="58.14" y="84.71" width="30.13" height="37.69" transform="translate(-31.39 175.27) rotate(-89.18)" fill="#ebebeb"/><path d="M92.26,88.75a.61.61,0,0,1-.19,0h-2.6l-7.73,0-27.17-.24.23-.23c-.12,9-.25,19.25-.4,30.12l-.25-.26h5.18l5.07.07,9.78.15,17.65.29-.22.21c.18-9,.32-16.54.43-21.81.06-2.62.11-4.68.14-6.12a14.81,14.81,0,0,1,0-1.63,1.58,1.58,0,0,0,0-.57,4.68,4.68,0,0,1,0,.53v7.65c0,5.31-.12,12.86-.2,22v.22h-.21l-17.65-.22-9.78-.13-5.08-.07H54.13l-.26-.26c.17-10.88.32-21.16.46-30.13V88h.24l27.31.51,7.68.17h2.51Z" fill="#273339"/><rect x="60" y="86.02" width="26.34" height="35.04" transform="translate(-31.41 175.22) rotate(-89.18)" fill="#95c8ec"/><polygon points="55.47 116.46 67.94 100.27 75.37 110.62 80.6 105.22 90.51 116.97 55.47 116.46" fill="#95c8ec"/><path d="M78.74,98.42A2.76,2.76,0,1,1,76,95.62,2.77,2.77,0,0,1,78.74,98.42Z" fill="#95c8ec"/><polygon points="55.47 116.46 67.94 100.27 75.37 110.62 80.6 105.22 90.51 116.97 55.47 116.46" fill="#010101" opacity="0.1" style="isolation:isolate"/><g opacity="0.1"><path d="M78.74,98.42A2.76,2.76,0,1,1,76,95.62,2.77,2.77,0,0,1,78.74,98.42Z" fill="#010101"/></g></svg>