<svg id="Layer_1" data-name="Layer 1" xmlns="http://www.w3.org/2000/svg" viewBox="0 0 446.09 367.36"><path d="M108.71,94.29c-.78,45.76-68.85,45.75-69.62,0C39.87,48.53,107.93,48.54,108.71,94.29Z" fill="#f3f4f4"/><path d="M76.41,171c63-39.84,147.27,27.87,115.54,98.15-18.09,41.17-63.78,46-68,46.37C40.2,325.28,3.08,217.12,76.41,171Z" fill="#f3f4f4"/><path d="M179.59,43.86C310.45-65.23,498,123,359.27,257.94c-10.85,12.83-45.78,35.55-69.17,18.94C269.5,260.71,293,220.19,270,189.16c-19.28-29.34-53.48-15.42-83.47-39.41C157.37,121.81,152.75,81.8,179.59,43.86Z" fill="#f3f4f4"/><g id="freepik--Floor--inject-26"><path d="M12.24,340.36c135-.61,286.55-.61,421.61,0C298.79,341,147.29,341,12.24,340.36Z" fill="#273339"/></g><g id="freepik--Device--inject-145"><polygon points="276.09 349.97 249.26 336.43 368.37 336.43 402.93 349.97 276.09 349.97" fill="#2fa5dd"/><path d="M405.87,350.53H276l-29-14.65H368.6Zm-129.65-1.11H400L368.27,337H251.6Z" fill="#142230"/><polygon points="289.04 349.49 266.07 337.89 368.06 337.89 397.66 349.49 289.04 349.49" fill="#fff"/><path d="M400.58,350H288.91l-25.12-12.7H368.3Zm-111.4-1.11H394.72L368,338.45H268.4Z" fill="#273339"/><polygon points="276.09 349.97 402.93 349.97 420.23 268.33 293.4 268.33 276.09 349.97" fill="#2fa5dd"/><path d="M403.41,350.53h-128l17.53-82.75h128ZM276.8,349.42H402.49l17.06-80.54H293.84Z" fill="#273339"/><path d="M342.72,306.66c-3.2,3.18-3.45,8.12-.56,11.08s7.85,2.7,11.09-.48,3.44-8.11.54-11S345.92,303.48,342.72,306.66Z" fill="#fff"/><path d="M347.24,320.3a7.52,7.52,0,0,1-7.65-7.39c0-.23,0-.45,0-.67a9.08,9.08,0,0,1,2.73-6c3.41-3.39,8.71-3.6,11.82-.48s2.86,8.44-.55,11.83A9.09,9.09,0,0,1,347.24,320.3Zm1.45-15.63a8.16,8.16,0,0,0-8,7.62,6.57,6.57,0,0,0,1.85,5c2.68,2.69,7.28,2.48,10.25-.48s3.23-7.56.56-10.25A6.61,6.61,0,0,0,348.69,304.67Z" fill="#273339"/></g><g id="freepik--character-1--inject-145"><path d="M151.4,125.29s-51,27.36-53.15,29.58-14.83,165-14.83,165L238,299s16-71.45,18.94-100.31,2.1-50.12,1.25-52.56-24-14.36-29.32-16.9-13.41-5.55-13.41-5.55Z" fill="#eef9fe" stroke="#142230" stroke-miterlimit="10"/><path d="M83.42,320.47a.59.59,0,0,1-.42-.17.6.6,0,0,1-.2-.5c2.11-27.2,12.77-163.06,15-165.38s48.07-26.89,53.29-29.69a.52.52,0,0,1,.27-.07l64-1.66a.45.45,0,0,1,.23,0c.09,0,8.21,3.06,13.53,5.58,2.76,1.31,28.6,14.29,29.65,17.26.93,2.7,1.65,24.57-1.25,52.83-2.91,28.59-18.79,99.66-18.95,100.38a.64.64,0,0,1-.52.48L83.51,320.46Zm68.14-194.56c-20.46,11-51.32,27.79-52.87,29.4C96.9,158.83,87.61,274,84.1,319.13L237.44,298.4c1.32-5.95,16.06-72.47,18.84-99.81,3-29.75,2-50.18,1.25-52.3s-21-12.77-29-16.5c-5-2.34-12.33-5.13-13.32-5.51Z" fill="#273339"/><path d="M155.82,288.77a.65.65,0,0,1-.56-.34.62.62,0,0,1,.28-.83c25.64-12.9,54.71-41.4,66.06-53.06a.63.63,0,0,1,.9.87h0C208.39,250,181,276.19,156.1,288.7A.55.55,0,0,1,155.82,288.77Z" fill="#142230"/><path d="M224.26,233.3a.56.56,0,0,1-.42-.18.61.61,0,0,1,0-.86h0c2.79-2.92,4.39-4.7,4.42-4.71a.61.61,0,0,1,.87,0,.61.61,0,0,1,.05.82s-1.65,1.8-4.44,4.74A.71.71,0,0,1,224.26,233.3Z" fill="#142230"/><path d="M138.08,285.61a.63.63,0,0,1-.1-1.25,40.64,40.64,0,0,0,9.26-3.33.62.62,0,0,1,.66,1.06l-.13.06a41.86,41.86,0,0,1-9.58,3.45Z" fill="#142230"/><path d="M153.44,279.27a.63.63,0,0,1-.29-1.19c13.07-6.88,28.15-17,28.3-17.06a.63.63,0,1,1,.7,1c-.15.1-15.28,10.21-28.43,17.13A.54.54,0,0,1,153.44,279.27Z" fill="#142230"/><path d="M156.82,300.47s-35.41-17.55-39.79-19.2-22,18.29-22,18.29l71.12,16.55Z" fill="#fff" stroke="#142230" stroke-miterlimit="10"/><path d="M166.15,316.73H166L94.87,300.14a.63.63,0,0,1-.45-.42.65.65,0,0,1,.13-.6c3-3.38,18.16-20.19,22.7-18.46,4.35,1.64,38.4,18.51,39.79,19.22a.63.63,0,0,1,.26.25l9.33,15.63a.62.62,0,0,1,0,.69A.67.67,0,0,1,166.15,316.73Zm-70-17.54,68.68,16L156.38,301c-2.62-1.24-35.42-17.53-39.56-19.1C114,280.8,103,291.61,96.18,299.19Z" fill="#273339"/><path d="M102.74,302.29a.59.59,0,0,1-.36-.11.64.64,0,0,1-.14-.87c.46-.63,11.34-15.5,17-17.64a.62.62,0,0,1,.81.35h0a.6.6,0,0,1-.34.79h0c-5.28,2-16.29,17.08-16.4,17.23A.63.63,0,0,1,102.74,302.29Z" fill="#273339"/><path d="M113.45,304a.61.61,0,0,1-.63-.59.66.66,0,0,1,.12-.38c.38-.56,9.61-13.81,13-16.47a.62.62,0,0,1,.76,1C123.46,290,114,303.58,114,303.67A.58.58,0,0,1,113.45,304Z" fill="#273339"/><path d="M122,305.75a.78.78,0,0,1-.3-.07.62.62,0,0,1-.23-.85c.28-.51,7.06-12.53,11.19-14.92a.62.62,0,0,1,.84.21.63.63,0,0,1-.21.86c-3.8,2.23-10.64,14.35-10.71,14.47A.6.6,0,0,1,122,305.75Z" fill="#273339"/><path d="M143.59,310.65a.61.61,0,0,1-.35-.11l-.78-.54a99.53,99.53,0,0,0-9-5.73c-.76-.26-3.28,1.16-5.17,2.63a.63.63,0,0,1-.87-.1.62.62,0,0,1,.11-.87c.75-.59,4.55-3.47,6.34-2.84a82.31,82.31,0,0,1,9.3,5.88l.79.54a.61.61,0,0,1,.16.86h0A.61.61,0,0,1,143.59,310.65Z" fill="#273339"/><path d="M258.16,146.09s-2.41,9.38-8.52,27.26S239,199.77,239,199.77l-14,85.58-68.08,15.12,9.33,15.64s39.18,3.48,58.87-1.43,28.18-7.46,29.17-9.65,9.89-50.48,9.48-82.9S262.45,143.74,258.16,146.09Z" fill="#eef9fe"/><path d="M194.73,317.91c-15,0-28.4-1.17-28.6-1.24a.64.64,0,0,1-.47-.31l-9.34-15.63a.64.64,0,0,1,0-.57.62.62,0,0,1,.44-.36l67.68-15,14-85.15.06-.19c0-.08,4.65-8.7,10.67-26.33s8.48-27.12,8.51-27.21a.64.64,0,0,1,.3-.4,1.25,1.25,0,0,1,1.24,0c3.54,2.07,4.64,32.11,5.2,76.57.42,32.56-8.41,80.65-9.53,83.15-1,2.3-7.67,4.56-29.59,10C217,317.32,205.46,317.91,194.73,317.91Zm-28.21-2.4c3.73.31,39.91,3.16,58.35-1.43,14.58-3.63,27.76-7.07,28.75-9.31.76-1.68,9.85-50,9.43-82.63-.25-19.89-.91-72.37-4.42-75.4-.57,2.15-3.12,11.36-8.39,26.81A204.31,204.31,0,0,1,239.55,200l-14,85.47a.67.67,0,0,1-.49.51l-67.24,14.92Zm58.38-30.16" fill="#273339"/><path d="M238.94,200.39a.52.52,0,0,1-.34-.1.61.61,0,0,1-.17-.85l20.5-30.59a.61.61,0,0,1,.85-.17h0a.61.61,0,0,1,.17.85l-20.54,30.58A.56.56,0,0,1,238.94,200.39Z" fill="#142230"/><path d="M244,199.25a.64.64,0,0,1-.62-.65.67.67,0,0,1,.12-.36L257.41,180a.62.62,0,0,1,.87-.11.63.63,0,0,1,.13.87L244.51,199A.62.62,0,0,1,244,199.25Z" fill="#142230"/><path d="M249.87,292a.66.66,0,0,1-.48-.22c-6.51-7.7-20.5-6.88-20.64-6.86a.62.62,0,1,1-.08-1.24c.59,0,14.76-.88,21.67,7.29a.63.63,0,0,1-.08.88A.58.58,0,0,1,249.87,292Z" fill="#142230"/><line x1="164.19" y1="298.9" x2="174.87" y2="316.02" fill="none"/><path d="M174.87,316.64a.61.61,0,0,1-.49-.33l-10.67-17.12a.61.61,0,0,1,.17-.85h0a.59.59,0,0,1,.82.17l0,0,10.68,17.12a.59.59,0,0,1-.17.83h0A.48.48,0,0,1,174.87,316.64Z" fill="#273339"/><path d="M228.06,281.19a.62.62,0,0,1-.5-.25.62.62,0,0,1,.12-.87h0c.3-.22,7.4-5.4,19.6-2.2a.64.64,0,0,1-.31,1.25c-11.63-3.06-18.48,1.94-18.54,2A.59.59,0,0,1,228.06,281.19Z" fill="#142230"/><polygon points="200.38 315.18 218.63 317.13 215.21 344.16 196.15 343.17 200.38 315.18" fill="#fff" stroke="#142230" stroke-miterlimit="10"/><path d="M215.21,344.78h0l-19.06-1a.61.61,0,0,1-.57-.72l4.23-28a.62.62,0,0,1,.68-.53l18.24,2a.57.57,0,0,1,.42.22.65.65,0,0,1,.14.48l-3.42,27A.63.63,0,0,1,215.21,344.78Zm-18.34-2.2,17.79.92,3.24-25.81-17-1.83Z" fill="#273339"/><path d="M111.11,147.8S82.2,160.23,80.7,166.45,62.48,239.81,55.63,275.06s-9.3,59.69-7.05,61.17,39,7.46,83.07,9.21,62.55,2.43,64.46.49,5.31-29.27,4.27-30.78-99.9-18.34-99.9-18.34,25.45-85.8,25.43-89.17-13.07-26.28-18.18-32.54" fill="#eef9fe" stroke="#142230" stroke-miterlimit="10"/><path d="M184.32,347.73c-9.63,0-26-.61-52.63-1.64-43.71-1.7-80.83-7.71-83.39-9.31-3.19-2.06,1.25-33.49,6.78-61.82,4.05-20.8,12.15-55.95,24.06-104.51l1-4.13c1.53-6.36,27.78-17.8,30.78-19.1a.62.62,0,0,1,.8.36.64.64,0,0,1-.32.79c-8,3.43-28.88,13.38-30,18.25-.16.69-.51,2.1-1,4.13-11.93,48.49-20,83.66-24.06,104.45-7.24,37.3-8.9,59.1-7.31,60.53,1.94,1.24,38,7.37,82.75,9.12,41.46,1.6,62.27,2.41,64,.65,1.52-1.52,5.07-26.92,4.21-29.84-3.65-1.5-61.22-11.64-99.47-18.15a.66.66,0,0,1-.42-.29.65.65,0,0,1,0-.51c7.07-23.84,25.42-86.28,25.4-89,0-3.05-12.67-25.58-18-32.15a.59.59,0,0,1,.07-.85v0a.61.61,0,0,1,.86.08h0c5.16,6.29,18.31,29.38,18.33,32.92,0,3.33-22.7,80.06-25.25,88.69,37.09,6.32,98.58,17,99.61,18.48,1.36,1.93-2.49,29.65-4.33,31.56C195.64,347.31,192.23,347.73,184.32,347.73Z" fill="#273339"/><path d="M71.56,307.78a.64.64,0,0,1-.39-.18.61.61,0,0,1,0-.86h0c12.12-12.75,29.3-10.53,29.47-10.5a.62.62,0,0,1-.17,1.23c-.18,0-16.73-2.15-28.39,10.13A.64.64,0,0,1,71.56,307.78Z" fill="#273339"/><path d="M62,315.39h-.16a.63.63,0,0,1-.43-.77c1.92-7,9.35-14.53,9.66-14.85a.63.63,0,0,1,.88,0,.62.62,0,0,1,0,.88h0c-.07.08-7.46,7.58-9.34,14.3A.62.62,0,0,1,62,315.39Z" fill="#273339"/><path d="M218.63,317.13s38.2-12.85,40.77-11.11,17.35,14.35,17.52,16.17-.28,6.5-1.71,7.19a32.78,32.78,0,0,1-4.08,1.41s-4.09,13.78-5.78,15.09-6.68,2.48-9.05,2.88-41-4.62-41-4.62Z" fill="#fff" stroke="#142230" stroke-miterlimit="10"/><path d="M255.9,349.42c-4.91,0-37-4.15-40.76-4.65a.63.63,0,0,1-.55-.69h0l3.42-27a.65.65,0,0,1,.42-.51c9-3,38.7-12.79,41.32-11,1.9,1.25,17.56,14.29,17.8,16.66.12,1.32-.09,6.86-2.08,7.8a30.77,30.77,0,0,1-3.84,1.37c-.89,2.92-4.22,13.75-5.9,15.07s-6.87,2.57-9.32,3A2.9,2.9,0,0,1,255.9,349.42Zm-40-5.76c15.53,2,38.55,4.82,40.29,4.56,2.71-.49,7.29-1.61,8.77-2.77,1-.82,3.88-9.13,5.56-14.77a.63.63,0,0,1,.43-.42,34.5,34.5,0,0,0,4-1.38c1-.46,1.57-4.49,1.37-6.57-.42-1.67-14.25-13.67-17.24-15.74-1.82-.89-21.81,5-39.86,11.07Z" fill="#273339"/><path d="M271.13,331.44a.6.6,0,0,1-.53-.3c-1.25-2-3.54-5.48-4.58-6-1.54-.82-10.47-4.08-10.56-4.12a.62.62,0,0,1-.35-.8.63.63,0,0,1,.78-.37c.37.14,9.11,3.32,10.71,4.2s4.72,5.93,5.06,6.5a.62.62,0,0,1-.22.84A.56.56,0,0,1,271.13,331.44Z" fill="#273339"/><path d="M268.36,337.12a.61.61,0,0,1-.46-.21c-3.21-3.65-13.68-5.62-13.76-5.64a.6.6,0,0,1-.5-.68.06.06,0,0,1,0,0,.62.62,0,0,1,.72-.5c.45.07,11,2.06,14.46,6a.63.63,0,0,1,0,.88A.58.58,0,0,1,268.36,337.12Z" fill="#273339"/><path d="M264.68,343.51a41,41,0,0,1-11.49-2.35.62.62,0,0,1,.42-1.16c.09,0,8.83,3.13,13.3,2.05a.64.64,0,1,1,.29,1.24A10.19,10.19,0,0,1,264.68,343.51Z" fill="#273339"/><polygon points="172.35 174.07 182.42 191.22 166.69 309.3 177.88 328.56 198.99 306.91 186.95 191.32 198.7 169.48 185.67 159.25 172.35 174.07" fill="#fff" stroke="#142230" stroke-miterlimit="10"/><path d="M177.88,329.17h-.07a.67.67,0,0,1-.46-.3l-11.19-19.26a.8.8,0,0,1-.08-.4l15.76-117.87-10-17a.62.62,0,0,1,.06-.73l13.33-14.81a.64.64,0,0,1,.85-.08l13,10.22a.64.64,0,0,1,.16.79l-11.65,21.67,12,115.39a.64.64,0,0,1-.17.5L178.37,329A.65.65,0,0,1,177.88,329.17Zm-10.54-20L178,327.5l20.33-20.85-12-115.3a.57.57,0,0,1,.07-.36l11.5-21.37-12.16-9.54-12.61,14.06L183,190.89a.7.7,0,0,1,.09.4Z" fill="#273339"/><path d="M157.9,117.89l-9.14,5s-.09,17.92,4.75,33.76,9.18,26.45,9.18,26.45l23.75-12.81L209.83,185s3.19-16.83,1.71-32.21-7.93-32.33-7.93-32.33S170.56,111.76,157.9,117.89Z" fill="#c9ebf9" stroke="#142230" stroke-miterlimit="10"/><path d="M209.83,185.66a.67.67,0,0,1-.34-.1l-23.08-14.5L163,183.69a.53.53,0,0,1-.49,0,.67.67,0,0,1-.38-.34c0-.1-4.4-10.82-9.19-26.51s-4.77-33.76-4.77-33.95a.64.64,0,0,1,.32-.54l9.14-5h0c12.71-6.22,44.77,2.16,46.13,2.48a.63.63,0,0,1,.43.38c.06.17,6.5,17.26,8,32.54s-1.69,32.2-1.73,32.33a.58.58,0,0,1-.36.44A.6.6,0,0,1,209.83,185.66Zm-23.39-15.94a.47.47,0,0,1,.32.1L209.38,184c.62-3.73,2.81-18,1.54-31.09-1.34-14-6.91-29.57-7.78-31.92-3.38-.86-33.28-8.17-44.95-2.49l-8.81,4.87c0,2.62.35,18.87,4.73,33.21,4.1,13.45,7.89,23.23,8.89,25.76l23.14-12.43A.63.63,0,0,1,186.44,169.72Z" fill="#273339"/><path d="M166.8,141.58s4.26,9.69,7.13,14.5,12.51,14.26,12.51,14.26,9.72-14.65,11.59-17.2l1.86-2.56s-12.53,1.18-15.32.39S166.8,141.58,166.8,141.58Z" fill="#273339"/><path d="M186.44,171a.66.66,0,0,1-.44-.17c-.39-.4-9.73-9.56-12.61-14.39s-7.11-14.47-7.15-14.57a.61.61,0,0,1,.15-.71.64.64,0,0,1,.73-.09c5.16,3,15.48,8.71,17.63,9.34s11.62-.07,15.08-.41a.65.65,0,0,1,.6,1l-1.87,2.55c-1.83,2.49-11.48,17-11.56,17.19a.67.67,0,0,1-.46.27Zm-18.28-27.9c1.35,3,4.21,9.2,6.32,12.71,2.41,4,9.81,11.54,11.87,13.6,1.9-2.87,9.54-14.34,11.19-16.6l1.05-1.44c-3.36.27-11.84.9-14.18.23S172.15,145.32,168.16,143.06Z" fill="#142230"/><path d="M224,83.92s-4.88,25.49-4.8,28.89,2.27,13.75.76,17.7-18.35,21-23.62,25.12-12.9,3.73-17,.29-18.1-18.38-20.41-22.65S154,117.69,154,117.69a28.69,28.69,0,0,1-10.66-10c-4-6.62-6.05-11.19-.68-14.3l-2.48-28.07s9.27-9.42,31.22-7.74S224,83.92,224,83.92Z" fill="#fff" stroke="#142230" stroke-miterlimit="10"/><path d="M187.46,159.24a13.66,13.66,0,0,1-8.61-2.85c-4-3.38-18.18-18.41-20.56-22.82-2.14-4-4.39-13.68-4.82-15.46a29.25,29.25,0,0,1-10.65-10c-2.56-4.29-4.62-8.1-3.82-11.2a6.35,6.35,0,0,1,3-3.73l-2.48-27.69a.61.61,0,0,1,.17-.48c.4-.4,9.74-9.6,31.72-7.91S224,83.22,224.29,83.47a.64.64,0,0,1,.22.61c0,.25-4.87,25.45-4.78,28.75,0,1,.22,2.49.46,4.39.62,4.72,1.38,10.61.24,13.55-1.55,4.08-18.57,21.29-23.82,25.39A15,15,0,0,1,187.46,159.24ZM140.87,65.6l2.48,27.77a.64.64,0,0,1-.3.6,5.39,5.39,0,0,0-2.79,3.2c-.69,2.64,1.24,6.22,3.73,10.24a28.56,28.56,0,0,0,10.4,9.73.6.6,0,0,1,.34.43c0,.11,2.49,11.26,4.75,15.4s16.39,19.22,20.27,22.47c3.73,3.09,10.93,3.85,16.24-.3,5.61-4.37,22.06-21.23,23.44-24.86,1-2.65.23-8.61-.33-13-.23-1.88-.44-3.49-.47-4.51-.09-3.25,4.12-25.38,4.74-28.6-3.18-2.49-31.5-24.37-51.87-25.94-19.73-1.54-29.17,6-30.63,7.32Z" fill="#273339"/><path d="M152,99.08l5.23,12.43,3.11.35-1.62-9.43s12.43-6.64,13-7.15-2.73-16.16-2.87-17.6.78-6.59,18.34-1.32,18.17,11.58,26.85,13.12,9.52-1.88,9.52-1.88,9.45,2.24,14.7-4.8S228,67.47,228,67.47s2.49-13.23-3.73-19-11.83,0-11.77.78S190,34,178.79,33.25s-36.53,16.47-40.91,25.18,4.79,35,4.79,35S148.39,91.24,152,99.08Z" fill="#142230"/><path d="M160.33,112.44h-.08l-3.11-.34a.66.66,0,0,1-.51-.38l-5.21-12.43c-3.29-7.18-8.3-5.4-8.51-5.32a.6.6,0,0,1-.49,0,.66.66,0,0,1-.32-.36c-.38-1.09-9.2-26.66-4.77-35.5,4.31-8.56,29.55-26.27,41.52-25.52,8.56.55,23.29,9.62,30.38,14,1.24.74,2.39,1.47,3,1.81a8.41,8.41,0,0,1,2.86-2.3c1.87-.92,5.6-1.9,9.65,1.86,5.83,5.42,4.38,16.73,4,19.16,1.9,1.07,9.95,5.88,11.1,11.19a5.66,5.66,0,0,1-1.05,4.8c-4.73,6.34-12.79,5.47-14.85,5.12-.66,1-2.87,3.07-9.95,1.81-4-.73-6.3-2.38-9.22-4.48a52.87,52.87,0,0,0-17.69-8.71c-11.57-3.48-15.44-2.23-16.72-1.24a2.12,2.12,0,0,0-.83,1.85c0,.41.41,2.25.82,4.38,2.48,12.68,2.36,13.36,1.83,13.78s-10,5.52-12.75,7l1.54,9a.58.58,0,0,1-.16.53A.59.59,0,0,1,160.33,112.44Zm-2.69-1.54,1.93.21-1.47-8.59a.58.58,0,0,1,.31-.64c4.65-2.49,11.61-6.22,12.81-7,.09-1.38-1.34-8.7-2.13-12.65-.51-2.58-.79-4-.83-4.49a3.38,3.38,0,0,1,1.24-3c2.6-2.14,8.62-1.8,17.86,1a53.56,53.56,0,0,1,18.1,8.85c2.8,2,5,3.6,8.71,4.26,7.86,1.4,8.81-1.41,8.83-1.45a.62.62,0,0,1,.73-.43c.1,0,9.13,2,14.06-4.56a4.44,4.44,0,0,0,.84-3.8c-1.25-5.38-10.78-10.57-10.87-10.62a.62.62,0,0,1-.33-.66c0-.13,2.38-13-3.53-18.45a7.23,7.23,0,0,0-6.76-2.2,6.81,6.81,0,0,0-4,2.59.64.64,0,0,1-.3.47c-.44.29-.51.24-4.3-2.09-6.44-4-21.55-13.28-29.84-13.8-10.56-.69-35.84,15.93-40.31,24.87-3.87,7.69,3.37,30.2,4.63,34,1.68-.33,6.38-.6,9.47,6.14h0Z" fill="#273339"/><path d="M183.8,126.21c-5.73,0-10.41-2.28-11.56-5-1.25-2.9-2.81-12-2.89-12.44a.66.66,0,0,1,.44-.71c.11,0,11.6-3.44,32.27-3.65a.62.62,0,0,1,.51.25.61.61,0,0,1,.08.57s-1.87,5.49-3.73,10.16l-.57,1.43c-1.53,4-2.86,7.46-10.06,8.87A21.82,21.82,0,0,1,183.8,126.21Zm-13.15-17c.36,2,1.69,9.2,2.69,11.58,1.11,2.6,7.22,5.31,14.63,3.79,6.53-1.33,7.63-4.16,9.15-8.11l.57-1.45c1.44-3.55,2.87-7.56,3.46-9.27C183.72,106,173.13,108.52,170.65,109.16Z" fill="#142230"/><path d="M211.31,121.3c-2,0-3.73-.5-4.67-2s-5-13.46-5.16-14a.65.65,0,0,1,0-.51.66.66,0,0,1,.41-.3c.2,0,19.8-4.31,25.57-5.29a.66.66,0,0,1,.51.13.62.62,0,0,1,.22.48A34.42,34.42,0,0,1,226.75,110c-1.59,4.5-5,8.58-8,9.71A24.42,24.42,0,0,1,211.31,121.3Zm-8.43-15.77c1.33,3.82,4.21,12,4.85,13.11,1.43,2.55,7.58,1.07,10.63-.07,2.72-1,5.78-4.78,7.26-9a31.69,31.69,0,0,0,1.35-9.08c-5.78,1-20.71,4.28-24.09,5Z" fill="#142230"/><path d="M227.61,100.42a.62.62,0,0,1-.41-.16l-6-5.32a.63.63,0,0,1,.83-.94l6,5.33a.62.62,0,0,1,.07.87.64.64,0,0,1-.48.22Z" fill="#273339"/><path d="M170,109.34a.74.74,0,0,1-.3-.08l-18-9.64a.61.61,0,0,1-.26-.82h0a.61.61,0,0,1,.82-.27h0l18,9.64a.61.61,0,0,1,.25.84A.62.62,0,0,1,170,109.34Z" fill="#273339"/></g><rect x="321.03" y="80.43" width="46.98" height="43.58" rx="12" fill="#fff"/><path d="M317.44,84.94a17.13,17.13,0,0,1,.87-2.68,8,8,0,0,1,7.16-4.65c.93,0,1.86,0,2.84,0V75.7a2.08,2.08,0,1,1,4.14,0v1.88h9.32c0-.68,0-1.38,0-2.08a2.07,2.07,0,0,1,4.13,0c0,.67,0,1.35,0,2.06h9.42c0-.69,0-1.39,0-2.09a2.06,2.06,0,0,1,3.16-1.68,2,2,0,0,1,1,1.73c0,.67,0,1.34,0,2.08h1.76a10.11,10.11,0,0,1,3.82.53,8.2,8.2,0,0,1,5.37,7.42c.06,4,0,8.07,0,12.11a2.06,2.06,0,1,1-4.12-.05c0-3.83,0-7.66,0-11.48a4.17,4.17,0,0,0-3.87-4.35c-1-.07-1.93,0-3,0V83.6a2.08,2.08,0,1,1-4.14,0V81.77H345.9v1.69c0,1.46-.81,2.4-2,2.41a2.12,2.12,0,0,1-2.09-2.38V81.76h-9.31c0,.68,0,1.38,0,2.08a2.07,2.07,0,0,1-4.13-.06c0-.67,0-1.33,0-2.1a27.09,27.09,0,0,0-3.54.2,4,4,0,0,0-3.18,3.9c0,.14,0,.28,0,.41v31.66a4,4,0,0,0,2.35,4,5.15,5.15,0,0,0,2.09.43c5.09,0,10.18,0,15.27,0a2.28,2.28,0,0,1,1.74.63,2.05,2.05,0,0,1-.59,3.3l-.47.21H324.79a1.09,1.09,0,0,0-.23-.09,8,8,0,0,1-6.3-4.68,18,18,0,0,1-.82-2.58Z" fill="#162143"/><path d="M358.53,126.36a29.1,29.1,0,0,1-3.09-.78,10.86,10.86,0,0,1-6.79-11.83,10.48,10.48,0,0,1,7.42-8.69,10.91,10.91,0,0,1,13.81,13.5,10.53,10.53,0,0,1-8.61,7.63l-.93.17Zm8.23-10.94a7.32,7.32,0,1,0-7.33,7.33A7.35,7.35,0,0,0,366.76,115.42Z" fill="#162143"/><circle cx="359.48" cy="115.58" r="9.44" fill="#fff"/><path d="M331.19,94.67a2.29,2.29,0,1,1-2.3-2.3A2.29,2.29,0,0,1,331.19,94.67Z" fill="#f37366"/><path d="M338.9,97a2.29,2.29,0,1,1,2.28-2.32A2.3,2.3,0,0,1,338.9,97Z" fill="#f37366"/><path d="M351.16,94.67a2.29,2.29,0,1,1-2.29-2.3A2.29,2.29,0,0,1,351.16,94.67Z" fill="#f37366"/><path d="M358.86,97a2.29,2.29,0,1,1,0-4.58,2.29,2.29,0,0,1,0,4.58Z" fill="#f37366"/><path d="M328.88,102.36a2.29,2.29,0,1,1-2.27,2.32A2.29,2.29,0,0,1,328.88,102.36Z" fill="#2fa5dd"/><path d="M338.9,106.94a2.29,2.29,0,1,1,2.28-2.32A2.31,2.31,0,0,1,338.9,106.94Z" fill="#f37366"/><path d="M331.19,114.68a2.29,2.29,0,1,1-2.26-2.34A2.3,2.3,0,0,1,331.19,114.68Z" fill="#2fa5dd"/><path d="M338.89,116.92a2.29,2.29,0,1,1,2.29-2.31A2.31,2.31,0,0,1,338.89,116.92Z" fill="#2fa5dd"/><path d="M359.89,115.36c.29,0,.53,0,.76,0a1.48,1.48,0,0,1,1.39,1.5,1.46,1.46,0,0,1-1.4,1.45c-.77,0-1.55,0-2.33,0a1.42,1.42,0,0,1-1.37-1.39c0-1.06,0-2.13,0-3.19a1.45,1.45,0,0,1,1.47-1.41,1.48,1.48,0,0,1,1.48,1.41C359.91,114.26,359.89,114.78,359.89,115.36Z" fill="#f37366"/></svg>