<svg id="Layer_1" data-name="Layer 1" xmlns="http://www.w3.org/2000/svg" viewBox="0 0 446.09 367.36"><path d="M108.71,94.29c-.78,45.76-68.85,45.75-69.62,0C39.87,48.53,107.93,48.54,108.71,94.29Z" fill="#f3f4f4"/><path d="M76.41,171c63-39.84,147.27,27.87,115.54,98.15-18.09,41.17-63.78,46-68,46.37C40.2,325.28,3.08,217.12,76.41,171Z" fill="#f3f4f4"/><path d="M179.59,43.86C310.45-65.23,498,123,359.27,257.94c-10.85,12.83-45.78,35.55-69.17,18.94C269.5,260.71,293,220.19,270,189.16c-19.28-29.34-53.48-15.42-83.47-39.41C157.37,121.81,152.75,81.8,179.59,43.86Z" fill="#f3f4f4"/><g id="freepik--Floor--inject-26"><path d="M12.24,340.36c135-.61,286.55-.61,421.61,0C298.79,341,147.29,341,12.24,340.36Z" fill="#273339"/></g><g id="freepik--character-1--inject-2"><path d="M208.58,201.66l-11.73,43-51.41-51.45L164.1,338.48h61.18l17.83.86s-2.64-23.91-3.73-37.43A151.13,151.13,0,0,0,234,270C224.82,240.31,208.58,201.66,208.58,201.66Z" fill="#fafbfc" stroke="#142230" stroke-miterlimit="10"/><path d="M194.77,268.83c-.15.19,6.77,5.75,15.46,12.43s15.82,11.92,16,11.74-6.75-5.78-15.46-12.44S194.93,268.62,194.77,268.83Z" fill="#273339"/><polygon points="88.26 180.74 121.58 164.72 134.66 149.19 153.14 168.39 202.16 338.05 118.1 338.05 107.33 308.94 88.26 196.53 88.26 180.74" fill="#fef1f0" stroke="#142230" stroke-miterlimit="10" stroke-width="0.5"/><path d="M238.22,340.46l2.25-36.08L138.93,287.21s-17.35-83.79-28-97.52C101,177,88.17,181.41,88.17,181.41s-11.59,7.94-8.83,38.32c1.46,15.93,7.29,71.1,9.38,91a31.92,31.92,0,0,0,4.64,13.45h0a31.85,31.85,0,0,0,27,15Z" fill="#fef1f0" stroke="#142230" stroke-miterlimit="10" stroke-width="0.5"/><path d="M122.34,308.21c.15,0,.29-1.59,1-4a24.23,24.23,0,0,1,12.52-14.86c2.3-1.15,3.88-1.54,3.83-1.72a11.26,11.26,0,0,0-4.09,1.14A22.19,22.19,0,0,0,122.77,304,11.29,11.29,0,0,0,122.34,308.21Z" fill="#273339"/><g opacity="0.2"><path d="M124.19,167.16a157.27,157.27,0,0,0,6.07,31.28l7.62-2.24A19.87,19.87,0,0,0,135.62,212a59.1,59.1,0,0,0,6.59,15q18.9,34,37.9,68.09L141.9,208.31l1-16-7.35-1.56Z" fill="#010101"/></g><g opacity="0.2"><path d="M139.26,286.3a20.28,20.28,0,0,0-20.77,15,5.19,5.19,0,0,0,0,3.26,2.2,2.2,0,0,0,2.66,1.36,3.46,3.46,0,0,0,1.48-2,31,31,0,0,1,17.66-16.44" fill="#010101"/></g><path d="M179.83,294.23a11.57,11.57,0,0,0-.51-1.39l-1.72-3.93-6.17-14.35-20.71-47.22c-3-6.69-5.81-13.15-8.49-19.2v.19c.33-5.7.65-11.06.94-16V192h-.3l-7.37-1.53.24.19-9.16-18.53L124,167l-.7-1.31a3.91,3.91,0,0,0-.26-.44,1.62,1.62,0,0,0,.17.48l.6,1.35c.59,1.26,1.38,3,2.39,5.16l8.88,18.67v.15h.17l7.36,1.6-.31-.39q-.47,7.44-1,16v.21l8.46,19.22,20.94,47.12c2.7,5.94,4.88,10.78,6.44,14.24l1.72,3.84A9.52,9.52,0,0,0,179.83,294.23Z" fill="#273339"/><path d="M238.3,339.32q.06-.3.09-.6a8.81,8.81,0,0,1,.13-1.72c.12-1.61.3-3.88.5-6.87.4-5.92,1-14.43,1.72-24.89V305h-.27L167,291.45l-27.09-4.91.34.32c-6-22.62-11.11-42.25-14.82-56.3-1.85-6.87-3.43-12.49-4.38-16.37-.53-1.88-.93-3.34-1.22-4.38l-.33-1.14-.13-.36a.9.9,0,0,0,0,.4l.25,1.13c.26,1.07.62,2.54,1.09,4.42l4.14,16.43c3.62,14.07,8.69,33.74,14.51,56.38v.27h.28l27.15,5,73.49,13.23-.28-.35c-.57,10.48-1,19-1.36,24.93-.13,2.9-.24,5.15-.3,6.78v1.72A2.81,2.81,0,0,0,238.3,339.32Z" fill="#273339"/><path d="M93.38,177.94c0,.16,1.72.42,4.29,1.38A27.35,27.35,0,0,1,113,193.68c1.14,2.52,1.5,4.24,1.72,4.19s0-.43-.12-1.22a17.15,17.15,0,0,0-1-3.21A25.25,25.25,0,0,0,98,178.72a18.41,18.41,0,0,0-3.27-.74C93.83,177.89,93.4,177.87,93.38,177.94Z" fill="#273339"/><path d="M285.35,139.76c-3-5.55-1.72-27.95-6.3-27.16-5.93,1-.45,24.56,0,26.71s-2.74,2.66-3,.72c-.34-2.8-3.78-30.19-9.6-28.65-3.23.84-1.72,6.74-1.72,6.74s5,26.55,2.23,27.19-4.89-14.67-6.13-20.24-4.67-7.64-6-4.82c-1.93,4.12,1.71,17.5,2.88,22.86s3.88,20.9-3.66,14.82-15.46-8-18-7-1.94,4.81.95,5.57a36.38,36.38,0,0,1,8.58,4.6,34.11,34.11,0,0,1,5.71,5.36,30.11,30.11,0,0,1,5.39,8.38,18.83,18.83,0,0,0,11.44,10.31h0l4.4,20.92L301,200l-6.34-22.14c-2.32-14.55-1.05-34.1-1.07-42.94,0-14.19-1.87-14.29-3.43-13.92C286.36,121.72,288.29,145.17,285.35,139.76Z" fill="#fcd1be" stroke="#142230" stroke-miterlimit="10" stroke-width="0.5"/><path d="M286.16,158.79a33.24,33.24,0,0,0-3.8,1.72,16,16,0,0,0-6.42,7.59,18.24,18.24,0,0,0-.86,3l-.09.48-.41-.22a23.46,23.46,0,0,0-7.37-2.8c-1.94-.38-3.14-.41-3.14-.52a9.61,9.61,0,0,1,3.21,0,21.63,21.63,0,0,1,7.64,2.63l-.5.26a15.77,15.77,0,0,1,.88-3.16,16.61,16.61,0,0,1,3.13-4.88,15.32,15.32,0,0,1,3.71-2.89,13,13,0,0,1,2.88-1.15A3.64,3.64,0,0,1,286.16,158.79Z" fill="#142230"/><path d="M289.94,178.72A25,25,0,0,1,276,183.06c0-.2,3.25-.58,7.1-1.8S289.85,178.53,289.94,178.72Z" fill="#142230"/><polygon points="186.84 158.1 208.59 201.66 196.85 244.59 165.61 211.58 134.81 154.36 186.84 158.1" fill="#fcd1be"/><path d="M207.31,162.19s30.92,11,30.92,13h0c5.46,4.28,23.66,48.27,29.44,56.58l16.56,24.48h0l-13.88-54.18,30.53-9S327,256.05,330.11,270a51.51,51.51,0,0,1-.51,25.16l-.17-.13A29,29,0,0,1,318,310.43c-12.94,8.3-25,9.86-37.4.72-7-5.15-15-11.42-22.33-17.26l-1.92,45.48H239.49c0-2.56.51-33.72.51-33.72a174.63,174.63,0,0,1-5.15-22.48c-1.53-10.72-26.64-81.11-26.64-81.11l-19.46-37.55-.47-13.9Z" fill="#fef1f0" stroke="#142230" stroke-miterlimit="10" stroke-width="0.5"/><path d="M256.7,339a9.62,9.62,0,0,0,.14-1.41c.06-1,.15-2.37.25-4.07.19-3.64.45-8.76.78-15.08.58-12.87,1.37-30.58,2.26-50.43v-.11c-.36-1.87-.75-3.88-1.15-5.91-4.07-20.85-7.78-39.74-10.48-53.5l-3.28-16.18c-.37-1.86-.7-3.32-.92-4.4l-.26-1.13a2.4,2.4,0,0,0-.12-.38.86.86,0,0,0,0,.39l.19,1.15.77,4.43,3,16.25c2.63,13.75,6.23,32.64,10.31,53.56.37,2,.77,4,1.13,5.89V268c-.79,19.86-1.5,37.58-2,50.43-.21,6.34-.38,11.46-.5,15.1,0,1.72,0,3.08-.11,4.09A9.48,9.48,0,0,0,256.7,339Z" fill="#273339"/><path d="M239.4,298.61a8.45,8.45,0,0,0-.15-1.42c-.16-1-.35-2.36-.61-4.06-.6-3.6-1.42-8.59-2.43-14.91-2.15-12.64-5.16-30-8.35-49.11-2.18-12.52-4.23-24.27-6-34.35v-.1c-4.29-9.73-7.88-17.85-10.43-23.64-1.25-2.78-2.26-5-3-6.61l-.8-1.72a3,3,0,0,0-.33-.58,2.59,2.59,0,0,0,.21.61c.19.49.41,1.07.7,1.72.69,1.62,1.62,3.87,2.78,6.68,2.49,5.83,6,14,10.14,23.78h0c1.72,10,3.71,21.78,5.86,34.35,3.43,19.14,6.39,36.43,8.58,49.08,1.14,6.2,2.05,11.25,2.72,14.84l.77,4A11.06,11.06,0,0,0,239.4,298.61Z" fill="#273339"/><path d="M298.68,293.56c.12-.08-1.2-2-3.06-5.15a92.2,92.2,0,0,1-6.22-13.23,113.15,113.15,0,0,1-4.26-13.74c-.86-3.62-1.25-5.89-1.39-5.87a5.57,5.57,0,0,0,0,1.63c.1,1.05.33,2.54.69,4.38a85.27,85.27,0,0,0,4,14.07A75.86,75.86,0,0,0,295,288.77c1,1.6,1.87,2.83,2.52,3.66A3.91,3.91,0,0,0,298.68,293.56Z" fill="#273339"/><g opacity="0.2"><path d="M296.33,291.05a1.89,1.89,0,0,1,1.44,2.25,2.3,2.3,0,0,1-.14.42,2.82,2.82,0,0,1-2.95,1.34,6,6,0,0,1-3-1.64,20.38,20.38,0,0,1-5.15-9.17c-2.63-8.28-2.75-17.18-2.85-25.76a105.3,105.3,0,0,0,12.59,32.15" fill="#010101"/></g><g opacity="0.2"><path d="M258.78,295.09A45.66,45.66,0,0,0,265,267.26c-.93-13.22-7.35-25.32-12.14-37.67,2.75,13,4.33,25.89,6.87,38.38,0,0-1.32,18.57-1.36,26.79" fill="#010101"/></g><g opacity="0.2"><path d="M237.44,286.81c-1.34-19.79-2.69-39.61-6.18-59.12a188.88,188.88,0,0,0-19.93-57.08c2.49,7.83,10.17,24.29,10.17,24.29s11.08,58.4,15.89,87.87" fill="#010101"/></g><path d="M239.93,309.54l-2.76,30.67h14.48l12.81-.2a90.31,90.31,0,0,0,14.71.38,1.59,1.59,0,0,0,.68-.14,11.63,11.63,0,0,0,2.24-.55h0c1.3-.48,2.64-1.32,2.43-2.77-.63-4.39-3.24-4.75-3.24-4.75H280l-.1-.38a33.29,33.29,0,0,0,4.53-.16c.42,0,.66-.08.69-.15s5.15-.6,4.74-3.32c-.56-4.53-3.18-4.89-3.18-4.89l-4.22-.28a38,38,0,0,0,4.69-.15c.41,0,.65-.09.69-.16s5.15-.6,4.74-3.31c-.64-4.4-3.25-4.76-3.25-4.76l-3.44-.24a27,27,0,0,0,3.82-.14c.41,0,.65-.08.68-.15s5.16-.6,4.75-3.32c-.71-4.41-3.3-4.67-3.3-4.67s-8.08-.58-13.62-.81c0,0-6.31-5.66-8.78-5.41-3.71.4-25.25,8.35-25.25,8.35Z" fill="#fcd1be" stroke="#142230" stroke-miterlimit="10" stroke-width="0.5"/><path d="M267.11,331.23a28.83,28.83,0,0,0,7.18.69,28.68,28.68,0,0,0,7.11-.23,28.93,28.93,0,0,0-7.18-.7A27.31,27.31,0,0,0,267.11,331.23Z" fill="#142230"/><path d="M267.07,322.52a55.47,55.47,0,0,0,10.21.84,57.15,57.15,0,0,0,10.3-.1,55.35,55.35,0,0,0-10.2-.82A56.36,56.36,0,0,0,267.07,322.52Z" fill="#142230"/><g opacity="0.78"><path d="M267.76,313.69a57.38,57.38,0,0,0,10.31.83,55.38,55.38,0,0,0,10.3-.11,58.09,58.09,0,0,0-10.2-.82A56.56,56.56,0,0,0,267.76,313.69Z" fill="#142230"/></g><path d="M280.47,305.38a14.76,14.76,0,0,1-3.25.26l-7.85.25-7.85.3a16.14,16.14,0,0,1-3.26,0,13.12,13.12,0,0,1,3.23-.52c2-.19,4.79-.39,7.87-.5s5.84-.1,7.86,0A13.61,13.61,0,0,1,280.47,305.38Z" fill="#142230"/><path d="M120.59,55.51c-3.64-8.85-15.15-12.89-24.15-9.59s-15,12.51-16.06,22a19.75,19.75,0,0,0,2.74,13.54A18.28,18.28,0,0,0,95.7,88.55,25.08,25.08,0,0,0,122.2,53.8" fill="#121d3f" stroke="#142230" stroke-miterlimit="10"/><path d="M84,56.67a6.24,6.24,0,0,0,.65,1.19,21.3,21.3,0,0,0,2.3,2.82A25.65,25.65,0,0,0,109,68.25a21.71,21.71,0,0,0,3.55-.81,3.78,3.78,0,0,0,1.24-.53c0-.15-1.86.43-4.86.71a27.51,27.51,0,0,1-21.54-7.39C85.22,58.15,84.14,56.59,84,56.67Z" fill="#465b65"/><path d="M80.2,66.77a7.54,7.54,0,0,0,1,.93,32.09,32.09,0,0,0,3,2.17,34.44,34.44,0,0,0,11.2,4.7,27.56,27.56,0,0,0,6.72.52,23.72,23.72,0,0,0,5.41-.9,18.4,18.4,0,0,0,3.43-1.28c.78-.38,1.21-.62,1.17-.67s-1.82.65-4.79,1.35a27.78,27.78,0,0,1-5.29.69,30.87,30.87,0,0,1-6.51-.58,39,39,0,0,1-11.05-4.38C81.84,67.79,80.29,66.65,80.2,66.77Z" fill="#465b65"/><path d="M213.48,81.94c21.27-46.77-29.32-70.25-56.91-62.47-25.93,7.33-37,20.23-41.22,37.58s-4.07,36.07,2.73,52.68c3.43,8.15,9.39,16.44,18.16,17.46" fill="#121d3f" stroke="#142230" stroke-miterlimit="10"/><path d="M188.08,197.53c.37-22.34.63-53.05.63-52.91s19.21-3.2,23.19-28.26c2-12.45,1.36-32.89.31-49.59-1-15-10.91-33.47-25.9-31.89L139.53,46.73a8.81,8.81,0,0,0-7.88,9h0l3.06,96.74" fill="#fcd1be" stroke="#142230" stroke-miterlimit="10" stroke-width="0.5"/><path d="M188.75,144.72a63.69,63.69,0,0,1-33.57-9s7,7.92,33.57,11.66Z" fill="#142230"/><path d="M136.44,87.25c-.38-.17-13.41-5.94-13.57,9s14.95,12,15,11.65S136.44,87.25,136.44,87.25Z" fill="#fcd1be"/><path d="M133.32,102.21a6.26,6.26,0,0,1-.71.38,2.65,2.65,0,0,1-2,0c-1.58-.6-2.88-3.13-2.93-5.83a8.62,8.62,0,0,1,.77-3.74,3,3,0,0,1,2-2,1.34,1.34,0,0,1,1.53.73c.21.43.1.72.19.75s.32-.26.2-.87a1.68,1.68,0,0,0-.58-1,2,2,0,0,0-1.44-.39,3.65,3.65,0,0,0-2.75,2.3,8.63,8.63,0,0,0-.95,4.17c0,3,1.59,5.86,3.75,6.51a2.75,2.75,0,0,0,2.39-.38C133.28,102.57,133.37,102.24,133.32,102.21Z" fill="#cc8f75"/><path d="M119.61,77c1.54-.11,13.93,1.49,13,24.53-.91,21.52-16,16.78-20.82,8.69C107.19,102.52,104.58,78,119.61,77Z" fill="#465b65" stroke="#142230" stroke-miterlimit="10"/><path d="M112,79.71q0-.3,0-.6V77.39c0-1.58.1-3.8.19-6.56.1-5.65.25-13.5.44-22.59l-.27.27h6.52l-.29-.29c0,1.72-.1,3.52-.13,5.36-.23,8.59-.43,16.68-.59,23.43v.19H118a11.65,11.65,0,0,1,6.58,4.23A15.71,15.71,0,0,1,127.23,87a23.92,23.92,0,0,1,.67,3.93v1.41a.73.73,0,0,0,0-.36V90.91a21.53,21.53,0,0,0-.55-4,15.37,15.37,0,0,0-2.59-5.72,12,12,0,0,0-6.87-4.48l.19.24c.19-6.73.43-14.77.67-23.41,0-1.84.1-3.66.14-5.38v-.29h-7v.27c-.1,9.07-.19,16.94-.26,22.59V79A4.15,4.15,0,0,0,112,79.71Z" fill="#465b65"/><path d="M119.61,48.19a49.56,49.56,0,0,1,21.93-22.66A92.08,92.08,0,0,1,160,18.66s-9-2.13-23.6,4.35c-6.61,2.95-13.29,6.87-17.71,12.54-2.8,3.65-6.3,10.78-6.28,12.62Z" fill="#465b65" stroke="#142230" stroke-miterlimit="10"/><path d="M121.26,116.62a1.16,1.16,0,0,0,.44-.12,7.84,7.84,0,0,0,1.15-.6,10.1,10.1,0,0,0,3.25-3.44,16.81,16.81,0,0,0,2-6.75,47.29,47.29,0,0,0,0-8.58,52.8,52.8,0,0,0-1.42-8.49,24,24,0,0,0-2.48-6.6,10.19,10.19,0,0,0-3.26-3.43,6.24,6.24,0,0,0-1.15-.59,1.66,1.66,0,0,0-.45-.12,10.41,10.41,0,0,1,1.48.9,10.64,10.64,0,0,1,3,3.43,25.25,25.25,0,0,1,2.3,6.51,57.07,57.07,0,0,1,1.38,8.42,52.44,52.44,0,0,1,0,8.5,17,17,0,0,1-1.82,6.62,10.61,10.61,0,0,1-3,3.43C121.75,116.36,121.24,116.57,121.26,116.62Z" fill="#273339"/><rect x="172.85" y="108.66" width="6.75" height="17.93" rx="2.92" transform="translate(26.88 267.9) rotate(-78.9)" fill="#465b65" stroke="#142230" stroke-miterlimit="10" stroke-width="0.25"/><path d="M169,114.89,116.34,98.36a2.52,2.52,0,0,0-3.17,1.59v0h0a2.49,2.49,0,0,0,1.61,3.13l.1,0,53.85,14.55Z" fill="#465b65" stroke="#142230" stroke-miterlimit="10" stroke-width="0.25"/><path d="M130.09,107.62a15.23,15.23,0,0,0-1.72-.6l-4.81-1.48c-2-.62-4.5-1.27-7.13-2.13a4.86,4.86,0,0,1-1.72-1.06,2.62,2.62,0,0,1-.74-1.84A1.6,1.6,0,0,1,115.06,99a4.07,4.07,0,0,1,2.19,0L133,104.15l4.81,1.5a14.53,14.53,0,0,0,1.72.46,13.42,13.42,0,0,0-1.72-.69l-4.76-1.72c-4-1.35-9.55-3.26-15.77-5.15a4.33,4.33,0,0,0-2.52,0,2.14,2.14,0,0,0-1.46,2,3.11,3.11,0,0,0,.91,2.23,5.39,5.39,0,0,0,1.92,1.19c2.72.85,5.16,1.44,7.2,2l4.86,1.29A9.77,9.77,0,0,0,130.09,107.62Z" fill="#273339"/><path d="M151.25,33.67a49.63,49.63,0,0,1,6.87,12.94,16.8,16.8,0,0,1-1.46,14.13c-2.65,3.87-7.16,5.91-11.29,8.16S137,74.25,136,78.81c-.31,1.43.29,6.45-.77,7.44-1.48,1.36-4.07.52-5.15-1.15s-1.86-7.18-1.89-9.19l-.26-18.72c0-5.29,0-10.77,2.28-15.46,3.22-6.67,9.85-8.8,19.53-8.31" fill="#142230" stroke="#142230" stroke-miterlimit="10"/><path d="M212.79,71.26a35.21,35.21,0,0,0-7.11-17.51,25.86,25.86,0,0,0-16-9.58c-6.32-1-12.71.79-19.1,1.15s-13.64-1.2-17-6.65c-1-1.72-1.53-4.09-.2-5.56a5.46,5.46,0,0,1,1.87-1.24,48,48,0,0,1,27.31-4.41,37.66,37.66,0,0,1,23.93,13.38,31.09,31.09,0,0,1,6,26.5" fill="#142230" stroke="#142230" stroke-miterlimit="10"/><path d="M216.59,61.84a3.19,3.19,0,0,0,.29-.8,17.09,17.09,0,0,0,.52-2.44,21.62,21.62,0,0,0-.86-9.11A24.24,24.24,0,0,0,209,38.24a31.32,31.32,0,0,0-15.12-6.87,42.35,42.35,0,0,0-16.59.74,58.55,58.55,0,0,0-6.87,2.1,57,57,0,0,1-5.89,2.14,25.21,25.21,0,0,1-8.9.79,6.54,6.54,0,0,1-2.92-1.42,3,3,0,0,0,.58.65,5.31,5.31,0,0,0,2.25,1.12A23.57,23.57,0,0,0,164.7,37c1.89-.46,3.85-1.3,6-2a58.61,58.61,0,0,1,6.87-2,42.44,42.44,0,0,1,16.27-.67,31,31,0,0,1,14.72,6.54A24.09,24.09,0,0,1,216,49.6a21.82,21.82,0,0,1,1.1,8.86C216.85,60.68,216.5,61.83,216.59,61.84Z" fill="#465b65"/><path d="M188.87,22.44a5,5,0,0,0-1.58-.31,21.37,21.37,0,0,0-4.38,0,25.41,25.41,0,0,0-13.33,5.33c-2.22,1.71-4.08,3.69-6.05,5a15.82,15.82,0,0,1-5.79,2.34,12.75,12.75,0,0,1-4.22.29c-1-.12-1.5-.4-1.55-.33a2.75,2.75,0,0,0,1.48.67,11.68,11.68,0,0,0,4.41,0A15.52,15.52,0,0,0,164,33.18c2.08-1.36,4-3.29,6.14-5A26.66,26.66,0,0,1,183,22.77C186.58,22.27,188.85,22.68,188.87,22.44Z" fill="#465b65"/><path d="M113,68.44s.35-.58,1.07-1.55a10.7,10.7,0,0,1,4-3.07,17.06,17.06,0,0,1,7.32-1.46,57.93,57.93,0,0,1,9.26,1.27,33.66,33.66,0,0,0,9.5.72,25.89,25.89,0,0,0,7.55-1.82,25.08,25.08,0,0,0,4.63-2.47,6.09,6.09,0,0,0,1.51-1.31,50.16,50.16,0,0,1-6.32,3.13,28.08,28.08,0,0,1-7.41,1.58,34.74,34.74,0,0,1-9.26-.77,52.25,52.25,0,0,0-9.41-1.22,17,17,0,0,0-7.61,1.71,10.55,10.55,0,0,0-4,3.44,7.6,7.6,0,0,0-.65,1.27C113,68.27,113,68.44,113,68.44Z" fill="#465b65"/><path d="M115.73,56.42a11.77,11.77,0,0,1,1.06-1.52,10.05,10.05,0,0,1,4-2.81,14.92,14.92,0,0,1,7.25-.78c2.77.28,5.77,1.12,9,1.72a19.5,19.5,0,0,0,9.33-.14,15,15,0,0,0,6.49-4,14.66,14.66,0,0,0,2.87-4.26,9.75,9.75,0,0,0,.36-1.31,1.29,1.29,0,0,0,0-.48,20.06,20.06,0,0,1-3.85,5.62A15.13,15.13,0,0,1,146,52.12a19.07,19.07,0,0,1-9,0c-3.18-.6-6.22-1.42-9.1-1.72a15.14,15.14,0,0,0-7.56,1,9.57,9.57,0,0,0-4,3.19A3.76,3.76,0,0,0,115.73,56.42Z" fill="#465b65"/><path d="M180.16,228.2l-.33-.27-.94-.76a41.14,41.14,0,0,1-3.44-3.16,58.71,58.71,0,0,1-4.93-5.74c-1.72-2.33-3.73-5.15-5.84-8.27-4.23-6.26-9.17-13.88-14.43-22.66-2.63-4.4-5.34-9.09-8.07-14-.69-1.24-1.36-2.5-2.06-3.75a22,22,0,0,0-2.36-3.74,8.09,8.09,0,0,0-3.64-2.65,4.46,4.46,0,0,0-2.32-.26,2.48,2.48,0,0,0-1.1.6,3.29,3.29,0,0,0-.6,1.14h0v.08a3.91,3.91,0,0,0,.81,1.43,2.28,2.28,0,0,0,1.51.72,4.76,4.76,0,0,0,3-1,5,5,0,0,0,1.82-5.75,4.32,4.32,0,0,0-2.18-2.49,4.92,4.92,0,0,0-3.24-.47,3.43,3.43,0,0,0-2.65,2.06,1.72,1.72,0,0,0,.38,1.82,3.31,3.31,0,0,0,1.54.85,4.57,4.57,0,0,0,5-2.31,4.08,4.08,0,0,0,.31-2.95,5.17,5.17,0,0,0-1.55-2.49,4,4,0,0,0-2.66-1,3.15,3.15,0,0,0-2.54,1.32,2.07,2.07,0,0,0-.31,1.53,1.93,1.93,0,0,0,.84,1.29,3,3,0,0,0,2.78.34,3.43,3.43,0,0,0,1.89-2.06,7.67,7.67,0,0,0,.41-2.73,9.51,9.51,0,0,0-1.35-5.15,3.84,3.84,0,0,0-2.15-1.62,3.42,3.42,0,0,0-2.59.46,2.55,2.55,0,0,0-1.31,2.32,2.39,2.39,0,0,0,1.72,2,2.77,2.77,0,0,0,2.52-.4,3.62,3.62,0,0,0,1.27-2.21,5.06,5.06,0,0,0-.22-2.5,11.37,11.37,0,0,0-.84-2.26,4.28,4.28,0,0,0-1.63-1.72,5.16,5.16,0,0,0-2.22-.76,2.34,2.34,0,0,0-1.2.16,2.72,2.72,0,0,0-.91.81,2.9,2.9,0,0,0-.5,1.1,1.7,1.7,0,0,0,.14,1.25,2,2,0,0,0,2.13.82,3.64,3.64,0,0,0,2-1,5.87,5.87,0,0,0,1.71-3.86,6.38,6.38,0,0,0-1-4,5,5,0,0,0-1.46-1.37,4,4,0,0,0-1.88-.51,2.72,2.72,0,0,0-1.83.54,2.09,2.09,0,0,0-.78,1.72,2.84,2.84,0,0,0,2.48,2.41,3,3,0,0,0,2.81-1.6,5.15,5.15,0,0,0,.71-3,18.81,18.81,0,0,0-1.87-5.15L127.06,125c-1.11-2.55-2-4.52-2.61-5.88l-.69-1.53a4.81,4.81,0,0,0-.25-.51,3.39,3.39,0,0,0,.2.53l.64,1.55,2.51,5.92,1.77,4.11a19,19,0,0,1,1.71,5.15,4.69,4.69,0,0,1-.67,2.83,2.66,2.66,0,0,1-2.49,1.41,2.47,2.47,0,0,1-2.11-2,1.72,1.72,0,0,1,.64-1.41,2.53,2.53,0,0,1,1.56-.45,3.88,3.88,0,0,1,1.72.49,4.5,4.5,0,0,1,1.32,1.25,5.78,5.78,0,0,1,.94,3.66,5.27,5.27,0,0,1-1.56,3.55,3.1,3.1,0,0,1-1.72.88,1.55,1.55,0,0,1-1.71-.58,1.81,1.81,0,0,1,.32-1.72,2.19,2.19,0,0,1,.74-.65,1.87,1.87,0,0,1,1-.13,4.26,4.26,0,0,1,3.44,2.31,10.8,10.8,0,0,1,.8,2.14,4.54,4.54,0,0,1,.19,2.25,3,3,0,0,1-1.08,1.88,2.19,2.19,0,0,1-2,.32,1.81,1.81,0,0,1-1.34-1.53,2,2,0,0,1,1.06-1.8,2.93,2.93,0,0,1,2.18-.39,3.41,3.41,0,0,1,1.83,1.4,9.18,9.18,0,0,1,1.25,4.85,7.17,7.17,0,0,1-.4,2.51,2.86,2.86,0,0,1-1.54,1.71,2.54,2.54,0,0,1-2.27-.29,1.43,1.43,0,0,1-.38-2h0a2.6,2.6,0,0,1,2.08-1.06,3.41,3.41,0,0,1,2.29.89,3.82,3.82,0,0,1-3.3,6.72,2.65,2.65,0,0,1-1.27-.67,1.15,1.15,0,0,1-.24-1.21,2.89,2.89,0,0,1,2.21-1.71,4.18,4.18,0,0,1,4.78,2.57,4.45,4.45,0,0,1-1.72,5.16,4.25,4.25,0,0,1-2.61.92,2.18,2.18,0,0,1-1.82-1.71v.15a1.73,1.73,0,0,1,1.27-1.31,4,4,0,0,1,2,.25,7.51,7.51,0,0,1,3.43,2.45,25.62,25.62,0,0,1,2.3,3.64c.69,1.27,1.38,2.53,2.06,3.76,2.75,4.95,5.48,9.62,8.13,14,5.27,8.78,10.31,16.37,14.53,22.62,2.15,3.11,4.09,5.91,5.93,8.25a58.8,58.8,0,0,0,5,5.68A30.31,30.31,0,0,0,180.16,228.2Z" fill="#273339"/></g><g id="Layer_2" data-name="Layer 2"><g id="Layer_1-2" data-name="Layer 1-2"><path d="M372.39,99.5a2.19,2.19,0,0,1-.47,1.31,1.7,1.7,0,0,1-.42.33,2,2,0,0,1-2,0,1.72,1.72,0,0,1-.63-.57,2.27,2.27,0,0,1-.26-1.51c.23-6.55-2-11.91-7.58-15.66a2.39,2.39,0,0,0-.22-.12l-.15-.08a19.58,19.58,0,0,0-6.6-2.41,19.86,19.86,0,0,0-3.69-.26,1.6,1.6,0,0,1-.44,0,2.06,2.06,0,0,1-1.65-1.3,2.32,2.32,0,0,1,0-1.08,2,2,0,0,1,2-1.34.47.47,0,0,1,.16,0h1.9a21.06,21.06,0,0,1,13.94,6c.54.53,1,1.12,1.54,1.69l.61.78a23.8,23.8,0,0,1,2.5,4.7A22.93,22.93,0,0,1,372.39,99.5Z" fill="#2da2d9"/><path d="M369.32,93.9c.05.23.09.47.13.72C369.41,94.37,369.37,94.13,369.32,93.9Z" fill="#2da2d9"/><path d="M363.68,98.36a2.32,2.32,0,0,1-.75,1.73,1.87,1.87,0,0,1-2.87-.55,2.54,2.54,0,0,1-.22-1.54,8.3,8.3,0,0,0-.64-4.18,8,8,0,0,0-1.86-2.52,7.34,7.34,0,0,0-1.16-.85,8.22,8.22,0,0,0-2.63-1,11.6,11.6,0,0,0-2.76-.27,1.31,1.31,0,0,1-.39,0,1.83,1.83,0,0,1-1-.83,1.78,1.78,0,0,1-.19-1,1.9,1.9,0,0,1,.37-1.08,2.32,2.32,0,0,1,1.6-.77,11.86,11.86,0,0,1,5.22.84,12.12,12.12,0,0,1,4,2.52,10.87,10.87,0,0,1,2.51,3.77A12.8,12.8,0,0,1,363.68,98.36Z" fill="#f37366"/></g></g><path d="M350.3,112.42a22.79,22.79,0,0,1,3.18-3.26c2.15-1.81,3.52-3,5.33-3,2.34-.12,4.07,1.59,6.36,3.82,2.06,2,3.87,3.8,3.74,6.18-.09,1.62-1,2.75-2.06,4a13.18,13.18,0,0,1-7,4.21c-3.1.7-5.55,0-8-.65a35,35,0,0,1-11.17-5.76,45.58,45.58,0,0,1-11.46-12.52c-3.48-5.33-4.21-8.54-4.41-9.54a14.42,14.42,0,0,1,.16-8.14c1.1-3.1,4.17-7.43,8.18-7.39,2.79,0,4.79,2.12,6.91,4.35,1.66,1.74,3.08,3.23,3.06,5.31s-1.27,3.44-2.94,5.39a20.47,20.47,0,0,1-3.68,3.34,59.13,59.13,0,0,0,6,7.17A56.63,56.63,0,0,0,350.3,112.42Z" fill="#fff"/><path d="M357.22,125.43a20.12,20.12,0,0,1-5.6-1,36.87,36.87,0,0,1-11.44-5.89,46.19,46.19,0,0,1-11.67-12.75c-1.68-2.57-3.83-6.36-4.53-9.84a15.2,15.2,0,0,1,.19-8.59c1-2.76,4.15-8,9-7.93,3.14,0,5.37,2.36,7.51,4.61,1.71,1.78,3.32,3.48,3.3,5.89s-1.4,3.88-3.15,5.93a21.53,21.53,0,0,1-3.14,3,56,56,0,0,0,5.44,6.38,58.71,58.71,0,0,0,7,6,24.33,24.33,0,0,1,2.78-2.78c2.25-1.88,3.73-3.12,5.83-3.23,2.71-.14,4.6,1.71,7,4,2.13,2.09,4.14,4.06,4,6.84-.11,1.9-1.21,3.19-2.26,4.44a14,14,0,0,1-7.43,4.49A11.72,11.72,0,0,1,357.22,125.43ZM333.1,81.13c-3.58,0-6.37,4.07-7.36,6.83a13.45,13.45,0,0,0-.12,7.69c.65,3.22,2.69,6.81,4.29,9.25a44.73,44.73,0,0,0,11.26,12.31,35,35,0,0,0,10.9,5.63c2.3.64,4.66,1.3,7.61.64a12.41,12.41,0,0,0,6.52-3.94c1-1.13,1.79-2.11,1.86-3.46.12-2-1.55-3.64-3.48-5.53-2.18-2.13-3.76-3.67-5.73-3.57-1.52.08-2.77,1.11-4.83,2.84a21.06,21.06,0,0,0-3,3.14.84.84,0,0,1-1.15.16,59,59,0,0,1-14-13.94A.84.84,0,0,1,336,98h0a18.77,18.77,0,0,0,3.52-3.2c1.58-1.86,2.73-3.2,2.75-4.84s-1.25-3.07-2.84-4.73c-2.08-2.18-3.87-4.07-6.3-4.09l-.06,0Z" fill="#1a2445"/></svg>