<?xml version="1.0" encoding="utf-8"?>
<!-- Generator: Adobe Illustrator 25.0.0, SVG Export Plug-In . SVG Version: 6.00 Build 0)  -->
<svg version="1.1" id="Layer_1" xmlns="http://www.w3.org/2000/svg" xmlns:xlink="http://www.w3.org/1999/xlink" x="0px" y="0px"
	 viewBox="0 0 512 512" style="enable-background:new 0 0 512 512;" xml:space="preserve">
<style type="text/css">
	.st0{fill:#273339;}
	.st1{fill:#F1EFEF;}
	.st2{fill:#162143;}
	.st3{fill:#EFA4A0;stroke:#142230;stroke-miterlimit:10;}
	.st4{fill:url(#SVGID_1_);}
	.st5{fill:#162143;stroke:#142230;stroke-miterlimit:10;}
	.st6{fill:#2FA5DD;stroke:#142230;stroke-miterlimit:10;}
	.st7{fill:#2BA5DD;stroke:#142230;stroke-miterlimit:10;}
	.st8{fill:#EEF9FE;stroke:#142230;stroke-miterlimit:10;}
	.st9{fill:#FFFFFF;stroke:#000000;stroke-width:0.5;stroke-miterlimit:10;}
	.st10{fill:#2BA5DD;stroke:#142230;stroke-linecap:round;stroke-linejoin:round;}
	.st11{fill:#263238;stroke:#142230;stroke-miterlimit:10;}
	.st12{fill:url(#SVGID_2_);}
	.st13{fill:#263238;}
	.st14{fill:#FFFFFF;stroke:#000000;stroke-miterlimit:10;}
	.st15{fill:#8EC2D6;stroke:#142230;stroke-miterlimit:10;}
	.st16{opacity:0.72;fill:#D9D9D9;enable-background:new    ;}
	.st17{opacity:0.5;fill:#EB4646;enable-background:new    ;}
	.st18{opacity:0.5;fill:#F7931E;enable-background:new    ;}
	.st19{opacity:0.5;fill:#8CC63F;enable-background:new    ;}
	.st20{opacity:0.5;fill:#00A99D;enable-background:new    ;}
	.st21{opacity:0.5;fill:#D4145A;enable-background:new    ;}
	.st22{opacity:0.5;fill:#A67C52;enable-background:new    ;}
	.st23{fill:#FFFFFF;}
	.st24{fill:#F27366;}
</style>
<g>
	<g id="Layer_1_1_">
		<path class="st0" d="M6,452.7c160.2-0.7,339.8-0.7,500,0"/>
		<path class="st1" d="M120.9,157.4c-0.9,54.3-81.7,54.2-82.6,0C39.2,103.1,120,103.2,120.9,157.4z"/>
		<path class="st1" d="M82.6,248.4c74.7-47.2,174.6,33,137,116.4c-21.5,48.8-75.7,54.5-80.7,55C39.6,431.3-4.4,303.1,82.6,248.4z"/>
		<path class="st1" d="M205,97.6c155.2-129.4,377.6,93.9,213.1,253.9c-12.9,15.2-54.3,42.2-82,22.5c-24.4-19.2,3.4-67.2-23.8-104
			c-22.9-34.8-63.4-18.3-99-46.7C178.6,190,173.1,142.6,205,97.6z"/>
		<path class="st2" d="M347.7,334.3c8.9-1.1,14.8-4.7,17.3-10.7c7.1-16.8-10.5-50.3-17.9-61.8l-0.1-0.2c-0.5-0.7-0.3-1.7,0.4-2.2
			l3.2-2.4c0.7-0.5,1.7-0.4,2.3,0.3c0,0,0,0.1,0.1,0.1l0,0c1.2,1.8,28.8,45.1,18.6,69.3c-3.6,8.7-11.4,13.8-23,15.2l0,0
			c-0.9,0.1-1.7-0.5-1.8-1.4c0,0,0,0,0-0.1l-0.5-4.4C346.1,335.2,346.7,334.4,347.7,334.3L347.7,334.3z"/>
		<path class="st3" d="M318.7,289h39.5c10.9,0,19.8-12.1,19.8-27v-24.4c0-14.9-8.8-27-19.8-27h-39.5c-10.9,0-19.8,12.1-19.8,27V262
			C298.9,276.9,307.8,289,318.7,289z"/>
		<rect x="259.1" y="342.1" class="st2" width="101.8" height="8.4"/>
		
			<linearGradient id="SVGID_1_" gradientUnits="userSpaceOnUse" x1="7446.3999" y1="151.94" x2="7462.5898" y2="151.94" gradientTransform="matrix(1 0 0 -1 -7144.48 512)">
			<stop  offset="0" style="stop-color:#07154B"/>
			<stop  offset="0.26" style="stop-color:#0C174E"/>
			<stop  offset="0.58" style="stop-color:#1B1D57"/>
			<stop  offset="0.93" style="stop-color:#332767"/>
			<stop  offset="1" style="stop-color:#39296A"/>
		</linearGradient>
		<rect x="301.9" y="357.5" class="st4" width="16.2" height="5.1"/>
		<rect x="306.8" y="362.6" class="st5" width="6.4" height="30.7"/>
		<rect x="305.9" y="393.3" class="st6" width="8.2" height="35.6"/>
		<polygon class="st7" points="314.2,350.5 305.8,350.5 295.4,350.5 299.6,357.5 305.8,357.5 314.2,357.5 320.4,357.5 324.6,350.5 
					"/>
		<path class="st3" d="M305,313.2h0.1l1,0l1.8-0.1h4.1l1.8,0.1l1,0h0.1c16.7,0.8,50.5,5.2,44.1,28.9h-98.4
			C254.4,318.5,288.2,314,305,313.2z"/>
		<path class="st5" d="M307.7,418.9c-14.9,6.5-36.1,16.4-38.9,19.7c-1.6,2-2.5,4.6-2.3,7.2l41.2-18.8L307.7,418.9z"/>
		<path class="st6" d="M278.2,446.2c0,2.8-2.3,5.1-5.1,5.1s-5.1-2.3-5.1-5.1s2.3-5.1,5.1-5.1l0,0
			C275.9,441.1,278.2,443.4,278.2,446.2z"/>
		<path class="st5" d="M312.3,427.1l41.3,18.8c0.1-2.6-0.7-5.2-2.3-7.2c-2.8-3.4-24-13.2-38.9-19.7L312.3,427.1z"/>
		<path class="st6" d="M341.8,446.2c0,2.8,2.3,5.1,5.1,5.1s5.1-2.3,5.1-5.1s-2.3-5.1-5.1-5.1l0,0
			C344.1,441.1,341.8,443.4,341.8,446.2z"/>
		<path class="st8" d="M256.9,259.8c2.7-2.1,5.1-4.5,7.1-7.3c5.3-7.7,9.1-16.7,12.1-25.5c2.5-7.3,4.3-14.8,5.5-22.4
			c1.1-6.7,6-28.8-8.4-26.7c-3.6,0.5-6.1,3.1-7.9,5.9c-7.7,12.4-19.4,75.3-19.4,75.3L256.9,259.8z"/>
		<path class="st9" d="M221.3,177.3l-14.4-17.4c0,0-2.2,2.7-1.6,5.1s-0.2,4.3,0.1,6.5s-1.3,7.6,0.2,11s7,5.2,8.6,8.5
			s4.6,10.3,4.6,10.3l11.5-6.1l-4.5-9.4c0,0,2.1-11.6-3.7-18.2L221.3,177.3z"/>
		<path class="st9" d="M246.1,258.9c0,0,15.6-6.9,11.7-17.9s-29.1-50.3-29.1-50.3l-11.6,7.9C217,198.7,234,253.6,246.1,258.9z"/>
		<path class="st8" d="M248.6,261.4c0,0,15.6-6.9,11.7-17.9s-27.8-51.2-27.8-51.2l-16.5,10.7C216.1,203.1,233.4,259.8,248.6,261.4z"
			/>
		<path class="st9" d="M161.2,431.8l0.2-0.2c0.7-0.6,1.5-1.1,2.3-1.5l-0.9,0.3l0.9-0.3c1.8-0.9,3.6-1.5,5.6-2l1.8-0.5l6.1-2l0.3-0.1
			c1.2-0.9,14.4-9.6,20-14.4c0.2-0.1,0.3-0.3,0.5-0.4c0.8-5.6,1.1-11.4,0.9-17.1l19.9-0.1c0,0-2.9,11.9-2.5,18.3
			c0.3,0.9,0.6,1.7,1.1,2.5l0.7,1.3c0.3,0.4,0.5,0.9,0.7,1.4c0.7,1.4,1.4,2.9,1.9,4.3c0.4,1.7,0.7,3.5,0.7,5.2c0,0.6,0,1.2,0,1.8
			c0,1.1-0.2,2.3-0.7,3.3c-0.9,1.5-2.7,2.3-4.4,2.8c-3.5,1-7.1,1.4-10.6,2.3c-6.5,1.6-13.1,4.1-19.8,5.2c-7.4,1.2-15-0.1-22.4-0.4
			c-2-0.1-5-0.7-5.6-3S159.6,433.2,161.2,431.8z"/>
		<path class="st7" d="M157.7,437.7c0,0.3,0,0.6,0.1,0.9c0.4,1.5,1.9,2.3,3.5,2.7c0.7,0.2,1.4,0.2,2.1,0.3c3.7,0.1,7.5,0.5,11.2,0.7
			c1.4,0.1,2.8,0.1,4.2,0.1c0.5,0,1,0,1.5,0c0.9,0,1.8-0.1,2.7-0.1c0.5,0,0.9-0.1,1.4-0.1s0.9-0.1,1.4-0.2c1.7-0.3,3.4-0.6,5-1
			c2.1-0.5,4.1-1.1,6.2-1.7c2.9-0.9,5.7-1.7,8.6-2.4c0.9-0.2,1.8-0.4,2.7-0.6l2.7-0.5c1.8-0.3,4.3-0.7,6.1-1.2
			c1.1-0.3,2.1-0.8,3-1.4c0.2-0.1,0.3-0.3,0.5-0.4c0.3-0.3,0.6-0.6,0.8-1c0.2-0.4,0.4-0.8,0.5-1.2l0.1-0.4c0.1-0.6,0.1-1.1,0.1-1.7
			c0-0.6,0-1.7-0.1-3c0-0.2,0-0.5-0.1-0.7c0-0.5-0.1-0.9-0.2-1.4s-0.1-0.7-0.2-1c-0.1-0.4-0.2-0.9-0.3-1.3c-0.1-0.2-0.1-0.4-0.2-0.6
			c-0.4-1.2-1.2-2.3-1.8-3.5c-0.3-0.5-0.6-1.1-0.8-1.6c-6.6,4.1-18.8,3.3-23.1-3c-6.9,5.4-17,12.6-18,13.4l-0.1,0.1l-0.2,0.1l-6.1,2
			l-1.8,0.5c-0.4,0.1-0.9,0.2-1.3,0.4l-0.2,0.1l-1.3,0.4c-0.9,0.3-1.8,0.7-2.7,1.2l-0.9,0.3l0.9-0.3c-0.3,0.2-0.6,0.3-0.9,0.5
			l-0.4,0.2l-0.3,0.2c-0.2,0.2-0.5,0.4-0.7,0.5l-0.2,0.2l-0.3,0.3l0,0c-0.1,0.1-0.3,0.3-0.4,0.5c-0.5,0.6-1,1.2-1.4,1.8
			c-0.1,0.1-0.2,0.3-0.3,0.5c-0.2,0.3-0.3,0.6-0.5,1c-0.1,0.3-0.3,0.7-0.3,1C157.7,437.2,157.6,437.5,157.7,437.7L157.7,437.7z
			 M177.2,425.6L177.2,425.6c-1.4,0.6-2.9,1.2-4.4,1.6h-0.1l-1.5,0.4L177.2,425.6z"/>
		<path class="st9" d="M266.5,443.4l0.1-0.2c0.2-0.9,0.6-1.8,1-2.6l-0.5,0.8c0.2-0.2,0.4-0.5,0.5-0.8c0.9-1.7,2.1-3.4,3.4-4.9
			c0.4-0.5,0.8-1,1.2-1.5c1.8-2.4,3.3-4.6,3.8-5.2l0.2-0.3c0.5-1.5,6.1-16.2,7.9-23.3c0-0.2,0.1-0.4,0.1-0.6
			c-2.6-5.1-5.7-9.9-9.2-14.4l16.1-11.6c0,0,4.6,11.4,8.6,16.3c0.7,0.5,1.5,1,2.3,1.4l1.4,0.6c0.5,0.2,0.9,0.5,1.4,0.7
			c1.4,0.7,2.8,1.5,4.1,2.4c1.4,1.1,2.6,2.4,3.6,3.9c0.4,0.5,0.7,0.9,1,1.4c0.7,0.9,1.2,2,1.3,3.1c0.2,1.8-0.8,3.4-1.9,4.8
			c-2.2,2.9-5,5.3-7.3,8c-4.4,5.1-8.2,11-13.1,15.7c-5.4,5.3-12.2,8.6-18.5,12.7c-1.6,1.1-4.5,2.3-6.2,0.8S266,445.4,266.5,443.4z"
			/>
		<path class="st10" d="M267.1,450.2c0.2,0.3,0.4,0.5,0.6,0.7c1.2,1,2.9,0.8,4.4,0.2c0.6-0.3,1.2-0.6,1.8-1c3.1-2.1,6.4-3.9,9.6-5.9
			c1.2-0.8,2.4-1.5,3.5-2.3c0.4-0.3,0.8-0.6,1.2-0.9c0.7-0.5,1.4-1.1,2.1-1.7c0.4-0.3,0.7-0.6,1.1-0.9s0.7-0.6,1-1
			c1.2-1.2,2.4-2.5,3.5-3.8c1.4-1.6,2.7-3.3,4-5c1.8-2.4,3.7-4.8,5.6-7c0.6-0.7,1.2-1.4,1.8-2s1.3-1.3,1.9-2
			c1.3-1.3,3.1-3.1,4.2-4.5c0.7-0.9,1.3-1.8,1.7-2.9c0.1-0.2,0.1-0.4,0.2-0.6c0.1-0.4,0.1-0.9,0.1-1.3c0-0.4-0.1-0.8-0.3-1.2
			c0-0.1-0.1-0.3-0.2-0.4c-0.3-0.5-0.5-1-0.9-1.5c-0.4-0.5-1-1.4-1.8-2.4l-0.5-0.6c-0.3-0.4-0.6-0.7-1-1.1l-0.7-0.7
			c-0.3-0.3-0.7-0.6-1-0.9c-0.2-0.1-0.4-0.3-0.5-0.4c-1.1-0.7-2.3-1.1-3.4-1.8c-0.6-0.2-1.1-0.5-1.6-0.9c-3,7.1-13.4,13.5-20.5,10.9
			c-2.5,8.4-6.5,20.1-6.9,21.3c0,0-0.1,0.1-0.1,0.1c0,0.1-0.1,0.1-0.1,0.2c-0.5,0.6-2.1,2.8-3.8,5.2c-0.4,0.5-0.8,1-1.2,1.5
			l-0.9,1.1l-0.1,0.2c-0.3,0.4-0.5,0.7-0.8,1.1c-0.6,0.8-1.1,1.7-1.5,2.5c-0.2,0.3-0.4,0.5-0.5,0.8l0.5-0.8c-0.2,0.3-0.3,0.6-0.4,1
			c0,0.1-0.1,0.3-0.2,0.4c0,0.1-0.1,0.2-0.1,0.4c-0.1,0.3-0.2,0.6-0.3,0.9l-0.1,0.2l-0.1,0.4l0,0c0,0.2-0.1,0.4-0.1,0.6
			c-0.1,0.8-0.1,1.6-0.1,2.3c0,0.2,0,0.4,0,0.5c0,0.3,0.1,0.7,0.1,1c0.1,0.3,0.2,0.7,0.3,1c0.1,0.3,0.2,0.6,0.4,0.8
			C267,450.1,267.1,450.2,267.1,450.2z M276,429L276,429c-0.8,1.4-1.7,2.6-2.7,3.8l-0.1,0.1c-0.3,0.4-0.6,0.8-1,1.2
			C273.5,432.4,274.7,430.7,276,429z"/>
		<path class="st11" d="M205.6,282.6c19.1-6.3,39.6-8.4,59.6-10c9.9-0.8,21.5-2.5,31.4-3.4c22-1.8,39-8.1,35.6,14.6
			c-1.2,8.3-3,17.3-8,24.4c-5.4,7.7-14.8,11-23.8,12.6c-10.1,1.8-20.6,1.5-30.8,1.1c-9-0.2-17.9-1.3-26.7-3.2
			c-11-2.6-22-5.5-32.8-8.8C196.6,296.3,205.6,282.6,205.6,282.6z"/>
		<path class="st11" d="M205.6,282.6c0,0-4.4-0.6-5.1,11.2s-3,107.6-3,107.6l21.8,4.6c5.3-32.2,10.7-64.4,16-96.6"/>
		<path class="st11" d="M217.5,289.7c0.1-0.1,0.3-0.3,0.4-0.4c3.4-3,8.5-3.9,12.8-4.6c31.1-5.1,64-7.4,95.4-9.6
			c5.2-0.4,10.6-1.6,14.2,3c2.8,3.6,3.5,8.6,3.6,13.1c0.2,5-0.2,10.2-2.1,14.9c-2.4,5.6-6.9,10-12.1,13.3
			c-12.1,7.5-27.1,8.7-41.3,8.1c-14.6-0.6-29-2.8-43.1-6.5c-10.7-2.9-24.7-6-29.4-17.5C214.1,298.9,213.8,293.6,217.5,289.7z"/>
		
			<linearGradient id="SVGID_2_" gradientUnits="userSpaceOnUse" x1="-4893.8198" y1="239.47" x2="-4882.2202" y2="220.48" gradientTransform="matrix(-1 0 0 -1 -4582.2002 512)">
			<stop  offset="0" style="stop-color:#2A1200"/>
			<stop  offset="0.29" style="stop-color:#321700;stop-opacity:0.88"/>
			<stop  offset="0.65" style="stop-color:#482700;stop-opacity:0.53"/>
			<stop  offset="1" style="stop-color:#6A3E00;stop-opacity:0"/>
		</linearGradient>
		<path class="st12" d="M332,317.8c-22.9-17.4-49.2-28.6-76.7-36.6c23.5-2.8,47.6-4.5,70.9-6.1c5.2-0.4,10.6-1.6,14.2,3
			c2.8,3.6,3.5,8.6,3.6,13.1c0.2,5-0.2,10.2-2.1,14.9C339.7,310.8,336.3,314.9,332,317.8z"/>
		<path class="st9" d="M333.5,178.1c-5.5-9.2-15.5-12.3-25.6-11.9c-5.6,0.3-11.1,1.3-16.4,2.8c-5.2,1.4-11.9,2.6-15.9,6.4
			c-4.9,4.6-5.9,11.5-6.3,17.9c-0.5,6.9-0.6,13.7-0.4,20.6c0.3,13.2,1.3,26.4,0.8,39.6c-0.2,6.9-0.5,14.9,6.9,18.1
			c3.8,1.7,8.2,1.8,12.4,2c6.8,0.3,13.7,1.1,20.4,2.4c6.3,1.3,12.4,3.8,18.9,3.9c5.5,0.1,10.1-2.5,10.2-8.4s-3.3-13.2-4.3-19.2
			c-1.9-11.5-2.4-23.6-0.1-35C336.5,204.6,340.7,190.2,333.5,178.1z"/>
		<path class="st8" d="M266.2,185.4c0.4-4.9,4.5-8.2,8-11.1c4.6-3.7,10.3-6,16.2-6.5c-2.4,7-4.2,14.1-5.4,21.3
			c-1.8,10.8-1.4,19-1.9,22.1c-3.5,21.1-5.6,41.4-4.6,62.8c-4.2-0.3-7.7-1.4-9.6-6.6c-1-3-1.3-6.1-1.1-9.2
			C268.3,230.4,264.2,213.2,266.2,185.4z"/>
		<path class="st9" d="M290.8,148.5l-0.2,9.2c0,0-0.6,13.6,1.2,15.6c3.3,3.4,19.4,0,19.4-10.6l-0.5-24.4L290.8,148.5z"/>
		<path class="st8" d="M311.1,165.9c-1.4,2-3.3,5-5.4,8.6c-2.6,4.4-5,8.9-7,13.6c-3.4,8.2-6.4,19.8-6.4,36.3
			c0,13.1,5.1,54.6,5.1,54.6s36.3,6.3,46.5,28c0,0,5.7-3.6,4.5-23.9s-1.2-63.3-1.2-83.1c0-9.9-0.8-16.3-5.5-22.4
			C333.6,167.1,318.4,166,311.1,165.9z"/>
		<path class="st9" d="M309.9,117.2l-1,10.3l-1.6,15.7l-0.4,4.4c-13.3,14.6-29.9,13-34,6.4s0.1-38.9,0.1-38.9L309.9,117.2z"/>
		<path class="st13" d="M304.9,118.4c-10.1,1.7-39,7.9-44-12.3s14.5-22.5,23.7-12s18.1-7.6,30.1,6.1c0,0,8.2-0.8,10.9,7.3
			c4.1,12.6-14.7,44-14.7,44l-2.5-14.2l-2.7-0.7L304.9,118.4z"/>
		<path class="st9" d="M316.9,126.6c2.7,4-1,12-9.3,14.4l1.2-14.5C309.8,124.6,315.1,124,316.9,126.6z"/>
		<path class="st8" d="M305.8,264.9c3.1-2.1,5.9-4.7,8.2-7.6c6.2-8.1,10.8-17.6,14.5-27.1c3-7.8,5.4-15.8,7-24
			c1.5-7.2,7.8-30.9-8.2-29.2c-4,0.4-6.9,3.1-9,6c-12.8,18.5-24.5,63-24.9,65c-0.5,2.4,1.7,8.8,1.5,9.9
			C299.4,261.8,301.3,261.1,305.8,264.9z"/>
		<path class="st9" d="M261.3,177l-18.5-16c0,0-2,3.3-0.9,5.8s0.4,4.6,1.1,6.9s-0.1,8.3,2,11.8s8.5,4.3,10.8,7.5s6.7,10.2,6.7,10.2
			l11.5-8.6l-6.5-9.2c0,0,0.4-12.8-7-18.8L261.3,177z"/>
		<path class="st9" d="M270.6,187.6l-11.8,10.8l37,60.5c0.4-13.1-1-36.5-15.3-58.6C277.5,195.7,274.2,191.5,270.6,187.6z"/>
		<path class="st8" d="M302.1,221.9l-26-31.7l-17.3,14.6l37,54.1"/>
		<path class="st11" d="M215.8,295.6c-0.4,0.6-0.6,1.3-0.8,1.9c-0.8,3.5,1.6,7.5,3.4,10.3c6.2,10,59.4,89.7,59.4,89.7l20.5-8.8
			c-10.4-21-20.9-42.1-31.3-63.1"/>
		<polygon class="st14" points="422.2,459.1 422.3,460.4 415.1,460.4 404.8,274.5 415,274.5 		"/>
		<polygon class="st14" points="108.2,274.5 118.3,274.5 108.1,460.4 100.9,460.4 		"/>
		<path class="st15" d="M91.3,258.1h340.2c1.4,0,2.6,1.1,2.6,2.6v6.2c0,1.4-1.1,2.6-2.6,2.6H91.3c-1.2,0-2.1-0.9-2.1-2.1l0,0v-7.2
			C89.2,259.1,90.1,258.1,91.3,258.1z"/>
		<rect x="96.2" y="269.5" class="st15" width="330.8" height="9.5"/>
		<polygon class="st3" points="234.2,203.1 248.5,253.2 276.8,254.4 276.8,258 173.5,258 158.5,203.1 		"/>
		<polygon class="st11" points="229.4,203.1 244.5,258 173.5,258 158.5,203.1 		"/>
		<circle class="st9" cx="200" cy="229.7" r="6.5"/>
		<path class="st16" d="M128.1,52.8h42.7c1,0,1.8,0.8,1.8,1.8v0.5c0,1-0.8,1.8-1.8,1.8h-42.7c-1,0-1.8-0.8-1.8-1.8v-0.5
			C126.3,53.6,127.1,52.8,128.1,52.8z"/>
		<path class="st16" d="M128.1,59.5h49.1c1,0,1.8,0.8,1.8,1.8v0.5c0,1-0.8,1.8-1.8,1.8h-49.1c-1,0-1.8-0.8-1.8-1.8v-0.5
			C126.3,60.3,127.1,59.5,128.1,59.5z"/>
		<path class="st17" d="M110.2,51.6h8.7c1.3,0,2.3,1,2.3,2.3v8.7c0,1.3-1,2.3-2.3,2.3h-8.7c-1.3,0-2.3-1-2.3-2.3v-8.7
			C107.9,52.6,108.9,51.6,110.2,51.6z"/>
		<path class="st18" d="M89.2,78.7h8.7c1.3,0,2.3,1,2.3,2.3v8.7c0,1.3-1,2.3-2.3,2.3h-8.7c-1.3,0-2.3-1-2.3-2.3V81
			C86.9,79.7,87.9,78.7,89.2,78.7z"/>
		<path class="st16" d="M107.1,79.9h31.2c1,0,1.8,0.8,1.8,1.8v0.5c0,1-0.8,1.8-1.8,1.8h-31.2c-1,0-1.8-0.8-1.8-1.8v-0.5
			C105.3,80.7,106.1,79.9,107.1,79.9z"/>
		<path class="st16" d="M107.1,86.7h39.2c1,0,1.8,0.8,1.8,1.8V89c0,1-0.8,1.8-1.8,1.8h-39.2c-1,0-1.8-0.8-1.8-1.8v-0.5
			C105.3,87.5,106.1,86.7,107.1,86.7z"/>
		<path class="st19" d="M111.5,105.3h8.7c1.3,0,2.3,1,2.3,2.3v8.7c0,1.3-1,2.3-2.3,2.3h-8.7c-1.3,0-2.3-1-2.3-2.3v-8.7
			C109.1,106.4,110.2,105.3,111.5,105.3z"/>
		<path class="st16" d="M129.3,106.6h31.2c1,0,1.8,0.8,1.8,1.8v0.5c0,1-0.8,1.8-1.8,1.8h-31.2c-1,0-1.8-0.8-1.8-1.8v-0.5
			C127.5,107.4,128.3,106.6,129.3,106.6z"/>
		<path class="st16" d="M129.3,113.3h39.2c1,0,1.8,0.8,1.8,1.8v0.5c0,1-0.8,1.8-1.8,1.8h-39.2c-1,0-1.8-0.8-1.8-1.8v-0.5
			C127.5,114.1,128.3,113.3,129.3,113.3z"/>
		<path class="st20" d="M138.4,138.3h8.7c1.3,0,2.3,1,2.3,2.3v8.7c0,1.3-1,2.3-2.3,2.3h-8.7c-1.3,0-2.3-1-2.3-2.3v-8.7
			C136.1,139.3,137.1,138.3,138.4,138.3z"/>
		<path class="st16" d="M156.3,139.5h31.2c1,0,1.8,0.8,1.8,1.8v0.5c0,1-0.8,1.8-1.8,1.8h-31.2c-1,0-1.8-0.8-1.8-1.8v-0.5
			C154.5,140.3,155.3,139.5,156.3,139.5z"/>
		<path class="st16" d="M156.3,146.2h39.2c1,0,1.8,0.8,1.8,1.8v0.5c0,1-0.8,1.8-1.8,1.8h-39.2c-1,0-1.8-0.8-1.8-1.8v-0.5
			C154.5,147.1,155.3,146.2,156.3,146.2z"/>
		<path class="st18" d="M77.6,218.3h8.7c1.3,0,2.3,1,2.3,2.3v8.7c0,1.3-1,2.3-2.3,2.3h-8.7c-1.3,0-2.3-1-2.3-2.3v-8.7
			C75.3,219.4,76.3,218.3,77.6,218.3z"/>
		<path class="st16" d="M95.5,219.6h31.2c1,0,1.8,0.8,1.8,1.8v0.5c0,1-0.8,1.8-1.8,1.8H95.5c-1,0-1.8-0.8-1.8-1.8v-0.5
			C93.6,220.4,94.5,219.6,95.5,219.6z"/>
		<path class="st16" d="M95.5,226.3h39.2c1,0,1.8,0.8,1.8,1.8v0.5c0,1-0.8,1.8-1.8,1.8H95.5c-1,0-1.8-0.8-1.8-1.8v-0.5
			C93.6,227.1,94.5,226.3,95.5,226.3z"/>
		<path class="st21" d="M53.3,190.1H62c1.3,0,2.3,1,2.3,2.3v8.7c0,1.3-1,2.3-2.3,2.3h-8.7c-1.3,0-2.3-1-2.3-2.3v-8.7
			C51,191.2,52,190.1,53.3,190.1z"/>
		<path class="st16" d="M71.2,191.4h31.2c1,0,1.8,0.8,1.8,1.8v0.5c0,1-0.8,1.8-1.8,1.8H71.2c-1,0-1.8-0.8-1.8-1.8v-0.5
			C69.4,192.2,70.2,191.4,71.2,191.4z"/>
		<path class="st16" d="M71.2,198.1h39.2c1,0,1.8,0.8,1.8,1.8v0.5c0,1-0.8,1.8-1.8,1.8H71.2c-1,0-1.8-0.8-1.8-1.8v-0.5
			C69.4,198.9,70.2,198.1,71.2,198.1z"/>
		<path class="st22" d="M67.8,158.2h8.7c1.3,0,2.3,1,2.3,2.3v8.7c0,1.3-1,2.3-2.3,2.3h-8.7c-1.3,0-2.3-1-2.3-2.3v-8.7
			C65.5,159.2,66.6,158.2,67.8,158.2z"/>
		<path class="st16" d="M85.7,159.4h31.2c1,0,1.8,0.8,1.8,1.8v0.5c0,1-0.8,1.8-1.8,1.8H85.7c-1,0-1.8-0.8-1.8-1.8v-0.5
			C83.9,160.3,84.7,159.4,85.7,159.4z"/>
		<path class="st16" d="M85.7,166.2h39.2c1,0,1.8,0.8,1.8,1.8v0.5c0,1-0.8,1.8-1.8,1.8H85.7c-1,0-1.8-0.8-1.8-1.8V168
			C83.9,167,84.7,166.2,85.7,166.2z"/>
		<g id="Layer_2_1_">
			<g id="Layer_1-2">
				<path class="st23" d="M235.8,111.8L235.8,111.8c0,3.9-3.1,7.2-7.1,7.2c0,0-0.1,0-0.1,0c-2,0-4.2,0-6.5,0c-0.9,0-1.7,0.4-2.1,1.2
					l-1.9,3.1c-0.6,1.1-1.3,2.1-1.9,3.2c-0.1,0.1-0.2,0.2-0.2,0.4c-0.1-0.1-0.2-0.2-0.2-0.4c-0.6-1-1.2-2.1-1.9-3.1
					s-1.3-2.2-1.9-3.2c-0.4-0.8-1.2-1.2-2.1-1.2h-6.5c-3.9,0-7.2-3.1-7.2-7.1c0,0,0-0.1,0-0.1V86.7c-0.1-3.9,3-7.1,6.9-7.2
					c0.1,0,0.2,0,0.3,0h25.2c3.9-0.1,7.1,3,7.2,6.9c0,0.1,0,0.2,0,0.3C235.8,96.1,235.8,104.3,235.8,111.8z"/>
				<path class="st2" d="M239,86.7c0.1-5.7-4.5-10.4-10.2-10.4c-0.1,0-0.2,0-0.3,0c-8.4,0-16.8,0-25.2,0c-5.7,0-10.4,4.5-10.4,10.3
					c0,0.1,0,0.1,0,0.2v25.2c0,5.7,4.5,10.4,10.2,10.4c0.1,0,0.1,0,0.2,0h6.1l1.7,2.8l1.8,3.1c0.4,0.8,1.1,1.5,2,1.9l0,0
					c0.7,0.2,1.3,0.2,2,0l0,0c0.8-0.4,1.5-1.1,2-1.9c0.9-1.4,1.3-2.2,1.9-3.2s1.1-1.8,1.6-2.7c2.1,0,4.2,0,6,0
					c5.7,0.1,10.4-4.5,10.5-10.2c0-0.1,0-0.2,0-0.2C239,104.3,239,96.1,239,86.7z M235.8,111.8L235.8,111.8c0,3.9-3.1,7.2-7.1,7.2
					c0,0-0.1,0-0.1,0c-2,0-4.2,0-6.5,0c-0.9,0-1.7,0.4-2.1,1.2l-1.9,3.1c-0.6,1.1-1.3,2.1-1.9,3.2c-0.1,0.1-0.2,0.2-0.2,0.4
					c-0.1-0.1-0.2-0.2-0.2-0.4c-0.6-1-1.2-2.1-1.9-3.1s-1.3-2.2-1.9-3.2c-0.4-0.8-1.2-1.2-2.1-1.2h-6.5c-3.9,0-7.2-3.1-7.2-7.1
					c0,0,0-0.1,0-0.1V86.7c-0.1-3.9,3-7.1,6.9-7.2c0.1,0,0.2,0,0.3,0h25.2c3.9-0.1,7.1,3,7.2,6.9c0,0.1,0,0.2,0,0.3
					C235.8,96.1,235.8,104.3,235.8,111.8L235.8,111.8z"/>
				<path class="st24" d="M215.9,109.2h-7.3c-1.1,0-1.6-0.5-1.5-1.6c0-1,0-2.1,0.1-3.1c0.4-3,2.8-5.3,5.8-5.4c1.9-0.1,3.9-0.1,5.8,0
					c3.2,0.2,5.8,2.8,5.9,6c0,0.9,0,1.8,0,2.8c0.1,0.7-0.5,1.3-1.2,1.4c-0.1,0-0.2,0-0.2,0L215.9,109.2z"/>
				<path class="st2" d="M215.9,86.6c2.8,0,5.1,2.3,5.1,5.1c0,2.8-2.3,5.1-5.1,5.1c-2.8,0-5.1-2.3-5.1-5.1c0,0,0,0,0-0.1l0,0
					C210.9,88.9,213.2,86.6,215.9,86.6z"/>
			</g>
		</g>
	</g>
</g>
</svg>
