<svg id="Layer_1" data-name="Layer 1" xmlns="http://www.w3.org/2000/svg" viewBox="0 0 514.53 380.57"><path d="M178.15,94.29c-.78,45.76-68.84,45.75-69.62,0C109.31,48.53,177.38,48.54,178.15,94.29Z" fill="#f3f4f4"/><path d="M145.85,171c63-39.84,147.27,27.87,115.54,98.15-18.08,41.17-63.78,46-68,46.37C109.65,325.28,72.52,217.12,145.85,171Z" fill="#f3f4f4"/><path d="M249,43.86C379.89-65.23,567.39,123,428.72,257.94c-10.86,12.83-45.79,35.55-69.17,18.94-20.61-16.17,2.86-56.69-20.09-87.72C320.18,159.82,286,173.74,256,149.75,226.82,121.81,222.19,81.8,249,43.86Z" fill="#f3f4f4"/><g id="freepik--Floor--inject-26"><path d="M81.68,340.36c135.06-.61,286.56-.61,421.61,0C368.24,341,216.74,341,81.68,340.36Z" fill="#273339"/></g><path d="M98,310.2a3.7,3.7,0,0,0-1.47-2.57c-1.31-1-3.21-2.71-3.47-5-.39-3.55,2.17-6.36,6.17-6.8s7.15,1.7,7.55,5.25c.26,2.3-1.19,4.43-2.26,5.67a3.73,3.73,0,0,0,3.27,6.1h0l23.49-3.35-5-36.88-3.42-25.19-22.35,3c-2,.23-3.24,2.39-3,4.44A3.65,3.65,0,0,0,99,257.41c1.31,1,3.21,2.72,3.47,5,.4,3.56-2.16,6.36-6.19,6.82s-7.15-1.71-7.55-5.26c-.26-2.29,1.19-4.43,2.26-5.66a3.78,3.78,0,0,0,.86-2.83,3.7,3.7,0,0,0-4.08-3.28h0l-26.34,3.42,4.94,37.1,2.9,21.77.35,2.66,25.13-2.83a3.7,3.7,0,0,0,3.33-4Z" fill="#465b65"/><path d="M70.5,175.74A3.58,3.58,0,0,1,65.77,174v0a3.56,3.56,0,0,1,0-2.86c.62-1.43,1.33-3.82.4-5.83-1.41-3.14-4.9-4.21-8.46-2.62s-5.09,4.91-3.68,8c.9,2,3.15,3.09,4.64,3.59a3.52,3.52,0,0,1,2.09,1.91,3.58,3.58,0,0,1-1.79,4.73h0l-22.21,9.91,23.05,48.91L82.9,228.91a3.57,3.57,0,0,1,4.72,1.79v0a3.52,3.52,0,0,1,.05,2.86c-.62,1.44-1.33,3.82-.42,5.85,1.4,3.14,4.9,4.21,8.45,2.61s5.09-4.91,3.69-8c-.91-2-3.16-3.08-4.64-3.58a3.52,3.52,0,0,1-2.1-1.92c-.81-1.81-.34-4.13,1.45-4.93l19.62-9.25L90.91,165.88Z" fill="#f37260"/><path d="M131.83,106.87c.71-1.64,2.91-17.2,3.66-21.94s-1.16-5.68-2.84-8.32-5.2-6.4-5.25.57a20.27,20.27,0,0,0-5.17-5.63c-3.37-2.48-7-2-8,2.86a11.34,11.34,0,0,0-5.81,6.81,11.38,11.38,0,0,0-6.32,5.18l-.2,1.73a5.72,5.72,0,0,0-4.14,5.2,7,7,0,0,0-1.88,5.84c.82,3,7.79,28.35,7.79,28.35l20.45,1.27Z" fill="#fff" stroke="#142230" stroke-miterlimit="10" stroke-width="0.5"/><path d="M122.11,95s0,.59.86,1.09a4.25,4.25,0,0,0,1.57.54,1.94,1.94,0,0,0,1.18-.23,3.31,3.31,0,0,0,.89-.86c1.79-2.88,1.54-7.7-.68-12A30.85,30.85,0,0,0,122.18,78a14.3,14.3,0,0,0-3.93-3.86,4,4,0,0,0-3.77-.16c-.82.45-1,1-.93,1a4.88,4.88,0,0,1,1.11-.61,3.76,3.76,0,0,1,3.18.45,16.73,16.73,0,0,1,3.5,3.82,37.84,37.84,0,0,1,3.54,5.41,12.72,12.72,0,0,1,1,11,3.18,3.18,0,0,1-.62.7,1.09,1.09,0,0,1-.7.18,4,4,0,0,1-1.41-.29A6.25,6.25,0,0,1,122.11,95Z" fill="#142230"/><path d="M116.84,99.62A10.35,10.35,0,0,0,117,101a1.75,1.75,0,0,0,1.18,1.36,2.92,2.92,0,0,0,2.27-.38,6.4,6.4,0,0,0,2.27-5.29A14.65,14.65,0,0,0,121,89.9a40.18,40.18,0,0,0-3.68-5.79,8.79,8.79,0,0,0-4.68-3.27,7.43,7.43,0,0,0-3.86,0c-.86.25-1.29.54-1.27.61a10.87,10.87,0,0,1,4.88.25,8.33,8.33,0,0,1,4.07,3.14,46.3,46.3,0,0,1,3.48,5.67,14.2,14.2,0,0,1,1.72,6.21,5.59,5.59,0,0,1-1.68,4.54,2.26,2.26,0,0,1-1.7.43,1.22,1.22,0,0,1-.91-.86C117.07,100.1,116.93,99.6,116.84,99.62Z" fill="#142230"/><path d="M100.62,98.17a3.32,3.32,0,0,0,2.27.77,6.07,6.07,0,0,0,5.59-2.84h-.79A4.79,4.79,0,0,0,110,98.92l-.23-.71a6.21,6.21,0,0,0,.27,6.39,4.72,4.72,0,0,0,3.09,2.09,3.41,3.41,0,0,0,3.5-1.89,8.63,8.63,0,0,0,.8-5.24,13.47,13.47,0,0,0-1.5-4.55,11.63,11.63,0,0,0-6.07-5.34,11.17,11.17,0,0,0-5.4-.63,4.13,4.13,0,0,0-1.91.54,14.6,14.6,0,0,1,7,.87,11,11,0,0,1,5.43,5.08,12.27,12.27,0,0,1,1.3,4.25,7.68,7.68,0,0,1-.66,4.55,2.27,2.27,0,0,1-2.27,1.31,3.59,3.59,0,0,1-2.27-1.56,5.12,5.12,0,0,1-.32-5.27l.25-.48-.48-.21a3.91,3.91,0,0,1-2-2.27l-.35-.91-.47.82a5.71,5.71,0,0,1-4.8,2.8A17.66,17.66,0,0,1,100.62,98.17Z" fill="#142230"/><path d="M100.53,102.08c-.11.31,1.73.93,3.84,0s3.07-2.48,2.79-2.64-1.45.86-3.22,1.55S100.58,101.74,100.53,102.08Z" fill="#142230"/><path d="M112.93,115a21.24,21.24,0,0,1,11.5-12.13c0-.13-1.05,0-2.59.5a14.5,14.5,0,0,0-5.27,3.57" fill="#142230"/><path d="M188.1,105.67c0-10.29-1.75-20.45-1.34-30.85s3.09-21,10.27-28.4,19.67-10.2,28.07-4.24l1.71,8.76c-3.3,39.71-2.84,80.08-6.16,119.81-.43,5.2-4.65,9.92-7,14.6s-7.13,8.52-12.36,8.2c-6.81-.43-11.35-7.36-13.44-13.88C180.1,156.07,188.37,130.52,188.1,105.67Z" fill="#142230"/><path d="M212.88,52.26a28.66,28.66,0,0,1,5.23-7.09,9.73,9.73,0,0,1,8.11-2.7,4.07,4.07,0,0,1,3.22,2.27c.46,1.32-.52,3.07-1.9,3l-.3.24q-4.55,4.1-9.43,8a8.35,8.35,0,0,1-2.61,1.64,2.82,2.82,0,0,1-2.88-.62C211.09,55.74,212,53.69,212.88,52.26Z" fill="#465b65"/><path d="M207.05,62.37a52,52,0,0,1,40.27-20c9.09-.13,12.93,1.75,19.51,3.55a28.73,28.73,0,0,1,16.45,10.88,48.17,48.17,0,0,1,9.47,22.08,133.86,133.86,0,0,1,1.18,25,45.28,45.28,0,0,1-7.74,23.37l-21.13,3.68c-11.65.39-23.49.77-34.84-1.89s-22.4-8.76-28.49-18.71C193.28,96.37,196.8,74.93,207.05,62.37Z" fill="#142230"/><path d="M225.85,62.23,254,51.06l7.36.84c16.54,0,27.94,18.31,28.05,31.8,0,14.9-.31,33.07-2.68,44.05-4.77,22.08-23.6,23.92-23.6,23.92s.39,11.74.55,19.17l-16.25,25.3-26.82-28.51L218.45,69.8A7.87,7.87,0,0,1,225.85,62.23Z" fill="#fff" stroke="#142230" stroke-miterlimit="10" stroke-width="0.5"/><path d="M263.34,151.17c-10.49-.43-15.79.63-24.51-5.22,0,0,4.35,8.26,24.36,9.42Z" fill="#142230"/><path d="M222.22,107.21c0-1.66-1.61-5.68-3.23-6-4.33-.93-12.24-1-12.92,10.11-.93,15.15,14.49,13,14.54,12.54S221.92,112.93,222.22,107.21Z" fill="#fff" stroke="#142230" stroke-miterlimit="10" stroke-width="0.5"/><path d="M216.77,118.05a7.73,7.73,0,0,1-.73.34,2.79,2.79,0,0,1-2,0,6.55,6.55,0,0,1-2.69-6,9.19,9.19,0,0,1,1-3.74,3.06,3.06,0,0,1,2.11-1.91,1.37,1.37,0,0,1,1.53.82c.18.43,0,.75.13.77s.34-.23.27-.87a1.68,1.68,0,0,0-.54-1,2,2,0,0,0-1.43-.48,3.73,3.73,0,0,0-2.91,2.27,9,9,0,0,0-1.18,4.18,6.82,6.82,0,0,0,3.45,6.81,2.81,2.81,0,0,0,2.43-.25C216.72,118.41,216.81,118.07,216.77,118.05Z" fill="#142230"/><path d="M218.38,101.24l3.84,4c16.65-15.9,49.18-55.83,47.36-53.45a48.4,48.4,0,0,0-23.78-2.63c-12.38,2.11-35.85,8.31-35.48,22.9S218.38,101.24,218.38,101.24Z" fill="#142230"/><path d="M196.32,97.87a3.78,3.78,0,0,1,.23-.86,13.36,13.36,0,0,1,1-2.27,22.19,22.19,0,0,1,6.33-7.16,42,42,0,0,1,12.77-6.13c5.07-1.66,10.79-2.93,16.4-5.34a74.27,74.27,0,0,0,15-8.4,76.39,76.39,0,0,0,10.59-9.25,77.3,77.3,0,0,0,6.11-7.27c.64-.84,1.13-1.54,1.52-2.09a4,4,0,0,1,.59-.7,3.84,3.84,0,0,1-.45.79c-.32.5-.75,1.25-1.41,2.28a68.89,68.89,0,0,1-6,7.45,75.44,75.44,0,0,1-10.57,9.47,73.16,73.16,0,0,1-15.1,8.52,162,162,0,0,1-16.52,5.31,42.39,42.39,0,0,0-12.65,5.91,23.23,23.23,0,0,0-6.4,6.81A29,29,0,0,0,196.32,97.87Z" fill="#465b65"/><path d="M200.73,100.28a8.33,8.33,0,0,1,.59-3.31,15.56,15.56,0,0,1,5.7-7.16,34.62,34.62,0,0,1,12.68-5,76.1,76.1,0,0,0,15.72-5,66.62,66.62,0,0,0,23.64-18.1,74.84,74.84,0,0,0,5.37-7.39l1.29-2.11c.3-.5.45-.73.5-.73a3.84,3.84,0,0,1-.36.8L264.7,54.6a65.07,65.07,0,0,1-5.2,7.57,66.28,66.28,0,0,1-9.59,9.65,66.6,66.6,0,0,1-14.15,8.81,72.12,72.12,0,0,1-15.9,5,34.8,34.8,0,0,0-12.52,4.72,15.89,15.89,0,0,0-5.72,6.82A18.93,18.93,0,0,0,200.73,100.28Z" fill="#465b65"/><path d="M218.88,126.93c0-.12-1.29-.27-3.54-.87a21.65,21.65,0,0,1-8.5-4.74A30.59,30.59,0,0,1,199,109.25a53.42,53.42,0,0,1-3.29-17.51,45,45,0,0,1,.72-9.2,47.3,47.3,0,0,1,2.52-8.22,45.27,45.27,0,0,1,7.86-12.25A73.05,73.05,0,0,1,217,53.19a3.81,3.81,0,0,0-.84.46,25.65,25.65,0,0,0-2.27,1.45,46.14,46.14,0,0,0-7.59,6.5A43.59,43.59,0,0,0,198.1,74a44.37,44.37,0,0,0-2.64,8.41,45.61,45.61,0,0,0-.77,9.4,53.11,53.11,0,0,0,3.43,17.84,30.81,30.81,0,0,0,8.29,12.26,21.18,21.18,0,0,0,8.86,4.55,17.33,17.33,0,0,0,2.68.4A4.94,4.94,0,0,0,218.88,126.93Z" fill="#465b65"/><path d="M343,144.19s1.45-9.29,4.68-8.34,3.52,4.34,3.7,6.59c0,0,11.88,8.5,12.86,10.75s1.61,7-.14,9.42-8.43,20.08-9.09,23l2,10.54-22-.68S333,181.83,333,177.72a72.05,72.05,0,0,1,2-12s-3,.16-4-1.61a17.58,17.58,0,0,1-1.14-8.34c.5-1.45,3.23-2.4,3.23-2.4a4.72,4.72,0,0,1,4-3.21S337.18,143.4,343,144.19Z" fill="#fff" stroke="#142230" stroke-miterlimit="10" stroke-width="0.5"/><path d="M343,144.4a12.89,12.89,0,0,1,1.93-1.46,6.63,6.63,0,0,1,5.36-.27,16.23,16.23,0,0,1,4.91,3c1.18,1,1.93,1.57,2,1.45s-.41-.9-1.48-2.06a12.6,12.6,0,0,0-5.09-3.52,6.79,6.79,0,0,0-6.2.68C343.14,143.26,342.84,144.35,343,144.4Z" fill="#142230"/><path d="M342.73,144.31a39.94,39.94,0,0,0,4.65,3.65,46.57,46.57,0,0,0,4.77,3.64c.3-.21-1.31-2.57-4-4.55S342.84,144,342.73,144.31Z" fill="#142230"/><path d="M336.93,149.92a16.65,16.65,0,0,0,4.12,3,15.74,15.74,0,0,0,4.54,2.28c.25-.28-1.45-1.91-3.86-3.39S337.09,149.58,336.93,149.92Z" fill="#142230"/><path d="M332.39,153.75c0,.16.61,0,1.39.37a16.88,16.88,0,0,1,3,1.91c2.27,1.63,4.27,2.93,4.55,2.68s-1.44-2-3.8-3.66a9.42,9.42,0,0,0-3.43-1.73C332.91,153.1,332.28,153.64,332.39,153.75Z" fill="#142230"/><path d="M334,160.32c-.25.23.36,1.34.64,2.77a14.77,14.77,0,0,1,.22,1.89v.81c0,.16.6,0,.8-.68a4.59,4.59,0,0,0,0-2.27C335.41,161.07,334.21,160.09,334,160.32Z" fill="#142230"/><path d="M330,275.26a46.82,46.82,0,0,1-1-6.65,52.69,52.69,0,0,1,2.45-15.91,66.66,66.66,0,0,0,3.07-16.19,24.14,24.14,0,0,0-.41-5,4.9,4.9,0,0,0-.55-1.75c-.2,0,.41,2.59.12,6.81a81.39,81.39,0,0,1-3.37,15.9,46.36,46.36,0,0,0-2.27,16.36,19.8,19.8,0,0,0,1.05,4.93A4.63,4.63,0,0,0,330,275.26Z" fill="#273339"/><path d="M119.93,203.25a20.93,20.93,0,0,0,6.41-19.37A62.42,62.42,0,0,1,124.52,194,60.93,60.93,0,0,1,119.93,203.25Z" fill="#273339"/><path d="M91.1,196.62c-.47,22.94,18.5,32.94,32.83,34.35,11,1.09,43.52-3.55,57.88-5.73v1.09l9.83,54.38c-.52,3.47-1.23,7.86-2.17,13-1.48,8.1-2.36,11.43-3.56,17.52-2.8,14.2-4.41,21.26-2.61,24.36,3.4,5.88,12.57,5,44.95,4.35,14.78-.3,36.83.15,51.62-.05,17.3-.23,24.13-.57,33.27-.38Q307,317.16,300.86,294.8s4.36-14,7.52-28.72c4.93,8,23.74,37.05,38.5,39.53,17.13,2.88,20.95-17.2,20.95-28.08,0-33.91-11.56-87.93-11.56-87.93l-23-2.29.93,44.45S321.85,201.41,316,189.51c-6.36-12.79-23-16.7-30-17.79h0l-15.56-4-7.11-9.09-11.93,16.88L220.18,152.6,214,163.34l-20.94-.93c-3.43-.8-14-2-29.51,6.38-7,3.82-36.8,17.22-36.8,17.22s.77-35-1.82-47.27l.48-9.88-25.67-4.07S91.47,179.63,91.1,196.62Z" fill="#fef1f0" stroke="#142230" stroke-miterlimit="10" stroke-width="0.5"/><path d="M176.7,205.89c-.41,0,1.29,8.79,4.2,19.26,1.39,5,2.63,9.61,3.7,13.45a35.65,35.65,0,0,0,1.66,5.54c.41,0-1.29-8.79-4.2-19.28l-3.7-13.45A34.07,34.07,0,0,0,176.7,205.89Z" fill="#273339"/><path d="M300,196.14c-.2,0,2.27,3.75,4.93,10.11a84.66,84.66,0,0,1,4,11.36,94.48,94.48,0,0,1,2.73,14.63,96.87,96.87,0,0,1,.18,14.85,88.84,88.84,0,0,1-1.73,12C308.61,266,307,269.92,307.22,270a15.58,15.58,0,0,0,1.23-2.77,31,31,0,0,0,1.16-3.36c.41-1.34.93-2.84,1.29-4.55a78.9,78.9,0,0,0,2-12.13A82.36,82.36,0,0,0,310,217.31a80.43,80.43,0,0,0-4.34-11.49c-.68-1.61-1.47-3-2.13-4.23s-1.27-2.27-1.8-3.06A15.11,15.11,0,0,0,300,196.14Z" fill="#273339"/><path d="M222,294.64c0,.34,14.36,1.13,32.07,1.79s32.1,1,32.12.62-14.35-1.12-32.07-1.8S222,294.32,222,294.64Z" fill="#273339"/><path d="M251.64,175.33a13.38,13.38,0,0,0,1.54,4.25,36.39,36.39,0,0,0,6.43,9.29l.57.62.38-.75,1.73-3.55c2.39-4.86,4.54-9.29,5.95-12.54a26.75,26.75,0,0,0,2.14-5.33,29.68,29.68,0,0,0-2.89,5c-1.66,3.14-3.88,7.52-6.27,12.4l-1.7,3.52.93-.13A59.52,59.52,0,0,1,251.64,175.33Z" fill="#273339"/><path d="M213.72,163.55a8.28,8.28,0,0,0,1.37,1.74c.93,1.07,2.27,2.57,4.06,4.39a190.89,190.89,0,0,0,14.66,13.49c3.7,3,7.29,5.75,10.42,8l.5.36L245,191a68.55,68.55,0,0,0,4.21-9.91,18.1,18.1,0,0,0,1-4,22,22,0,0,0-1.61,3.77,93,93,0,0,1-4.55,9.63l.75-.18c-3.06-2.27-6.61-5.07-10.29-8.09-5.93-4.88-11.06-9.59-14.74-13A72.09,72.09,0,0,0,213.72,163.55Z" fill="#273339"/><g id="freepik--speech-bubble-2--inject-9"><path d="M82.07,132.67l-9.46,1.69a28.71,28.71,0,1,1,5.33-8.8h0Z" fill="#fff"/><path d="M82.07,132.67s-.11-.16-.3-.47L81,130.83l-3.11-5.23H78a.11.11,0,0,1-.15,0,.11.11,0,0,1,0-.13,28.7,28.7,0,0,0,1.59-13.8,28,28,0,0,0-.92-4.33A30.22,30.22,0,0,0,76.76,103a28.08,28.08,0,0,0-6.14-8.36,28.67,28.67,0,0,0-22-7.6,29.08,29.08,0,0,0-12.45,4.23,27.93,27.93,0,0,0-9.55,9.92,28.47,28.47,0,0,0,45.92,33.13h.06l7-1.17,1.83-.3.64-.1-.59.13-1.78.34-7.07,1.33h.07A28.8,28.8,0,0,1,24,125.34a28.88,28.88,0,0,1,2.15-24.45l.93-1.55c.34-.49.7-1,1.05-1.45a31.48,31.48,0,0,1,2.3-2.72c.39-.44.86-.81,1.28-1.21A16.1,16.1,0,0,1,33,92.8a28.05,28.05,0,0,1,2.85-2,29.49,29.49,0,0,1,12.67-4.29A29.12,29.12,0,0,1,70.93,94.3a28.68,28.68,0,0,1,6.19,8.5,30.32,30.32,0,0,1,1.74,4.5,27.58,27.58,0,0,1,.9,4.39A28.61,28.61,0,0,1,78,125.61l-.18-.1h0a.14.14,0,0,1,.15,0h0l3,5.37.77,1.36Z" fill="#273339"/><polygon points="50.82 127.07 36.76 117.67 40.04 112.77 49.47 119.07 61.19 103.55 65.9 107.11 50.82 127.07" fill="#f37260"/></g><path d="M389.85,84.05c-5.41,1.25-10.22,14.19-5.8,22.25,1.12,2,1.49,1.32,11.12,8.62,6.13,4.64,10.41,8.28,12.23,7,1.13-.77.33-2.78,1.72-3.61,1.74-1,3.81,1.6,6.11.63,1.61-.68,1.23-2.22,3.29-3.29,1.72-.9,2.39,0,3.61-.94,1.57-1.19.89-3,2.66-4.23.93-.65,1.22-.22,2.19-.94,1.48-1.08,1.18-2.32,2.35-3.14,1.42-1,2.67.23,3.61-.47,1.21-.89.27-3.74-2.82-13.47-1.28-4-1.63-5.12-2.82-6.43-1.68-1.83-3.53-2.42-7.21-3.6A43.21,43.21,0,0,0,408,80.6a16.89,16.89,0,0,0-5.79.47c-2.88.91-3.44,2.25-6.12,3C393,84.9,391.82,83.59,389.85,84.05Z" fill="#fff" stroke="#010101" stroke-miterlimit="10"/><path d="M442.89,78.69a1.49,1.49,0,0,0-.49-1.2,1.42,1.42,0,0,0-1.25-.13c-4.87,1.4-9.7,2.71-13.79,3.81h-.06c-.94.25-1.48.43-1.73,1.12l-.14.39-.4-.09-4.58-1c-3.43-.77-7-1.57-10.47-2.38a11,11,0,0,0-10.28,2.47,2.36,2.36,0,0,1-1.11.62c-1.72.23-3.47.42-5.15.62l-1.62.18-.9.11.43-.79a3.44,3.44,0,0,1-.27-.27,2.73,2.73,0,0,0-1-.76c-3.86-1.12-7.81-2.19-11.62-3.22l-3-.81a1.35,1.35,0,0,0-1.17.1,1.39,1.39,0,0,0-.4,1.1q0,13.5,0,27c0,.82.24,1.12,1.08,1.35l1.58.42c1.83.48,3.71,1,5.55,1.52,1,.29,1.5.19,1.93-.42l.26-.36.37.24.14.08.26.17,4.64,3.59c4.3,3.33,8.75,6.77,13.11,10.17,1.91,1.49,4.11,1.54,5.73.12a8.66,8.66,0,0,0,1.3-1.54c.2-.26.4-.54.62-.81l.23-.29.33.15c3.62,1.68,5.46,1,7.32-2.84l.15-.31.34,0c3.1.43,5-.86,5.87-3.94a1.78,1.78,0,0,1,.94-.93c.32-.19.66-.34,1-.5a5.45,5.45,0,0,0,1.57-.94,8.06,8.06,0,0,0,1.22-1.9c.18-.34.36-.69.57-1l.14-.23h2.16l.12.28c.65,1.53.76,1.58,2.39,1.13,2.07-.58,4.32-1.18,6.86-1.86.92-.25,1.13-.52,1.13-1.49V98.62C442.85,92.09,442.84,85.33,442.89,78.69Zm-60.58,28-.45-.13-1.27-.34c-1.3-.35-2.53-.68-3.77-1.07-.53-.17-.76-1-.76-1.39,0-5,0-10.15,0-15.1V79.68l12.73,3.48Zm45.17,1.27a2.55,2.55,0,0,1-1.64,1.77,2.49,2.49,0,0,1-2.28-.51L417,104.1l-3-2.27-.49-.37c-.51-.38-1.23-.57-1.68.05a1.12,1.12,0,0,0,.38,1.58l2.62,2,1.58,1.22,1.31,1c1.29,1,2.62,2,3.92,3.07a2.52,2.52,0,0,1,1.07,1.66,2.39,2.39,0,0,1-.64,1.77,2.17,2.17,0,0,1-3.36.36l-7.13-5.47-2.79-2.15,0,0-.55-.42a1.79,1.79,0,0,0-1.25-.46.85.85,0,0,0-.58.38c-.5.68,0,1.3.52,1.7l3.17,2.46,2.45,1.89.46.35c.76.59,1.54,1.2,2.3,1.82a2.26,2.26,0,0,1,.44,3.44,2.23,2.23,0,0,1-3.38.36l-6.49-5-2.6-2-.17-.14-.5-.37c-.32-.24-1.13-.71-1.68,0a1.12,1.12,0,0,0,.37,1.58l1.9,1.47,1.17.9.79.62c.78.59,1.58,1.21,2.35,1.85a2.23,2.23,0,0,1,.29,3.32,2.32,2.32,0,0,1-1.81,1,2.49,2.49,0,0,1-1.49-.56c-3.88-3-7.8-6-11.6-8.94L389.2,109l-1.08-.84c-.79-.63-1.62-1.27-2.44-1.87a1.46,1.46,0,0,1-.63-1.77c1.95-7,3.54-12.74,5-18.13a1.42,1.42,0,0,1,1.42-1.2c1.13-.1,2.26-.24,3.47-.38l1.54-.19.94-.11-.49.82c-.42.72-.84,1.42-1.25,2.11-1,1.61-1.87,3.14-2.8,4.67-.59,1-.51,1.37.38,2a9,9,0,0,0,12.92-1.87c.2-.28.42-.55.64-.84l.35-.45.29-.37,8.67,6.7,10,7.75.09.07C427,105.72,428,106.48,427.48,107.93Zm3.67-2.45-.33-.15-.6-.23a4.71,4.71,0,0,1-1.41-.68c-5.47-4.18-11-8.45-16.36-12.58l-4.22-3.26-.79-.61-2-1.52c-.63-.46-1.23-.44-1.62.06-.52.66-.11,1.22.32,1.58l.81.64.36.28.31.24-.18.35a8.09,8.09,0,0,1-4.93,4.17,6.47,6.47,0,0,1-5.22-.79l-.39-.24.24-.4c.51-.82,1-1.67,1.5-2.49a65.41,65.41,0,0,1,3.57-5.61c2-2.75,5-3.83,8.65-3.11,1.37.27,2.75.58,4.08.88l1.21.28,3.46.78c2.44.56,5,1.13,7.44,1.66a2,2,0,0,1,1.68,1.64c1.13,4.25,2.32,8.55,3.47,12.72l1.24,4.51c.06.22.11.43.16.64l.06.28.05.22Zm8.36-.17c-1.06.25-2.09.54-3.18.84l-1.39.38-.45.12L428,83.17l12.66-3.47,0,.59c0,.12,0,.24,0,.35s0,.43,0,.64v5.66c0,5.47,0,11.13,0,16.69A1.47,1.47,0,0,1,439.51,105.31Z" fill="#162143"/><path d="M388.77,83.16l-6.46,23.5-.45-.13-1.27-.34c-1.3-.35-2.53-.68-3.77-1.07-.53-.17-.76-1-.76-1.39,0-5,0-10.15,0-15.1V79.68Z" fill="#f37366"/><path d="M440.78,103.63a1.47,1.47,0,0,1-1.27,1.68c-1.06.25-2.09.54-3.18.84l-1.39.38-.45.12L428,83.17l12.66-3.47,0,.59c0,.12,0,.24,0,.35s0,.43,0,.64v5.66C440.76,92.41,440.75,98.07,440.78,103.63Z" fill="#2fa5dd"/></svg>