<svg id="Layer_1" data-name="Layer 1" xmlns="http://www.w3.org/2000/svg" viewBox="0 0 449.4 383.1"><path d="M113,89.3c-.8,45.7-68.8,45.7-69.6-.1C44.2,43.5,112.2,43.5,113,89.3Z" fill="#f1efef"/><path d="M80.7,166c63-39.9,147.3,27.8,115.5,98.1-18,41.2-63.7,46-68,46.4C44.5,320.2,7.4,212.1,80.7,166Z" fill="#f1efef"/><path d="M183.9,38.8C314.7-70.3,502.2,117.9,363.6,252.9c-10.9,12.8-45.8,35.5-69.2,18.9-20.6-16.1,2.9-56.6-20.1-87.7-19.3-29.3-53.5-15.4-83.5-39.4C161.7,116.8,157,76.8,183.9,38.8Z" fill="#f1efef"/><g id="freepik--Floor--inject-26"><path d="M16.5,335.3c135.1-.6,286.6-.6,421.6,0C303.1,335.9,151.6,335.9,16.5,335.3Z" fill="#273339"/></g><rect x="207.9" y="199.2" width="39.4" height="58.48" transform="translate(-59.5 375.3) rotate(-72.2)" fill="#c9c9c9"/><path d="M261.5,219.1l-.7.4-2,.8-7.3,3.1-24.4,10h-.2v-.2l-.3-.4-14.7-22.3c-1.8-2.9-3.3-5.2-4.4-6.8l-1.2-1.9-.3-.7a4.3,4.3,0,0,1,.4.7c.3.4.8,1,1.3,1.8l4.5,6.7L227,232.6l.3.4h-.4l24.5-9.8,7.4-3,2-.7Z" fill="#8e8e8e"/><path d="M193.8,238.8c-.1-.1,5.7-3.9,13-8.5s13.3-8.2,13.3-8-5.7,3.9-13,8.4S193.9,238.9,193.8,238.8Z" fill="#8e8e8e"/><path d="M238.8,227.7c.1,0,2.6,6.4,5.6,14.4s5.2,14.5,5.1,14.6-2.7-6.4-5.6-14.4S238.7,227.8,238.8,227.7Z" fill="#8e8e8e"/><g id="freepik--Character--inject-151"><path d="M37.1,160.2,56,153.5l-8.1-10.9a45.9,45.9,0,0,1-.6-7.3,11.5,11.5,0,0,1,.6-3.7,16.2,16.2,0,0,1,2-4.2,1.5,1.5,0,0,0-.1-2.1,1.7,1.7,0,0,0-1.2-.4c-1.4.4-3.8,3.4-5,7.9s-4.2-2.1-5.3-4.5-5.1-9.6-6.1-9.8-2.1,1.2-.9,3.5,4.4,9.7,3.1,10.3-7.1-11.7-7.1-11.7-.8-2.8-2.3-2.2,4.4,13.6,5.1,14.7-.9,1.5-1.4.6-5.4-12.3-8.2-11.3,5.7,10.4,5.4,13.3-5.2-7.8-7.2-7-1.3.7,2.5,6.5a73.6,73.6,0,0,0,6,7.8h0l9.9,17.2" fill="#fff" stroke="#000" stroke-miterlimit="10" stroke-width="0.5"/><path d="M95,335.6s88.2,1.1,112.4-.7l-18.6-65.5-2.5-26h-62s-18.4,8.4-21.4,49.3S95,335.6,95,335.6Z" fill="#172045"/><path d="M207.9,183.4s-9.4-21.9-15.8-32.5-14.2-11.6-18.5-12a33.5,33.5,0,0,0-5.5-1.1l-35.1-.3a33.5,33.5,0,0,0-21,7.7c-1.6,1.4-13.7,15.4-29.9,35.5L53.9,150.2l-16.8,9.9s18.3,63.1,41.2,58.8c13.6-2.6,24.2-12,24.2-12l17.8-14.4.5,2.4a90.6,90.6,0,0,0,1.9,10.4c2.2,9.1,3.4,20.9-1.3,28.8,0,0-6.4,4.8-1.3,10.2h66.1s9.4-6.4.8-13.4l-5.3-13.4,3.5-16.4,1.3-6.6,5.8,10s11.6,14.5,23.5,12.7c14.4-2.1,22.8-28.4,9.8-63.1l-15.7,4.8Z" fill="#fef4f3" stroke="#000" stroke-miterlimit="10" stroke-width="0.5"/><polygon points="37.1 160.2 38.7 165.4 57.4 154 53.9 150.2 37.1 160.2" fill="#f8d5d4" stroke="#000" stroke-miterlimit="10" stroke-width="0.25"/><path d="M122.4,234.1a21.3,21.3,0,0,0,13.9-8.6,21.9,21.9,0,0,0,4-16.2,7.3,7.3,0,0,0-2.8-5.2c-2.1-1.3-4.9-.7-7.1-1.8s-2.7-2.9-4-4.5-2.9-4-4.7-3.3c0,0,2.2,11.7,3.1,16.9s1.4,12.7-.5,18.2A28.8,28.8,0,0,1,122.4,234.1Z" fill="#feeae9"/><path d="M79.4,191.4a17.8,17.8,0,0,1,1-5.5,36.2,36.2,0,0,1,1.7-5.3,16.8,16.8,0,0,1-1,5.5A32.7,32.7,0,0,1,79.4,191.4Z" fill="#273339"/><path d="M83.6,188.6a23.7,23.7,0,0,1-1.6-7.9,12.7,12.7,0,0,1,1.2,3.9A13.3,13.3,0,0,1,83.6,188.6Z" fill="#273339"/><polygon points="209.8 111.3 185.8 150.2 204.7 155.5 225.6 123.2 209.8 111.3" fill="#f3bebd"/><path d="M208.3,144.5l.8,5.7,3.4,4.3.3,3.5,12-3.7L220,137.1a41.2,41.2,0,0,0,.5-7l-3.4,4.3-.9-7.1-6.8-5.5a1.6,1.6,0,0,0-2.3.4h0a1.6,1.6,0,0,0,.2,2.1l5.4,4.8.4,6-4-3.7a2.7,2.7,0,0,0-1.4-.7l-5.5-1.1a1.3,1.3,0,0,0-1.6,1.1.1.1,0,0,1-.1.1h0a1.8,1.8,0,0,0,1,1.6l5,1.5,5.1,5.1-5-1.9-6.7.9a1.4,1.4,0,0,0-1.1,1.4h0a1.3,1.3,0,0,0,1.3,1.3l4.3-.3,2.5.8-5.7,1.6a1.1,1.1,0,0,0-.9,1.1h0a1.1,1.1,0,0,0,1.2,1.1h0Z" fill="#fff" stroke="#000" stroke-miterlimit="10" stroke-width="0.5"/><polygon points="209.9 158.9 209.4 165.3 227.6 160.2 225.5 154.1 209.9 158.9" fill="#f8d5d4" stroke="#000" stroke-miterlimit="10" stroke-width="0.25"/><path d="M185.8,150.3s-1.7-2.2-1.5-2.6,22.8-37.8,22.8-37.8l2.7,1.5Z" fill="#f2aaaa"/><path d="M215.4,120.7a1.4,1.4,0,0,1,2,2,1.5,1.5,0,0,1-1.3.4,1.5,1.5,0,0,1-1-1.9.5.5,0,0,1,.2-.4" fill="#fff" stroke="#000" stroke-miterlimit="10" stroke-width="0.5"/><path d="M200.7,169.1a3.6,3.6,0,0,1-.7,1,6.2,6.2,0,0,1-2.9,1.5,11.9,11.9,0,0,1-5.3,0,20,20,0,0,0-6.9-.3,17.9,17.9,0,0,0-7.1,4c-2.4,1.8-4.9,4.1-8.3,5.1a13.5,13.5,0,0,1-5.3.4,24.4,24.4,0,0,1-5.3-1.4c-3.5-1.4-6.8-3.3-10.5-4.7a19.1,19.1,0,0,0-11.1-.7c-3.6.7-6.9,2-10.3,2.6a26.6,26.6,0,0,1-27-10.4,18.7,18.7,0,0,1-2.2-3.9,42.3,42.3,0,0,0,2.4,3.8,27.3,27.3,0,0,0,9.3,7.6,25.6,25.6,0,0,0,17.4,2.3c3.3-.8,6.6-2,10.3-2.8a19.6,19.6,0,0,1,11.5.8c3.8,1.3,7.1,3.3,10.5,4.6a23.8,23.8,0,0,0,5.2,1.5,12.1,12.1,0,0,0,5-.4c3.2-1,5.7-3.1,8.1-5a18.9,18.9,0,0,1,7.4-3.9,18.4,18.4,0,0,1,7,.3,12.5,12.5,0,0,0,5.1.2,8.1,8.1,0,0,0,3-1.3Z" fill="#feeae9"/><path d="M208.3,194.4a28.8,28.8,0,0,1-.6-5.9,29.4,29.4,0,0,1,.2-5.9,28.8,28.8,0,0,1,.6,5.9A29.1,29.1,0,0,1,208.3,194.4Z" fill="#273339"/><path d="M190.3,102.9c-.6-1.6-1.9-2.7-2.5-4.3s-.3-4.9,0-7.4-.3-5.5-2.6-6.5l-2.9-1c-1.8-1.1-1.7-3.6-1.8-5.7a11.4,11.4,0,0,0-1.1-4h.4a5.8,5.8,0,0,1,6.8,3.4,3.3,3.3,0,0,1-.3,3.3,2.1,2.1,0,0,1-2.5.8,1.8,1.8,0,0,1-1-2,1.4,1.4,0,0,1,1.5-.8,1.1,1.1,0,0,1,1,.6l.2.3v-.4a1.5,1.5,0,0,0-1.1-.8,1.1,1.1,0,0,0-1,.1,1.1,1.1,0,0,0-.9.9,2.1,2.1,0,0,0,1.1,2.6,2.8,2.8,0,0,0,3.3-.9,4.1,4.1,0,0,0,.4-4,6.5,6.5,0,0,0-7-4,3.9,3.9,0,0,0,.4-3.5,4.9,4.9,0,0,0-3-3.1,7.4,7.4,0,0,0-3.9-.2,12,12,0,0,0-3.1,1.3l-2.1,1.6a4.5,4.5,0,0,1-1.8.7,3.8,3.8,0,0,1-1.6-.3,1.9,1.9,0,0,0,1.6.6,3.6,3.6,0,0,0,2-.6L171,68a7.3,7.3,0,0,1,6.4-1,4.8,4.8,0,0,1,2.7,2.7,3.3,3.3,0,0,1-1,3.5,7.1,7.1,0,0,0-2.8-2.9c-2.7-1.5-6.7-.8-8,2l-21.8-7.5a10.3,10.3,0,0,0-10-2h-.4a7.6,7.6,0,0,0-3.7.6,11.4,11.4,0,0,0-3.7,3.2,9.1,9.1,0,0,1-2.1,1.8h-.4a14.3,14.3,0,0,1-2.9.1c-1.9-.4-3.8-1.4-6-1.7a12,12,0,0,0-3.8.3,8.1,8.1,0,0,0-3.4,2.1,6.2,6.2,0,0,0-1.4,3.9,10.5,10.5,0,0,0,.5,3,11.4,11.4,0,0,0-.7,4.1c.1,1.9.7,3.8.7,5.6a5.1,5.1,0,0,1-1.8.9l-3.6,1a8.3,8.3,0,0,0-4.7,5,6,6,0,0,0,.6,5.5,8.4,8.4,0,0,0,1.6,7c1.2,1.2,2.3,2.4,3.4,3.7s1.2,5,1.6,7.7,1.8,5.5,4.5,5.7,4-1.6,6.1-1.5,4.2,3.9,6,6.3a10.5,10.5,0,0,0,9.9,4.3c2.6-.4,5.3-1.8,8-1.1s5.3,4.7,8.7,5.2,4.9-1.3,6.8-3,3.8-3.8,6.3-4.2,5.9,1.3,9,1.7a10.2,10.2,0,0,0,10-5c1.7-3.1,1.7-6.8,3.3-9.9a57.2,57.2,0,0,1,3.9-5.7C190.1,107.6,191.1,105.2,190.3,102.9ZM103,93.1h-.8l.6.2-.4.3a8.5,8.5,0,0,0-2.6,4,6.1,6.1,0,0,1-.1-4.6,7.6,7.6,0,0,1,4.3-4.5c1.1-.4,2.3-.5,3.5-.9l1.6-.7a5.8,5.8,0,0,1-.7,2.1c-1.1,1.9-3.5,2.8-5.4,4.1Zm14.8-24.4a11.5,11.5,0,0,0-8.2,6.3,11,11,0,0,1-.2-1.8,4.7,4.7,0,0,1,1.3-3.4,7.3,7.3,0,0,1,6.4-2.2,19,19,0,0,1,3.6.9l-2.9.2Zm10.9-.9-.8.3L129,67a13.2,13.2,0,0,1,3.5-3.2,6,6,0,0,1,3.2-.7,6,6,0,0,0-1.6.8c-1.9,1.2-3.3,3-5.4,3.9Z" fill="#172045"/><path d="M176,113.4c1-6.5.7-17.3.1-26a13.9,13.9,0,0,0-14.7-13h-.6L138,76.8a4.6,4.6,0,0,0-4.1,4.7l2.3,56.1h-5.3v3.1c0,11.6,21,20,21,20s21-8.4,21-20v-1.8s-5.4-1.8-8.7-1.6h-.9a81.6,81.6,0,0,1,.5-9.1S173.9,126.5,176,113.4Z" fill="#fff" stroke="#000" stroke-miterlimit="10" stroke-width="0.5"/><path d="M163.5,128a26.8,26.8,0,0,1-14.4-2.8s4,7.1,14.5,5.3Z" fill="#172045"/><path d="M181,75.6c-.9-3.5-3.5-6.7-7.1-7.4s-4.7.3-7,.1-2.7-1.7-4.5-2.3-5.5-4.4-12.1-3.7c-1.8.2-4.1,2.3-5.7,4.6-2.6-1.1-5.9.1-7.8.9-3.8,1.7-6.2,5.9-6.9,10.3s-.1,8.8.5,13.2c.2,2,.5,4,.8,6a10.4,10.4,0,0,0,1.1,3.8l-3.1,28.2a11.9,11.9,0,0,0,14.8-7.6c0-.2.1-.4.1-.6,1.2-5.6-1.9-11.2-1.4-16.8.3-3.4,2.2-6.5,2.2-9.9a12.6,12.6,0,0,0-.5-3.3h0c5.3-4.3,6.7-7.8,6.5-11.9a10.1,10.1,0,0,0,5.6,1.8c2.8,0,5.7-1,8.3,0a14.8,14.8,0,0,1,4.7,3.8c1.5,1.5,3.4,2.8,5.3,2.5a9.4,9.4,0,0,0,2.8-1,3.4,3.4,0,0,1,2.8,0A21.5,21.5,0,0,0,181,75.6Z" fill="#172045"/><path d="M161,335.5V335c0-.4-.1-.9-.1-1.5s-.3-3.3-.5-5.8c-.3-5-.8-4.3-1.4-13.3-1-18,.5,2.3-.1-25.2s-.5,2-.3-15.9c.2-9,.4-16.3.5-21.4.1-2.5.2-4.4.2-5.8v5.8c0,5.1-.2,12.4-.3,21.4-.2,18-.2-11.6.4,15.9s-.9,7.2,0,25.2c.5,9,.9,8.3,1.2,13.3.2,2.5.3,4.4.3,5.8a6.6,6.6,0,0,0,.1,1.5Z" fill="#465b65"/><path d="M166.9,299.7l.5-.3a2.5,2.5,0,0,1,1.5.2,2.7,2.7,0,0,1,1.5,1.8,2.6,2.6,0,0,1-2.4,2.8,2.2,2.2,0,0,1-1.7-.5,2.4,2.4,0,0,1-.8-2.1,2,2,0,0,1,.6-1.4l.4-.3a4.9,4.9,0,0,0-.6,1.7,2.3,2.3,0,0,0,.8,1.7,2,2,0,0,0,2.7-.6,2.7,2.7,0,0,0,.3-1.2,2.1,2.1,0,0,0-1-1.4A3.7,3.7,0,0,0,166.9,299.7Z" fill="#465b65"/><path d="M165.4,252.1a.7.7,0,0,1,.4-.3,2.5,2.5,0,0,1,1.5.2,2.7,2.7,0,0,1,1.5,1.8,2.3,2.3,0,0,1-1.4,2.5,2.4,2.4,0,0,1-2.8-.1,3.5,3.5,0,0,1-.8-2.2,2.6,2.6,0,0,1,.6-1.3c.3-.3.5-.3.5-.3a4.9,4.9,0,0,0-.6,1.7,2.4,2.4,0,0,0,.7,1.6,2.1,2.1,0,0,0,2.8-.6,2,2,0,0,0,.3-1.1,2.3,2.3,0,0,0-1-1.5A3.5,3.5,0,0,0,165.4,252.1Z" fill="#465b65"/></g><rect x="335.1" y="74.4" width="42.1" height="37.98" rx="1" fill="#fff"/><rect x="346.2" y="94.1" width="38.7" height="25.56" rx="7.6" fill="#fff"/><path d="M365.5,121.2h-11a9.7,9.7,0,0,1-2.4-.2,6.8,6.8,0,0,1-3.4-1.9,7,7,0,0,1-2.3-4.5,11,11,0,0,1-.2-1.8V103a16.2,16.2,0,0,1,.1-2.2,9.5,9.5,0,0,1,.5-3.3,7.1,7.1,0,0,1,1.6-2.6,6.9,6.9,0,0,1,4-2.2l2.1-.2h21.7l3,.2.5.2a8.1,8.1,0,0,1,2.8,1.7,7.9,7.9,0,0,1,2.3,4.3c.1.6.1,1.3.2,1.9v11.8a15,15,0,0,1-.3,2.9,7.7,7.7,0,0,1-3.9,4.9,9,9,0,0,1-2.8.8H365.5ZM349.2,97.1c0,.2-.1.3-.2.5a8.3,8.3,0,0,0-.6,2.1V113a9.7,9.7,0,0,0,.1,1.7,5.2,5.2,0,0,0,4.1,4.2,8.2,8.2,0,0,0,2.2.2h23.8a5.5,5.5,0,0,0,4-3.9,9.9,9.9,0,0,0,.3-2.4c0-3.9,0-7.9-.1-11.8v-.4a9.7,9.7,0,0,0-.1-1.7,3.6,3.6,0,0,0-.4-.9.7.7,0,0,0-.6-.2,1,1,0,0,0-.7.4l-1.2,1.2A44.4,44.4,0,0,1,376,103a27.2,27.2,0,0,1-3.8,2.9,12.1,12.1,0,0,1-7.6,2,10.8,10.8,0,0,1-3.1-.7,11.9,11.9,0,0,1-3.5-1.9c-1.3-1-2.5-2.1-3.7-3.2a54.4,54.4,0,0,1-4.2-4.1Zm31.4-1.4-1-.5a3.3,3.3,0,0,0-1.6-.5H353.6a4,4,0,0,0-2.4.7l-.4.2h0l1.8,1.8,3.7,3.6,3.7,3.1a9.4,9.4,0,0,0,4,1.6,15,15,0,0,0,3,0,8.6,8.6,0,0,0,2.3-.5,14,14,0,0,0,2.6-1.6c1.8-1.4,3.4-2.9,5.1-4.5l3.3-3.3Z" fill="#162143"/><path d="M380.6,95.7l-.3.2L377,99.2c-1.7,1.6-3.3,3.1-5.1,4.5a14,14,0,0,1-2.6,1.6,8.6,8.6,0,0,1-2.3.5,15,15,0,0,1-3,0,9.4,9.4,0,0,1-4-1.6l-3.7-3.1-3.7-3.6-1.8-1.8h0l.4-.2a4,4,0,0,1,2.4-.7H378a3.3,3.3,0,0,1,1.6.5Z" fill="#f37366"/><path d="M333,112.5V74.6a2,2,0,0,1,2.1-2h41.1a2,2,0,0,1,2.1,2V86.7a1.1,1.1,0,0,1-1,1.1,1.2,1.2,0,0,1-1.1-.9c0-.2,0-9.9-.1-11a1.1,1.1,0,0,0-.9-1.2H336.3c-1.3,0-1.2-.1-1.2,1.3v35.3a1,1,0,0,0,1.1,1.2h4.3a1.1,1.1,0,0,1,1.1.9,1.1,1.1,0,0,1-.9,1.2H335A2.1,2.1,0,0,1,333,112.5Z" fill="#162143"/><path d="M358.9,88H347a.9.9,0,0,1-.7-1,1,1,0,0,1,.8-1H371a.9.9,0,0,1,.7.9,1.2,1.2,0,0,1-.7,1H358.9Z" fill="#2fa5dd"/><path d="M348.1,79.2h9.4c.4,0,.6.2.8.6a1.4,1.4,0,0,1-.2,1.1l-.6.3H340.4a.9.9,0,0,1-.8-.9,1,1,0,0,1,.9-1h7.6Z" fill="#f37366"/><g id="freepik--speech-bubble--inject-151"><path d="M240.5,93.7H256l-2.1-2.4V85.5a5.6,5.6,0,0,0-5.6-5.6h0a5.7,5.7,0,0,0-5.7,5.6h0V91Z" fill="#f3bebd"/><path d="M246.1,92.9a2.4,2.4,0,1,0,4.8-.2c0-.2-.1-.4-.1-.6" fill="#f3bebd"/><rect x="247.6" y="77.6" width="1.5" height="3.22" fill="#f3bebd"/><path d="M270.7,83.1c0-.1-.1-.2-.1-.4a10.3,10.3,0,0,0-.3-1.2,13.3,13.3,0,0,0-.5-1.9,8.4,8.4,0,0,0-.4-1.2l-.6-1.3a22.1,22.1,0,0,0-4.1-6,23.7,23.7,0,0,0-7.8-5.4,18.2,18.2,0,0,0-5.2-1.4,18.8,18.8,0,0,0-5.8-.1,15.4,15.4,0,0,0-3.1.5l-1.5.4-1.5.6a20.5,20.5,0,0,0-5.7,3.4,22.2,22.2,0,0,0-7.6,12.2,23.3,23.3,0,0,0-.5,7.9,22.9,22.9,0,0,0,2.3,7.7l.4.7h.1c-1.3,4.1-2.5,8.1-3.7,12l-.3-.3,9.7-5h.2a22.4,22.4,0,0,0,28-.5,26.1,26.1,0,0,0,5.1-5.9,26.3,26.3,0,0,0,2.5-6,26.3,26.3,0,0,0,.6-4.8V85.5a4.9,4.9,0,0,0-.1-1.3v-.8a.2.2,0,0,1,0-.3v.3a2.5,2.5,0,0,0,.1.8,8.3,8.3,0,0,0,.2,1.3v1.8a28.9,28.9,0,0,1-.7,4.9,22.2,22.2,0,0,1-2.4,6,23,23,0,0,1-5.1,6.1,22.8,22.8,0,0,1-18.1,5.1,23.1,23.1,0,0,1-10.4-4.5h.2L225,110l-.5.2.2-.5,3.6-12v.2l-.4-.8a21.4,21.4,0,0,1-2.4-7.9,23.8,23.8,0,0,1,.5-8,23,23,0,0,1,7.8-12.4,20.4,20.4,0,0,1,5.8-3.5l1.6-.6,1.5-.4a16.7,16.7,0,0,1,3.1-.5,19.4,19.4,0,0,1,5.9.1,22.9,22.9,0,0,1,13.2,7,21.3,21.3,0,0,1,4,6.2l.6,1.3a5.6,5.6,0,0,1,.4,1.2,13.3,13.3,0,0,1,.5,1.9,7.4,7.4,0,0,1,.2,1.2A.8.8,0,0,1,270.7,83.1Z" fill="#969696"/></g></svg>