<svg id="Layer_1" data-name="Layer 1" xmlns="http://www.w3.org/2000/svg" xmlns:xlink="http://www.w3.org/1999/xlink" viewBox="0 0 446.09 367.36"><defs><clipPath id="clip-path"><path d="M184.67,349.31s-.93-59.2,18-92.9c4.18-7.43,13.53-26.19,14.62-34.83" fill="none"/></clipPath><clipPath id="clip-path-2"><path d="M201.9,248.88a345.39,345.39,0,0,0,27.22,31.49c18.5,18.88,42.61,38.23,59.56,32.58,31.24-10.41,28.93-33,28.93-60s-8.48-32.38-8.48-32.38l-1.36-7.75c-15.33-3.44-26.25,1.81-26.25,1.81l-.94,7.49c-6.94,2.53-11,26.76-11,26.76s-3.68-7-9.3-16.46c-11.45-19.38-30.9-49.32-43.27-52.18L206.1,229.84Z" fill="none"/></clipPath><clipPath id="clip-path-3"><path d="M275.39,192.55l-17,5.64c-1.8.45-5.35-2.54-5.19-4.39l5-59.36a5.65,5.65,0,0,1,4.22-5l18.81-4.08c1.8-.47,6.32,1.68,6.17,3.52l-7.85,58.68A5.67,5.67,0,0,1,275.39,192.55Z" fill="none"/></clipPath><clipPath id="clip-path-4"><path d="M222.33,189c-.77-4.3-2.51-7.31-5.32-8.77-31.82-15.87-99.74-18.88-141.58-13.63-38.61,4.85-44.53,84.51-40.61,182.69" fill="none" clip-path="url(#clip-path)"/></clipPath></defs><path d="M108.71,94.29c-.78,45.76-68.85,45.75-69.62,0C39.87,48.53,107.93,48.54,108.71,94.29Z" fill="#f3f4f4"/><path d="M76.41,171c63-39.84,147.27,27.87,115.54,98.15-18.09,41.17-63.78,46-68,46.37C40.2,325.28,3.08,217.12,76.41,171Z" fill="#f3f4f4"/><path d="M179.59,43.86C310.45-65.23,498,123,359.27,257.94c-10.85,12.83-45.78,35.55-69.17,18.94C269.5,260.71,293,220.19,270,189.16c-19.28-29.34-53.48-15.42-83.47-39.41C157.37,121.81,152.75,81.8,179.59,43.86Z" fill="#f3f4f4"/><g id="freepik--Floor--inject-26"><path d="M12.24,340.36c135-.61,286.55-.61,421.61,0C298.79,341,147.29,341,12.24,340.36Z" fill="#273339"/></g><g id="freepik--Character--inject-10"><path d="M201.9,248.88a345.39,345.39,0,0,0,27.22,31.49c18.5,18.88,42.61,38.23,59.56,32.58,31.24-10.41,28.93-33,28.93-60s-8.48-32.38-8.48-32.38l-1.36-7.75c-15.33-3.44-26.25,1.81-26.25,1.81l-.94,7.49c-6.94,2.53-11,26.76-11,26.76s-3.68-7-9.3-16.46c-11.45-19.38-30.9-49.32-43.27-52.18L206.1,229.84Z" fill="#eef9fe"/><g clip-path="url(#clip-path-2)"><path d="M201.9,248.88a345.39,345.39,0,0,0,27.22,31.49c2.92-25.58-17.86-59.8-17.86-59.8l-5.16,9.22Z" fill="#c9ebf9" opacity="0.2" style="isolation:isolate"/><path d="M261.45,267.44s3.89-14.52,8.13-18.56c0,0-3.68-7-9.3-16.47C257.39,243.57,255.41,258.3,261.45,267.44Z" fill="#c9ebf9" style="isolation:isolate"/></g><path d="M201.9,248.88a345.39,345.39,0,0,0,27.22,31.49c18.5,18.88,42.61,38.23,59.56,32.58,31.24-10.41,28.93-33,28.93-60s-8.48-32.38-8.48-32.38l-1.36-7.75c-15.33-3.44-26.25,1.81-26.25,1.81l-.94,7.49c-6.94,2.53-11,26.76-11,26.76s-3.68-7-9.3-16.46c-11.45-19.38-30.9-49.32-43.27-52.18L206.1,229.84Z" fill="none" stroke="#142230" stroke-linecap="round" stroke-linejoin="round"/><path d="M286.11,158.82l5.22,5.94c18.47,21,12.39,38.26,12.39,38.26l1,11.38A28.92,28.92,0,0,1,284,215.86l-.4-14.07S261.2,192,286.11,158.82Z" fill="#fff" stroke="#273339" stroke-linecap="round" stroke-linejoin="round"/><path d="M275.39,192.55l-17,5.64c-1.8.45-5.35-2.54-5.19-4.39l5-59.36a5.65,5.65,0,0,1,4.22-5l18.81-4.08c1.8-.47,6.32,1.68,6.17,3.52l-7.85,58.68A5.67,5.67,0,0,1,275.39,192.55Z" fill="#95c8ec"/><g clip-path="url(#clip-path-3)"><path d="M275.39,192.55l-17,5.64c-1.8.45-5.35-2.54-5.19-4.39l5-59.36a5.65,5.65,0,0,1,4.22-5l18.81-4.08c1.8-.47,6.32,1.68,6.17,3.52l-7.85,58.68A5.67,5.67,0,0,1,275.39,192.55Z" fill="#010101" fill-opacity="0.7" opacity="0.3" style="isolation:isolate"/></g><path d="M275.39,192.55l-17,5.64c-1.8.45-5.35-2.54-5.19-4.39l5-59.36a5.65,5.65,0,0,1,4.22-5l18.81-4.08c1.8-.47,6.32,1.68,6.17,3.52l-7.85,58.68A5.67,5.67,0,0,1,275.39,192.55Z" fill="#2fa5dd" stroke="#142230" stroke-miterlimit="10"/><path d="M278.18,194l-18.8,4.09a2.7,2.7,0,0,1-3.29-1.95,2.63,2.63,0,0,1-.08-.88l5.08-59.37a5.66,5.66,0,0,1,4.22-5l18.83-4.08a2.68,2.68,0,0,1,3.21,2,2.88,2.88,0,0,1,.06.83l-5,59.37A5.66,5.66,0,0,1,278.18,194Z" fill="#fff" stroke="#142230" stroke-linecap="round" stroke-linejoin="round" stroke-width="0.5"/><path d="M267.76,146.89l-3.05.66a.43.43,0,0,1-.52-.33.27.27,0,0,1,0-.13l.82-9.58a.93.93,0,0,1,.69-.8l3-.66a.44.44,0,0,1,.53.32.62.62,0,0,1,0,.13l-.82,9.58A.91.91,0,0,1,267.76,146.89Z" fill="#2fa5dd"/><path d="M294.21,176.65c.73-8.32-6.84-20.81-11.87-20.81S262,167.64,262,167.64C256,172,259,176.05,259,176.05c-3.5,2.31-4.39,5.42-2.93,6.87s6.68,0,6.68,0-5.09,3.73-3.83,5.56c2.93,4.31,12.87-1.39,12.87-1.39s-5.73,3.77-5.39,4.49c2.15,4.72,11.49-.77,11.49-.77l6.58,3.36a5.63,5.63,0,0,0,5.58,5.66l.4,0" fill="#fff" stroke="#273339" stroke-linecap="round" stroke-linejoin="round"/><path d="M259,176.05s14.36-9.29,16.18-9.54,8.47-1.69,8.47-1.69" fill="#fff" stroke="#273339" stroke-linecap="round" stroke-linejoin="round"/><path d="M262.78,182.92s11.7-6,13.8-6a79.08,79.08,0,0,0,9.53-1.64" fill="#fff" stroke="#273339" stroke-linecap="round" stroke-linejoin="round"/><path d="M271.82,187.09a29.28,29.28,0,0,1,4.32-2.54,58.32,58.32,0,0,1,8.36,0" fill="#fff" stroke="#273339" stroke-linecap="round" stroke-linejoin="round"/><path d="M222.33,189c-.77-4.3-2.51-7.31-5.32-8.77-31.82-15.87-99.74-18.88-141.58-13.63-38.61,4.85-44.53,74.27-40.61,172.45l149.85,10.24s-.93-59.2,18-92.9c4.18-7.43,13.53-26.19,14.62-34.83" fill="#eef9fe"/><g clip-path="url(#clip-path-4)"><g style="isolation:isolate"><path d="M34.82,339.05l149.85,10.24s-.2,8.21,1.47-14.62c0,0,4.15-16.28-10-24.79-12.86-7.71-45.25-11.51-53.5-18.47-9.49-8-12-29.7-26.73-66.22-9.07-22.39-51.64-14.63-51.64-14.63C33.73,251.44,32.4,278.45,34.82,339.05Z" fill="#c4e9f6" opacity="0.2" style="isolation:isolate"/></g></g><path d="M269.58,248.88s-13,17.2-6.8,31.09" fill="none" stroke="#273339" stroke-linecap="round" stroke-linejoin="round"/><path d="M222.83,230.2s-4.94,14.56-16.41,19.15" fill="none" stroke="#273339" stroke-linecap="round" stroke-linejoin="round"/><path d="M309.13,220.57s-12.62,8.48-24.63,2.41" fill="none" stroke="#273339" stroke-linecap="round" stroke-linejoin="round"/><path d="M265.34,255.94s-8.57,3.4-10.73,11.5" fill="none" stroke="#273339" stroke-linecap="round" stroke-linejoin="round"/><path d="M184.67,349.29s-.93-59.2,18-92.89c4.18-7.43,13.53-26.2,14.62-34.84" fill="none" stroke="#273339" stroke-miterlimit="10"/><path d="M222.33,189c-.77-4.3-2.51-7.31-5.32-8.77-31.82-15.87-99.74-18.88-141.58-13.63-38.61,4.85-44.79,75-40.87,173.15" fill="none" stroke="#273339" stroke-miterlimit="10"/><path d="M118.79,167.3S125.44,196,153,196.11c20,.11,18.42-20.06,18.42-20.06a8.16,8.16,0,0,1-1.53-8.92,7.15,7.15,0,0,1,1.2-1.83,20.14,20.14,0,0,1,7.91-4.86,40.83,40.83,0,0,1,5.43-1.62s-2-5.85-.93-6.95c14.25-15-15.29-43.2-44.94-35.27C138.56,116.6,154.83,137.21,118.79,167.3Z" fill="#fff" stroke="#142230" stroke-linecap="round" stroke-linejoin="round" stroke-width="0.5"/><path d="M171.09,165.3a20.14,20.14,0,0,1,7.91-4.86c-6.67-4.75-14-9.24-14-9.24A17.75,17.75,0,0,0,171.09,165.3Z" fill="#273339"/><path d="M132.83,101C129.52,56.9,153,41.66,167.33,38.14c23-5.59,48.87,12.84,51.58,37.48s-3.89,29.13-5.09,38.86c-.85,6.83,2.81,10.82-4.39,27.13-4.79,10.76-12.66,28-31.38,21.79A65.24,65.24,0,0,1,162,155.22" fill="#fff" stroke="#142230" stroke-linecap="round" stroke-linejoin="round" stroke-width="0.5"/><path d="M133,51.22a47.43,47.43,0,0,1,31-19.49A72.76,72.76,0,0,1,183.75,31c6.09.62,29.31,3.1,43.45,21.28a45.6,45.6,0,0,1,7.87,15.35C235.46,69,241,89,232.23,95.94l-12.68,4.47h0a33.22,33.22,0,0,0,7.12-9.26,11.06,11.06,0,0,1-8.3,7.37,104.45,104.45,0,0,0,.6-14.8c-.29-10.64-8.29-16.38-14.82-13.74,0,0-4.56-6-8.19-1.7-4.91,5.76-5.45,28.87-25.86,26.33,0,0,15.2,3.5,9.71-16.43,0,0,3.94,21.19-11.46,22.27-5.53.4-7.4,7-7.92,10.72l-4.64-1.85c-1.17-1.88-6.38-4.84-8.77-3.22-9.29,6.39-2.23,14.14-1.47,22.74l-3.35,5.41c-2.3-2.24-24.86-25-19.74-57.14A62.51,62.51,0,0,1,133,51.22Z" fill="#142230"/><path d="M155.79,112.24s-5.54-15.76-14.26-13.48-5.73,20.55.47,27.32,11.36,1.77,11.36,1.77" fill="#fff" stroke="#273339" stroke-linecap="round" stroke-linejoin="round"/><g opacity="0.2"><path d="M197.88,54.26c-10.62-5.46-16.7,9-22.2,24.62s-16.19,17.06-16.19,17.06" fill="none" stroke="#fff" stroke-linecap="round" stroke-linejoin="round"/><path d="M204.15,59.51s7.8-10.71,15.4-4.06S234.41,85.83,223.71,91" fill="none" stroke="#fff" stroke-linecap="round" stroke-linejoin="round"/><path d="M188.42,46.4C176.56,42.15,167.3,41,160.35,61.22s-12.72,31.53-25.74,34.72" fill="none" stroke="#fff" stroke-linecap="round" stroke-linejoin="round"/><path d="M159.49,39.25c-11,3.19-21.25,31.17-30.57,35.7" fill="none" stroke="#fff" stroke-linecap="round" stroke-linejoin="round"/><path d="M195.07,44.54s3.47-6.8,12.43-3" fill="none" stroke="#fff" stroke-linecap="round" stroke-linejoin="round"/></g><path d="M73.54,173.71c12,5,15.93,12.49,19.67,34,2.34,13.41,1.46,90.67,1.46,90.67s67.28,7,79.91,11.47c5.78,2,8.38,8.78,8.38,8.78l7.53,1.46a37.84,37.84,0,0,1-4.09,33.74l-9.11-1c-4.51,12.82-115.16,9.86-130.37-7.93-15.6-18.25-29-150.63,17.2-174.38" fill="#eef9fe" stroke="#142230" stroke-miterlimit="10"/><path d="M176.05,177.82s1.84,16.82-15.87,24.36-43.1-11.36-46.8-31.72" fill="none" stroke="#273339" stroke-linecap="round" stroke-linejoin="round"/><path d="M115.4,225.88s28.65,43.39,58.14,54.11" fill="none" stroke="#273339" stroke-linecap="round" stroke-linejoin="round"/><path d="M96.14,298.4s-9.67-1.08-14.63,4.71" fill="none" stroke="#273339" stroke-linecap="round" stroke-linejoin="round"/><path d="M88.85,223S74.61,267,57,275.34" fill="none" stroke="#273339" stroke-linecap="round" stroke-linejoin="round"/><path d="M81.56,287.2s9.65,1.15,14.62,8.39" fill="none" stroke="#273339" stroke-linecap="round" stroke-linejoin="round"/><path d="M184.43,318.58a34.87,34.87,0,0,0-5.68,16.35" fill="none" stroke="#273339" stroke-linecap="round" stroke-linejoin="round"/><path d="M191.33,323.76s20.47,1.46,22.08,1.46,19.29-11,24.41-10.4c5.65.69,19.09,18.78,19.77,20.76a4.38,4.38,0,0,1-2.56,5.58c.25,4.7-5.85,6.54-5.85,6.54.09,4.09-6.88,5-6.88,5-4,7.51-17.55-2.37-17.55-2.37a50.71,50.71,0,0,1-15.89-2.49l-21.64.63C186.5,333.34,191.33,323.76,191.33,323.76Z" fill="#fff" stroke="#273339" stroke-linecap="round" stroke-linejoin="round"/><path d="M236.36,317.29s1.11,3.47.1,4.77-3.52,1-3.48,3.38.29,3.85-3.42,5.57.67,7.31-2.23,8.47" fill="none" stroke="#273339" stroke-linecap="round" stroke-linejoin="round"/><path d="M241,332.58s8.16,10.78,8.25,15.15" fill="none" stroke="#273339" stroke-linecap="round" stroke-linejoin="round"/><path d="M235.57,339.32s7.31,9.91,6.75,13.42" fill="none" stroke="#273339" stroke-linecap="round" stroke-linejoin="round"/><path d="M255,341.19s-5.06-10-12.18-14.8" fill="none" stroke="#273339" stroke-linecap="round" stroke-linejoin="round"/><path d="M228.71,345.4a12.43,12.43,0,0,0,6.17,5.36" fill="none" stroke="#273339" stroke-linecap="round" stroke-linejoin="round"/><path d="M230.81,348.09s-8.77.18-6.06,2.29" fill="none" stroke="#273339" stroke-linecap="round" stroke-linejoin="round"/></g><g id="freepik--Device--inject-145"><path d="M268.94,357l-18.12-9.14a24.15,24.15,0,0,0,2.64-2.19,23.14,23.14,0,0,0,2-2.25l105.73,0L395.78,357Z" fill="#2fa5dd"/><path d="M398.72,357.53H268.83L250.08,348a16.79,16.79,0,0,0,3.5-2.72,18,18,0,0,0,1.93-2.38H361.45Zm-129.65-1.11H392.86L361.12,344H255.73l-4.24,3.55Z" fill="#142230"/><polygon points="281.89 356.49 258.92 344.89 360.91 344.89 390.51 356.49 281.89 356.49" fill="#fff"/><path d="M393.43,357H281.76l-25.12-12.7H361.15ZM282,355.93H387.57L360.8,345.45H261.25Z" fill="#273339"/><polygon points="268.94 356.97 395.78 356.97 413.08 275.33 286.25 275.33 268.94 356.97" fill="#2fa5dd"/><path d="M396.26,357.53h-128l17.53-82.75h128Zm-126.61-1.11H395.34l17.06-80.54H286.69Z" fill="#273339"/><path d="M335.57,313.66c-3.2,3.18-3.45,8.12-.56,11.08s7.85,2.7,11.09-.48,3.44-8.11.54-11S338.77,310.48,335.57,313.66Z" fill="#fff"/><path d="M340.09,327.3a7.52,7.52,0,0,1-7.65-7.39c0-.23,0-.45,0-.67a9.08,9.08,0,0,1,2.73-6c3.41-3.39,8.71-3.6,11.82-.48s2.86,8.44-.55,11.83A9,9,0,0,1,340.09,327.3Zm1.45-15.62a8.14,8.14,0,0,0-8,7.61,6.57,6.57,0,0,0,1.85,5c2.68,2.69,7.28,2.48,10.25-.48s3.23-7.56.56-10.25A6.56,6.56,0,0,0,341.54,311.68Z" fill="#273339"/></g><rect x="324.64" y="101.83" width="30.93" height="25.27" fill="#fff"/><path d="M366.43,127.11H334.71s-.09-.06-.13-.07a4.61,4.61,0,0,1-4-4.7q0-19.83,0-39.68a5.16,5.16,0,0,1,.47-2.12,4.51,4.51,0,0,1,4.42-2.64h24a2.23,2.23,0,0,1,1.7.72q4.33,4.35,8.7,8.69a2.24,2.24,0,0,1,.71,1.7q0,10.48,0,21v12.3a4.67,4.67,0,0,1-1.89,4A5.56,5.56,0,0,1,366.43,127.11ZM358.26,81H335.51c-1.3,0-1.86.57-1.86,1.88v39.3c0,1.32.56,1.88,1.86,1.88h30.13c1.27,0,1.84-.57,1.84-1.84q0-15.73,0-31.47V90.2h-6A3.08,3.08,0,0,1,358.26,87c0-.94,0-1.89,0-2.83Z" fill="#162143"/><path d="M368,89.75v33.16c0,1.32-.6,1.91-1.92,1.91H334.84c-1.35,0-1.94-.58-1.94-1.95V82.13c0-1.36.59-1.95,1.93-1.95h23.59v3.28c0,1,0,2,0,2.94a3.19,3.19,0,0,0,3.36,3.34Z" fill="#fff"/><rect x="336.8" y="99.63" width="27.62" height="3.02" fill="#f37366"/><path d="M336.8,110.34v-3h27.63v3Z" fill="#2fa5dd"/><path d="M336.74,117.85v-3h21.49v3Z" fill="#f37366"/><path d="M361.4,117.85v-3h3v3Z" fill="#f37366"/></svg>