<svg id="Layer_1" data-name="Layer 1" xmlns="http://www.w3.org/2000/svg" viewBox="0 0 512 512"><path d="M132,126.68c-.94,54.27-81.65,54.25-82.58,0C50.39,72.41,131.12,72.42,132,126.68Z" fill="#efeded"/><path d="M93.72,217.65c74.72-47.25,174.65,33,137,116.4-21.46,48.82-75.66,54.55-80.65,55C50.78,400.62,6.76,272.3,93.72,217.65Z" fill="#efeded"/><path d="M216.12,66.87C371.27-62.5,593.64,160.73,429.18,320.75c-12.88,15.22-54.3,42.16-82,22.47-24.44-19.18,3.41-67.23-23.82-104-22.87-34.8-63.42-18.29-99-46.74C189.74,159.3,184.26,111.86,216.12,66.87Z" fill="#efeded"/><g id="freepik--Window--inject-1--inject-394"><rect x="70" y="368.04" width="372" height="3.39" fill="#263238"/><path d="M331.54,326.67a7.7,7.7,0,0,0,2.24.24s-.34-1-.37-1.1c-.35-.72-1.45-1.92-2.34-1.8a1.06,1.06,0,0,0-.89,1.21l0,.13A2.23,2.23,0,0,0,331.54,326.67Z" fill="#263238"/><path d="M352.29,321.24c-.9-.1-2,1.13-2.29,1.86,0,.07-.36,1.11-.34,1.11h0l-.55.64c-.35.43-.74.92-1.13,1.48a19.14,19.14,0,0,0-1.18,1.88,14.25,14.25,0,0,0-1,2.26h0v-1.06c-.11-.8-.78-2.29-1.66-2.45a1.08,1.08,0,0,0-1.23.91s0,.06,0,.09a2.22,2.22,0,0,0,.86,1.67,7.44,7.44,0,0,0,2,.93,18.6,18.6,0,0,0-.59,2.45c-.09.48-.16,1-.22,1.46V334c-.11-.8-.78-2.28-1.66-2.44a1.07,1.07,0,0,0-1.23.88s0,.08,0,.12a2.22,2.22,0,0,0,.86,1.67,7.38,7.38,0,0,0,2,.91c0,.18-.05.37-.07.56-.11.91-.21,1.81-.34,2.69-.05.32-.1.62-.16.93a2.67,2.67,0,0,0,0-.4c-.1-.8-.77-2.29-1.66-2.45a1.06,1.06,0,0,0-1.22.87s0,.09,0,.13a2.22,2.22,0,0,0,.86,1.67,6.88,6.88,0,0,0,1.9.89c-.06.31-.13.62-.21.92s-.1.4-.16.6-.13.4-.2.6c-.13.37-.27.76-.41,1.12l-.29.72c.05-.31.13-.91.13-1a3.94,3.94,0,0,0-.55-2v-.24a1.06,1.06,0,0,0-1.18-.92l-.12,0c-.87.23-1.43,1.76-1.47,2.56a7.22,7.22,0,0,0,.05.89,2.38,2.38,0,0,0-.13-.56c-.09-.39-.19-.77-.3-1.18l-.18-.6c-.06-.2-.14-.4-.21-.61-.17-.47-.37-.94-.58-1.41a6.81,6.81,0,0,0,2-.75,2.25,2.25,0,0,0,1-1.6,1.07,1.07,0,0,0-1-1.1h-.11c-.9.1-1.68,1.53-1.84,2.32,0,.05-.07.63-.09.94-.13-.28-.25-.56-.39-.84-.4-.8-.83-1.61-1.26-2.41l-.39-.74a7.52,7.52,0,0,0,2.09-.77,2.25,2.25,0,0,0,1-1.61,1.07,1.07,0,0,0-1.05-1.09h-.11c-.89.1-1.67,1.53-1.83,2.32,0,.06-.09.89-.1,1.1-.28-.54-.56-1.09-.81-1.63a17,17,0,0,1-.88-2.28,7.58,7.58,0,0,0,2.1-.77,2.3,2.3,0,0,0,1-1.61,1.07,1.07,0,0,0-1.05-1.09h-.11c-.89.1-1.67,1.53-1.84,2.32,0,.06-.09,1-.09,1.12l-.05-.14a13.91,13.91,0,0,1-.45-2.4c-.05-.45-.08-.88-.09-1.3a6.74,6.74,0,0,0,2.12-.53,2.24,2.24,0,0,0,1.15-1.48,1.08,1.08,0,0,0-.93-1.21h-.07c-.9,0-1.83,1.34-2.08,2.1l-.17.8v-.56a13.42,13.42,0,0,1,.08-1.86,7.28,7.28,0,0,1,.09-.87,7.21,7.21,0,0,0,1.63-1.44,2.22,2.22,0,0,0,.33-1.85,1.06,1.06,0,0,0-1.35-.65l-.12.05c-.8.41-1,2-.88,2.82,0,.07.32,1.12.33,1.12h0a6.79,6.79,0,0,1-.11.83c0,.55-.11,1.18-.12,1.86a18.28,18.28,0,0,0,0,2.22,13.52,13.52,0,0,0,.41,2.44h0c-.14-.23-.56-.84-.6-.88-.53-.61-1.9-1.48-2.73-1.12a1.06,1.06,0,0,0-.54,1.4l.06.11a2.23,2.23,0,0,0,1.64.92,7.43,7.43,0,0,0,2.2-.34,18.08,18.08,0,0,0,.85,2.37c.2.45.41.9.63,1.34-.13-.19-.25-.35-.27-.37-.53-.61-1.9-1.48-2.73-1.13a1.06,1.06,0,0,0-.53,1.42.47.47,0,0,0,0,.1,2.24,2.24,0,0,0,1.64.92,7,7,0,0,0,2.14-.33c.08.17.16.34.25.51.41.82.82,1.63,1.2,2.44.13.28.25.57.38.85l-.23-.33c-.53-.6-1.91-1.47-2.74-1.12a1.06,1.06,0,0,0-.52,1.42.47.47,0,0,0,.05.1,2.24,2.24,0,0,0,1.64.92,7.26,7.26,0,0,0,2.07-.31c.12.29.24.59.34.88s.14.39.19.59.11.41.17.61c.09.38.19.78.27,1.16s.11.51.16.76l-.42-.88c-.43-.68-1.66-1.75-2.54-1.52a1,1,0,0,0-.73,1.29.65.65,0,0,0,0,.13,2.18,2.18,0,0,0,1.47,1.16,7.44,7.44,0,0,0,2.21,0c.09.42.17.82.23,1.21.24,1.34.39,2.46.48,3.25v.38h-2.72l1,19.35h4.62l1-19.35h-2.53l.06-.11c.35-.72.83-1.76,1.35-3l.5-1.27a7.8,7.8,0,0,0,2.21.17,2.29,2.29,0,0,0,1.56-1,1.06,1.06,0,0,0-.5-1.43l-.09,0c-.86-.29-2.16.68-2.64,1.33l-.45.77.21-.55c.13-.37.26-.74.39-1.15l.18-.59c.06-.21.12-.42.16-.63.12-.49.21-1,.3-1.49a6.84,6.84,0,0,0,2.09.48,2.19,2.19,0,0,0,1.7-.8,1.07,1.07,0,0,0-.26-1.49l-.1-.06c-.8-.41-2.24.35-2.81.92,0,0-.4.49-.59.74a7.54,7.54,0,0,1,.13-.92c.11-.89.2-1.8.29-2.7a8,8,0,0,1,.08-.84,7.31,7.31,0,0,0,2.17.51,2.22,2.22,0,0,0,1.7-.79,1.07,1.07,0,0,0-.26-1.49l-.1-.06c-.8-.42-2.24.35-2.81.91,0,0-.57.7-.69.87.06-.61.13-1.21.23-1.81a16,16,0,0,1,.52-2.38,7.38,7.38,0,0,0,2.17.51,2.22,2.22,0,0,0,1.7-.79,1.07,1.07,0,0,0-.26-1.49l-.1-.06c-.8-.42-2.24.35-2.81.91,0,.05-.6.75-.7.89v-.14a14.37,14.37,0,0,1,.94-2.26c.21-.4.43-.77.65-1.13a7.24,7.24,0,0,0,2.06.73,2.26,2.26,0,0,0,1.78-.61,1.07,1.07,0,0,0-.12-1.52l-.07-.06c-.75-.49-2.26.11-2.89.61,0,0-.36.34-.58.57l.3-.47c.38-.57.76-1.07,1.1-1.51l.55-.67a7.12,7.12,0,0,0,2.15-.3,2.24,2.24,0,0,0,1.3-1.36,1.07,1.07,0,0,0-.76-1.31Zm-9.93,24.1c-.55,1.24-1,2.26-1.4,3-.08.14-.14.27-.2.38h-.06a2,2,0,0,0-.06-.45c-.11-.8-.28-1.93-.55-3.28-.08-.42-.18-.88-.29-1.34a11.63,11.63,0,0,0,1.24-.58,8.2,8.2,0,0,0,1.79,1.16Z" fill="#263238"/><path d="M347.56,327s.29-1.06.3-1.13c.11-.79-.14-2.4-1-2.79a1.06,1.06,0,0,0-1.4.52.61.61,0,0,0,0,.12,2.21,2.21,0,0,0,.39,1.84A8.1,8.1,0,0,0,347.56,327Z" fill="#263238"/><path d="M116.89,328.67a7.62,7.62,0,0,0,2.13.24s-.33-1-.36-1.05c-.33-.69-1.37-1.83-2.22-1.71a1,1,0,0,0-.85,1.13l0,.14A2.15,2.15,0,0,0,116.89,328.67Z" fill="#263238"/><path d="M136.64,323.54c-.85-.09-1.87,1.07-2.18,1.77,0,.07-.34,1.06-.32,1.06h0c-.17.18-.34.38-.52.6-.33.41-.71.88-1.08,1.41a20.36,20.36,0,0,0-1.12,1.78,13.22,13.22,0,0,0-1,2.16h0v-1c-.1-.76-.74-2.17-1.58-2.32a1,1,0,0,0-1.16.81,1.28,1.28,0,0,0,0,.19,2.11,2.11,0,0,0,.81,1.59,7.11,7.11,0,0,0,1.92.88,20.27,20.27,0,0,0-.56,2.33c-.08.46-.15.93-.21,1.39v-.44c-.1-.76-.74-2.17-1.58-2.32a1,1,0,0,0-1.16.81c0,.05,0,.09,0,.14a2.13,2.13,0,0,0,.81,1.59,6.63,6.63,0,0,0,1.87.86,1.44,1.44,0,0,1-.07.54c-.1.86-.2,1.72-.32,2.56l-.15.88v-.38c-.1-.76-.74-2.17-1.58-2.33a1,1,0,0,0-1.16.81,1.28,1.28,0,0,0,0,.19,2.09,2.09,0,0,0,.81,1.58,6.8,6.8,0,0,0,1.81.85c-.06.29-.12.59-.2.87s-.1.38-.16.57l-.18.57c-.13.35-.26.72-.39,1.06s-.19.47-.28.69c0-.29.13-.87.13-.92a3.89,3.89,0,0,0-.53-1.91v-.23a1,1,0,0,0-1.1-.89l-.15,0c-.82.22-1.35,1.68-1.39,2.44v.85l-.12-.54c-.09-.37-.19-.73-.29-1.12-.06-.19-.12-.38-.17-.57s-.14-.39-.2-.58c-.17-.45-.36-.9-.55-1.34a6.9,6.9,0,0,0,1.91-.72,2.15,2.15,0,0,0,.93-1.52,1,1,0,0,0-1-1h-.11c-.85.09-1.59,1.45-1.75,2.2,0,0-.06.6-.08.9-.12-.26-.24-.53-.37-.8-.38-.77-.79-1.53-1.2-2.3l-.37-.7a7.17,7.17,0,0,0,2-.73,2.13,2.13,0,0,0,.93-1.53,1,1,0,0,0-1-1h-.11c-.85.1-1.59,1.46-1.75,2.21,0,.05-.08.85-.09,1.05-.27-.52-.53-1-.77-1.56a20.12,20.12,0,0,1-.84-2.16,7.19,7.19,0,0,0,2-.74,2.12,2.12,0,0,0,.93-1.52,1,1,0,0,0-1-1h-.11c-.85.09-1.59,1.45-1.74,2.2,0,.06-.09.91-.1,1.07v-.13a12.73,12.73,0,0,1-.43-2.28c0-.43-.07-.84-.09-1.24a6.6,6.6,0,0,0,2-.5,2.12,2.12,0,0,0,1.09-1.42,1,1,0,0,0-.84-1.14h-.16c-.86,0-1.75,1.27-2,2,0,0-.1.45-.16.76v-.54a12.25,12.25,0,0,1,.08-1.77,6.43,6.43,0,0,1,.09-.82,6.7,6.7,0,0,0,1.54-1.37,2.09,2.09,0,0,0,.32-1.76,1,1,0,0,0-1.27-.62l-.12.05c-.77.39-1,1.93-.84,2.68,0,.07.3,1.07.31,1.06h0c0,.24-.07.5-.1.79,0,.52-.11,1.12-.12,1.77a18.39,18.39,0,0,0,0,2.1,13.08,13.08,0,0,0,.39,2.32h0l-.57-.83c-.5-.58-1.81-1.41-2.6-1.07a1,1,0,0,0-.51,1.32.67.67,0,0,0,.06.12,2.12,2.12,0,0,0,1.55.87,7.06,7.06,0,0,0,2.09-.32,17.78,17.78,0,0,0,.82,2.25c.18.43.38.86.59,1.28l-.25-.36c-.5-.58-1.81-1.4-2.6-1.07a1,1,0,0,0-.51,1.32.67.67,0,0,0,.06.12,2.1,2.1,0,0,0,1.55.88,7.13,7.13,0,0,0,2-.31l.24.48c.39.78.79,1.55,1.15,2.32l.36.81-.22-.31c-.5-.58-1.81-1.41-2.6-1.07a1,1,0,0,0-.51,1.32.67.67,0,0,0,.06.12,2.1,2.1,0,0,0,1.55.88,6.78,6.78,0,0,0,2-.3c.11.28.22.56.32.84a5,5,0,0,1,.18.57c0,.2.11.38.16.57.09.36.18.74.26,1.1l.15.73-.4-.84c-.41-.64-1.58-1.66-2.41-1.45a1,1,0,0,0-.72,1.22.78.78,0,0,0,0,.14,2.12,2.12,0,0,0,1.41,1.1,6.72,6.72,0,0,0,2.1,0c.08.39.16.78.22,1.15.22,1.27.36,2.34.45,3.09v.37h-2.58l.94,18.39h4.4l.94-18.39h-2.4v-.11c.33-.69.79-1.68,1.28-2.89.16-.38.32-.79.48-1.22a6.76,6.76,0,0,0,2.1.17,2.1,2.1,0,0,0,1.48-1,1,1,0,0,0-.43-1.35l-.13-.05c-.81-.27-2,.65-2.51,1.27l-.42.73c.06-.17.13-.34.19-.52.13-.35.25-.71.38-1.09.06-.19.11-.38.17-.57s.1-.39.15-.59c.11-.47.2-.94.28-1.42a6.84,6.84,0,0,0,2,.45,2.16,2.16,0,0,0,1.62-.75,1,1,0,0,0-.21-1.4.57.57,0,0,0-.13-.08c-.76-.39-2.13.34-2.67.88l-.57.7a6.53,6.53,0,0,1,.13-.87c.1-.85.19-1.72.27-2.58a2.69,2.69,0,0,1,.08-.79,7.27,7.27,0,0,0,2.06.48,2.16,2.16,0,0,0,1.62-.75,1,1,0,0,0-.23-1.4L133,335c-.76-.4-2.12.33-2.67.87,0,0-.54.66-.65.82.06-.58.12-1.15.21-1.72a17.53,17.53,0,0,1,.5-2.26,7,7,0,0,0,2.07.48,2.12,2.12,0,0,0,1.61-.75,1,1,0,0,0-.21-1.4.57.57,0,0,0-.13-.08c-.76-.39-2.13.34-2.67.88,0,0-.58.71-.67.84v-.14a11.82,11.82,0,0,1,.9-2.14c.19-.38.4-.74.61-1.08a6.42,6.42,0,0,0,2,.69,2.11,2.11,0,0,0,1.69-.57,1,1,0,0,0-.07-1.41l-.11-.09c-.71-.48-2.15.09-2.75.57l-.55.55c.1-.15.19-.31.29-.45.36-.54.72-1,1-1.43.19-.24.36-.45.53-.64a7.11,7.11,0,0,0,2-.29,2.16,2.16,0,0,0,1.24-1.29,1,1,0,0,0-.38-1.36A.61.61,0,0,0,136.64,323.54Zm-9.44,22.91c-.52,1.19-1,2.16-1.34,2.83-.06.14-.13.26-.18.37h-.06a1.17,1.17,0,0,0-.06-.44c-.1-.76-.27-1.83-.52-3.11-.08-.41-.17-.84-.27-1.28a10.37,10.37,0,0,0,1.17-.55,7.68,7.68,0,0,0,1.71,1.1C127.5,345.75,127.34,346.11,127.2,346.45Z" fill="#263238"/><path d="M132.14,329s.28-1,.29-1.06c.1-.76-.14-2.29-.91-2.66a1,1,0,0,0-1.33.48.69.69,0,0,0-.05.13,2.14,2.14,0,0,0,.36,1.75A7.38,7.38,0,0,0,132.14,329Z" fill="#263238"/><line x1="355.33" y1="370.04" x2="355.33" y2="182.2" fill="none" stroke="#263238" stroke-linecap="round" stroke-linejoin="round"/><line x1="187.33" y1="370.04" x2="187.33" y2="183.37" fill="none" stroke="#263238" stroke-linecap="round" stroke-linejoin="round"/><line x1="80.08" y1="277.83" x2="428.57" y2="277.83" fill="none" stroke="#263238" stroke-linecap="round" stroke-linejoin="round"/><circle cx="91" cy="126.25" r="27" fill="#263238"/><circle cx="91" cy="126.25" r="23.42" fill="#fff"/><polyline points="75.81 130.56 91 126.25 91 105" fill="none" stroke="#263238" stroke-miterlimit="10" stroke-width="2"/></g><g id="freepik--Floor--inject-26"><path d="M6,445.25c160.16-.73,339.83-.73,500,0C345.83,446,166.16,446,6,445.25Z" fill="#2f363b"/></g><g id="freepik--Plant--inject-1--inject-394"><path d="M129.22,435.1h-33s0,8.86,4.66,20.45c0,2.22,5.33,4,11.91,4s11.9-1.79,11.9-4a1.82,1.82,0,0,0,0-.33C129.17,443.79,129.22,435.1,129.22,435.1Z" fill="#fff" stroke="#263238" stroke-linecap="round" stroke-linejoin="round"/><ellipse cx="112.83" cy="435.1" rx="16.57" ry="4.81" fill="#fff" stroke="#263238" stroke-linecap="round" stroke-linejoin="round"/><ellipse cx="112.83" cy="435.1" rx="14.87" ry="4.02" fill="#fff" stroke="#263238" stroke-linecap="round" stroke-linejoin="round"/><path d="M99.36,436.8c2.38,1.37,7.51,2.31,13.47,2.31s11.09-.94,13.46-2.31c-2.37-1.36-7.51-2.31-13.46-2.31S101.74,435.44,99.36,436.8Z" fill="#263238" stroke="#263238" stroke-linecap="round" stroke-linejoin="round"/><path d="M105.9,437.18s-4.31-10.76-3.05-13.63,5.38-2.51,6.82.36,2.15,13.63,2.15,13.63S107.51,439,105.9,437.18Z" fill="#90caf9" stroke="#263238" stroke-linecap="round" stroke-linejoin="round"/><path d="M109.67,438.26s-3.41-19-2.52-22.6,5.39-4.85,8.61-2.16,2,16.33,2,18.3-.18,6.1-.18,6.1A15,15,0,0,1,109.67,438.26Z" fill="#90caf9" stroke="#263238" stroke-linecap="round" stroke-linejoin="round"/><path d="M116.66,437.9s-2.66-7.36-1.07-10.23,4.84-1.79,4.84.54.18,7.9-.18,9.15S117.92,439,116.66,437.9Z" fill="#90caf9" stroke="#263238" stroke-linecap="round" stroke-linejoin="round"/><path d="M112.72,437.72c-4.49-17-.72-25.47-.72-25.47s5.38,9.33,2.51,25.47" fill="none" stroke="#263238" stroke-linecap="round" stroke-linejoin="round"/><path d="M105.36,423.19s-4.13.18,2.69,14.35" fill="none" stroke="#263238" stroke-linecap="round" stroke-linejoin="round"/></g><g id="freepik--Character--inject-1--inject-394"><path d="M268.47,373.4s-64.43-2.19-71,12.45,0,58.57,0,58.57h100.3s14.34-54.42,6.34-61.75S268.47,373.4,268.47,373.4Z" fill="#263238" stroke="#263238" stroke-miterlimit="10"/><path d="M272.7,288.21c-5.47,3-8.2,4.45-10.12,7.29-3.25,4.82-1.34,8.38-4.94,11.29-2.44,2-3.75.69-6.26,2.84a11.54,11.54,0,0,0-3.62,10.58c.61,3,2.18,3,2.35,5.64.24,3.59-2.61,4.47-2.82,8-.26,4.28,3.75,5.49,3.53,8.94-.33,4.93-8.72,5.53-9.28,9.28-.91,6.07,19.31,16.24,39,18.55,9.38,1.1,15.67.07,26.51-1.71,11.26-1.84,12.86-3.58,13.18-4.94,1-4.25-9.93-7-12.47-17.41a17.49,17.49,0,0,1,.7-11.06c2.08-4.64,5-4.42,7.53-9.41,1.94-3.88,1.92-7.55,1.88-12,0-3.57-.05-7.74-1.88-12.24-4.1-10.1-14.18-14.24-17.36-15.55s-8.88-3.65-15.81-2.33C279.24,284.65,276.65,286.06,272.7,288.21Z" fill="#263238" stroke="#263238" stroke-linecap="round" stroke-linejoin="round"/><path d="M263.55,346.92s-18,2.5-31.5,4.5-23,4.25-23.25,8.75-19.75,52-22,53.5a11.84,11.84,0,0,0-5.25,8.75,35.21,35.21,0,0,1-2.5,9s8.75-1,12.5,2,6,4.75,6,4.75,10.5-6.75,12-10.25-3.25-11-1.75-13.5,7.5-10.75,7.5-10.75,8,25,9,30.25a23.62,23.62,0,0,1-.75,10.5H293.8V423.67c0-3.75,2.75-15.5,2.75-15.5s6.75,19.5,8.5,24.75a114.28,114.28,0,0,1,3,11.5h24s-8.25-24.75-11.25-32.5-6.5-38.75-8-42.5-22.75-15.5-33.25-18A160.87,160.87,0,0,1,263.55,346.92Z" fill="#f0f8fd" stroke="#2f363b" stroke-linecap="round" stroke-linejoin="round"/><path d="M263.55,346.92s-18,2.5-31.5,4.5-23,4.25-23.25,8.75-19.75,52-22,53.5a11.84,11.84,0,0,0-5.25,8.75,35.21,35.21,0,0,1-2.5,9s8.75-1,12.5,2,6,4.75,6,4.75,10.5-6.75,12-10.25-3.25-11-1.75-13.5,7.5-10.75,7.5-10.75,8,25,9,30.25a23.62,23.62,0,0,1-.75,10.5H293.8V423.67c0-3.75,2.75-15.5,2.75-15.5s6.75,19.5,8.5,24.75a114.28,114.28,0,0,1,3,11.5h24s-8.25-24.75-11.25-32.5-6.5-38.75-8-42.5-22.75-15.5-33.25-18A160.87,160.87,0,0,1,263.55,346.92Z" fill="none" stroke="#263238" stroke-linecap="round" stroke-linejoin="round"/><path d="M268.55,389.42s2.2,22.33,1.27,31.6-4.17,16.23-2.78,22.72" fill="none" stroke="#263238" stroke-linecap="round" stroke-linejoin="round"/><line x1="298.55" y1="392.67" x2="302.55" y2="384.17" fill="none" stroke="#263238" stroke-linecap="round" stroke-linejoin="round"/><path d="M261.3,344.92s-2.75,1.75-3.25,3.5-4.5,6.5-6.25,13.5-.75,19.75.5,16.75,4.5-9.5,5.75-11,1.5.5,2.5,4.75,8,17,8,17,5.25-11.75,8.25-13.5,4.25-7.5,4.25-7.5,3,15,4.75,15,2.5-11.5,1.75-18.5-4-15.5-6-18.25S271.05,334.67,261.3,344.92Z" fill="#64a2d9" stroke="#2f363b" stroke-miterlimit="10"/><path d="M261.55,343.42s-1,19.5.5,28,5.25,21,6.5,18,9.25-17.75,10.5-24.5a72.32,72.32,0,0,1,4.5-14S268.55,352.67,261.55,343.42Z" fill="#fff" stroke="#263238" stroke-linecap="round" stroke-linejoin="round"/><path d="M297.93,299.27s-4.36,1.25-5.45,3.68-2,2.62-4.76,5.16-3.61,2.17-5.79,4.21-3.86,1.86-6.43,2.16-4.81.08-6,.8a29.23,29.23,0,0,1-3.56,1.62s-1.59-1-2.82,2.81-2.71,12.71-1.8,17.6,4.53,16.55,10.17,19.39,19.26-6.23,22.76-10.1,10.72-22.06,11-25.13-4.46-8.92-5.35-11.27.37-3.63-1.38-5.79S297.93,299.27,297.93,299.27Z" fill="#fff" stroke="#263238" stroke-linecap="round" stroke-linejoin="round"/><path d="M283.9,337.93s-.8,1.39-3.57,1.11-3.86-2.37-3.54-4" fill="none" stroke="#263238" stroke-linecap="round" stroke-linejoin="round"/><path d="M273.17,340a14.71,14.71,0,0,0,9.34,3.58" fill="none" stroke="#263238" stroke-linecap="round" stroke-linejoin="round"/><path d="M278.46,323.56l-1.06,2.36s-3.62,1.6-6.91-3.17" fill="none" stroke="#263238" stroke-linecap="round" stroke-linejoin="round"/><path d="M295.11,330l-.88,2.21s-4.54,1-6-2.74" fill="none" stroke="#263238" stroke-linecap="round" stroke-linejoin="round"/><path d="M290.11,322.28s7.52-2.85,9.61,4.11" fill="none" stroke="#263238" stroke-linecap="round" stroke-linejoin="round"/><path d="M281.85,319.31s-2.65-6.19-10-3.49" fill="none" stroke="#263238" stroke-linecap="round" stroke-linejoin="round"/><path d="M215.3,403.67s8.5-13.75,13-23.25" fill="#fff" stroke="#263238" stroke-linecap="round" stroke-linejoin="round"/><path d="M221.8,393.67a31.13,31.13,0,0,0,9.5-9.75" fill="none" stroke="#263238" stroke-linecap="round" stroke-linejoin="round"/><polygon points="168.55 452.67 220.22 452.67 248.38 471.84 189.05 471.84 168.55 452.67" fill="#fff" stroke="#263238" stroke-linecap="round" stroke-linejoin="round"/><line x1="235.05" y1="467.67" x2="193.55" y2="467.67" fill="none" stroke="#263238" stroke-linecap="round" stroke-linejoin="round"/><line x1="231.05" y1="463.67" x2="189.55" y2="463.67" fill="none" stroke="#263238" stroke-linecap="round" stroke-linejoin="round"/><line x1="227.05" y1="459.67" x2="185.55" y2="459.67" fill="none" stroke="#263238" stroke-linecap="round" stroke-linejoin="round"/><polygon points="132.55 464.67 184.22 464.67 212.38 483.84 153.05 483.84 132.55 464.67" fill="#fff" stroke="#263238" stroke-linecap="round" stroke-linejoin="round"/><line x1="199.05" y1="479.67" x2="157.55" y2="479.67" fill="none" stroke="#263238" stroke-linecap="round" stroke-linejoin="round"/><line x1="195.05" y1="475.67" x2="153.55" y2="475.67" fill="none" stroke="#263238" stroke-linecap="round" stroke-linejoin="round"/><line x1="191.05" y1="471.67" x2="149.55" y2="471.67" fill="none" stroke="#263238" stroke-linecap="round" stroke-linejoin="round"/><path d="M205.22,443s-4.67-7-7.5-11.33-9-7.33-14.5-6-8.17,6.33-8.17,11.67.5,9.66,6.33,12.83S200.22,455,200.22,455,210.05,458.67,205.22,443Z" fill="#fff" stroke="#263238" stroke-linecap="round" stroke-linejoin="round"/><path d="M200.36,441.43s-6.39,2-6.83,4.4-1.1,7.72-.66,10.14,6.17,2.21,10.14,2.21,6-4,5.07-5.29-4.41-2-5.73-5.07A37.82,37.82,0,0,1,200.36,441.43Z" fill="#fff" stroke="#263238" stroke-linecap="round" stroke-linejoin="round"/><path d="M205.69,443.52c-.94-2.11-2.13-4.09-2.66-5.24-1.43-3.08-4.55-3.21-4.72.69-.1,2.21,4,15.12,7.56,12.15C207.8,449.52,207,446.39,205.69,443.52Z" fill="#fff" stroke="#263238" stroke-linecap="round" stroke-linejoin="round"/><path d="M193.75,446.72s.22,2.64,5.51,5.73,6.83,2,8.6,2" fill="#fff" stroke="#263238" stroke-linecap="round" stroke-linejoin="round"/><path d="M192.87,452s.65,4.34,12.77,5.22" fill="#fff" stroke="#263238" stroke-linecap="round" stroke-linejoin="round"/><path d="M209.31,454.67l-10.44-30a1.5,1.5,0,0,1,.93-1.91h0a1.5,1.5,0,0,1,1.91.93h0l10.4,30Z" fill="#263238"/><polygon points="209.31 454.7 212.13 458.31 212.14 453.72 209.31 454.7" fill="#f0f8fd" stroke="#2f363b" stroke-linecap="round" stroke-linejoin="round" stroke-width="0.25"/><path d="M211.11,457l1,1.31v-1.64A4.35,4.35,0,0,0,211.11,457Z" fill="#263238"/><path d="M201.71,423.67a1.51,1.51,0,1,0-2.84,1l1,3,2.8-1.07Z" fill="#fff" stroke="#2f363b" stroke-miterlimit="10" stroke-width="0.25"/><path d="M205.55,435.5s3-1.16,4.5,0,2.33,4.17,2.33,7.67,1.67,8-1.33,7.83S205.55,435.5,205.55,435.5Z" fill="#fff" stroke="#263238" stroke-linecap="round" stroke-linejoin="round"/><polygon points="271.65 462.34 248.88 448 335.88 448 368.31 462.34 271.65 462.34" fill="#fff" stroke="#263238" stroke-linecap="round" stroke-linejoin="round"/><polygon points="368.31 462.34 271.65 462.34 282.78 393.34 379.45 393.34 368.31 462.34" fill="#64a2d9" stroke="#2f363b" stroke-miterlimit="10"/><path d="M373.87,437s-5.48.7-7.45,3-.42,3.1,1.27,3.1,7.31,0,9.84-3C379.58,437.72,378.23,436.75,373.87,437Z" fill="#fff" stroke="#263238" stroke-linecap="round" stroke-linejoin="round"/><path d="M372,453.06s-5.48.7-7.45,2.95-.42,3.09,1.27,3.09,7.31,0,9.84-3C377.76,453.75,376.4,452.78,372,453.06Z" fill="#fff" stroke="#263238" stroke-linecap="round" stroke-linejoin="round"/><path d="M372.61,448.84s-5.49.7-7.46,3-.42,3.1,1.27,3.1,7.31,0,9.84-3C378.32,449.54,377,448.56,372.61,448.84Z" fill="#fff" stroke="#263238" stroke-linecap="round" stroke-linejoin="round"/><path d="M372.75,444.06s-5.49.7-7.45,2.95-.43,3.1,1.26,3.1,7.31,0,9.84-3C378.46,444.75,377.11,443.78,372.75,444.06Z" fill="#fff" stroke="#263238" stroke-linecap="round" stroke-linejoin="round"/></g><rect x="325.91" y="211.63" width="142.53" height="56.19" fill="#f5f5f5" stroke="#000" stroke-miterlimit="10" stroke-width="0.75"/><path d="M406.82,241.61c0,.09-15.26.17-34.09.17s-34.09-.08-34.09-.17,15.26-.18,34.09-.18S406.82,241.54,406.82,241.61Z" fill="#263238"/><path d="M407,248.44c0,.1-15.35.17-34.28.17s-34.29-.07-34.29-.17,15.35-.18,34.29-.18S407,248.32,407,248.44Z" fill="#263238"/><path d="M362.84,257.44c0,.1-5.26.18-11.76.18s-11.76-.08-11.76-.18,5.27-.17,11.76-.17S362.84,257.35,362.84,257.44Z" fill="#e0e0e0"/><circle cx="440.83" cy="241.96" r="19.26" transform="translate(131.38 638.34) rotate(-80.78)" fill="#90caf9" stroke="#000" stroke-miterlimit="10" stroke-width="0.75"/><path d="M436.29,220.42c.41-2,1.81-3,3.67-3.76a6.22,6.22,0,0,1,5.75.59c1.12.75,2,1.88,3.31,2.24,2.13.61,4.48-1.1,6.53-.28a2.85,2.85,0,0,1-1,5.5,2.52,2.52,0,0,1,1.2,3.59,3.79,3.79,0,0,1-3.76,1.63,7.94,7.94,0,0,1-3.87-1.88c-1.13-.9-2.16-1.94-3.35-2.76a6.31,6.31,0,0,0-4.09-1.23,5.71,5.71,0,0,0-4.31,3.6,14.43,14.43,0,0,0-.84,5.79,25,25,0,0,1-.39,5.86c-.06.23-.14.48-.36.56s-.6-.2-.78-.49a28.9,28.9,0,0,1-3.92-10.51,9,9,0,0,1,.67-6.11c1.08-1.9,4-3.41,5.57-2.35" fill="#263238"/><path d="M433,229.72l.28,22c.05,3.75.89,9.24,6.8,8.89h0c5.11-.67,6.35-5.57,6.3-9.07v-3.21s5.6-.6,5.93-6.15c.16-2.68,0-8.24-.12-13.26a10.36,10.36,0,0,0-9.87-10h-.53C436,219,432.85,223.93,433,229.72Z" fill="#fff" stroke="#000" stroke-miterlimit="10" stroke-width="0.5"/><path d="M446.41,248.27a12.93,12.93,0,0,1-7.15-2.4s1.52,4.08,7.09,3.84Z" fill="#ededed"/><path d="M450,232.29a.8.8,0,0,1-.81.76.76.76,0,0,1-.78-.74h0a.8.8,0,0,1,.8-.77.77.77,0,0,1,.79.75Z" fill="#263238"/><path d="M450.88,231.61c-.11.1-.67-.37-1.54-.41s-1.5.35-1.59.24.07-.22.35-.41a2.21,2.21,0,0,1,1.28-.33,2.11,2.11,0,0,1,1.22.46C450.85,231.37,451,231.55,450.88,231.61Z" fill="#263238"/><path d="M441.75,232a.78.78,0,0,1-.8.76.75.75,0,0,1-.78-.72v0a.78.78,0,0,1,.8-.76.75.75,0,0,1,.78.71Z" fill="#263238"/><path d="M442.48,231.37c-.1.09-.67-.38-1.54-.42s-1.5.37-1.59.25.07-.23.35-.41a2.2,2.2,0,0,1,1.27-.33,2.06,2.06,0,0,1,1.22.46C442.45,231.14,442.53,231.32,442.48,231.37Z" fill="#263238"/><path d="M445.27,237.85a6.05,6.05,0,0,1,1.4-.19c.22,0,.43,0,.47-.19a1,1,0,0,0-.11-.67l-.56-1.69a29.18,29.18,0,0,1-1.25-4.41,28.87,28.87,0,0,1,1.6,4.3l.53,1.7a1.3,1.3,0,0,1,.08.87.6.6,0,0,1-.38.3,2.31,2.31,0,0,1-.37,0A6.06,6.06,0,0,1,445.27,237.85Z" fill="#263238"/><path d="M445.68,240.82c-.13.07-.56-.75-1.57-1s-1.83.34-1.9.23.11-.26.47-.46a2.29,2.29,0,0,1,1.56-.25,2.07,2.07,0,0,1,1.26.84C445.72,240.54,445.73,240.79,445.68,240.82Z" fill="#263238"/><path d="M442.8,230c-.1.23-.94.08-1.95.15s-1.83.31-2,.09.1-.31.43-.52a3.31,3.31,0,0,1,1.47-.44,3.39,3.39,0,0,1,1.51.25C442.67,229.7,442.85,229.89,442.8,230Z" fill="#263238"/><path d="M450.68,229.12c-.16.19-.74,0-1.44-.08s-1.35.06-1.45-.14,0-.29.33-.47a2.11,2.11,0,0,1,2.32.18C450.68,228.83,450.75,229,450.68,229.12Z" fill="#263238"/><path d="M433.3,233.86c-.1-.05-3.77-1.31-3.83,2.49s3.78,3.08,3.79,3S433.3,233.86,433.3,233.86Z" fill="#fff" stroke="#000" stroke-miterlimit="10" stroke-width="0.5"/><path d="M432.12,237.86a1.05,1.05,0,0,1-.19.1.69.69,0,0,1-.49,0,1.7,1.7,0,0,1-.74-1.49,2.42,2.42,0,0,1,.2-.95.76.76,0,0,1,.51-.49.32.32,0,0,1,.39.18c.05.11,0,.18,0,.19s.09-.06.05-.22a.33.33,0,0,0-.14-.24.48.48,0,0,0-.37-.1.92.92,0,0,0-.67.57,2.2,2.2,0,0,0-.24,1.06,1.73,1.73,0,0,0,.93,1.66A.73.73,0,0,0,432,238C432.11,238,432.13,237.87,432.12,237.86Z" fill="#eb996e"/><path d="M453.43,227.84a8,8,0,0,1-7.05-1.94c-1.3-1.22-2.26-2.91-3.93-3.52a4.55,4.55,0,0,0-3.47.31,8.71,8.71,0,0,0-2.73,2.28c.94,2.88.06,6-.81,8.89a1.48,1.48,0,0,1-.48.86,1.22,1.22,0,0,1-1.5-.41,4.68,4.68,0,0,1-.91-2.52,15.66,15.66,0,0,1,.33-6.17,10.73,10.73,0,0,1,3.18-5.23,10.11,10.11,0,0,1,7.19-2.33,12.42,12.42,0,0,1,7,2.91,7.32,7.32,0,0,1,2.21,2.8" fill="#263238"/><rect x="199.18" y="108.69" width="136.55" height="53.83" fill="#f5f5f5" stroke="#000" stroke-miterlimit="10" stroke-width="0.75"/><path d="M276.61,136.33c0,.1-14.62.17-32.65.17s-32.66-.07-32.66-.17,14.62-.16,32.66-.16S276.61,136.22,276.61,136.33Z" fill="#263238"/><path d="M276.8,142.85c0,.1-14.71.17-32.84.17s-32.85-.07-32.85-.17,14.7-.16,32.85-.16S276.8,142.76,276.8,142.85Z" fill="#263238"/><path d="M234.48,151.48c0,.09-5,.17-11.27.17s-11.27-.08-11.27-.17,5.05-.17,11.27-.17S234.48,151.39,234.48,151.48Z" fill="#e0e0e0"/><circle cx="309.2" cy="136.65" r="18.45" transform="translate(124.79 419.96) rotate(-80.78)" fill="#90caf9" stroke="#000" stroke-miterlimit="10" stroke-width="0.75"/><path d="M300,124l1.45,23.13a6.79,6.79,0,0,0,6.78,6.37h0a6.79,6.79,0,0,0,6.78-6.8v0c0-2.83-.05-5.44-.05-5.44s5.32-.83,5.38-6.15c0-2.52-.32-7.66-.69-12.38a10.21,10.21,0,0,0-10.17-9.38h-.24a9.85,9.85,0,0,0-9.26,10.41C300,123.77,300,123.86,300,124Z" fill="#fff" stroke="#000" stroke-miterlimit="10" stroke-width="0.5"/><path d="M314.93,141.11a12.4,12.4,0,0,1-6.95-2s1.65,3.85,6.95,3.35Z" fill="#ededed"/><path d="M318.36,126.07c-.09.1-.64-.33-1.49-.33s-1.41.42-1.5.31.05-.22.31-.41a2.1,2.1,0,0,1,1.21-.37,2,2,0,0,1,1.18.38C318.33,125.85,318.41,126,318.36,126.07Z" fill="#263238"/><path d="M310.41,126.07c-.1.1-.64-.33-1.48-.33s-1.42.42-1.51.31.05-.22.31-.41a2.09,2.09,0,0,1,2.39,0C310.37,125.85,310.45,126,310.41,126.07Z" fill="#263238"/><path d="M313.38,131.21a5,5,0,0,1,1.32-.24c.21,0,.41-.07.44-.21a1,1,0,0,0-.14-.64c-.19-.51-.39-1-.64-1.59a28.89,28.89,0,0,1-1.39-4.15,26.58,26.58,0,0,1,1.73,4c.2.56.4,1.09.59,1.6a1.29,1.29,0,0,1,.11.82.55.55,0,0,1-.35.3,1.48,1.48,0,0,1-.35.05A4.87,4.87,0,0,1,313.38,131.21Z" fill="#263238"/><path d="M310.62,122c-.08.22-.9.11-1.86.23s-1.73.38-1.86.18.09-.31.39-.52a3.34,3.34,0,0,1,2.84-.32C310.48,121.66,310.65,121.84,310.62,122Z" fill="#263238"/><path d="M318.14,122.63c-.14.18-.7,0-1.38,0s-1.25.12-1.38-.07,0-.29.28-.46a1.93,1.93,0,0,1,1.12-.3,1.85,1.85,0,0,1,1.11.37C318.13,122.35,318.2,122.54,318.14,122.63Z" fill="#263238"/><path d="M305.74,118.12h0a4.21,4.21,0,0,0-1.61,2.73V121c-.21,1.51-.18,3.06-.4,4.57a6.82,6.82,0,0,1-1.87,4.1c-.46.43-1.28.73-1.65.22a1.31,1.31,0,0,1-.19-.69c-.28-3.67-1.28-6.92-1.28-10.75a3.24,3.24,0,0,1,1.34-2.62c.8-.58,1.78-1.17,2.67-.75s2,2.09,2.74,2.79" fill="#263238"/><path d="M301.76,126.36c-.09,0-3.65-1.09-3.54,2.57S302,131.7,302,131.6,301.76,126.36,301.76,126.36Z" fill="#fff" stroke="#000" stroke-miterlimit="10" stroke-width="0.5"/><path d="M300.81,130.23a1.15,1.15,0,0,1-.17.11.64.64,0,0,1-.47,0,1.57,1.57,0,0,1-.77-1.38,2.05,2.05,0,0,1,.15-.92.72.72,0,0,1,.46-.5.34.34,0,0,1,.38.16c.05.11,0,.18.05.18s.08-.06,0-.21a.38.38,0,0,0-.15-.22.48.48,0,0,0-.35-.08.89.89,0,0,0-.65.58,2.1,2.1,0,0,0-.18,1,1.64,1.64,0,0,0,1,1.54.67.67,0,0,0,.58-.11C300.8,130.32,300.82,130.24,300.81,130.23Z" fill="#90caf9"/><path d="M302.65,115.6c-.9-1.45,1.55-3.54,3.35-4.11s4.16.31,5.94.9a9.77,9.77,0,0,0,3.44.85,8.27,8.27,0,0,0,2.3-.58,5.85,5.85,0,0,1,2.33-.47,2.21,2.21,0,0,1,1.93,1.22,1.39,1.39,0,0,1-.75,1.8l-.17.05a1.79,1.79,0,0,1,1.72,3.13,1.75,1.75,0,0,1-1.25.18c.52-.39,1.29.25,1.25.9a1.89,1.89,0,0,1-1.27,1.38,6.76,6.76,0,0,1-4.85-.08c-1.57-.53-3-1.35-4.58-1.93s-4.16-1.58-5.72-1c-1.15.4-1.93,1.79-2.57,1.48a2.2,2.2,0,0,1-1.15-1.63,6,6,0,0,1,.07-2.07" fill="#263238"/><path d="M321.47,115.16s-.18.27-.57.7a5.12,5.12,0,0,1-2,1.28,4.63,4.63,0,0,1-3.47-.13,16.53,16.53,0,0,1-3.52-2.72,7.53,7.53,0,0,0-4.08-1.92,4.2,4.2,0,0,0-3.48,1.2,3.18,3.18,0,0,0-.85,2.33,2.73,2.73,0,0,0,.16.64c.06.14.11.22.12.21a4.35,4.35,0,0,1-.13-.88,3.1,3.1,0,0,1,.86-2.14,4,4,0,0,1,3.25-1,7.37,7.37,0,0,1,3.89,1.93,16.25,16.25,0,0,0,3.61,2.74A5,5,0,0,0,321,116a3,3,0,0,0,.37-.56C321.42,115.25,321.47,115.17,321.47,115.16Z" fill="#455a64"/><path d="M300.83,126.2a1,1,0,0,0,.3-.39,2.59,2.59,0,0,0,.18-1.29c-.08-1.17-1.12-2.43-1.25-4a3.55,3.55,0,0,1,.4-2.17,2.8,2.8,0,0,1,1.35-1.17A2.56,2.56,0,0,1,303,117a1.79,1.79,0,0,0,.46.09,1.26,1.26,0,0,0-.44-.22,2.32,2.32,0,0,0-1.33.06,3,3,0,0,0-1.55,1.24,3.91,3.91,0,0,0-.47,2.37,6.77,6.77,0,0,0,.7,2.29,7,7,0,0,1,.64,1.76A2.72,2.72,0,0,1,300.83,126.2Z" fill="#455a64"/><path d="M310.62,132.21a3.61,3.61,0,0,0,1.13,2.08,2.21,2.21,0,0,0,2.27.4,3.61,3.61,0,0,0,1.46-1.49Z" fill="#fff"/><rect x="61.16" y="213.94" width="142.48" height="56.17" fill="#f5f5f5" stroke="#000" stroke-miterlimit="10" stroke-width="0.75"/><path d="M142,243.88c0,.09-15.26.17-34.08.17S73.8,244,73.8,243.88s15.25-.17,34.07-.17S142,243.78,142,243.88Z" fill="#263238"/><path d="M142.14,250.68c0,.1-15.34.17-34.27.17s-34.27-.07-34.27-.17,15.34-.18,34.27-.18S142.14,250.58,142.14,250.68Z" fill="#263238"/><path d="M98,259.68c0,.1-5.26.17-11.75.17s-11.76-.07-11.76-.17,5.27-.17,11.76-.17S98,259.59,98,259.68Z" fill="#e0e0e0"/><circle cx="175.95" cy="244.21" r="19.25" transform="translate(-116.81 314.14) rotate(-67.66)" fill="#90caf9" stroke="#000" stroke-miterlimit="10" stroke-width="0.75"/><path d="M195.76,241.83c-.52-.42-1.26-.48-1.8-.89-1.11-.83-.79-2.53-1-3.89s-1.27-2.72-2.07-4-1.74-3.13-1.14-4.52l-10.84,19.86a9.23,9.23,0,0,0,17,0,14.15,14.15,0,0,0,.6-4A2.79,2.79,0,0,0,195.76,241.83Z" fill="#263238"/><path d="M173.25,222.1a4.51,4.51,0,0,1,3.94-2.68c1.67-.18,2.49.48,4.13.11,2.26-.51,3.56-1.27,5.06-1a6.82,6.82,0,0,1,4.27,2.05c.89,1,.92,3.45.55,4.76s-1.27,2.18-1.52,3.4a7.94,7.94,0,0,0,.41,3.4,11.48,11.48,0,0,1-2.08,9.82c-2.23,2.64-6.28,3.81-9.38,2.25" fill="#263238"/><path d="M182.45,255l-.09-4.94s4.91-.72,6-7.1a67.67,67.67,0,0,0,.3-12.64c-.17-3.84-4.24-7.74-8-7.38L168.22,225v2.06l.34,28.1a6.94,6.94,0,0,0,6.95,6.87h0a7,7,0,0,0,6.94-7Z" fill="#fff" stroke="#000" stroke-miterlimit="10" stroke-width="0.5"/><path d="M186.57,234.17a.82.82,0,0,1-.81.81.8.8,0,0,1-.83-.74h0a.82.82,0,0,1,.81-.82.78.78,0,0,1,.83.74Z" fill="#263238"/><path d="M187.52,233c-.1.11-.72-.36-1.6-.37s-1.53.41-1.63.31.06-.25.35-.45a2.15,2.15,0,0,1,1.3-.37,2.19,2.19,0,0,1,1.28.43C187.48,232.72,187.57,233,187.52,233Z" fill="#263238"/><path d="M178,234a.83.83,0,0,1-.81.81.78.78,0,0,1-.83-.74h0a.82.82,0,0,1,.8-.82.79.79,0,0,1,.84.74Z" fill="#263238"/><path d="M178.85,233c-.11.11-.72-.36-1.6-.37s-1.54.41-1.63.3.06-.24.35-.44a2.31,2.31,0,0,1,1.31-.38,2.14,2.14,0,0,1,1.26.44C178.81,232.74,178.9,233,178.85,233Z" fill="#263238"/><path d="M181.93,239.58a5.86,5.86,0,0,1,1.44-.24c.23,0,.44-.06.48-.21a1.18,1.18,0,0,0-.14-.67l-.64-1.73a29.47,29.47,0,0,1-1.41-4.51,29.88,29.88,0,0,1,1.78,4.39c.2.61.41,1.18.6,1.73a1.44,1.44,0,0,1,.11.89.64.64,0,0,1-.39.33,1.58,1.58,0,0,1-.38,0A6.39,6.39,0,0,1,181.93,239.58Z" fill="#263238"/><path d="M182.36,250a16.33,16.33,0,0,1-8.52-2.43s2,4.42,8.4,3.94Z" fill="#ededed"/><path d="M179.33,240.14c.14,0,.12,1,.94,1.64s1.82.61,1.83.75-.23.18-.68.18a2.36,2.36,0,0,1-1.52-.56,2.11,2.11,0,0,1-.73-1.38C179.15,240.37,179.26,240.13,179.33,240.14Z" fill="#263238"/><path d="M179.14,229.53c-.09.24-1,.1-2,.21s-1.89.38-2,.16.09-.33.43-.55a3.22,3.22,0,0,1,1.5-.5,3.46,3.46,0,0,1,1.56.21C179,229.23,179.18,229.41,179.14,229.53Z" fill="#263238"/><path d="M187.24,230.41c-.16.2-.76,0-1.49,0s-1.34.11-1.49-.11,0-.3.31-.48a2,2,0,0,1,1.22-.31,2.16,2.16,0,0,1,1.19.43C187.23,230.11,187.31,230.32,187.24,230.41Z" fill="#263238"/><path d="M175.59,219.81a8.9,8.9,0,0,1-2.86,12.25l-.28.17a4.9,4.9,0,0,0-1.95,1.45c-.55.87-.32,2-.22,3a10.61,10.61,0,0,1-2.44,7.83,29.78,29.78,0,0,1-3-7.38,24.59,24.59,0,0,0-.84-4c-.28-.75-.7-1.44-.95-2.21a7,7,0,0,1,.18-4.32,10.22,10.22,0,0,1,12.88-6.4" fill="#263238"/><path d="M164.48,224.24c-2.88,4.21-1.48,6.95-2.6,9.11-.8,1.56-2.68,2.18-4,3.35a8.22,8.22,0,0,0-2.48,6.49,24.58,24.58,0,0,0,1.6,7,8.12,8.12,0,0,0,15.47.07,26.33,26.33,0,0,0-.33-5.81c-.48-2-1-3.95-.51-5.87.33-1.34,1.11-2.52,1.15-3.87a10,10,0,0,0-.47-2.65,11.91,11.91,0,0,1,.72-7.42" fill="#263238"/><path d="M191.21,222.38a3.5,3.5,0,0,0-.35-.52,3.63,3.63,0,0,0-1.34-1,5.31,5.31,0,0,0-2.46-.45,10.83,10.83,0,0,0-3,.67c-1,.36-2,.76-3,1a7.63,7.63,0,0,1-2.56.22,4.22,4.22,0,0,1-1.67-.47,3.45,3.45,0,0,1-.41-.25l-.12-.1a5.66,5.66,0,0,0,.55.29,4.5,4.5,0,0,0,1.65.41,7.39,7.39,0,0,0,2.52-.26c.93-.23,1.91-.63,3-1a11.09,11.09,0,0,1,3.07-.67,5.37,5.37,0,0,1,2.52.5,3.55,3.55,0,0,1,1.34,1.09,2.38,2.38,0,0,1,.23.41A.44.44,0,0,1,191.21,222.38Z" fill="#455a64"/><path d="M189,233.2l.14.1.17.14c.07.07.13.15.19.22a3.65,3.65,0,0,1,.67,1.73,8,8,0,0,1,.1,1.29v1.47a6.06,6.06,0,0,0,.18,1.59,3,3,0,0,0,.82,1.46,9.68,9.68,0,0,0,1.46.92,2.84,2.84,0,0,1,1.18,1.15,4,4,0,0,1,.29,2.73,9.87,9.87,0,0,1-.63,1.75l-.23.46a.53.53,0,0,1-.08.15.35.35,0,0,1,.06-.16,4.32,4.32,0,0,0,.18-.47,9.27,9.27,0,0,0,.57-1.76,3.76,3.76,0,0,0,.09-1.25,3.22,3.22,0,0,0-.39-1.38,2.77,2.77,0,0,0-1.12-1.08,8,8,0,0,1-1.49-.94,3,3,0,0,1-.87-1.54,6.37,6.37,0,0,1-.18-1.63c0-.52,0-1,0-1.47a8.93,8.93,0,0,0-.07-1.27,3.65,3.65,0,0,0-.62-1.71A5.83,5.83,0,0,0,189,233.2Z" fill="#455a64"/><path d="M162.66,249.56l0-.08-.11-.24c-.09-.22-.23-.54-.37-1a9.65,9.65,0,0,1-.37-1.59,7.11,7.11,0,0,1,0-2.16,5.89,5.89,0,0,1,1-2.43,10.61,10.61,0,0,1,2.22-2,6.72,6.72,0,0,0,1.16-1.1,3.63,3.63,0,0,0,.71-1.48,8.39,8.39,0,0,0-.16-3.49,14.54,14.54,0,0,1-.5-3.54,4.83,4.83,0,0,1,.38-1.67,4.39,4.39,0,0,1,1-1.34,8.47,8.47,0,0,1,2.57-1.56c.87-.36,1.7-.67,2.42-1a8.05,8.05,0,0,0,1.83-1.09,4.71,4.71,0,0,0,1.06-1.21,3.51,3.51,0,0,0,.41-.93c.06-.23.07-.35.08-.35a1.49,1.49,0,0,1,0,.36,3.16,3.16,0,0,1-.38,1,4.85,4.85,0,0,1-1.06,1.24,8.31,8.31,0,0,1-1.84,1.14c-.72.33-1.56.63-2.41,1a8.09,8.09,0,0,0-2.52,1.55,4,4,0,0,0-.92,1.28,4.28,4.28,0,0,0-.35,1.62,13.74,13.74,0,0,0,.49,3.49,8.23,8.23,0,0,1,.15,3.56,3.8,3.8,0,0,1-.74,1.54,7.08,7.08,0,0,1-1.19,1.13,10.26,10.26,0,0,0-2.2,2,5.69,5.69,0,0,0-1,2.37,8,8,0,0,0,.3,3.7c.13.43.25.75.33,1l.1.24Z" fill="#455a64"/><path d="M175.73,221.34h-.41c-.26,0-.67-.07-1.18-.09a13.1,13.1,0,0,0-4.27.47,8.33,8.33,0,0,0-2.68,1.34,6.88,6.88,0,0,0-2.14,2.61,8.6,8.6,0,0,0-.58,3.69,19.88,19.88,0,0,1-.14,4.08,5.77,5.77,0,0,1-.72,2,4.71,4.71,0,0,1-1.44,1.44,33.87,33.87,0,0,0-3.24,2,4.91,4.91,0,0,0-1.65,2.88,6.83,6.83,0,0,0,.07,2.95,9.75,9.75,0,0,0,.87,2.29,17.36,17.36,0,0,0,1,1.6c.29.42.53.74.67.95l.18.25a.44.44,0,0,1,.06.1l-.08-.08-.19-.24a11.22,11.22,0,0,1-.67-.95,15.41,15.41,0,0,1-1-1.58,9.65,9.65,0,0,1-.91-2.32,7.22,7.22,0,0,1-.09-3,5.08,5.08,0,0,1,1.69-3,33,33,0,0,1,3.25-2,4.57,4.57,0,0,0,1.38-1.39,5.45,5.45,0,0,0,.7-1.9,20.11,20.11,0,0,0,.14-4,9,9,0,0,1,.61-3.76,7.06,7.06,0,0,1,2.2-2.68,8.54,8.54,0,0,1,2.68-1.34,12.53,12.53,0,0,1,4.31-.42,8.79,8.79,0,0,1,1.18.11l.31,0Z" fill="#455a64"/><path d="M167.58,250.23a3.89,3.89,0,0,0,1-.73,4.36,4.36,0,0,0,.82-1.22,5.52,5.52,0,0,0,.46-1.87,7.37,7.37,0,0,0-.23-2.34,23.7,23.7,0,0,0-.84-2.59,21,21,0,0,1-.9-2.89,7.43,7.43,0,0,1,0-3.25,5.3,5.3,0,0,1,.67-1.52,8.13,8.13,0,0,1,1.06-1.21c.78-.72,1.62-1.29,2.38-1.87a10.6,10.6,0,0,0,2-1.83,7.6,7.6,0,0,0,1.2-2,8.35,8.35,0,0,0,.63-3.35,2.28,2.28,0,0,0,0-.54,1.72,1.72,0,0,0,0-.39l0-.25v-.08a5.88,5.88,0,0,1,.17,1.26,8.16,8.16,0,0,1-1.77,5.42,11.13,11.13,0,0,1-2,1.87,28.4,28.4,0,0,0-2.36,1.87,7.85,7.85,0,0,0-1,1.19,4.84,4.84,0,0,0-.67,1.46,7.07,7.07,0,0,0,0,3.17,21.64,21.64,0,0,0,.88,2.87,23.3,23.3,0,0,1,.83,2.61,7.32,7.32,0,0,1,.21,2.38,5.79,5.79,0,0,1-.49,1.91,4.29,4.29,0,0,1-.86,1.22,2.9,2.9,0,0,1-.75.55l-.22.1Z" fill="#455a64"/><path d="M176.4,224.09c1.63,1.15,3.44,2.34,5.43,2.2a14.46,14.46,0,0,0,3.4-1,4.1,4.1,0,0,1,3.43.08c.68-.06,1-.94.68-1.53a2.53,2.53,0,0,0-1.55-1.11c-3.58-1.22-7.16.16-11.18.42" fill="#263238"/><path d="M191.06,225.14a2,2,0,0,0,.14-.67,1.73,1.73,0,0,0-.85-1.46,2.33,2.33,0,0,0-1.15-.34,3.38,3.38,0,0,0-1.37.23c-1,.31-1.85,1-2.94,1.45a6.71,6.71,0,0,1-1.64.48,7.8,7.8,0,0,1-1.6.13,7.71,7.71,0,0,1-2.64-.53,6.82,6.82,0,0,1-1.59-.87,3.79,3.79,0,0,1-.39-.31.46.46,0,0,1-.12-.12,8.83,8.83,0,0,0,2.15,1.18,8,8,0,0,0,4.15.36,6.78,6.78,0,0,0,1.61-.47c1.07-.45,2-1.14,3-1.46a3.91,3.91,0,0,1,1.44-.22,2.69,2.69,0,0,1,1.21.38,1.8,1.8,0,0,1,.67.8,1.87,1.87,0,0,1,.16.77,1.41,1.41,0,0,1-.12.49A.45.45,0,0,1,191.06,225.14Z" fill="#455a64"/><circle cx="330.5" cy="427.5" r="5.5" fill="#fff"/></svg>