<?xml version="1.0" encoding="utf-8"?>
<!-- Generator: Adobe Illustrator 25.0.0, SVG Export Plug-In . SVG Version: 6.00 Build 0)  -->
<svg version="1.1" id="Layer_1" xmlns="http://www.w3.org/2000/svg" xmlns:xlink="http://www.w3.org/1999/xlink" x="0px" y="0px"
	 viewBox="0 0 512 512" style="enable-background:new 0 0 512 512;" xml:space="preserve">
<style type="text/css">
	.st0{fill:#F1EFEF;}
	.st1{fill:#273339;}
	.st2{fill:#FFFFFF;stroke:#263238;stroke-linecap:round;stroke-linejoin:round;}
	.st3{opacity:0.2;}
	.st4{fill:#FFFFFF;stroke:#263238;stroke-width:0.5;stroke-miterlimit:10;}
	.st5{fill:#90CAF9;stroke:#263238;stroke-width:0.5;stroke-miterlimit:10;}
	.st6{fill:#263238;}
	.st7{fill:none;stroke:#90CAF9;stroke-linecap:round;stroke-linejoin:round;}
	.st8{fill:none;stroke:#263238;stroke-linecap:round;stroke-linejoin:round;}
	.st9{fill:none;stroke:#263238;stroke-width:0.75;stroke-linecap:round;stroke-linejoin:round;}
	.st10{fill:#858585;stroke:#263238;stroke-linecap:round;stroke-linejoin:round;}
	.st11{fill:#263238;stroke:#263238;stroke-linecap:round;stroke-linejoin:round;}
	.st12{fill:#90CAF9;stroke:#263238;stroke-linecap:round;stroke-linejoin:round;}
	.st13{fill:#D8E4EA;stroke:#263238;stroke-linecap:round;stroke-linejoin:round;}
	.st14{fill:#2FA5DD;stroke:#191918;stroke-width:0.75;stroke-miterlimit:10;}
	.st15{fill:#EEF9FE;stroke:#142230;stroke-miterlimit:10;}
	.st16{fill:none;stroke:#7F7F7F;stroke-linecap:round;stroke-linejoin:round;}
	.st17{fill:#2CA9E1;stroke:#000000;stroke-width:0.5;stroke-miterlimit:10;}
	.st18{opacity:0.2;enable-background:new    ;}
	.st19{fill:#FFFFFF;}
	.st20{fill:#9FBDF9;stroke:#000000;stroke-width:0.5;stroke-miterlimit:10;}
	.st21{fill:#6888D5;stroke:#191918;stroke-miterlimit:10;}
	.st22{fill:#CCCCCC;stroke:#000000;stroke-width:0.75;stroke-miterlimit:10;}
	.st23{fill:#BFBFBF;stroke:#263238;stroke-linecap:round;stroke-linejoin:round;}
	.st24{fill:#90CAF9;}
	.st25{clip-path:url(#SVGID_2_);}
	.st26{opacity:0.3;enable-background:new    ;}
	.st27{fill:#999999;stroke:#263238;stroke-linecap:round;stroke-linejoin:round;}
	.st28{fill:#2ABBF4;stroke:#263238;stroke-linecap:round;stroke-linejoin:round;}
	.st29{clip-path:url(#SVGID_4_);}
	.st30{fill:#121D3F;}
	.st31{fill:#777777;}
	.st32{fill:#F67567;}
	.st33{fill:#2CA9E1;}
</style>
<path class="st0" d="M120.9,148.8c-0.9,54.2-81.7,54.2-82.6,0C39.3,94.6,120,94.6,120.9,148.8z"/>
<path class="st0" d="M82.6,239.8c74.7-47.3,174.6,33.1,137,116.4c-21.4,48.8-75.6,54.5-80.6,55C39.7,422.8-4.4,294.5,82.6,239.8z"/>
<path class="st0" d="M230.1,71.4c152.5-88.2,343.7,120,187.9,271.5c-12.9,15.3-54.3,42.2-82,22.5c-24.4-19.2,3.4-67.2-23.8-104
	c-22.9-34.8-63.4-18.3-99-46.7c-22.3-21.3-32.5-48.5-28.5-77.2C188.6,109.6,205.8,85.4,230.1,71.4z"/>
<g id="freepik--Floor--inject-26">
	<path class="st1" d="M6,485.3c160.2-0.7,339.8-0.7,500,0C345.8,486,166.2,486,6,485.3z"/>
</g>
<g id="freepik--Cubicle--inject-152">
	<g id="freepik--layer-14--inject-152">
		<path class="st2" d="M420.6,303.7v-204H315.8c-2.6,35.8-22.4,68-53.1,86.5l-1.6,0.9v116.6L420.6,303.7z"/>
	</g>
</g>
<g id="freepik--Tasks--inject-152">
	<g class="st3">
		<path d="M325.4,127.7c-0.2,1.5-0.6,3-1.3,4.4c-0.8,1.7-0.9,3.3-2,4.9c5.1,0.3,8.9,0.6,10.8,0.4c2.1-3,2.2-7.3,1.8-10.7
			c-3,0.9-6.7,0-9.8,0.8L325.4,127.7z"/>
	</g>
	<path class="st4" d="M325.5,126.4c-0.4,1.5-1,3-1.9,4.3c-1,1.6-2.1,3.2-3.4,4.6c3.6,0.5,7.2,0.7,10.9,0.5c2.4-2.4,3.6-5.7,3.6-9.1
		C331.2,126.6,325.5,126.4,325.5,126.4z"/>
	<g class="st3">
		<path d="M309.6,140.5c-0.2,1.5-0.6,3-1.3,4.4c-0.8,1.7-0.3,3.3-1.4,4.9c5.1,0.3,8.9,0.6,10.8,0.4c2.1-3,1.7-7.3,1.2-10.7
			c-3,0.9-6.7,0-9.8,0.8L309.6,140.5z"/>
	</g>
	<path class="st4" d="M309.7,139.2c-0.4,1.5-1,3-1.9,4.3c-1,1.6-2.1,3.2-3.4,4.6c3.6,0.5,7.2,0.6,10.9,0.5c2.4-2.4,3.7-5.7,3.6-9.1
		C315.3,139.4,309.7,139.2,309.7,139.2z"/>
	<g class="st3">
		<path d="M342.2,126.9c-0.2,1.5-0.6,3.1-1.3,4.4c-0.8,1.7-0.9,3.3-2,4.9c5.1,0.3,8.9,0.6,10.8,0.4c2.1-3,2.3-7.3,1.8-10.7
			c-3,0.9-6.7,0-9.8,0.8L342.2,126.9z"/>
	</g>
	<path class="st5" d="M342.3,125.6c-0.4,1.5-1,3-1.9,4.3c-1,1.6-2.1,3.2-3.4,4.6c3.6,0.5,7.3,0.7,10.9,0.5c2.4-2.4,3.7-5.7,3.6-9.1
		C347.9,125.8,342.3,125.6,342.3,125.6z"/>
	<g class="st3">
		<path d="M404.3,211.4c-0.2,1.5-0.6,3-1.3,4.4c-0.8,1.7-0.9,3.3-2,4.9c5.1,0.3,8.9,0.6,10.8,0.4c2.1-3,2.3-7.3,1.8-10.7
			c-3,0.9-6.7,0-9.8,0.8L404.3,211.4z"/>
	</g>
	<path class="st5" d="M404.4,210.1c-0.4,1.5-1,3-1.9,4.3c-1,1.6-2.1,3.2-3.4,4.6c3.6,0.5,7.2,0.7,10.9,0.5c2.3-2.4,3.6-5.7,3.6-9.1
		C410,210.3,404.4,210.1,404.4,210.1z"/>
	<g class="st3">
		<path d="M384.5,214.6c-0.2,1.5-0.6,3-1.3,4.4c-0.8,1.7-0.9,3.3-2,4.9c5.1,0.3,8.9,0.6,10.8,0.4c2.1-3,2.3-7.3,1.8-10.7
			c-3,0.9-6.7,0-9.8,0.8L384.5,214.6z"/>
	</g>
	<path class="st5" d="M384.6,213.3c-0.4,1.5-1,3-1.9,4.3c-1,1.6-2.1,3.2-3.4,4.6c3.6,0.5,7.2,0.6,10.9,0.5c2.4-2.4,3.7-5.7,3.6-9.1
		C390.2,213.5,384.6,213.3,384.6,213.3z"/>
	<g class="st3">
		<path d="M366.7,211.5c-0.2,1.5-0.6,3-1.3,4.4c-0.8,1.7-0.9,3.3-2,4.9c5.1,0.3,8.9,0.6,10.8,0.4c2.1-3,2.3-7.3,1.8-10.7
			c-3,0.9-6.7,0-9.8,0.8L366.7,211.5z"/>
	</g>
	<path class="st4" d="M366.8,210.2c-0.4,1.5-1,3-1.9,4.3c-1,1.6-2.1,3.2-3.4,4.6c3.6,0.5,7.2,0.7,10.9,0.5c2.3-2.4,3.6-5.7,3.6-9.1
		C372.5,210.4,366.8,210.2,366.8,210.2z"/>
	<rect x="355.7" y="117.8" class="st6" width="58.2" height="85.6"/>
	<path class="st2" d="M411.6,202.3h-59.2l2.9-34c0.5-5.9,0.7-11.8,0.6-17.7l-0.7-33.9h57.9l0.3,41.6c0,3.4,0,6.7-0.2,10.1
		L411.6,202.3z"/>
	<path class="st2" d="M409.1,201.2h-59.8l1.8-9.5c3.9-23.3,4.9-33.6,4.3-63.8l-0.6-12.3h56.8l0.7,11.6
		C413.7,177.7,409.1,201.2,409.1,201.2z"/>
	<path class="st6" d="M358.2,119.9c-0.9-0.1-1.5-0.8-1.4-1.7c0.1-0.8,0.7-1.4,1.4-1.4c0.1,0,0.2,0.1,0.2,0.2c0,0,0,0,0,0l0,0
		c0,0.1-0.1,0.2-0.2,0.2l0,0l0,0c-0.6,0-1.1,0.5-1.1,1.1s0.5,1.1,1.1,1.1s1.1-0.5,1.1-1.1v0l0,0c0-0.1,0.1-0.2,0.2-0.2l0,0l0,0
		c0.1,0,0.2,0.1,0.2,0.2c0,0,0,0,0,0l0,0C359.8,119.2,359.1,119.9,358.2,119.9z"/>
	<path class="st6" d="M358.2,119.2c-1.4,0-1.5-3-1.5-3.7l0,0c0-0.6,0.1-3.7,1.5-3.7s1.5,3.3,1.5,3.7h-1.2c0-0.7-0.1-1.4-0.3-2.1
		c-0.2,0.7-0.3,1.4-0.2,2.1l0,0c0,0.7,0.1,1.4,0.3,2.1v-0.2l0.1-0.3l0.9,0.2c0.2,0.1,0.3,0.2,0.2,0.4l0,0
		C359.1,118.8,358.7,119.2,358.2,119.2z"/>
	<path class="st6" d="M359.5,118.6c-0.1,0-0.2-0.1-0.2-0.2l0,0c0-0.6-0.5-1.1-1.1-1.1c0,0,0,0,0,0c-0.1,0-0.2-0.1-0.2-0.2l0,0
		c0-0.1,0.1-0.2,0.2-0.2c0.9,0,1.5,0.7,1.5,1.5c0,0,0,0,0,0C359.8,118.5,359.7,118.6,359.5,118.6
		C359.5,118.6,359.5,118.6,359.5,118.6z"/>
	<path class="st6" d="M365.5,119.9c-0.9-0.1-1.5-0.8-1.4-1.7c0.1-0.8,0.7-1.4,1.4-1.4c0.1,0,0.2,0.1,0.2,0.2c0,0,0,0,0,0l0,0
		c0,0.1-0.1,0.2-0.2,0.2l0,0l0,0c-0.6,0-1.1,0.5-1.1,1.1s0.5,1.1,1.1,1.1s1.1-0.5,1.1-1.1v0l0,0c0-0.1,0.1-0.2,0.2-0.2l0,0l0,0
		c0.1,0,0.2,0.1,0.2,0.2c0,0,0,0,0,0l0,0C367,119.2,366.3,119.9,365.5,119.9z"/>
	<path class="st6" d="M365.5,119.2c-1.4,0-1.5-3-1.5-3.7l0,0c0-0.6,0.1-3.7,1.5-3.7s1.5,3.3,1.5,3.7h-1.2c0-0.7-0.1-1.4-0.3-2.1
		c-0.2,0.7-0.3,1.4-0.2,2.1l0,0c0,0.7,0.1,1.4,0.3,2.1v-0.2l0.1-0.3l0.9,0.2c0.2,0.1,0.3,0.2,0.2,0.4l0,0
		C366.4,118.8,366,119.2,365.5,119.2z"/>
	<path class="st6" d="M366.8,118.6c-0.1,0-0.2-0.1-0.2-0.2l0,0c0-0.6-0.5-1.1-1.1-1.1c0,0,0,0,0,0c-0.1,0-0.2-0.1-0.2-0.2l0,0
		c0-0.1,0.1-0.2,0.2-0.2c0.9,0,1.5,0.7,1.5,1.5c0,0,0,0,0,0C367,118.5,366.9,118.6,366.8,118.6z"/>
	<path class="st6" d="M372.8,119.9c-0.9-0.1-1.5-0.8-1.4-1.7c0.1-0.8,0.7-1.4,1.4-1.4c0.1,0,0.2,0.1,0.2,0.2c0,0,0,0,0,0l0,0
		c0,0.1-0.1,0.2-0.2,0.2l0,0l0,0c-0.6,0-1.1,0.5-1.1,1.1s0.5,1.1,1.1,1.1s1.1-0.5,1.1-1.1v0l0,0c0-0.1,0.1-0.2,0.2-0.2l0,0l0,0
		c0.1,0,0.2,0.1,0.2,0.2c0,0,0,0,0,0l0,0C374.3,119.2,373.6,119.9,372.8,119.9z"/>
	<path class="st6" d="M372.7,119.2c-1.4,0-1.5-3-1.5-3.7l0,0c0-0.6,0.1-3.7,1.5-3.7s1.5,3.3,1.5,3.7H373c0-0.7-0.1-1.4-0.3-2.1
		c-0.2,0.7-0.3,1.4-0.2,2.1l0,0c0,0.7,0.1,1.4,0.3,2.1c0,0,0-0.1,0-0.2l0.1-0.3l0.9,0.2c0.2,0,0.3,0.2,0.2,0.4c0,0,0,0,0,0l0,0
		C373.7,118.8,373.3,119.2,372.7,119.2z"/>
	<path class="st6" d="M374.1,118.6c-0.1,0-0.2-0.1-0.2-0.2l0,0c0-0.6-0.5-1.1-1.1-1.1c0,0,0,0,0,0c-0.1,0-0.2-0.1-0.2-0.2l0,0
		c0-0.1,0.1-0.2,0.2-0.2c0.9,0,1.5,0.7,1.5,1.5c0,0,0,0,0,0C374.3,118.5,374.2,118.6,374.1,118.6z"/>
	<path class="st6" d="M380,119.9c-0.9-0.1-1.5-0.8-1.4-1.7c0.1-0.8,0.7-1.4,1.4-1.4c0.1,0,0.2,0.1,0.2,0.2c0,0,0,0,0,0l0,0
		c0,0.1-0.1,0.2-0.2,0.2l0,0l0,0c-0.6,0-1.1,0.5-1.1,1.1s0.5,1.1,1.1,1.1s1.1-0.5,1.1-1.1v0l0,0c0-0.1,0.1-0.2,0.2-0.2l0,0l0,0
		c0.1,0,0.2,0.1,0.2,0.2c0,0,0,0,0,0l0,0C381.6,119.2,380.9,119.9,380,119.9L380,119.9L380,119.9z"/>
	<path class="st6" d="M380,119.2c-1.4,0-1.5-3-1.5-3.7l0,0c0-0.6,0.1-3.7,1.5-3.7s1.5,3.3,1.5,3.7h-1.2c0-0.7-0.1-1.4-0.3-2.1
		c-0.2,0.7-0.3,1.4-0.2,2.1l0,0c0,0.7,0.1,1.4,0.3,2.1c0,0,0-0.1,0-0.2l0.1-0.3l0.9,0.2c0.2,0,0.3,0.2,0.2,0.4c0,0,0,0,0,0l0,0
		C381,118.8,380.6,119.2,380,119.2z"/>
	<path class="st6" d="M381.4,118.6c-0.1,0-0.2-0.1-0.2-0.2l0,0c0-0.6-0.5-1.1-1.1-1.1c0,0,0,0,0,0c-0.1,0-0.2-0.1-0.2-0.2l0,0
		c0-0.1,0.1-0.2,0.2-0.2c0.9,0,1.5,0.7,1.5,1.5c0,0,0,0,0,0C381.6,118.5,381.5,118.6,381.4,118.6z"/>
	<path class="st6" d="M387.3,119.9c-0.9,0.1-1.6-0.6-1.7-1.4c-0.1-0.9,0.6-1.6,1.4-1.7c0.1,0,0.2,0,0.2,0c0.1,0,0.2,0.1,0.2,0.2
		c0,0,0,0,0,0l0,0c0,0.1-0.1,0.2-0.2,0.2l0,0c-0.6,0-1.1,0.5-1.1,1.1c0,0.6,0.5,1.1,1.1,1.1c0.6,0,1.1-0.5,1.1-1.1c0,0,0,0,0,0l0,0
		c0-0.1,0.1-0.2,0.2-0.2c0,0,0,0,0,0l0,0c0.1,0,0.2,0.1,0.2,0.2c0,0,0,0,0,0l0,0C388.9,119.2,388.2,119.9,387.3,119.9L387.3,119.9
		L387.3,119.9z"/>
	<path class="st6" d="M387.2,119.2c-1.4,0-1.5-3-1.5-3.7l0,0c0-0.6,0.1-3.7,1.5-3.7s1.5,3.3,1.5,3.7h-1.2c0-0.7-0.1-1.4-0.3-2.1
		c-0.2,0.7-0.3,1.4-0.2,2.1l0,0c0,0.7,0.1,1.4,0.3,2.1c0,0,0-0.1,0-0.2l0.1-0.3l0.9,0.2c0.2,0,0.3,0.2,0.2,0.4c0,0,0,0,0,0l0,0
		C388.2,118.8,387.8,119.2,387.2,119.2z"/>
	<path class="st6" d="M388.6,118.6c-0.1,0-0.2-0.1-0.2-0.2c0-0.6-0.5-1.1-1-1.1c0,0,0,0,0,0l0,0c-0.1,0-0.2-0.1-0.2-0.2l0,0
		c0-0.1,0.1-0.2,0.2-0.2c0,0,0,0,0,0l0,0c0.9,0,1.5,0.7,1.5,1.5c0,0,0,0,0,0C388.8,118.5,388.7,118.6,388.6,118.6L388.6,118.6z"/>
	<path class="st6" d="M394.6,119.9c-0.9,0.1-1.6-0.6-1.7-1.4c-0.1-0.9,0.6-1.6,1.4-1.7c0.1,0,0.2,0,0.2,0c0.1,0,0.2,0.1,0.2,0.2
		c0,0,0,0,0,0l0,0c0,0.1-0.1,0.2-0.2,0.2l0,0c-0.6,0-1.1,0.5-1.1,1.1c0,0.6,0.5,1.1,1.1,1.1l0,0c0.6,0,1.1-0.5,1.1-1.1c0,0,0,0,0,0
		l0,0c0-0.1,0.1-0.2,0.2-0.2c0,0,0,0,0,0l0,0c0.1,0,0.2,0.1,0.2,0.2c0,0,0,0,0,0l0,0C396.1,119.2,395.5,119.9,394.6,119.9
		L394.6,119.9L394.6,119.9z"/>
	<path class="st6" d="M394.5,119.2c-1.4,0-1.5-3-1.5-3.7l0,0c0-0.6,0.1-3.7,1.5-3.7s1.5,3.3,1.5,3.7h-1.2c0-0.7-0.1-1.4-0.3-2.1
		c-0.2,0.7-0.3,1.4-0.2,2.1l0,0c0,0.7,0.1,1.4,0.3,2.1c0,0,0-0.1,0-0.2l0.1-0.3l0.9,0.2c0.2,0,0.3,0.2,0.2,0.4c0,0,0,0,0,0l0,0
		C395.5,118.8,395.1,119.2,394.5,119.2z"/>
	<path class="st6" d="M395.9,118.6c-0.1,0-0.2-0.1-0.2-0.2c0-0.6-0.5-1.1-1-1.1c0,0,0,0,0,0l0,0c-0.1,0-0.2-0.1-0.2-0.2l0,0
		c0-0.1,0.1-0.2,0.2-0.2c0,0,0,0,0,0l0,0c0.9,0,1.5,0.7,1.5,1.5c0,0,0,0,0,0C396.1,118.5,396,118.6,395.9,118.6L395.9,118.6z"/>
	<path class="st6" d="M401.9,119.9c-0.9,0.1-1.6-0.6-1.7-1.4c-0.1-0.9,0.6-1.6,1.4-1.7c0.1,0,0.2,0,0.2,0c0.1,0,0.2,0.1,0.2,0.2
		c0,0,0,0,0,0l0,0c0,0.1-0.1,0.2-0.2,0.2l0,0c-0.6,0-1.1,0.5-1.1,1.1s0.5,1.1,1.1,1.1s1.1-0.5,1.1-1.1c0,0,0,0,0,0l0,0
		c0-0.1,0.1-0.2,0.2-0.2c0,0,0,0,0,0l0,0c0.1,0,0.2,0.1,0.2,0.2c0,0,0,0,0,0l0,0C403.4,119.2,402.7,119.9,401.9,119.9L401.9,119.9
		L401.9,119.9z"/>
	<path class="st6" d="M401.8,119.2c-1.4,0-1.5-3-1.5-3.7l0,0c0-0.6,0.1-3.7,1.5-3.7s1.5,3.3,1.5,3.7h-1.2c0-0.7-0.1-1.4-0.3-2.1
		c-0.2,0.7-0.3,1.4-0.2,2.1l0,0c0,0.7,0.1,1.4,0.3,2.1c0,0,0-0.1,0-0.2l0.1-0.3l0.9,0.2c0.2,0,0.3,0.2,0.2,0.4c0,0,0,0,0,0l0,0
		C402.8,118.8,402.4,119.2,401.8,119.2z"/>
	<path class="st6" d="M403.2,118.6c-0.1,0-0.2-0.1-0.2-0.2c0-0.6-0.5-1.1-1-1.1c0,0,0,0,0,0l0,0c-0.1,0-0.2-0.1-0.2-0.2l0,0
		c0-0.1,0.1-0.2,0.2-0.2c0,0,0,0,0,0l0,0c0.9,0,1.5,0.7,1.5,1.5c0,0,0,0,0,0C403.4,118.5,403.3,118.6,403.2,118.6L403.2,118.6z"/>
	<path class="st6" d="M409.1,119.9c-0.9-0.1-1.5-0.8-1.4-1.7c0.1-0.8,0.7-1.4,1.4-1.4c0.1,0,0.2,0.1,0.2,0.2c0,0,0,0,0,0l0,0
		c0,0.1-0.1,0.2-0.2,0.2l0,0c-0.6,0-1.1,0.5-1.1,1.1c0,0.6,0.5,1.1,1.1,1.1c0.6,0,1.1-0.5,1.1-1.1c0,0,0,0,0,0l0,0
		c0-0.1,0.1-0.2,0.2-0.2l0,0l0,0c0.1,0,0.2,0.1,0.2,0.2c0,0,0,0,0,0l0,0C410.7,119.2,410,119.9,409.1,119.9L409.1,119.9L409.1,119.9
		z"/>
	<path class="st6" d="M409.1,119.2c-1.4,0-1.5-3-1.5-3.7l0,0c0-0.6,0.1-3.7,1.5-3.7s1.5,3.3,1.5,3.7h-1.2c0-0.7-0.1-1.4-0.3-2.1
		c-0.2,0.7-0.3,1.4-0.2,2.1l0,0c0,0.7,0.1,1.4,0.3,2.1c0,0,0-0.1,0-0.2l0.1-0.3l0.9,0.2c0.2,0,0.3,0.2,0.2,0.4c0,0,0,0,0,0l0,0
		C410.1,118.8,409.6,119.2,409.1,119.2z"/>
	<path class="st6" d="M410.4,118.6c-0.1,0-0.2-0.1-0.2-0.2c0-0.6-0.5-1.1-1-1.1c0,0,0,0,0,0l0,0c-0.1,0-0.2-0.1-0.2-0.2l0,0
		c0-0.1,0.1-0.2,0.2-0.2c0,0,0,0,0,0l0,0c0.9,0,1.5,0.7,1.5,1.5c0,0,0,0,0,0C410.7,118.5,410.6,118.6,410.4,118.6L410.4,118.6z"/>
	<path class="st2" d="M372.7,113.5h8.9v-6.2c0-1.1,0.9-2.1,2.1-2.1l0,0c1.1,0,2.1,0.9,2.1,2.1v6.2h8.8"/>
	<path class="st6" d="M378.4,124v1.4h-1.6v8.3h-1.5v-8.3h-1.6V124H378.4z"/>
	<path class="st6" d="M382.5,133.6l-0.3-1.8h-1.9l-0.3,1.8h-1.4l1.5-9.7h2.2l1.5,9.7H382.5z M381.9,130.6l-0.7-4.9l-0.7,4.9H381.9z"
		/>
	<path class="st6" d="M385,124.5c0.8-0.9,2.3-1,3.2-0.2c0.5,0.5,0.8,1.2,0.7,1.9v0.3h-1.4v-0.4c0-0.3,0-0.5-0.2-0.7
		c-0.3-0.3-0.8-0.3-1.1,0c-0.1,0.2-0.2,0.5-0.2,0.7c0,0.4,0.1,0.7,0.3,1.1c0.3,0.4,0.6,0.7,1,1c0.3,0.3,0.6,0.6,0.9,0.9
		c0.2,0.3,0.4,0.6,0.6,0.9c0.2,0.4,0.3,0.8,0.2,1.2c0,0.7-0.2,1.3-0.6,1.8c-0.4,0.4-1.1,0.7-1.7,0.6c-0.6,0-1.2-0.2-1.7-0.6
		c-0.4-0.5-0.6-1.1-0.6-1.8v-0.6h1.4v0.7c0,0.6,0.3,0.9,0.8,0.9s0.8-0.3,0.8-0.9c0-0.4-0.1-0.8-0.3-1.1c-0.3-0.4-0.6-0.7-1-1
		c-0.3-0.3-0.6-0.6-0.9-0.9c-0.2-0.3-0.4-0.6-0.6-0.9c-0.2-0.4-0.2-0.8-0.2-1.2C384.4,125.7,384.6,125,385,124.5z"/>
	<path class="st6" d="M391.4,130.6v3h-1.5V124h1.5v4.2l2-4.2h1.5l-2.1,4.3l2.1,5.4h-1.6l-1.5-3.9L391.4,130.6z"/>
	<path class="st2" d="M374.5,138.1c7.7-1.9,15.7-2.8,23.6-2.7"/>
	<rect x="360.7" y="168.4" class="st7" width="6.7" height="6.7"/>
	<rect x="359.7" y="179.4" class="st7" width="6.7" height="6.7"/>
	<rect x="361" y="157.1" class="st7" width="6.7" height="6.7"/>
	<rect x="361.6" y="146.5" class="st7" width="6.7" height="6.7"/>
	<path class="st8" d="M363.2,148.8h0.5c0.1,1.5,0.6,2.9,1.4,4.1c0.1,0.1,0.2,0.3,0.4,0.3s0.4-0.2,0.5-0.5c1.3-3.1,2.4-6.2,3.4-9.4"
		/>
	<path class="st9" d="M374.5,164.6c0.7-1.4,1.4-2.7,2.1-4.1c0.5-1.2,1.2-2.3,2-3.3c0.2-0.2,0.5-0.5,0.8-0.7c0-0.1,0.1-0.1,0.2-0.1
		c0,0.3-0.3,0.5-0.5,0.8c0.1,0.1,0.2,0.1,0.3,0.1h1.2c0.4,0,0.8,0.1,1.1,0.3c0.3,0.3,0.4,0.6,0.2,1c-0.2,0.7-0.5,1.3-0.8,1.9
		c-0.4,0.6-0.8,1.2-1.3,1.7c-0.4,0.4-0.8,0.8-1.3,1.1c-0.2,0.2-0.4,0.2-0.6,0.1s-0.2-0.2-0.1-0.4c0.1-0.3,0.3-0.6,0.6-0.9
		c0.4-0.4,0.8-0.7,1.3-0.9c0.6-0.3,1.2-0.5,1.8-0.7c0.3-0.1,0.7-0.2,1-0.2h0.8c0.2,0,0.3-0.1,0.5-0.1c-0.4,0.3-0.7,0.6-1,1.1
		l-0.1,0.4l0.1,0.4l0.3,0.2c0.3,0.1,0.5,0,0.7-0.2c0.2-0.1,0.3-0.2,0.4-0.4c0.1-0.1,0.2-0.3,0.2-0.4c0.1-0.1,0.1-0.3,0.1-0.4
		c0-0.1,0-0.2-0.1-0.3c0-0.1-0.1-0.1-0.2-0.1c-0.1,0-0.2,0-0.2,0c-0.1,0.1-0.3,0.2-0.4,0.3c0.1,0,0.2-0.1,0.3-0.1
		c0.3-0.1,0.6-0.2,0.9-0.3c0.8-0.3,1.6-0.5,2.4-0.6c-0.1,0.1-0.2,0.2-0.4,0.3c-0.3,0.2-0.6,0.4-0.8,0.7c-0.2,0.3-0.4,0.7-0.4,1.1
		c0,0.3,0,0.6,0.4,0.6c0.3,0,0.5-0.2,0.8-0.3c0.3-0.2,0.5-0.4,0.8-0.7c0.1-0.1,0.5-0.4,0.4-0.6c-0.1,0.1-0.1,0.3-0.2,0.4
		c0,0.2,0,0.3,0,0.5c0.2,0.3,0.6-0.1,0.8-0.2c0.5-0.3,0.8-0.7,0.9-1.2c-0.1,0.2-0.2,0.5-0.2,0.7c-0.1,0.2-0.1,0.5,0,0.8
		c0.4,0,0.5-0.4,0.7-0.7s0.3-0.5,0.5-0.4c0,0.2-0.1,0.4-0.1,0.6c0,0.1-0.1,0.2-0.1,0.3c0-0.2,0.2-0.5,0.3-0.6
		c0.1-0.1,0.2-0.1,0.4-0.1c0.2,0,0.4,0,0.6-0.1c0.2-0.1,0.4-0.2,0.6-0.4s0.2-0.2,0.3-0.1c-0.1,0.4-0.3,0.7-0.4,1.1
		c0,0.2-0.1,0.3-0.1,0.4c-0.1,0.2,0,0.4,0.1,0.5c0.2,0,0.3-0.1,0.5-0.1c0.5-0.2,1.1-0.4,1.6-0.7c0.4-0.2,0.7-0.5,1-0.8
		c0.1-0.1,0.2-0.2,0.3-0.4c0.1-0.1,0.1-0.3,0-0.4c-0.2-0.1-0.5-0.1-0.7,0.1l-0.4,0.2c-0.3,0.2-0.6,0.6-0.6,0.9
		c-0.1,0.3,0,0.7,0.3,0.9c0.1,0.2,0.4,0.3,0.7,0.2l0,0c0.4-0.1,0.7-0.3,1-0.5c0.5-0.3,0.9-0.7,1.2-1.2c-0.1,0-0.5,0.7-0.5,0.7
		c-0.1,0.3-0.3,0.5-0.4,0.8c0.1-0.4,0.3-0.7,0.6-1c0.3-0.3,0.6-0.7,1-0.8c0,0.2,0,0.4-0.1,0.6c0,0.1-0.1,0.2-0.1,0.4
		c-0.1,0.1-0.1,0.3-0.1,0.5c0.2,0.1,0.5,0.1,0.6-0.1l0,0c0.3-0.2,0.6-0.5,0.8-0.8c0.2-0.3,0.5-0.5,0.6-0.9c0.2-0.2,0.2-0.4,0.2-0.6
		c-0.3,0.3-0.6,0.7-0.7,1.2c-0.1,0.2-0.2,0.5-0.2,0.7c-0.1,0.2-0.1,0.5,0,0.7c0,0.3,0.2,0.6,0.5,0.7h0.5l0.6-0.2
		c0.2-0.1,0.4-0.3,0.5-0.6c0.1-0.3,0.1-0.6,0-0.8c0-0.2-0.1-0.3-0.3-0.3l-0.4-0.1c-0.3-0.1-0.6-0.1-0.9-0.1c0,0-0.4,0-0.5,0.1
		c0.6,0.1,1.1,0,1.7-0.1c0.4,0,0.7-0.2,1-0.4c0,0-0.2,0-0.1,0.1s0.1,0,0.2,0c0,0.1-0.1,0.1,0,0.2c0.3,0.2,0.7,0.3,1.1,0.5
		c0.5,0.2,0.7,0.5,0.6,0.9c0.1,0.5-0.3,1-0.8,1.2c-0.4,0.5-0.8,0.6-1.1,0.2c0.2-0.5,0.6-0.8,1-1.1c0.3-0.3,0.8-0.5,1.2-0.5"/>
	<path class="st9" d="M373.1,148.3c0,0.5,2.8-0.4,2.7-0.4c2.3-0.7,4.8-1.8,7.3-1.6"/>
	<path class="st9" d="M377.9,146c0-0.1,0.1-0.1,0.2-0.1c0,0.1-0.1,0.2-0.1,0.4c-0.2,0.6-0.3,1.2-0.4,1.9c-0.2,1.1-0.5,2.1-0.8,3.2
		c-0.2,0.5-0.3,1.1-0.4,1.7"/>
	<path class="st9" d="M379.5,148.4c0,0.7,0,1.5-0.2,2.2c-0.2,0.5-0.4,1.1-0.4,1.7c0.8-1,1.2-2.4,2.5-2.8c0.3,0.4,0.1,1,0,1.5
		c-0.1,0.5-0.2,1-0.1,1.5c0.6,0.1,1.3-0.1,1.8-0.5c0.6-0.3,1.2-0.8,1.6-1.4c0.1-0.3,0.3-1-0.1-1.1s-0.8,0.5-0.9,0.8
		c-0.3,0.5-0.5,1.2-0.4,1.8c0,0.4,0.4,0.7,0.8,0.7c0.1,0,0.2,0,0.3-0.1c0.5-0.2,0.9-1,1.2-1.4c0.2-0.2,0.3-0.5,0.5-0.8v0.8
		c-0.1,0.4-0.1,0.7-0.2,1.1c0.3-0.8,0.4-2.4,1.4-2.6c0.2,0.2,0.1,0.9,0.1,1.1c0,0.3,0,0.5,0,0.8c0.2,0,0.5-0.6,0.5-0.6
		c0.2-0.3,0.4-0.6,0.6-0.9c0.5-0.4,0.9-0.2,1,0.4c0,0.5-0.1,0.9-0.3,1.3c-0.1,0.2-0.1,0.3,0,0.5c0,0.2,0.1,0.2,0.3,0.1
		c0.4-0.1,0.6-0.5,1-0.6c1-0.4,2.2-0.7,2.7-1.6c0.2-0.3,0.2-0.6-0.1-0.9l-0.1-0.1c-0.5-0.3-0.9,0.1-1.2,0.4c-0.4,0.5-0.6,1-0.8,1.6
		c-0.2,0.5-0.2,1.1,0,1.7c0.3,0.6,1.5-0.2,1.7-0.4c0.4-0.4,0.8-0.8,1.1-1.2"/>
	<path class="st9" d="M399,147.7c-0.1,0.1-0.2,0.3-0.1,0.5c0.1,0,0.2-0.1,0.3-0.3c0.3-0.4,0.7-0.8,1-1.1c0.2-0.2,1.2-1.4,1.7-1.1
		c-0.1,0.5-0.3,1.1-0.5,1.6c-0.6,1.2-1,2.4-1.4,3.6l-0.3,1.1c0,0.2,0,0.3,0,0.5c0.1,0.1,0.3,0.2,0.5,0.1l0.1-0.1"/>
	<path class="st9" d="M372.4,175.5c0-0.1,0.1-0.2,0.1-0.4c0.4-0.8,1-1.6,1.7-2.2c1.2-1.2,2.4-2.3,3.8-3.3c0.7-0.6,1.4-1.1,2.2-1.5
		c0.1,0.4,0,0.7-0.1,1.1c-0.2,0.8-0.5,1.6-0.8,2.4s-0.3,1.4-0.4,2.1c-0.1,0.3-0.2,1,0,1.3c0.3-0.1,0.3-0.6,0.3-0.8"/>
	<path class="st9" d="M376.6,172.5c0.7,0,1.4-0.1,2-0.3c1-0.2,1.9-0.5,2.9-0.9"/>
	<path class="st9" d="M382.4,168.3L382.4,168.3c-0.2,1.1-0.5,2.1-0.9,3.2c-0.2,0.8-0.5,1.6-0.7,2.4c-0.2,0.4-0.3,0.8-0.1,1.2
		c0.1,0.1,0.2,0.1,0.4,0"/>
	<path class="st9" d="M383.4,171.5c-0.4,0.9-0.7,1.9-0.8,2.9c0,0.2,0,0.4,0.2,0.5s0.4,0,0.3-0.1"/>
	<path class="st9" d="M381.5,172.7c0.3,0,0.7,0.1,1,0.2h1c0.3,0,0.7,0,1-0.2c0.2,0,0.9,0.7,1.1,0.6c0.3,0,0.6-0.3,0.8-0.6
		c0.2-0.3,0-0.5-0.3-0.5c-0.4-0.1-0.8,0.1-1,0.4c-0.4,0.5-0.6,2.1,0.5,1.9c0.6-0.2,1.1-0.6,1.5-1.1c0.4-0.5,0.8-1,1.1-1.5
		c-0.6,0.5-0.3,1.3-0.6,1.9c-0.1-0.8,0.8-1.9,1.8-1.7c0.2,0.1,0.1,0.2,0,0.4c-0.2,0.5-0.5,0.9-0.7,1.4c0.4-0.5,0.6-1,1-1.5
		c0.1-0.1,0.4-0.5,0.6-0.5c0.6,0.1,0.3,1.3,0.4,1.6c0.3,0.1,0.9-0.5,1-0.6c0.4-0.4,0.9-0.8,1.4-1.2c-0.1,0.6-1,1.1-0.8,1.8
		c0.4-0.1,0.6-0.6,0.7-0.8s0.2-0.6,0.4-0.8c0.1,0.1-0.1,0.6-0.1,0.8c0.1,0.4,0.4,0.7,0.7,0.8c1.2,0.5,2.4-1.1,2.8-1.9
		c-0.3,0.3-0.5,0.7-0.6,1.1l-0.3,0.8c-0.2,0.3-0.2,0.6,0.1,0.9l0,0h0.5c0.6-0.4,1.1-0.9,1.4-1.5c0.2-0.3,0.3-0.6,0.3-1"/>
	<path class="st9" d="M397.9,170.6L397.9,170.6c-0.1,0.1-0.1,0.2-0.1,0.2c0.2-0.1,0.3-0.4,0-0.4c-0.1,0.2,0.1,0.2,0.3,0.3"/>
	<path class="st9" d="M394.6,172.6h1.5c0.4,0,0.8,0,1.2,0c0.2,0,0.8-0.4,1-0.4v-0.1c0.2,0.1,0.1,0.6,0.1,0.8s0,1.1,0.4,1.2
		c0.3-0.4,0.6-0.8,0.8-1.2l0.6-0.8c0.1-0.2,0.2-0.4,0.4-0.5c0,0.2-0.1,0.4-0.2,0.6c0,0.4,0.1,0.8,0.4,1.1c0.5,0.2,1-0.2,1.2-0.6
		c0.1-0.2,0.4-0.6,0.2-0.9s-1.2,0.1-1.5,0.3c-0.5,0.3-1.5,1.7-0.5,2c0.6,0.1,1.1,0,1.6-0.4c0.3-0.2,0.6-0.5,0.8-0.8
		c0.1-0.2,0.2-0.3,0.4-0.3"/>
	<path class="st9" d="M376.6,179.8c0.2-0.1,0.1,0.2,0.1,0.3c-0.3,0.9-0.7,1.7-1,2.6c-0.4,0.8-0.6,1.7-0.6,2.6c0,0.2,0.1,0.5,0.3,0.6
		c0.1,0.1,0.2,0,0.3-0.1"/>
	<path class="st9" d="M374.9,179.7L374.9,179.7c0.1,0.1,0.3,0.1,0.4,0.1c0.6,0,1.2-0.1,1.7-0.2c0.6-0.1,1.1-0.3,1.7-0.4
		c0.2-0.1,0.4-0.1,0.5,0c0.1,0,0.3,0,0.3,0.2c0,0,0,0,0,0v0.1"/>
	<path class="st9" d="M374.5,183c1.3-0.6,2.7-0.9,4.2-1.1"/>
	<path class="st9" d="M379.8,182.8c0,0.3-0.1,0.6-0.2,0.9c-0.1,0.4-0.1,0.8-0.1,1.1"/>
	<path class="st9" d="M380.6,181.6L380.6,181.6"/>
	<path class="st9" d="M381.1,182.8c0.3-0.1,0.1,0.5,0.1,0.6c-0.1,0.5-0.3,1-0.4,1.6c0.1-0.1,0.1-0.2,0.1-0.2c0.1-0.3,0.3-0.7,0.5-1
		c0.2-0.4,0.5-0.8,0.8-1.1c0.1-0.2,0.3-0.3,0.5-0.2c0,0.6-0.1,1.3-0.3,1.9c0,0.3-0.3,0.9,0.1,1.2"/>
	<path class="st9" d="M384.1,182.7c-0.3,0.8-0.5,1.7-0.7,2.6c0.2,0.1,0.4-0.4,0.4-0.5"/>
	<path class="st9" d="M384.8,181.5L384.8,181.5"/>
	<path class="st9" d="M386.7,182.4c-0.4,0.2-0.7,0.4-1,0.7l-0.4,0.4l-0.2,0.3c0,0.3,0.4,0.2,0.6,0.3c0.2,0,0.5,0.1,0.6,0.2
		c0.2,0.3,0,0.6-0.2,0.8s-1,1-1,0.4"/>
	<path class="st9" d="M388.1,181.9c-0.2,0.6-0.5,1.1-0.7,1.7c-0.1,0.2-0.5,1.2-0.4,1.3c0.2-0.3,0.5-0.6,0.7-0.9s0.5-0.7,0.9-0.6
		c0.1,0.3,0.2,0.6,0.3,0.9c0.2,0.4,0.6,0.6,1,0.5c0.6-0.3,1.1-0.9,1.3-1.6c-0.2,0.2-0.3,0.5-0.4,0.8c-0.2,0.5-0.4,1-0.4,1.5"/>
	<path class="st9" d="M391.5,181.2c0,0-0.1,0.1-0.2,0.1"/>
	<path class="st9" d="M392,184.8c-0.1,0.3-0.2,0.7-0.2,1c0.4-1,0.7-2.2,1.7-2.6c0.5-0.2,0.5,0.2,0.5,0.6c0,0.2,0,0.5,0,0.7
		c-0.1,0.1-0.1,0.3,0,0.5l0.3-0.1"/>
	<path class="st9" d="M395.7,182.8c-0.2,0.2-1.3,1.7-0.5,1.6c0.4,0,0.7-0.6,0.8-0.9c0.1-0.3,0.3-0.6,0.5-0.8
		c0.2,0.1,0.2,0.4,0.2,0.6c0.1,0.7,0.1,1.4,0,2.1c-0.1,0.4-0.2,0.8-0.4,1.1c-0.3,0.4-0.7,0.6-1.1,0.6c-0.2,0-0.4-0.2-0.4-0.4
		c-0.1-0.4,0.1-0.8,0.4-1l0.9-0.7c0.5-0.4,1.1-0.7,1.6-1.1l1.6-1.2"/>
</g>
<g id="freepik--Character--inject-152">
	<path class="st10" d="M208.4,385.6c10.9,0,42.5-7.1,42.5-7.1h-85C165.9,378.4,197.5,385.6,208.4,385.6z"/>
	<rect x="198.7" y="382" class="st10" width="19.5" height="13.4"/>
	<rect x="168" y="327" class="st11" width="16.4" height="34.3"/>
	<path class="st12" d="M136.2,331h70.8c7.9,0,14.3-6.4,14.3-14.3l0,0c0-0.4,0-0.7,0-1.1l-5.6-76.4c-0.6-7.5-6.8-13.3-14.3-13.3
		h-59.6c-7.5,0-13.7,5.8-14.3,13.3l-5.6,76.4c-0.6,7.9,5.4,14.7,13.2,15.3C135.5,331,135.8,331,136.2,331z"/>
	<path class="st13" d="M134.4,315.6l5.6-76.4c0.6-7.5,6.8-13.2,14.3-13.2h47c7.5,0,13.7,5.8,14.3,13.3l5.6,76.4
		c0.6,7.9-5.3,14.7-13.2,15.3c-0.3,0-0.7,0-1,0h-58.2c-7.9,0-14.3-6.4-14.4-14.3c0,0,0,0,0,0C134.4,316.3,134.4,316,134.4,315.6z"/>
	<path class="st14" d="M165.9,468c0,1.2,0.9,2.1,2.1,2.1c0.2,0,0.3,0,0.5,0c7.8-1.7,30.9-6.6,40-6.6s32.2,4.9,40,6.6
		c1.1,0.3,2.3-0.5,2.5-1.6c0,0,0,0,0,0c0-0.2,0.1-0.3,0.1-0.5l0,0c0-2.6-1.8-4.9-4.4-5.4c-9-1.9-29.7-6.2-38.1-6.2
		s-29.1,4.2-38.1,6.2C167.8,463.2,166,465.4,165.9,468L165.9,468z"/>
	<path class="st14" d="M243.7,476.2c0,4,3.3,7.3,7.3,7.3c4,0,7.3-3.3,7.3-7.3c0-4-3.2-7.3-7.3-7.3l0,0
		C247,468.9,243.7,472.2,243.7,476.2C243.7,476.2,243.7,476.2,243.7,476.2z M247,476.2c0-2.2,1.8-3.9,3.9-3.9s3.9,1.8,3.9,3.9
		s-1.8,3.9-3.9,3.9C248.8,480.2,247,478.4,247,476.2C247,476.2,247,476.2,247,476.2z"/>
	<path class="st10" d="M201.2,476.2c0,4,3.2,7.3,7.3,7.3s7.3-3.2,7.3-7.3c0-4-3.2-7.3-7.3-7.3c0,0,0,0,0,0l0,0
		C204.4,468.9,201.2,472.2,201.2,476.2C201.2,476.2,201.2,476.2,201.2,476.2z M204.5,476.2c0-2.2,1.8-4,3.9-4c2.2,0,4,1.8,4,3.9
		c0,2.2-1.8,4-3.9,4c0,0,0,0,0,0l0,0C206.3,480.1,204.5,478.4,204.5,476.2z"/>
	<path class="st14" d="M159.5,476.2c0,4,3.2,7.3,7.3,7.3s7.3-3.2,7.3-7.3c0-4-3.2-7.3-7.3-7.3c0,0,0,0,0,0l0,0
		C162.8,468.9,159.5,472.2,159.5,476.2C159.5,476.2,159.5,476.2,159.5,476.2z M162.9,476.2c0-2.2,1.8-3.9,3.9-3.9s3.9,1.8,3.9,3.9
		s-1.8,3.9-3.9,3.9C164.6,480.2,162.9,478.4,162.9,476.2C162.9,476.2,162.9,476.2,162.9,476.2z"/>
	<path class="st12" d="M186.9,356h84.9c5.8,0,10.5,4.7,10.5,10.5c0,0,0,0,0,0v1.4c0,5.8-4.7,10.5-10.5,10.5h-84.9V356z"/>
	<path class="st12" d="M141.4,356h54.8c3.8,0,6.8,3.1,6.8,6.8v8.8c0,3.8-3.1,6.8-6.8,6.8h-54.8c-3.8,0-6.8-3.1-6.8-6.8v-8.8
		C134.5,359.1,137.6,356,141.4,356z"/>
	<path class="st15" d="M335.3,180c-6.5,18.4-26.8,33.9-34.3,36.8c-3.6,1.4-50.6,18.6-50.6,18.6c-10.3-1.1-15.8-17.1-16.2-21.5
		c-0.6-6.4-0.9-11.4,9.5-12c16.3-0.9,48.5-4.6,54.8-9.8c5.2-4.3,22.9-17.8,28.2-21.9C326.7,170.2,331.2,171.5,335.3,180z"/>
	<path class="st2" d="M323.6,173.9l10.1-11.9l0.3-1.5c1.1-5.3,3.2-10.4,6.1-14.9l0,0l10.9-4.1l8.9,6.9l-2.5,5.7l-0.8,3.3
		c-0.2,0.9-0.7,1.7-1.5,2.2l0,0c-3.6,3.2-7.7,5.7-12.2,7.6l-0.4,0.2l-9.2,16.3c-1.8,3.1-5.1,2.8-7.6-0.1c0-0.1,0,0-0.1,0
		C324.1,182.4,321.1,177.8,323.6,173.9z"/>
	
		<rect x="359.2" y="144.2" transform="matrix(0.9799 -0.1995 0.1995 0.9799 -21.5773 75.3373)" class="st2" width="7.5" height="1.1"/>
	
		<rect x="356.1" y="144.1" transform="matrix(0.9799 -0.1995 0.1995 0.9799 -21.7619 74.7342)" class="st2" width="7.5" height="2.5"/>
	<rect x="325.6" y="147" transform="matrix(0.9799 -0.1995 0.1995 0.9799 -22.8274 71.4259)" class="st2" width="34.6" height="4"/>
	<path class="st6" d="M365.6,143.4c0,0,3.2-0.8,3.4,0.1s-3.1,1.3-3.1,1.3L365.6,143.4z"/>
	<path class="st2" d="M327.6,152.1c0.2,1.1-0.2,2.2-0.9,2.3s-1.5-0.6-1.7-1.8s0.2-2.1,0.9-2.3S327.4,151,327.6,152.1z"/>
	<path class="st2" d="M345.3,160.2c-0.6,0.9-1.4,1.6-2.4,2"/>
	<path class="st2" d="M339.6,152.8c0.4-1.5,3.3-4.9,12.6-6c1,0.6,0.4,2.3-0.6,3s-2.4,0.9-3.1,1.8s-1,4-2.1,6.7"/>
	<path class="st2" d="M349.8,145.5l2.4,1.3c4.2,2.1,5.8-0.9,5.4-1.4l0,0l-6-3.4"/>
	<path class="st2" d="M355.7,158.9l-2.4,0.9c-0.4,0.1-0.9,0.3-1.3,0.3c-0.5,0.2-1.1,0-1.5-0.4c-0.2-0.3-0.4-0.7-0.3-1.1
		c0.1-0.3,0.2-0.7,0.4-0.9c0.5-0.6,1.2-1.1,2-1.2c0,0,3.9-1.6,4.8-2.5l-0.1,1.6C357.1,156.8,356.6,158,355.7,158.9L355.7,158.9z"/>
	<path class="st2" d="M353.7,151.8c-0.9,0.2-1.8,0.7-2.4,1.4c-0.3,0.3-0.5,0.6-0.6,1c-0.1,0.4,0,0.8,0.3,1.1
		c0.5,0.4,1.2,0.5,1.8,0.2c0.5-0.1,1.1-0.3,1.6-0.5l2.9-1.1c0,0,1.6-0.4,2.5-5.7l-0.5-0.4l-1.1,0.6c0,0-0.9,3.8-2.5,4.2
		C354.9,153,354,152.6,353.7,151.8z"/>
	<path class="st2" d="M358.4,147.8c-0.2,0.6-0.4,1.3-0.7,2c-0.3,0.9-0.8,1.7-1.5,2.4c-0.5,0.5-1.3,0.6-1.8,0.2c0,0,0,0,0,0
		c-0.1-0.1-0.2-0.3-0.3-0.4c-0.1-0.3-0.2-0.5-0.3-0.8c-0.1-0.9,0.1-1.8,0.5-2.6L358.4,147.8z"/>
	<path class="st2" d="M353.9,143.2c1.3,0,2.7,0.1,4,0.4"/>
	<path class="st2" d="M352.4,149.2c0.2,0.9,0.4,1.8,0.6,2.8"/>
	<path class="st11" d="M202.4,197.8c-2.5-4.3-4.2-9.1-5-14c0-0.5,0-1.1,0.1-1.6c0.3,2.3,1.2,4.6,2.4,6.6c0.8,1.1,1.5,2.2,2.1,3.4
		C202.6,194,202.7,195.9,202.4,197.8z"/>
	<path class="st2" d="M227.8,483.3h-43.2c-0.9,0-1.7-0.6-1.8-1.5c-0.7-3.4-0.5-11.1,3.4-21.3l0.4-20.7l22.1,3.8l-2.8,17.6
		c0,0,8.9,9.8,13.1,11.5c3,1.2,9.7,1.4,10.6,8.5c0.1,1-0.6,1.9-1.6,2.1L227.8,483.3z"/>
	<path class="st1" d="M193.5,467.3c10.2,2.3,12.4-6.2,12.4-6.2s8.9,9.8,13.1,11.5c3,1.2,9.7,1.4,10.6,8.5c0.1,1-0.6,1.9-1.6,2h-0.2
		h-43.2c-0.9,0-1.7-0.6-1.8-1.5c-0.7-3.4-0.5-11.1,3.4-21.3C186.2,460.5,188.1,466.1,193.5,467.3z"/>
	<polygon class="st2" points="282.5,471.3 278.9,431.4 300.8,435.3 302.5,467 	"/>
	<path class="st11" d="M232.1,314.7c0,0,4.4,4.5,22.1,7.3s54.7,11.8,54.2,26.3s-5.8,97.4-5.8,97.4s-17-3.2-24.9-8.1
		c0,0-5.1-40.8-4.7-75.1c0,0-46.1-5.7-71.6-16.2S191,311.8,191,311.8L232.1,314.7z"/>
	<path class="st11" d="M203.2,312.6c0,0-6.6,11-1.7,17s32.6,17.4,29.5,31.2s-13.5,42.9-20.2,89.2c0,0-15.7-2.4-26.2-6.9
		c0,0-1.8-56.7,10.5-77c0,0-35-6.5-38.5-18.2s3.1-29.7,3.2-36.1L203.2,312.6z"/>
	<path class="st14" d="M304.9,445.7L304,451c0,0.5-0.5,1-1,0.9l0,0c-4-0.4-21-2.3-27.5-6.3c-0.4-0.3-0.6-0.8-0.6-1.2l0.2-5.7
		c-0.1-0.5,0.3-1.1,0.8-1.1c0.2,0,0.4,0,0.5,0.1c2.8,1.3,10.6,4.1,27.5,6.5C304.7,444.3,305.1,445,304.9,445.7z"/>
	<path class="st14" d="M212.8,447.3c0.1-0.5-0.2-0.9-0.7-1c0,0,0,0,0,0c-0.1,0-0.3,0-0.4,0c-2,0.6-4.1,0.7-6.1,0.1
		c-4.5-1-17.4-5.1-21.2-6.3c-0.4-0.1-0.9,0.1-1.1,0.5c0,0.1,0,0.2,0,0.3v5.4c0,0.3,0.2,0.6,0.5,0.8c3,1.3,19.2,8.3,27.6,6.4
		c0.3-0.1,0.6-0.4,0.6-0.7L212.8,447.3z"/>
	<path class="st16" d="M200.5,318.9c-0.3,0.9-0.5,1.8-0.6,2.7"/>
	<path class="st1" d="M332.7,480.5c0,1.6-1.3,2.8-2.8,2.8c0,0-29.3,0.2-31.1,0.1c-1.6-0.1-3.7-2.6-10.4-3.3
		c-1.6-0.1-2.2,1.3-1.1,3.1l-8.4,0.2c-1.6,0-2.8-1.3-2.9-2.8l0,0c0-3.4-1.8-11.1,4.7-19.2c0.8,3,3.2,4.6,7,4.8
		c15.3,0.7,15.2-6.5,15.2-6.5s7.8,9.1,14,11.2C320.9,472.4,333.3,475.2,332.7,480.5z"/>
	<path class="st15" d="M245.6,256.4L245.6,256.4c-5.6,20.4-13,59.1-13,59.1c-36.2,7.6-74.3,0-74.3,0c-0.2-8.4,0.8-19.6,2-31.3
		c-5.9-1.6-10.2-7.1-10.4-16.2c-0.3-11,1.7-30.9,2.8-40.1c1-8.1,0.3-13,12.9-19.2c6.3-3.6,16.8-5.4,29.8-7.1
		c12.9-1.7,26.1-1.6,39,0.2c9.1,1.4,15.2,7.3,16.3,16C252.2,231,249.7,243.1,245.6,256.4z"/>
	<path class="st8" d="M245.6,256.4L245.6,256.4c-5.6,20.4-13,59.1-13,59.1c-36.2,7.6-74.3,0-74.3,0c-0.2-8.4,0.8-19.6,2-31.3
		c-5.9-1.6-10.2-7.1-10.4-16.2c-0.3-11,1.7-30.9,2.8-40.1c1-8.1,0.3-13,12.9-19.2c6.3-3.6,16.8-5.4,29.8-7.1
		c12.9-1.7,26.1-1.6,39,0.2c9.1,1.4,15.2,7.3,16.3,16C252.2,231,249.7,243.1,245.6,256.4z"/>
	<path class="st9" d="M156,271.4c3-9.9,8.1-12.4,12.1-12.6c0.4,0,0.6-0.3,0.6-0.7c0-0.2-0.1-0.4-0.3-0.5c-2.3-1.2-6.9-2.2-12.4,3.9"
		/>
	<path class="st2" d="M256.5,278.1c0,0,7.1,4.4,3.6,6.4c-2.3,1.3-6.4-3.8-9.5-4s1.6-3,1.6-3L256.5,278.1z"/>
	<path class="st2" d="M207.1,268.4c0.6-0.4,1.3-0.5,1.9-0.3c2.6,0.7,10.2,2.6,13.2,2.9c5.2,0.6,20.9-0.1,20.9-0.1
		c0.3,0,0.7,0.1,1,0.2l8.9,4.4c0.3,0.2,0.6,0.4,0.8,0.7c0,0,2.5,2.9,2.6,3.2l0.9,3.4c-0.3-1.3,0,0.2,0,0.3c0.1,0.6,0,1.1-0.1,1.7
		c-0.2,0.7-1,1.1-1.8,0.9c-0.2-0.1-0.3-0.1-0.4-0.2l0,0l-0.4-1.2c0.9,2.5,0.2,3-0.2,3.1c-1.1,0.4-2.3-0.1-2.8-1.2l0,0l-0.6-1.4
		c0,0-0.8,2.6-3.5,0c-0.4-0.4-1.1-2-2.3-3.6c0,0-1.7-2.2-2.9-2.7c-2.6-1.1-3.1-1.6-3.9-1.7c0,0,8.1,6.2,6.1,7.9s-7.9-5.1-10.2-4.9
		s-3.4,5.6-15.2,1.6c-0.5-0.2-1.1-0.3-1.6-0.2l-11.6,1.2c-1.4,0.1-2.7-0.9-2.8-2.3V280C202.9,276.6,203.1,270.9,207.1,268.4z"/>
	<path class="st8" d="M242.9,275.4l1.7,0.6c0.8,0.3,1.6,0.8,2.1,1.5l2.4,3.1c0.7,1.4,1.4,2.8,2,4.2"/>
	<path class="st8" d="M247,274.5c0,0,3.6,1.8,4.2,2.5l2.2,4.4c0.3,0.3,1.9,3.5,1.6,5.2"/>
	<path class="st8" d="M222.6,272.8c4.4-1.4,11.2-2.2,14.4-1.8"/>
	<path class="st8" d="M174.6,226.6c0.4,10-0.4,22.2-1.2,31c-0.1,1.3,0.7,2.5,2,2.9c4.9,1.4,17.3,4.8,27.4,6.2"/>
	<path class="st17" d="M207.1,267.4l-11.1-5c-2.3,5.3-3.2,11.1-2.7,16.8c0.9,9.5,15.2,2.1,15.2,2.1L207.1,267.4z"/>
	<polygon class="st17" points="326.6,170.2 335.3,180 329.9,196.5 316.6,177.9 	"/>
	<path class="st9" d="M174.1,219.6c0.1,1.1,0.3,2.4,0.4,3.6"/>
	<path class="st9" d="M170.3,209c1.3,1.1,2.2,3.2,2.9,5.9"/>
	<path class="st17" d="M196.5,226.9c0,0,3.9-5.4,10.3-0.2c3.2,2.7,6.3,5.5,9.1,8.6c0,0,7.4-9.2,10.1-10.4c5.6-2.5,6.8,1.8,6.8,1.8
		c-0.7-8.6-2.5-17-5.4-25.1c0,0-4.9-8.4-28.1-4.5c0,0-4.9,1-5.9,4.8C193.5,201.9,191.1,217.4,196.5,226.9z"/>
	<path class="st2" d="M226.9,202.3c0,0-0.7-2.3-4.5-3.5s-14.2-2-21,1.3s3.4,20,3.4,20l2.1,2.9c2.6,3.6,5.8,6.8,9.3,9.4l0,0l4.4-5.8
		c0,0,7.8-10.1,7.2-15.5S226.9,202.3,226.9,202.3z"/>
	<path class="st18" d="M202.4,197.6c-0.4,1,1.6,17.5,8.9,22.1s13.2-3.2,13.2-3.2s-11.8,8.3-22.5-17.8l-0.6,1.5"/>
	<path class="st19" d="M239.2,190.5c0,0,4.7-19.2-4.3-28.4s-18.8-11.1-26.2-6.6s-10.4,15.8-9.2,21.7s0.6,26.8,10.6,35.4
		s16.3,6.5,22.9-5.3C237.4,199.5,239.6,197.3,239.2,190.5z"/>
	<path class="st8" d="M239.2,190.5c0,0,4.7-19.2-4.3-28.4s-18.8-11.1-26.2-6.6s-10.4,15.8-9.2,21.7s0.6,26.8,10.6,35.4
		s16.3,6.5,22.9-5.3C237.4,199.5,239.6,197.3,239.2,190.5z"/>
	<path class="st2" d="M206.6,185.5c0,0-1.9-10.5-7.3-9.6s-1.5,16.5,4.8,14.8"/>
	<path class="st8" d="M227,208.1c0,0-6.6-0.4-9.3-5.2"/>
	<path class="st6" d="M235.5,189.9c-0.2,0.9,0,1.7,0.5,1.8s1-0.6,1.2-1.5s-0.1-1.7-0.5-1.8S235.7,189,235.5,189.9z"/>
	<path class="st6" d="M223.1,188.9c-0.2,0.9,0,1.7,0.5,1.8s1-0.6,1.2-1.5s-0.1-1.7-0.5-1.8S223.2,188,223.1,188.9z"/>
	<path class="st8" d="M234.6,186.5c-1.9,1.2-2.6,3.6-2.5,5.9c0.3,2.2,0.7,4.4,1.3,6.6c0.3,1.4,0.3,3.2-0.9,4c-1,0.6-2.3,0.6-3.3-0.1
		c-0.9-0.7-1.7-1.6-2.2-2.6"/>
	<path class="st11" d="M219.9,180.9c-1,0.1-2.3,0.5-2.3,1.2c0,0.5,0.8,0.9,1.5,1.1c0.8,0.1,1.6,0.1,2.5,0.1c2.4,0.1,4.5,1,6.8,1.3
		c3.7,0.5,3.8-1.5,1.2-2.5C226.5,180.9,223.2,180.4,219.9,180.9z"/>
	<path class="st11" d="M236.8,182.9c-1.1,0.1-1.9,0.5-1.9,1.1c0,0.5,0.7,0.9,1.5,1.1c0.9,0.1,1.7,0.3,2.5,0.7
		c1.5,0.7,1.9,0.2,1.3-2.5C240.1,182.7,238.9,182.7,236.8,182.9z"/>
	<path class="st6" d="M251.4,165.5c-0.3,2.3-2,4.1-4.3,4.5c2.1,2.2,1.9,5.7-0.3,7.7c-1.7,1.6-4.2,1.9-6.3,0.8
		c-2-1.6-4.9-0.2-7.4-0.3c-4.8-0.1-14.5-6.6-15.4-7c-1.5-0.8-2.8-1.9-3.9-3.1c-2.2-2.1-4.7-4-7.4-5.4l-0.8-0.4
		c0,0.8,0.2,1.5,0.4,2.2c0.9,0.4,1.8,1,2.7,1.6c5,3.5,7.5,9.5,6.6,15.5c-0.1,0.5-0.3,1.1-0.8,1.3c-0.9,0.3-1.4-0.9-2-1.6
		c-1.4-1.6-4.2-0.5-5,1.4s-0.4,3.7,0,5.6c-0.8-3.1-1.8-6.1-3.1-9c-0.8-1.6-2-3.5-3.8-3.5c-1.2,0.1-2.3,0.9-2.8,2
		c0,0.1-0.1,0.2-0.1,0.3c-0.4,1.1-0.5,2.2-0.3,3.3c0,0.3,0,0.5,0.1,0.8c0,0.7-0.1,1.2-0.1,1.6v0.4c-1.6-4.2-2.4-15.3-0.8-19.5
		c2.4-6.2,6.3-11.4,12.6-14.4c0.2-0.1,0.4-0.2,0.7-0.3c1-0.5,2.1-0.8,3.2-1c4.6-0.8,9.2,0.8,13.7,1.7c1.3,0.4,2.6,0.4,3.9,0.2
		c2.4-0.6,3.8-3.1,6-4.4c2.2-1.2,4.8-1.2,7.1-0.1c2.2,1.1,4.1,2.8,5.4,4.8c1.2,1.4,1.9,3.2,2,5c0.1,1.9-1.2,3.6-3.1,4
		C250.2,161.1,251.6,163.2,251.4,165.5z"/>
	<path class="st16" d="M237.7,154.1c0.6-0.1,1.2,0,1.8,0.2"/>
	<path class="st16" d="M219.8,157.4c3.2,3,8,3.3,11.6,0.9c1.3-0.9,2.3-2.1,3.6-3.1"/>
	<path class="st16" d="M241.5,162.3c0.8,0.1,1.5,0.4,2.1,0.8"/>
	<path class="st16" d="M226.5,162.9c2.1,2.1,5.6,1.5,8.5,0.5c1.4-0.5,2.9-0.9,4.4-1.2"/>
	<path class="st16" d="M230.8,167.5l5.4,0.8c1.5,0.1,2.9,0.6,4.2,1.3c1.3,0.8,2,2.3,1.6,3.8c-0.5,1.4-2.7,2-3.5,0.8"/>
	<path class="st16" d="M226.6,166.9l2.1,0.3"/>
</g>
<line class="st8" x1="337.4" y1="286.1" x2="345" y2="286.1"/>
<polygon class="st2" points="333.8,241.7 325.2,248.7 333.8,248.1 "/>
<path class="st2" d="M347,293.6h-13.2c-1,0-1.7-0.8-1.7-1.7l0,0v-4.6h16.7v4.6C348.7,292.8,348,293.6,347,293.6
	C347,293.6,347,293.6,347,293.6L347,293.6z"/>
<path class="st2" d="M348.8,287.3c0-2.4-3.7-4.3-8.4-4.3s-8.3,1.9-8.3,4.3H348.8z"/>
<path class="st2" d="M332.1,287.3c0-2.4,3.7-4.3,8.3-4.3v4.3H332.1z"/>
<polygon class="st20" points="220.1,292.6 245,292.6 245,286.6 220.1,289.2 "/>
<rect x="245" y="286.5" class="st21" width="55.4" height="6.1"/>
<path class="st21" d="M252.4,204.8h7l-7.2,68.3h-7c-1.4,0-2.6-1.1-2.6-2.5c0,0,0,0,0,0c0-0.1,0-0.3,0-0.4l6.6-62.4
	C249.4,206.1,250.8,204.8,252.4,204.8z"/>
<path class="st2" d="M248.5,273.1H337c1.7,0,3-1.3,3.2-2.9l6.6-62.4c0.2-1.4-0.8-2.7-2.2-2.9c0,0,0,0,0,0c-0.1,0-0.3,0-0.4,0h-88.5
	c-1.7,0-3,1.3-3.2,2.9l-6.5,62.4c-0.2,1.4,0.8,2.7,2.2,2.9C248.3,273.1,248.4,273.1,248.5,273.1z"/>
<line class="st8" x1="279.3" y1="210" x2="286.5" y2="210"/>
<path class="st8" d="M254.7,233.1l1.8-15c0.5-4.6,4.5-8.1,9.1-8.1h9.7"/>
<rect x="279.3" y="287.2" class="st20" width="44" height="7"/>
<path class="st11" d="M301.7,257.4c-0.4-3.3-2.8-5.9-6-6.7c0.5-0.2,1.1-0.2,1.6-0.2c3.9,0.1,7.2,3,7.7,6.9c0.4,3.4-1.9,6.4-5.3,6.9
	c-0.3,0-0.6,0-0.9,0c-0.6,0-1.1-0.1-1.7-0.2C300.1,263.3,302,260.5,301.7,257.4z"/>
<path class="st21" d="M285.9,245.5l4.4,41.7H287l-4.4-41.7c-0.1-0.9,0.5-1.7,1.4-1.8c0,0,0,0,0,0c0.1,0,0.2,0,0.3,0h3.3
	c-0.9,0-1.6,0.7-1.6,1.6C285.9,245.3,285.9,245.4,285.9,245.5z"/>
<path class="st2" d="M285.9,245.5l4.4,41.7H312l-4.4-41.7c-0.1-1-1-1.8-2-1.8h-18.1c-0.9,0-1.6,0.7-1.7,1.6
	C285.9,245.3,285.9,245.4,285.9,245.5z M297.3,250.5c3.9,0.1,7.2,3,7.7,6.9c0.4,3.4-1.9,6.4-5.3,6.9c-0.3,0-0.6,0-0.9,0
	c-3.9-0.1-7.2-3-7.7-6.9c-0.4-3.3,1.9-6.4,5.2-6.9c0,0,0,0,0,0C296.7,250.5,297.1,250.5,297.3,250.5L297.3,250.5z"/>
<rect x="186.6" y="304.6" class="st22" width="227.4" height="19.5"/>
<rect x="105.6" y="304.6" class="st23" width="80.9" height="19.5"/>
<rect x="196" y="293.6" class="st12" width="225.2" height="11"/>
<rect x="98.3" y="293.6" class="st24" width="97.7" height="11"/>
<g>
	<defs>
		<rect id="SVGID_1_" x="98.3" y="293.6" width="97.7" height="11"/>
	</defs>
	<clipPath id="SVGID_2_">
		<use xlink:href="#SVGID_1_"  style="overflow:visible;"/>
	</clipPath>
	<g class="st25">
		<rect x="98.3" y="293.6" class="st26" width="97.7" height="11"/>
	</g>
</g>
<rect x="98.3" y="293.6" class="st8" width="97.7" height="11"/>
<polygon class="st27" points="401.6,483.5 406.5,483.5 408.3,324 401.6,324 "/>
<polygon class="st10" points="396.7,483.5 401.6,483.5 401.6,324 394.9,324 "/>
<polygon class="st27" points="336.6,483.5 341.5,483.5 343.2,324 336.6,324 "/>
<polygon class="st10" points="331.6,483.5 336.6,483.5 336.6,324 329.9,324 "/>
<polygon class="st27" points="183,483.5 187.9,483.5 189.7,324 183,324 "/>
<polygon class="st10" points="178,483.5 183,483.5 183,324 176.3,324 "/>
<polygon class="st27" points="117.9,483.5 122.9,483.5 124.6,324 117.9,324 "/>
<polygon class="st10" points="113,483.5 117.9,483.5 117.9,324 111.3,324 "/>
<path class="st11" d="M211.8,262.4h4.2l3.1-17.9c0.2-1.1-0.6-2.2-1.7-2.4h-0.3l0,0c-1,0-1.9,0.7-2,1.7L211.8,262.4z"/>
<path class="st2" d="M199.5,262.4h4.4l-1.7-16.6c0-0.6-0.5-1-1.1-1h-2.2c-0.6,0-1.1,0.5-1.1,1c0,0,0,0,0,0v0.1L199.5,262.4z"/>
<polygon class="st28" points="207.2,262.4 210,262.4 211.8,242.7 209,242.7 "/>
<path class="st2" d="M214.9,293.9h-12.8c-2.2,0-4-1.8-4-4v-37.3H219v37.3C219,292.1,217.2,293.9,214.9,293.9L214.9,293.9z"/>
<path class="st8" d="M215.4,263.7v25c0,1.1-0.9,1.9-1.9,1.9h-7.4"/>
<line class="st8" x1="215.4" y1="257.6" x2="215.4" y2="260.5"/>
<g id="freepik--Lamp--inject-152">
	<g id="freepik--lamp--inject-152-2">
		<polyline class="st8" points="117.4,26.1 117.4,87.1 113.4,87.1 		"/>
		<line class="st8" x1="113.4" y1="87.1" x2="113.4" y2="26.1"/>
		<path class="st19" d="M113.4,84.7c-19.4,0-35.1,15.7-35.1,35.1h70.2C148.5,100.4,132.8,84.7,113.4,84.7z"/>
		<g>
			<defs>
				<path id="SVGID_3_" d="M113.4,84.7c-19.4,0-35.1,15.7-35.1,35.1h70.2C148.5,100.4,132.8,84.7,113.4,84.7z"/>
			</defs>
			<clipPath id="SVGID_4_">
				<use xlink:href="#SVGID_3_"  style="overflow:visible;"/>
			</clipPath>
			<g class="st29">
				<g class="st3">
					<path d="M106.9,85.3c1.1-0.2,2.2-0.3,3.2-0.4c18,1.7,31.8,16.8,31.8,34.9h-6.5C135.5,102.9,123.5,88.5,106.9,85.3z"/>
				</g>
			</g>
		</g>
		<path class="st8" d="M113.4,84.7c-19.4,0-35.1,15.7-35.1,35.1h70.2C148.5,100.4,132.8,84.7,113.4,84.7z"/>
	</g>
</g>
<path class="st30" d="M272.5,233.1c-0.7,0.3-1.5,0.4-2.3,0.4c-4.3,0-7.8-3.4-7.8-7.7c0-4.3,3.4-7.8,7.7-7.8c0.8,0,1.6,0.1,2.4,0.4
	v3.6c-0.7-0.4-1.5-0.6-2.3-0.6c-2.4,0-4.2,1.9-4.2,4.3c0,0,0,0.1,0,0.1c-0.1,2.4,1.8,4.4,4.2,4.4h0.1c0.8,0,1.6-0.2,2.3-0.6
	L272.5,233.1z"/>
<path class="st30" d="M273.8,233.3v-5.8c0-2.1,0.4-3,1.5-4.1c0.9-0.8,2-1.2,3.2-1.2c0.2,0,0.4,0,0.6,0v3.1h-0.5
	c-0.5,0-0.9,0.2-1.3,0.6c-0.4,0.4-0.5,1-0.5,1.6v5.8L273.8,233.3z"/>
<path class="st30" d="M292,233.3v-5.8c0-1,0-1.3-0.3-1.6c-0.5-0.6-1.4-0.7-2-0.3c-0.1,0.1-0.2,0.2-0.3,0.3c-0.3,0.5-0.4,1.1-0.4,1.6
	v5.8h-3.1v-5.8c0.1-0.6-0.1-1.1-0.4-1.6c-0.3-0.4-0.7-0.6-1.1-0.6c-0.5,0-0.9,0.2-1.1,0.6c-0.2,0.4-0.3,0.7-0.3,1.6v5.8h-3.1v-5.5
	c0-2.2,0.3-3.1,1.2-4.2c0.8-0.9,2.1-1.5,3.3-1.4c1.2,0,2.3,0.4,3.2,1.2c0.8-0.8,2-1.2,3.1-1.2c1.4,0,2.7,0.6,3.5,1.7
	c0.8,1,1,1.9,1,3.9v5.5L292,233.3z"/>
<path class="st31" d="M299.8,236.4c0,0.3-0.1,0.6-0.2,0.8c-0.2,0.5-0.7,0.7-1.2,0.7c-0.5,0-1-0.3-1.2-0.7c-0.1-0.3-0.2-0.5-0.2-0.8
	c0-0.3,0.1-0.6,0.2-0.8c0.1-0.2,0.3-0.4,0.5-0.5c0.2-0.1,0.4-0.2,0.7-0.2c0.5,0,1,0.3,1.2,0.7C299.8,235.9,299.8,236.1,299.8,236.4z
	 M299.4,236.4c0-0.2,0-0.4-0.1-0.6c-0.1-0.2-0.2-0.3-0.3-0.4c-0.1-0.1-0.3-0.1-0.5-0.1c-0.2,0-0.3,0-0.5,0.1
	c-0.1,0.1-0.3,0.2-0.3,0.4c-0.1,0.2-0.1,0.4-0.1,0.6c0,0.2,0,0.4,0.1,0.6c0.1,0.2,0.2,0.3,0.3,0.4c0.1,0.1,0.3,0.1,0.5,0.1
	c0.2,0,0.3,0,0.5-0.1c0.1-0.1,0.3-0.2,0.3-0.4C299.4,236.8,299.4,236.6,299.4,236.4L299.4,236.4z"/>
<path class="st31" d="M300.8,236.6v1.3h-0.4v-2.2h0.4v0.3l0,0c0-0.1,0.1-0.2,0.2-0.3c0.1-0.1,0.3-0.1,0.4-0.1c0.2,0,0.4,0.1,0.6,0.2
	c0.1,0.2,0.2,0.4,0.2,0.6v1.4h-0.4v-1.4c0-0.1,0-0.3-0.1-0.4c-0.1-0.1-0.2-0.1-0.4-0.1c-0.1,0-0.3,0-0.4,0.1
	C300.8,236.3,300.8,236.4,300.8,236.6z"/>
<path class="st31" d="M303.8,238c-0.2,0-0.4,0-0.6-0.1c-0.2-0.1-0.3-0.2-0.4-0.4c-0.1-0.2-0.1-0.4-0.1-0.6c0-0.2,0-0.4,0.1-0.6
	c0.1-0.2,0.2-0.3,0.4-0.4c0.2-0.1,0.4-0.2,0.5-0.1c0.2,0,0.3,0,0.5,0.1c0.2,0.1,0.3,0.2,0.4,0.4c0.1,0.2,0.2,0.4,0.1,0.7v0.2h-1.6
	c0,0.2,0,0.4,0.2,0.5c0.1,0.1,0.3,0.2,0.5,0.2c0.1,0,0.2,0,0.3-0.1c0.1-0.1,0.2-0.1,0.2-0.2l0.4,0.1c-0.1,0.2-0.2,0.3-0.3,0.4
	C304.2,238,304,238,303.8,238z M303.1,236.6h1.2c0-0.2,0-0.3-0.2-0.4c-0.1-0.1-0.2-0.2-0.4-0.2c-0.1,0-0.2,0-0.3,0.1
	c-0.1,0.1-0.2,0.1-0.2,0.2C303.2,236.4,303.2,236.5,303.1,236.6L303.1,236.6z"/>
<path class="st31" d="M308,235.7c0-0.1-0.1-0.2-0.2-0.3c-0.1-0.1-0.3-0.1-0.4-0.1c-0.2,0-0.3,0-0.4,0.1c-0.1,0.1-0.2,0.2-0.2,0.3
	c0,0.1,0,0.2,0.1,0.2c0.1,0.1,0.1,0.1,0.2,0.1l0.2,0.1l0.3,0.1l0.3,0.1c0.1,0,0.2,0.1,0.3,0.2c0.1,0.1,0.2,0.2,0.2,0.2
	c0.1,0.1,0.1,0.2,0.1,0.4c0,0.3-0.2,0.6-0.5,0.8c-0.2,0.1-0.4,0.1-0.6,0.1c-0.3,0-0.6-0.1-0.8-0.2c-0.2-0.2-0.3-0.4-0.3-0.6h0.5
	c0,0.1,0.1,0.3,0.2,0.4c0.1,0.1,0.3,0.1,0.5,0.1c0.2,0,0.3,0,0.5-0.1c0.1-0.1,0.2-0.2,0.2-0.4c0-0.1,0-0.2-0.1-0.2
	c-0.1-0.1-0.1-0.1-0.2-0.1l-0.3-0.1l-0.4-0.1c-0.2,0-0.4-0.1-0.6-0.3c-0.1-0.1-0.2-0.3-0.2-0.5c0-0.2,0-0.3,0.1-0.4
	c0.1-0.1,0.2-0.2,0.4-0.3c0.3-0.1,0.7-0.1,1.1,0c0.1,0.1,0.3,0.2,0.4,0.3c0.1,0.1,0.1,0.3,0.1,0.4L308,235.7z"/>
<path class="st31" d="M310,235.7v0.3h-0.5v1.2c0,0.1,0,0.2,0.1,0.2c0.1,0,0.1,0.1,0.2,0.1h0.1l0.1,0.4h-0.3c-0.1,0-0.2,0-0.3-0.1
	c-0.2-0.1-0.4-0.3-0.3-0.5V236h-0.3v-0.4h0.3v-0.5h0.4v0.5L310,235.7z"/>
<path class="st31" d="M311.5,238c-0.2,0-0.4,0-0.5-0.1c-0.2-0.1-0.3-0.2-0.4-0.4c-0.1-0.2-0.1-0.4-0.1-0.6c0-0.2,0-0.4,0.1-0.6
	c0.1-0.2,0.2-0.3,0.4-0.4c0.2-0.1,0.4-0.1,0.5-0.1c0.2,0,0.4,0,0.5,0.1c0.2,0.1,0.3,0.2,0.4,0.4c0.2,0.4,0.2,0.8,0,1.2
	c-0.1,0.2-0.2,0.3-0.4,0.4C311.8,238,311.7,238,311.5,238z M311.5,237.6c0.1,0,0.2,0,0.3-0.1c0.1-0.1,0.2-0.2,0.2-0.3
	c0.1-0.3,0.1-0.5,0-0.8c0-0.1-0.1-0.2-0.2-0.3c-0.2-0.2-0.5-0.2-0.7,0c-0.1,0.1-0.2,0.2-0.2,0.3c-0.1,0.1-0.1,0.3-0.1,0.4
	c0,0.1,0,0.3,0.1,0.4c0,0.1,0.1,0.2,0.2,0.3C311.2,237.6,311.3,237.6,311.5,237.6L311.5,237.6z"/>
<path class="st31" d="M313,238.8v-3.1h0.4v0.3l0,0c0-0.1,0.1-0.1,0.1-0.2c0.1-0.1,0.1-0.1,0.2-0.2c0.1-0.1,0.2-0.1,0.3-0.1
	c0.2,0,0.3,0,0.5,0.1c0.1,0.1,0.3,0.2,0.3,0.4c0.1,0.2,0.1,0.4,0.1,0.6c0,0.2,0,0.4-0.1,0.6c-0.1,0.2-0.2,0.3-0.3,0.4
	c-0.1,0.1-0.3,0.1-0.5,0.1c-0.1,0-0.2,0-0.3-0.1c-0.1,0-0.2-0.1-0.2-0.2c0-0.1-0.1-0.1-0.1-0.2l0,0v1.2L313,238.8z M313.4,236.8
	c0,0.2,0,0.4,0.2,0.6c0.1,0.1,0.3,0.2,0.4,0.2c0.1,0,0.2,0,0.3-0.1c0.1-0.1,0.2-0.2,0.2-0.3c0-0.1,0.1-0.3,0.1-0.4
	c0-0.1,0-0.3-0.1-0.4c0-0.1-0.1-0.2-0.2-0.3c-0.1-0.1-0.2-0.1-0.3-0.1c-0.2,0-0.3,0.1-0.4,0.2C313.5,236.4,313.4,236.6,313.4,236.8
	L313.4,236.8z"/>
<path class="st31" d="M318.3,235.7c0-0.1-0.1-0.3-0.2-0.3c-0.1-0.1-0.3-0.1-0.4-0.1c-0.2,0-0.3,0-0.4,0.1c-0.1,0.1-0.2,0.2-0.2,0.3
	c0,0.1,0,0.2,0.1,0.2c0.1,0.1,0.1,0.1,0.2,0.1l0.2,0.1l0.3,0.1l0.3,0.1c0.1,0,0.2,0.1,0.3,0.2c0.1,0.1,0.2,0.1,0.2,0.2
	c0.1,0.1,0.1,0.2,0.1,0.4c0,0.2,0,0.3-0.1,0.4c-0.1,0.1-0.2,0.2-0.4,0.3c-0.5,0.2-1,0.1-1.4-0.1c-0.2-0.2-0.3-0.4-0.3-0.6h0.5
	c0,0.1,0.1,0.3,0.2,0.4c0.1,0.1,0.3,0.1,0.5,0.1c0.2,0,0.3,0,0.5-0.1c0.1-0.1,0.2-0.2,0.2-0.4c0-0.1,0-0.2-0.1-0.2
	c-0.1-0.1-0.1-0.1-0.2-0.1l-0.3-0.1l-0.4-0.1c-0.2,0-0.4-0.1-0.6-0.3c-0.1-0.1-0.2-0.3-0.2-0.5c0-0.2,0-0.3,0.1-0.4
	c0.1-0.1,0.2-0.2,0.4-0.3c0.2-0.1,0.4-0.1,0.5-0.1c0.2,0,0.4,0,0.5,0.1c0.1,0.1,0.3,0.2,0.4,0.3c0.1,0.1,0.1,0.3,0.1,0.4
	L318.3,235.7z"/>
<path class="st31" d="M320.2,238c-0.2,0-0.4,0-0.5-0.1c-0.2-0.1-0.3-0.2-0.4-0.4c-0.1-0.2-0.1-0.4-0.1-0.6c0-0.2,0-0.4,0.1-0.6
	c0.1-0.2,0.2-0.3,0.4-0.4c0.2-0.1,0.4-0.1,0.5-0.1c0.2,0,0.4,0,0.6,0.1c0.2,0.1,0.3,0.2,0.4,0.4c0.2,0.4,0.2,0.8,0,1.2
	c-0.1,0.2-0.2,0.3-0.4,0.4C320.6,238,320.4,238,320.2,238z M320.2,237.6c0.1,0,0.2,0,0.3-0.1c0.1-0.1,0.2-0.2,0.2-0.3
	c0-0.1,0.1-0.3,0.1-0.4c0-0.1,0-0.3-0.1-0.4c0-0.1-0.1-0.2-0.2-0.3c-0.1-0.1-0.2-0.1-0.3-0.1c-0.1,0-0.2,0-0.3,0.1
	c-0.1,0.1-0.2,0.2-0.2,0.3c0,0.1-0.1,0.3-0.1,0.4c0,0.1,0,0.3,0.1,0.4c0,0.1,0.1,0.2,0.2,0.3C320,237.6,320.1,237.6,320.2,237.6
	L320.2,237.6z"/>
<path class="st31" d="M322.2,234.9v3h-0.5v-3H322.2z"/>
<path class="st31" d="M324.2,237v-1.3h0.4v2.2h-0.4v-0.4l0,0c-0.1,0.3-0.4,0.4-0.7,0.4c-0.2,0-0.4-0.1-0.5-0.2
	c-0.1-0.2-0.2-0.4-0.2-0.6v-1.4h0.4v1.4c0,0.1,0,0.3,0.1,0.4c0.1,0.1,0.2,0.1,0.3,0.1c0.1,0,0.2,0,0.2-0.1c0.1,0,0.2-0.1,0.2-0.2
	C324.2,237.2,324.2,237.1,324.2,237z"/>
<path class="st31" d="M326.3,235.7v0.3h-0.5v1.2c0,0.1,0,0.2,0.1,0.2c0.1,0,0.1,0.1,0.2,0.1h0.1l0.1,0.4h-0.3c-0.1,0-0.2,0-0.3-0.1
	c-0.2-0.1-0.3-0.3-0.3-0.5V236h-0.3v-0.4h0.3v-0.5h0.4v0.5L326.3,235.7z"/>
<path class="st31" d="M327,235.3c-0.1,0-0.1,0-0.2-0.1c-0.1,0-0.1-0.1-0.1-0.2c0-0.1,0-0.1,0.1-0.2c0.1,0,0.1-0.1,0.2-0.1
	c0.1,0,0.1,0,0.2,0.1c0,0.1,0.1,0.1,0.1,0.2c0,0.1,0,0.1-0.1,0.2C327.1,235.3,327.1,235.3,327,235.3z M326.8,237.9v-2.2h0.4v2.2
	H326.8z"/>
<path class="st31" d="M328.8,238c-0.2,0-0.4,0-0.5-0.1c-0.2-0.1-0.3-0.2-0.4-0.4c-0.1-0.2-0.1-0.4-0.1-0.6c0-0.2,0-0.4,0.1-0.6
	c0.1-0.2,0.2-0.3,0.4-0.4c0.2-0.1,0.4-0.1,0.5-0.1c0.2,0,0.4,0,0.5,0.1c0.2,0.1,0.3,0.2,0.4,0.4c0.2,0.4,0.2,0.8,0,1.2
	c-0.1,0.2-0.2,0.3-0.4,0.4C329.1,238,329,238,328.8,238z M328.8,237.6c0.1,0,0.2,0,0.3-0.1c0.1-0.1,0.2-0.2,0.2-0.3
	c0-0.1,0.1-0.3,0.1-0.4c0-0.1,0-0.3-0.1-0.4c0-0.1-0.1-0.2-0.2-0.3c-0.2-0.2-0.5-0.2-0.7,0c-0.1,0.1-0.2,0.2-0.2,0.3
	c-0.1,0.1-0.1,0.3-0.1,0.4c0,0.1,0,0.3,0.1,0.4c0,0.1,0.1,0.2,0.2,0.3C328.5,237.6,328.6,237.6,328.8,237.6L328.8,237.6z"/>
<path class="st31" d="M330.8,236.6v1.3h-0.4v-2.2h0.4v0.3l0,0c0-0.1,0.1-0.2,0.2-0.3c0.1-0.1,0.3-0.1,0.4-0.1c0.2,0,0.4,0.1,0.5,0.2
	c0.1,0.2,0.2,0.4,0.2,0.6v1.4h-0.4v-1.4c0-0.1,0-0.3-0.1-0.4c-0.1-0.1-0.2-0.1-0.4-0.1c-0.1,0-0.3,0-0.4,0.1
	C330.8,236.3,330.7,236.4,330.8,236.6z"/>
<path class="st31" d="M334.4,236.2l-0.4,0.1c0-0.1-0.1-0.1-0.1-0.2c-0.1-0.1-0.2-0.1-0.3-0.1c-0.1,0-0.2,0-0.3,0.1
	c-0.1,0-0.1,0.1-0.1,0.2c0,0.1,0,0.1,0.1,0.2c0.1,0.1,0.2,0.1,0.3,0.1l0.4,0.1c0.4,0.1,0.6,0.3,0.6,0.6c0,0.1,0,0.3-0.1,0.4
	c-0.1,0.1-0.2,0.2-0.3,0.2c-0.2,0.1-0.3,0.1-0.5,0.1c-0.2,0-0.4,0-0.6-0.2c-0.2-0.1-0.3-0.3-0.3-0.5l0.4-0.1c0,0.2,0.3,0.4,0.5,0.3
	c0.1,0,0.2,0,0.4-0.1c0.1-0.1,0.1-0.1,0.1-0.2c0-0.1-0.1-0.2-0.3-0.3l-0.4-0.1c-0.2,0-0.3-0.1-0.5-0.2c-0.1-0.1-0.2-0.3-0.1-0.4
	c0-0.1,0-0.2,0.1-0.3c0.1-0.1,0.2-0.2,0.3-0.2c0.1-0.1,0.3-0.1,0.5-0.1c0.2,0,0.4,0,0.6,0.2C334.3,235.9,334.4,236.1,334.4,236.2z"
	/>
<path class="st30" d="M313.5,227.6c-0.1-1.4,0.4-2.9,1.4-3.9c1.9-1.9,4.9-1.9,6.8-0.1c0,0,0,0,0,0c0.1,0.1,0.2,0.2,0.3,0.3
	c0.8,1,1.2,2.3,1.1,3.6v5.8H320v-6c0-1.2-0.6-2-1.7-2s-1.7,0.7-1.7,2v6h-3.1L313.5,227.6z"/>
<path class="st30" d="M329.5,230.4c0.2,0,0.4,0,0.5,0c1.2,0,2.4-0.4,3.5-1l0.8,3.1c-1.2,0.6-2.6,1-4,1c-3.2,0.1-5.9-2.4-6-5.6v-0.2
	c0-3.1,2.5-5.6,5.6-5.6c1.1,0,2.3,0.4,3.2,1c0.8,0.5,1.4,1.2,1.8,2L329.5,230.4z M331,225.7c-0.3-0.2-0.7-0.3-1.1-0.3
	c-1.3,0-2.4,1.1-2.4,2.5c0,0.4,0.1,0.7,0.2,1.1L331,225.7z"/>
<polygon class="st32" points="315.3,221.3 313.7,224.4 313.5,224.1 313.3,223.8 313.3,223.8 313.3,223.8 313.2,223.7 313.2,223.7 
	312.5,222.8 312.5,222.6 312.5,222.6 312.4,222.6 312.4,222.5 312.3,222.4 312,221.9 "/>
<path class="st30" d="M312.3,224.8c-0.9,0.7-2,1.5-2.9,2.1c-0.6,2.2-2.5,3.7-4.8,3.7c-0.4,0-0.7,0-1.1-0.1c-0.4,0.2-0.8,0.4-1.2,0.5
	c-0.8,0.4-1.7,0.6-2.5,0.8c1.4,1.1,3.1,1.6,4.8,1.6c4.3,0,7.8-3.4,7.9-7.7v-0.1C312.3,225.3,312.2,225,312.3,224.8z"/>
<path class="st33" d="M311.9,222.9c-0.8,0.6-1.6,1.2-2.5,1.7c0-2.8-2.3-5-5.1-4.9c-2.8,0-5,2.3-4.9,5.1l0,0
	c-0.2,1.8,0.7,3.6,2.1,4.7l0,0c-0.7,0.3-1.4,0.5-2.1,0.7h-0.5c-0.5,0-1-0.3-1.2-0.8c-0.3-0.5-0.5-1.1-0.8-1.6
	c-0.3-0.8-0.4-1.6-0.4-2.4v-0.1c0.1-4.4,3.8-7.8,8.1-7.7C307.9,217.5,310.8,219.7,311.9,222.9L311.9,222.9z"/>
<path class="st32" d="M313.5,223.8l-1.2,0.8l-2.9,2.1c-0.7,0.5-1.5,1-2.3,1.5c-1.2,0.8-2.4,1.5-3.6,2.1c-0.4,0.2-0.8,0.4-1.2,0.5
	c-0.8,0.4-1.7,0.6-2.5,0.8h-0.5c-0.9,0-1.8-0.3-2.5-0.9c-0.8-0.7-1.2-1.7-1.2-2.8c0.1-0.9,0.5-1.8,1.1-2.5c0,0.8,0.1,1.5,0.4,2.3
	c0,0.1,0,0.1,0.1,0.3c0,0.6,0.2,1.2,0.7,1.6l0.1,0.1c0.1,0,0.1,0.1,0.3,0.1c0.4,0.2,0.9,0.3,1.3,0.3c0.8-0.1,1.5-0.3,2.1-0.7h0.1
	c0.6-0.3,1.2-0.6,1.7-0.9c0.1-0.1,0.3-0.1,0.4-0.3c0.7-0.4,1.2-0.7,1.7-1.1c0.1-0.1,0.3-0.1,0.4-0.3c0.1,0,0.1-0.1,0.1-0.1
	c0,0,0,0,0,0l0,0c0.5-0.4,1.1-0.7,1.6-1.1s1.1-0.7,1.6-1.1h0.1c0.8-0.5,1.6-1.2,2.4-1.7c0,0,0.1,0,0.1-0.1c0.1-0.2,0.3-0.3,0.5-0.4
	L313.5,223.8z"/>
<path class="st33" d="M307.9,222.1v3.6c-0.5,0.4-1.1,0.7-1.6,1.1c-0.1,0-0.1,0.1-0.1,0.1c0,0,0,0,0,0l0,0v-3.7
	c0-0.1,0.1-0.3,0.3-0.4C306.9,222.6,307.4,222.3,307.9,222.1L307.9,222.1z"/>
<path class="st32" d="M305.8,223.4v3.9c-0.5,0.4-1.1,0.8-1.7,1.1v-3.9c0-0.1,0.1-0.3,0.3-0.4C304.7,223.8,305.2,223.5,305.8,223.4
	C305.6,223.3,305.8,223.3,305.8,223.4z"/>
<path class="st30" d="M303.5,224.6v3.9c-0.5,0.3-1.2,0.7-1.7,0.9v-3.7c0-0.1,0.1-0.3,0.3-0.4C302.4,225.1,302.8,224.9,303.5,224.6
	L303.5,224.6z"/>
<line class="st8" x1="193.2" y1="280.6" x2="160.3" y2="284.3"/>
</svg>
