<svg id="Layer_1" data-name="Layer 1" xmlns="http://www.w3.org/2000/svg" viewBox="0 0 512 512"><g id="freepik--Floor--inject-26"><path d="M6,453.69c160.16-.72,339.83-.72,500,0C345.83,454.45,166.16,454.45,6,453.69Z" fill="#273339"/></g><rect x="146.66" y="461.67" width="133.11" height="3.96" fill="#263238"/><path d="M120.9,169c-.94,54.27-81.65,54.25-82.58,0C39.27,114.73,120,114.74,120.9,169Z" fill="#f1efef"/><path d="M82.6,260c74.72-47.25,174.65,33,137,116.4-21.46,48.82-75.66,54.55-80.65,55C39.66,442.93-4.36,314.66,82.6,260Z" fill="#f1efef"/><path d="M205,109.19c155.19-129.37,377.56,93.86,213.1,253.88-12.88,15.22-54.3,42.16-82,22.47-24.44-19.18,3.41-67.23-23.82-104-22.87-34.8-63.42-18.29-99-46.74C178.62,201.63,173.14,154.18,205,109.19Z" fill="#f1efef"/><rect x="239.76" y="263.9" width="67.33" height="67.33" rx="6.28" fill="#fff" stroke="#263238" stroke-miterlimit="10" stroke-width="1.03"/><rect x="246.88" y="270.42" width="44.79" height="3.47" fill="#92e3a9"/><rect x="246.88" y="276.13" width="25.88" height="3.47" fill="#92e3a9"/><rect x="246.88" y="281.85" width="15.07" height="3.47" fill="#92e3a9"/><rect x="246.88" y="287.56" width="24.8" height="3.47" fill="#92e3a9"/><rect x="246.88" y="293.27" width="38.67" height="3.47" fill="#92e3a9"/><rect x="246.88" y="298.98" width="25.88" height="3.47" fill="#92e3a9"/><rect x="246.88" y="304.69" width="18.05" height="3.47" fill="#92e3a9"/><rect x="246.88" y="310.41" width="29.23" height="3.47" fill="#92e3a9"/><rect x="246.88" y="316.11" width="35.44" height="3.47" fill="#92e3a9"/><rect x="246.88" y="321.83" width="44.79" height="3.47" fill="#92e3a9"/><rect x="246.88" y="270.42" width="44.79" height="3.47" fill="#f27366"/><rect x="246.88" y="276.13" width="25.88" height="3.47" fill="#2ba5dd"/><rect x="246.88" y="281.85" width="15.07" height="3.47" fill="#162143"/><rect x="246.88" y="287.56" width="24.8" height="3.47" fill="#f27366"/><rect x="246.88" y="293.27" width="38.67" height="3.47" fill="#2ba5dd"/><rect x="246.88" y="298.98" width="25.88" height="3.47" fill="#162143"/><rect x="246.88" y="304.69" width="18.05" height="3.47" fill="#f27366"/><rect x="246.88" y="310.41" width="29.23" height="3.47" fill="#2ba5dd"/><rect x="246.88" y="316.11" width="35.44" height="3.47" fill="#162143"/><rect x="246.88" y="321.83" width="44.79" height="3.47" fill="#f27366"/><path d="M275.72,258H292a3,3,0,0,1,3,3h0v2.95H272.75V261a3,3,0,0,1,3-3Z" fill="#fff" stroke="#263238" stroke-miterlimit="10" stroke-width="1.03"/><path d="M264.7,258h16.11a3.06,3.06,0,0,1,3.06,3.07v2.85H261.62v-2.85a3.06,3.06,0,0,1,3.07-3.07Z" fill="#f27366" stroke="#142230" stroke-miterlimit="10"/><path d="M252.31,258h16.5a2.86,2.86,0,0,1,2.88,2.85v3H249.45v-3A2.87,2.87,0,0,1,252.31,258Z" fill="#fff" stroke="#263238" stroke-miterlimit="10" stroke-width="1.03"/><g id="freepik--Coffee--inject-189--inject-39"><path d="M365.33,435.86s5.38-4.4,7.95.41c2.21,4.17-3.09,8.83-9.13,8.83v3.52s13,.34,13.9-10.57-12.78-7.9-12.78-7.9Z" fill="#2fa5dd" stroke="#142230" stroke-miterlimit="10"/><polygon points="364.88 453.61 338.93 453.61 335.04 421.03 368.78 421.03 364.88 453.61" fill="#fff" stroke="#263238" stroke-linecap="round" stroke-linejoin="round" stroke-width="0.5"/><rect x="333.32" y="419.47" width="37.18" height="3.73" rx="1.78" fill="#2fa5dd" stroke="#142230" stroke-miterlimit="10"/></g><path d="M347.5,415.92s11.93-7.16,8-15.38-17.07-13.62-17.07-26.42c0-11,11.71-15.09,19.36-19.47" fill="none" stroke="#263238" stroke-linecap="round" stroke-linejoin="round" stroke-width="1.03"/><path d="M351.42,362.43a14.28,14.28,0,0,0-3.82,19.83l0,.05" fill="none" stroke="#263238" stroke-linecap="round" stroke-linejoin="round" stroke-width="1.03"/><path d="M357.92,394.9a21.56,21.56,0,0,1,1.86,14.92" fill="none" stroke="#263238" stroke-linecap="round" stroke-linejoin="round" stroke-width="1.03"/><path d="M155.93,449.48a46.09,46.09,0,0,1-18.08,4.17c-9.62,0-29.2-19.89-29.2-19.89s-.71-2.14.82-10.15,15.91-81.5,15.91-81.5,1.69-17.1,11.41-27.6,28.8-14.24,28.8-14.24,42.2-18.37,65.86-12.7c23.64,9.39,49.47,18.93,58.09,26.32s29.81,66.75,37.16,97.24c0,0-16.18,34.36-31.26,44S244,461.65,244,461.65Z" fill="#eef9fe" stroke="#142230" stroke-miterlimit="10"/><path d="M275.77,459.66l10.47-148.8s-50.7-23.64-64-25.89-77.7,23.14-77.7,23.14L154,450.81" fill="none" stroke="#263238" stroke-linecap="round" stroke-linejoin="round" stroke-width="1.03"/><path d="M215.29,302.24s-3.21,16.19-5.21,16.59-9.93-7.16-16.85-16.59-5.86-9.44-5.86-9.44,3.21-12.38,5.86-14.19S205.39,277,205.39,277l20.86-.79s7-1,11.25,1.78,6.39,14.78,6.39,14.78-12.52,23.07-22.73,26A154.05,154.05,0,0,1,215.29,302.24Z" fill="#2fa5dd" stroke="#142230" stroke-miterlimit="10"/><path d="M184.38,212.35l-5.2,25s-6.67-4.71-8.09.62,2.92,12.65,11.3,13c0,0,2.28,11.31,9.74,19a137.75,137.75,0,0,0,11.12,10.63s2.94,19,12.52,19.68,11.44-7.9,13.38-19.89c0,0,8.27-14.35,10.69-22.11,0,0,10.15-7.08,3.38-17.41,0,0,3.35-24.71-2.48-28.88S194.55,209.93,184.38,212.35Z" fill="#fff" stroke="#263238" stroke-linecap="round" stroke-linejoin="round" stroke-width="0.5"/><line x1="146.92" y1="423.78" x2="149.69" y2="384.95" fill="none" stroke="#263238" stroke-miterlimit="10" stroke-width="1.03"/><path d="M201.53,279.39s3.4,20.4,15.42,21c9.73.5,11.65-16.37,12-22.4" fill="none" stroke="#263238" stroke-linecap="round" stroke-linejoin="round" stroke-width="1.03"/><path d="M180.82,239.58s-5.3-6.33-8.88-3.24S173.73,253,182.39,251" fill="none" stroke="#263238" stroke-linecap="round" stroke-linejoin="round" stroke-width="1.03"/><path d="M215.68,300.25s-3.33,18.18-5.56,18.58-19.34-15.11-22.71-26c0,0,3.62-14.27,7-14.78,1.57-.25,3.38-.49,4.81-.67" fill="none" stroke="#263238" stroke-linecap="round" stroke-linejoin="round" stroke-width="1.03"/><path d="M215.68,300.25s3.23,18.18,5.48,18.58,19.36-15.11,22.73-26c0,0-4.09-14.17-7.19-15.37a38,38,0,0,0-6.09-1.72" fill="none" stroke="#263238" stroke-linecap="round" stroke-linejoin="round" stroke-width="1.03"/><path d="M184,255.54c2.2,3.81,4.93-9.6,3.77-13.9-.78-2.78-2.29-5.48-2.43-8.35C185.23,230,186.76,227,188,224s1.82-6.68,0-9.4a42.48,42.48,0,0,0,21.44,7.69,13.56,13.56,0,0,0,5.87-.47,5.77,5.77,0,0,0,3.81-4.18c7.23.92,14.39,1.87,21.59.88,6.05-.82,15.45-2.35,18.55-8.52,4.55-9-7.16-18.37-14.07-21.53-16.69-7.63-39.24-8.93-54.32,3.06a53.55,53.55,0,0,1-4.85,3.75c-3.32,2.09-10.89,3.7-13.54,6.61-3.56,3.91.9,34.08.9,34.08s5.81-2.69,8.2,6.3C183.21,248.29,181.81,251.71,184,255.54Z" fill="#263238"/><path d="M238.71,216.52a7.53,7.53,0,0,0-.19,1.14,31,31,0,0,0,1.21,10.14c.37,1.48.92,2.91,1.15,4.41.56,3.57.56,7,3.2,9.93,0,0,5.06-17.7,3-30.36-.24-1.39-.7-5.14-2.94-4.46-1.64.5-2.78,3.31-3.5,4.67A23.54,23.54,0,0,0,238.71,216.52Z" fill="#263238"/><path d="M168.85,199.84a17.17,17.17,0,0,1,15.53-2.09,54.39,54.39,0,0,1,16.45-18.08" fill="none" stroke="#263238" stroke-linecap="round" stroke-linejoin="round" stroke-width="1.03"/><path d="M190.6,195.58s27.25,19.39,43.76,14.59,11.89-19,11.89-19" fill="none" stroke="#fff" stroke-linecap="round" stroke-linejoin="round" stroke-width="1.03" opacity="0.47" style="isolation:isolate"/><path d="M193.23,192.33s34.22,15.73,40-6.54" fill="none" stroke="#fff" stroke-linecap="round" stroke-linejoin="round" stroke-width="1.03" opacity="0.47" style="isolation:isolate"/><path d="M201.53,279.39S208,292,213.14,291.83,227.6,278,227.6,278s-5,6.5-12.71,7.17C209.84,285.64,201.53,279.39,201.53,279.39Z" fill="#263238"/><path d="M147.21,418.55A29.48,29.48,0,0,1,143.5,422a31.18,31.18,0,0,0-7.92,12.62,10.42,10.42,0,0,0,0,6.84c1.69,4.18,7,8.35,11.3,5.68" fill="none" stroke="#263238" stroke-linecap="round" stroke-linejoin="round" stroke-width="1.03"/><path d="M146.88,411.21c-4.08-.64-8.08,1.72-10.86,4.74s-4.72,6.75-7.25,10" fill="none" stroke="#263238" stroke-linecap="round" stroke-linejoin="round" stroke-width="1.03"/><path d="M146.56,453a27.49,27.49,0,0,1-16.12-1.72,45.53,45.53,0,0,1-8.93-6.29l-10.57-8.73c-1.69-1.39-3.57-3.41-2.88-5.49,0,0,17.67-93.07,20.43-103.14,3.22-11.61,16.15-19.47,16.15-19.47" fill="none" stroke="#263238" stroke-linecap="round" stroke-linejoin="round" stroke-width="1.03"/><path d="M279.07,419.55a29.91,29.91,0,0,1,10,13.39,73.89,73.89,0,0,1,3.16,15.2c-2.78,1.53-8.34,5.57-13.18,5.57" fill="none" stroke="#263238" stroke-linecap="round" stroke-linejoin="round" stroke-width="1.03"/><path d="M279.67,411.81c4.28-1.14,8.52,1.78,11.76,4.81s6.56,6.55,11,7" fill="none" stroke="#263238" stroke-linecap="round" stroke-linejoin="round" stroke-width="1.03"/><path d="M280.49,460.17c8.34-.87,15.85-5.42,21.86-11.22s10.62-12.84,15.2-19.8c3.71-5.65,7.48-11.45,9.1-18,0,0-14.64-48.4-22.77-70.92-8.49-23.4-17.64-29.38-17.64-29.38" fill="none" stroke="#263238" stroke-linecap="round" stroke-linejoin="round" stroke-width="1.03"/><path d="M279.67,411.81c7.55-6.34,19.13-1.21,27.25,3" fill="none" stroke="#263238" stroke-linecap="round" stroke-linejoin="round" stroke-width="1.03"/><rect x="147.21" y="385.9" width="131.84" height="75.77" fill="#fff"/><polygon points="146.56 461.67 279.07 385.9 279.67 461.67 146.56 461.67" fill="#263238"/><polygon points="146.56 461.67 279.07 385.9 279.67 461.67 146.56 461.67" fill="#fff" opacity="0.9" style="isolation:isolate"/><circle cx="214.91" cy="422.55" r="11.24" fill="#f27366" stroke="#142230" stroke-miterlimit="10"/><rect x="147.21" y="385.9" width="131.84" height="75.77" fill="none" stroke="#263238" stroke-linecap="round" stroke-linejoin="round" stroke-width="1.03"/><path d="M180.21,231.9s2.89,26.43,6.56,31.2,15.47,22,28.32,21.76,21.23-16.79,23.33-23.86a122.45,122.45,0,0,0,4.71-27.52" fill="none" stroke="#263238" stroke-linecap="round" stroke-linejoin="round" stroke-width="1.03"/><path d="M239.76,258.24s9.52-4.92,3.37-17.41" fill="none" stroke="#263238" stroke-linecap="round" stroke-linejoin="round" stroke-width="1.03"/><g id="Group_1383" data-name="Group 1383"><path id="Path_1216" data-name="Path 1216" d="M366.42,216.64c-.94,0-1.89,0-2.92,0v-41l0-.14a2.76,2.76,0,0,0-2.35-3.1q-13.11-4.4-26.24-8.73h0a1.06,1.06,0,0,1-.86-1.24c0-2.32,0-4.64,0-6.95a2.63,2.63,0,0,0-2-2.93q-19.2-7.2-38.42-14.4c-2.24-.84-3.75.24-3.75,2.67v75.83h-2.26a2.55,2.55,0,0,0-2.75,1.94,2.5,2.5,0,0,0,1.64,2.85c.05,0,.07.08.1.12h80.12l1.8-1.8v-1.31A2.74,2.74,0,0,0,366.42,216.64Zm-56.94-.09h-4.82v-9.71h4.82Zm5,0v-9.71h4.81v9.71Zm14.65,0h-4.88V204.79a2.62,2.62,0,0,0,0-.79,2.54,2.54,0,0,0-2.91-2.11H302.6a2.68,2.68,0,0,0-.8,0,2.53,2.53,0,0,0-2.09,2.91v11.75h-4.86V143.8l34.26,12.85Zm14.8,0v-9.71h4.81v9.71Zm14.66,0h-4.9V204.72a2.58,2.58,0,0,0,0-.68,2.51,2.51,0,0,0-2.85-2.13h-9.07a2.5,2.5,0,0,0-2.81,2.82v11.83h-4.86v-48l2.92,1q10.39,3.48,20.83,6.93c.5.16.74.34.74,1Z" fill="#162143"/><path d="M357.83,176.42Q347.41,173,337,169.49l-2.92-1v48h4.86V204.73a2.5,2.5,0,0,1,2.81-2.82h9.07a2.51,2.51,0,0,1,2.85,2.13,2.58,2.58,0,0,1,0,.68v11.87h4.9V177.37C358.57,176.76,358.33,176.58,357.83,176.42ZM351.19,197h-9.52a2.48,2.48,0,0,1-2.7-2.23,1.34,1.34,0,0,1,0-.2,2.48,2.48,0,0,1,2.46-2.48H351a2.46,2.46,0,0,1,2.62,2.29v.14A2.46,2.46,0,0,1,351.19,197Zm0-9.81H351c-1.58,0-3.16,0-4.74,0h-4.58a2.48,2.48,0,0,1-2.69-2.24,1.41,1.41,0,0,1,0-.21,2.48,2.48,0,0,1,2.48-2.47H351a2.48,2.48,0,0,1,2.69,2.25,1.21,1.21,0,0,0,0,.19A2.48,2.48,0,0,1,351.19,187.18Z" fill="#fff"/><path d="M294.85,143.8v72.76h4.86V204.81a2.53,2.53,0,0,1,2.09-2.91,2.68,2.68,0,0,1,.8,0h18.72a2.54,2.54,0,0,1,2.91,2.11,2.62,2.62,0,0,1,0,.79v11.77h4.88V156.65Zm4.86,40.89a2.44,2.44,0,0,1,2.45-2.43h0c1.63,0,3.27,0,4.9,0a2.43,2.43,0,0,1,2.43,2.44v0a2.45,2.45,0,0,1-2.46,2.43h0c-.81,0-1.63,0-2.45,0h-2.37a2.45,2.45,0,0,1-2.51-2.38Zm0-9.78v0a2.45,2.45,0,0,1,2.47-2.42c.8,0,1.62,0,2.44,0s1.63,0,2.45,0a2.45,2.45,0,0,1,2.42,2.47,2.41,2.41,0,0,1-2.37,2.41c-1.66,0-3.32,0-5,0A2.42,2.42,0,0,1,299.73,174.91Zm9.79,19.61A2.44,2.44,0,0,1,307.1,197h0c-.84,0-1.69,0-2.53,0h-2.37a2.44,2.44,0,0,1-2.46-2.43v0a2.42,2.42,0,0,1,2.41-2.43h0c1.63,0,3.27,0,4.9,0a2.44,2.44,0,0,1,2.47,2.4Zm-2.47-27h0c-.79,0-1.58,0-2.38,0h-2.45a2.45,2.45,0,0,1-2.49-2.4v-.08a2.43,2.43,0,0,1,2.47-2.41h0c1.6,0,3.21,0,4.82,0a2.43,2.43,0,0,1,2.49,2.39.22.22,0,0,1,0,.08A2.45,2.45,0,0,1,307.05,167.55ZM321.75,197h-4.81a2.45,2.45,0,0,1-2.51-2.39v-.08a2.43,2.43,0,0,1,2.45-2.42h0c1.61,0,3.22,0,4.82,0a2.44,2.44,0,0,1,2.51,2.38v.08A2.45,2.45,0,0,1,321.75,197Zm.08-9.82h0c-1.63,0-3.27,0-4.9,0a2.43,2.43,0,0,1-2.46-2.41v0a2.44,2.44,0,0,1,2.44-2.45c.28,0,.56,0,.84,0l1.69,0h2.37a2.45,2.45,0,0,1,.06,4.89Zm-.09-9.8h-4.8a2.44,2.44,0,0,1-2.51-2.38v-.09a2.44,2.44,0,0,1,2.46-2.42h0c1.6,0,3.21,0,4.82,0a2.44,2.44,0,0,1,2.51,2.38v.08A2.46,2.46,0,0,1,321.74,177.37Zm2.49-12.3a2.45,2.45,0,0,1-2.41,2.48h-.08c-.82,0-1.64,0-2.45,0h-2.37a2.45,2.45,0,0,1-.08-4.89h.09c1.61,0,3.22,0,4.82,0a2.45,2.45,0,0,1,2.48,2.41Z" fill="#fff"/><path id="Path_1217" data-name="Path 1217" d="M309.49,206.84v9.72h-4.83v-9.72Z" fill="#f27366"/><path id="Path_1218" data-name="Path 1218" d="M319.27,216.58h-4.8v-9.71h4.8Z" fill="#f27366"/><path id="Path_1219" data-name="Path 1219" d="M343.92,206.84h4.8v9.71h-4.8Z" fill="#f27366"/><path d="M309.52,165.13a2.45,2.45,0,0,1-2.47,2.42h0c-.79,0-1.58,0-2.38,0h-2.45a2.45,2.45,0,0,1-2.49-2.4v-.08a2.43,2.43,0,0,1,2.47-2.41h0c1.6,0,3.21,0,4.82,0a2.43,2.43,0,0,1,2.49,2.39A.22.22,0,0,1,309.52,165.13Z" fill="#2ba5dd"/><path d="M324.23,165.07h0a2.45,2.45,0,0,1-2.41,2.48h-.08c-.82,0-1.64,0-2.45,0h-2.37a2.45,2.45,0,0,1-.08-4.89h.09c1.61,0,3.22,0,4.82,0A2.45,2.45,0,0,1,324.23,165.07Z" fill="#2ba5dd"/><path d="M309.51,174.93a2.41,2.41,0,0,1-2.37,2.41c-1.66,0-3.32,0-5,0a2.42,2.42,0,0,1-2.42-2.43v0a2.45,2.45,0,0,1,2.47-2.42c.8,0,1.62,0,2.44,0s1.63,0,2.45,0A2.45,2.45,0,0,1,309.51,174.93Z" fill="#2ba5dd"/><path d="M324.23,174.94a2.46,2.46,0,0,1-2.49,2.43h-4.8a2.44,2.44,0,0,1-2.51-2.38v-.09a2.44,2.44,0,0,1,2.46-2.42h0c1.6,0,3.21,0,4.82,0a2.44,2.44,0,0,1,2.51,2.38Z" fill="#2ba5dd"/><path d="M309.51,184.7v0a2.45,2.45,0,0,1-2.46,2.43h0c-.81,0-1.63,0-2.45,0h-2.37a2.45,2.45,0,0,1-2.51-2.38v-.08a2.44,2.44,0,0,1,2.45-2.43h0c1.63,0,3.27,0,4.9,0A2.43,2.43,0,0,1,309.51,184.7Z" fill="#2ba5dd"/><path d="M324.23,184.71a2.43,2.43,0,0,1-2.4,2.46h0c-1.63,0-3.27,0-4.9,0a2.43,2.43,0,0,1-2.46-2.41v0a2.44,2.44,0,0,1,2.44-2.45c.28,0,.56,0,.84,0l1.69,0h2.37A2.45,2.45,0,0,1,324.23,184.71Z" fill="#2ba5dd"/><path d="M309.52,194.5v0A2.44,2.44,0,0,1,307.1,197h0c-.84,0-1.69,0-2.53,0h-2.37a2.44,2.44,0,0,1-2.46-2.43v0a2.42,2.42,0,0,1,2.41-2.43h0c1.63,0,3.27,0,4.9,0A2.44,2.44,0,0,1,309.52,194.5Z" fill="#2ba5dd"/><path d="M324.23,194.56a2.45,2.45,0,0,1-2.48,2.43h-4.81a2.45,2.45,0,0,1-2.51-2.39v-.08a2.43,2.43,0,0,1,2.45-2.42h0c1.61,0,3.22,0,4.82,0a2.44,2.44,0,0,1,2.51,2.38Z" fill="#2ba5dd"/><path d="M353.67,184.71a2.48,2.48,0,0,1-2.48,2.47H351c-1.58,0-3.16,0-4.74,0h-4.58a2.48,2.48,0,0,1-2.69-2.24,1.41,1.41,0,0,1,0-.21,2.48,2.48,0,0,1,2.48-2.47H351a2.48,2.48,0,0,1,2.69,2.25A1.21,1.21,0,0,0,353.67,184.71Z" fill="#2ba5dd"/><path d="M353.66,194.52a2.46,2.46,0,0,1-2.47,2.47h-9.52a2.48,2.48,0,0,1-2.7-2.23,1.34,1.34,0,0,1,0-.2,2.48,2.48,0,0,1,2.46-2.48H351a2.46,2.46,0,0,1,2.62,2.29Z" fill="#2ba5dd"/></g></svg>