<svg id="Layer_1" data-name="Layer 1" xmlns="http://www.w3.org/2000/svg" viewBox="0 0 512 512"><circle cx="256" cy="256" r="250" fill="#f1f3f4"/><path d="M182.85,126.48a53.35,53.35,0,0,0-32.94,35.73,7.41,7.41,0,0,1-14.17-4.36,67.87,67.87,0,0,1,41.65-45.14,7.41,7.41,0,1,1,5.46,13.77Z" fill="#1d1d1e"/><path d="M371.36,167.13a7.42,7.42,0,0,1-9.27-4.9,53.44,53.44,0,0,0-32.94-35.75,7.41,7.41,0,1,1,5.46-13.77,68,68,0,0,1,41.65,45.16A7.41,7.41,0,0,1,371.36,167.13Z" fill="#1d1d1e"/><path d="M291,345.08a5.46,5.46,0,0,1-.16,1,35.12,35.12,0,0,1-4.08,11.12,35.62,35.62,0,0,1-7.89,9.35,34.61,34.61,0,0,1-10.64,6.2,36.71,36.71,0,0,1-24.42,0,34.24,34.24,0,0,1-10.62-6.2,35.56,35.56,0,0,1-7.89-9.35,35,35,0,0,1-4.13-11.49,3.76,3.76,0,0,1,3-4.36l.66-.06h62.36A3.78,3.78,0,0,1,291,345.08Z" fill="#e0dce9" stroke="#1d1d1e" stroke-miterlimit="10" stroke-width="5"/><rect x="292.97" y="366.51" width="8.67" height="31.37" rx="4.33" transform="translate(-183.18 322.17) rotate(-45)" fill="#1d1d1e"/><rect x="210.37" y="366.51" width="8.67" height="31.37" rx="4.33" transform="translate(96.26 804.27) rotate(-135)" fill="#1d1d1e"/><rect x="251.67" y="382.2" width="8.67" height="31.37" rx="4.33" fill="#1d1d1e"/><rect x="135.47" y="320.77" width="239.88" height="7.13" fill="#1d1d1e"/><path d="M373.08,318.51,138,318.65A20.18,20.18,0,0,1,141.29,307c3.31-4.76,6-3.28,12.9-10.08a118.92,118.92,0,0,0,9-10.17,1.7,1.7,0,0,1,.23-.3,73.27,73.27,0,0,0,6-10.4,64.88,64.88,0,0,0,4-11.09c0-.09,0-.17.06-.23a88.72,88.72,0,0,0,2.18-11.69,103.88,103.88,0,0,0,.77-12.76V211A78.22,78.22,0,0,1,177.66,197a74.2,74.2,0,0,1,3.72-13.38,84.49,84.49,0,0,1,5.83-12.26,78.93,78.93,0,0,1,17.18-20.64,80.21,80.21,0,0,1,23.29-13.86c.73-.28,1.47-.54,2.22-.8q-.12-1.28-.12-2.58a25.84,25.84,0,1,1,51.68,0q0,1.11-.09,2.19c1,.4,2.09.84,3.4,1.36A83.63,83.63,0,0,1,297,143c.15.1.32.18.46.29a81.32,81.32,0,0,1,10.42,7.58,79.06,79.06,0,0,1,17,20.58,86.79,86.79,0,0,1,5.78,12.17A77.4,77.4,0,0,1,334.38,197a80.21,80.21,0,0,1,1.22,14v15.23c0,4.86,0,9.61.09,14.25v0a107.54,107.54,0,0,0,.81,12.64,101.82,101.82,0,0,0,2.24,12.09,64.27,64.27,0,0,0,3.95,11.05A72.13,72.13,0,0,0,348.9,287h0a64.66,64.66,0,0,0,9,10.11c5.71,5.23,10.15,5.49,13,10.1C373.33,311,373.43,315.31,373.08,318.51Z" fill="#e0dce9" stroke="#1d1d1e" stroke-miterlimit="10" stroke-width="5"/><circle cx="255.61" cy="131.14" r="8.67" fill="#111212"/><circle cx="255.61" cy="236.85" r="53.96" fill="#1d1d1e"/><path d="M255.61,265.16a23.55,23.55,0,0,1-12.8-3.42,22.1,22.1,0,0,1-8.32-9.8,41.63,41.63,0,0,1,0-30.61,21.29,21.29,0,0,1,8.28-9.53,26.65,26.65,0,0,1,25.6,0,21.47,21.47,0,0,1,8.31,9.55,35.67,35.67,0,0,1,2.9,15.22A36.88,36.88,0,0,1,276.7,252a21.93,21.93,0,0,1-8.3,9.79A23.47,23.47,0,0,1,255.61,265.16Zm0-12q3.83,0,6.29-4t2.43-12.58q0-8.39-2.46-12.27t-6.26-3.88q-3.83,0-6.24,3.88t-2.47,12.27q0,8.58,2.43,12.58T255.61,253.16Z" fill="#e0dce9"/></svg>