<svg id="Layer_1" data-name="Layer 1" xmlns="http://www.w3.org/2000/svg" xmlns:xlink="http://www.w3.org/1999/xlink" viewBox="0 0 449.4 383.1"><defs><clipPath id="clip-path"><path d="M66.8,323v19.9a4.3,4.3,0,0,0,2.3,3.8l32,16.5a4.4,4.4,0,0,0,3.7.1l47.1-18a4.3,4.3,0,0,0,2.5-3.8V317.4l-53.9,16.3Z" fill="none"/></clipPath><clipPath id="clip-path-2"><path d="M116,289.5,64.4,306.1A1.8,1.8,0,0,0,63,308v14.7a1.9,1.9,0,0,0,1.1,1.8l36,17.1a2.2,2.2,0,0,0,1.6.1l54-20.2a2.1,2.1,0,0,0,1.3-1.9V305.8a1.9,1.9,0,0,0-1.6-2L117,289.4Z" fill="none"/></clipPath><clipPath id="clip-path-3"><path d="M76.6,222.5s-2.1,12.1-.6,18a24.6,24.6,0,0,0,4.1,9.2s-7.4,10.9-5.9,20.1,5.3,10.3,5.3,10.3-3.2,16.9,2.7,22.8,18.9,12.4,33.4,9.8,24.2-3.3,27.2-8.3,1.2-27.2,1.2-27.2-.6-24.6-1.2-39.7-2.6-27.2-9.8-33.1-38.4,3.3-47.9,9.5S76.6,222.5,76.6,222.5Z" fill="none"/></clipPath><clipPath id="clip-path-4"><path d="M138.4,208s-5.6-8.6-13.3-13.3-27.5-8.3-35.5-9.8S73,184,70.7,192.8s-2.1,23.7.3,30.2,12.1,10.4,19.8,5.9,29-21.6,36.4-22.5S137.8,211.2,138.4,208Z" fill="none"/></clipPath><clipPath id="clip-path-5"><path d="M126,208c6.5-2.4,14.8-.9,17.7,7.4s5.7,32.5,5.7,32.5,7.3.9,10.3,4.1,4.4,11.6,3.9,15.7-11,11.9-22.8,12.2-20.4-5.3-24.6-20.5-2.5-38.1-2.5-38.1,1.5-6.7,3.8-8.2" fill="none"/></clipPath></defs><path d="M113,89.3c-.8,45.7-68.8,45.7-69.6-.1C44.2,43.5,112.2,43.5,113,89.3Z" fill="#f1efef"/><path d="M80.7,166c63-39.9,147.3,27.8,115.5,98.1-18,41.2-63.7,46-68,46.4C44.5,320.2,7.4,212.1,80.7,166Z" fill="#f1efef"/><path d="M204.9,24c128.6-74.7,290,101,158.7,228.9-10.9,12.8-45.8,35.5-69.2,18.9-20.6-16.1,2.9-56.6-20.1-87.7-19.3-29.3-53.5-15.4-83.5-39.4-18.8-18-27.4-41.1-23.9-65.4S184.6,35.8,204.9,24Z" fill="#f1efef"/><g id="freepik--Floor--inject-26"><path d="M16.5,335.3c135.1-.6,286.6-.6,421.6,0C303.1,335.9,151.6,335.9,16.5,335.3Z" fill="#273339"/></g><g id="freepik--Hole--inject-74"><ellipse cx="314.3" cy="333.4" rx="72.2" ry="21.4" fill="#192245"/><path d="M314.3,321.8c34.1,0,62.7,7,70.2,16.5a8.2,8.2,0,0,0,2-4.9c0-11.8-32.4-21.4-72.2-21.4s-72.2,9.6-72.2,21.4a7.5,7.5,0,0,0,1.9,4.9C251.5,328.9,280.1,321.8,314.3,321.8Z" fill="#fff" stroke="#263238" stroke-linecap="round" stroke-linejoin="round" stroke-width="1.19"/><path d="M304.4,352.1c-24.1-1.1-42.3-6-42.3-12a3,3,0,0,1,.6-1.8" fill="none" stroke="#fff" stroke-linecap="round" stroke-linejoin="round" stroke-width="1.19"/><path d="M360.4,334.3c4.1,1.7,6.5,3.7,6.5,5.9,0,6.7-23.5,12.2-52.4,12.2h-1.3" fill="none" stroke="#fff" stroke-linecap="round" stroke-linejoin="round" stroke-width="1.19"/><path d="M269.1,334.1c9.1-3.7,26-6.1,45.4-6.1a180,180,0,0,1,32.8,2.7" fill="none" stroke="#fff" stroke-linecap="round" stroke-linejoin="round" stroke-width="1.19"/><path d="M303.7,344.4c-6.1-.9-10.2-2.4-10.2-4.2s9.4-4.9,21-4.9,21,2.2,21,4.9-6.9,4.2-16.2,4.7" fill="none" stroke="#fff" stroke-linecap="round" stroke-linejoin="round" stroke-width="1.19"/></g><g id="freepik--Character--inject-74"><path d="M134.2,243.3l-.9-.3a1.9,1.9,0,0,1-.6-2.3c.5-.8,109.6-119.8,159.5-163.5a1,1,0,0,1,1.2.1.9.9,0,0,1-.1,1.3h0c-49.6,43.4-157.2,163-157.6,163.8A1.9,1.9,0,0,1,134.2,243.3Z" fill="#263238"/><path d="M140.3,219.6s5.4-5.8,8.6-5.8,9.4,5.4,9,8.3-5.7.4-5.7.4-5.1,6.8-10.1,5.7S140.3,219.6,140.3,219.6Z" fill="#fdefef" stroke="#263238" stroke-miterlimit="10" stroke-width="0.75"/><path d="M152.2,222.4s3.3,2.3,3.6,4-3.7,6.1-8.1,7.2-6.7-1.5-5.4-3.9S148.9,222.7,152.2,222.4Z" fill="#fdefef" stroke="#263238" stroke-miterlimit="10" stroke-width="0.75"/><path d="M288.1,201.5V82.1s-2.4,8.7-2.4,9.3" fill="none" stroke="#263238" stroke-linecap="round" stroke-linejoin="round" stroke-width="1.19"/><rect x="246.4" y="207.8" width="91.6" height="73.37" fill="#fff" stroke="#263238" stroke-miterlimit="10"/><path d="M289.4,207.5v-4.2a.9.9,0,0,0-.8-1h-.2a1,1,0,0,0-1.1.9h0v4.2Z" fill="#263238"/><path d="M297.8,197.3v.2a1,1,0,0,0-.8-.5,1,1,0,0,0-1.1.9h0v11.2a3.2,3.2,0,0,1-3.1,3.3h-.1a2.8,2.8,0,0,1-1.3-.3,1.8,1.8,0,0,0,.2,2.3h1.1a5.5,5.5,0,0,0,5.3-5.4V204h2.4Z" fill="#263238"/><path d="M288.2,81s1.9-6.7.2-6S288.2,81,288.2,81Z" fill="none" stroke="#263238" stroke-linecap="round" stroke-linejoin="round" stroke-width="1.19"/><path d="M288.2,81s-7-2.5-6.4-.2S288.2,81,288.2,81Z" fill="none" stroke="#263238" stroke-linecap="round" stroke-linejoin="round" stroke-width="1.19"/><path d="M135.9,138.9s-8.7-4.9-25.8-2.4S89.8,153,92.6,167.7s18.9,27,21.4,26-.7-33.9,4.9-40.1,23.7-5.3,24.7-10.1S135.9,138.9,135.9,138.9Z" fill="#192245" stroke="#263238" stroke-miterlimit="10"/><path d="M105.6,147.6l1.7,11.6s-10.9,29.8-9.1,34,18.3,5.6,18.3,5.6,26.9,3.3,34.9,0,3.9-12.7,3-15.4-5.9-23.9-5.9-23.9,1.7-5.1,1.7-7.7-.3-10.1-1.5-11.9-21.9-3.8-31-2.3S104.4,141.4,105.6,147.6Z" fill="#192245" stroke="#263238" stroke-miterlimit="10"/><path d="M110.3,160.9s-.3,25.8,1.2,30.8,7.4,10.9,19.8,9.5,13.6-13.4,13.6-13.4l-.9-27.5Z" fill="#fff" stroke="#263238" stroke-linecap="round" stroke-linejoin="round" stroke-width="1.19"/><path d="M148.2,329.6q3.5-2.1,7.2-3.9l.7-.3c2.3-.8,8.8-.4,14.8-4.2s3.1-8.3-1.5-9.5l-9.5-2.6-1.1-17.8s-13.7,3.7-18.2,5.6-1.9,28.9-1.5,31.2S139.4,331.9,148.2,329.6Z" fill="#192245"/><path d="M163.4,321.2c-8,1.5-8,3.1-16.8,4.6a32.9,32.9,0,0,1-7.7.6,9.9,9.9,0,0,0,.2,1.7c.3,2.2.3,3.8,9.1,1.5q3.5-2.1,7.2-3.9l.7-.3c2.3-.8,8.8-.4,14.8-4.2,2-1.2,3-2.5,3.3-3.7A46,46,0,0,1,163.4,321.2Z" fill="#fff" stroke="#263238" stroke-linecap="round" stroke-linejoin="round" stroke-width="1.19"/><path d="M166.5,311.5s-.3,20.7-.9,25.1.3,10.1,7.1,10.1,20.1-4.4,24.8-5.3,12.5-3,15.7-10.3-16.5-6.6-16.5-6.6l1.1-15S177.5,313.6,166.5,311.5Z" fill="#192245"/><path d="M213.3,331a3.6,3.6,0,0,0,.2-2.3,17.9,17.9,0,0,1-7.9,6.2c-7.1,2.9-20.5,6.2-30.5,7.7-4.6.7-7.5-.1-9.4-1.1.7,2.9,2.6,5.2,7,5.2,6.8,0,20.1-4.4,24.9-5.3S210,338.4,213.3,331Z" fill="#fff" stroke="#263238" stroke-linecap="round" stroke-linejoin="round" stroke-width="1.19"/><path d="M196.7,324.5s1.5,5.1-2.7,8.3" fill="none" stroke="#fff" stroke-linecap="round" stroke-linejoin="round" stroke-width="1.19"/><path d="M164.4,300.6s-.4,9,.1,10.8c1.9,6.8,2.5,5.2,16.7,4.9s19.9-6,21.4-9.5,0-11.3-.6-13.9-5.3-3.6-7.1-3.3S165.3,297.6,164.4,300.6Z" fill="#192245"/><path d="M66.8,323v19.9a4.3,4.3,0,0,0,2.3,3.8l32,16.5a4.4,4.4,0,0,0,3.7.1l47.1-18a4.3,4.3,0,0,0,2.5-3.8V317.4l-53.9,16.3Z" fill="#fdefef"/><g clip-path="url(#clip-path)"><path d="M102.9,333l-2.4.7L66.8,323v19.9a4.3,4.3,0,0,0,2.3,3.8l32,16.5a6.1,6.1,0,0,0,1.8.5Z" opacity="0.18" style="isolation:isolate"/></g><path d="M66.8,323v19.9a4.3,4.3,0,0,0,2.3,3.8l32,16.5a4.4,4.4,0,0,0,3.7.1l47.1-18a4.3,4.3,0,0,0,2.5-3.8V317.4l-53.9,16.3Z" fill="none" stroke="#263238" stroke-linecap="round" stroke-linejoin="round" stroke-width="1.19"/><path d="M116,289.5,64.4,306.1A1.8,1.8,0,0,0,63,308v14.7a1.9,1.9,0,0,0,1.1,1.8l36,17.1a2.2,2.2,0,0,0,1.6.1l54-20.2a2.1,2.1,0,0,0,1.3-1.9V305.8a1.9,1.9,0,0,0-1.6-2L117,289.4Z" fill="#fff"/><g clip-path="url(#clip-path-2)"><path d="M100.1,341.6h0a2,2,0,0,0,1.5.1l54.1-20.2a2.1,2.1,0,0,0,1.3-1.9V305.8a2,2,0,0,0-.4-1.3l-55.9,20.6Z" fill="#92e3a9"/><path d="M100.1,341.6h0a2,2,0,0,0,1.5.1l54.1-20.2a2.1,2.1,0,0,0,1.3-1.9V305.8a2,2,0,0,0-.4-1.3l-55.9,20.6Z" fill="#fff"/><path d="M63,307.9v14.8a1.8,1.8,0,0,0,1.1,1.7l36,17.2.8.2V325.1L63,307.6Z" fill="#fdefef"/></g><path d="M116,289.5,64.4,306.1A1.8,1.8,0,0,0,63,308v14.7a1.9,1.9,0,0,0,1.1,1.8l36,17.1a2.2,2.2,0,0,0,1.6.1l54-20.2a2.1,2.1,0,0,0,1.3-1.9V305.8a1.9,1.9,0,0,0-1.6-2L117,289.4Z" fill="none" stroke="#263238" stroke-linecap="round" stroke-linejoin="round" stroke-width="1.19"/><path d="M186.9,262.4s6.8,3.3,10.4,9.8.9,18.9-1.2,22.7-16,5.7-20.7,5.7-5.6-.6-5.6-.6l-24.6,4.7c-9.5,1.8-7.1-20.4-4.1-30.5s19.5-15.1,26.3-15.1S186.9,262.4,186.9,262.4Z" fill="#192245"/><path d="M169.8,300s12.7-4.4,18-15.7" fill="none" stroke="#fff" stroke-linecap="round" stroke-linejoin="round" stroke-width="1.19"/><path d="M181.9,293.5a35.6,35.6,0,0,0,10.9-7.4" fill="none" stroke="#fff" stroke-linecap="round" stroke-linejoin="round" stroke-width="1.19"/><path d="M152,272.2s3.5,18.6,1.8,26.3-12.1,8.9-14.5,8-1.2-19.2-1.2-28.4S147.3,269.5,152,272.2Z" fill="#192245"/><path d="M76.6,222.5s-2.1,12.1-.6,18a24.6,24.6,0,0,0,4.1,9.2s-7.4,10.9-5.9,20.1,5.3,10.3,5.3,10.3-3.2,16.9,2.7,22.8,18.9,12.4,33.4,9.8,24.2-3.3,27.2-8.3,1.2-27.2,1.2-27.2-.6-24.6-1.2-39.7-2.6-27.2-9.8-33.1-38.4,3.3-47.9,9.5S76.6,222.5,76.6,222.5Z" fill="#fff"/><g clip-path="url(#clip-path-3)"><path d="M78.7,222.5s-2.1,12.1-.6,18a28.2,28.2,0,0,0,4.1,9.2s-7.4,10.9-5.9,20.1,5.3,10.3,5.3,10.3-3.2,16.9,2.7,22.8,18.9,12.4,33.5,9.8,24.2-3.3,27.2-8.3,1.2-27.2,1.2-27.2-.6-24.6-1.2-39.7-2.7-27.2-9.8-33.1-38.4,3.3-47.9,9.5S78.7,222.5,78.7,222.5Z" fill="#f4bab2" opacity="0.3" style="isolation:isolate"/></g><path d="M76.6,222.5s-2.1,12.1-.6,18a24.6,24.6,0,0,0,4.1,9.2s-7.4,10.9-5.9,20.1,5.3,10.3,5.3,10.3-3.2,16.9,2.7,22.8,18.9,12.4,33.4,9.8,24.2-3.3,27.2-8.3,1.2-27.2,1.2-27.2-.6-24.6-1.2-39.7-2.6-27.2-9.8-33.1-38.4,3.3-47.9,9.5S76.6,222.5,76.6,222.5Z" fill="none" stroke="#263238" stroke-linecap="round" stroke-linejoin="round" stroke-width="1.19"/><path d="M80.1,249.7a36.3,36.3,0,0,0,31.7,4.4" fill="none" stroke="#263238" stroke-linecap="round" stroke-linejoin="round" stroke-width="1.19"/><path d="M79.5,280.1s15.1,14.8,40,.6" fill="none" stroke="#263238" stroke-linecap="round" stroke-linejoin="round" stroke-width="1.19"/><path d="M138.4,208s-5.6-8.6-13.3-13.3-27.5-8.3-35.5-9.8S73,184,70.7,192.8s-2.1,23.7.3,30.2,12.1,10.4,19.8,5.9,29-21.6,36.4-22.5S137.8,211.2,138.4,208Z" fill="#f4bab2"/><g clip-path="url(#clip-path-4)"><path d="M122,206.3c4.5-1.8-6.8,1.5-7.5.4s7.9-6.8,9.7-7.5-10.9,1.9-10.5,0,12.4-2.3,4.2-4.1-35.4-6.8-40.6-8.7a2.7,2.7,0,0,1-1.2-.6,10.3,10.3,0,0,0-5.4,7.1c-2.4,8.9-2.1,23.7.3,30.2s9.7,9.3,16.7,7.2c3.3-2.6,6.3-6.1,11.4-9.3C109.2,214.6,117.5,208.2,122,206.3Z" opacity="0.3" style="isolation:isolate"/></g><path d="M138.4,208s-5.6-8.6-13.3-13.3-27.5-8.3-35.5-9.8S73,184,70.7,192.8s-2.1,23.7.3,30.2,12.1,10.4,19.8,5.9,29-21.6,36.4-22.5S137.8,211.2,138.4,208Z" fill="none" stroke="#263238" stroke-linecap="round" stroke-linejoin="round" stroke-width="1.19"/><path d="M170.4,248.2a60.7,60.7,0,0,1,11.2,2.6c4.4,1.8,7.4,12.8,5.6,14.2s-5.3-.2-5.3-.2a51.1,51.1,0,0,1-8.6,2C169.8,267.1,165.9,250.3,170.4,248.2Z" fill="#fdefef" stroke="#263238" stroke-miterlimit="10" stroke-width="0.75"/><path d="M147.9,247.3s1.2,0,7.7-2.9,11.8-3,15.9,3.5,6,14.5,3.6,19.2-11.3,8-16,8-5.3-6.2-5.3-6.2-.6-9.7-3.5-13.3S146.7,248.2,147.9,247.3Z" fill="#192245"/><path d="M126,208c6.5-2.4,14.8-.9,17.7,7.4s5.7,32.5,5.7,32.5,7.3.9,10.3,4.1,4.4,11.6,3.9,15.7-11,11.9-22.8,12.2-20.4-5.3-24.6-20.5-2.5-38.1-2.5-38.1,1.5-6.7,3.8-8.2" fill="#fff"/><g clip-path="url(#clip-path-5)"><path d="M163.6,267.7c.5-4.1-.9-12.4-3.9-15.7l-.4-.3a72,72,0,0,1,.7,8c.6,17.3-23.7,14.4-28.6,1.9-2.7-6.8-3.4-36.5-11.3-38.8-4.5-1.3-6.1,2.3-6.6,5.6-.1,8.5.1,21.6,2.7,31,4.2,15.1,12.7,20.7,24.6,20.5S163,271.9,163.6,267.7Z" fill="#f4bab2" opacity="0.3" style="isolation:isolate"/></g><path d="M126,208c6.5-2.4,14.8-.9,17.7,7.4s5.7,32.5,5.7,32.5,7.3.9,10.3,4.1,4.4,11.6,3.9,15.7-11,11.9-22.8,12.2-20.4-5.3-24.6-20.5-2.5-38.1-2.5-38.1,1.5-6.7,3.8-8.2" fill="none" stroke="#263238" stroke-linecap="round" stroke-linejoin="round" stroke-width="1.19"/><path d="M149.4,247.9s2.3,10.8-9.6,16.7" fill="none" stroke="#263238" stroke-linecap="round" stroke-linejoin="round" stroke-width="1.19"/></g><path d="M264.7,246.1c.1,0,.1-.1.1-.2a2,2,0,0,1,2.1-1.3l3.6.2a2.1,2.1,0,0,1,1.9,2,2.4,2.4,0,0,1-1.7,2.5,26.9,26.9,0,0,1-4,.3,2.4,2.4,0,0,1-2-1.6Z" fill="#f27366"/><path d="M312.7,267.8l-11.8.8c-4.3.1-8.6.2-12.8.1s-8.4-.2-12.5-.5h-.2l-2.8-.3a4.5,4.5,0,0,1-3.7-5l.3-1c1.4-3.3,2.9-6.5,4.4-9.6a163.4,163.4,0,0,1,15.7-25.2,4.5,4.5,0,0,1,4.3-1.7,4.2,4.2,0,0,1,2.7,1.6,144,144,0,0,1,9.9,14.6,150.5,150.5,0,0,1,10.2,20,4.4,4.4,0,0,1-2.2,5.8A4.2,4.2,0,0,1,312.7,267.8Z" fill="#f27366"/><path d="M321,247.1c0,1.8-.9,2.6-2.7,2.5l-3.2-.3a2,2,0,0,1-1.8-2.3v-.2a2,2,0,0,1,2-2l3.1-.2a2.2,2.2,0,0,1,2.6,1.5A1.7,1.7,0,0,1,321,247.1Z" fill="#f27366"/><path d="M301.9,227.4a1.2,1.2,0,0,1,.2-1l1.5-3a2.2,2.2,0,0,1,2.8-1.1l.3.2a2.8,2.8,0,0,1,1.5,1.5,1.9,1.9,0,0,1-.2,1.8l-2,3a2,2,0,0,1-2.4.8A2.3,2.3,0,0,1,301.9,227.4Z" fill="#f27366"/><path d="M317.7,234.4a1.7,1.7,0,0,1-1.1,1.8l-3.3,1.6a2.1,2.1,0,0,1-2.8-1h0a2.2,2.2,0,0,1,.6-3l2.9-1.9a2,2,0,0,1,2.8.4v.2h.1A4.4,4.4,0,0,1,317.7,234.4Z" fill="#f27366"/><path d="M283.8,227.4a2.3,2.3,0,0,1-1.7,2.2,1.9,1.9,0,0,1-2.3-.7c-.8-1.1-1.5-2.2-2.2-3.3a1.9,1.9,0,0,1-.1-1.8,3.2,3.2,0,0,1,3.1-1.6,1.9,1.9,0,0,1,1.4,1.1,31.8,31.8,0,0,1,1.6,3.2A1.5,1.5,0,0,1,283.8,227.4Z" fill="#f27366"/><path d="M275.5,235.7a2.3,2.3,0,0,1-2.2,2.4l-1.2-.3-2.9-1.5a2,2,0,0,1-1.1-2.7v-.3l.4-.6a2.2,2.2,0,0,1,2.8-1l.3.2,2.8,1.9A2.3,2.3,0,0,1,275.5,235.7Z" fill="#f27366"/><path d="M281.6,258.6V245.8c0-.1.1-.2.1-.3a4,4,0,0,1,4-3.3h14.6a3.7,3.7,0,0,1,3.6,2.9c.1.1.1.2.2.4v13.3H304a3.9,3.9,0,0,1-4.1,3.3H285.7a4.2,4.2,0,0,1-4-3.1A.6.6,0,0,0,281.6,258.6Zm11.3,1.4h7.2a1.5,1.5,0,0,0,1.6-1.2,1.3,1.3,0,0,0,.1-.6V246.3a1.8,1.8,0,0,0-1.8-1.8H285.7a1.8,1.8,0,0,0-1.8,1.6v12.5a1.6,1.6,0,0,0,1.8,1.4Z" fill="#fff"/><path d="M292.8,258.1h-5.3a1.3,1.3,0,0,1-1.2-.8,1.4,1.4,0,0,1,.1-1.1c.9-1.3,1.7-2.6,2.5-3.9a1.4,1.4,0,0,1,1.2-.6,1,1,0,0,1,.7.4l.6.7a1.1,1.1,0,0,0,1.5.3h.1c.1,0,.2-.1.2-.3l1.5-2a1.1,1.1,0,0,1,1.4-.5,1.1,1.1,0,0,1,.7.6l2.4,5.6a1.3,1.3,0,0,1-.7,1.7h-5.7Z" fill="#fff"/><path d="M298.1,246.1a1.7,1.7,0,1,1-1.7,1.7A1.8,1.8,0,0,1,298.1,246.1Z" fill="#fff"/><path d="M55.1,83.9V59.6h5.8a5.7,5.7,0,0,1,3.4.8,3.9,3.9,0,0,1,1.8,2.2,9.7,9.7,0,0,1,.6,3.4,9.6,9.6,0,0,1-.6,3.3,5,5,0,0,1-1.8,2.3,5.7,5.7,0,0,1-3.4.8H57.4V83.9Zm2.3-13.2h2.9a3.7,3.7,0,0,0,2.3-.5A2.2,2.2,0,0,0,64,68.8a5.3,5.3,0,0,0,.4-2.8,6.7,6.7,0,0,0-.3-2.8,2.1,2.1,0,0,0-1.2-1.4,4.7,4.7,0,0,0-2.6-.5H57.4Z" fill="#263238"/><path d="M75.3,84.2a5.3,5.3,0,0,1-5.7-3.6,12.1,12.1,0,0,1-.6-3.8V66.6a11.5,11.5,0,0,1,.6-3.7,5.2,5.2,0,0,1,2-2.6,7.7,7.7,0,0,1,7.5,0A5.1,5.1,0,0,1,81,62.9a11.5,11.5,0,0,1,.6,3.7V76.8a12.1,12.1,0,0,1-.6,3.8,5.8,5.8,0,0,1-1.9,2.7A6.5,6.5,0,0,1,75.3,84.2Zm0-1.9a3.4,3.4,0,0,0,2.4-.6,2.8,2.8,0,0,0,1.2-1.8,12.4,12.4,0,0,0,.3-2.7v-11a8,8,0,0,0-.3-2.6,3.2,3.2,0,0,0-1.2-1.8,5.1,5.1,0,0,0-4.8,0,3.2,3.2,0,0,0-1.2,1.8,7.5,7.5,0,0,0-.4,2.6v11a8.4,8.4,0,0,0,.4,2.7,3.2,3.2,0,0,0,1.2,1.8A3.5,3.5,0,0,0,75.3,82.3Z" fill="#263238"/><path d="M90.4,84.2a7.2,7.2,0,0,1-3.2-.8,6.3,6.3,0,0,1-2-2.3,10.5,10.5,0,0,1-.8-3.5l2-.6a25.6,25.6,0,0,0,.5,2.7,5,5,0,0,0,1.3,1.9,3.3,3.3,0,0,0,2.3.7,3.4,3.4,0,0,0,2.6-.8,3.8,3.8,0,0,0,.8-2.7,4,4,0,0,0-.8-2.8,12.6,12.6,0,0,0-2.2-2.4l-4.2-4.1A7.6,7.6,0,0,1,85,67.2a5.8,5.8,0,0,1-.5-2.6,5,5,0,0,1,1.4-3.9,6,6,0,0,1,4-1.3,5.8,5.8,0,0,1,2.3.3,4.2,4.2,0,0,1,2.9,2.9,7.5,7.5,0,0,1,.6,2.9l-1.9.5a25.6,25.6,0,0,0-.5-2.7,2.6,2.6,0,0,0-1.2-1.5,2.9,2.9,0,0,0-2.2-.6,3.6,3.6,0,0,0-2.4.7,3,3,0,0,0-1,2.5,4.7,4.7,0,0,0,.4,1.7,5.9,5.9,0,0,0,1.3,1.8l4.3,4a23.4,23.4,0,0,1,2.5,3,7.3,7.3,0,0,1,1.1,3.8,6.3,6.3,0,0,1-.7,3,3.9,3.9,0,0,1-2,1.8A5.1,5.1,0,0,1,90.4,84.2Z" fill="#263238"/><path d="M102.1,83.9V61.4H97.5V59.6h11.4v1.8h-4.5V83.9Z" fill="#263238"/><path d="M117.6,83.9V59.6h1.7L127,78.4V59.6h1.9V83.9h-1.5l-7.8-19.1V83.9Z" fill="#263238"/><path d="M139,84.2a6.6,6.6,0,0,1-3.9-.9,5.6,5.6,0,0,1-1.8-2.7,8.2,8.2,0,0,1-.6-3.8V66.6a11.5,11.5,0,0,1,.6-3.7,4.6,4.6,0,0,1,1.9-2.6,6.3,6.3,0,0,1,3.8-.9,5.9,5.9,0,0,1,3.6.9,4.6,4.6,0,0,1,1.9,2.6,7.8,7.8,0,0,1,.6,3.7V76.8a9.7,9.7,0,0,1-.5,3.8,5.2,5.2,0,0,1-1.9,2.7A6.8,6.8,0,0,1,139,84.2Zm0-1.9a3.5,3.5,0,0,0,2.4-.6,2.7,2.7,0,0,0,1.1-1.8,12.4,12.4,0,0,0,.3-2.7v-11a7.4,7.4,0,0,0-.3-2.6,2.7,2.7,0,0,0-1.1-1.8,3.5,3.5,0,0,0-2.4-.6,4.8,4.8,0,0,0-2.6.6,4.2,4.2,0,0,0-1.1,1.8,10.9,10.9,0,0,0-.3,2.6v11a12.4,12.4,0,0,0,.3,2.7,4.2,4.2,0,0,0,1.1,1.8A4,4,0,0,0,139,82.3Z" fill="#263238"/><path d="M151.9,83.9V61.4h-4.6V59.6h11.4v1.8h-4.5V83.9Z" fill="#263238"/><path d="M167.5,83.9V59.6h8.7v1.7h-6.4v9.2h5.3v1.7h-5.3V83.9Z" fill="#263238"/><path d="M184.7,84.2a6,6,0,0,1-3.7-.9,5.2,5.2,0,0,1-1.9-2.7,12.1,12.1,0,0,1-.6-3.8V66.6a11.5,11.5,0,0,1,.6-3.7,4.6,4.6,0,0,1,1.9-2.6,7.7,7.7,0,0,1,7.5,0,4.6,4.6,0,0,1,1.9,2.6,11.4,11.4,0,0,1,.5,3.7V76.8a12,12,0,0,1-.5,3.8,5.2,5.2,0,0,1-1.9,2.7A6.2,6.2,0,0,1,184.7,84.2Zm0-1.9a3.6,3.6,0,0,0,2.5-.6,3.2,3.2,0,0,0,1.2-1.8,24.5,24.5,0,0,0,.2-2.7v-11a24.6,24.6,0,0,0-.2-2.6,3.8,3.8,0,0,0-1.2-1.8,5.3,5.3,0,0,0-4.9,0,3.8,3.8,0,0,0-1.2,1.8,7.4,7.4,0,0,0-.3,2.6v11a8.3,8.3,0,0,0,.3,2.7,3.2,3.2,0,0,0,1.2,1.8A3.5,3.5,0,0,0,184.7,82.3Z" fill="#263238"/><path d="M200.7,84.2a6.6,6.6,0,0,1-3.9-.9,4.3,4.3,0,0,1-1.8-2.4,11.5,11.5,0,0,1-.6-3.7V59.6h2.3V77.4a21.1,21.1,0,0,0,.2,2.5,4.6,4.6,0,0,0,1.3,1.8,3.6,3.6,0,0,0,2.5.6,3.5,3.5,0,0,0,2.4-.6,3.6,3.6,0,0,0,1.2-1.8,7.3,7.3,0,0,0,.4-2.5V59.6h2.2V77.2a15.1,15.1,0,0,1-.7,3.7,4.7,4.7,0,0,1-1.8,2.4A6.8,6.8,0,0,1,200.7,84.2Z" fill="#263238"/><path d="M210.8,83.9V59.6h1.6l7.7,18.8V59.6h2.1V83.9h-1.7l-7.7-19.1V83.9Z" fill="#263238"/><path d="M226.4,83.9V59.6h5.2a7.8,7.8,0,0,1,4,.8,4.9,4.9,0,0,1,2.1,2.6,11.9,11.9,0,0,1,.6,3.7v9.7a27.6,27.6,0,0,1-.6,4,5.5,5.5,0,0,1-2,2.5,7.2,7.2,0,0,1-3.8,1Zm2.3-1.7h3a3.7,3.7,0,0,0,2.8-.9,3.5,3.5,0,0,0,1.2-2.1A17.3,17.3,0,0,0,236,76V67a11,11,0,0,0-.4-3.1,3.9,3.9,0,0,0-1.2-1.9,6.7,6.7,0,0,0-2.8-.6h-2.9Z" fill="#263238"/></svg>