<svg id="Layer_1" data-name="Layer 1" xmlns="http://www.w3.org/2000/svg" xmlns:xlink="http://www.w3.org/1999/xlink" viewBox="0 0 446.09 367.36"><defs><clipPath id="clip-path"><path d="M238.69,281.77a9.8,9.8,0,0,0,4.1-1.11c20.45-10.68,36.35-28.31,45.93-41A150.83,150.83,0,0,0,299,224.54l-4.91-21s-4.62,12-23.18,23.86S230.27,243.1,223.14,255C216.82,265.45,228,282.29,238.69,281.77Z" fill="none"/></clipPath><clipPath id="clip-path-2"><path d="M184.07,251.12s7.6-.23,17.75.11c15.35.48,36.56,2.21,46.26,7.85l.46-.15,8.87-3.11.19-.26c1.63-2.41,14.83-21.36,33.68-29.07L317.94,152s-27.67,1.2-42.79,26.2l-7.59,2.74s-45.18-13.37-70.47-8.56Z" fill="none"/></clipPath><clipPath id="clip-path-3"><path d="M385.42,279.89a10.61,10.61,0,0,0-.54,13.23A12.51,12.51,0,0,0,385.42,279.89Z" fill="none"/></clipPath></defs><path d="M108.71,94.29c-.78,45.76-68.85,45.75-69.62,0C39.87,48.53,107.93,48.54,108.71,94.29Z" fill="#f3f4f4"/><path d="M76.41,171c63-39.84,147.27,27.87,115.54,98.15-18.09,41.17-63.78,46-68,46.37C40.2,325.28,3.08,217.12,76.41,171Z" fill="#f3f4f4"/><path d="M179.59,43.86C310.45-65.23,498,123,359.27,257.94c-10.85,12.83-45.78,35.55-69.17,18.94C269.5,260.71,293,220.19,270,189.16c-19.28-29.34-53.48-15.42-83.47-39.41C157.37,121.81,152.75,81.8,179.59,43.86Z" fill="#f3f4f4"/><g id="freepik--Floor--inject-26"><path d="M12.24,340.36c135-.61,286.55-.61,421.61,0C298.79,341,147.29,341,12.24,340.36Z" fill="#273339"/></g><g id="freepik--Character--inject-54"><path d="M50.13,300.51c6.45,5.37,63.19-7.86,134.08-13.36,1.59-13.44-1.35,8.94.94-24,3.21-46.05,4.13-96.17-5.49-108.36-.3-.16-.6-.3-.92-.44a2.68,2.68,0,0,0-.34-.16c-.4-.17-.88-.39-1.46-.63-9.58-4-43.13-16.71-74.41-9.91-37,8-51.36,15.74-54,22.4C46.54,171.1,48.71,259.07,50.13,300.51Z" fill="#eef9fe" stroke="#142230" stroke-miterlimit="10"/><path d="M178.74,154.36c.32.14.62.28.92.44l0,0Z" fill="#dff3fd" stroke="#142230" stroke-miterlimit="10"/><path d="M103.76,157.82c21.29,18.44,48.72,14.55,48.12.39-.1-2.22-2.47-5-2.47-5l.83-1.28,3.61-5.45c2.64-4.07,5.93-9.2,8.23-12.93C164,130.41,116,100.89,116,117.87c0,23.91-11.75,28.41-11.75,28.41C99.85,148.06,95.72,150.88,103.76,157.82Z" fill="#fff" stroke="#273339" stroke-linecap="round" stroke-linejoin="round"/><path d="M90.29,194.35s4.3,14.72,2.27,19" fill="none" stroke="#142230" stroke-linecap="round" stroke-linejoin="round"/><path d="M95.31,151.59c0,14.21,42.39,28.13,54.8,13.87" fill="none" stroke="#142230" stroke-linecap="round" stroke-linejoin="round"/><path d="M130.18,135.19s2.84,10.71,16.07,19.07A5,5,0,0,1,149.1,152a3.45,3.45,0,0,1,1.2,0l3.61-5.45C147.07,141.63,130.18,135.19,130.18,135.19Z" fill="#273339"/><path d="M124.23,122s.15,10.56,2.41,12.72c16.78,16.09,33.19,17.37,35.9,13.12,18.23-28.58,13.92-36.09,15.77-41,3.29-8.59,7.32-22.62,5.54-31.11-4-19-39.71-33.69-58.52-14.61-9,9.14-11.88,29-10,45.46" fill="#fff" stroke="#273339" stroke-linecap="round" stroke-linejoin="round"/><path d="M105.34,76.83c0-7.15,7-21.81,19.42-23.46h0C131.87,45.93,142,43.2,154.3,46c28.42,6.52,37.07,34.58,38.3,39.22.12.43.18.67.18.67L185.18,84l3.27,6.39-4,2.63.92,1-4.62,4.45,1.44-8.13c-.89-5.24-6.93-12.58-6.93-12.58a19.59,19.59,0,0,1,4,9.85c-2.41-6.24-16.84-12-16.84-12,4.68,3.8,7.22,11.24,7.22,11.24-4.46-5.49-14.89-9-21.56-10.93-2.25,5.43-5.83,11.09-10.93,14.23-4.81,3-4.64,9.08-4.64,9.08a28,28,0,0,0-10.83,14.87l-5.82,8S105.34,109.16,105.34,76.83Z" fill="#142230"/><path d="M129.85,101.25c2-4.17-5.12-15.48-10.14-14.09-2.82.8-6.5,5.93-7.22,11.32s3.09,15.64,7.16,17.87c2.59,1.44,4.72-2.49,4.72-2.49" fill="#fff" stroke="#273339" stroke-linecap="round" stroke-linejoin="round"/><polyline points="436.78 305.45 300.85 273.67 17.3 306.41" fill="#fff" stroke="#273339" stroke-linecap="round" stroke-linejoin="round"/><polygon points="319.14 311.83 264.12 287.5 194.54 291.1 225.49 317.56 319.14 311.83" fill="#fff" stroke="#273339" stroke-linecap="round" stroke-linejoin="round"/><path d="M179.66,154.8c9.62,12.19,8.7,62.31,5.49,108.36C197,279,208.67,292.69,213.44,292.9c11.32.5,16.85-4.32,16.85-4.32C244,289,256,276.24,248.85,260.06s-20.45-18.91-20.45-18.91C200,180.43,195.08,162.64,179.66,154.8Z" fill="#eef9fe" stroke="#142230" stroke-miterlimit="10"/><path d="M176.94,153.57c.58.24,1.06.46,1.46.63-.47-.23-1-.43-1.45-.64Z" fill="#dff3fd" stroke="#142230" stroke-miterlimit="10"/><path d="M223.14,244.91c-7.89,7-12.43,17.34-10,28.77" fill="none" stroke="#142230" stroke-linecap="round" stroke-linejoin="round"/><path d="M215.52,248.29s-9.69,2.12-11.2,14.54" fill="none" stroke="#142230" stroke-linecap="round" stroke-linejoin="round"/><path d="M187.15,212a70.69,70.69,0,0,0,4.6-35.7" fill="none" stroke="#142230" stroke-linecap="round" stroke-linejoin="round"/><path d="M188.53,195.6c.73,5.05-4.49,32-4.46,60.24" fill="none" stroke="#142230" stroke-linecap="round" stroke-linejoin="round"/><path d="M56.6,158.88c-22.08,11.09-24.7,45.22-3.88,86,14.72,28.8,35,71.33,47.87,74.18S126,314,126,314s10.83-.51,14.1-8.21c8.95-21-13.8-47.63-22.7-41.27,0,0-28.59-62.16-33.8-66.08" fill="#eef9fe" stroke="#142230" stroke-miterlimit="10"/><path d="M142.12,293c2.93-14.52-19.93-31.65-24.74-28.48,0,0-17,.95-19.52,12.7" fill="none" stroke="#142230" stroke-linecap="round" stroke-linejoin="round"/><path d="M79.94,296C70,278.51,52.72,244.91,52.72,244.91" fill="none" stroke="#142230" stroke-linecap="round" stroke-linejoin="round"/><path d="M117.38,264.47s-11.9-7.12-20.79-.38" fill="none" stroke="#142230" stroke-linecap="round" stroke-linejoin="round"/><path d="M113.31,255.82s-6.57-14.43-13.24-27.67-21.92-32.83-28.26-33.78" fill="none" stroke="#142230" stroke-linecap="round" stroke-linejoin="round"/><path d="M238.69,281.77a9.8,9.8,0,0,0,4.1-1.11c20.45-10.68,36.35-28.31,45.93-41A150.83,150.83,0,0,0,299,224.54l-4.91-21s-4.62,12-23.18,23.86S230.27,243.1,223.14,255C216.82,265.45,228,282.29,238.69,281.77Z" fill="#fff"/><g clip-path="url(#clip-path)"><path d="M238.69,281.77a19.91,19.91,0,0,1,1.21-4.43c4.29-10.76,30.28-32.14,30.28-32.14,6.18-.19,13-2.77,18.52-5.51A151,151,0,0,0,299,224.54l-4.91-21s-4.62,12-23.18,23.86S230.27,243.1,223.14,255C216.82,265.45,228,282.29,238.69,281.77Z" fill="#fff" opacity="0.4" style="isolation:isolate"/></g><path d="M238.69,281.77a9.8,9.8,0,0,0,4.1-1.11c20.45-10.68,36.35-28.31,45.93-41A150.83,150.83,0,0,0,299,224.54l-4.91-21s-4.62,12-23.18,23.86S230.27,243.1,223.14,255C216.82,265.45,228,282.29,238.69,281.77Z" fill="none" stroke="#273339" stroke-linecap="round" stroke-linejoin="round"/><path d="M285,223.27s2.54,11.21,9.23,8.7c3.61-1.36,10.56-12.14,11.88-17.58Z" fill="#fff" stroke="#273339" stroke-linecap="round" stroke-linejoin="round"/><path d="M314.5,154.22,309,151.41s-15.44.13-25,7.91c-8.7,7.08-13.12,18.16-13.12,18.16s-33.79-18.66-68.31-7.95L188.53,248l64.71,4.23,40.39-38.36Z" fill="#fff" stroke="#273339" stroke-linecap="round" stroke-linejoin="round"/><path d="M184.07,251.12s7.6-.23,17.75.11c15.35.48,36.56,2.21,46.26,7.85l.46-.15,8.87-3.11.19-.26c1.63-2.41,14.83-21.36,33.68-29.07L317.94,152s-27.67,1.2-42.79,26.2l-7.59,2.74s-45.18-13.37-70.47-8.56Z" fill="#2fa5dd"/><g clip-path="url(#clip-path-2)"><path d="M257.6,255.57c1.63-2.4,14.83-21.35,33.68-29.07L317.94,152s-27.67,1.2-42.79,26.2Z" fill="#010101" fill-opacity="0.7" opacity="0.3" style="isolation:isolate"/></g><path d="M184.07,251.12s7.6-.23,17.75.11c15.35.48,36.56,2.21,46.26,7.85l.46-.15,8.87-3.11.19-.26c1.63-2.41,14.83-21.36,33.68-29.07L317.94,152s-27.67,1.2-42.79,26.2l-7.59,2.74s-45.18-13.37-70.47-8.56Z" fill="none" stroke="#273339" stroke-linecap="round" stroke-linejoin="round"/><line x1="267.53" y1="180.96" x2="250.12" y2="253.18" fill="none" stroke="#273339" stroke-linecap="round" stroke-linejoin="round"/><line x1="257.41" y1="255.84" x2="274.33" y2="183.66" fill="none" stroke="#273339" stroke-linecap="round" stroke-linejoin="round"/><path d="M300.39,224.6c3.86-1.07,11.64-24.27,8.08-34.27,0,0-4.23-7.35-6-7.86-2.7-.78-13.57-.55-13,1.28,1.2,4.23,9.55,4.16,9.55,4.16l2.71,5-.11,2.73s-3.94-2.87-5.38-2.78c-.75,0-4.6,1.92-7.65,3.54-2.61,1.38-4.21,2.14-3.61,3.39,1.94,4.16,10.18,1.2,10.18,1.2l3.1,4.68s-3,.52-4.31.66-12.19,7.4-11.87,8.3c1.29,3.54,11.61-.28,11.61-.28l1.83,1.52s-7.61,2-8.42,2.25c-1.21.45-5.84,4-5.77,4.42.56,3.13,7,.83,7,.83l5.59-.23a6.92,6.92,0,0,0,3,1.54" fill="#fff" stroke="#273339" stroke-linecap="round" stroke-linejoin="round"/><path d="M301.62,195.6s3.61,3,4.53,3.91.7,3.67.7,3.67" fill="none" stroke="#273339" stroke-linecap="round" stroke-linejoin="round"/><path d="M304.23,209.34c0,3-2.05,4.91-3,5.89s1.51,3.67-1.2,5.6" fill="none" stroke="#273339" stroke-linecap="round" stroke-linejoin="round"/><path d="M126,306.2c7.64,2.08,15.94-11.35,26.07-26h0c6.69-9.63,14.17-19.89,22.77-26.47.69-.52,1.38-1,2.08-1.5l-5-25.27c-10.44,5.48-16.91,14.25-27.75,23.26-17.45,14.52-32.91,23.43-37.19,29.86S112.94,302.62,126,306.2Z" fill="#fff"/><path d="M126,306.2c7.64,2.08,15.94-11.35,26.07-26h0c6.69-9.63,14.17-19.89,22.77-26.47.69-.52,1.38-1,2.08-1.5l-5-25.27c-10.44,5.48-16.91,14.25-27.75,23.26-17.45,14.52-32.91,23.43-37.19,29.86S112.94,302.62,126,306.2Z" fill="none" stroke="#273339" stroke-linecap="round" stroke-linejoin="round"/><path d="M169.11,251.23a4.19,4.19,0,0,0,2.4,2c.28.1.55.2.83.27h.23c8.08,2.11,26.24-2.27,26.24-2.27s11.9-5.65,12.62-7a31.71,31.71,0,0,0,1.34-3.25l.32-.95s4.29-2.4,4.82-4.28,1.43-2.41-1.21-2.74-16.84,0-16.84,0l15.46-6.31s10.24-5.16,11.19-7,2.14-3-3.09-2.29-16.67,4-16.67,4l-9,1.91,8.95-3.81s17.62-2.13,14.28-7.61H211a103.83,103.83,0,0,0-16.85,2.14c-2.91.9-22.16,12.85-22.16,12.85" fill="#fff"/><path d="M169.11,251.23a4.19,4.19,0,0,0,2.4,2c.28.1.55.2.83.27h.23c8.08,2.11,26.24-2.27,26.24-2.27s11.9-5.65,12.62-7a31.71,31.71,0,0,0,1.34-3.25l.32-.95s4.29-2.4,4.82-4.28,1.43-2.41-1.21-2.74-16.84,0-16.84,0l15.46-6.31s10.24-5.16,11.19-7,2.14-3-3.09-2.29-16.67,4-16.67,4l-9,1.91,8.95-3.81s17.62-2.13,14.28-7.61H211a103.83,103.83,0,0,0-16.85,2.14c-2.91.9-22.16,12.85-22.16,12.85" fill="none" stroke="#273339" stroke-linecap="round" stroke-linejoin="round"/><line x1="213.12" y1="240.04" x2="195.54" y2="242.63" fill="none" stroke="#273339" stroke-linecap="round" stroke-linejoin="round"/><path d="M388.33,293.87,344.28,307.1l-80.61-18.4s49.23-14,49.69-13.63S388.33,293.87,388.33,293.87Z" fill="#2fa5dd" stroke="#273339" stroke-linecap="round" stroke-linejoin="round"/><path d="M388.33,293.87,344.28,307.1l-80.61-18.4s49.23-14,49.69-13.63S388.33,293.87,388.33,293.87Z" fill="#fff" stroke="#273339" stroke-linecap="round" stroke-linejoin="round"/><path d="M387.7,278.35c3.09.21,3.86,11.35.63,15.52l-71.17-14.78-5.7-13.5Z" fill="#fff" stroke="#273339" stroke-linecap="round" stroke-linejoin="round"/><path d="M387.7,278.35c3.09.21,3.86,11.35.63,15.52l-71.17-14.78-5.7-13.5Z" fill="none" stroke="#273339" stroke-linecap="round" stroke-linejoin="round"/><path d="M267.12,278.19s1.06,5.86.38,9.47l76.86,17.39,40.52-11.93s4.21-7.45.54-13.23l-74-12.58Z" fill="#fff" stroke="#273339" stroke-linecap="round" stroke-linejoin="round"/><polygon points="387.7 278.35 311.46 265.59 264.12 277.59 343.74 293.46 387.7 278.35" fill="#fff" stroke="#273339" stroke-linecap="round" stroke-linejoin="round"/><polyline points="384.99 285.47 344.68 297.48 278.69 284.19" fill="none" stroke="#273339" stroke-linecap="round" stroke-linejoin="round"/><line x1="267.71" y1="285.42" x2="338.67" y2="300.55" fill="none" stroke="#273339" stroke-linecap="round" stroke-linejoin="round"/><path d="M384,290.2c-.61.06-30.39,9.22-30.39,9.22" fill="none" stroke="#273339" stroke-linecap="round" stroke-linejoin="round"/><line x1="273.51" y1="282.64" x2="267.87" y2="281.73" fill="none" stroke="#273339" stroke-linecap="round" stroke-linejoin="round"/><line x1="345.99" y1="301.65" x2="348.98" y2="300.98" fill="none" stroke="#273339" stroke-linecap="round" stroke-linejoin="round"/><path d="M385.42,279.89a10.61,10.61,0,0,0-.54,13.23A12.51,12.51,0,0,0,385.42,279.89Z" fill="#273339"/><g clip-path="url(#clip-path-3)"><path d="M385.42,279.89a10.61,10.61,0,0,0-.54,13.23A12.51,12.51,0,0,0,385.42,279.89Z" fill="#fff" fill-opacity="0.7" opacity="0.3" style="isolation:isolate"/></g><path d="M385.42,279.89a10.61,10.61,0,0,0-.54,13.23A12.51,12.51,0,0,0,385.42,279.89Z" fill="none" stroke="#273339" stroke-linecap="round" stroke-linejoin="round"/><polygon points="220.76 297.48 143.82 300.63 151.31 327.11 245.96 323.5 220.76 297.48" fill="#fff"/><polygon points="220.76 297.48 143.82 300.63 151.31 327.11 245.96 323.5 220.76 297.48" fill="none" stroke="#273339" stroke-linecap="round" stroke-linejoin="round"/></g><path d="M365.44,95.48q0,10.9,0,21.81a5.91,5.91,0,0,1-4.45,5.92,7.1,7.1,0,0,1-1.72.21q-17.82,0-35.62,0a6,6,0,0,1-6.2-6.18q0-21.81,0-43.61a6,6,0,0,1,6.18-6.2h35.62a6,6,0,0,1,6.19,6.18Q365.46,84.55,365.44,95.48Zm-4,0V73.8c0-1.62-.74-2.37-2.35-2.37H323.78a2.06,2.06,0,0,0-2.33,2.35v43.3a2,2,0,0,0,2.33,2.34h35.31c1.62,0,2.35-.74,2.35-2.37Z" fill="#162143"/><path d="M362.72,95.43v23c0,1.73-.78,2.52-2.5,2.52H322.66a2.19,2.19,0,0,1-2.49-2.48V72.4a2.19,2.19,0,0,1,2.48-2.5h37.56c1.72,0,2.51.79,2.51,2.52Zm-21.3,2.12c2.42,0,4.83,0,7.25,0a2.13,2.13,0,1,0,0-4.25H334.26a2.14,2.14,0,1,0,0,4.25C336.64,97.56,339,97.55,341.42,97.55Zm-.05,12.77h7.3a2.13,2.13,0,1,0,0-4.25H334.25a2.14,2.14,0,1,0,0,4.26Zm.06-29.78h-7.24a2.13,2.13,0,1,0,0,4.25h14.48a2.13,2.13,0,1,0,0-4.25Z" fill="#fff"/><path d="M341.42,97.55c-2.39,0-4.78,0-7.17,0a2.14,2.14,0,1,1,0-4.25h14.42a2.13,2.13,0,1,1,0,4.25C346.25,97.56,343.84,97.55,341.42,97.55Z" fill="#162143"/><path d="M341.37,110.32h-7.11a2.14,2.14,0,1,1,0-4.26h14.42a2.13,2.13,0,1,1,0,4.25Z" fill="#2fa5dd"/><path d="M341.43,80.54h7.24a2.13,2.13,0,1,1,0,4.25H334.19a2.13,2.13,0,1,1,0-4.25Z" fill="#f37366"/></svg>