<svg id="Layer_1" data-name="Layer 1" xmlns="http://www.w3.org/2000/svg" viewBox="0 0 449.4 383.1"><path d="M113,89.3c-.8,45.7-68.8,45.7-69.6-.1C44.2,43.5,112.2,43.5,113,89.3Z" fill="#f1efef"/><path d="M80.7,166c63-39.9,147.3,27.8,115.5,98.1-18,41.2-63.7,46-68,46.4C44.5,320.2,7.4,212.1,80.7,166Z" fill="#f1efef"/><path d="M204.9,24.1C333.5-50.7,495,125,363.6,252.9c-10.9,12.8-45.8,35.5-69.2,18.9-20.6-16.1,2.9-56.6-20.1-87.7-19.3-29.3-53.5-15.4-83.5-39.4-18.8-18-27.4-41.1-23.9-65.4S184.6,35.9,204.9,24.1Z" fill="#f1efef"/><g id="freepik--Floor--inject-26"><path d="M16.5,335.3c135.1-.6,286.6-.6,421.6,0C303.1,335.9,151.6,335.9,16.5,335.3Z" fill="#273339"/></g><g id="freepik--Board--inject-2"><path d="M288.6,294l-66.1,5.5a4.2,4.2,0,0,1-4.2-3.6L190.2,157.6c-.5-2.1-1.3-6.1,6.4-6.4l66.8-5.2a4.2,4.2,0,0,1,4.2,3.5l28.6,138.6C296.6,289.9,294.5,293.8,288.6,294Z" fill="#eb7264" stroke="#000" stroke-miterlimit="10" stroke-width="0.5"/><path d="M222.2,299.9a4.7,4.7,0,0,1-4.4-3.9L189.7,157.7c-.3-1.3-.6-3.2.6-4.7s3.1-2.2,6.2-2.3l66.9-5.2a4.9,4.9,0,0,1,4.7,3.9L296.6,288a5.1,5.1,0,0,1-1.1,3.5c-.8,1-2.8,2.9-6.9,3l-66.1,5.4Zm41.4-153.4h-.2l-66.8,5.1c-2.9.2-4.7.8-5.7,1.9s-.6,2.8-.4,3.9l28.2,138.4a3.8,3.8,0,0,0,3.7,3.2l66.1-5.5h0c3.7-.1,5.5-1.7,6.2-2.7a3.3,3.3,0,0,0,.9-2.7L267.1,149.6A3.7,3.7,0,0,0,263.6,146.5Z" fill="#273339"/><path d="M293.6,291.5l-66.1,5.4a4.2,4.2,0,0,1-4.2-3.5L195.2,155.1c-.4-2.1.8-4,2.7-4.1l66-5.5a4.4,4.4,0,0,1,4.3,3.5l28.1,138.4A3.3,3.3,0,0,1,293.6,291.5Z" fill="#fff"/><path d="M227.3,297.4a4.9,4.9,0,0,1-4.5-3.9L194.7,155.2a4.5,4.5,0,0,1,.7-3.4,3.8,3.8,0,0,1,2.4-1.3l66.1-5.5a4.8,4.8,0,0,1,4.7,3.9l28.1,138.4a4.3,4.3,0,0,1-.6,3.3,3.1,3.1,0,0,1-2.5,1.3l-66.1,5.5ZM264.2,146H264l-66.1,5.4a2.7,2.7,0,0,0-1.8,1,2.8,2.8,0,0,0-.4,2.5l28.1,138.4a3.7,3.7,0,0,0,3.7,3.1l66.1-5.4h0a2.7,2.7,0,0,0,1.8-1,3.4,3.4,0,0,0,.5-2.6L267.7,149.1a3.7,3.7,0,0,0-3.5-3.1Z" fill="#273339"/><path d="M237.7,156.5l-9.1.8a1.2,1.2,0,0,1-1.1-.9h0a.9.9,0,0,1,.6-1.1h.1l9.1-.7a1.1,1.1,0,0,1,1.1.9h0a.8.8,0,0,1-.5,1.1Z" fill="#273339"/><path d="M289.8,278.5l-63.7,5.3L200.8,159.7l15.2-1.2,2,1.4a3.5,3.5,0,0,0,2.3.7l26.6-2.2a3.1,3.1,0,0,0,2-1.1l1.2-1.7,14.5-1.2Z" fill="#d8d8d8"/><path d="M226,284.3a.4.4,0,0,1-.4-.4L200.4,159.8c-.1-.1,0-.3.1-.4l.3-.2,15.1-1.2h.3l2,1.4a3.6,3.6,0,0,0,2,.6l26.7-2.2a2.3,2.3,0,0,0,1.7-1l1.2-1.6.3-.2,14.5-1.2a.7.7,0,0,1,.5.4l25.2,124.1a.6.6,0,0,1-.4.6h0l-63.8,5.2ZM201.4,160.1l25,123.2,62.8-5.2-25-123.2-13.8,1.2-1.1,1.4a3.2,3.2,0,0,1-2.4,1.3L220.3,161a3.8,3.8,0,0,1-2.6-.7l-1.9-1.4Z" fill="#273339"/><path d="M260.7,284.8a1.7,1.7,0,0,0-1.7-1.5,1.3,1.3,0,0,0-1.2,1.5v.3a1.8,1.8,0,0,0,1.8,1.4,1.2,1.2,0,0,0,1.2-1.5A.3.3,0,0,0,260.7,284.8Z" fill="#273339"/><path d="M219.5,186.3l-6.8.6a2.4,2.4,0,0,1-2.3-1.9l-1.5-7.6a1.8,1.8,0,0,1,1.1-2.2h.3l6.8-.6a2.4,2.4,0,0,1,2.3,1.9l1.5,7.5a1.6,1.6,0,0,1-1.1,2.2Z" fill="#fff"/><path d="M212.5,187.4a3,3,0,0,1-2.6-2.3l-1.5-7.6a2.4,2.4,0,0,1,.4-2,1.8,1.8,0,0,1,1.5-.8l6.8-.6a3,3,0,0,1,2.8,2.3l1.5,7.6a2.4,2.4,0,0,1-.4,2,2.5,2.5,0,0,1-1.4.8h0l-6.9.6Zm4.7-12.3h-.1l-6.8.5a1,1,0,0,0-.8.5,1.6,1.6,0,0,0-.2,1.2l1.5,7.6a1.9,1.9,0,0,0,1.8,1.5l6.8-.6a.9.9,0,0,0,.8-.4,1.4,1.4,0,0,0,.3-1.2l-1.6-7.6a1.7,1.7,0,0,0-1.6-1.5Z" fill="#fff"/><path d="M234.7,185.1l-6.8.5a2.4,2.4,0,0,1-2.3-1.9l-1.5-7.5a1.7,1.7,0,0,1,1.2-2.2h.2l6.8-.5a2.3,2.3,0,0,1,2.3,1.9l1.6,7.5A1.8,1.8,0,0,1,235,185Z" fill="#fff"/><path d="M227.8,186.1a3,3,0,0,1-2.7-2.3l-1.5-7.6a2.8,2.8,0,0,1,.4-2,2.8,2.8,0,0,1,1.5-.8l6.8-.5a2.7,2.7,0,0,1,2.8,2.3l1.5,7.5a2.1,2.1,0,0,1-.4,2,1.6,1.6,0,0,1-1.4.8h0l-6.8.6Zm4.7-12.3h-.1l-6.9.6a1.2,1.2,0,0,0-.8.4,1.7,1.7,0,0,0-.2,1.2l1.5,7.6a2.1,2.1,0,0,0,1.8,1.6l6.9-.6a1.2,1.2,0,0,0,.8-.4,1.5,1.5,0,0,0,.2-1.3l-1.5-7.5a1.9,1.9,0,0,0-1.7-1.6Z" fill="#fff"/><path d="M249.9,183.8l-6.8.6a2.3,2.3,0,0,1-2.3-2l-1.5-7.5a1.8,1.8,0,0,1,1.1-2.2h.3l6.8-.5a2.2,2.2,0,0,1,2.3,1.9l1.6,7.6a1.7,1.7,0,0,1-1.2,2.1Z" fill="#fff"/><path d="M243,184.8a2.7,2.7,0,0,1-2.6-2.3l-1.6-7.5a2.8,2.8,0,0,1,.4-2,1.9,1.9,0,0,1,1.5-.8l6.8-.6a2.8,2.8,0,0,1,2.8,2.3l1.6,7.6a2.8,2.8,0,0,1-.4,2,2.8,2.8,0,0,1-1.5.8l-6.8.5Zm4.7-12.2h-.1l-6.8.5a.8.8,0,0,0-.8.5,1.3,1.3,0,0,0-.3,1.2l1.6,7.5a1.8,1.8,0,0,0,1.8,1.6l6.8-.6a1.2,1.2,0,0,0,.8-.4,1.7,1.7,0,0,0,.2-1.2l-1.5-7.6a1.9,1.9,0,0,0-1.7-1.5Z" fill="#fff"/><path d="M265.2,182.5l-6.9.6a2.4,2.4,0,0,1-2.3-1.9l-1.5-7.6a1.8,1.8,0,0,1,1.2-2.2h.3l6.8-.6a2.4,2.4,0,0,1,2.3,1.9l1.5,7.6a1.8,1.8,0,0,1-1.1,2.2Z" fill="#fff"/><path d="M258.2,183.6a2.8,2.8,0,0,1-2.6-2.3l-1.6-7.6a2.8,2.8,0,0,1,.4-2,2.8,2.8,0,0,1,1.5-.8l6.8-.5a2.6,2.6,0,0,1,2.8,2.3l1.6,7.5a2.8,2.8,0,0,1-.4,2,1.9,1.9,0,0,1-1.5.8l-6.8.6Zm4.7-12.3h-.1l-6.8.5a1.4,1.4,0,0,0-.8.5,1.6,1.6,0,0,0-.2,1.2l1.5,7.6a1.8,1.8,0,0,0,1.8,1.5l6.8-.5a1.1,1.1,0,0,0,.8-.5,1.3,1.3,0,0,0,.3-1.2l-1.6-7.6a1.7,1.7,0,0,0-1.7-1.5Z" fill="#fff"/><path d="M223,203.7l-6.8.6a2.4,2.4,0,0,1-2.3-1.9l-1.5-7.6a1.6,1.6,0,0,1,1.2-2.1h.2l6.9-.6a2.2,2.2,0,0,1,2.2,2l1.6,7.5a1.9,1.9,0,0,1-1.2,2.2Z" fill="#fff"/><path d="M216.1,204.8a2.9,2.9,0,0,1-2.6-2.4l-1.6-7.5a2.8,2.8,0,0,1,.4-2,2.8,2.8,0,0,1,1.5-.8l6.8-.5a2.6,2.6,0,0,1,2.8,2.3l1.6,7.5a2.8,2.8,0,0,1-.4,2,1.9,1.9,0,0,1-1.5.8h0l-6.8.6Zm4.7-12.3h-.1l-6.9.5a.8.8,0,0,0-.7.5,1.3,1.3,0,0,0-.3,1.2l1.6,7.5a1.8,1.8,0,0,0,1.8,1.6l6.8-.6a1.2,1.2,0,0,0,.8-.4,1.7,1.7,0,0,0,.2-1.2l-1.5-7.6a1.6,1.6,0,0,0-1.7-1.5Z" fill="#fff"/><path d="M238.2,202.4l-6.8.6a2.4,2.4,0,0,1-2.3-1.9l-1.5-7.6a1.7,1.7,0,0,1,1.2-2.1h.3l6.8-.6a2.3,2.3,0,0,1,2.3,2l1.5,7.5a1.8,1.8,0,0,1-1.2,2.2Z" fill="#fff"/><path d="M231.3,203.5a2.8,2.8,0,0,1-2.6-2.3l-1.6-7.6a2.8,2.8,0,0,1,.4-2,2.8,2.8,0,0,1,1.5-.8l6.8-.5a2.6,2.6,0,0,1,2.8,2.3l1.6,7.5a2.8,2.8,0,0,1-.4,2,1.9,1.9,0,0,1-1.5.8l-6.8.6Zm4.7-12.3h-.1l-6.8.6a.8.8,0,0,0-.8.4,1.4,1.4,0,0,0-.3,1.2l1.6,7.6a1.7,1.7,0,0,0,1.8,1.5l6.8-.5a1,1,0,0,0,.8-.5,1.6,1.6,0,0,0,.2-1.2l-1.5-7.5a1.9,1.9,0,0,0-1.7-1.6Z" fill="#fff"/><path d="M268.7,199.9l-6.8.6a2.2,2.2,0,0,1-2.3-1.8l-1.5-7.6a1.8,1.8,0,0,1,1.1-2.2h.3l6.8-.6a2.3,2.3,0,0,1,2.3,1.9l1.5,7.5a1.8,1.8,0,0,1-1.2,2.2Z" fill="#fff"/><path d="M261.7,201a2.8,2.8,0,0,1-2.6-2.3l-1.6-7.6a2.8,2.8,0,0,1,.4-2,2.2,2.2,0,0,1,1.5-.8l6.8-.6A2.8,2.8,0,0,1,269,190l1.6,7.6a2.8,2.8,0,0,1-.4,2,1.9,1.9,0,0,1-1.5.8l-6.8.6Zm4.7-12.3h-.1l-6.8.5a1.4,1.4,0,0,0-.8.5,1.6,1.6,0,0,0-.2,1.2l1.5,7.6a1.8,1.8,0,0,0,1.8,1.5l6.8-.5a1.4,1.4,0,0,0,.8-.5,1.3,1.3,0,0,0,.3-1.2l-1.6-7.6a1.7,1.7,0,0,0-1.7-1.5Z" fill="#fff"/><path d="M226.6,221.1l-6.8.6a2.3,2.3,0,0,1-2.3-2l-1.5-7.5a1.8,1.8,0,0,1,1.1-2.2h.3l6.8-.5a2.4,2.4,0,0,1,2.3,1.9l1.5,7.5a1.7,1.7,0,0,1-1.1,2.2Z" fill="#fff"/><path d="M219.6,222.1a2.8,2.8,0,0,1-2.6-2.3l-1.5-7.6a2.1,2.1,0,0,1,.4-1.9,1.9,1.9,0,0,1,1.4-.9l6.8-.5a2.9,2.9,0,0,1,2.9,2.3l1.5,7.5a2.8,2.8,0,0,1-.4,2,1.9,1.9,0,0,1-1.5.8l-6.8.6Zm4.7-12.3h-.1l-6.8.6a1.2,1.2,0,0,0-.8.4,1.1,1.1,0,0,0-.2,1.2l1.5,7.6a1.8,1.8,0,0,0,1.8,1.6l6.8-.6a1.2,1.2,0,0,0,.8-.4,1.5,1.5,0,0,0,.2-1.3l-1.5-7.5a1.8,1.8,0,0,0-1.7-1.6Z" fill="#fff"/><path d="M241.8,219.8l-6.8.6a2.3,2.3,0,0,1-2.3-1.9l-1.6-7.6a1.9,1.9,0,0,1,1.2-2.2h.3l6.8-.6a2.4,2.4,0,0,1,2.3,1.9l1.5,7.6a1.8,1.8,0,0,1-1.1,2.2Z" fill="#fff"/><path d="M234.8,220.9a2.8,2.8,0,0,1-2.6-2.3l-1.5-7.6a2.4,2.4,0,0,1,.4-2,2.5,2.5,0,0,1,1.4-.8l6.9-.5a2.8,2.8,0,0,1,2.8,2.3l1.5,7.5a2.4,2.4,0,0,1-.4,2,1.8,1.8,0,0,1-1.5.8h0l-6.8.6Zm4.7-12.3h-.1l-6.8.6a.9.9,0,0,0-.8.4,1.6,1.6,0,0,0-.2,1.2l1.5,7.6a1.8,1.8,0,0,0,1.8,1.5l6.8-.5a1,1,0,0,0,.8-.5,1.3,1.3,0,0,0,.3-1.2l-1.5-7.6a1.9,1.9,0,0,0-1.8-1.5Z" fill="#fff"/><path d="M257,218.6l-6.8.5a2.3,2.3,0,0,1-2.3-1.9l-1.5-7.5a1.7,1.7,0,0,1,1.1-2.2h.3l6.8-.5a2.2,2.2,0,0,1,2.3,1.8l1.6,7.6a1.7,1.7,0,0,1-1.2,2.2Z" fill="#fff"/><path d="M250.1,219.6a3,3,0,0,1-2.7-2.3l-1.5-7.5a2.3,2.3,0,0,1,.4-2,1.8,1.8,0,0,1,1.5-.8l6.8-.6a2.8,2.8,0,0,1,2.8,2.3l1.5,7.6a2.2,2.2,0,0,1-.4,1.9,1.7,1.7,0,0,1-1.4.8l-6.9.6Zm4.6-12.3h-.1l-6.8.6a1.2,1.2,0,0,0-.8.4,1.9,1.9,0,0,0-.2,1.3l1.5,7.5a2,2,0,0,0,1.8,1.6l6.8-.6a.9.9,0,0,0,.8-.4,1.5,1.5,0,0,0,.3-1.3l-1.6-7.5a1.8,1.8,0,0,0-1.6-1.6Z" fill="#fff"/><path d="M272.2,217.3l-6.8.6a2.4,2.4,0,0,1-2.3-1.9l-1.5-7.6a1.8,1.8,0,0,1,1.1-2.2h.3l6.8-.6a2.4,2.4,0,0,1,2.3,1.9l1.6,7.5a1.7,1.7,0,0,1-1.2,2.2Z" fill="#fff"/><path d="M265.3,218.4a2.9,2.9,0,0,1-2.6-2.3l-1.6-7.6a2.8,2.8,0,0,1,.4-2,1.9,1.9,0,0,1,1.5-.8l6.8-.6a2.8,2.8,0,0,1,2.8,2.3l1.5,7.6a2.1,2.1,0,0,1-.4,2,2.2,2.2,0,0,1-1.4.8l-6.8.6Zm4.7-12.3h-.2l-6.8.5a1.4,1.4,0,0,0-.8.5,1.6,1.6,0,0,0-.2,1.2l1.5,7.6a1.9,1.9,0,0,0,1.8,1.5l6.9-.5a1.4,1.4,0,0,0,.8-.5,1.6,1.6,0,0,0,.2-1.2l-1.6-7.6a1.7,1.7,0,0,0-1.6-1.5Z" fill="#fff"/><path d="M230.1,238.5l-6.8.6a2.4,2.4,0,0,1-2.3-2l-1.5-7.5a1.8,1.8,0,0,1,1.1-2.2h.3l6.8-.6a2.4,2.4,0,0,1,2.3,1.9l1.5,7.5a1.8,1.8,0,0,1-1.1,2.2Z" fill="#fff"/><path d="M223.1,239.5a2.8,2.8,0,0,1-2.6-2.3l-1.5-7.5a2.4,2.4,0,0,1,.4-2,1.8,1.8,0,0,1,1.5-.8l6.8-.6a2.9,2.9,0,0,1,2.8,2.3l1.5,7.6a2.1,2.1,0,0,1-.4,1.9,1.9,1.9,0,0,1-1.4.9l-6.8.5Zm4.7-12.3h-.1l-6.8.6a1.2,1.2,0,0,0-.8.4,1.9,1.9,0,0,0-.2,1.3l1.5,7.5a1.9,1.9,0,0,0,1.8,1.6l6.8-.6a1,1,0,0,0,.8-.4,1.5,1.5,0,0,0,.3-1.3l-1.6-7.5a1.8,1.8,0,0,0-1.6-1.6Z" fill="#fff"/><path d="M245.3,237.2l-6.8.6a2.4,2.4,0,0,1-2.3-1.9l-1.5-7.6a1.8,1.8,0,0,1,1.2-2.2h.3l6.8-.6a2.4,2.4,0,0,1,2.3,1.9l1.5,7.6a1.7,1.7,0,0,1-1.2,2.2Z" fill="#fff"/><path d="M238.4,238.3a3.1,3.1,0,0,1-2.7-2.3l-1.5-7.6a2.8,2.8,0,0,1,.4-2,2.2,2.2,0,0,1,1.5-.8l6.8-.6a2.8,2.8,0,0,1,2.8,2.3l1.5,7.6a2.1,2.1,0,0,1-.4,2,1.8,1.8,0,0,1-1.4.8l-6.8.6Zm4.7-12.3H243l-6.9.5a1.4,1.4,0,0,0-.8.5,1.6,1.6,0,0,0-.2,1.2l1.5,7.6a1.9,1.9,0,0,0,1.8,1.5l6.9-.5a1.4,1.4,0,0,0,.8-.5,1.6,1.6,0,0,0,.2-1.2l-1.5-7.6a2,2,0,0,0-1.7-1.5Z" fill="#fff"/><path d="M260.5,236l-6.8.5a2.4,2.4,0,0,1-2.3-1.9l-1.5-7.5a1.7,1.7,0,0,1,1.1-2.2h.3l6.9-.5a2.1,2.1,0,0,1,2.2,1.9l1.6,7.5a1.8,1.8,0,0,1-1.2,2.2Z" fill="#fff"/><path d="M253.6,237a2.8,2.8,0,0,1-2.6-2.3l-1.6-7.6a2.6,2.6,0,0,1,.4-1.9,2.4,2.4,0,0,1,1.5-.9l6.8-.5a2.7,2.7,0,0,1,2.8,2.3l1.6,7.5a2.8,2.8,0,0,1-.4,2,1.9,1.9,0,0,1-1.5.8h0l-6.8.6Zm4.7-12.3h-.1l-6.8.6a.9.9,0,0,0-.8.4,1.5,1.5,0,0,0-.3,1.3l1.6,7.5a1.9,1.9,0,0,0,1.8,1.6l6.8-.6a1,1,0,0,0,.8-.5,1.6,1.6,0,0,0,.2-1.2l-1.5-7.5a1.8,1.8,0,0,0-1.7-1.6Z" fill="#fff"/><path d="M275.8,234.7l-6.9.6a2.4,2.4,0,0,1-2.3-1.9l-1.5-7.6a1.8,1.8,0,0,1,1.2-2.2h.3l6.8-.6a2.4,2.4,0,0,1,2.3,1.9l1.5,7.6a1.7,1.7,0,0,1-1.2,2.2Z" fill="#fff"/><path d="M268.8,235.7a2.7,2.7,0,0,1-2.6-2.3l-1.6-7.5a2.4,2.4,0,0,1,.5-2,1.6,1.6,0,0,1,1.4-.8l6.8-.6a2.7,2.7,0,0,1,2.8,2.3l1.6,7.5a2.7,2.7,0,0,1-.4,2,1.9,1.9,0,0,1-1.5.8l-6.8.6Zm4.7-12.2h-.1l-6.8.5a1,1,0,0,0-.8.5,1.3,1.3,0,0,0-.3,1.2l1.6,7.6a1.8,1.8,0,0,0,1.8,1.5l6.8-.6a.9.9,0,0,0,.8-.4,1.7,1.7,0,0,0,.2-1.2l-1.5-7.6a1.8,1.8,0,0,0-1.7-1.5Z" fill="#fff"/><path d="M233.6,255.9l-6.8.5a2.4,2.4,0,0,1-2.3-1.9l-1.5-7.6a1.6,1.6,0,0,1,1.2-2.1c0-.1.1-.1.2-.1l6.9-.6a2.3,2.3,0,0,1,2.3,2l1.5,7.5a1.8,1.8,0,0,1-1.2,2.2Z" fill="#fff"/><path d="M226.7,256.9a2.8,2.8,0,0,1-2.6-2.3l-1.6-7.6a2.6,2.6,0,0,1,.4-1.9,1.9,1.9,0,0,1,1.5-.8l6.8-.6A2.7,2.7,0,0,1,234,246l1.5,7.6a2.1,2.1,0,0,1-.3,1.9,1.9,1.9,0,0,1-1.5.8h0l-6.8.6Zm4.7-12.3h-.1l-6.8.6a.9.9,0,0,0-.8.4,1.5,1.5,0,0,0-.3,1.3l1.6,7.5a1.9,1.9,0,0,0,1.8,1.6l6.8-.6a1.2,1.2,0,0,0,.8-.4,1.9,1.9,0,0,0,.2-1.3l-1.5-7.5a2,2,0,0,0-1.7-1.6Z" fill="#fff"/><path d="M248.9,254.6l-6.9.6a2.4,2.4,0,0,1-2.3-1.9l-1.5-7.6a1.7,1.7,0,0,1,1.2-2.2h.3l6.8-.6a2.4,2.4,0,0,1,2.3,1.9l1.5,7.6a1.7,1.7,0,0,1-1.2,2.2Z" fill="#fff"/><path d="M241.9,255.7a2.9,2.9,0,0,1-2.6-2.4l-1.5-7.5a2.4,2.4,0,0,1,.3-2,1.9,1.9,0,0,1,1.5-.8l6.8-.6a2.8,2.8,0,0,1,2.8,2.3l1.6,7.6a2.8,2.8,0,0,1-.4,2,2.8,2.8,0,0,1-1.5.8l-6.8.5Zm4.7-12.3h-.1l-6.8.5a.9.9,0,0,0-.8.5,1.3,1.3,0,0,0-.3,1.2l1.6,7.6a1.8,1.8,0,0,0,1.8,1.5l6.8-.5a1.4,1.4,0,0,0,.8-.5,1.6,1.6,0,0,0,.2-1.2l-1.5-7.6a1.8,1.8,0,0,0-1.7-1.5Z" fill="#fff"/><path d="M264.1,253.4l-6.8.5A2.3,2.3,0,0,1,255,252l-1.5-7.6a1.6,1.6,0,0,1,1.1-2.1h.3l6.8-.6a2.3,2.3,0,0,1,2.3,2l1.5,7.5a1.8,1.8,0,0,1-1.1,2.2Z" fill="#fff"/><path d="M257.1,254.4a2.8,2.8,0,0,1-2.6-2.3l-1.5-7.6a2.4,2.4,0,0,1,.4-2,2.2,2.2,0,0,1,1.4-.8l6.8-.5a2.8,2.8,0,0,1,2.9,2.3L266,251a2.4,2.4,0,0,1-.4,2,1.8,1.8,0,0,1-1.5.8h0l-6.8.6Zm4.7-12.3h-.1l-6.8.6a.9.9,0,0,0-.8.4,1.3,1.3,0,0,0-.2,1.2l1.5,7.6a1.8,1.8,0,0,0,1.8,1.5l6.8-.5a1,1,0,0,0,.8-.5,1.3,1.3,0,0,0,.2-1.2l-1.5-7.5a1.8,1.8,0,0,0-1.7-1.6Z" fill="#fff"/><path d="M279.3,252.1l-6.8.6a2.3,2.3,0,0,1-2.3-2l-1.6-7.5a1.9,1.9,0,0,1,1.2-2.2h.3l6.8-.5a2.4,2.4,0,0,1,2.3,1.9l1.5,7.6a1.6,1.6,0,0,1-1.2,2.1Z" fill="#fff"/><path d="M272.3,253.1a2.8,2.8,0,0,1-2.6-2.3l-1.5-7.5a2.4,2.4,0,0,1,.4-2,1.8,1.8,0,0,1,1.5-.8l6.8-.6a2.8,2.8,0,0,1,2.8,2.3l1.5,7.6a2.4,2.4,0,0,1-.4,2,2.5,2.5,0,0,1-1.4.8h0l-6.9.5Zm4.7-12.3h-.1l-6.8.6a1.2,1.2,0,0,0-.8.4,2,2,0,0,0-.2,1.3l1.5,7.5a1.9,1.9,0,0,0,1.8,1.6l6.8-.6a1.2,1.2,0,0,0,.8-.4,1.4,1.4,0,0,0,.3-1.2l-1.5-7.6a1.9,1.9,0,0,0-1.8-1.5Z" fill="#fff"/><path d="M237.2,273.3l-6.8.5a2.3,2.3,0,0,1-2.3-1.9l-1.6-7.6a1.7,1.7,0,0,1,1.2-2.1h.3l6.8-.5a2.3,2.3,0,0,1,2.3,1.9l1.5,7.5a1.7,1.7,0,0,1-1.2,2.2Z" fill="#eb7264" stroke="#000" stroke-miterlimit="10" stroke-width="0.5"/><path d="M252.4,272l-6.8.6a2.3,2.3,0,0,1-2.3-2l-1.6-7.5a1.9,1.9,0,0,1,1.2-2.2h.3l6.8-.6a2.4,2.4,0,0,1,2.3,1.9l1.5,7.6a1.6,1.6,0,0,1-1.1,2.1Z" fill="#eb7264" stroke="#000" stroke-miterlimit="10" stroke-width="0.5"/><path d="M267.6,270.7l-6.8.6a2.4,2.4,0,0,1-2.3-1.9l-1.5-7.6a1.6,1.6,0,0,1,1.1-2.1h.3l6.8-.6a2.3,2.3,0,0,1,2.3,2l1.6,7.5a1.9,1.9,0,0,1-1.2,2.2Z" fill="#eb7264" stroke="#000" stroke-miterlimit="10" stroke-width="0.5"/><path d="M282.8,269.5l-6.8.6a2.4,2.4,0,0,1-2.3-1.9l-1.5-7.7a1.6,1.6,0,0,1,1.2-2.1h.3l6.8-.6a2.3,2.3,0,0,1,2.3,2l1.5,7.5a1.7,1.7,0,0,1-1.2,2.2Z" fill="#eb7264" stroke="#000" stroke-miterlimit="10" stroke-width="0.5"/><path d="M244.1,208.2a4.8,4.8,0,0,1-4.5-4l-3.1-15.4a3.9,3.9,0,0,1,.6-3.3,3.1,3.1,0,0,1,2.4-1.3l13.9-1.2a5,5,0,0,1,4.8,4l3.1,15.4a4.5,4.5,0,0,1-.7,3.4,3.6,3.6,0,0,1-2.4,1.3h0l-13.8,1.1Zm9.6-25h-.3l-13.9,1.2a2.9,2.9,0,0,0-2.2,1.2,4,4,0,0,0-.6,3.2l3.1,15.3a4.7,4.7,0,0,0,4.6,3.9l13.8-1.2a3,3,0,0,0,2.2-1.2,3.7,3.7,0,0,0,.6-3.2l-3.1-15.3a4.8,4.8,0,0,0-4.2-3.9Z" fill="#273339"/><path d="M244.8,206.5a4.4,4.4,0,0,1-4-3.5l-2.6-13.2a3.3,3.3,0,0,1,.5-2.9,3.2,3.2,0,0,1,2.2-1.2l11.8-.9a4,4,0,0,1,4.2,3.5l2.7,13.1a4,4,0,0,1-.6,3,2.6,2.6,0,0,1-2.1,1.1l-11.9,1Zm8.2-21.3h-.3l-11.8.9a2.5,2.5,0,0,0-1.8,1,3.4,3.4,0,0,0-.5,2.6l2.7,13.1A3.8,3.8,0,0,0,245,206l11.8-.9a2.7,2.7,0,0,0,1.8-1,2.8,2.8,0,0,0,.5-2.6l-2.6-13.2A3.8,3.8,0,0,0,253,185.2Z" fill="#273339"/><path d="M245.7,204.2a3.5,3.5,0,0,1-3.2-2.9l-2.1-10.1a3.1,3.1,0,0,1,.5-2.5,2.4,2.4,0,0,1,1.8-.9l9.1-.8a3.6,3.6,0,0,1,3.5,2.8l2,10.2a3,3,0,0,1-.5,2.4,2,2,0,0,1-1.7.9l-9.2.8Zm6.3-16.5h-.1l-9.2.8a1.5,1.5,0,0,0-1.2.7,2.5,2.5,0,0,0-.4,1.9l2.1,10.1a2.7,2.7,0,0,0,2.7,2.3l9.1-.8a1.7,1.7,0,0,0,1.3-.7,2.1,2.1,0,0,0,.3-1.9l-2-10.1a3,3,0,0,0-2.6-2.3Z" fill="#273339"/><path d="M253.5,201.2l-6.9.6a2.2,2.2,0,0,1-2.2-1.9l-1.6-7.6a1.8,1.8,0,0,1,1.2-2.2h.3l6.8-.6a2.4,2.4,0,0,1,2.3,1.9l1.5,7.6a1.7,1.7,0,0,1-1.2,2.1Z" fill="#eb7264"/><polygon points="298.4 194.8 264.1 194.8 264.1 193.9 298 193.9 317.6 174.9 318.3 175.6 298.4 194.8" fill="#172045"/><rect x="322.6" y="175.1" width="21.7" height="0.94" fill="#b7b7b7"/><rect x="322.6" y="180.1" width="21.7" height="0.94" fill="#b7b7b7"/><rect x="322.6" y="185.1" width="21.7" height="0.94" fill="#b7b7b7"/><rect x="153.1" y="175.1" width="21.7" height="0.94" fill="#b7b7b7"/><rect x="153.1" y="180.1" width="21.7" height="0.94" fill="#b7b7b7"/><rect x="153.1" y="185.1" width="21.7" height="0.94" fill="#b7b7b7"/><rect x="198.4" y="128.1" width="115.8" height="0.94" fill="#b7b7b7"/><rect x="175.2" y="133.1" width="162.1" height="0.94" fill="#b7b7b7"/><rect x="198.4" y="138.1" width="115.8" height="0.94" fill="#b7b7b7"/><rect x="153.1" y="207.5" width="21.7" height="0.94" fill="#b7b7b7"/><rect x="153.1" y="212.5" width="21.7" height="0.94" fill="#b7b7b7"/><rect x="153.1" y="217.5" width="21.7" height="0.94" fill="#b7b7b7"/><rect x="275.9" y="303.9" width="21.7" height="0.94" fill="#b7b7b7"/><rect x="275.9" y="308.9" width="21.7" height="0.94" fill="#b7b7b7"/><rect x="275.9" y="313.9" width="21.7" height="0.94" fill="#b7b7b7"/><polygon points="272.2 310.5 260.4 310.5 260.4 289.4 261.3 289.4 261.3 309.6 272.2 309.6 272.2 310.5" fill="#172045"/><rect x="176.1" y="185.8" width="18.4" height="0.94" fill="#172045"/><rect x="321.9" y="231.2" width="21.7" height="0.94" fill="#b7b7b7"/><rect x="321.9" y="236.2" width="21.7" height="0.94" fill="#b7b7b7"/><rect x="321.9" y="241.2" width="21.7" height="0.94" fill="#b7b7b7"/><circle cx="332.6" cy="212" r="13.7" fill="#eb7264" stroke="#000" stroke-miterlimit="10" stroke-width="0.5"/><rect x="174.9" y="291.9" width="21.7" height="0.94" fill="#b7b7b7"/><rect x="174.9" y="296.9" width="21.7" height="0.94" fill="#b7b7b7"/><rect x="174.9" y="301.9" width="21.7" height="0.94" fill="#b7b7b7"/><circle cx="185.6" cy="272.7" r="13.7" fill="#eb7264" stroke="#000" stroke-miterlimit="10" stroke-width="0.5"/></g><g id="freepik--character-1--inject-2"><path d="M137.1,335.4H55.3l.3-7.5s-6.8-18.4-6.8-34.3c0-12.8,15.7-39.9,21.7-49.7l.3-.5.4-.6,1.6-2.5,54.5,5.3h.7v1.2l-.9,30.1s2.8,14.9,5,30.4C132.9,313.4,134.9,324.3,137.1,335.4Z" fill="#172045"/><path d="M132.6,307.4c-2.1-15-4.8-29.5-5-30.6l1-31.2h-.1c0-.2-.1-.4-.3-.4h-.6l-54.8-5.2a.5.5,0,0,0-.5.3l-1.5,2.3-.3.6-.4.5c-5.9,9.7-21.9,37-21.9,50.2,0,15.2,6.3,32.8,6.8,34.4l-.3,7.3h1.2l.3-7.4v-.2c-.1-.2-6.8-18.5-6.8-34.1,0-12.6,15.6-39.5,21.6-49.3l.3-.5.4-.6,1.4-2.3,53.6,5.1h.7v1.2l-.9,29.4c-.1.1-.1.1,0,.2s2.8,15.1,4.9,30.5c.9,6,2.9,16.9,5.1,27.9h1.1C135.5,324.3,133.4,313.4,132.6,307.4Z"/><path d="M75.6,335.4H74.4l-.3-.9L55.5,312.8a.6.6,0,0,1,.1-.9.5.5,0,0,1,.8.1l18.7,21.8a.4.4,0,0,1,.1.3Z"/><path d="M68.3,135.3s-7.9,19.5-7.7,33.1,11.1,62.2,11.3,64.4-2.9,7.5-1.5,10,14,8.9,33.1,8,23.3-2.3,24.5-5.2a32.6,32.6,0,0,0,2.2-12.3c-.2-4.3-.4-46.5-2.2-53.5s-19.1-28.6-19.1-28.6L78.7,133.7S70.8,131,68.3,135.3Z" fill="#fef1f0"/><path d="M81.9,249.1a32.3,32.3,0,0,0,16.5,2.4A67.9,67.9,0,0,1,81.9,249.1Zm6-109.4.7.4,8.7,5-8-5.2-.6-.4-.5-.3H88l-.7.2h-.1l.7.4Zm42.8,85.4c-.1-1.1-.1-2.4-.1-3.7V220c-.3-14.5-.8-35.5-2-40.4a32.8,32.8,0,0,0-3.4-6.9l-1.2-1.9-1.3-2c-4.2-6.2-9.4-13.1-11.9-16.2-.2-.3-.3-.5-.5-.6l-.5-.7-.4-.5-.2-.2-19-10.9-.7-.4-.7-.4-8.9-5.2-.6-.3-.4-.2h-.3c-1.4-.5-8.4-2.4-10.8,1.9h0s-.5,1.1-1.1,2.8c-.1.2-.1.4-.2.5s-.1.5-.2.7c-2.3,6.4-6.5,19.5-6.3,29.4s6.6,41.4,9.7,56.3c.9,4.4,1.7,7.6,1.7,8.1a11.9,11.9,0,0,1-.9,3.6c-.7,2.3-1.6,4.9-.7,6.6l.3.4.4.4.5.5c1.9,1.5,5.7,3.3,10.9,4.7a44.8,44.8,0,0,1-4.4-2h0a36.4,36.4,0,0,1-5.8-3.8l-.5-.5-.3-.2v-.2c-.6-1.3.2-3.6.8-5.6a9,9,0,0,0,.9-4c0-.5-.5-3.1-1.6-8.2-3.1-14.9-9.5-45.8-9.7-56.2s3.9-22.5,6.2-28.9a1.4,1.4,0,0,1,.2-.6h0c.1-.2.1-.4.2-.5l1.1-2.8c.9-1.7,2.9-2.2,4.8-2.2a19.3,19.3,0,0,1,4.7.8h.1l8.7,5.1.7.4h0l.7.4,8.7,5,11.2,6.5,1.1,1.4.5.7.5.5c2,2.6,5.1,6.7,8.1,11,.6.7,1.1,1.5,1.6,2.2l1.5,2.2h0c2.7,4.2,5,8.1,5.6,10.3,1.2,4.7,1.7,25.1,2,39.5v1.4c0,1.5.1,3,.1,4.4.1,4.2.2,7.1.2,8.2a33,33,0,0,1-2.1,11.6l-.2.4v.2a1,1,0,0,1-.6.5c-2,.8-7.9-1.5-23.3,4.1l-1.9.6-3.1.7h1.5l3.5-.2c16.1-.7,21.7-1.8,24-3.9l.5-.6a6,6,0,0,0,.6-1.1v-.2a30.6,30.6,0,0,0,2.3-12.3C130.8,232.2,130.7,229.3,130.7,225.1Z"/><path d="M136.6,73.6s11.1,9.5,10.2,16.8-5,5-9.7,18.9-8.4,19.7-5.9,26.7,4.9,8.4,4.9,8.4-4.7,5.9-15.4,2.5-15.9-8-15.9-10.4,3.4-4.3,3.4-4.3,6.4,3.1,9.1,1.3A32.6,32.6,0,0,0,130,118.3c4.1-9.3,7.5-22,7.1-24s-8.6-16.1-8.6-16.1Z" fill="#172045"/><path d="M137.6,94.1c-.4-1.6-5.3-10.3-7.6-14.3l-.3-.5-.3-.5-.4.2.3.5-.6.3.3.5c3.2,5.6,7.2,12.8,7.5,14.1v.9a13.7,13.7,0,0,1-.2,1.6,122.4,122.4,0,0,1-6.8,21.2A33,33,0,0,1,117,133c-1.4,1-4.3.3-6.4-.5l-.4.5-.5-.2-.4.5.6.2c2.2.8,5.7,1.8,7.6.5a34,34,0,0,0,13-15.5A114.5,114.5,0,0,0,137,98.6c.2-.8.4-1.5.5-2.1A10.6,10.6,0,0,0,137.6,94.1Zm.6-19.8-.4-.4-.5-.4-.3-.3a.6.6,0,0,0-.7-.1l-6.4,3.6-.5.3-.6.3-.7.3-.2.4a.5.5,0,0,0,0,.5,2.2,2.2,0,0,1,.5.8l.3.5.3.5c3.2,5.6,7.2,12.8,7.5,14.1v.9a13.7,13.7,0,0,1-.2,1.6,122.4,122.4,0,0,1-6.8,21.2A33,33,0,0,1,117,133c-1.4,1-4.3.3-6.4-.5l-.6-.2-.6-.3-.9-.4H108a15.3,15.3,0,0,0-2.5,1.9l-.3.5-.3.4a3.7,3.7,0,0,0-.6,2.1,5,5,0,0,0,1.5,3l.4.5.5.4c2.6,2.4,7.3,5,13.8,7.1a23.9,23.9,0,0,0,6.6,1c6.4,0,9.4-3.5,9.5-3.7a.9.9,0,0,0,.1-.5c0-.2-.1-.3-.3-.4s-2.3-1.4-4.7-8.1c-1.7-4.7-.5-8.9,2-15.7h0c.3-.8.7-1.7,1-2.6s.7-1.9,1.1-3,1.2-3.2,1.8-5.1c2.5-7.3,4.9-10,6.6-12.1a11.4,11.4,0,0,0,3.2-6.8C148.2,84.4,141.1,77,138.2,74.3Zm8,16a9.6,9.6,0,0,1-3,6.2,34.6,34.6,0,0,0-3.7,5.4,27.4,27.4,0,0,0-1.8,3.8l-1.2,3.3c-.7,2-1.4,3.8-2,5.4a20,20,0,0,1-1,2.6l-.9,2.5-.9,2.7a11.8,11.8,0,0,0-.7,2c-1.4,4.5-1.8,8.1-.4,12s3.7,7.4,4.7,8.3c-1.4,1.2-5.9,4.5-14.4,1.8-7-2.2-11.5-4.9-13.8-7.1l-.4-.4-.5-.6a3.2,3.2,0,0,1-.8-1.7,2.4,2.4,0,0,1,.5-1.4.9.9,0,0,1,.3-.5l.4-.5a7.7,7.7,0,0,1,1.7-1.3l.5.2.5.3.6.2c2.2.8,5.7,1.8,7.6.5a34,34,0,0,0,13-15.5A114.5,114.5,0,0,0,137,98.6c.2-.8.4-1.5.5-2.1a10.6,10.6,0,0,0,.1-2.4c-.4-1.6-5.3-10.3-7.6-14.3l-.3-.5-.3-.5c-.1-.2-.1-.3-.2-.4h.2l.6-.4.6-.3,5-2.8.9-.5.3.3.4.4C139.9,77.6,146.9,84.8,146.2,90.3Z"/><path d="M110.3,131.9a21.9,21.9,0,0,0-3.4,6.4,32.7,32.7,0,0,0-2.1,7.4L81.7,131.2l7.5-15.6Z" fill="#fff"/><path d="M110.6,131.5,94.9,119.3l-.5-.4c0,.2-.1.4-.1.6l-.5-.4c-.1.2-.1.4-.2.6l.5.4.5.4L109.5,132h-.1l-.3.6-.3.4.5.3.4-.5.5.2.4-.5v-.2l.2-.4C110.9,131.7,110.8,131.6,110.6,131.5Zm0,0L94.9,119.3l-.5-.4-.5-.4-3.4-2.6-.5-.4-.5-.4h-.4c-.2.1-.4.2-.4.4L81.2,131a.5.5,0,0,0,0,.5l.2.3h.2l.6.4,9.2,5.7.5.4.6.4,12,7.5h.6a.5.5,0,0,0,.3-.5,23.3,23.3,0,0,1,.8-3.6c0-.2.1-.4.1-.6s.1-.4.2-.6.1-.4.2-.6.1-.4.2-.6a1.4,1.4,0,0,0,.2-.6l.3-.7.9-2c.1-.2.1-.4.2-.6l.3-.5,1.1-1.9.3-.5.4-.5v-.2l.2-.4C110.9,131.7,110.8,131.6,110.6,131.5Zm-1.2.5-.3.6-.3.4a16.2,16.2,0,0,0-1,1.8l-.3.6-.3.5-.9,2.1c0,.1,0,.2-.1.2a1.4,1.4,0,0,1-.2.7l-.2.6-.3.8-.2.6c-.1.2-.1.4-.2.6a30.1,30.1,0,0,0-.7,3.2l-10.6-6.6-.6-.3-.5-.4-9.4-5.9-.6-.3-.3-.2.2-.5L89,117.3l.4-.8.3.2.5.4,3.4,2.6.5.4.5.4L109.5,132Z"/><polygon points="86.9 128.5 111.2 144.8 110.1 154.2 78.7 133.7 86.9 128.5" fill="#fff"/><path d="M88.1,139.1h0Zm23.4,5.2-5-3.3-.5-.4-.5-.3L94.7,133l-1.2-.8-.8-.5L87.2,128h-.6l-4,2.5-.8.6-.6.4-2.6,1.6h-.2c0,.1-.1.1-.2.2v.2a.5.5,0,0,0,.2.6h.1l8,5.3.6.4.7.4,21.9,14.3h.5a.7.7,0,0,0,.4-.5h0v-1.6l1-7.7A.9.9,0,0,0,111.5,144.3Zm-1.8,7.9v.8h0l-12.3-8-8-5.2-.6-.4-.5-.3h-.1l-8.3-5.4h.1l2.3-1.4.6-.4.5-.4,3.7-2.3,6.8,4.7,2.3,1.5.6.4,8.4,5.7.5.3.6.4,4.4,2.9-.8,6.2Z"/><path d="M129.1,76.6s11.1,17,10.9,20.1-4.1,14.1-5.2,19.1-6.6,11.1-11.4,15.9-6.5,6.3-9.3,6.3-8.8-3.8-12.7-6.5-12-13.7-12-13.7,6.1-26,10-30.8S129.1,76.6,129.1,76.6Z" fill="#fff"/><path d="M131.4,78.9l-.3-.5-.3-.4c-.1-.2-.2-.3-.2-.4l-.3-.4-.4-.5-.2-.4c-.2-.2-.4-.4-.6-.3S102.9,81.8,99,86.6s-7.8,21.8-9.5,28.5c0,.2-.1.4-.1.6l-.4,1.6a1,1,0,0,0-.1.4.7.7,0,0,0,.1.5l3.9,5,.5.6.5.6c2.5,3,5.3,6.2,7.3,7.5a29,29,0,0,0,3.7,2.5l.5.4.5.3,1.3.8.5.3.6.3c2.2,1.2,4.4,2.1,5.8,2.1,3,0,4.8-1.6,9.8-6.5a67,67,0,0,0,7.1-7.9l1.3-1.8c.5-.8,1-1.5,1.4-2.3h0a12,12,0,0,0,1.7-4.2c.1-.4.2-.8.4-1.4s1.3-4.4,2-6.9a10.9,10.9,0,0,0,.5-1.7h0c.5-1.4.9-2.8,1.2-4a37.9,37.9,0,0,0,1.2-5.1C140.8,94.2,134.6,84,131.4,78.9Zm3.1,35.5-.3,1.3a16.4,16.4,0,0,1-1.6,3.8c-1.8,3.2-4.9,7.1-9.6,11.8s-6.5,6.2-8.9,6.2-3.1-.9-5.3-2.1l-.5-.3-.5-.3-1.2-.7-.5-.3-.6-.3-3.7-2.5c-2-1.4-5.1-5-7.7-8.1l-.4-.6-.5-.5-3.1-4.1a1.8,1.8,0,0,1,.1-.6,1.4,1.4,0,0,1,.2-.6,1.3,1.3,0,0,1,.1-.6c1.5-6.3,6.3-24.8,9.3-28.5s25.7-9.4,28.9-10.2h.1l.3.5.3.5.3.3.3.5.3.5c4.2,6.6,9.2,15.2,9.1,17.1a97.3,97.3,0,0,1-2.8,10.6C135.8,109.9,135,112.4,134.5,114.4Z"/><path d="M138.6,73.2s-5.2,4.7-16.7,10.2S102.1,92,99.4,100.2s-7.2,26-6.6,29.9a7.3,7.3,0,0,0,3.4,5.2s-2.3,4.3-14.7,5.4S57.4,136,55.8,125.3s2.3-22.7,6.4-29.7S73.1,80.9,78.1,72s21.3-16.9,37.2-13.8S141.1,68.9,138.6,73.2Z" fill="#172045"/><path d="M129.3,79.5,129,79l-.6.3c-1.9,1.1-4.2,2.3-6.7,3.5l-2.9,1.3c-10,4.7-17.3,8.1-19.9,15.8-1.5,4.6-3.6,12.1-5,18.6a1.3,1.3,0,0,0-.1.6l.5.4c0-.2.1-.4.1-.6l.5.4c1.4-6.4,3.4-14,5.1-19,2.4-7.3,9.5-10.6,19.3-15.1l2.8-1.4c2.6-1.2,4.9-2.4,6.9-3.5l-.3-.5Zm9.9-9.6c-2.2-4.9-12-10-23.8-12.3-15.8-3.2-32.6,4.9-37.8,14.1a156.6,156.6,0,0,1-9,13.4c-2.6,3.6-5,7-6.9,10.2-4.3,7.5-8,19.7-6.4,30.1.9,6.1,5,10.9,11,13.7l.5.2.6.2a29,29,0,0,0,10.9,2l3.3-.2a42.4,42.4,0,0,0,6.2-1l.8-.2h0l.7-.2h.1l.8-.2,2.3-.9.7-.4.6-.3a9,9,0,0,0,2.9-2.3c0-.2.1-.2.1-.3a.2.2,0,0,0,0-.3h0c0-.2-.1-.3-.3-.4a4.9,4.9,0,0,1-1.8-1.7,6.6,6.6,0,0,1-1.3-3.1,17.8,17.8,0,0,1,.5-5.5c0-.3.1-.5.1-.7s.1-.5.1-.8.3-1.6.5-2.4.1-.4.2-.6a1.3,1.3,0,0,1,.1-.6c1.4-6.4,3.4-14,5.1-19,2.4-7.3,9.5-10.6,19.3-15.1l2.8-1.4c2.6-1.2,4.9-2.4,6.9-3.5l.5-.3.5-.2.3-.2.5-.3.6-.4a46.7,46.7,0,0,0,5.8-3.9,1,1,0,0,0,.5-.4l.5-.3.9-.8h.1A3.6,3.6,0,0,0,139.2,69.9Zm-1,2.9-.9.7-.4.4-1.3.9a56.5,56.5,0,0,1-4.8,3.2l-.6.3-.5.3-.3.2-.4.2-.6.3c-1.9,1.1-4.2,2.3-6.7,3.5l-2.9,1.3c-10,4.7-17.3,8.1-19.9,15.8-1.5,4.6-3.6,12.1-5,18.6a1.3,1.3,0,0,0-.1.6c-.1.2-.1.4-.2.6s-.3,1.4-.4,2.1-.1.5-.1.7-.1.5-.2.7a29.9,29.9,0,0,0-.6,7,8.3,8.3,0,0,0,.4,1.5,4.2,4.2,0,0,0,.4,1l.7,1.2,1.6,1.6a11.2,11.2,0,0,1-2.7,1.9l-.7.3-.6.3-2.6.9-.7.2H88l-.7.2h-.1l-.7.2-5,.7a30.1,30.1,0,0,1-13.7-1.8l-.6-.2-.5-.3c-5.6-2.5-9.4-7-10.2-12.6-1.5-10.2,2-22.1,6.3-29.4a112.1,112.1,0,0,1,6.8-10.1,121.8,121.8,0,0,0,9-13.5c4.2-7.5,16.6-14.2,29.5-14.2a33.5,33.5,0,0,1,7.1.7c12.7,2.6,21.2,7.8,22.9,11.6A2.9,2.9,0,0,1,138.2,72.8Z"/><path d="M186.9,160.9s2.2-5.3,2.2-8.1,0-7.8.9-9.1,3.1-2.8,4.4-5.6.6-5,2.8-4.1.6,5.4.6,5.4l7.5-6.6s5.6-7.8,7.5-6.2-.7,5.6-2.5,7.4a23.6,23.6,0,0,0-3.5,5.9,12.3,12.3,0,0,1,4.8,4.8c1.2,2.8,2.1,5.9.3,9.3s-6.6,6.6-9.7,7.8a18.8,18.8,0,0,0-5.6,4.1Z" fill="#fff"/><path d="M207.5,139.7a21.7,21.7,0,0,1,3.1-5.3c1.4-1.4,3.5-4.2,3.4-6.5a2.4,2.4,0,0,0-.9-1.8,1.7,1.7,0,0,0-1.2-.4c-2.4.3-6.4,5.8-7.1,6.7l-6,5.2c.2-1.5.2-3.4-1.4-4.1a2.1,2.1,0,0,0-1.7-.2c-.7.4-.9,1.2-1.1,2.2a15.5,15.5,0,0,1-.8,2.3,14.3,14.3,0,0,1-3.1,4.2l-1.2,1.3c-.9,1.4-1,5.4-1,9.5a22.7,22.7,0,0,1-1.5,6.1,12362528204874,12362528204874,0,0,1-.4,1.2l-.3.5a.8.8,0,0,0,.3.8l9.2,4.7.5.3h.3c.1,0,.2,0,.3-.2l.2-.2a19,19,0,0,1,5.2-3.7c2.9-1.1,7.9-4.2,10-8s1-6.9-.3-9.9A11.3,11.3,0,0,0,207.5,139.7Zm-11.1,25.4-.3-.2-4.9-2.5-3.6-1.8h0c.1-.2.1-.3.2-.4s.1-.4.2-.6a24.6,24.6,0,0,0,1.6-6.9c0-2.3,0-7.6.9-8.7l1-1.2a14.9,14.9,0,0,0,3.4-4.5,25.8,25.8,0,0,0,.8-2.6l.5-1.3c0-.1.2-.1.7.1s.7,3.6.3,4.6v.2h0c0,.2.1.3.2.5h.8l.2-.3,7.3-6.3h0c1.6-2.3,4.9-6,6.4-6.2h.3a1.2,1.2,0,0,1,.4,1c.1,1.6-1.4,4.1-3,5.6a20.6,20.6,0,0,0-3.5,6.1.7.7,0,0,0,.3.8,11.6,11.6,0,0,1,4.4,4.4c1.2,2.7,2,5.7.3,8.8s-6.1,6.2-9.3,7.5A18.2,18.2,0,0,0,196.4,165.1Z"/><path d="M193.1,145.2h-.4a.6.6,0,0,1,0-.8h0l4.8-5.3a.5.5,0,0,1,.8-.1.6.6,0,0,1,0,.8l-4.7,5.3C193.5,145.2,193.3,145.2,193.1,145.2Z"/><path d="M76.5,153.4s-5.6,25.2-1.9,30.3,61.5,43,65.2,40.5,30.9-20.6,41.5-33.7a107.4,107.4,0,0,0,15.2-24.6l-10.9-7.2s-19.3,16.5-28,23.1-12.5,8.4-12.5,8.4-28.7-26.5-35.8-32.7-14.4-11.2-22.8-10Z" fill="#fef1f0"/><path d="M139.4,224.8c-8.3,0-62.4-37.1-65.2-40.8s1.5-29.7,1.7-30.7a.6.6,0,0,1,.7-.4h0a.5.5,0,0,1,.5.6c-1.5,7-4.9,25.9-2,29.8,1.7,2.3,16.2,12.5,32.2,22.8,20.3,12.9,30.9,18.2,32.2,17.6,7.2-4.8,31.5-21.5,41.3-33.5a115.6,115.6,0,0,0,15-24.1l-10.1-6.6c-2.7,2.2-19.8,16.8-27.8,22.8s-12.4,8.4-12.6,8.4a.5.5,0,0,1-.6-.1c-.3-.2-28.8-26.5-35.9-32.7s-14.5-11-22.2-9.8c-.4,0-.7-.2-.7-.5s.2-.6.5-.7c8.2-1.2,15.2,3.2,23.2,10.1s32.5,29.6,35.6,32.5a110.4,110.4,0,0,0,12-8.2c8.7-6.5,27.9-22.9,28.1-23a.5.5,0,0,1,.7,0l10.9,7.1a.8.8,0,0,1,.2.8,108.4,108.4,0,0,1-15.3,24.7c-9.6,11.9-32.3,27.6-41.6,33.8A1.1,1.1,0,0,1,139.4,224.8Z"/><path d="M92.3,198.6A196.3,196.3,0,0,1,72.1,197a.7.7,0,0,1-.5-.7h0a.7.7,0,0,1,.7-.5h0c.1,0,13.8,1.9,22,1.6a.6.6,0,0,1,.6.5.7.7,0,0,1-.5.7H92.3Z" fill="#273339"/><path d="M80.3,206.7a.6.6,0,0,1-.6-.5.6.6,0,0,1,.4-.7c7.1-1.5,13.9-3.7,14-3.7a.6.6,0,0,1,.8.4.6.6,0,0,1-.4.7s-7,2.2-14.1,3.8Z" fill="#273339"/><path d="M190.3,175.2l-.4-.2-11.2-9a.6.6,0,1,1,.8-.9l11.2,9a.6.6,0,0,1,.1.8A.5.5,0,0,1,190.3,175.2Z" fill="#273339"/><line x1="145.1" y1="190.2" x2="138.9" y2="194.8" fill="none"/><path d="M138.9,195.5a.5.5,0,0,1-.5-.3.6.6,0,0,1,.1-.8h0l6.3-4.7a.6.6,0,0,1,.8.1.6.6,0,0,1-.1.8l-6.3,4.8Z" fill="#273339"/></g><path d="M361.4,77.5h17.9c1.3,0,1.8.6,1.8,1.8v32.8c0,1.2-.5,1.8-1.8,1.8h-1.5c-.4,0-.5.1-.5.5v2.4a1.6,1.6,0,0,1-1.6,1.7h-1.9c-.2,0-.3,0-.3.3v2.6a1.5,1.5,0,0,1-1.6,1.6H335.7a1.5,1.5,0,0,1-1.6-1.6V88.3a1.5,1.5,0,0,1,1.6-1.7h1.7c.4,0,.5-.1.5-.5V83.7a1.6,1.6,0,0,1,1.6-1.7h1.9q.3.1.3-.3V79.2a1.5,1.5,0,0,1,1.7-1.7Zm-7.6,44h17.7c.4,0,.5-.1.5-.5V98.4c0-.3-.1-.4-.5-.4H336.1c-.4,0-.5.1-.5.5V121c0,.4.1.5.5.5Zm0-25h17.7c.4,0,.5-.1.5-.5V88.6c0-.4-.1-.5-.5-.5H336.1c-.4,0-.5.1-.5.5V96c0,.4.1.5.5.5ZM361.4,79H343.7c-.5,0-.5.1-.5.5v2c-.1.4,0,.6.5.5h31.8c1.3,0,1.8.6,1.8,1.9v28.2a.3.3,0,0,0,.3.3h1.5c.4,0,.5-.1.5-.5V79.5c0-.4-.1-.5-.5-.5Zm-3.7,4.6H339.8c-.3,0-.4.1-.4.5v2.1c0,.4.1.5.5.5h31.8c1.3,0,1.8.5,1.8,1.8v27.8c0,.1.1.2,0,.3s.1.5.5.5h1.3c.4,0,.5-.1.5-.5V84c0-.4-.1-.5-.5-.5Z" fill="#162143"/><path d="M353.8,121.5H336.1c-.4,0-.5-.1-.5-.5V98.5c0-.4.1-.5.5-.5h35.4c.4,0,.5.1.5.4V121c0,.4-.1.5-.5.5Zm-5.3-11.8v-8.4c0-.8-.3-1-1-1h-8.6c-.8,0-1,.2-1,1v16.9c0,.8.2,1,1,1h8.6c.8,0,1-.2,1-1Zm12.2-9.4h-8.2c-.7,0-1,.2-1,.9v3.4c0,.7.3,1,1,1h16.3c.7,0,.9-.3.9-1v-3.3c0-.8-.2-1-1-1Zm-.1,6.8h-8.1c-.7,0-1,.3-1,.9v3.4c0,.7.3,1,1,1h16.3c.7,0,.9-.3.9-.9v-3.4c0-.8-.2-1-1-1Zm.1,6.8h-8.2c-.7,0-1,.3-1,.9v3.5c0,.7.3.9,1,.9h16.3c.7,0,.9-.2.9-.9v-3.4c0-.8-.2-1-1-1Z" fill="#fff"/><path d="M353.8,96.5H336.1c-.4,0-.5-.1-.5-.5V88.6c0-.4.1-.5.5-.5h35.4c.4,0,.5.1.5.5V96c0,.4-.1.5-.5.5Zm-10.6-1.6h2.9c.6,0,.9-.2.9-.8V90.5a.8.8,0,0,0-.9-.9h-5.8a.8.8,0,0,0-.9.9V94c0,.7.3.9.9.9Zm10.6-3c-.8,0-.8,0-.8.7s0,.8.9.8.7,0,.7-.7S354.6,91.9,353.8,91.9Zm4.5,0c-.7,0-.7,0-.7.6s0,.9.6.9.9,0,.9-.6S359.1,91.9,358.3,91.9Zm4.6,0c-.7,0-.7,0-.7.7s0,.8.8.8.7,0,.7-.7S363.7,91.9,362.9,91.9Zm5.3.8c0-.8,0-.8-.6-.8s-.9,0-.9.6,0,.9.6.9S368.2,93.4,368.2,92.7Z" fill="#f37366"/><path d="M361.4,79h17.7c.4,0,.5.1.5.5v32.4c0,.4-.1.5-.5.5h-1.5a.3.3,0,0,1-.3-.3V83.9c0-1.3-.5-1.9-1.8-1.9H343.7c-.5.1-.6-.1-.5-.5v-2c0-.4,0-.5.5-.5Z" fill="#fff"/><path d="M357.7,83.6h17.6c.4,0,.5.1.5.5v32.5c0,.4-.1.5-.5.5H374c-.4,0-.5-.2-.5-.5s0-.2,0-.3V88.4c0-1.3-.5-1.8-1.8-1.8H339.9c-.4,0-.5-.1-.5-.5V84c0-.4.1-.5.4-.5Z" fill="#2fa5dd"/><path d="M348.5,109.7v8.5c0,.8-.2,1-1,1h-8.6c-.8,0-1-.2-1-1V101.3c0-.8.2-1,1-1h8.6c.7,0,1,.2,1,1Zm-9.1,0v7.6c0,.3.1.4.4.4h6.7c.4,0,.5-.1.5-.4V102.2c0-.4-.1-.4-.4-.4h-6.8c-.3,0-.4,0-.4.4Z" fill="#010101"/><path d="M360.7,100.3h8c.8,0,1,.2,1,1v3.3c0,.7-.2,1-.9,1H352.5c-.7,0-1-.3-1-1v-3.4c0-.7.3-.9,1-.9Zm-.1,1.5h-7.2c-.3,0-.4,0-.4.4a3.3,3.3,0,0,1,0,1.4c0,.4.1.5.5.5h14.3c.4,0,.4-.1.4-.4v-1.5c.1-.4-.1-.4-.4-.4Z" fill="#010101"/><path d="M360.6,107.1h8.1c.8,0,1,.2,1,1v3.4c0,.6-.2.9-.9.9H352.5c-.7,0-1-.3-1-1V108c0-.6.3-.9,1-.9Zm0,3.8h7.2c.4,0,.4-.1.4-.4V109c.1-.3-.1-.4-.4-.4H353.4c-.3,0-.4.1-.4.4a3.8,3.8,0,0,1,0,1.5c0,.3.1.4.5.4Z" fill="#010101"/><path d="M360.7,113.9h8c.8,0,1,.2,1,1v3.4c0,.7-.2.9-.9.9H352.5c-.7,0-1-.2-1-.9v-3.5c0-.6.3-.9,1-.9Zm0,1.5h-7.2c-.4,0-.5.1-.5.4a3.8,3.8,0,0,1,0,1.5c0,.3.1.4.5.4h14.4c.3,0,.3-.1.3-.3v-1.6c.1-.3-.1-.4-.4-.4Z" fill="#010101"/><path d="M343.2,94.9h-2.9c-.6,0-.9-.2-.9-.9V90.5a.8.8,0,0,1,.9-.9h5.8a.8.8,0,0,1,.9.9v3.6c0,.6-.3.8-.9.8Zm0-3.8a13.4,13.4,0,0,1-2,0,.3.3,0,0,0-.3.3v1.7c0,.3.1.3.3.3h4c.2,0,.3,0,.3-.3a4.8,4.8,0,0,1,0-1.7.3.3,0,0,0-.3-.3A13.3,13.3,0,0,1,343.2,91.1Z" fill="#010101"/><path d="M353.8,91.9c.8,0,.8,0,.8.8s0,.7-.7.7-.9,0-.9-.8S353,91.9,353.8,91.9Z" fill="#010101"/><path d="M358.3,91.9c.8,0,.8,0,.8.9s0,.6-.9.6-.6,0-.6-.9S357.6,91.9,358.3,91.9Z" fill="#010101"/><path d="M362.9,91.9c.8,0,.8,0,.8.8s0,.7-.7.7-.8,0-.8-.8S362.2,91.9,362.9,91.9Z" fill="#010101"/><path d="M368.2,92.7c0,.7,0,.7-.9.7s-.6,0-.6-.9,0-.6.9-.6S368.2,91.9,368.2,92.7Z" fill="#010101"/><path d="M339.4,109.7v-7.5c0-.4.1-.4.4-.4h6.8c.3,0,.4,0,.4.4v15.1c0,.3-.1.4-.5.4h-6.7c-.3,0-.4-.1-.4-.4Z" fill="#cbdaef"/><path d="M360.6,101.8h7.2c.3,0,.5,0,.4.4v1.5c0,.3,0,.4-.4.4H353.5c-.4,0-.5-.1-.5-.5a3.3,3.3,0,0,0,0-1.4c0-.4.1-.4.4-.4Z" fill="#cbdaef"/><path d="M360.6,110.9h-7.1c-.4,0-.5-.1-.5-.4a3.8,3.8,0,0,0,0-1.5c0-.3.1-.4.4-.4h14.4c.3,0,.5.1.4.4v1.5c0,.3,0,.4-.4.4Z" fill="#cbdaef"/><path d="M360.7,115.4h7.1c.3,0,.5.1.4.4v1.6c0,.2,0,.3-.3.3H353.5c-.4,0-.5-.1-.5-.4a3.8,3.8,0,0,0,0-1.5c0-.3.1-.4.5-.4Z" fill="#cbdaef"/><path d="M343.2,91.1a13.3,13.3,0,0,0,2,0,.3.3,0,0,1,.3.3,4.8,4.8,0,0,0,0,1.7c0,.3-.1.3-.3.3h-4c-.2,0-.3,0-.3-.3V91.4a.3.3,0,0,1,.3-.3A13.4,13.4,0,0,0,343.2,91.1Z" fill="#cbdaef"/></svg>