<svg id="Layer_1" data-name="Layer 1" xmlns="http://www.w3.org/2000/svg" viewBox="0 0 449.4 383.1"><path d="M113,89.3c-.8,45.7-68.8,45.7-69.6-.1C44.2,43.5,112.2,43.5,113,89.3Z" fill="#f1efef"/><path d="M80.7,166c63-39.9,147.3,27.8,115.5,98.1-18,41.2-63.7,46-68,46.4C44.5,320.2,7.4,212.1,80.7,166Z" fill="#f1efef"/><path d="M183.9,38.8C314.7-70.3,502.2,117.9,363.6,252.9c-10.9,12.8-45.8,35.5-69.2,18.9-20.6-16.1,2.9-56.6-20.1-87.7-19.3-29.3-53.5-15.4-83.5-39.4C161.7,116.8,157,76.8,183.9,38.8Z" fill="#f1efef"/><g id="freepik--Floor--inject-26"><path d="M16.5,335.3c135.1-.6,286.6-.6,421.6,0C303.1,335.9,151.6,335.9,16.5,335.3Z" fill="#273339"/></g><rect x="207.88" y="199.19" width="39.4" height="58.48" transform="translate(-59.48 375.29) rotate(-72.2)" fill="#c9c9c9"/><path d="M261.5,219.1l-.7.4-2,.8-7.3,3.1-24.4,10h-.2v-.2l-.3-.4-14.7-22.3c-1.8-2.9-3.3-5.2-4.4-6.8l-1.2-1.9-.3-.7a4.38,4.38,0,0,1,.4.7c.3.4.8,1,1.3,1.8l4.5,6.7L227,232.6l.3.4h-.4l24.5-9.8,7.4-3,2-.7Z" fill="#8e8e8e"/><path d="M193.8,238.8c-.1-.1,5.7-3.9,13-8.5s13.3-8.2,13.3-8-5.7,3.9-13,8.4S193.9,238.9,193.8,238.8Z" fill="#8e8e8e"/><path d="M238.8,227.7c.1,0,2.6,6.4,5.6,14.4s5.2,14.5,5.1,14.6-2.7-6.4-5.6-14.4S238.7,227.8,238.8,227.7Z" fill="#8e8e8e"/><g id="freepik--Character--inject-151"><path d="M37.1,160.2,56,153.5l-8.1-10.9a46.89,46.89,0,0,1-.6-7.3,11.61,11.61,0,0,1,.6-3.7,16,16,0,0,1,2-4.2,1.51,1.51,0,0,0-.1-2.1,1.68,1.68,0,0,0-1.2-.4c-1.4.4-3.8,3.4-5,7.9s-4.2-2.1-5.3-4.5-5.1-9.6-6.1-9.8-2.1,1.2-.9,3.5,4.4,9.7,3.1,10.3-7.1-11.7-7.1-11.7-.8-2.8-2.3-2.2,4.4,13.6,5.1,14.7-.9,1.5-1.4.6-5.4-12.3-8.2-11.3,5.7,10.4,5.4,13.3-5.2-7.8-7.2-7-1.3.7,2.5,6.5a73.11,73.11,0,0,0,6,7.8h0l9.9,17.2" fill="#fff" stroke="#000" stroke-miterlimit="10" stroke-width="0.5"/><path d="M95,335.6s88.2,1.1,112.4-.7l-18.6-65.5-2.5-26h-62s-18.4,8.4-21.4,49.3S95,335.6,95,335.6Z" fill="#172045"/><path d="M207.9,183.4s-9.4-21.9-15.8-32.5-14.2-11.6-18.5-12a33.27,33.27,0,0,0-5.5-1.1l-35.1-.3a33.44,33.44,0,0,0-21,7.7c-1.6,1.4-13.7,15.4-29.9,35.5L53.9,150.2l-16.8,9.9s18.3,63.1,41.2,58.8c13.6-2.6,24.2-12,24.2-12l17.8-14.4.5,2.4a89.66,89.66,0,0,0,1.9,10.4c2.2,9.1,3.4,20.9-1.3,28.8,0,0-6.4,4.8-1.3,10.2h66.1s9.4-6.4.8-13.4l-5.3-13.4,3.5-16.4,1.3-6.6,5.8,10s11.6,14.5,23.5,12.7c14.4-2.1,22.8-28.4,9.8-63.1l-15.7,4.8Z" fill="#fef4f3" stroke="#000" stroke-miterlimit="10" stroke-width="0.5"/><polygon points="37.1 160.2 38.7 165.4 57.4 154 53.9 150.2 37.1 160.2" fill="#f8d5d4" stroke="#000" stroke-miterlimit="10" stroke-width="0.25"/><path d="M122.4,234.1a21.31,21.31,0,0,0,13.9-8.6,21.88,21.88,0,0,0,4-16.2,7.32,7.32,0,0,0-2.8-5.2c-2.1-1.3-4.9-.7-7.1-1.8s-2.7-2.9-4-4.5-2.9-4-4.7-3.3c0,0,2.2,11.7,3.1,16.9s1.4,12.7-.5,18.2A28.23,28.23,0,0,1,122.4,234.1Z" fill="#feeae9"/><path d="M79.4,191.4a17.81,17.81,0,0,1,1-5.5,36.34,36.34,0,0,1,1.7-5.3,16.61,16.61,0,0,1-1,5.5A33,33,0,0,1,79.4,191.4Z" fill="#273339"/><path d="M83.6,188.6a23.72,23.72,0,0,1-1.6-7.9,12.71,12.71,0,0,1,1.2,3.9A13.15,13.15,0,0,1,83.6,188.6Z" fill="#273339"/><polygon points="209.8 111.3 185.8 150.2 204.7 155.5 225.6 123.2 209.8 111.3" fill="#f3bebd"/><path d="M208.3,144.5l.8,5.7,3.4,4.3.3,3.5,12-3.7L220,137.1a41,41,0,0,0,.5-7l-3.4,4.3-.9-7.1-6.8-5.5a1.6,1.6,0,0,0-2.24.32l-.06.08h0a1.6,1.6,0,0,0,.2,2.1l5.4,4.8.4,6-4-3.7a2.67,2.67,0,0,0-1.4-.7l-5.5-1.1a1.3,1.3,0,0,0-1.57,1l0,.15a.09.09,0,0,1-.1.1h0a1.79,1.79,0,0,0,1,1.6l5,1.5,5.1,5.1-5-1.9-6.7.9a1.4,1.4,0,0,0-1.1,1.4h0a1.3,1.3,0,0,0,1.3,1.3h0l4.3-.3,2.5.8-5.7,1.6a1.1,1.1,0,0,0-.9,1.1h0a1.1,1.1,0,0,0,1.1,1.1h.1Z" fill="#fff" stroke="#000" stroke-miterlimit="10" stroke-width="0.5"/><polygon points="209.9 158.9 209.4 165.3 227.6 160.2 225.5 154.1 209.9 158.9" fill="#f8d5d4" stroke="#000" stroke-miterlimit="10" stroke-width="0.25"/><path d="M185.8,150.3s-1.7-2.2-1.5-2.6,22.8-37.8,22.8-37.8l2.7,1.5Z" fill="#f2aaaa"/><path d="M215.4,120.7a1.41,1.41,0,0,1,2,2,1.51,1.51,0,0,1-1.3.4,1.5,1.5,0,0,1-1-1.86v0a.48.48,0,0,1,.2-.4" fill="#fff" stroke="#000" stroke-miterlimit="10" stroke-width="0.5"/><path d="M200.7,169.1a3.47,3.47,0,0,1-.7,1,6.22,6.22,0,0,1-2.9,1.5,11.85,11.85,0,0,1-5.3,0,20,20,0,0,0-6.9-.3,18,18,0,0,0-7.1,4c-2.4,1.8-4.9,4.1-8.3,5.1a13.54,13.54,0,0,1-5.3.4,25,25,0,0,1-5.3-1.4c-3.5-1.4-6.8-3.3-10.5-4.7a19.12,19.12,0,0,0-11.1-.7c-3.6.7-6.9,2-10.3,2.6a26.59,26.59,0,0,1-27-10.4,18.52,18.52,0,0,1-2.2-3.9,40.49,40.49,0,0,0,2.4,3.8,27.29,27.29,0,0,0,9.3,7.6,25.61,25.61,0,0,0,17.4,2.3c3.3-.8,6.6-2,10.3-2.8a19.65,19.65,0,0,1,11.5.8c3.8,1.3,7.1,3.3,10.5,4.6a23.61,23.61,0,0,0,5.2,1.5,12.07,12.07,0,0,0,5-.4c3.2-1,5.7-3.1,8.1-5a18.79,18.79,0,0,1,7.4-3.9,18.33,18.33,0,0,1,7,.3,12.52,12.52,0,0,0,5.1.2,8,8,0,0,0,3-1.3Z" fill="#feeae9"/><path d="M208.3,194.4a29.24,29.24,0,0,1-.6-5.9,29.82,29.82,0,0,1,.2-5.9,29.24,29.24,0,0,1,.6,5.9A29.08,29.08,0,0,1,208.3,194.4Z" fill="#273339"/><path d="M190.3,102.9c-.6-1.6-1.9-2.7-2.5-4.3s-.3-4.9,0-7.4-.3-5.5-2.6-6.5l-2.9-1c-1.8-1.1-1.7-3.6-1.8-5.7a11.35,11.35,0,0,0-1.1-4h.4a5.79,5.79,0,0,1,6.8,3.4,3.29,3.29,0,0,1-.3,3.3,2.1,2.1,0,0,1-2.5.8,1.79,1.79,0,0,1-1-2,1.41,1.41,0,0,1,1.5-.8,1.1,1.1,0,0,1,1,.6l.2.3v-.4a1.51,1.51,0,0,0-1.1-.8,1.7,1.7,0,0,0-1.9,1,2.1,2.1,0,0,0,1.1,2.6,2.8,2.8,0,0,0,3.3-.9,4.12,4.12,0,0,0,.4-4,6.5,6.5,0,0,0-7-4,3.91,3.91,0,0,0,.4-3.5,4.89,4.89,0,0,0-3-3.1,7.49,7.49,0,0,0-3.9-.2,12.06,12.06,0,0,0-3.1,1.3l-2.1,1.6a4.52,4.52,0,0,1-1.8.7,3.83,3.83,0,0,1-1.6-.3,1.92,1.92,0,0,0,1.6.6,3.64,3.64,0,0,0,2-.6L171,68a7.32,7.32,0,0,1,6.4-1,4.84,4.84,0,0,1,2.7,2.7,3.31,3.31,0,0,1-1,3.5,7.11,7.11,0,0,0-2.8-2.9c-2.7-1.5-6.7-.8-8,2l-21.8-7.5a10.28,10.28,0,0,0-10-2h-.4a7.58,7.58,0,0,0-3.7.6,11.5,11.5,0,0,0-3.7,3.2,9.06,9.06,0,0,1-2.1,1.8h-.4a14.06,14.06,0,0,1-2.9.1c-1.9-.4-3.8-1.4-6-1.7a12.15,12.15,0,0,0-3.8.3,8.18,8.18,0,0,0-3.4,2.1,6.23,6.23,0,0,0-1.4,3.9,10.53,10.53,0,0,0,.5,3,11.45,11.45,0,0,0-.7,4.1c.1,1.9.7,3.8.7,5.6a5.08,5.08,0,0,1-1.8.9l-3.6,1a8.3,8.3,0,0,0-4.7,5,6,6,0,0,0,.6,5.5,8.42,8.42,0,0,0,1.6,7c1.2,1.2,2.3,2.4,3.4,3.7s1.2,5,1.6,7.7,1.8,5.5,4.5,5.7,4-1.6,6.1-1.5,4.2,3.9,6,6.3a10.5,10.5,0,0,0,9.9,4.3c2.6-.4,5.3-1.8,8-1.1s5.3,4.7,8.7,5.2,4.9-1.3,6.8-3,3.8-3.8,6.3-4.2,5.9,1.3,9,1.7a10.2,10.2,0,0,0,10-5c1.7-3.1,1.7-6.8,3.3-9.9a56.8,56.8,0,0,1,3.9-5.7C190.1,107.6,191.1,105.2,190.3,102.9ZM103,93.1h-.8l.6.2-.4.3a8.56,8.56,0,0,0-2.6,4,6.1,6.1,0,0,1-.1-4.6,7.61,7.61,0,0,1,4.3-4.5c1.1-.4,2.3-.5,3.5-.9l1.6-.7a5.79,5.79,0,0,1-.7,2.1C107.3,90.9,104.9,91.8,103,93.1Zm14.8-24.4a11.48,11.48,0,0,0-8.2,6.3,10.9,10.9,0,0,1-.2-1.8,4.71,4.71,0,0,1,1.3-3.4,7.29,7.29,0,0,1,6.4-2.2,18.6,18.6,0,0,1,3.6.9Zm10.9-.9-.8.3L129,67a13.19,13.19,0,0,1,3.5-3.2,5.94,5.94,0,0,1,3.2-.7,6,6,0,0,0-1.6.8C132.2,65.1,130.8,66.9,128.7,67.8Z" fill="#172045"/><path d="M176,113.4c1-6.5.7-17.3.1-26a13.9,13.9,0,0,0-14.7-13h-.6L138,76.8a4.6,4.6,0,0,0-4.1,4.7l2.3,56.1h-5.3v3.1c0,11.6,21,20,21,20s21-8.4,21-20v-1.8s-5.4-1.8-8.7-1.6h-.9a81.36,81.36,0,0,1,.5-9.1S173.9,126.5,176,113.4Z" fill="#fff" stroke="#000" stroke-miterlimit="10" stroke-width="0.5"/><path d="M163.5,128a26.88,26.88,0,0,1-14.4-2.8s4,7.1,14.5,5.3Z" fill="#172045"/><path d="M181,75.6c-.9-3.5-3.5-6.7-7.1-7.4s-4.7.3-7,.1-2.7-1.7-4.5-2.3-5.5-4.4-12.1-3.7c-1.8.2-4.1,2.3-5.7,4.6-2.6-1.1-5.9.1-7.8.9-3.8,1.7-6.2,5.9-6.9,10.3s-.1,8.8.5,13.2c.2,2,.5,4,.8,6a10.28,10.28,0,0,0,1.1,3.8l-3.1,28.2a11.9,11.9,0,0,0,14.8-7.6c0-.2.1-.4.1-.6,1.2-5.6-1.9-11.2-1.4-16.8.3-3.4,2.2-6.5,2.2-9.9a12.68,12.68,0,0,0-.5-3.3h0c5.3-4.3,6.7-7.8,6.5-11.9a10.13,10.13,0,0,0,5.6,1.8c2.8,0,5.7-1,8.3,0a14.78,14.78,0,0,1,4.7,3.8c1.5,1.5,3.4,2.8,5.3,2.5a9.28,9.28,0,0,0,2.8-1,3.42,3.42,0,0,1,2.8,0A21.46,21.46,0,0,0,181,75.6Z" fill="#172045"/><path d="M161,335.5V335c0-.4-.1-.9-.1-1.5s-.3-3.3-.5-5.8c-.3-5-.8-4.3-1.4-13.3-1-18,.5,2.3-.1-25.2s-.5,2-.3-15.9c.2-9,.4-16.3.5-21.4.1-2.5.2-4.4.2-5.8v5.8c0,5.1-.2,12.4-.3,21.4-.2,18-.2-11.6.4,15.9s-.9,7.2,0,25.2c.5,9,.9,8.3,1.2,13.3.2,2.5.3,4.4.3,5.8a6.84,6.84,0,0,0,.1,1.5Z" fill="#465b65"/><path d="M166.9,299.7l.5-.3a2.5,2.5,0,0,1,1.5.2,2.69,2.69,0,0,1,1.5,1.8,2.61,2.61,0,0,1-2.38,2.8h0a2.19,2.19,0,0,1-1.7-.5,2.38,2.38,0,0,1-.8-2.1,2,2,0,0,1,.6-1.4l.4-.3a4.86,4.86,0,0,0-.6,1.7,2.29,2.29,0,0,0,.8,1.7,2,2,0,0,0,2.7-.6,2.77,2.77,0,0,0,.3-1.2,2.09,2.09,0,0,0-1-1.4A3.76,3.76,0,0,0,166.9,299.7Z" fill="#465b65"/><path d="M165.4,252.1a.68.68,0,0,1,.4-.3,2.5,2.5,0,0,1,1.5.2,2.69,2.69,0,0,1,1.5,1.8,2.31,2.31,0,0,1-1.4,2.5,2.4,2.4,0,0,1-2.8-.1,3.54,3.54,0,0,1-.8-2.2,2.55,2.55,0,0,1,.6-1.3c.3-.3.5-.3.5-.3a4.86,4.86,0,0,0-.6,1.7,2.37,2.37,0,0,0,.7,1.6,2.1,2.1,0,0,0,2.8-.6,2,2,0,0,0,.3-1.1,2.31,2.31,0,0,0-1-1.5A3.58,3.58,0,0,0,165.4,252.1Z" fill="#465b65"/></g><g id="freepik--speech-bubble--inject-151"><path d="M240.5,93.7H256l-2.1-2.4V85.5a5.6,5.6,0,0,0-5.6-5.6h0a5.7,5.7,0,0,0-5.7,5.6h0V91Z" fill="#f3bebd"/><path d="M246.1,92.9a2.4,2.4,0,1,0,4.8-.2h0c0-.2-.1-.4-.1-.6" fill="#f3bebd"/><rect x="247.6" y="77.6" width="1.5" height="3.22" fill="#f3bebd"/><path d="M270.7,83.1c0-.1-.1-.2-.1-.4a11.69,11.69,0,0,0-.3-1.2,14,14,0,0,0-.5-1.9,8.44,8.44,0,0,0-.4-1.2l-.6-1.3a22.19,22.19,0,0,0-4.1-6,23.7,23.7,0,0,0-7.8-5.4,18.38,18.38,0,0,0-5.2-1.4,18.8,18.8,0,0,0-5.8-.1,15.42,15.42,0,0,0-3.1.5l-1.5.4-1.5.6a20.47,20.47,0,0,0-5.7,3.4,22.16,22.16,0,0,0-7.6,12.2,22.68,22.68,0,0,0,1.8,15.6l.4.7h.1c-1.3,4.1-2.5,8.1-3.7,12l-.3-.3,9.7-5h.2a22.4,22.4,0,0,0,28-.5,22.58,22.58,0,0,0,7.6-11.9,25.83,25.83,0,0,0,.6-4.8V85.5a5.15,5.15,0,0,0-.1-1.3v-.8a.2.2,0,0,1,0-.28l0,0v.3a2.41,2.41,0,0,0,.1.8,8.17,8.17,0,0,0,.2,1.3v1.8a28.93,28.93,0,0,1-.7,4.9,22,22,0,0,1-2.4,6,22.64,22.64,0,0,1-33.6,6.7h.2L225,110l-.5.2.2-.5,3.6-12v.2l-.4-.8a21.33,21.33,0,0,1-2.4-7.9,23.65,23.65,0,0,1,.5-8,23,23,0,0,1,7.8-12.4,20.55,20.55,0,0,1,5.8-3.5l1.6-.6,1.5-.4a17.12,17.12,0,0,1,3.1-.5,19.45,19.45,0,0,1,5.9.1,22.89,22.89,0,0,1,13.2,7,21.4,21.4,0,0,1,4,6.2l.6,1.3a5.64,5.64,0,0,1,.4,1.2,14,14,0,0,1,.5,1.9,7,7,0,0,1,.2,1.2A.79.79,0,0,1,270.7,83.1Z" fill="#969696"/></g><rect x="333.91" y="72.58" width="43.46" height="41.51" rx="4.35" fill="#fff"/><path d="M349.93,121.41c.87-1.77,1.77-3.54,2.62-5.32A22.58,22.58,0,0,0,354.6,107c.2-6.85,3.48-11.77,9.71-14.6a15.87,15.87,0,0,1,17.17,3,16.06,16.06,0,0,1,4.93,9.37c.07.44.11.87.16,1.31v2.07l-.13,1a15.54,15.54,0,0,1-4.68,9.41,15.74,15.74,0,0,1-11.41,4.56H351.71a1.62,1.62,0,0,1-1.78-1.15Zm3.74-1.14h16.92a13.91,13.91,0,0,0,2.23-.21,13.12,13.12,0,0,0-1.15-26,13.16,13.16,0,0,0-14.25,13.18,32.44,32.44,0,0,1-.32,3.82,24.49,24.49,0,0,1-2.48,7.34Z" fill="#162143"/><path d="M353.67,120.27l.95-1.88a24.49,24.49,0,0,0,2.48-7.34,32.44,32.44,0,0,0,.32-3.82,13.16,13.16,0,0,1,14.25-13.18,13.12,13.12,0,0,1,1.15,26,12.84,12.84,0,0,1-2.23.2H353.67Zm16.87-14.57H376a4.36,4.36,0,0,0,.51,0,1.42,1.42,0,0,0,.11-2.78,3.11,3.11,0,0,0-.68,0H364.72a1.37,1.37,0,0,0-1.19.85,1.43,1.43,0,0,0,1.4,2Zm-2.84,2.88h-2.79a1.43,1.43,0,1,0,0,2.86c1.85,0,3.72,0,5.57,0a1.81,1.81,0,0,0,.69-.14,1.43,1.43,0,0,0,.8-1.58,1.4,1.4,0,0,0-1.3-1.13C369.68,108.56,368.69,108.58,367.7,108.58Z" fill="#fff"/><path d="M370.54,105.7h-5.61a1.43,1.43,0,0,1-1.4-2,1.37,1.37,0,0,1,1.19-.85H376a3.11,3.11,0,0,1,.68,0,1.42,1.42,0,0,1-.11,2.78,4.36,4.36,0,0,1-.51,0Z" fill="#f27366"/><path d="M367.7,108.58c1,0,2,0,3,0a1.39,1.39,0,0,1,1.3,1.13,1.43,1.43,0,0,1-.8,1.58,1.81,1.81,0,0,1-.69.14h-5.57a1.43,1.43,0,1,1,0-2.86h2.79Z" fill="#2ba5dd"/><path d="M333.91,112V74.63a2.05,2.05,0,0,1,2-2h39.35a2.06,2.06,0,0,1,2.06,2.06h0c0,3.65,0,10.92,0,11.9a1,1,0,0,1-2,.22h0c0-.24-.1-9.77-.1-10.91a1.12,1.12,0,0,0-.91-1.16c-.07,0-30.88,0-37.13,0-1.22,0-1.19,0-1.19,1.28v34.92a1.18,1.18,0,0,0,.26.81,1.06,1.06,0,0,0,.82.34c.88,0,10.54,0,11.09,0a1,1,0,1,1,.22,2.08H336A2.07,2.07,0,0,1,333.91,112Z" fill="#162143"/><path d="M358.2,87.81H347.12a3.51,3.51,0,0,1-.66-.07,1,1,0,0,1,.08-2,3.36,3.36,0,0,1,.63-.06h22.08a2.74,2.74,0,0,1,.9.15.89.89,0,0,1,.63.88,1,1,0,0,1-.69.94,2.72,2.72,0,0,1-.8.12Z" fill="#2ba5dd"/><path d="M347.47,79.14h8.47a6,6,0,0,1,.85.06.87.87,0,0,1,.75.64,1,1,0,0,1-.19,1,.8.8,0,0,1-.61.28,4.14,4.14,0,0,1-.7.06H340.75a5.16,5.16,0,0,1-.87-.1,1,1,0,0,1,.1-1.95,2.94,2.94,0,0,1,.51-.05h7Z" fill="#f27366"/></svg>