<svg id="Layer_1" data-name="Layer 1" xmlns="http://www.w3.org/2000/svg" xmlns:xlink="http://www.w3.org/1999/xlink" viewBox="0 0 449.4 383.1"><defs><clipPath id="clip-path"><path d="M114.9,166.6a51.7,51.7,0,0,1-6,14.1c-4.4,7.4-6.3,12.5-19.9,12.9s-20.8,11.6-26.6,44.8-9.3,69.9.7,93.2,39.5,21,58.8,14.1,23.7-28.9,24-52.5.4-61.1-3.3-80-14.4-22.9-19.2-24.4,1.5-10.4,1.5-10.4Z" fill="none"/></clipPath><clipPath id="clip-path-2"><path d="M127.6,190.5a30.7,30.7,0,0,0-4.2-1.7c-4.8-1.5,1.5-10.4,1.5-10.4l-10-11.8a51.7,51.7,0,0,1-6,14.1c-3.7,6.3-5.7,10.9-14.6,12.4a39.7,39.7,0,0,1,6.1,13.4c2.3,9.7,7,25.2,15.9,21.5S131.2,204.2,127.6,190.5Z" fill="none"/></clipPath><clipPath id="clip-path-3"><path d="M94.3,193.1a51.4,51.4,0,0,1-12.4.1,27.5,27.5,0,0,0-20.7,7.5c-5.9,5.9-11.2,25.1-13.4,29.9s-3,7.1-3,7.1l27.4,11.8L83.7,217" fill="none"/></clipPath><clipPath id="clip-path-4"><ellipse cx="130.9" cy="151.8" rx="32.4" ry="18.6" transform="translate(-48.2 241.7) rotate(-75.9)" fill="none"/></clipPath></defs><path d="M113,89.3c-.8,45.7-68.8,45.7-69.6-.1C44.2,43.5,112.2,43.5,113,89.3Z" fill="#f1efef"/><path d="M80.7,166c63-39.9,147.3,27.8,115.5,98.1-18,41.2-63.7,46-68,46.4C44.5,320.2,7.4,212.1,80.7,166Z" fill="#f1efef"/><path d="M183.9,38.8C314.7-70.3,502.2,117.9,363.6,252.9c-10.9,12.8-45.8,35.5-69.2,18.9-20.6-16.1,2.9-56.6-20.1-87.7-19.3-29.3-53.5-15.4-83.5-39.4C161.7,116.8,157,76.8,183.9,38.8Z" fill="#f1efef"/><g id="freepik--Floor--inject-26"><path d="M16.5,335.3c135.1-.6,286.6-.6,421.6,0C303.1,335.9,151.6,335.9,16.5,335.3Z" fill="#273339"/></g><g id="freepik--space-ship--inject-1--inject-230"><line x1="217.1" y1="128.7" x2="217.1" y2="132.1" fill="none" stroke="#fff" stroke-linecap="round" stroke-linejoin="round"/><path d="M269.4,232.9l31,61.2a3,3,0,0,1-1.3,4,3.1,3.1,0,0,1-1.3.3H256.2a4.2,4.2,0,0,1-4.2-4.2V234.4Z" fill="#142230" stroke="#273339" stroke-linecap="round" stroke-linejoin="round"/><path d="M293.4,298.3l-32.8-64.6-8.6.7v59.8a4.2,4.2,0,0,0,4.2,4.2h37.2Z" fill="#fff" stroke="#010101" stroke-miterlimit="10"/><path d="M187.1,232.9l-31,61.2a3.1,3.1,0,0,0,1.3,4,3.2,3.2,0,0,0,1.4.3h41.5a4.2,4.2,0,0,0,4.2-4.2V234.4Z" fill="#142230" stroke="#273339" stroke-linecap="round" stroke-linejoin="round"/><path d="M163.1,298.3l32.8-64.6,8.6.7v59.8a4.2,4.2,0,0,1-4.2,4.2H163.1Z" fill="#fff" stroke="#010101" stroke-miterlimit="10"/><path d="M196,233.7,170.9,283c8.8-6.2,20.2-12.5,33.6-15.6v-33Z" fill="#fef1f0" stroke="#273339" stroke-linecap="round" stroke-linejoin="round" stroke-width="0.5"/><polygon points="213.9 273.4 202.8 292.6 224.9 292.6 213.9 273.4" fill="#fef1f0" stroke="#273339" stroke-linecap="round" stroke-linejoin="round" stroke-width="0.5"/><polygon points="242.8 273.4 231.8 292.6 253.9 292.6 242.8 273.4" fill="#fef1f0" stroke="#273339" stroke-linecap="round" stroke-linejoin="round" stroke-width="0.5"/><rect x="202.4" y="292.4" width="22.9" height="4.12" fill="#142230" stroke="#273339" stroke-linecap="round" stroke-linejoin="round"/><rect x="231.3" y="292.4" width="22.9" height="4.12" fill="#142230" stroke="#273339" stroke-linecap="round" stroke-linejoin="round"/><path d="M232.2,79.6a5.3,5.3,0,0,0-7.5-.5l-.5.5c-10.5,12.1-38.2,47-38.2,79.9v96.3l15.2,27.7h54.2l15.2-27.7V159.5C270.6,126.6,242.8,91.7,232.2,79.6Z" fill="#fff" stroke="#010101" stroke-miterlimit="10"/><path d="M228,81.6c0-1.7-4.9,8.5-8.3,13a5,5,0,0,1,.2-1.2s-20.4,26-26.5,50.4a63.8,63.8,0,0,0-1.5,7.6c-.5,3.1-1,71.7-1.3,112.7l10.6,19.4h26.5c-.6-2,.9-11.2.3-13.6Z" fill="#fef1f0"/><circle cx="195.8" cy="252.7" r="1.4" fill="none" stroke="#2f363b" stroke-linecap="round" stroke-linejoin="round"/><circle cx="203.2" cy="252.7" r="1.4" fill="none" stroke="#2f363b" stroke-linecap="round" stroke-linejoin="round"/><circle cx="210.6" cy="252.7" r="1.4" fill="none" stroke="#2f363b" stroke-linecap="round" stroke-linejoin="round"/><circle cx="218" cy="252.7" r="1.4" fill="none" stroke="#2f363b" stroke-linecap="round" stroke-linejoin="round"/><circle cx="238.4" cy="252.7" r="1.4" fill="none" stroke="#2f363b" stroke-linecap="round" stroke-linejoin="round"/><circle cx="245.8" cy="252.7" r="1.4" fill="none" stroke="#2f363b" stroke-linecap="round" stroke-linejoin="round"/><circle cx="253.2" cy="252.7" r="1.4" fill="none" stroke="#2f363b" stroke-linecap="round" stroke-linejoin="round"/><circle cx="260.6" cy="252.7" r="1.4" fill="none" stroke="#2f363b" stroke-linecap="round" stroke-linejoin="round"/><line x1="191" y1="164.5" x2="191" y2="254.8" fill="none" stroke="#2f363b" stroke-linecap="round" stroke-linejoin="round"/><path d="M199.2,127.9c-4,8.9-7.1,18.4-8,27.9" fill="none" stroke="#2f363b" stroke-linecap="round" stroke-linejoin="round"/><path d="M232.4,85.8a4.6,4.6,0,0,0-6.4-.9l-.9.9a215.5,215.5,0,0,0-21.7,33.5" fill="none" stroke="#2f363b" stroke-linecap="round" stroke-linejoin="round"/><path d="M246.6,173.1h0a12.2,12.2,0,0,1-12.2-12.2h0a12.2,12.2,0,0,1,12.2-12.2h0a12.2,12.2,0,0,1,12.1,12.2h0A12.2,12.2,0,0,1,246.6,173.1Z" fill="#41a648"/><path d="M253.6,160.6a6.6,6.6,0,0,0-13.1-.1v.3a6.6,6.6,0,0,0,.9,3.3l-1.2,3.5,3.7-1.1a6.5,6.5,0,0,0,3.1.8,6.6,6.6,0,0,0,6.6-6.5h0Zm-6.6,5.6a5.5,5.5,0,0,1-3-.9l-2.1.7.7-2a5.7,5.7,0,0,1-1.1-3.3v-.5a5.6,5.6,0,0,1,5.6-5.4,5.5,5.5,0,0,1,5.4,5.5v.4a5.4,5.4,0,0,1-5.5,5.5Z" fill="#fff" fill-rule="evenodd"/><path d="M250,162.1l-1.1-.5h-.3l-.5.7h-.4a5.7,5.7,0,0,1-1.3-.8l-.9-1.1c-.1-.2,0-.3.1-.4s.1-.2.2-.2h.1v-.5l-.5-1.2c-.1-.3-.3-.2-.4-.2h-.3a.4.4,0,0,0-.4.2,1.6,1.6,0,0,0-.6,1.3,4.3,4.3,0,0,0,.1.5,2.4,2.4,0,0,0,.6,1.1,6.2,6.2,0,0,0,2.7,2.4c1.7.7,1.7.5,2,.4a1.2,1.2,0,0,0,1-.7,1.1,1.1,0,0,0,.1-.8Z" fill="#fff" fill-rule="evenodd"/><path d="M229.4,199.8h0a12.2,12.2,0,0,1-12.2-12.1h0a12.2,12.2,0,0,1,12.2-12.2h0a12.2,12.2,0,0,1,12.2,12.2h0A12.2,12.2,0,0,1,229.4,199.8Z" fill="#ed1c24"/><path d="M236.7,184a2,2,0,0,0-1.4-1.4,58.2,58.2,0,0,0-11.8,0,2,2,0,0,0-1.4,1.4,22.4,22.4,0,0,0,0,7.3,2,2,0,0,0,1.4,1.4,58.2,58.2,0,0,0,11.8,0,2,2,0,0,0,1.4-1.4A22.4,22.4,0,0,0,236.7,184Z" fill="#fff"/><polygon points="227.8 189.9 227.8 185.4 231.8 187.7 227.8 189.9" fill="#ed1c24"/><path d="M229.4,144.7h0a12.2,12.2,0,0,1-12.2-12.2h0a12.2,12.2,0,0,1,12.2-12.2h0a12.2,12.2,0,0,1,12.2,12.2h0a12.2,12.2,0,0,1-12.2,12.2Z" fill="#506ab2"/><path d="M227.5,139.9h2.9v-7.4h2.1l.2-2.5h-2.3v-1.4c0-.6.1-.9.7-.9h1.6v-2.5h-2c-2.2,0-3.2.9-3.2,2.8v2h-1.6v2.5h1.6Z" fill="#fff"/><path d="M212,229.9h0a12.2,12.2,0,0,1-12.2-12.2h0A12.2,12.2,0,0,1,212,205.5h0a12.2,12.2,0,0,1,12.2,12.2h0A12.2,12.2,0,0,1,212,229.9Z" fill="#cb2c4e"/><path d="M212,212.2h2.7l1.3.2a2.5,2.5,0,0,1,1.2,1.3,2.8,2.8,0,0,1,.3,1.3v5.4a2.8,2.8,0,0,1-.3,1.3,2,2,0,0,1-1.2,1.2,3.1,3.1,0,0,1-1.3.3h-5.5l-1.2-.3a1.4,1.4,0,0,1-.8-.5,1.8,1.8,0,0,1-.5-.7,5.1,5.1,0,0,1-.2-1.3V215a5.1,5.1,0,0,1,.2-1.3,2,2,0,0,1,.6-.7,1.8,1.8,0,0,1,.7-.5l1.3-.2H212m0-1.2h-2.7a4.1,4.1,0,0,0-1.6.3,3.4,3.4,0,0,0-2,1.9,5.1,5.1,0,0,0-.3,1.7v5.4a5.1,5.1,0,0,0,.3,1.7,3.4,3.4,0,0,0,2,1.9,4.1,4.1,0,0,0,1.6.3h5.5a4.5,4.5,0,0,0,1.6-.3,3,3,0,0,0,1.9-1.9,5.1,5.1,0,0,0,.3-1.7V215a5.1,5.1,0,0,0-.3-1.7,3,3,0,0,0-1.9-1.9,4.5,4.5,0,0,0-1.6-.3H212" fill="#fff"/><path d="M212,214.3a3.4,3.4,0,1,0,0,6.8,3.4,3.4,0,0,0,3.4-3.4h0a3.4,3.4,0,0,0-3.4-3.4m0,5.6a2.2,2.2,0,1,1,2.2-2.2h0a2.2,2.2,0,0,1-2.2,2.2h0" fill="#fff"/><path d="M216.3,214.1a.7.7,0,0,1-.8.8.8.8,0,0,1-.8-.8.9.9,0,0,1,.8-.8.8.8,0,0,1,.8.8h0" fill="#fff"/><path d="M211.1,173.1h0a12.2,12.2,0,0,1-12.2-12.2h0a12.2,12.2,0,0,1,12.2-12.2h0a12.2,12.2,0,0,1,12.1,12.2h0A12.2,12.2,0,0,1,211.1,173.1Z" fill="#50b1e3"/><path d="M204.6,165a7.6,7.6,0,0,0,10.4-2.3,7,7,0,0,0,1.2-4.4l1.4-1.4-1.6.4a2.6,2.6,0,0,0,1.2-1.5,4.9,4.9,0,0,1-1.7.6,2.7,2.7,0,0,0-3.8-.2,3,3,0,0,0-.8,2.7,8.4,8.4,0,0,1-5.5-2.8,2.6,2.6,0,0,0,.9,3.5,2.1,2.1,0,0,1-1.2-.3,2.4,2.4,0,0,0,2.1,2.6,2.5,2.5,0,0,1-1.2.1,2.7,2.7,0,0,0,2.5,1.8A5.5,5.5,0,0,1,204.6,165Z" fill="#fff"/><path d="M245.3,229.9h0a12.2,12.2,0,0,1-12.1-12.2h0a12.2,12.2,0,0,1,12.1-12.2h0a12.2,12.2,0,0,1,12.2,12.2h0A12.2,12.2,0,0,1,245.3,229.9Z" fill="#2b79b8"/><rect x="239.5" y="214.7" width="2.5" height="8.14" fill="#fff"/><path d="M240.7,213.6a1.4,1.4,0,0,0,1.4-1.6,1.5,1.5,0,0,0-1.4-1.4,1.6,1.6,0,0,0-1.4,1.6A1.5,1.5,0,0,0,240.7,213.6Z" fill="#fff"/><path d="M246,218.6c0-1.2.6-1.9,1.6-1.9s1.3.7,1.3,1.9v4.2h2.5v-5.1c0-2.2-1.2-3.3-2.9-3.3a3,3,0,0,0-2.5,1.4v-1.1h-2.4v8.1H246Z" fill="#fff"/><path d="M228.3,300.5h0a1.9,1.9,0,0,1-1.8-1.9l-1.9-63.9a3.7,3.7,0,0,1,3.7-3.7h0a3.6,3.6,0,0,1,3.7,3.7h0l-1.9,63.9a1.9,1.9,0,0,1-1.8,1.9Z" fill="#142230" stroke="#273339" stroke-linecap="round" stroke-linejoin="round"/><line x1="228.4" y1="333.1" x2="228.4" y2="337.4" fill="none" stroke="#2f363b" stroke-linecap="round" stroke-linejoin="round"/><path d="M224.2,79.6a213.8,213.8,0,0,0-18.6,24.8h45.3a214.7,214.7,0,0,0-18.7-24.8,5.3,5.3,0,0,0-7.5-.5Z" fill="#142230" stroke="#273339" stroke-linecap="round" stroke-linejoin="round"/><circle cx="217.1" cy="101.8" r="1.4" fill="#fff"/><path d="M225.9,101.8a1.4,1.4,0,1,1-2.8,0,1.4,1.4,0,0,1,1.4-1.4h0a1.4,1.4,0,0,1,1.4,1.4Z" fill="#fff"/><circle cx="231.9" cy="101.8" r="1.4" fill="#fff"/><circle cx="239.3" cy="101.8" r="1.4" fill="#fff"/><path d="M213.8,102s9.1-14.7,12.8-19.2" fill="none" stroke="#fff" stroke-linecap="round" stroke-linejoin="round"/><polygon points="255.4 283.5 270.6 255.8 186 255.8 201.2 283.5 255.4 283.5" fill="#142230" stroke="#273339" stroke-linecap="round" stroke-linejoin="round"/><path d="M203.6,268.5a.4.4,0,0,0-.3.6h0l1.4,3.2c.1.2.2.3.4.3h.2a.5.5,0,0,0,.2-.6h0l-1.3-3.2a.4.4,0,0,0-.6-.3Z" fill="#fff"/><path d="M205.9,263c.1.2.2.3.4.3h.2a.5.5,0,0,0,.2-.6h0l-3-6.9h-1Z" fill="#fff"/><path d="M249.5,270.9h.2c.2,0,.3-.1.4-.3l7-14.9H256l-6.8,14.6a.4.4,0,0,0,.3.6Z" fill="#fff"/><path d="M205,282.7c.1.2.2.3.4.3h.2a.5.5,0,0,0,.2-.6h0l-11.6-26.6h-1Z" fill="#fff"/><path d="M262.3,255.8l-12,24.5a.4.4,0,0,0,.2.6h.2c.2,0,.3-.1.4-.3l12.2-24.9Z" fill="#fff"/><path d="M202.4,267a.5.5,0,0,0,.5.3h.1a.4.4,0,0,0,.3-.6h0l-4.7-10.9h-1Z" fill="#fff"/><line x1="272.5" y1="176.4" x2="272.5" y2="179.4" fill="none" stroke="#2f363b" stroke-linecap="round" stroke-linejoin="round"/><line x1="272.5" y1="158.7" x2="272.5" y2="174.4" fill="none" stroke="#2f363b" stroke-linecap="round" stroke-linejoin="round"/><line x1="274.3" y1="191.8" x2="274.3" y2="204.3" fill="none" stroke="#2f363b" stroke-linecap="round" stroke-linejoin="round"/><path d="M274,162.9v26.7s.7,0,1-1.9-.3-5.7.5-7.3,2.1-2.6,2.6-4.2-1.2-2.7-.5-5.4,3.7-1.2,3.1-4.6c-.2-1.9-2.3-2.5-3.7-3.3a3.5,3.5,0,0,1-1.1-1c-.2-.7.6-2.4,0-2.9s-1.5.3-1.8.9S274,162,274,162.9Z" fill="#fff" stroke="#2f363b" stroke-miterlimit="10"/><line x1="158.3" y1="314.8" x2="158.3" y2="349.2" fill="none" stroke="#2f363b" stroke-linecap="round" stroke-linejoin="round"/><path d="M158.4,299.9v13.3s-.4,0-.5-.9.1-2.8-.3-3.6a23.9,23.9,0,0,1-1.3-2.1c-.3-.8.6-1.4.3-2.7s-1.9-.6-1.6-2.3,1.1-1.2,1.8-1.6a1,1,0,0,0,.6-.5c.1-.4-.3-1.2,0-1.5s.7.2.9.5A7.1,7.1,0,0,1,158.4,299.9Z" fill="#fff" stroke="#2f363b" stroke-miterlimit="10"/><line x1="182.5" y1="163.9" x2="182.5" y2="177.9" fill="none" stroke="#2f363b" stroke-linecap="round" stroke-linejoin="round"/><line x1="182.5" y1="180.9" x2="182.5" y2="186.1" fill="none" stroke="#2f363b" stroke-linecap="round" stroke-linejoin="round"/><line x1="180.9" y1="210.8" x2="180.9" y2="215.9" fill="none" stroke="#2f363b" stroke-linecap="round" stroke-linejoin="round"/><path d="M181.2,165v43.8s-.7,0-1-3.2.3-9.4-.5-11.9-2.1-4.3-2.6-6.9,1.2-4.5.5-8.8-3.7-2-3.1-7.7c.2-3,2.3-4,3.7-5.4a3.6,3.6,0,0,0,1.1-1.6c.3-1.2-.6-3.9,0-4.7s1.5.5,1.8,1.5S181.2,163.5,181.2,165Z" fill="#fff" stroke="#2f363b" stroke-miterlimit="10"/><line x1="228.4" y1="304.4" x2="228.4" y2="330" fill="none" stroke="#2f363b" stroke-linecap="round" stroke-linejoin="round"/><line x1="185.7" y1="285.5" x2="185.7" y2="288.5" fill="none" stroke="#2f363b" stroke-linecap="round" stroke-linejoin="round"/><line x1="185.7" y1="267.8" x2="185.7" y2="283.5" fill="none" stroke="#2f363b" stroke-linecap="round" stroke-linejoin="round"/><line x1="183.9" y1="300.9" x2="183.9" y2="330.3" fill="none" stroke="#2f363b" stroke-linecap="round" stroke-linejoin="round"/><path d="M184.2,272v26.7s-.7,0-1.1-1.9.4-5.8-.5-7.3-2.1-2.6-2.6-4.2,1.2-2.7.5-5.4-3.6-1.2-3.1-4.7c.3-1.8,2.3-2.4,3.7-3.2a2.2,2.2,0,0,0,1.1-1c.3-.7-.6-2.4,0-2.9s1.6.3,1.9.9S184.2,271.1,184.2,272Z" fill="#fff" stroke="#2f363b" stroke-miterlimit="10"/><line x1="297.4" y1="314.8" x2="297.4" y2="329" fill="none" stroke="#2f363b" stroke-linecap="round" stroke-linejoin="round"/><path d="M297.4,299.9v13.3s.3,0,.5-.9-.2-2.8.2-3.6a12,12,0,0,0,1.3-2.1c.3-.8-.6-1.4-.2-2.7s1.8-.6,1.5-2.3-1.1-1.2-1.8-1.6l-.5-.5c-.2-.4.3-1.2,0-1.5s-.8.2-1,.5A3.3,3.3,0,0,0,297.4,299.9Z" fill="#fff" stroke="#2f363b" stroke-miterlimit="10"/><line x1="269" y1="297.8" x2="269" y2="300.8" fill="none" stroke="#2f363b" stroke-linecap="round" stroke-linejoin="round"/><line x1="269" y1="280" x2="269" y2="295.7" fill="none" stroke="#2f363b" stroke-linecap="round" stroke-linejoin="round"/><line x1="270.8" y1="313.1" x2="270.8" y2="355.5" fill="none" stroke="#2f363b" stroke-linecap="round" stroke-linejoin="round"/><path d="M270.5,284.2v26.7s.7,0,1-1.9-.3-5.8.6-7.3,2-2.6,2.6-4.2-1.2-2.7-.6-5.4,3.7-1.2,3.2-4.6c-.3-1.9-2.3-2.5-3.7-3.3a2.9,2.9,0,0,1-1.2-1c-.2-.7.7-2.4,0-2.9s-1.5.3-1.8.9S270.5,283.3,270.5,284.2Z" fill="#fff" stroke="#2f363b" stroke-miterlimit="10"/></g><g id="freepik--Character--inject-1--inject-133"><path d="M154.4,230.2s.4,15.2,3,23.4a134.7,134.7,0,0,0,6.7,16.2s-9.6,5.2-14.1,5.6-10.3-19.6-10.3-33.3S144.8,224.3,154.4,230.2Z" fill="#fff" stroke="#273339" stroke-linecap="round" stroke-linejoin="round" stroke-width="0.49"/><path d="M127.6,190.5s15.7-.6,21.7,3.9,8.1,24,9.9,31.8l1.9,7.8a86.3,86.3,0,0,1-13.4,4,46.7,46.7,0,0,0-5.2.8s-4.7-26.9-10.2-34.8a103.8,103.8,0,0,0-9.3-11.5S120.5,189.5,127.6,190.5Z" fill="#fff" stroke="#273339" stroke-linecap="round" stroke-linejoin="round" stroke-width="0.49"/><path d="M114.9,166.6a51.7,51.7,0,0,1-6,14.1c-4.4,7.4-6.3,12.5-19.9,12.9s-20.8,11.6-26.6,44.8-9.3,69.9.7,93.2,39.5,21,58.8,14.1,23.7-28.9,24-52.5.4-61.1-3.3-80-14.4-22.9-19.2-24.4,1.5-10.4,1.5-10.4Z" fill="#fff"/><g clip-path="url(#clip-path)"><path d="M75.8,239.2s-3.3,8.9,2.5,15.9,20.1,3.6,17.4,6.9-15.2,7.2-17.4,10.4a5.1,5.1,0,0,0-.3,5.8s-11.4,2.1-12.2.1,6.7-28.8,6.7-28.8Z" fill="#fcd7d7" opacity="0.4" style="isolation:isolate"/><path d="M79.3,288.4s-7.9,8.6-7.6,11.1,7.6-3.2,6.2.4-7.6,9.4-9.5,12.3-8.9,8-8.9,8L57,300.6l-.5-3.4Z" fill="#fcd7d7" opacity="0.4" style="isolation:isolate"/></g><path d="M114.9,166.6a51.7,51.7,0,0,1-6,14.1c-4.4,7.4-6.3,12.5-19.9,12.9s-20.8,11.6-26.6,44.8-9.3,69.9.7,93.2,39.5,21,58.8,14.1,23.7-28.9,24-52.5.4-61.1-3.3-80-14.4-22.9-19.2-24.4,1.5-10.4,1.5-10.4Z" fill="none" stroke="#273339" stroke-linecap="round" stroke-linejoin="round" stroke-width="0.49"/><path d="M127.6,190.5a30.7,30.7,0,0,0-4.2-1.7c-4.8-1.5,1.5-10.4,1.5-10.4l-10-11.8a51.7,51.7,0,0,1-6,14.1c-3.7,6.3-5.7,10.9-14.6,12.4a39.7,39.7,0,0,1,6.1,13.4c2.3,9.7,7,25.2,15.9,21.5S131.2,204.2,127.6,190.5Z" fill="#fff"/><g clip-path="url(#clip-path-2)"><path d="M104.6,192.9a23.8,23.8,0,0,1-7.7,3.7l-2.3-3.8s9.2,1.1,18.5-20.1h0a30,30,0,0,0,8.3,10.1l-11,1.4" fill="#fef1f0" opacity="0.4" style="isolation:isolate"/></g><path d="M127.6,190.5a30.7,30.7,0,0,0-4.2-1.7c-4.8-1.5,1.5-10.4,1.5-10.4l-10-11.8a51.7,51.7,0,0,1-6,14.1c-3.7,6.3-5.7,10.9-14.6,12.4a39.7,39.7,0,0,1,6.1,13.4c2.3,9.7,7,25.2,15.9,21.5S131.2,204.2,127.6,190.5Z" fill="none" stroke="#273339" stroke-linecap="round" stroke-linejoin="round" stroke-width="0.49"/><line x1="76.7" y1="235.8" x2="87.4" y2="226.3" fill="none" stroke="#273339" stroke-linecap="round" stroke-linejoin="round" stroke-width="0.49"/><path d="M89,193.6s3.1,4.3,5.5,16.7,9.4,23.7,16.5,26,10.7,0,10.7,0" fill="none" stroke="#273339" stroke-linecap="round" stroke-linejoin="round" stroke-width="0.49"/><path d="M53.8,234.7s-5.5,49.2-5.9,57.7,2.9,6.3,8.5,4.8,37.4-15.6,44.7-18.1,8.5-3.4,14.4-2.6a136.8,136.8,0,0,0,15.7,1.5c3.7,0-.4-8.5-5.9-10s-5.2-1.1-11.5.4-16.3,5.9-27,8.1-20,3-21.1,1.8S72.4,245,72.4,245Z" fill="#fff" stroke="#273339" stroke-linecap="round" stroke-linejoin="round" stroke-width="0.49"/><path d="M94.3,193.1a51.4,51.4,0,0,1-12.4.1,27.5,27.5,0,0,0-20.7,7.5c-5.9,5.9-11.2,25.1-13.4,29.9s-3,7.1-3,7.1l27.4,11.8L83.7,217" fill="#fff"/><g clip-path="url(#clip-path-3)"><path d="M94.1,192.9a146.4,146.4,0,0,1-16.2.8,21.9,21.9,0,0,0-17,8.3c-5.1,5.8-15.5,35.4-15.5,35.4l6.4,2.8s6.9-32.4,14.8-37.5a42,42,0,0,1,23.2-5.8,57.8,57.8,0,0,0,6.3-.3Z" fill="#fcd7d7" opacity="0.4" style="isolation:isolate"/></g><path d="M94.3,193.1a51.4,51.4,0,0,1-12.4.1,27.5,27.5,0,0,0-20.7,7.5c-5.9,5.9-11.2,25.1-13.4,29.9s-3,7.1-3,7.1l27.4,11.8L83.7,217" fill="none" stroke="#273339" stroke-linecap="round" stroke-linejoin="round" stroke-width="0.49"/><path d="M59.6,316.9s11.1-10.1,18.9-10.6" fill="none" stroke="#273339" stroke-linecap="round" stroke-linejoin="round" stroke-width="0.49"/><path d="M79.7,301.4a134.6,134.6,0,0,0-16,8.3" fill="none" stroke="#273339" stroke-linecap="round" stroke-linejoin="round" stroke-width="0.49"/><ellipse cx="130.9" cy="151.8" rx="32.4" ry="18.6" transform="translate(-48.2 241.7) rotate(-75.9)" fill="#fff"/><g clip-path="url(#clip-path-4)"><path d="M121.1,182.5c-1.2-2.5-2.9-8.5-1.7-12.3,1.8-5.8,11.6-12.3,11.6-12.3s-4.5,1.1-9,1.8l-10.6,1.7,1.5,10.8C115,177.1,117.5,181.1,121.1,182.5Z" fill="#fcd7d7" opacity="0.4" style="isolation:isolate"/></g><ellipse cx="130.9" cy="151.8" rx="32.4" ry="18.6" transform="translate(-48.2 241.7) rotate(-75.9)" fill="none" stroke="#273339" stroke-linecap="round" stroke-linejoin="round" stroke-width="0.49"/><path d="M113,173.2c-1.7,3.3-6.9,13.8-12.4,17.2a17.5,17.5,0,0,1-5,2.3" fill="#9bd2a5" opacity="0.4" style="isolation:isolate"/><path d="M121.9,228s1.5,20.6,0,25.7-7.2,4.7-4.3,7.5a53.1,53.1,0,0,0,10.1,6.9l5.1,5.1,1.1-7.7s-3.6,1.1-7.2-11.6A161.9,161.9,0,0,1,121.9,228Z" fill="#fef1f0" opacity="0.4" style="isolation:isolate"/><path d="M139.1,160.8a14.1,14.1,0,0,0-2.2,5.7v1.7a1.7,1.7,0,0,1-1.5,1.8h-.2l-2.7-.2" fill="none" stroke="#273339" stroke-linecap="round" stroke-linejoin="round" stroke-width="0.49"/><path d="M127.8,175.2a5,5,0,0,1-5.4-4.1" fill="none" stroke="#273339" stroke-linecap="round" stroke-linejoin="round" stroke-width="0.49"/><path d="M131.8,160.1l-1.4,2.7a4.2,4.2,0,0,1-4.7-1" fill="none" stroke="#273339" stroke-linecap="round" stroke-linejoin="round" stroke-width="0.49"/><path d="M142.5,164.1l-2,2.7s-2.7,0-2.7-2" fill="none" stroke="#273339" stroke-linecap="round" stroke-linejoin="round" stroke-width="0.49"/><path d="M153.1,140.3c4.4-13.1-6.5-26.8-22.7-26.5s-27.6,16.2-33,27.1a78.8,78.8,0,0,0-12.9,16.9c-6.7,11.5-6.7,18.2-11.8,25.6s-20.4,7.7-29.3,17.4-8.9,20.7-4.8,28.1,6.7,17,1.5,23.7-10.3,15.6-6.3,30.7a16.9,16.9,0,0,0,14.3,13,15.9,15.9,0,0,1-.2-3.8c.3-6.7,3.7-37.6,5.2-51.2l-8.2-3.5s.8-2.3,3-7.1,7.4-24,13.4-29.9A27,27,0,0,1,82,193.4a57.1,57.1,0,0,0,12.4-.2,15.3,15.3,0,0,0,11.9-8.2h0l.6-.9h0c.6-1.1,1.2-2.2,1.9-3.3a51.2,51.2,0,0,0,4.1-8.5,39.4,39.4,0,0,1-1.8-10.8c7.3-.2,27.5-2,37.7-14,.6-.7,1.1-1.5,1.6-2.2a52.2,52.2,0,0,1-1.6,11.1,45.6,45.6,0,0,1-12.2,22.2l-1.1.9-.7.6-.9.7-.8.4-.9.6-.8.4-.9.4-.8.3-1,.3-.7.2a11,11,0,0,1-5.1,0l-.7-.3a6.7,6.7,0,0,0-.6,4.4,2,2,0,0,0,1.6,1.5h0a26.3,26.3,0,0,1,4.2,1.7,174.4,174.4,0,0,1-4.5,26.8c-3.7,15.5.4,30.3,4.8,41s18.2,17.4,23,11.2,3.3-12.9.3-27.8-10.7-36.2-10.7-52.5,9.6-21.4,14.5-31.1C158.2,151.3,155.1,144,153.1,140.3Z" fill="#172144"/><path d="M148.5,135.4s-17,14.9-33.5,16.5-18.1,1.6-18.1,1.6" fill="none" stroke="#fff" stroke-linecap="round" stroke-linejoin="round" stroke-width="0.35"/><path d="M144.8,124.1s-15.5,17.7-28.3,21.9-18.1,4.3-18.1,4.3" fill="none" stroke="#fff" stroke-linecap="round" stroke-linejoin="round" stroke-width="0.35"/><path d="M135.7,117.7s-4.2,13.5-14.4,19.8" fill="none" stroke="#fff" stroke-linecap="round" stroke-linejoin="round" stroke-width="0.35"/><path d="M106.4,167.9s-.6,17.1-10.2,19.8S76,185,63.7,191.4a26.7,26.7,0,0,0-13.9,27.2" fill="none" stroke="#fff" stroke-linecap="round" stroke-linejoin="round" stroke-width="0.35"/><path d="M46.1,290.7a30.3,30.3,0,0,1-4.3-25.6c4.3-14.4,7.5-19.8,7.5-19.8" fill="none" stroke="#fff" stroke-linecap="round" stroke-linejoin="round" stroke-width="0.35"/><path d="M140.6,195.7s2.7,20.3-6.4,33.1-3.2,30.4-3.2,30.4" fill="none" stroke="#fff" stroke-linecap="round" stroke-linejoin="round" stroke-width="0.35"/><path d="M141.1,177s.5,5.9-7,20.8-9.6,19.8-10.1,30.5" fill="none" stroke="#fff" stroke-linecap="round" stroke-linejoin="round" stroke-width="0.35"/><path d="M192.3,347s12-1.2,19,1.9,8.5,8.1,10,3.5,1.6-7.4-4.2-10.5-8.1-1.1-10.5-3.4a14,14,0,0,0-3.8-3.1s-6.2-.8-6.6,2.7-6.2,4.6-6.2,4.6Z" fill="#fff" stroke="#273339" stroke-miterlimit="10" stroke-width="0.49"/><path d="M242.5,256.1c-4.1-9.2-21-2.9-40.7,13-25.5,20.5-45.2,25.3-55.9,26.1v-.3c-5.5-2.6-13.4-2.7-22.7-1.2l-.9-1.3c-17.9-27.7-22.6-32.5-28.5-27.7s-12.6,12.2-10.4,35.1a34.5,34.5,0,0,0,1.1,5.4,144,144,0,0,0-25,15,65.6,65.6,0,0,0,3.6,11.4c10,23.3,39.4,21.1,58.6,14.1a57.4,57.4,0,0,0,18.7,6.3c15.3,1.9,25.6,1.3,31.6-1l10.2,8.4a159.3,159.3,0,0,0,40.3-44.7A231.7,231.7,0,0,0,236,287.9C242.4,273.4,244.6,260.8,242.5,256.1Z" fill="#172144"/><path d="M122.3,292.3a105.6,105.6,0,0,0,6.9,9.6l69.5-12.5-21.9-17.5L114.9,281Z" fill="#f37567" stroke="#273339" stroke-linecap="round" stroke-linejoin="round" stroke-width="0.49"/><path d="M122.3,292.3a105.6,105.6,0,0,0,6.9,9.6l69.5-12.5-21.9-17.5L114.9,281Z" fill="#fff" stroke="#273339" stroke-linecap="round" stroke-linejoin="round" stroke-width="0.53" opacity="0.5" style="isolation:isolate"/><path d="M137.7,251.3,126.9,299a28.6,28.6,0,0,1,2.2,3l69.6-12.6,13.8-50Z" fill="#f37567" stroke="#273339" stroke-linecap="round" stroke-linejoin="round" stroke-width="0.49"/><path d="M173.1,279a7.1,7.1,0,0,1-3.9-13.6,7.1,7.1,0,0,1,8.8,4.7A7.2,7.2,0,0,1,173.1,279Z" fill="#fff"/><path d="M137.7,251.3,126.9,299a28.6,28.6,0,0,1,2.2,3l69.6-12.6,13.8-50Z" fill="#fff" stroke="#273339" stroke-linecap="round" stroke-linejoin="round" stroke-width="0.53" opacity="0.5" style="isolation:isolate"/><path d="M173.1,279a7.1,7.1,0,0,1-3.9-13.6,7.1,7.1,0,0,1,8.8,4.7A7.2,7.2,0,0,1,173.1,279Z" fill="#fff" stroke="#273339" stroke-linecap="round" stroke-linejoin="round" stroke-width="0.53"/><path d="M169.7,347.1s-9.6,7.1-15,10.1-7.1,1.9-12.3,6.8-9.5,8.4-10.7,10.3-2.7,4-3.5-.4a13.4,13.4,0,0,1,4.9-12.1c3.5-2.4,8.1-3.4,8.1-6.7a5.5,5.5,0,0,1,4.9-5.8c2.7,0,4.5,2.6,9.6,0a23.6,23.6,0,0,0,8.3-8.9Z" fill="#fff" stroke="#273339" stroke-miterlimit="10" stroke-width="0.49"/><path d="M85.1,307.6s10.5,25.3,34.9,36.8" fill="none" stroke="#fff" stroke-miterlimit="10" stroke-width="0.35"/><path d="M167.2,328.3s15.2-7.6,37.3-45.9" fill="none" stroke="#fff" stroke-miterlimit="10" stroke-width="0.35"/><path d="M126.7,299.8s16,23.5,34.7,31.5" fill="none" stroke="#fff" stroke-miterlimit="10" stroke-width="0.35"/></g><path d="M326.9,88.7a10.6,10.6,0,1,0,10.6,10.6A10.6,10.6,0,0,0,326.9,88.7Zm0,16h-3.2a1.5,1.5,0,0,1-.9-.2,1.4,1.4,0,0,1-.7-1.1,7.5,7.5,0,0,1,.4-2.6,2,2,0,0,1,.6-.9,1.6,1.6,0,0,1,1.1-.5h.1l.9.5a3.5,3.5,0,0,0,3.8-.2l.5-.3h.2a1.8,1.8,0,0,1,1.4,1,6.1,6.1,0,0,1,.5,1.8v1a1.3,1.3,0,0,1-1.4,1.5Z" fill="#f37366"/><circle cx="332.3" cy="78.2" r="3" fill="#2fa5dd"/><path d="M310.5,73.1a4.7,4.7,0,0,0-4.7,4.7,4.7,4.7,0,0,0,9.4,0A4.7,4.7,0,0,0,310.5,73.1Zm0,0a4.7,4.7,0,0,0-4.7,4.7,4.7,4.7,0,0,0,9.4,0A4.7,4.7,0,0,0,310.5,73.1Z" fill="#162143"/><path d="M349.6,96.8H349a6.9,6.9,0,0,0-6.4,4.3l-3.3-.6a4.9,4.9,0,0,0,.1-1.2,12.3,12.3,0,0,0-3-8.1l8.3-8.5h.1l.2.2a7.3,7.3,0,0,0,3.3.8,6.8,6.8,0,1,0-6.8-6.8,5.3,5.3,0,0,0,.1,1.3h0c.1.2.1.5.2.7a6.1,6.1,0,0,0,.9,1.8h.1v.2h.1l-8.3,8.4a11,11,0,0,0-3.5-2l1.1-4.3h0a5.2,5.2,0,0,0,5-3.8,5.9,5.9,0,0,0,.2-1.3,5.1,5.1,0,0,0-9.8-2.1,4.6,4.6,0,0,0-.5,2.1,5.3,5.3,0,0,0,2.8,4.6h.1L328.9,87l-2-.2a12.4,12.4,0,0,0-6.6,1.9l-4.8-6.3a6.7,6.7,0,0,0,1.8-4.6,6.8,6.8,0,1,0-13.6,0c0,.4.1.9.1,1.3h0l.3.8a8.9,8.9,0,0,0,.8,1.7h.3l.2.3a.1.1,0,0,1,.1.1h.3a.1.1,0,0,0,.1.1l.2.2.2.2h.2l.2.2.3.2h.3a5.7,5.7,0,0,0,3.2.9,6.6,6.6,0,0,0,3.2-.8l4.8,6.3a12.5,12.5,0,0,0-4.1,9.2,11.8,11.8,0,0,0,1.5,5.9l-2.8,1.9h0a5.1,5.1,0,0,0-3.6-1.5,5.3,5.3,0,0,0-3.2,1.2h0a4.9,4.9,0,0,0-1.9,3.9,5.1,5.1,0,0,0,5.1,5.2,5.2,5.2,0,0,0,3.1-1h0a5.3,5.3,0,0,0,2.1-4.2,4.5,4.5,0,0,0-.3-1.6l2.8-1.9a12.5,12.5,0,0,0,9.7,4.6,11.9,11.9,0,0,0,6.4-1.8l2.2,3a5.6,5.6,0,0,0-1.2,3.4,5.5,5.5,0,0,0,1.2,3.3h.1a4.9,4.9,0,0,0,3.8,1.8,5.1,5.1,0,0,0,5.2-5.1,5.3,5.3,0,0,0-1.2-3.3h0a5.3,5.3,0,0,0-4-1.9,5.8,5.8,0,0,0-1.9.4h-.1l-2.2-3.1a12.6,12.6,0,0,0,3.7-5.8l3.3.6h0v.2a6.9,6.9,0,0,0,6.1,6.8h.7a6.8,6.8,0,0,0,.6-13.6Zm-1.3-24.6a4.7,4.7,0,1,1-4.7,4.7A4.7,4.7,0,0,1,348.3,72.2Zm-37.7,41.4-1.1.2a3.1,3.1,0,0,1-3-3.1,3,3,0,0,1,.5-1.6h0a3.2,3.2,0,0,1,2.5-1.4,3,3,0,0,1,1.1,5.9Zm28.8-.3a3,3,0,0,1,2.8,1.9,2.7,2.7,0,0,1,.3,1.2,3.1,3.1,0,0,1-3.1,3,4.2,4.2,0,0,1-1.5-.4h0a3.1,3.1,0,0,1,1.5-5.7ZM329.3,78.2a3.2,3.2,0,0,1,.7-1.9h0a2.8,2.8,0,0,1,2.3-1.1,3,3,0,0,1,3.1,3h0a3.1,3.1,0,0,1-6.1,0Zm-2.4,31.6a10.5,10.5,0,1,1,10.5-10.5A10.5,10.5,0,0,1,326.9,109.8Zm23.3-1.7h0l-1.2.2h-.5a4.8,4.8,0,0,1-4.2-4.7,4.7,4.7,0,0,1,4.7-4.7h.4a3.4,3.4,0,0,1,1.7.5h.1a4.8,4.8,0,0,1,2.5,4.2A4.6,4.6,0,0,1,350.2,108.1Z" fill="#162143"/><path d="M348.3,72.2a4.7,4.7,0,1,0,4.7,4.7A4.7,4.7,0,0,0,348.3,72.2Zm0,0a4.7,4.7,0,1,0,4.7,4.7A4.7,4.7,0,0,0,348.3,72.2Z" fill="#162143"/><path d="M351.2,99.4h-.1a3.4,3.4,0,0,0-1.7-.5H349a4.7,4.7,0,0,0-4.7,4.7,4.8,4.8,0,0,0,4.2,4.7h.5l1.2-.2h0a4.6,4.6,0,0,0,3.5-4.5A4.8,4.8,0,0,0,351.2,99.4Zm0,0h-.1a3.4,3.4,0,0,0-1.7-.5H349a4.7,4.7,0,0,0-4.7,4.7,4.8,4.8,0,0,0,4.2,4.7h.5l1.2-.2h0a4.6,4.6,0,0,0,3.5-4.5A4.8,4.8,0,0,0,351.2,99.4Z" fill="#162143"/><circle cx="310.5" cy="77.8" r="4.1" fill="#fff"/><circle cx="348.3" cy="76.9" r="4.1" fill="#fff"/><circle cx="349" cy="103.6" r="4.1" fill="#fff"/><circle cx="309.6" cy="110.8" r="2.5" fill="#fff"/><path d="M332.4,103.3a2.1,2.1,0,0,1-1.9,2.2h-7.6a2,2,0,0,1-1.5-2,6.3,6.3,0,0,1,.4-3,3.1,3.1,0,0,1,1.3-1.5,1.6,1.6,0,0,1,1.2-.2h.4l.5.3a3,3,0,0,0,3.4,0c.1-.1.3-.1.4-.3a1,1,0,0,1,.9-.1,2.6,2.6,0,0,1,1.9,1.3,7.9,7.9,0,0,1,.6,2.2Z" fill="#fff"/><path d="M330,95.4a3.2,3.2,0,0,1-3.2,3.2,3.2,3.2,0,1,1,3.2-3.2Z" fill="#fff"/><path d="M312,75.2a.5.5,0,0,1,.2.4v.7c0,.2-.2.3-.4.3h-.4c-.2,0-.2,0-.2.1v.4h.6c.2,0,.3.2.3.4v.8a.3.3,0,0,1-.3.3h-.6v2h0l-.3.2H310c-.1,0-.2-.1-.2-.3h0V78.6h-.6c-.1-.1-.2-.2-.2-.3v-.9c0-.1.1-.2.2-.3h.6v-.5a1.2,1.2,0,0,1,.3-.9.9.9,0,0,1,.8-.4H312Zm-2.7,3h.6a.2.2,0,0,1,.2.2h0v2h.8v-2c0-.2,0-.3.2-.3h.7v-.7h-.7a.2.2,0,0,1-.2-.2v-.6a.5.5,0,0,1,.2-.4h.7v-.7H311l-.6.2a1.1,1.1,0,0,0-.3.8v.7a.2.2,0,0,1-.2.2h-.6Z" fill="#2fa5dd"/><path d="M345.5,76.5v-.4a1.3,1.3,0,0,0,.1-.6c.2-.4.4-.6.8-.6h.8a10.5,10.5,0,0,1,2.5,0h.7a1,1,0,0,1,.7.7v.8a4.9,4.9,0,0,1,0,1.7,1.4,1.4,0,0,1-.2.6.6.6,0,0,1-.6.3h-4a.8.8,0,0,1-.7-.7,1.5,1.5,0,0,1-.1-.7h0Zm3-1.3h-2.1c-.2.1-.4.2-.4.4a.9.9,0,0,0-.1.5,3.8,3.8,0,0,0,0,1.5v.7l.4.4h4c.2,0,.3-.1.4-.3a1.3,1.3,0,0,0,.1-.6V76.3a1.3,1.3,0,0,0-.1-.6c0-.2,0-.3-.1-.4h-2.1Z" fill="#f37366"/><path d="M347.6,76.9v-.6c0-.2.2-.4.4-.3l1.2.7c.1.1.2.3.1.4h-.1l-1.2.7c-.2.1-.4,0-.4-.2Zm1.3,0-.9-.5v1Z" fill="#f37366"/><path d="M351.7,102.4V105h-.1a1.5,1.5,0,0,1-1.1,1.2h-3.3a1.5,1.5,0,0,1-.9-1.3v-2.4a1.4,1.4,0,0,1,.2-.7,1.6,1.6,0,0,1,1.3-.8h2.7a1.4,1.4,0,0,1,1.1,1.1A.4.4,0,0,0,351.7,102.4Zm-.5,1.3v-1.2a.4.4,0,0,0-.1-.3.9.9,0,0,0-.9-.7h-2.7a1.1,1.1,0,0,0-.7,1v2.3a.6.6,0,0,0,.1.4,1,1,0,0,0,.9.7h2.4a1,1,0,0,0,.8-.5,1.1,1.1,0,0,0,.2-.6Z" fill="#162143"/><path d="M350.4,103.7A1.4,1.4,0,0,1,349,105a1.3,1.3,0,0,1-1.4-1.3,1.4,1.4,0,1,1,2.8,0Zm-1.4-.9a.9.9,0,1,0,.9.9A.9.9,0,0,0,349,102.8Z" fill="#162143"/><path d="M350.4,101.9a.4.4,0,0,1,.4.3.4.4,0,0,1-.4.4c-.2,0-.3-.2-.3-.4A.3.3,0,0,1,350.4,101.9Z" fill="#162143"/><path d="M309.7,112.4h-.2l-.7-.2h-.7c-.1,0-.1-.1,0-.1a1.3,1.3,0,0,1,.1-.6h0a1.6,1.6,0,0,1-.2-1,2,2,0,0,1,.4-.8,1.9,1.9,0,0,1,1.4-.5l.8.4a1.2,1.2,0,0,1,.5.9c.1.1.1.1.1.2v.2h0c-.1.2-.1.5-.2.7s-.4.5-.7.6l-.5.2Zm-1.4-.3h.6a1.5,1.5,0,0,0,.9.2l.8-.4a1.4,1.4,0,0,0-.1-2.1,1.4,1.4,0,0,0-1.2-.3,1.6,1.6,0,0,0-1.1,1v.7l.2.4h0c0,.1,0,.2-.1.2Z" fill="#f37366"/><path d="M309.9,111.6c-.2,0-.5,0-.6-.2a1,1,0,0,1-.5-.6.7.7,0,0,1-.1-.5c.1-.1.2-.3.3-.3h.2a.2.2,0,0,1,.2.2.2.2,0,0,1,0,.3h-.1c0,.1.1.2.2.3l.3.2h.4l.2.2a.2.2,0,0,1,0,.3l-.4.2Zm-1-1.1c0,.1.1.3.1.4a1,1,0,0,0,.5.4l.4.2c.2-.1.3-.1.3-.2s0,0,0-.1H310a.1.1,0,0,1-.1.1h-.2a.5.5,0,0,1-.4-.2c-.1-.2-.2-.3-.2-.5h.1c-.1-.1-.1-.1-.2,0h0A.4.4,0,0,0,308.9,110.5Z" fill="#f37366"/></svg>