<svg id="Layer_1" data-name="Layer 1" xmlns="http://www.w3.org/2000/svg" viewBox="0 0 446.09 367.36"><path d="M108.71,94.29c-.78,45.76-68.85,45.75-69.62,0C39.87,48.53,107.93,48.54,108.71,94.29Z" fill="#f3f4f4"/><path d="M76.41,171c63-39.84,147.27,27.87,115.54,98.15-18.09,41.17-63.78,46-68,46.37C40.2,325.28,3.08,217.12,76.41,171Z" fill="#f3f4f4"/><path d="M179.59,43.86C310.45-65.23,498,123,359.27,257.94c-10.85,12.83-45.78,35.55-69.17,18.94C269.5,260.71,293,220.19,270,189.16c-19.28-29.34-53.48-15.42-83.47-39.41C157.37,121.81,152.75,81.8,179.59,43.86Z" fill="#f3f4f4"/><g id="freepik--Floor--inject-26"><path d="M12.24,340.36c135-.61,286.55-.61,421.61,0C298.79,341,147.29,341,12.24,340.36Z" fill="#273339"/></g><g id="freepik--character-1--inject-42"><g id="freepik--character--inject-42"><path d="M247.11,281.93c-20.93,3.31-63.57,0-63.57,0-4.58,3.24-17.6,7.24-17.6,7.24s-7.75,12.12-14.63,23.31q4.44-.93,8.93-1.69c18.72-3.11,30.21-4.6,30.21-4.6A26.61,26.61,0,0,1,202,316.41a25.24,25.24,0,0,1,2.47,5.59c-11.81,9.22-48.09,36.13-79.25,36.57-8.08.11-30.88.46-33.84-8.41l0-.09c-3.83-8.52-2.19-24,3.57-44.2,7.51-26.42,12.31-43.95,17.57-57.44L193,238.71c34.35,3.89,74.92,7.56,90,12.8C291.33,254.36,268,278.62,247.11,281.93Z" fill="#fff" stroke="#132230" stroke-miterlimit="10"/><path d="M227,275.63c-9.45,1.73-23.14-1.83-30.84-4.48a20.85,20.85,0,0,0,.17-8.29,27,27,0,0,1-4,10.2l-3.24,1.56c-5.31,2.3-19.92,9-22.45,6.57a27.93,27.93,0,0,0-15.48-10.89c4.32,3.22,16.82,13.12,11.69,23.65l3.06-4.81s13-4,17.6-7.23c0,0,23.85,1.83,44.62,1.42l25.43-15.83S241.83,266.26,227,275.63Z" fill="#273339"/><path d="M201.67,303.6a27.34,27.34,0,0,1-11.49,6,10.16,10.16,0,0,1-4.18-.18c-4.76-1.24-12.43-1.61-15.58,7.84-3.58,10.7-15.94,15.27-19.55,22.53-1.79,3.66-3.15,14.36-1.89,21.05,1,5.49,11.72,1.95,15.93-4.46s13-14.73,18.72-19.5q5.75-4.23,11.6-8.76,4.31-3.33,8.43-6.64Q202.67,312.53,201.67,303.6Z" fill="#fff" stroke="#132230" stroke-miterlimit="10"/><path d="M267.65,247.12c27.43,3.17,27.57,17.85,20.26,28.56-7.12,10.44-16.72,19.65-51,34-9.46,4-22.21,9-37.63,14.13a7.67,7.67,0,0,1-5.21-.47c-3.7-1.88-5.57-7.51-3.84-13.71,15.74-9.87,37.7-39.05,63.32-42.11Z" fill="#fff" stroke="#132230" stroke-miterlimit="10"/><path d="M153.05,364.39a6.34,6.34,0,0,1-4.46-1.29c-1.19-.92-4.8-8.68-2.09-17.87s9.19-14.8,12.34-17.83a22.78,22.78,0,0,0,5.72-11.19c1.31-4.6,5-10.11,7.35-10.66a10.48,10.48,0,0,1,5.86,1.49Z" fill="#273339"/><path d="M153.05,364.39c5.22.92,9.44-2.3,12-5.66s4.94-6.89,7.86-10.36,6.48-7.88,10.68-10.13,8.39-2.3,7.49-4.59A42.07,42.07,0,0,0,187,325c-1.7-2.29-4.77-.34-5.76.33s.25-3.29,2.8-5.4,2.3-10,4.23-10.11l2-.12a1.93,1.93,0,0,0-1.38-2.35,2.2,2.2,0,0,0-.37-.06c-2.29-.44-4.91,1.31-10.75-.16s-8.61,4.73-10.18,10.94-2.66,9.19-6.89,13.34-11.12,10.85-11.28,20.36S151.35,363.4,153.05,364.39Z" fill="#fef1f0" stroke="#132230" stroke-miterlimit="10"/><path d="M177.89,342.81a4.25,4.25,0,0,0,3-2.82,12.53,12.53,0,0,0-1.21-8.62,1.73,1.73,0,0,0-2.3-.81,1.75,1.75,0,0,0-.55.42h0a1.74,1.74,0,0,0-.21,2A13.28,13.28,0,0,1,177.89,342.81Z" fill="#132230"/><path d="M172.9,348.37a4.9,4.9,0,0,0,2.94-3.49,15.54,15.54,0,0,0-1.31-9.42,1.7,1.7,0,0,0-2.29-.72,1.75,1.75,0,0,0-.46.35h0a1.65,1.65,0,0,0-.19,1.91A13.23,13.23,0,0,1,172.9,348.37Z" fill="#132230"/><path d="M168.1,354.69a5.56,5.56,0,0,0,2.76-3.67,14.79,14.79,0,0,0-1.43-9.08,1.67,1.67,0,0,0-2.25-.73,1.55,1.55,0,0,0-.48.36h0a1.68,1.68,0,0,0-.21,1.91A12.56,12.56,0,0,1,168.1,354.69Z" fill="#132230"/><path d="M191,307.13c4.91-1,12.17-2.29,15.32-6.15s9.47-7.24,17.51-1.38a36.17,36.17,0,0,0,17.48,5.88,60.85,60.85,0,0,1,8.3.78,30.44,30.44,0,0,1,9,4.6A14.83,14.83,0,0,1,263,315a9.36,9.36,0,0,1-.35,10.24,5.29,5.29,0,0,1-1.35,1.36,5.91,5.91,0,0,1-2.3.8,16,16,0,0,1-7.93-1.4c-2.29-.73-4.48-1.31-6.75-1.84a112,112,0,0,0-15.65-2.59c-2.29-.21-7.26-1.17-9.48-1.54-10-1.63-20.84,5.49-20.84,5.49Z" fill="#fff" stroke="#132230" stroke-miterlimit="10"/><path d="M264.5,326a6.21,6.21,0,0,0,2.9-3.63c.41-1.45-2.3-9.19-9.79-15a39.93,39.93,0,0,0-19.37-8,23,23,0,0,1-11.19-5.77c-3.7-2.94-9.92-5.33-12.17-4.36a10.41,10.41,0,0,0-3.89,4.59Z" fill="#273339"/><path d="M215.61,322.87c2.3,1.95,4.6,1,7.35.23,3.68-1.1,8.62-.34,13.79.87,3.44.83,6.61,1.89,10,3s7.31,3.31,10.38,3.72a6.88,6.88,0,0,0,7.56-8.52c-1.31-4.07-7-12.3-16.52-16.91-5.19-2.51-13.78-2.19-19.52-6.6-3.91-3-8.71-6.36-13.79-6.89-2.94-.39-4.11,1.19-5.7,3.38a79.53,79.53,0,0,1-6.89,8.22,16.06,16.06,0,0,0,7.15,4.9,7.21,7.21,0,0,1,2.68,1.24,6,6,0,0,1,1.11,1.7c.41.82.82,1.88.27,2.64a7.66,7.66,0,0,1-.83.78c-1,1-.52,2.71,0,4a12.52,12.52,0,0,0,2.55,3.79A3.84,3.84,0,0,0,215.61,322.87Z" fill="#fef1f0" stroke="#132230" stroke-miterlimit="10"/><path d="M231.76,323a4.34,4.34,0,0,1-4.09-.58,12.48,12.48,0,0,1-4-7.7,1.73,1.73,0,0,1,1.41-2,1.83,1.83,0,0,1,.66,0h0a1.74,1.74,0,0,1,1.33,1.49A13.24,13.24,0,0,0,231.76,323Z" fill="#132230"/><path d="M239.07,324.71a5,5,0,0,1-4.41-1.13,15.47,15.47,0,0,1-4.44-8.43,1.67,1.67,0,0,1,1.42-1.9,1.62,1.62,0,0,1,.58,0h0a1.64,1.64,0,0,1,1.29,1.42A13.18,13.18,0,0,0,239.07,324.71Z" fill="#132230"/><path d="M246.63,327a5.63,5.63,0,0,1-4.39-1.4,14.83,14.83,0,0,1-4.14-8.18,1.72,1.72,0,0,1,1.45-1.93,1.63,1.63,0,0,1,.58,0h0a1.63,1.63,0,0,1,1.26,1.42A12.65,12.65,0,0,0,246.63,327Z" fill="#132230"/><path d="M151.26,312.56A84.15,84.15,0,0,0,124,321.91s12.34-13.12,30.54-14.71Z" fill="#273339"/><path d="M120.47,290.43v1.65a4.6,4.6,0,0,0,2.14,4.19L166,324.18a5,5,0,0,0,2.3.74,4.8,4.8,0,0,0,2.29-.51l84.48-43.35a4.7,4.7,0,0,0,2.55-3.95V276l-89.16,45.95Z" fill="#132230"/><g opacity="0.2"><path d="M168.51,321.79l-.16,3.13a4.81,4.81,0,0,0,2.3-.51l84.43-43.35a4.7,4.7,0,0,0,2.55-3.95V276Z" fill="#010101"/></g><path d="M257.68,275.91,210.4,245.45a2.85,2.85,0,0,0-2.81-.12L120.82,290a.62.62,0,0,0-.24.85.66.66,0,0,0,.24.23l47.74,30.74Z" fill="#ac6dad"/><path d="M257.68,275.91,210.4,245.45a2.85,2.85,0,0,0-2.81-.12L120.82,290a.62.62,0,0,0-.24.85.66.66,0,0,0,.24.23l47.74,30.74Z" fill="#fff" stroke="#132230" stroke-miterlimit="10"/><polygon points="168.26 317.63 142.74 301.23 221.63 260.63 247.29 276.99 168.26 317.63" fill="#fff" stroke="#132230" stroke-miterlimit="10"/><polygon points="157.39 274.9 157.88 275.2 170.37 283.26 193.88 271.15 194.38 270.9 181.4 262.56 157.39 274.9" fill="#384850"/><polygon points="157.88 275.2 170.37 283.26 193.88 271.15 181.38 263.11 157.88 275.2" fill="#fff" stroke="#132230" stroke-miterlimit="10"/><path d="M169.8,322.55a5.57,5.57,0,0,0,4.8-.14l84-43.21a5.66,5.66,0,0,0,2.89-3.75L273,222.61a7,7,0,0,0,.14-.92,5.53,5.53,0,0,0-1.47-4l-87.31,44.91a4.14,4.14,0,0,0-2.13,2.78Z" fill="#ac6dad"/><path d="M169.8,322.55a5.57,5.57,0,0,0,4.8-.14l84-43.21a5.66,5.66,0,0,0,2.89-3.75L273,222.61a7,7,0,0,0,.14-.92,5.53,5.53,0,0,0-1.47-4l-87.31,44.91a4.14,4.14,0,0,0-2.13,2.78Z" fill="#fff" stroke="#132230" stroke-miterlimit="10"/><path d="M168.51,321.79l.53.35a5,5,0,0,0,.76.41l12.45-57.25a4.11,4.11,0,0,1,2.14-2.78l87.3-44.92a4.54,4.54,0,0,0-1.08-.92l-87.46,45a4.22,4.22,0,0,0-2.14,2.78Z" fill="#132230"/><path d="M218.21,275.54a18,18,0,0,1,8.73-10.2c4.06-2.09,6.73-.92,5.95,2.62a18,18,0,0,1-8.73,10.2C220.09,280.25,217.43,279.08,218.21,275.54Z" fill="#f37567" stroke="#132230" stroke-miterlimit="10"/><path d="M271.49,177a12.88,12.88,0,0,1,8.75-3.61,31.62,31.62,0,0,0,5.05-.37,6.55,6.55,0,0,0,5-3.81c.18-.51.27-1.06.46-1.59s.89-1.51,1.24-2.29a5,5,0,0,0,.16-3.68,3.18,3.18,0,0,1-.33-1.42,2.87,2.87,0,0,1,.56-1.15,5.21,5.21,0,0,0,0-5.31,8.27,8.27,0,0,1-.74-1.29c-.32-1,.14-2.06,0-3.1-.21-4.59-7.81-3.31-10.5-2.46-.76.26-4.59,1.36-6.25,1.91a25.44,25.44,0,0,0-.73-7.58c-1.08-4.85-5.93-6.76-6.23-3.84-.16,1.68.55,6.25-1.1,10.25a39.05,39.05,0,0,0-3,6.39c-.8,2.59-1.19,3.76-6.5,9.76-5,5.56-25.64,23.78-25.64,23.78s-22.44-35.08-28.23-44.64c-9.74-16.08-22.56-13.79-30.93-13.3l7.7,31.89s33.93,45.19,40.39,52.15,11.49,6.89,16.79,1.61C243.41,209.49,261.79,188.31,271.49,177Z" fill="#fff" stroke="#132230" stroke-miterlimit="10"/><path d="M277.16,150.21c-2.11.83-3.38,2.44-3.68,6.32a10.52,10.52,0,0,1-4.2,7.81,5.92,5.92,0,0,0,3.4-1.1c1.29-1.1,1.63-1.22,2.3-.46a4.18,4.18,0,0,0,1.63,1.15,3,3,0,0,0-.6,3.54c1,2.09,6.39,2.64,11,.78,0,0-7.35,1.56-8.8-.87s2.59-4.92,5.49-5.42c0,0-7,1-7.9-1.38s2.18-3.79,6.34-4.46c0,0-5.82.5-6.62-1.54A3.56,3.56,0,0,1,277.16,150.21Z" fill="#132230"/><path d="M144.44,130.43s-23.19,4.14-26,5.38c21.92,15.69-2,46.09-2,46.09l9.48,28.62A280.2,280.2,0,0,0,114.06,246c30.44,18.64,69.25,15.54,82-6.31a201.14,201.14,0,0,1-2.5-30.7c.14-5.54,1.49-13.58,1.84-20.68a25.43,25.43,0,0,0,5.3-28.48c-8.61-17.44-23.55-30.19-28.35-30.24Z" fill="#ac6dad"/><path d="M132.42,233c4.71-9.62,12.84-19.69,6.89-26.37s-12.77-28.86-11-36.1L124,169a66.89,66.89,0,0,1-7.53,12.87l9.49,28.62A278.61,278.61,0,0,0,114.09,246a82.86,82.86,0,0,0,36.48,12C138.76,253.67,127.8,242.44,132.42,233Z" fill="#010101" opacity="0.05" style="isolation:isolate"/><path d="M122.67,281.41c-4.74-3.3-28.4-25.73-39.25-36.76-12.84-13-11.48-14.13-9-21,5.49-15.21,18.38-48.52,23.13-62.44,5.68-16.23,11.08-23.3,21.53-25.07,7.88,6.32,14.06,21.27,4.83,47.4L102,228.27s13.58,18.91,22.06,27S134.8,265.68,139,267.51c5.26,2.3,11.9,2.83,13.78,4.6a151.94,151.94,0,0,1,13,15.25c1.79,3,6,9.19,0,11-5.6,1.72-10.13-.72-14.66-3.86a55.79,55.79,0,0,1-6-5.06A22.19,22.19,0,0,1,132,286.72C128.43,284.88,122.67,281.41,122.67,281.41Z" fill="#fff" stroke="#132230" stroke-miterlimit="10"/><path d="M184.05,128.83l-10.94.44C176,128.1,180.34,128.25,184.05,128.83Z" fill="#fef1f0" stroke="#132230" stroke-miterlimit="10"/><path d="M221,169.47A32.84,32.84,0,0,1,202.13,192q-2.41-3.24-4.6-6.26c-.63.82-1.34,1.66-2.12,2.5-.34,7.1-1.7,15.14-1.83,20.68a199.65,199.65,0,0,0,2.5,30.69c-12.77,21.85-51.58,25-82,6.32a280.2,280.2,0,0,1,11.83-35.45q-2.73-10-5.47-20a84.92,84.92,0,0,0-29.61-13.28A93.54,93.54,0,0,1,98,157.32c1-2,4.35-8.63,7.66-12.77,8-9.94,20.68-11.42,38.82-14.12,6-.89,13-1.39,26.93-2.22,7.24-.42,10-.45,13.66.39,8.92,2.05,14.68,7.44,18.66,11.25A65.6,65.6,0,0,1,221,169.47Z" fill="#fef1f0" stroke="#132230" stroke-miterlimit="10"/><path d="M139.33,121.47c1.91-1.67-9.35-10.27-10.43-11.14a50.9,50.9,0,0,1-11.67-11.49A25.28,25.28,0,0,1,124.65,64,28.55,28.55,0,0,1,163,41.5a24.39,24.39,0,0,0,7,2.16,35.42,35.42,0,0,0,5.79-.74A15.93,15.93,0,0,1,192,65.55,9.5,9.5,0,0,1,196.61,74c-.57,3.88-4.32,4.8-4.78,6.73a1.91,1.91,0,0,0,3.24,1.73,3.9,3.9,0,0,1-4.59,3c-4.21-.27-7.86-6-7.86-6Z" fill="#132230" stroke="#132230" stroke-miterlimit="10"/><path d="M178.23,61.33c5.33,2.41,10.36,10.68,10,33.68-.3,19.5-6.32,24.35-9.38,25.77s-8.91.6-14.63-.34l-.12,11.21s13.6,15.33,4.25,21.62c-23.91-4.48-29-20.45-29-20.45l-.12-26.56s-3.33,3.43-9.07-1.72c-4.73-4.25-6.39-11.49-2.74-15.37A10.29,10.29,0,0,1,128.84,88a8.4,8.4,0,0,1,7.32-1.19,7.09,7.09,0,0,1,4.46,6.45,2.06,2.06,0,0,0,.87,1.68,1.57,1.57,0,0,0,1.57,0,5.21,5.21,0,0,0,1.24-1.1A31.29,31.29,0,0,1,151.63,88c3.3-1.68,6.61-3.33,9.81-5.28a42.47,42.47,0,0,0,11.9-10.32,27.65,27.65,0,0,0,3.26-5.56C176.81,66.31,178.64,61.53,178.23,61.33Z" fill="#fff" stroke="#132230" stroke-miterlimit="10"/><path d="M164.09,119.79c-6-.78-14.83-1.54-16.86-6.64a8.63,8.63,0,0,0,3.45,5.23c3.72,3.29,13.66,4,13.66,4Z" fill="#132230"/></g></g><rect x="336.28" y="72.95" width="20.76" height="5.43" rx="2.71" fill="#f37366"/><path d="M359.14,124.65H333.72a6.13,6.13,0,0,1-6.12-6.11V82.82c0-3.36,2.75-3.79,6.12-3.79h25.42c3.36,0,6.11.43,6.11,3.79v35.72A6.13,6.13,0,0,1,359.14,124.65Z" fill="#fff"/><path d="M330.4,127.11a13.83,13.83,0,0,1-2.13-.77,5.81,5.81,0,0,1-3.1-5.38q0-8.19,0-16.37,0-11.86,0-23.73a5.87,5.87,0,0,1,3.53-5.77,8.25,8.25,0,0,1,2.58-.55,24.58,24.58,0,0,1,2.58,0c0-.28,0-.52,0-.75a2.73,2.73,0,0,1,2.79-2.52q9.74,0,19.47,0A2.69,2.69,0,0,1,359,74c0,.14,0,.28,0,.51.43,0,.82,0,1.21,0a18.34,18.34,0,0,1,3,.22,5.86,5.86,0,0,1,4.52,5.64c0,1.29,0,2.59,0,3.88l0,36.49a6,6,0,0,1-3.66,5.87,13.78,13.78,0,0,1-1.54.49Zm3.43-49.32h-2.25a2.78,2.78,0,0,0-3.11,3.09l0,40a2.73,2.73,0,0,0,2.94,3h30.06a3.9,3.9,0,0,0,.76-.06,2.76,2.76,0,0,0,2.21-3l0-38.79c0-.53,0-1,0-1.58a2.52,2.52,0,0,0-1.9-2.45,29.06,29.06,0,0,0-3.49-.21,2.34,2.34,0,0,0,0,.29c-.09,2.07-1.09,3-3.16,3H336.76a2.68,2.68,0,0,1-2.68-1.84A12,12,0,0,1,333.83,77.79Zm3.37,0h18.49v-3.2H337.2Z" fill="#162143"/><path d="M352.57,111.12h5.56c1.06,0,1.78.52,1.79,1.28s-.72,1.32-1.81,1.32H346.93c-1.08,0-1.83-.54-1.83-1.31s.76-1.29,1.85-1.29Z" fill="#162143"/><path d="M352.49,93.43h-5.56c-1.08,0-1.84-.55-1.83-1.32s.76-1.28,1.8-1.28q5.6,0,11.19,0c1,0,1.79.54,1.8,1.29s-.75,1.3-1.83,1.31Z" fill="#162143"/><path d="M352.48,103.75H347c-1.1,0-1.84-.52-1.86-1.28s.75-1.32,1.87-1.32h11.14c1.24,0,2,.8,1.69,1.69a1.65,1.65,0,0,1-1.65.91Z" fill="#f37366"/><path d="M336,102.64c1.09-1.1,2.08-2.1,3.09-3.09a2.1,2.1,0,0,1,.71-.47,1.35,1.35,0,0,1,1.42,2.18q-2.1,2.14-4.25,4.25a1.27,1.27,0,0,1-1.79,0c-.65-.6-1.27-1.22-1.87-1.87a1.34,1.34,0,0,1,.09-1.86,1.36,1.36,0,0,1,1.83,0A8.65,8.65,0,0,1,336,102.64Z" fill="#f37366"/><path d="M336.05,112.64c.25-.3.43-.56.66-.79.82-.83,1.64-1.66,2.48-2.48a1.35,1.35,0,0,1,1.93,0,1.33,1.33,0,0,1,0,1.89q-2.06,2.1-4.16,4.16a1.3,1.3,0,0,1-1.89,0q-.92-.86-1.77-1.77a1.34,1.34,0,0,1,0-1.89,1.37,1.37,0,0,1,1.9,0C335.5,112,335.72,112.28,336.05,112.64Z" fill="#2fa5dd"/><path d="M336,92.38c.32-.37.53-.65.77-.89.8-.82,1.6-1.63,2.42-2.42a1.36,1.36,0,0,1,1.9,0,1.33,1.33,0,0,1,0,1.89q-2.07,2.11-4.19,4.19a1.3,1.3,0,0,1-1.89,0q-.88-.84-1.74-1.74a1.36,1.36,0,0,1,1.92-1.92A8.53,8.53,0,0,1,336,92.38Z" fill="#2fa5dd"/></svg>