<svg xmlns="http://www.w3.org/2000/svg" xmlns:xlink="http://www.w3.org/1999/xlink" viewBox="0 0 449.38 380.57"><defs><linearGradient id="linear-gradient" x1="313.66" y1="356.67" x2="313.66" y2="301.11" gradientTransform="matrix(1, 0, 0, -1, 0, 382)" gradientUnits="userSpaceOnUse"><stop offset="0" stop-color="#20b038"/><stop offset="1" stop-color="#60d66a"/></linearGradient></defs><g style="isolation:isolate"><g id="Layer_1" data-name="Layer 1"><path d="M127.54,96.33c-.68,39-58.72,39-59.39,0C68.84,57.31,126.88,57.31,127.54,96.33Z" fill="#f1efef"/><path d="M100,161.75c53.73-34,125.59,23.77,98.53,83.7-15.42,35.11-54.4,39.23-58,39.55C69.12,293.32,37.46,201.08,100,161.75Z" fill="#f1efef"/><path d="M188,53.32c111.6-93,271.51,67.49,153.25,182.57-9.27,11-39.05,30.32-59,16.16-17.58-13.79,2.44-48.35-17.14-74.81-16.44-25-45.61-13.15-71.18-33.61C169,119.8,165.1,85.68,188,53.32Z" fill="#f1efef"/><g id="freepik--Floor--inject-26"><path d="M44.91,338.29c115.18-.52,244.38-.52,359.56,0C289.29,338.84,160.09,338.84,44.91,338.29Z" fill="#273339"/></g><path d="M251.47,353.67h2.17l-13.78-125.8a2.11,2.11,0,0,0-2.11-1.89H166.9a2.11,2.11,0,0,0-2.11,1.89L151,353.67h2.17l15.38-117.78a2.13,2.13,0,0,1,2.11-1.85H234a2.12,2.12,0,0,1,2.1,1.85Z" fill="#9fbdf9" stroke="#000" stroke-miterlimit="10" stroke-width="0.5"/><polygon points="240.23 250.9 164.42 250.9 167.18 231.35 237.41 231.35 240.23 250.9" fill="#9fbdf9" stroke="#000" stroke-miterlimit="10" stroke-width="0.5"/><rect x="156.51" y="315.66" width="91.63" height="3.14" fill="#9fbdf9" stroke="#000" stroke-miterlimit="10" stroke-width="0.5"/><path d="M277.28,344.32c1.74,2.32,4.39,3.09,6.79,3.93s2.83,4.06,4.44,6.41a6.68,6.68,0,0,0,7.4,3.14c3.67-.62,11.32-2.44,12.36-5.71a3.36,3.36,0,0,0,.18-1.13c0-2.57-3-4.17-5.59-6-3-2.15-6.12-5.61-9.85-9s-5.06-11.5-5.06-11.5l-12.53,3.2c1,3.36,1.95,6.07,1.56,8a20.18,20.18,0,0,0-.56,4.88A6.46,6.46,0,0,0,277.28,344.32Z" fill="#2fa5dd" stroke="#191918" stroke-miterlimit="10" stroke-width="0.75"/><path d="M277.28,344.32c1.74,2.32,4.39,3.09,6.79,3.93s2.83,4.06,4.44,6.41a6.68,6.68,0,0,0,7.4,3.14c3.67-.62,11.32-2.44,12.36-5.71a3.36,3.36,0,0,0,.18-1.13c-4.17,2.23-10.41,3.87-13.39,3.68s-7.63-4.69-8.95-6.4-3.81-2.29-6.06-3.54a10.58,10.58,0,0,1-3.63-4.18A6.46,6.46,0,0,0,277.28,344.32Z" fill="#bf9271" style="mix-blend-mode:multiply"/><path d="M183.54,344.37c1.31,2.59,3.78,3.8,6,5.05s2.08,4.49,3.26,7.08a6.7,6.7,0,0,0,6.75,4.38c3.72,0,11.57-.45,13.16-3.48a3.47,3.47,0,0,0,.37-1.08c.46-2.53-2.23-4.63-4.46-6.92-2.54-2.63-5.05-6.59-8.14-10.55a9.24,9.24,0,0,1-1.87-8L188,327.26c-.7,5.1-1.91,5.15-2.63,7a34.45,34.45,0,0,0-2,6.24A6.38,6.38,0,0,0,183.54,344.37Z" fill="#2fa5dd" stroke="#191918" stroke-miterlimit="10" stroke-width="0.75"/><path d="M183.54,344.37c1.31,2.59,3.78,3.8,6,5.05s2.08,4.49,3.26,7.08a6.7,6.7,0,0,0,6.75,4.38c3.72,0,11.57-.45,13.16-3.48a3.47,3.47,0,0,0,.37-1.08c-4.5,1.47-10.92,2-13.82,1.3s-6.7-5.94-7.71-7.85-3.35-2.92-5.35-4.54a10.46,10.46,0,0,1-2.85-4.75A6.38,6.38,0,0,0,183.54,344.37Z" fill="#bf9271" style="mix-blend-mode:multiply"/><path d="M237.7,217.5S261,236.59,268,246.78s22.44,79.81,22.44,79.81-4.84,4.49-15.6,4.78c0,0-21.88-43.13-26.74-67.67l-45-27-11.53-21.47,39.84-5.85Z" fill="#273339"/><path d="M167,237.76c2.61,7.68,9.79,8.53,13.85,8.75,11,.59,27.59-5.39,27.59-5.39s9.23,3.75,9.69-5.85-9.34-20.44-14.46-19.72-31.84,3.75-31.84,3.75l-3.49-1.81S164.39,230.08,167,237.76Z" fill="#273339"/><path d="M231.08,207.75c.52,4.47,2.36,6.54-2.88,6.75,0,0-5.12-2-27.2,3.63-16,4.06-35.3,1.59-33.15-.92,4.54-26.57-1.68-42.93-1.68-42.93-.86-20.9-8.55-30.07-7.1-34.44.53-1.58,4.83-4.06,10.08-6.55s11.47-5,15.84-6.71l15.07-6.47,12.53,5c6.48,2.44,15.63,8.26,20,12.62,5.63,5.63-2.16,10.13-3,22.83C229.12,167.46,230.67,204.27,231.08,207.75Z" fill="#eef9fe" stroke="#142230" stroke-miterlimit="10"/><path d="M242.72,190c5.39.76,37.18,7.44,37.18,7.44s.44,7.49-1.11,9.7c0,0-34.46.31-39.33-.1s-9.88-13-11.76-22.32" fill="#eef9fe" stroke="#142230" stroke-miterlimit="10"/><path d="M187.49,125.5c9.3,2.37,22.81-1.27,22.81-1.27-1.42-1-2-4.19-2.1-7.55a65.68,65.68,0,0,1,.11-6.89c.09-1.55.2-2.58.2-2.58L189,94.8c1.94,11.8,1.57,21.73.43,26.92A8.32,8.32,0,0,1,187.49,125.5Z" fill="#fff" stroke="#263238" stroke-linecap="round" stroke-linejoin="round" stroke-width="0.5"/><path d="M186.38,126s2.92-2.82,3.29-5.55a16.6,16.6,0,0,0,11.49,3s.09,2,.71,2,.72-2.09.72-2.09,4.46-.56,6-3.09c0,0,1.73,4.16,4,4.76,0,0-3.15,1.51-10.18,2.47S186.38,126,186.38,126Z" fill="#ffb948"/><path d="M200.81,130.62s-6.07,50.25-5.59,57.87,6.45,22.8,8.44,23.51,6.27-15.81,7.13-22.68-7.26-58.79-7.26-58.79" fill="#fff" stroke="#142230" stroke-miterlimit="10" stroke-width="0.5"/><path d="M200.06,124.09a5.5,5.5,0,0,1,3.73-.2c.82.37,1.66,2.65,1.79,3.3s-1.34,2.88-2,3.67a11.51,11.51,0,0,1-2.78.14,8.73,8.73,0,0,1-2.09-3.94A4,4,0,0,1,200.06,124.09Z" fill="#eef9fe" stroke="#142230" stroke-miterlimit="10"/><path d="M223.74,80.5s2.73,28.43-7.64,34.72c-4.68,2.83-19.95-10.1-19.95-10.1s-10-8.65-8.3-18.66C191.09,67.54,220.81,61.67,223.74,80.5Z" fill="#fff" stroke="#263238" stroke-linecap="round" stroke-linejoin="round" stroke-width="0.5"/><path d="M228.77,69.69c-.29-.2-2.7,1.63-10.75-4.7-3.26-2.56-9.14-3.86-15.79-2.23A11,11,0,0,0,194.57,69s-4.64-1-8.32,3.69c-8.16,10.37,2.52,34.07,3.91,34.42s-1.74-15.52,4.91-15.33c4,.11,5.19,7,5.83,6.32s-.06-8.54.58-10.28A2.7,2.7,0,0,1,204,86.67c3.08.4,2.45-4.79,5-5.57,1.6-.49,6.53-.36,9.83.51C231.83,85.05,233.26,72.81,228.77,69.69Z" fill="#263238"/><path d="M222.79,199.87c-1-.41-7.65-2-9.12-1.75s-6,0-7.55,0-6.52-.62-6.52-.62l.56,7.53c1.47-.14,3.44.62,4.5.77a14.59,14.59,0,0,0,6.87-.94l.36-.2a5.7,5.7,0,0,0,3.24,1.62s1-.1.88-.49a20.83,20.83,0,0,0-1.33-2.13c.95,1,2.49,2.53,4.28,2.62,0,0,1-.1.87-.49a25.46,25.46,0,0,0-1.72-2.72l0,0c.78.69,2.65,3.08,4.86,3.19,0,0,1-.1.87-.49a9.54,9.54,0,0,0-.85-1.41,13.06,13.06,0,0,0,2.09,1.3c2.39,1.18,3.75.29,3.75,0S223.79,200.28,222.79,199.87Z" fill="#fff" stroke="#263238" stroke-linecap="round" stroke-linejoin="round" stroke-width="0.5"/><path d="M204.64,204.11h77.07a.45.45,0,0,1,.45.45v2.78a0,0,0,0,1,0,0h-78a0,0,0,0,1,0,0v-2.78A.45.45,0,0,1,204.64,204.11Z" fill="#88aae2" stroke="#000" stroke-miterlimit="10" stroke-width="0.5"/><path d="M159.71,138.91c-8.06,8.82-10.21,32.11-7.71,51.41,1,7.87.6,17.43,12.31,17.43,9.07,0,36.36-.42,36.36-.42,1.58-3.48,1.14-9.9,1.14-9.9l-31.76-6.08s0-27-1.94-33.52" fill="#eef9fe" stroke="#142230" stroke-miterlimit="10"/><path d="M194.51,94.26c.54-.24,1.46-.31,2.14,1.09s.12,1.32,0,2.2.7.84.94,1.59-.05,2.54-1.61,2.21-1.93-2.71-2.11-3.43S193.35,94.79,194.51,94.26Z" fill="#f1efef"/><path d="M201.16,123.48a34,34,0,0,0-1.56,5.88c-.21.32-10.13-1.77-12.81-3.81,0,0,2-4.55,2.88-5.12A46.3,46.3,0,0,0,201.16,123.48Z" fill="#2fa5dd" stroke="#142230" stroke-miterlimit="10"/><path d="M202.59,123.4a38.19,38.19,0,0,1,2.27,5.6c.9,0,7-3.9,7.25-4.1s-3.11-4.66-3.55-4.59C208.37,120.71,206.27,121.91,202.59,123.4Z" fill="#2fa5dd" stroke="#142230" stroke-miterlimit="10"/><path d="M376.54,355.09h-4.36a1.44,1.44,0,0,1-1.4-1.09L337,223.06l-1.93-7.51h19.77l1.26,7.51L378,353.4A1.45,1.45,0,0,1,376.54,355.09Z" fill="#9fbdf9" stroke="#7878c4" stroke-miterlimit="10" stroke-width="0.5"/><path d="M111.31,215.55l-1.93,7.51L75.61,354a1.44,1.44,0,0,1-1.39,1.09H69.85a1.44,1.44,0,0,1-1.42-1.69L90.28,223.06l1.26-7.51Z" fill="#9fbdf9" stroke="#000" stroke-miterlimit="10" stroke-width="0.5"/><polygon points="91.54 215.55 111.31 215.55 109.38 223.06 90.28 223.06 91.54 215.55" fill="#88aae2" stroke="#000" stroke-miterlimit="10" stroke-width="0.5"/><polygon points="356.11 223.06 337.01 223.06 335.08 215.55 354.85 215.55 356.11 223.06" fill="#88aae2" stroke="#000" stroke-miterlimit="10" stroke-width="0.5"/><path d="M67.87,215.55H381.52a4.11,4.11,0,0,0,4.11-4.11h0a4.11,4.11,0,0,0-4.11-4.11H67.87a4.12,4.12,0,0,0-4.12,4.11h0A4.12,4.12,0,0,0,67.87,215.55Z" fill="#9fbdf9" stroke="#000" stroke-miterlimit="10" stroke-width="0.5"/><path d="M385.62,211.44a4.1,4.1,0,0,1-4.11,4.11H67.86a4.1,4.1,0,0,1-4.11-4.11Z" fill="#8fb2ea" stroke="#000" stroke-miterlimit="10" stroke-width="0.5"/><path d="M339.3,190H224.23a2.48,2.48,0,0,1-2.46-2.8l10.13-77.32a2.47,2.47,0,0,1,2.46-2.16H349.43a2.48,2.48,0,0,1,2.46,2.8l-10.13,77.32A2.47,2.47,0,0,1,339.3,190Z" fill="#6888d5" stroke="#191918" stroke-miterlimit="10"/><path d="M343.62,190H228.55a2.48,2.48,0,0,1-2.46-2.8l10.12-77.32a2.48,2.48,0,0,1,2.46-2.16H353.74a2.48,2.48,0,0,1,2.46,2.8l-10.12,77.32A2.48,2.48,0,0,1,343.62,190Z" fill="#9fbdf9" stroke="#191918" stroke-miterlimit="10"/><path d="M291.71,207.33H271.18l10.53-80.45a2.11,2.11,0,0,1,2.09-1.83h16.28a2.1,2.1,0,0,1,2.09,2.38Z" fill="#6888d5" stroke="#191918" stroke-miterlimit="10" stroke-width="0.5"/><path d="M294.43,207.33H273.9l10.53-80.45a2.11,2.11,0,0,1,2.09-1.83H302.8a2.1,2.1,0,0,1,2.09,2.38Z" fill="#5e83cc" stroke="#191918" stroke-miterlimit="10" stroke-width="0.5"/><path d="M251.07,203.78h63.77a1,1,0,0,1,1,1v2.53a0,0,0,0,1,0,0H250.05a0,0,0,0,1,0,0V204.8A1,1,0,0,1,251.07,203.78Z" fill="#5e83cc" stroke="#191918" stroke-miterlimit="10" stroke-width="0.5"/><path d="M135.81,199.84l.46,1.83,1-1.58a1.85,1.85,0,0,0-.73-.28A2.1,2.1,0,0,0,135.81,199.84Z" fill="#ffd41d"/><path d="M358.29,194.59s-8-4.7-9.76-13.91c0,0,7.55,1.56,11.34,13.91" fill="#d6d4ff"/><path d="M358.29,194.59s-8-4.7-9.76-13.91c0,0,7.55,1.56,11.34,13.91" fill="none" stroke="#000" stroke-miterlimit="10" stroke-width="0.5"/><path d="M361.45,194.59s8-4.7,9.76-13.91c0,0-7.56,1.56-11.34,13.91" fill="#d6d4ff"/><path d="M361.45,194.59s8-4.7,9.76-13.91c0,0-7.56,1.56-11.34,13.91" fill="none" stroke="#000" stroke-miterlimit="10" stroke-width="0.5"/><path d="M359,193.83s-5.78-7.27-4.08-16.49c0,0,6.48,4.19,5.56,17.07" fill="#d6d4ff"/><path d="M359,193.83s-5.78-7.27-4.08-16.49c0,0,6.48,4.19,5.56,17.07" fill="none" stroke="#000" stroke-miterlimit="10" stroke-width="0.5"/><path d="M360.9,193.86s5.61-7.4,3.68-16.58c0,0-6.38,4.34-5.14,17.19" fill="#d6d4ff"/><path d="M360.9,193.86s5.61-7.4,3.68-16.58c0,0-6.38,4.34-5.14,17.19" fill="none" stroke="#000" stroke-miterlimit="10" stroke-width="0.5"/><rect x="350.94" y="192.72" width="17.47" height="14.61" fill="#594a5f" stroke="#000" stroke-miterlimit="10" stroke-width="0.5"/><rect x="364.98" y="192.72" width="3.43" height="14.61" fill="#4c4051"/><path d="M214.86,246.3c1.54,1.65,9.25,7.42,6.2,16.77-3.85,11.82-21.83,70.12-21.83,70.12s-13.37-.43-13.27-4.74c0,0-.42-56,10.95-67.37" fill="#273339"/><path d="M206.83,230c10.73,15.29,14.26,24.77,14.26,24.77s-5.19,7.77-24.88,7.77c0,0-27.88-11.67-30-28.25" fill="#273339"/><path d="M341.43,53.12a27.81,27.81,0,0,1-27.78,27.77h0A27.77,27.77,0,0,1,299.51,77l-1-.6L288,79.18l2.8-10.25-.65-1.06a27.77,27.77,0,1,1,51.3-14.76Z" fill="url(#linear-gradient)"/><path d="M305.3,39.13c-.62-1.39-1.28-1.42-1.88-1.44s-1,0-1.59,0a3.06,3.06,0,0,0-2.23,1,9.36,9.36,0,0,0-2.92,7c0,4.11,3,8.08,3.41,8.64s5.77,9.26,14.25,12.6c7.06,2.78,8.49,2.23,10,2.09s4.95-2,5.64-4a7,7,0,0,0,.49-4c-.2-.35-.77-.55-1.6-1s-4.94-2.44-5.71-2.72-1.32-.41-1.88.41-2.15,2.72-2.64,3.28-1,.62-1.81.21a22.87,22.87,0,0,1-6.72-4.15,25.29,25.29,0,0,1-4.64-5.78c-.49-.84-.05-1.29.37-1.71s.83-1,1.25-1.46a5.63,5.63,0,0,0,.83-1.39,1.5,1.5,0,0,0-.07-1.46c-.2-.42-1.83-4.55-2.57-6.21Z" fill="#fff" fill-rule="evenodd"/><path d="M337.3,29.48a33.43,33.43,0,0,0-52.6,40.33L280,87.11l17.71-4.65a33.38,33.38,0,0,0,16,4.07h0a33.42,33.42,0,0,0,23.65-57ZM313.65,80.89h0A27.77,27.77,0,0,1,299.51,77l-1-.6L288,79.18l2.8-10.25-.65-1.06a27.77,27.77,0,1,1,51.3-14.76h0A27.81,27.81,0,0,1,313.65,80.89Z" fill="#fff" stroke="#263238" stroke-linecap="round" stroke-linejoin="round" stroke-width="0.5"/></g></g></svg>